<svg width="2113" height="599" viewBox="0 0 2113 599" fill="none" xmlns="http://www.w3.org/2000/svg">
<g clip-path="url(#clip0_3_159)">
<path d="M2089 0H30C15.0883 0 3 12.0883 3 27V572C3 586.912 15.0883 599 30 599H2089C2103.91 599 2116 586.912 2116 572V27C2116 12.0883 2103.91 0 2089 0Z" fill=""/>
<path d="M805 214.164V116.836C805 114.717 802.407 113 799.209 113L464.791 113C461.593 113 459 114.717 459 116.836V214.164C459 216.283 461.593 218 464.791 218H799.209C802.407 218 805 216.283 805 214.164Z" fill="#E7ECF8"/>
<path d="M805 482.164V384.836C805 382.717 802.407 381 799.209 381H464.791C461.593 381 459 382.717 459 384.836V482.164C459 484.283 461.593 486 464.791 486H799.209C802.407 486 805 484.283 805 482.164Z" fill="#E7ECF8"/>
<path d="M1383 214.164V116.836C1383 114.717 1380.41 113 1377.21 113L1042.79 113C1039.59 113 1037 114.717 1037 116.836V214.164C1037 216.283 1039.59 218 1042.79 218H1377.21C1380.41 218 1383 216.283 1383 214.164Z" fill="#E7ECF8"/>
<path d="M1383 482.164V384.836C1383 382.717 1380.41 381 1377.21 381H1042.79C1039.59 381 1037 382.717 1037 384.836V482.164C1037 484.283 1039.59 486 1042.79 486H1377.21C1380.41 486 1383 484.283 1383 482.164Z" fill="#E7ECF8"/>
<path d="M1962 214.164V116.836C1962 114.717 1959.41 113 1956.21 113L1621.79 113C1618.59 113 1616 114.717 1616 116.836V214.164C1616 216.283 1618.59 218 1621.79 218H1956.21C1959.41 218 1962 216.283 1962 214.164Z" fill="#E7ECF8"/>
<path d="M1962 482.164V384.836C1962 382.717 1959.41 381 1956.21 381H1621.79C1618.59 381 1616 382.717 1616 384.836V482.164C1616 484.283 1618.59 486 1621.79 486H1956.21C1959.41 486 1962 484.283 1962 482.164Z" fill="#E7ECF8"/>
<g filter="url(#filter0_d_3_159)">
<path d="M470 133.756C470 128.368 473.645 124 478.141 124H535.126V204H478.955C474.009 204 470 199.195 470 193.268V133.756Z" fill="#92A9EF"/>
<path d="M535.126 124H785.859C790.355 124 794 128.368 794 133.756V194.244C794 199.632 790.355 204 785.859 204H535.126V124Z" fill="white"/>
<path d="M559.17 175V148.818H568.017C570.063 148.818 571.741 149.168 573.054 149.866C574.366 150.557 575.338 151.507 575.969 152.717C576.599 153.928 576.915 155.304 576.915 156.847C576.915 158.389 576.599 159.757 575.969 160.95C575.338 162.143 574.371 163.081 573.067 163.763C571.763 164.436 570.097 164.773 568.068 164.773H560.909V161.909H567.966C569.364 161.909 570.489 161.705 571.341 161.295C572.202 160.886 572.824 160.307 573.207 159.557C573.599 158.798 573.795 157.895 573.795 156.847C573.795 155.798 573.599 154.882 573.207 154.098C572.815 153.314 572.189 152.709 571.328 152.283C570.467 151.848 569.33 151.631 567.915 151.631H562.341V175H559.17ZM571.494 163.239L577.938 175H574.256L567.915 163.239H571.494ZM589.811 175.409C587.919 175.409 586.287 174.991 584.914 174.156C583.551 173.312 582.498 172.136 581.757 170.628C581.024 169.111 580.657 167.347 580.657 165.335C580.657 163.324 581.024 161.551 581.757 160.017C582.498 158.474 583.529 157.273 584.85 156.412C586.18 155.543 587.731 155.108 589.504 155.108C590.527 155.108 591.537 155.278 592.534 155.619C593.531 155.96 594.439 156.514 595.257 157.281C596.075 158.04 596.727 159.045 597.213 160.298C597.699 161.551 597.941 163.094 597.941 164.926V166.205H582.805V163.597H594.873C594.873 162.489 594.652 161.5 594.208 160.631C593.774 159.761 593.152 159.075 592.342 158.572C591.541 158.07 590.595 157.818 589.504 157.818C588.302 157.818 587.262 158.116 586.385 158.713C585.515 159.301 584.846 160.068 584.377 161.014C583.909 161.96 583.674 162.974 583.674 164.057V165.795C583.674 167.278 583.93 168.536 584.441 169.567C584.961 170.589 585.681 171.369 586.602 171.906C587.522 172.435 588.592 172.699 589.811 172.699C590.603 172.699 591.319 172.588 591.958 172.366C592.606 172.136 593.164 171.795 593.633 171.344C594.102 170.884 594.464 170.312 594.72 169.631L597.635 170.449C597.328 171.438 596.812 172.307 596.088 173.057C595.363 173.798 594.468 174.378 593.403 174.795C592.338 175.205 591.14 175.409 589.811 175.409ZM610.508 175.409C608.667 175.409 607.082 174.974 605.752 174.105C604.423 173.236 603.4 172.038 602.684 170.513C601.968 168.987 601.61 167.244 601.61 165.284C601.61 163.29 601.977 161.53 602.71 160.004C603.451 158.47 604.483 157.273 605.804 156.412C607.133 155.543 608.684 155.108 610.457 155.108C611.838 155.108 613.082 155.364 614.19 155.875C615.298 156.386 616.206 157.102 616.913 158.023C617.62 158.943 618.059 160.017 618.23 161.244H615.213C614.983 160.349 614.471 159.557 613.679 158.866C612.895 158.168 611.838 157.818 610.508 157.818C609.332 157.818 608.301 158.125 607.414 158.739C606.537 159.344 605.85 160.2 605.356 161.308C604.87 162.408 604.627 163.699 604.627 165.182C604.627 166.699 604.866 168.02 605.343 169.145C605.829 170.27 606.511 171.143 607.389 171.766C608.275 172.388 609.315 172.699 610.508 172.699C611.292 172.699 612.004 172.562 612.643 172.29C613.282 172.017 613.824 171.625 614.267 171.114C614.71 170.602 615.025 169.989 615.213 169.273H618.23C618.059 170.432 617.637 171.476 616.964 172.405C616.299 173.325 615.417 174.058 614.318 174.604C613.227 175.141 611.957 175.409 610.508 175.409ZM630.873 175.409C628.981 175.409 627.349 174.991 625.977 174.156C624.613 173.312 623.561 172.136 622.819 170.628C622.086 169.111 621.72 167.347 621.72 165.335C621.72 163.324 622.086 161.551 622.819 160.017C623.561 158.474 624.592 157.273 625.913 156.412C627.243 155.543 628.794 155.108 630.566 155.108C631.589 155.108 632.599 155.278 633.596 155.619C634.593 155.96 635.501 156.514 636.319 157.281C637.137 158.04 637.789 159.045 638.275 160.298C638.761 161.551 639.004 163.094 639.004 164.926V166.205H623.868V163.597H635.936C635.936 162.489 635.714 161.5 635.271 160.631C634.836 159.761 634.214 159.075 633.404 158.572C632.603 158.07 631.657 157.818 630.566 157.818C629.365 157.818 628.325 158.116 627.447 158.713C626.578 159.301 625.909 160.068 625.44 161.014C624.971 161.96 624.737 162.974 624.737 164.057V165.795C624.737 167.278 624.993 168.536 625.504 169.567C626.024 170.589 626.744 171.369 627.664 171.906C628.585 172.435 629.654 172.699 630.873 172.699C631.666 172.699 632.382 172.588 633.021 172.366C633.669 172.136 634.227 171.795 634.696 171.344C635.164 170.884 635.527 170.312 635.782 169.631L638.697 170.449C638.39 171.438 637.875 172.307 637.15 173.057C636.426 173.798 635.531 174.378 634.466 174.795C633.4 175.205 632.203 175.409 630.873 175.409ZM643.593 175V155.364H646.61V175H643.593ZM645.127 152.091C644.539 152.091 644.032 151.891 643.606 151.49C643.189 151.089 642.98 150.608 642.98 150.045C642.98 149.483 643.189 149.001 643.606 148.601C644.032 148.2 644.539 148 645.127 148C645.716 148 646.218 148.2 646.636 148.601C647.062 149.001 647.275 149.483 647.275 150.045C647.275 150.608 647.062 151.089 646.636 151.49C646.218 151.891 645.716 152.091 645.127 152.091ZM668.193 155.364L660.932 175H657.864L650.602 155.364H653.875L659.295 171.011H659.5L664.92 155.364H668.193ZM679.705 175.409C677.813 175.409 676.181 174.991 674.809 174.156C673.445 173.312 672.393 172.136 671.651 170.628C670.918 169.111 670.552 167.347 670.552 165.335C670.552 163.324 670.918 161.551 671.651 160.017C672.393 158.474 673.424 157.273 674.745 156.412C676.075 155.543 677.626 155.108 679.398 155.108C680.421 155.108 681.431 155.278 682.428 155.619C683.425 155.96 684.333 156.514 685.151 157.281C685.969 158.04 686.621 159.045 687.107 160.298C687.593 161.551 687.836 163.094 687.836 164.926V166.205H672.7V163.597H684.768C684.768 162.489 684.546 161.5 684.103 160.631C683.668 159.761 683.046 159.075 682.237 158.572C681.435 158.07 680.489 157.818 679.398 157.818C678.197 157.818 677.157 158.116 676.279 158.713C675.41 159.301 674.741 160.068 674.272 161.014C673.803 161.96 673.569 162.974 673.569 164.057V165.795C673.569 167.278 673.825 168.536 674.336 169.567C674.856 170.589 675.576 171.369 676.496 171.906C677.417 172.435 678.487 172.699 679.705 172.699C680.498 172.699 681.214 172.588 681.853 172.366C682.501 172.136 683.059 171.795 683.528 171.344C683.996 170.884 684.359 170.312 684.614 169.631L687.529 170.449C687.222 171.438 686.707 172.307 685.982 173.057C685.258 173.798 684.363 174.378 683.298 174.795C682.232 175.205 681.035 175.409 679.705 175.409ZM692.425 175V155.364H695.34V158.33H695.545C695.903 157.358 696.55 156.57 697.488 155.964C698.425 155.359 699.482 155.057 700.658 155.057C700.88 155.057 701.157 155.061 701.489 155.07C701.822 155.078 702.073 155.091 702.244 155.108V158.176C702.141 158.151 701.907 158.112 701.54 158.061C701.183 158.001 700.803 157.972 700.403 157.972C699.448 157.972 698.596 158.172 697.846 158.572C697.104 158.964 696.516 159.51 696.082 160.209C695.656 160.899 695.442 161.687 695.442 162.574V175H692.425Z" fill="#7D88A1"/>
<path d="M488 170.449L506 175.549V181.399L488 176.299V170.449Z" stroke="white" stroke-width="3" stroke-linecap="round" stroke-linejoin="round"/>
<path d="M506 175.701L524 170.601V176.451L506 181.551V175.701Z" stroke="white" stroke-width="3" stroke-linecap="round" stroke-linejoin="round"/>
<path d="M488 170L501.5 166.25M510.5 166.25L524 170" stroke="white" stroke-width="3" stroke-linecap="round" stroke-linejoin="round"/>
<path d="M510.5 146V159.5" stroke="white" stroke-width="3" stroke-linecap="round" stroke-linejoin="round"/>
<path d="M501.5 146V159.5" stroke="white" stroke-width="3" stroke-linecap="round" stroke-linejoin="round"/>
<path d="M510.5 159.5L515 161" stroke="white" stroke-width="3" stroke-linecap="round" stroke-linejoin="round"/>
<path d="M497 161L501.5 159.5" stroke="white" stroke-width="3" stroke-linecap="round" stroke-linejoin="round"/>
<path d="M506 170L515 161" stroke="white" stroke-width="3" stroke-linecap="round" stroke-linejoin="round"/>
<path d="M506 170L497 161" stroke="white" stroke-width="3" stroke-linecap="round" stroke-linejoin="round"/>
</g>
<g filter="url(#filter1_d_3_159)">
<path d="M470 401.756C470 396.368 473.645 392 478.141 392H535.126V472H478.955C474.009 472 470 467.195 470 461.268V401.756Z" fill="#92A9EF"/>
<path d="M488 438.449L506 443.549V449.399L488 444.299V438.449Z" stroke="white" stroke-width="3" stroke-linecap="round" stroke-linejoin="round"/>
<path d="M506 443.701L524 438.601V444.451L506 449.551V443.701Z" stroke="white" stroke-width="3" stroke-linecap="round" stroke-linejoin="round"/>
<path d="M488 438L501.5 434.25M510.5 434.25L524 438" stroke="white" stroke-width="3" stroke-linecap="round" stroke-linejoin="round"/>
<path d="M510.5 414V427.5" stroke="white" stroke-width="3" stroke-linecap="round" stroke-linejoin="round"/>
<path d="M501.5 414V427.5" stroke="white" stroke-width="3" stroke-linecap="round" stroke-linejoin="round"/>
<path d="M510.5 427.5L515 429" stroke="white" stroke-width="3" stroke-linecap="round" stroke-linejoin="round"/>
<path d="M497 429L501.5 427.5" stroke="white" stroke-width="3" stroke-linecap="round" stroke-linejoin="round"/>
<path d="M506 438L515 429" stroke="white" stroke-width="3" stroke-linecap="round" stroke-linejoin="round"/>
<path d="M506 438L497 429" stroke="white" stroke-width="3" stroke-linecap="round" stroke-linejoin="round"/>
<path d="M535.126 392H785.859C790.355 392 794 396.368 794 401.756V462.244C794 467.632 790.355 472 785.859 472H535.126V392Z" fill="white"/>
<path d="M559.17 443V416.818H568.017C570.063 416.818 571.741 417.168 573.054 417.866C574.366 418.557 575.338 419.507 575.969 420.717C576.599 421.928 576.915 423.304 576.915 424.847C576.915 426.389 576.599 427.757 575.969 428.95C575.338 430.143 574.371 431.081 573.067 431.763C571.763 432.436 570.097 432.773 568.068 432.773H560.909V429.909H567.966C569.364 429.909 570.489 429.705 571.341 429.295C572.202 428.886 572.824 428.307 573.207 427.557C573.599 426.798 573.795 425.895 573.795 424.847C573.795 423.798 573.599 422.882 573.207 422.098C572.815 421.314 572.189 420.709 571.328 420.283C570.467 419.848 569.33 419.631 567.915 419.631H562.341V443H559.17ZM571.494 431.239L577.938 443H574.256L567.915 431.239H571.494ZM589.811 443.409C587.919 443.409 586.287 442.991 584.914 442.156C583.551 441.312 582.498 440.136 581.757 438.628C581.024 437.111 580.657 435.347 580.657 433.335C580.657 431.324 581.024 429.551 581.757 428.017C582.498 426.474 583.529 425.273 584.85 424.412C586.18 423.543 587.731 423.108 589.504 423.108C590.527 423.108 591.537 423.278 592.534 423.619C593.531 423.96 594.439 424.514 595.257 425.281C596.075 426.04 596.727 427.045 597.213 428.298C597.699 429.551 597.941 431.094 597.941 432.926V434.205H582.805V431.597H594.873C594.873 430.489 594.652 429.5 594.208 428.631C593.774 427.761 593.152 427.075 592.342 426.572C591.541 426.07 590.595 425.818 589.504 425.818C588.302 425.818 587.262 426.116 586.385 426.713C585.515 427.301 584.846 428.068 584.377 429.014C583.909 429.96 583.674 430.974 583.674 432.057V433.795C583.674 435.278 583.93 436.536 584.441 437.567C584.961 438.589 585.681 439.369 586.602 439.906C587.522 440.435 588.592 440.699 589.811 440.699C590.603 440.699 591.319 440.588 591.958 440.366C592.606 440.136 593.164 439.795 593.633 439.344C594.102 438.884 594.464 438.312 594.72 437.631L597.635 438.449C597.328 439.438 596.812 440.307 596.088 441.057C595.363 441.798 594.468 442.378 593.403 442.795C592.338 443.205 591.14 443.409 589.811 443.409ZM610.508 443.409C608.667 443.409 607.082 442.974 605.752 442.105C604.423 441.236 603.4 440.038 602.684 438.513C601.968 436.987 601.61 435.244 601.61 433.284C601.61 431.29 601.977 429.53 602.71 428.004C603.451 426.47 604.483 425.273 605.804 424.412C607.133 423.543 608.684 423.108 610.457 423.108C611.838 423.108 613.082 423.364 614.19 423.875C615.298 424.386 616.206 425.102 616.913 426.023C617.62 426.943 618.059 428.017 618.23 429.244H615.213C614.983 428.349 614.471 427.557 613.679 426.866C612.895 426.168 611.838 425.818 610.508 425.818C609.332 425.818 608.301 426.125 607.414 426.739C606.537 427.344 605.85 428.2 605.356 429.308C604.87 430.408 604.627 431.699 604.627 433.182C604.627 434.699 604.866 436.02 605.343 437.145C605.829 438.27 606.511 439.143 607.389 439.766C608.275 440.388 609.315 440.699 610.508 440.699C611.292 440.699 612.004 440.562 612.643 440.29C613.282 440.017 613.824 439.625 614.267 439.114C614.71 438.602 615.025 437.989 615.213 437.273H618.23C618.059 438.432 617.637 439.476 616.964 440.405C616.299 441.325 615.417 442.058 614.318 442.604C613.227 443.141 611.957 443.409 610.508 443.409ZM630.873 443.409C628.981 443.409 627.349 442.991 625.977 442.156C624.613 441.312 623.561 440.136 622.819 438.628C622.086 437.111 621.72 435.347 621.72 433.335C621.72 431.324 622.086 429.551 622.819 428.017C623.561 426.474 624.592 425.273 625.913 424.412C627.243 423.543 628.794 423.108 630.566 423.108C631.589 423.108 632.599 423.278 633.596 423.619C634.593 423.96 635.501 424.514 636.319 425.281C637.137 426.04 637.789 427.045 638.275 428.298C638.761 429.551 639.004 431.094 639.004 432.926V434.205H623.868V431.597H635.936C635.936 430.489 635.714 429.5 635.271 428.631C634.836 427.761 634.214 427.075 633.404 426.572C632.603 426.07 631.657 425.818 630.566 425.818C629.365 425.818 628.325 426.116 627.447 426.713C626.578 427.301 625.909 428.068 625.44 429.014C624.971 429.96 624.737 430.974 624.737 432.057V433.795C624.737 435.278 624.993 436.536 625.504 437.567C626.024 438.589 626.744 439.369 627.664 439.906C628.585 440.435 629.654 440.699 630.873 440.699C631.666 440.699 632.382 440.588 633.021 440.366C633.669 440.136 634.227 439.795 634.696 439.344C635.164 438.884 635.527 438.312 635.782 437.631L638.697 438.449C638.39 439.438 637.875 440.307 637.15 441.057C636.426 441.798 635.531 442.378 634.466 442.795C633.4 443.205 632.203 443.409 630.873 443.409ZM643.593 443V423.364H646.61V443H643.593ZM645.127 420.091C644.539 420.091 644.032 419.891 643.606 419.49C643.189 419.089 642.98 418.608 642.98 418.045C642.98 417.483 643.189 417.001 643.606 416.601C644.032 416.2 644.539 416 645.127 416C645.716 416 646.218 416.2 646.636 416.601C647.062 417.001 647.275 417.483 647.275 418.045C647.275 418.608 647.062 419.089 646.636 419.49C646.218 419.891 645.716 420.091 645.127 420.091ZM668.193 423.364L660.932 443H657.864L650.602 423.364H653.875L659.295 439.011H659.5L664.92 423.364H668.193ZM679.705 443.409C677.813 443.409 676.181 442.991 674.809 442.156C673.445 441.312 672.393 440.136 671.651 438.628C670.918 437.111 670.552 435.347 670.552 433.335C670.552 431.324 670.918 429.551 671.651 428.017C672.393 426.474 673.424 425.273 674.745 424.412C676.075 423.543 677.626 423.108 679.398 423.108C680.421 423.108 681.431 423.278 682.428 423.619C683.425 423.96 684.333 424.514 685.151 425.281C685.969 426.04 686.621 427.045 687.107 428.298C687.593 429.551 687.836 431.094 687.836 432.926V434.205H672.7V431.597H684.768C684.768 430.489 684.546 429.5 684.103 428.631C683.668 427.761 683.046 427.075 682.237 426.572C681.435 426.07 680.489 425.818 679.398 425.818C678.197 425.818 677.157 426.116 676.279 426.713C675.41 427.301 674.741 428.068 674.272 429.014C673.803 429.96 673.569 430.974 673.569 432.057V433.795C673.569 435.278 673.825 436.536 674.336 437.567C674.856 438.589 675.576 439.369 676.496 439.906C677.417 440.435 678.487 440.699 679.705 440.699C680.498 440.699 681.214 440.588 681.853 440.366C682.501 440.136 683.059 439.795 683.528 439.344C683.996 438.884 684.359 438.312 684.614 437.631L687.529 438.449C687.222 439.438 686.707 440.307 685.982 441.057C685.258 441.798 684.363 442.378 683.298 442.795C682.232 443.205 681.035 443.409 679.705 443.409ZM692.425 443V423.364H695.34V426.33H695.545C695.903 425.358 696.55 424.57 697.488 423.964C698.425 423.359 699.482 423.057 700.658 423.057C700.88 423.057 701.157 423.061 701.489 423.07C701.822 423.078 702.073 423.091 702.244 423.108V426.176C702.141 426.151 701.907 426.112 701.54 426.061C701.183 426.001 700.803 425.972 700.403 425.972C699.448 425.972 698.596 426.172 697.846 426.572C697.104 426.964 696.516 427.51 696.082 428.209C695.656 428.899 695.442 429.687 695.442 430.574V443H692.425Z" fill="#7D88A1"/>
</g>
<g filter="url(#filter2_d_3_159)">
<path d="M1048 133.756C1048 128.368 1051.64 124 1056.14 124H1113.13V204H1056.95C1052.01 204 1048 199.195 1048 193.268V133.756Z" fill="#92A9EF"/>
<path d="M1090 151H1072C1068.69 151 1066 153.686 1066 157V175C1066 178.314 1068.69 181 1072 181H1090C1093.31 181 1096 178.314 1096 175V157C1096 153.686 1093.31 151 1090 151Z" stroke="white" stroke-width="3" stroke-linecap="round" stroke-linejoin="round"/>
<path d="M1087 157H1075C1073.34 157 1072 158.343 1072 160V172C1072 173.657 1073.34 175 1075 175H1087C1088.66 175 1090 173.657 1090 172V160C1090 158.343 1088.66 157 1087 157Z" stroke="white" stroke-width="3" stroke-linecap="round" stroke-linejoin="round"/>
<path d="M1073.5 151V145" stroke="white" stroke-width="3" stroke-linecap="round" stroke-linejoin="round"/>
<path d="M1073.5 187V181" stroke="white" stroke-width="3" stroke-linecap="round" stroke-linejoin="round"/>
<path d="M1081 151V145" stroke="white" stroke-width="3" stroke-linecap="round" stroke-linejoin="round"/>
<path d="M1081 187V181" stroke="white" stroke-width="3" stroke-linecap="round" stroke-linejoin="round"/>
<path d="M1088.5 151V145" stroke="white" stroke-width="3" stroke-linecap="round" stroke-linejoin="round"/>
<path d="M1088.5 187V181" stroke="white" stroke-width="3" stroke-linecap="round" stroke-linejoin="round"/>
<path d="M1096 173.5H1102" stroke="white" stroke-width="3" stroke-linecap="round" stroke-linejoin="round"/>
<path d="M1060 173.5H1066" stroke="white" stroke-width="3" stroke-linecap="round" stroke-linejoin="round"/>
<path d="M1096 166H1102" stroke="white" stroke-width="3" stroke-linecap="round" stroke-linejoin="round"/>
<path d="M1085.5 166H1089" stroke="white" stroke-width="3" stroke-linecap="round" stroke-linejoin="round"/>
<path d="M1073.5 163H1077" stroke="white" stroke-width="3" stroke-linecap="round" stroke-linejoin="round"/>
<path d="M1079.5 174V170.5" stroke="white" stroke-width="3" stroke-linecap="round" stroke-linejoin="round"/>
<path d="M1060 166H1066" stroke="white" stroke-width="3" stroke-linecap="round" stroke-linejoin="round"/>
<path d="M1096 158.5H1102" stroke="white" stroke-width="3" stroke-linecap="round" stroke-linejoin="round"/>
<path d="M1060 158.5H1066" stroke="white" stroke-width="3" stroke-linecap="round" stroke-linejoin="round"/>
<path d="M1113.13 124H1363.86C1368.36 124 1372 128.368 1372 133.756V194.244C1372 199.632 1368.36 204 1363.86 204H1113.13V124Z" fill="white"/>
<path d="M1137.17 175V148.818H1146.02C1148.07 148.818 1149.75 149.189 1151.05 149.93C1152.37 150.663 1153.34 151.656 1153.97 152.909C1154.6 154.162 1154.91 155.56 1154.91 157.102C1154.91 158.645 1154.6 160.047 1153.97 161.308C1153.35 162.57 1152.38 163.575 1151.08 164.325C1149.78 165.067 1148.11 165.438 1146.07 165.438H1139.73V162.625H1145.97C1147.37 162.625 1148.5 162.382 1149.35 161.896C1150.21 161.411 1150.82 160.754 1151.21 159.928C1151.6 159.092 1151.8 158.151 1151.8 157.102C1151.8 156.054 1151.6 155.116 1151.21 154.29C1150.82 153.463 1150.2 152.815 1149.34 152.347C1148.48 151.869 1147.34 151.631 1145.91 151.631H1140.34V175H1137.17ZM1159.61 175V155.364H1162.53V158.33H1162.73C1163.09 157.358 1163.74 156.57 1164.68 155.964C1165.61 155.359 1166.67 155.057 1167.85 155.057C1168.07 155.057 1168.34 155.061 1168.68 155.07C1169.01 155.078 1169.26 155.091 1169.43 155.108V158.176C1169.33 158.151 1169.09 158.112 1168.73 158.061C1168.37 158.001 1167.99 157.972 1167.59 157.972C1166.64 157.972 1165.78 158.172 1165.03 158.572C1164.29 158.964 1163.7 159.51 1163.27 160.209C1162.84 160.899 1162.63 161.687 1162.63 162.574V175H1159.61ZM1180.39 175.409C1178.61 175.409 1177.06 174.987 1175.72 174.143C1174.39 173.3 1173.35 172.119 1172.6 170.602C1171.86 169.085 1171.49 167.312 1171.49 165.284C1171.49 163.239 1171.86 161.453 1172.6 159.928C1173.35 158.402 1174.39 157.217 1175.72 156.374C1177.06 155.53 1178.61 155.108 1180.39 155.108C1182.16 155.108 1183.71 155.53 1185.04 156.374C1186.38 157.217 1187.42 158.402 1188.16 159.928C1188.91 161.453 1189.28 163.239 1189.28 165.284C1189.28 167.312 1188.91 169.085 1188.16 170.602C1187.42 172.119 1186.38 173.3 1185.04 174.143C1183.71 174.987 1182.16 175.409 1180.39 175.409ZM1180.39 172.699C1181.73 172.699 1182.84 172.354 1183.71 171.663C1184.58 170.973 1185.22 170.065 1185.64 168.94C1186.06 167.815 1186.27 166.597 1186.27 165.284C1186.27 163.972 1186.06 162.749 1185.64 161.615C1185.22 160.482 1184.58 159.565 1183.71 158.866C1182.84 158.168 1181.73 157.818 1180.39 157.818C1179.04 157.818 1177.93 158.168 1177.06 158.866C1176.19 159.565 1175.55 160.482 1175.13 161.615C1174.72 162.749 1174.51 163.972 1174.51 165.284C1174.51 166.597 1174.72 167.815 1175.13 168.94C1175.55 170.065 1176.19 170.973 1177.06 171.663C1177.93 172.354 1179.04 172.699 1180.39 172.699ZM1201.87 175.409C1200.03 175.409 1198.44 174.974 1197.11 174.105C1195.78 173.236 1194.76 172.038 1194.04 170.513C1193.33 168.987 1192.97 167.244 1192.97 165.284C1192.97 163.29 1193.34 161.53 1194.07 160.004C1194.81 158.47 1195.84 157.273 1197.16 156.412C1198.49 155.543 1200.04 155.108 1201.82 155.108C1203.2 155.108 1204.44 155.364 1205.55 155.875C1206.66 156.386 1207.56 157.102 1208.27 158.023C1208.98 158.943 1209.42 160.017 1209.59 161.244H1206.57C1206.34 160.349 1205.83 159.557 1205.04 158.866C1204.25 158.168 1203.2 157.818 1201.87 157.818C1200.69 157.818 1199.66 158.125 1198.77 158.739C1197.9 159.344 1197.21 160.2 1196.72 161.308C1196.23 162.408 1195.99 163.699 1195.99 165.182C1195.99 166.699 1196.23 168.02 1196.7 169.145C1197.19 170.27 1197.87 171.143 1198.75 171.766C1199.63 172.388 1200.67 172.699 1201.87 172.699C1202.65 172.699 1203.36 172.562 1204 172.29C1204.64 172.017 1205.18 171.625 1205.63 171.114C1206.07 170.602 1206.38 169.989 1206.57 169.273H1209.59C1209.42 170.432 1209 171.476 1208.32 172.405C1207.66 173.325 1206.78 174.058 1205.68 174.604C1204.59 175.141 1203.32 175.409 1201.87 175.409ZM1222.23 175.409C1220.34 175.409 1218.71 174.991 1217.34 174.156C1215.97 173.312 1214.92 172.136 1214.18 170.628C1213.45 169.111 1213.08 167.347 1213.08 165.335C1213.08 163.324 1213.45 161.551 1214.18 160.017C1214.92 158.474 1215.95 157.273 1217.27 156.412C1218.6 155.543 1220.15 155.108 1221.93 155.108C1222.95 155.108 1223.96 155.278 1224.96 155.619C1225.95 155.96 1226.86 156.514 1227.68 157.281C1228.5 158.04 1229.15 159.045 1229.63 160.298C1230.12 161.551 1230.36 163.094 1230.36 164.926V166.205H1215.23V163.597H1227.3C1227.3 162.489 1227.07 161.5 1226.63 160.631C1226.2 159.761 1225.57 159.075 1224.76 158.572C1223.96 158.07 1223.02 157.818 1221.93 157.818C1220.72 157.818 1219.68 158.116 1218.81 158.713C1217.94 159.301 1217.27 160.068 1216.8 161.014C1216.33 161.96 1216.1 162.974 1216.1 164.057V165.795C1216.1 167.278 1216.35 168.536 1216.86 169.567C1217.38 170.589 1218.1 171.369 1219.02 171.906C1219.94 172.435 1221.01 172.699 1222.23 172.699C1223.03 172.699 1223.74 172.588 1224.38 172.366C1225.03 172.136 1225.59 171.795 1226.06 171.344C1226.52 170.884 1226.89 170.312 1227.14 169.631L1230.06 170.449C1229.75 171.438 1229.23 172.307 1228.51 173.057C1227.79 173.798 1226.89 174.378 1225.82 174.795C1224.76 175.205 1223.56 175.409 1222.23 175.409ZM1248.86 159.761L1246.15 160.528C1245.98 160.077 1245.73 159.638 1245.4 159.212C1245.07 158.777 1244.63 158.419 1244.07 158.138C1243.51 157.857 1242.79 157.716 1241.91 157.716C1240.71 157.716 1239.7 157.993 1238.9 158.547C1238.11 159.092 1237.71 159.787 1237.71 160.631C1237.71 161.381 1237.99 161.973 1238.53 162.408C1239.08 162.842 1239.93 163.205 1241.09 163.494L1244 164.21C1245.76 164.636 1247.07 165.288 1247.93 166.166C1248.79 167.036 1249.22 168.156 1249.22 169.528C1249.22 170.653 1248.9 171.659 1248.25 172.545C1247.61 173.432 1246.71 174.131 1245.56 174.642C1244.41 175.153 1243.07 175.409 1241.55 175.409C1239.55 175.409 1237.89 174.974 1236.58 174.105C1235.26 173.236 1234.43 171.966 1234.08 170.295L1236.95 169.58C1237.22 170.636 1237.74 171.429 1238.49 171.957C1239.26 172.486 1240.26 172.75 1241.5 172.75C1242.9 172.75 1244.02 172.452 1244.85 171.855C1245.68 171.25 1246.1 170.526 1246.1 169.682C1246.1 169 1245.86 168.429 1245.38 167.969C1244.91 167.5 1244.17 167.151 1243.19 166.92L1239.91 166.153C1238.11 165.727 1236.79 165.067 1235.95 164.172C1235.11 163.268 1234.7 162.139 1234.7 160.784C1234.7 159.676 1235.01 158.696 1235.63 157.844C1236.26 156.991 1237.12 156.322 1238.2 155.837C1239.29 155.351 1240.53 155.108 1241.91 155.108C1243.85 155.108 1245.38 155.534 1246.48 156.386C1247.6 157.239 1248.39 158.364 1248.86 159.761ZM1267.67 159.761L1264.96 160.528C1264.79 160.077 1264.54 159.638 1264.21 159.212C1263.88 158.777 1263.44 158.419 1262.88 158.138C1262.31 157.857 1261.59 157.716 1260.72 157.716C1259.51 157.716 1258.51 157.993 1257.71 158.547C1256.92 159.092 1256.52 159.787 1256.52 160.631C1256.52 161.381 1256.8 161.973 1257.34 162.408C1257.89 162.842 1258.74 163.205 1259.9 163.494L1262.81 164.21C1264.57 164.636 1265.88 165.288 1266.74 166.166C1267.6 167.036 1268.03 168.156 1268.03 169.528C1268.03 170.653 1267.7 171.659 1267.06 172.545C1266.42 173.432 1265.52 174.131 1264.37 174.642C1263.22 175.153 1261.88 175.409 1260.36 175.409C1258.36 175.409 1256.7 174.974 1255.38 174.105C1254.07 173.236 1253.24 171.966 1252.89 170.295L1255.76 169.58C1256.03 170.636 1256.54 171.429 1257.3 171.957C1258.07 172.486 1259.07 172.75 1260.31 172.75C1261.71 172.75 1262.83 172.452 1263.66 171.855C1264.49 171.25 1264.91 170.526 1264.91 169.682C1264.91 169 1264.67 168.429 1264.19 167.969C1263.72 167.5 1262.98 167.151 1261.99 166.92L1258.72 166.153C1256.92 165.727 1255.6 165.067 1254.76 164.172C1253.92 163.268 1253.51 162.139 1253.51 160.784C1253.51 159.676 1253.82 158.696 1254.44 157.844C1255.07 156.991 1255.93 156.322 1257.01 155.837C1258.1 155.351 1259.34 155.108 1260.72 155.108C1262.66 155.108 1264.18 155.534 1265.29 156.386C1266.41 157.239 1267.2 158.364 1267.67 159.761ZM1280.55 175.409C1278.77 175.409 1277.22 174.987 1275.88 174.143C1274.55 173.3 1273.51 172.119 1272.76 170.602C1272.02 169.085 1271.65 167.312 1271.65 165.284C1271.65 163.239 1272.02 161.453 1272.76 159.928C1273.51 158.402 1274.55 157.217 1275.88 156.374C1277.22 155.53 1278.77 155.108 1280.55 155.108C1282.32 155.108 1283.87 155.53 1285.2 156.374C1286.54 157.217 1287.58 158.402 1288.32 159.928C1289.07 161.453 1289.44 163.239 1289.44 165.284C1289.44 167.312 1289.07 169.085 1288.32 170.602C1287.58 172.119 1286.54 173.3 1285.2 174.143C1283.87 174.987 1282.32 175.409 1280.55 175.409ZM1280.55 172.699C1281.89 172.699 1283 172.354 1283.87 171.663C1284.74 170.973 1285.38 170.065 1285.8 168.94C1286.22 167.815 1286.43 166.597 1286.43 165.284C1286.43 163.972 1286.22 162.749 1285.8 161.615C1285.38 160.482 1284.74 159.565 1283.87 158.866C1283 158.168 1281.89 157.818 1280.55 157.818C1279.2 157.818 1278.09 158.168 1277.22 158.866C1276.35 159.565 1275.71 160.482 1275.29 161.615C1274.88 162.749 1274.67 163.972 1274.67 165.284C1274.67 166.597 1274.88 167.815 1275.29 168.94C1275.71 170.065 1276.35 170.973 1277.22 171.663C1278.09 172.354 1279.2 172.699 1280.55 172.699ZM1294.05 175V155.364H1296.97V158.33H1297.17C1297.53 157.358 1298.18 156.57 1299.11 155.964C1300.05 155.359 1301.11 155.057 1302.28 155.057C1302.5 155.057 1302.78 155.061 1303.11 155.07C1303.45 155.078 1303.7 155.091 1303.87 155.108V158.176C1303.77 158.151 1303.53 158.112 1303.17 158.061C1302.81 158.001 1302.43 157.972 1302.03 157.972C1301.07 157.972 1300.22 158.172 1299.47 158.572C1298.73 158.964 1298.14 159.51 1297.71 160.209C1297.28 160.899 1297.07 161.687 1297.07 162.574V175H1294.05Z" fill="#7D88A1"/>
</g>
<g filter="url(#filter3_d_3_159)">
<path d="M1048 401.756C1048 396.368 1051.64 392 1056.14 392H1113.13V472H1056.95C1052.01 472 1048 467.195 1048 461.268V401.756Z" fill="#92A9EF"/>
<path d="M1090 419H1072C1068.69 419 1066 421.686 1066 425V443C1066 446.314 1068.69 449 1072 449H1090C1093.31 449 1096 446.314 1096 443V425C1096 421.686 1093.31 419 1090 419Z" stroke="white" stroke-width="3" stroke-linecap="round" stroke-linejoin="round"/>
<path d="M1087 425H1075C1073.34 425 1072 426.343 1072 428V440C1072 441.657 1073.34 443 1075 443H1087C1088.66 443 1090 441.657 1090 440V428C1090 426.343 1088.66 425 1087 425Z" stroke="white" stroke-width="3" stroke-linecap="round" stroke-linejoin="round"/>
<path d="M1073.5 419V413" stroke="white" stroke-width="3" stroke-linecap="round" stroke-linejoin="round"/>
<path d="M1073.5 455V449" stroke="white" stroke-width="3" stroke-linecap="round" stroke-linejoin="round"/>
<path d="M1081 419V413" stroke="white" stroke-width="3" stroke-linecap="round" stroke-linejoin="round"/>
<path d="M1081 455V449" stroke="white" stroke-width="3" stroke-linecap="round" stroke-linejoin="round"/>
<path d="M1088.5 419V413" stroke="white" stroke-width="3" stroke-linecap="round" stroke-linejoin="round"/>
<path d="M1088.5 455V449" stroke="white" stroke-width="3" stroke-linecap="round" stroke-linejoin="round"/>
<path d="M1096 441.5H1102" stroke="white" stroke-width="3" stroke-linecap="round" stroke-linejoin="round"/>
<path d="M1060 441.5H1066" stroke="white" stroke-width="3" stroke-linecap="round" stroke-linejoin="round"/>
<path d="M1096 434H1102" stroke="white" stroke-width="3" stroke-linecap="round" stroke-linejoin="round"/>
<path d="M1085.5 434H1089" stroke="white" stroke-width="3" stroke-linecap="round" stroke-linejoin="round"/>
<path d="M1073.5 431H1077" stroke="white" stroke-width="3" stroke-linecap="round" stroke-linejoin="round"/>
<path d="M1079.5 442V438.5" stroke="white" stroke-width="3" stroke-linecap="round" stroke-linejoin="round"/>
<path d="M1060 434H1066" stroke="white" stroke-width="3" stroke-linecap="round" stroke-linejoin="round"/>
<path d="M1096 426.5H1102" stroke="white" stroke-width="3" stroke-linecap="round" stroke-linejoin="round"/>
<path d="M1060 426.5H1066" stroke="white" stroke-width="3" stroke-linecap="round" stroke-linejoin="round"/>
<path d="M1113.13 392H1363.86C1368.36 392 1372 396.368 1372 401.756V462.244C1372 467.632 1368.36 472 1363.86 472H1113.13V392Z" fill="white"/>
<path d="M1137.17 443V416.818H1146.02C1148.07 416.818 1149.75 417.189 1151.05 417.93C1152.37 418.663 1153.34 419.656 1153.97 420.909C1154.6 422.162 1154.91 423.56 1154.91 425.102C1154.91 426.645 1154.6 428.047 1153.97 429.308C1153.35 430.57 1152.38 431.575 1151.08 432.325C1149.78 433.067 1148.11 433.438 1146.07 433.438H1139.73V430.625H1145.97C1147.37 430.625 1148.5 430.382 1149.35 429.896C1150.21 429.411 1150.82 428.754 1151.21 427.928C1151.6 427.092 1151.8 426.151 1151.8 425.102C1151.8 424.054 1151.6 423.116 1151.21 422.29C1150.82 421.463 1150.2 420.815 1149.34 420.347C1148.48 419.869 1147.34 419.631 1145.91 419.631H1140.34V443H1137.17ZM1159.61 443V423.364H1162.53V426.33H1162.73C1163.09 425.358 1163.74 424.57 1164.68 423.964C1165.61 423.359 1166.67 423.057 1167.85 423.057C1168.07 423.057 1168.34 423.061 1168.68 423.07C1169.01 423.078 1169.26 423.091 1169.43 423.108V426.176C1169.33 426.151 1169.09 426.112 1168.73 426.061C1168.37 426.001 1167.99 425.972 1167.59 425.972C1166.64 425.972 1165.78 426.172 1165.03 426.572C1164.29 426.964 1163.7 427.51 1163.27 428.209C1162.84 428.899 1162.63 429.687 1162.63 430.574V443H1159.61ZM1180.39 443.409C1178.61 443.409 1177.06 442.987 1175.72 442.143C1174.39 441.3 1173.35 440.119 1172.6 438.602C1171.86 437.085 1171.49 435.312 1171.49 433.284C1171.49 431.239 1171.86 429.453 1172.6 427.928C1173.35 426.402 1174.39 425.217 1175.72 424.374C1177.06 423.53 1178.61 423.108 1180.39 423.108C1182.16 423.108 1183.71 423.53 1185.04 424.374C1186.38 425.217 1187.42 426.402 1188.16 427.928C1188.91 429.453 1189.28 431.239 1189.28 433.284C1189.28 435.312 1188.91 437.085 1188.16 438.602C1187.42 440.119 1186.38 441.3 1185.04 442.143C1183.71 442.987 1182.16 443.409 1180.39 443.409ZM1180.39 440.699C1181.73 440.699 1182.84 440.354 1183.71 439.663C1184.58 438.973 1185.22 438.065 1185.64 436.94C1186.06 435.815 1186.27 434.597 1186.27 433.284C1186.27 431.972 1186.06 430.749 1185.64 429.615C1185.22 428.482 1184.58 427.565 1183.71 426.866C1182.84 426.168 1181.73 425.818 1180.39 425.818C1179.04 425.818 1177.93 426.168 1177.06 426.866C1176.19 427.565 1175.55 428.482 1175.13 429.615C1174.72 430.749 1174.51 431.972 1174.51 433.284C1174.51 434.597 1174.72 435.815 1175.13 436.94C1175.55 438.065 1176.19 438.973 1177.06 439.663C1177.93 440.354 1179.04 440.699 1180.39 440.699ZM1201.87 443.409C1200.03 443.409 1198.44 442.974 1197.11 442.105C1195.78 441.236 1194.76 440.038 1194.04 438.513C1193.33 436.987 1192.97 435.244 1192.97 433.284C1192.97 431.29 1193.34 429.53 1194.07 428.004C1194.81 426.47 1195.84 425.273 1197.16 424.412C1198.49 423.543 1200.04 423.108 1201.82 423.108C1203.2 423.108 1204.44 423.364 1205.55 423.875C1206.66 424.386 1207.56 425.102 1208.27 426.023C1208.98 426.943 1209.42 428.017 1209.59 429.244H1206.57C1206.34 428.349 1205.83 427.557 1205.04 426.866C1204.25 426.168 1203.2 425.818 1201.87 425.818C1200.69 425.818 1199.66 426.125 1198.77 426.739C1197.9 427.344 1197.21 428.2 1196.72 429.308C1196.23 430.408 1195.99 431.699 1195.99 433.182C1195.99 434.699 1196.23 436.02 1196.7 437.145C1197.19 438.27 1197.87 439.143 1198.75 439.766C1199.63 440.388 1200.67 440.699 1201.87 440.699C1202.65 440.699 1203.36 440.562 1204 440.29C1204.64 440.017 1205.18 439.625 1205.63 439.114C1206.07 438.602 1206.38 437.989 1206.57 437.273H1209.59C1209.42 438.432 1209 439.476 1208.32 440.405C1207.66 441.325 1206.78 442.058 1205.68 442.604C1204.59 443.141 1203.32 443.409 1201.87 443.409ZM1222.23 443.409C1220.34 443.409 1218.71 442.991 1217.34 442.156C1215.97 441.312 1214.92 440.136 1214.18 438.628C1213.45 437.111 1213.08 435.347 1213.08 433.335C1213.08 431.324 1213.45 429.551 1214.18 428.017C1214.92 426.474 1215.95 425.273 1217.27 424.412C1218.6 423.543 1220.15 423.108 1221.93 423.108C1222.95 423.108 1223.96 423.278 1224.96 423.619C1225.95 423.96 1226.86 424.514 1227.68 425.281C1228.5 426.04 1229.15 427.045 1229.63 428.298C1230.12 429.551 1230.36 431.094 1230.36 432.926V434.205H1215.23V431.597H1227.3C1227.3 430.489 1227.07 429.5 1226.63 428.631C1226.2 427.761 1225.57 427.075 1224.76 426.572C1223.96 426.07 1223.02 425.818 1221.93 425.818C1220.72 425.818 1219.68 426.116 1218.81 426.713C1217.94 427.301 1217.27 428.068 1216.8 429.014C1216.33 429.96 1216.1 430.974 1216.1 432.057V433.795C1216.1 435.278 1216.35 436.536 1216.86 437.567C1217.38 438.589 1218.1 439.369 1219.02 439.906C1219.94 440.435 1221.01 440.699 1222.23 440.699C1223.03 440.699 1223.74 440.588 1224.38 440.366C1225.03 440.136 1225.59 439.795 1226.06 439.344C1226.52 438.884 1226.89 438.312 1227.14 437.631L1230.06 438.449C1229.75 439.438 1229.23 440.307 1228.51 441.057C1227.79 441.798 1226.89 442.378 1225.82 442.795C1224.76 443.205 1223.56 443.409 1222.23 443.409ZM1248.86 427.761L1246.15 428.528C1245.98 428.077 1245.73 427.638 1245.4 427.212C1245.07 426.777 1244.63 426.419 1244.07 426.138C1243.51 425.857 1242.79 425.716 1241.91 425.716C1240.71 425.716 1239.7 425.993 1238.9 426.547C1238.11 427.092 1237.71 427.787 1237.71 428.631C1237.71 429.381 1237.99 429.973 1238.53 430.408C1239.08 430.842 1239.93 431.205 1241.09 431.494L1244 432.21C1245.76 432.636 1247.07 433.288 1247.93 434.166C1248.79 435.036 1249.22 436.156 1249.22 437.528C1249.22 438.653 1248.9 439.659 1248.25 440.545C1247.61 441.432 1246.71 442.131 1245.56 442.642C1244.41 443.153 1243.07 443.409 1241.55 443.409C1239.55 443.409 1237.89 442.974 1236.58 442.105C1235.26 441.236 1234.43 439.966 1234.08 438.295L1236.95 437.58C1237.22 438.636 1237.74 439.429 1238.49 439.957C1239.26 440.486 1240.26 440.75 1241.5 440.75C1242.9 440.75 1244.02 440.452 1244.85 439.855C1245.68 439.25 1246.1 438.526 1246.1 437.682C1246.1 437 1245.86 436.429 1245.38 435.969C1244.91 435.5 1244.17 435.151 1243.19 434.92L1239.91 434.153C1238.11 433.727 1236.79 433.067 1235.95 432.172C1235.11 431.268 1234.7 430.139 1234.7 428.784C1234.7 427.676 1235.01 426.696 1235.63 425.844C1236.26 424.991 1237.12 424.322 1238.2 423.837C1239.29 423.351 1240.53 423.108 1241.91 423.108C1243.85 423.108 1245.38 423.534 1246.48 424.386C1247.6 425.239 1248.39 426.364 1248.86 427.761ZM1267.67 427.761L1264.96 428.528C1264.79 428.077 1264.54 427.638 1264.21 427.212C1263.88 426.777 1263.44 426.419 1262.88 426.138C1262.31 425.857 1261.59 425.716 1260.72 425.716C1259.51 425.716 1258.51 425.993 1257.71 426.547C1256.92 427.092 1256.52 427.787 1256.52 428.631C1256.52 429.381 1256.8 429.973 1257.34 430.408C1257.89 430.842 1258.74 431.205 1259.9 431.494L1262.81 432.21C1264.57 432.636 1265.88 433.288 1266.74 434.166C1267.6 435.036 1268.03 436.156 1268.03 437.528C1268.03 438.653 1267.7 439.659 1267.06 440.545C1266.42 441.432 1265.52 442.131 1264.37 442.642C1263.22 443.153 1261.88 443.409 1260.36 443.409C1258.36 443.409 1256.7 442.974 1255.38 442.105C1254.07 441.236 1253.24 439.966 1252.89 438.295L1255.76 437.58C1256.03 438.636 1256.54 439.429 1257.3 439.957C1258.07 440.486 1259.07 440.75 1260.31 440.75C1261.71 440.75 1262.83 440.452 1263.66 439.855C1264.49 439.25 1264.91 438.526 1264.91 437.682C1264.91 437 1264.67 436.429 1264.19 435.969C1263.72 435.5 1262.98 435.151 1261.99 434.92L1258.72 434.153C1256.92 433.727 1255.6 433.067 1254.76 432.172C1253.92 431.268 1253.51 430.139 1253.51 428.784C1253.51 427.676 1253.82 426.696 1254.44 425.844C1255.07 424.991 1255.93 424.322 1257.01 423.837C1258.1 423.351 1259.34 423.108 1260.72 423.108C1262.66 423.108 1264.18 423.534 1265.29 424.386C1266.41 425.239 1267.2 426.364 1267.67 427.761ZM1280.55 443.409C1278.77 443.409 1277.22 442.987 1275.88 442.143C1274.55 441.3 1273.51 440.119 1272.76 438.602C1272.02 437.085 1271.65 435.312 1271.65 433.284C1271.65 431.239 1272.02 429.453 1272.76 427.928C1273.51 426.402 1274.55 425.217 1275.88 424.374C1277.22 423.53 1278.77 423.108 1280.55 423.108C1282.32 423.108 1283.87 423.53 1285.2 424.374C1286.54 425.217 1287.58 426.402 1288.32 427.928C1289.07 429.453 1289.44 431.239 1289.44 433.284C1289.44 435.312 1289.07 437.085 1288.32 438.602C1287.58 440.119 1286.54 441.3 1285.2 442.143C1283.87 442.987 1282.32 443.409 1280.55 443.409ZM1280.55 440.699C1281.89 440.699 1283 440.354 1283.87 439.663C1284.74 438.973 1285.38 438.065 1285.8 436.94C1286.22 435.815 1286.43 434.597 1286.43 433.284C1286.43 431.972 1286.22 430.749 1285.8 429.615C1285.38 428.482 1284.74 427.565 1283.87 426.866C1283 426.168 1281.89 425.818 1280.55 425.818C1279.2 425.818 1278.09 426.168 1277.22 426.866C1276.35 427.565 1275.71 428.482 1275.29 429.615C1274.88 430.749 1274.67 431.972 1274.67 433.284C1274.67 434.597 1274.88 435.815 1275.29 436.94C1275.71 438.065 1276.35 438.973 1277.22 439.663C1278.09 440.354 1279.2 440.699 1280.55 440.699ZM1294.05 443V423.364H1296.97V426.33H1297.17C1297.53 425.358 1298.18 424.57 1299.11 423.964C1300.05 423.359 1301.11 423.057 1302.28 423.057C1302.5 423.057 1302.78 423.061 1303.11 423.07C1303.45 423.078 1303.7 423.091 1303.87 423.108V426.176C1303.77 426.151 1303.53 426.112 1303.17 426.061C1302.81 426.001 1302.43 425.972 1302.03 425.972C1301.07 425.972 1300.22 426.172 1299.47 426.572C1298.73 426.964 1298.14 427.51 1297.71 428.209C1297.28 428.899 1297.07 429.687 1297.07 430.574V443H1294.05Z" fill="#7D88A1"/>
</g>
<g filter="url(#filter4_d_3_159)">
<path d="M1627 133.756C1627 128.368 1630.64 124 1635.14 124H1692.13V204H1635.95C1631.01 204 1627 199.195 1627 193.268V133.756Z" fill="#92A9EF"/>
<path d="M1642 170.449L1660 175.549V181.399L1642 176.299V170.449Z" stroke="white" stroke-width="3" stroke-linecap="round" stroke-linejoin="round"/>
<path d="M1660 175.701L1678 170.601V176.451L1660 181.551V175.701Z" stroke="white" stroke-width="3" stroke-linecap="round" stroke-linejoin="round"/>
<path d="M1642 170L1655.5 166.25M1664.5 166.25L1678 170" stroke="white" stroke-width="3" stroke-linecap="round" stroke-linejoin="round"/>
<path d="M1655.5 170V156.5" stroke="white" stroke-width="3" stroke-linecap="round" stroke-linejoin="round"/>
<path d="M1664.5 170V156.5" stroke="white" stroke-width="3" stroke-linecap="round" stroke-linejoin="round"/>
<path d="M1655.5 156.5L1651 155" stroke="white" stroke-width="3" stroke-linecap="round" stroke-linejoin="round"/>
<path d="M1669 155L1664.5 156.5" stroke="white" stroke-width="3" stroke-linecap="round" stroke-linejoin="round"/>
<path d="M1660 146L1651 155" stroke="white" stroke-width="3" stroke-linecap="round" stroke-linejoin="round"/>
<path d="M1660 146L1669 155" stroke="white" stroke-width="3" stroke-linecap="round" stroke-linejoin="round"/>
<path d="M1692.13 124H1942.86C1947.36 124 1951 128.368 1951 133.756V194.244C1951 199.632 1947.36 204 1942.86 204H1692.13V124Z" fill="white"/>
<path d="M1716.17 175V148.818H1731.97V151.631H1719.34V160.477H1731.15V163.29H1719.34V172.188H1732.18V175H1716.17ZM1739.53 155.364L1744.23 163.392L1748.94 155.364H1752.41L1746.07 165.182L1752.41 175H1748.94L1744.23 167.381L1739.53 175H1736.05L1742.29 165.182L1736.05 155.364H1739.53ZM1756.72 182.364V155.364H1759.63V158.483H1759.99C1760.21 158.142 1760.52 157.707 1760.91 157.179C1761.31 156.642 1761.88 156.165 1762.62 155.747C1763.37 155.321 1764.39 155.108 1765.67 155.108C1767.32 155.108 1768.78 155.521 1770.04 156.348C1771.3 157.175 1772.29 158.347 1772.99 159.864C1773.7 161.381 1774.05 163.17 1774.05 165.233C1774.05 167.312 1773.7 169.115 1772.99 170.641C1772.29 172.158 1771.31 173.334 1770.05 174.169C1768.8 174.996 1767.35 175.409 1765.72 175.409C1764.46 175.409 1763.45 175.2 1762.69 174.783C1761.93 174.357 1761.35 173.875 1760.94 173.338C1760.53 172.793 1760.21 172.341 1759.99 171.983H1759.74V182.364H1756.72ZM1759.68 165.182C1759.68 166.665 1759.9 167.973 1760.34 169.107C1760.77 170.232 1761.41 171.114 1762.24 171.753C1763.08 172.384 1764.1 172.699 1765.31 172.699C1766.57 172.699 1767.62 172.366 1768.47 171.702C1769.32 171.028 1769.96 170.125 1770.38 168.991C1770.82 167.849 1771.04 166.58 1771.04 165.182C1771.04 163.801 1770.82 162.557 1770.4 161.449C1769.98 160.332 1769.34 159.45 1768.49 158.803C1767.65 158.146 1766.59 157.818 1765.31 157.818C1764.08 157.818 1763.05 158.129 1762.22 158.751C1761.38 159.365 1760.75 160.226 1760.32 161.334C1759.9 162.433 1759.68 163.716 1759.68 165.182ZM1786.63 175.409C1784.86 175.409 1783.31 174.987 1781.97 174.143C1780.64 173.3 1779.6 172.119 1778.85 170.602C1778.11 169.085 1777.74 167.312 1777.74 165.284C1777.74 163.239 1778.11 161.453 1778.85 159.928C1779.6 158.402 1780.64 157.217 1781.97 156.374C1783.31 155.53 1784.86 155.108 1786.63 155.108C1788.41 155.108 1789.96 155.53 1791.29 156.374C1792.62 157.217 1793.66 158.402 1794.41 159.928C1795.16 161.453 1795.53 163.239 1795.53 165.284C1795.53 167.312 1795.16 169.085 1794.41 170.602C1793.66 172.119 1792.62 173.3 1791.29 174.143C1789.96 174.987 1788.41 175.409 1786.63 175.409ZM1786.63 172.699C1787.98 172.699 1789.09 172.354 1789.96 171.663C1790.83 170.973 1791.47 170.065 1791.89 168.94C1792.31 167.815 1792.51 166.597 1792.51 165.284C1792.51 163.972 1792.31 162.749 1791.89 161.615C1791.47 160.482 1790.83 159.565 1789.96 158.866C1789.09 158.168 1787.98 157.818 1786.63 157.818C1785.29 157.818 1784.18 158.168 1783.31 158.866C1782.44 159.565 1781.8 160.482 1781.38 161.615C1780.96 162.749 1780.75 163.972 1780.75 165.284C1780.75 166.597 1780.96 167.815 1781.38 168.94C1781.8 170.065 1782.44 170.973 1783.31 171.663C1784.18 172.354 1785.29 172.699 1786.63 172.699ZM1800.14 175V155.364H1803.05V158.33H1803.26C1803.61 157.358 1804.26 156.57 1805.2 155.964C1806.14 155.359 1807.19 155.057 1808.37 155.057C1808.59 155.057 1808.87 155.061 1809.2 155.07C1809.53 155.078 1809.78 155.091 1809.95 155.108V158.176C1809.85 158.151 1809.62 158.112 1809.25 158.061C1808.89 158.001 1808.51 157.972 1808.11 157.972C1807.16 157.972 1806.31 158.172 1805.56 158.572C1804.82 158.964 1804.23 159.51 1803.79 160.209C1803.37 160.899 1803.15 161.687 1803.15 162.574V175H1800.14ZM1823.3 155.364V157.92H1813.12V155.364H1823.3ZM1816.09 150.659H1819.11V169.375C1819.11 170.227 1819.23 170.866 1819.48 171.293C1819.73 171.71 1820.06 171.991 1820.45 172.136C1820.85 172.273 1821.27 172.341 1821.72 172.341C1822.05 172.341 1822.32 172.324 1822.53 172.29C1822.75 172.247 1822.92 172.213 1823.05 172.188L1823.66 174.898C1823.45 174.974 1823.17 175.051 1822.8 175.128C1822.44 175.213 1821.97 175.256 1821.41 175.256C1820.56 175.256 1819.72 175.072 1818.9 174.706C1818.09 174.339 1817.42 173.781 1816.88 173.031C1816.36 172.281 1816.09 171.335 1816.09 170.193V150.659ZM1835.86 175.409C1833.97 175.409 1832.34 174.991 1830.97 174.156C1829.6 173.312 1828.55 172.136 1827.81 170.628C1827.07 169.111 1826.71 167.347 1826.71 165.335C1826.71 163.324 1827.07 161.551 1827.81 160.017C1828.55 158.474 1829.58 157.273 1830.9 156.412C1832.23 155.543 1833.78 155.108 1835.55 155.108C1836.58 155.108 1837.59 155.278 1838.58 155.619C1839.58 155.96 1840.49 156.514 1841.31 157.281C1842.13 158.04 1842.78 159.045 1843.26 160.298C1843.75 161.551 1843.99 163.094 1843.99 164.926V166.205H1828.86V163.597H1840.92C1840.92 162.489 1840.7 161.5 1840.26 160.631C1839.82 159.761 1839.2 159.075 1838.39 158.572C1837.59 158.07 1836.65 157.818 1835.55 157.818C1834.35 157.818 1833.31 158.116 1832.44 158.713C1831.57 159.301 1830.9 160.068 1830.43 161.014C1829.96 161.96 1829.73 162.974 1829.73 164.057V165.795C1829.73 167.278 1829.98 168.536 1830.49 169.567C1831.01 170.589 1831.73 171.369 1832.65 171.906C1833.57 172.435 1834.64 172.699 1835.86 172.699C1836.65 172.699 1837.37 172.588 1838.01 172.366C1838.66 172.136 1839.22 171.795 1839.68 171.344C1840.15 170.884 1840.51 170.312 1840.77 169.631L1843.69 170.449C1843.38 171.438 1842.86 172.307 1842.14 173.057C1841.41 173.798 1840.52 174.378 1839.45 174.795C1838.39 175.205 1837.19 175.409 1835.86 175.409ZM1848.58 175V155.364H1851.5V158.33H1851.7C1852.06 157.358 1852.71 156.57 1853.64 155.964C1854.58 155.359 1855.64 155.057 1856.81 155.057C1857.04 155.057 1857.31 155.061 1857.65 155.07C1857.98 155.078 1858.23 155.091 1858.4 155.108V158.176C1858.3 158.151 1858.06 158.112 1857.7 158.061C1857.34 158.001 1856.96 157.972 1856.56 157.972C1855.6 157.972 1854.75 158.172 1854 158.572C1853.26 158.964 1852.67 159.51 1852.24 160.209C1851.81 160.899 1851.6 161.687 1851.6 162.574V175H1848.58Z" fill="#7D88A1"/>
</g>
<g filter="url(#filter5_d_3_159)">
<path d="M1627 401.756C1627 396.368 1630.64 392 1635.14 392H1692.13V472H1635.95C1631.01 472 1627 467.195 1627 461.268V401.756Z" fill="#92A9EF"/>
<path d="M1642 438.449L1660 443.549V449.399L1642 444.299V438.449Z" stroke="white" stroke-width="3" stroke-linecap="round" stroke-linejoin="round"/>
<path d="M1660 443.701L1678 438.601V444.451L1660 449.551V443.701Z" stroke="white" stroke-width="3" stroke-linecap="round" stroke-linejoin="round"/>
<path d="M1642 438L1655.5 434.25M1664.5 434.25L1678 438" stroke="white" stroke-width="3" stroke-linecap="round" stroke-linejoin="round"/>
<path d="M1655.5 438V424.5" stroke="white" stroke-width="3" stroke-linecap="round" stroke-linejoin="round"/>
<path d="M1664.5 438V424.5" stroke="white" stroke-width="3" stroke-linecap="round" stroke-linejoin="round"/>
<path d="M1655.5 424.5L1651 423" stroke="white" stroke-width="3" stroke-linecap="round" stroke-linejoin="round"/>
<path d="M1669 423L1664.5 424.5" stroke="white" stroke-width="3" stroke-linecap="round" stroke-linejoin="round"/>
<path d="M1660 414L1651 423" stroke="white" stroke-width="3" stroke-linecap="round" stroke-linejoin="round"/>
<path d="M1660 414L1669 423" stroke="white" stroke-width="3" stroke-linecap="round" stroke-linejoin="round"/>
<path d="M1692.13 392H1942.86C1947.36 392 1951 396.368 1951 401.756V462.244C1951 467.632 1947.36 472 1942.86 472H1692.13V392Z" fill="white"/>
<path d="M1716.17 443V416.818H1731.97V419.631H1719.34V428.477H1731.15V431.29H1719.34V440.188H1732.18V443H1716.17ZM1739.53 423.364L1744.23 431.392L1748.94 423.364H1752.41L1746.07 433.182L1752.41 443H1748.94L1744.23 435.381L1739.53 443H1736.05L1742.29 433.182L1736.05 423.364H1739.53ZM1756.72 450.364V423.364H1759.63V426.483H1759.99C1760.21 426.142 1760.52 425.707 1760.91 425.179C1761.31 424.642 1761.88 424.165 1762.62 423.747C1763.37 423.321 1764.39 423.108 1765.67 423.108C1767.32 423.108 1768.78 423.521 1770.04 424.348C1771.3 425.175 1772.29 426.347 1772.99 427.864C1773.7 429.381 1774.05 431.17 1774.05 433.233C1774.05 435.312 1773.7 437.115 1772.99 438.641C1772.29 440.158 1771.31 441.334 1770.05 442.169C1768.8 442.996 1767.35 443.409 1765.72 443.409C1764.46 443.409 1763.45 443.2 1762.69 442.783C1761.93 442.357 1761.35 441.875 1760.94 441.338C1760.53 440.793 1760.21 440.341 1759.99 439.983H1759.74V450.364H1756.72ZM1759.68 433.182C1759.68 434.665 1759.9 435.973 1760.34 437.107C1760.77 438.232 1761.41 439.114 1762.24 439.753C1763.08 440.384 1764.1 440.699 1765.31 440.699C1766.57 440.699 1767.62 440.366 1768.47 439.702C1769.32 439.028 1769.96 438.125 1770.38 436.991C1770.82 435.849 1771.04 434.58 1771.04 433.182C1771.04 431.801 1770.82 430.557 1770.4 429.449C1769.98 428.332 1769.34 427.45 1768.49 426.803C1767.65 426.146 1766.59 425.818 1765.31 425.818C1764.08 425.818 1763.05 426.129 1762.22 426.751C1761.38 427.365 1760.75 428.226 1760.32 429.334C1759.9 430.433 1759.68 431.716 1759.68 433.182ZM1786.63 443.409C1784.86 443.409 1783.31 442.987 1781.97 442.143C1780.64 441.3 1779.6 440.119 1778.85 438.602C1778.11 437.085 1777.74 435.312 1777.74 433.284C1777.74 431.239 1778.11 429.453 1778.85 427.928C1779.6 426.402 1780.64 425.217 1781.97 424.374C1783.31 423.53 1784.86 423.108 1786.63 423.108C1788.41 423.108 1789.96 423.53 1791.29 424.374C1792.62 425.217 1793.66 426.402 1794.41 427.928C1795.16 429.453 1795.53 431.239 1795.53 433.284C1795.53 435.312 1795.16 437.085 1794.41 438.602C1793.66 440.119 1792.62 441.3 1791.29 442.143C1789.96 442.987 1788.41 443.409 1786.63 443.409ZM1786.63 440.699C1787.98 440.699 1789.09 440.354 1789.96 439.663C1790.83 438.973 1791.47 438.065 1791.89 436.94C1792.31 435.815 1792.51 434.597 1792.51 433.284C1792.51 431.972 1792.31 430.749 1791.89 429.615C1791.47 428.482 1790.83 427.565 1789.96 426.866C1789.09 426.168 1787.98 425.818 1786.63 425.818C1785.29 425.818 1784.18 426.168 1783.31 426.866C1782.44 427.565 1781.8 428.482 1781.38 429.615C1780.96 430.749 1780.75 431.972 1780.75 433.284C1780.75 434.597 1780.96 435.815 1781.38 436.94C1781.8 438.065 1782.44 438.973 1783.31 439.663C1784.18 440.354 1785.29 440.699 1786.63 440.699ZM1800.14 443V423.364H1803.05V426.33H1803.26C1803.61 425.358 1804.26 424.57 1805.2 423.964C1806.14 423.359 1807.19 423.057 1808.37 423.057C1808.59 423.057 1808.87 423.061 1809.2 423.07C1809.53 423.078 1809.78 423.091 1809.95 423.108V426.176C1809.85 426.151 1809.62 426.112 1809.25 426.061C1808.89 426.001 1808.51 425.972 1808.11 425.972C1807.16 425.972 1806.31 426.172 1805.56 426.572C1804.82 426.964 1804.23 427.51 1803.79 428.209C1803.37 428.899 1803.15 429.687 1803.15 430.574V443H1800.14ZM1823.3 423.364V425.92H1813.12V423.364H1823.3ZM1816.09 418.659H1819.11V437.375C1819.11 438.227 1819.23 438.866 1819.48 439.293C1819.73 439.71 1820.06 439.991 1820.45 440.136C1820.85 440.273 1821.27 440.341 1821.72 440.341C1822.05 440.341 1822.32 440.324 1822.53 440.29C1822.75 440.247 1822.92 440.213 1823.05 440.188L1823.66 442.898C1823.45 442.974 1823.17 443.051 1822.8 443.128C1822.44 443.213 1821.97 443.256 1821.41 443.256C1820.56 443.256 1819.72 443.072 1818.9 442.706C1818.09 442.339 1817.42 441.781 1816.88 441.031C1816.36 440.281 1816.09 439.335 1816.09 438.193V418.659ZM1835.86 443.409C1833.97 443.409 1832.34 442.991 1830.97 442.156C1829.6 441.312 1828.55 440.136 1827.81 438.628C1827.07 437.111 1826.71 435.347 1826.71 433.335C1826.71 431.324 1827.07 429.551 1827.81 428.017C1828.55 426.474 1829.58 425.273 1830.9 424.412C1832.23 423.543 1833.78 423.108 1835.55 423.108C1836.58 423.108 1837.59 423.278 1838.58 423.619C1839.58 423.96 1840.49 424.514 1841.31 425.281C1842.13 426.04 1842.78 427.045 1843.26 428.298C1843.75 429.551 1843.99 431.094 1843.99 432.926V434.205H1828.86V431.597H1840.92C1840.92 430.489 1840.7 429.5 1840.26 428.631C1839.82 427.761 1839.2 427.075 1838.39 426.572C1837.59 426.07 1836.65 425.818 1835.55 425.818C1834.35 425.818 1833.31 426.116 1832.44 426.713C1831.57 427.301 1830.9 428.068 1830.43 429.014C1829.96 429.96 1829.73 430.974 1829.73 432.057V433.795C1829.73 435.278 1829.98 436.536 1830.49 437.567C1831.01 438.589 1831.73 439.369 1832.65 439.906C1833.57 440.435 1834.64 440.699 1835.86 440.699C1836.65 440.699 1837.37 440.588 1838.01 440.366C1838.66 440.136 1839.22 439.795 1839.68 439.344C1840.15 438.884 1840.51 438.312 1840.77 437.631L1843.69 438.449C1843.38 439.438 1842.86 440.307 1842.14 441.057C1841.41 441.798 1840.52 442.378 1839.45 442.795C1838.39 443.205 1837.19 443.409 1835.86 443.409ZM1848.58 443V423.364H1851.5V426.33H1851.7C1852.06 425.358 1852.71 424.57 1853.64 423.964C1854.58 423.359 1855.64 423.057 1856.81 423.057C1857.04 423.057 1857.31 423.061 1857.65 423.07C1857.98 423.078 1858.23 423.091 1858.4 423.108V426.176C1858.3 426.151 1858.06 426.112 1857.7 426.061C1857.34 426.001 1856.96 425.972 1856.56 425.972C1855.6 425.972 1854.75 426.172 1854 426.572C1853.26 426.964 1852.67 427.51 1852.24 428.209C1851.81 428.899 1851.6 429.687 1851.6 430.574V443H1848.58Z" fill="#7D88A1"/>
</g>
<path d="M1037.55 166.7C1038.15 166.037 1038.15 164.963 1037.55 164.3L1027.79 153.497C1027.19 152.834 1026.22 152.834 1025.62 153.497C1025.02 154.16 1025.02 155.235 1025.62 155.898L1034.3 165.5L1025.62 175.102C1025.02 175.765 1025.02 176.84 1025.62 177.503C1026.22 178.166 1027.19 178.166 1027.79 177.503L1037.55 166.7ZM805 167.197H1036.47V163.803H805V167.197Z" fill="#7D88A1"/>
<path d="M1037.55 434.7C1038.15 434.037 1038.15 432.963 1037.55 432.3L1027.79 421.497C1027.19 420.834 1026.22 420.834 1025.62 421.497C1025.02 422.16 1025.02 423.235 1025.62 423.898L1034.3 433.5L1025.62 443.102C1025.02 443.765 1025.02 444.84 1025.62 445.503C1026.22 446.166 1027.19 446.166 1027.79 445.503L1037.55 434.7ZM805 435.197H1036.47V431.803H805V435.197Z" fill="#7D88A1"/>
<path d="M1615.55 166.7C1616.15 166.037 1616.15 164.963 1615.55 164.3L1605.79 153.497C1605.19 152.834 1604.22 152.834 1603.62 153.497C1603.02 154.16 1603.02 155.235 1603.62 155.898L1612.3 165.5L1603.62 175.102C1603.02 175.765 1603.02 176.84 1603.62 177.503C1604.22 178.166 1605.19 178.166 1605.79 177.503L1615.55 166.7ZM1383 167.197H1614.47V163.803H1383V167.197Z" fill="#7D88A1"/>
<path d="M1615.55 434.7C1616.15 434.037 1616.15 432.963 1615.55 432.3L1605.79 421.497C1605.19 420.834 1604.22 420.834 1603.62 421.497C1603.02 422.16 1603.02 423.235 1603.62 423.898L1612.3 433.5L1603.62 443.102C1603.02 443.765 1603.02 444.84 1603.62 445.503C1604.22 446.166 1605.19 446.166 1605.79 445.503L1615.55 434.7ZM1383 435.197H1614.47V431.803H1383V435.197Z" fill="#7D88A1"/>
<path d="M1615.29 385.856C1616.24 384.557 1616.24 382.452 1615.29 381.153L1600 359.982C1599.05 358.685 1597.54 358.685 1596.59 359.982C1595.65 361.281 1595.65 363.388 1596.59 364.687L1610.19 383.505L1596.59 402.322C1595.65 403.621 1595.65 405.728 1596.59 407.027C1597.54 408.324 1599.05 408.324 1600 407.027L1615.29 385.856ZM1383 194.652C1400.38 194.652 1412.75 194.707 1427.21 206.895C1441.83 219.231 1458.74 244.171 1484.38 295.06L1488.31 291.255C1462.65 240.312 1445.26 214.337 1429.71 201.215C1413.98 187.946 1400.32 188 1383 188V194.652ZM1484.38 295.06C1510.01 345.967 1526.56 369.336 1544.86 379.601C1554.03 384.738 1563.49 386.512 1574.49 387.033C1585.37 387.548 1598.13 386.831 1613.59 386.831V380.178C1597.82 380.178 1585.46 380.896 1574.64 380.383C1563.93 379.875 1555.1 378.155 1546.68 373.435C1529.81 363.983 1513.96 342.178 1488.31 291.255L1484.38 295.06Z" fill="#7D88A1"/>
<path d="M158.125 147.957V142.818H180.254V147.957H172.315V169H166.077V147.957H158.125ZM181.306 169V149.364H187.378V152.943H187.583C187.941 151.648 188.525 150.685 189.334 150.054C190.144 149.415 191.086 149.095 192.159 149.095C192.449 149.095 192.748 149.116 193.054 149.159C193.361 149.193 193.647 149.249 193.911 149.325V154.759C193.613 154.656 193.221 154.575 192.735 154.516C192.257 154.456 191.831 154.426 191.456 154.426C190.715 154.426 190.046 154.592 189.449 154.925C188.861 155.249 188.397 155.705 188.056 156.293C187.723 156.872 187.557 157.554 187.557 158.338V169H181.306ZM201.255 169.332C200.002 169.332 198.89 169.124 197.919 168.706C196.956 168.28 196.193 167.641 195.63 166.788C195.076 165.928 194.799 164.849 194.799 163.554C194.799 162.463 194.991 161.543 195.375 160.793C195.758 160.043 196.287 159.433 196.96 158.964C197.633 158.496 198.409 158.142 199.287 157.903C200.164 157.656 201.102 157.49 202.099 157.405C203.216 157.303 204.115 157.196 204.797 157.085C205.478 156.966 205.973 156.8 206.279 156.587C206.595 156.365 206.752 156.054 206.752 155.653V155.589C206.752 154.933 206.527 154.426 206.075 154.068C205.623 153.71 205.014 153.531 204.247 153.531C203.42 153.531 202.755 153.71 202.252 154.068C201.75 154.426 201.43 154.92 201.294 155.551L195.528 155.347C195.699 154.153 196.137 153.088 196.845 152.151C197.561 151.205 198.541 150.463 199.785 149.926C201.038 149.381 202.542 149.108 204.298 149.108C205.551 149.108 206.706 149.257 207.762 149.555C208.819 149.845 209.74 150.271 210.524 150.834C211.308 151.388 211.913 152.07 212.339 152.879C212.774 153.689 212.991 154.614 212.991 155.653V169H207.11V166.264H206.957C206.608 166.929 206.16 167.491 205.615 167.952C205.078 168.412 204.443 168.757 203.71 168.987C202.985 169.217 202.167 169.332 201.255 169.332ZM203.186 165.241C203.859 165.241 204.464 165.105 205.001 164.832C205.547 164.56 205.981 164.185 206.305 163.707C206.629 163.222 206.791 162.659 206.791 162.02V160.153C206.612 160.247 206.395 160.332 206.139 160.409C205.892 160.486 205.619 160.558 205.321 160.626C205.022 160.695 204.716 160.754 204.4 160.805C204.085 160.857 203.782 160.903 203.493 160.946C202.904 161.04 202.402 161.185 201.984 161.381C201.575 161.577 201.26 161.832 201.038 162.148C200.825 162.455 200.718 162.821 200.718 163.247C200.718 163.895 200.949 164.389 201.409 164.73C201.877 165.071 202.47 165.241 203.186 165.241ZM225.98 169.371C223.909 169.371 222.132 168.945 220.649 168.092C219.174 167.24 218.041 166.055 217.248 164.538C216.456 163.013 216.059 161.249 216.059 159.246C216.059 157.234 216.456 155.47 217.248 153.953C218.049 152.428 219.187 151.239 220.662 150.386C222.145 149.534 223.913 149.108 225.967 149.108C227.782 149.108 229.363 149.436 230.71 150.092C232.065 150.749 233.122 151.678 233.88 152.879C234.647 154.072 235.052 155.474 235.095 157.085H229.252C229.133 156.08 228.792 155.291 228.23 154.72C227.676 154.149 226.951 153.864 226.056 153.864C225.332 153.864 224.697 154.068 224.152 154.477C223.606 154.878 223.18 155.474 222.873 156.267C222.575 157.051 222.426 158.023 222.426 159.182C222.426 160.341 222.575 161.321 222.873 162.122C223.18 162.915 223.606 163.516 224.152 163.925C224.697 164.325 225.332 164.526 226.056 164.526C226.636 164.526 227.147 164.402 227.591 164.155C228.042 163.908 228.413 163.545 228.703 163.068C228.993 162.582 229.176 161.994 229.252 161.304H235.095C235.035 162.923 234.63 164.338 233.88 165.548C233.139 166.759 232.095 167.7 230.748 168.374C229.41 169.038 227.821 169.371 225.98 169.371ZM247.473 169.371C245.419 169.371 243.646 168.966 242.155 168.156C240.672 167.338 239.53 166.175 238.729 164.666C237.936 163.149 237.54 161.347 237.54 159.259C237.54 157.23 237.94 155.457 238.741 153.94C239.543 152.415 240.672 151.23 242.129 150.386C243.587 149.534 245.304 149.108 247.281 149.108C248.679 149.108 249.957 149.325 251.116 149.76C252.276 150.195 253.277 150.838 254.121 151.69C254.964 152.543 255.621 153.595 256.089 154.848C256.558 156.092 256.793 157.52 256.793 159.131V160.69H239.726V157.06H250.976C250.967 156.395 250.81 155.803 250.503 155.283C250.196 154.763 249.774 154.358 249.237 154.068C248.709 153.77 248.099 153.621 247.409 153.621C246.71 153.621 246.084 153.778 245.53 154.094C244.976 154.401 244.537 154.822 244.213 155.359C243.889 155.888 243.719 156.489 243.702 157.162V160.857C243.702 161.658 243.859 162.361 244.175 162.966C244.49 163.562 244.938 164.027 245.517 164.359C246.097 164.692 246.787 164.858 247.588 164.858C248.142 164.858 248.645 164.781 249.097 164.628C249.548 164.474 249.936 164.249 250.26 163.95C250.584 163.652 250.827 163.286 250.989 162.851L256.729 163.017C256.49 164.304 255.966 165.425 255.156 166.379C254.355 167.325 253.303 168.062 251.999 168.591C250.695 169.111 249.186 169.371 247.473 169.371ZM277.129 155.359L271.389 155.513C271.329 155.104 271.167 154.741 270.903 154.426C270.639 154.102 270.294 153.851 269.868 153.672C269.45 153.484 268.964 153.391 268.41 153.391C267.686 153.391 267.068 153.536 266.556 153.825C266.054 154.115 265.806 154.507 265.815 155.001C265.806 155.385 265.96 155.717 266.275 155.999C266.599 156.28 267.174 156.506 268.001 156.676L271.785 157.392C273.745 157.767 275.203 158.389 276.157 159.259C277.12 160.128 277.606 161.278 277.615 162.71C277.606 164.057 277.206 165.229 276.413 166.226C275.629 167.223 274.555 167.999 273.191 168.553C271.828 169.098 270.268 169.371 268.512 169.371C265.708 169.371 263.497 168.795 261.877 167.645C260.267 166.486 259.346 164.935 259.116 162.991L265.291 162.838C265.427 163.554 265.781 164.099 266.352 164.474C266.923 164.849 267.652 165.037 268.538 165.037C269.339 165.037 269.991 164.888 270.494 164.589C270.997 164.291 271.252 163.895 271.261 163.401C271.252 162.957 271.056 162.604 270.673 162.339C270.289 162.067 269.689 161.854 268.87 161.7L265.444 161.048C263.475 160.69 262.01 160.03 261.047 159.067C260.083 158.095 259.606 156.859 259.615 155.359C259.606 154.047 259.956 152.926 260.663 151.997C261.37 151.06 262.376 150.344 263.68 149.849C264.984 149.355 266.522 149.108 268.295 149.108C270.954 149.108 273.051 149.666 274.585 150.783C276.119 151.891 276.967 153.416 277.129 155.359ZM288.427 169V142.818H299.242C301.202 142.818 302.894 143.202 304.317 143.969C305.749 144.727 306.853 145.788 307.629 147.152C308.404 148.507 308.792 150.084 308.792 151.882C308.792 153.689 308.396 155.27 307.603 156.625C306.819 157.972 305.698 159.016 304.241 159.757C302.783 160.499 301.053 160.869 299.05 160.869H292.377V155.884H297.874C298.829 155.884 299.626 155.717 300.265 155.385C300.913 155.053 301.403 154.588 301.735 153.991C302.067 153.386 302.234 152.683 302.234 151.882C302.234 151.072 302.067 150.374 301.735 149.786C301.403 149.189 300.913 148.729 300.265 148.405C299.617 148.081 298.82 147.919 297.874 147.919H294.755V169H288.427ZM311.911 169V149.364H318.163V169H311.911ZM315.043 147.075C314.165 147.075 313.411 146.786 312.781 146.206C312.15 145.618 311.835 144.911 311.835 144.084C311.835 143.266 312.15 142.567 312.781 141.987C313.411 141.399 314.165 141.105 315.043 141.105C315.93 141.105 316.684 141.399 317.306 141.987C317.937 142.567 318.252 143.266 318.252 144.084C318.252 144.911 317.937 145.618 317.306 146.206C316.684 146.786 315.93 147.075 315.043 147.075ZM322.142 176.364V149.364H328.329V152.726H328.521C328.777 152.129 329.139 151.554 329.608 151C330.085 150.446 330.69 149.994 331.423 149.645C332.164 149.287 333.051 149.108 334.082 149.108C335.446 149.108 336.72 149.466 337.904 150.182C339.098 150.898 340.061 152.001 340.794 153.493C341.527 154.984 341.893 156.885 341.893 159.195C341.893 161.419 341.539 163.281 340.832 164.781C340.133 166.281 339.187 167.406 337.994 168.156C336.809 168.906 335.493 169.281 334.044 169.281C333.055 169.281 332.199 169.119 331.474 168.795C330.75 168.472 330.14 168.045 329.646 167.517C329.16 166.989 328.785 166.422 328.521 165.817H328.393V176.364H322.142ZM328.265 159.182C328.265 160.239 328.406 161.159 328.687 161.943C328.977 162.727 329.39 163.337 329.927 163.771C330.473 164.197 331.125 164.411 331.883 164.411C332.65 164.411 333.302 164.197 333.839 163.771C334.376 163.337 334.781 162.727 335.054 161.943C335.335 161.159 335.475 160.239 335.475 159.182C335.475 158.125 335.335 157.209 335.054 156.433C334.781 155.658 334.376 155.057 333.839 154.631C333.311 154.205 332.659 153.991 331.883 153.991C331.116 153.991 330.464 154.2 329.927 154.618C329.39 155.036 328.977 155.632 328.687 156.408C328.406 157.183 328.265 158.108 328.265 159.182ZM354.348 169.371C352.294 169.371 350.521 168.966 349.03 168.156C347.547 167.338 346.405 166.175 345.604 164.666C344.811 163.149 344.415 161.347 344.415 159.259C344.415 157.23 344.815 155.457 345.616 153.94C346.418 152.415 347.547 151.23 349.004 150.386C350.462 149.534 352.179 149.108 354.156 149.108C355.554 149.108 356.832 149.325 357.991 149.76C359.151 150.195 360.152 150.838 360.996 151.69C361.839 152.543 362.496 153.595 362.964 154.848C363.433 156.092 363.668 157.52 363.668 159.131V160.69H346.601V157.06H357.851C357.842 156.395 357.685 155.803 357.378 155.283C357.071 154.763 356.649 154.358 356.112 154.068C355.584 153.77 354.974 153.621 354.284 153.621C353.585 153.621 352.959 153.778 352.405 154.094C351.851 154.401 351.412 154.822 351.088 155.359C350.764 155.888 350.594 156.489 350.577 157.162V160.857C350.577 161.658 350.734 162.361 351.05 162.966C351.365 163.562 351.812 164.027 352.392 164.359C352.972 164.692 353.662 164.858 354.463 164.858C355.017 164.858 355.52 164.781 355.972 164.628C356.423 164.474 356.811 164.249 357.135 163.95C357.459 163.652 357.702 163.286 357.864 162.851L363.604 163.017C363.365 164.304 362.841 165.425 362.031 166.379C361.23 167.325 360.178 168.062 358.874 168.591C357.57 169.111 356.061 169.371 354.348 169.371ZM373.112 142.818V169H366.86V142.818H373.112ZM377.091 169V149.364H383.342V169H377.091ZM380.223 147.075C379.345 147.075 378.591 146.786 377.96 146.206C377.33 145.618 377.014 144.911 377.014 144.084C377.014 143.266 377.33 142.567 377.96 141.987C378.591 141.399 379.345 141.105 380.223 141.105C381.109 141.105 381.864 141.399 382.486 141.987C383.116 142.567 383.432 143.266 383.432 144.084C383.432 144.911 383.116 145.618 382.486 146.206C381.864 146.786 381.109 147.075 380.223 147.075ZM393.573 157.801V169H387.321V149.364H393.266V152.969H393.483C393.918 151.767 394.659 150.825 395.708 150.143C396.756 149.453 398.005 149.108 399.453 149.108C400.834 149.108 402.032 149.419 403.046 150.041C404.069 150.655 404.861 151.516 405.424 152.624C405.995 153.723 406.276 155.01 406.267 156.484V169H400.016V157.712C400.025 156.621 399.748 155.768 399.185 155.155C398.631 154.541 397.86 154.234 396.871 154.234C396.215 154.234 395.635 154.379 395.132 154.669C394.638 154.95 394.255 155.355 393.982 155.884C393.718 156.412 393.581 157.051 393.573 157.801ZM419.317 169.371C417.263 169.371 415.49 168.966 413.999 168.156C412.516 167.338 411.374 166.175 410.572 164.666C409.78 163.149 409.384 161.347 409.384 159.259C409.384 157.23 409.784 155.457 410.585 153.94C411.386 152.415 412.516 151.23 413.973 150.386C415.43 149.534 417.148 149.108 419.125 149.108C420.523 149.108 421.801 149.325 422.96 149.76C424.119 150.195 425.121 150.838 425.964 151.69C426.808 152.543 427.464 153.595 427.933 154.848C428.402 156.092 428.636 157.52 428.636 159.131V160.69H411.57V157.06H422.82C422.811 156.395 422.653 155.803 422.347 155.283C422.04 154.763 421.618 154.358 421.081 154.068C420.553 153.77 419.943 153.621 419.253 153.621C418.554 153.621 417.928 153.778 417.374 154.094C416.82 154.401 416.381 154.822 416.057 155.359C415.733 155.888 415.563 156.489 415.545 157.162V160.857C415.545 161.658 415.703 162.361 416.018 162.966C416.334 163.562 416.781 164.027 417.361 164.359C417.94 164.692 418.631 164.858 419.432 164.858C419.986 164.858 420.489 164.781 420.94 164.628C421.392 164.474 421.78 164.249 422.104 163.95C422.428 163.652 422.67 163.286 422.832 162.851L428.572 163.017C428.334 164.304 427.81 165.425 427 166.379C426.199 167.325 425.146 168.062 423.842 168.591C422.538 169.111 421.03 169.371 419.317 169.371ZM435.345 169.371C434.424 169.371 433.636 169.047 432.98 168.399C432.332 167.751 432.012 166.967 432.021 166.047C432.012 165.143 432.332 164.372 432.98 163.733C433.636 163.085 434.424 162.761 435.345 162.761C436.214 162.761 436.981 163.085 437.646 163.733C438.319 164.372 438.66 165.143 438.669 166.047C438.66 166.661 438.498 167.219 438.183 167.722C437.876 168.224 437.471 168.625 436.968 168.923C436.474 169.222 435.933 169.371 435.345 169.371ZM435.345 155.896C434.424 155.896 433.636 155.577 432.98 154.938C432.332 154.29 432.012 153.501 432.021 152.572C432.012 151.669 432.332 150.898 432.98 150.259C433.636 149.611 434.424 149.287 435.345 149.287C436.214 149.287 436.981 149.611 437.646 150.259C438.319 150.898 438.66 151.669 438.669 152.572C438.66 153.186 438.498 153.744 438.183 154.247C437.876 154.75 437.471 155.151 436.968 155.449C436.474 155.747 435.933 155.896 435.345 155.896Z" fill="#8FA5ED"/>
<path d="M150.982 410.818H158.818L165.466 427.028H165.773L172.42 410.818H180.257V437H174.095V420.918H173.878L167.588 436.834H163.651L157.361 420.828H157.143V437H150.982V410.818ZM193.383 437.371C191.329 437.371 189.556 436.966 188.065 436.156C186.582 435.338 185.44 434.175 184.639 432.666C183.846 431.149 183.45 429.347 183.45 427.259C183.45 425.23 183.85 423.457 184.652 421.94C185.453 420.415 186.582 419.23 188.039 418.386C189.497 417.534 191.214 417.108 193.191 417.108C194.589 417.108 195.868 417.325 197.027 417.76C198.186 418.195 199.187 418.838 200.031 419.69C200.875 420.543 201.531 421.595 202 422.848C202.468 424.092 202.703 425.52 202.703 427.131V428.69H185.636V425.06H196.886C196.877 424.395 196.72 423.803 196.413 423.283C196.106 422.763 195.684 422.358 195.147 422.068C194.619 421.77 194.01 421.621 193.319 421.621C192.62 421.621 191.994 421.778 191.44 422.094C190.886 422.401 190.447 422.822 190.123 423.359C189.799 423.888 189.629 424.489 189.612 425.162V428.857C189.612 429.658 189.77 430.361 190.085 430.966C190.4 431.562 190.848 432.027 191.427 432.359C192.007 432.692 192.697 432.858 193.498 432.858C194.052 432.858 194.555 432.781 195.007 432.628C195.458 432.474 195.846 432.249 196.17 431.95C196.494 431.652 196.737 431.286 196.899 430.851L202.639 431.017C202.4 432.304 201.876 433.425 201.066 434.379C200.265 435.325 199.213 436.062 197.909 436.591C196.605 437.111 195.096 437.371 193.383 437.371ZM216.979 417.364V421.966H204.592V417.364H216.979ZM207.187 412.659H213.438V430.825C213.438 431.209 213.498 431.52 213.617 431.759C213.745 431.989 213.928 432.155 214.167 432.257C214.406 432.351 214.691 432.398 215.023 432.398C215.262 432.398 215.513 432.376 215.778 432.334C216.05 432.283 216.255 432.24 216.391 432.206L217.337 436.719C217.039 436.804 216.617 436.911 216.072 437.038C215.535 437.166 214.891 437.247 214.141 437.281C212.675 437.349 211.418 437.179 210.37 436.77C209.33 436.352 208.533 435.705 207.979 434.827C207.434 433.949 207.17 432.845 207.187 431.516V412.659ZM220.169 437V417.364H226.241V420.943H226.446C226.804 419.648 227.388 418.685 228.197 418.054C229.007 417.415 229.949 417.095 231.023 417.095C231.313 417.095 231.611 417.116 231.918 417.159C232.224 417.193 232.51 417.249 232.774 417.325V422.759C232.476 422.656 232.084 422.575 231.598 422.516C231.121 422.456 230.695 422.426 230.32 422.426C229.578 422.426 228.909 422.592 228.312 422.925C227.724 423.249 227.26 423.705 226.919 424.293C226.587 424.872 226.42 425.554 226.42 426.338V437H220.169ZM235.321 437V417.364H241.573V437H235.321ZM238.453 415.075C237.576 415.075 236.821 414.786 236.191 414.206C235.56 413.618 235.245 412.911 235.245 412.084C235.245 411.266 235.56 410.567 236.191 409.987C236.821 409.399 237.576 409.105 238.453 409.105C239.34 409.105 240.094 409.399 240.716 409.987C241.347 410.567 241.662 411.266 241.662 412.084C241.662 412.911 241.347 413.618 240.716 414.206C240.094 414.786 239.34 415.075 238.453 415.075ZM254.718 437.371C252.647 437.371 250.87 436.945 249.387 436.092C247.913 435.24 246.779 434.055 245.987 432.538C245.194 431.013 244.798 429.249 244.798 427.246C244.798 425.234 245.194 423.47 245.987 421.953C246.788 420.428 247.925 419.239 249.4 418.386C250.883 417.534 252.651 417.108 254.705 417.108C256.521 417.108 258.102 417.436 259.448 418.092C260.803 418.749 261.86 419.678 262.619 420.879C263.386 422.072 263.79 423.474 263.833 425.085H257.991C257.871 424.08 257.531 423.291 256.968 422.72C256.414 422.149 255.69 421.864 254.795 421.864C254.07 421.864 253.435 422.068 252.89 422.477C252.344 422.878 251.918 423.474 251.612 424.267C251.313 425.051 251.164 426.023 251.164 427.182C251.164 428.341 251.313 429.321 251.612 430.122C251.918 430.915 252.344 431.516 252.89 431.925C253.435 432.325 254.07 432.526 254.795 432.526C255.374 432.526 255.886 432.402 256.329 432.155C256.781 431.908 257.151 431.545 257.441 431.068C257.731 430.582 257.914 429.994 257.991 429.304H263.833C263.773 430.923 263.369 432.338 262.619 433.548C261.877 434.759 260.833 435.7 259.487 436.374C258.148 437.038 256.559 437.371 254.718 437.371ZM284.176 423.359L278.436 423.513C278.376 423.104 278.214 422.741 277.95 422.426C277.686 422.102 277.341 421.851 276.914 421.672C276.497 421.484 276.011 421.391 275.457 421.391C274.733 421.391 274.115 421.536 273.603 421.825C273.1 422.115 272.853 422.507 272.862 423.001C272.853 423.385 273.007 423.717 273.322 423.999C273.646 424.28 274.221 424.506 275.048 424.676L278.832 425.392C280.792 425.767 282.25 426.389 283.204 427.259C284.167 428.128 284.653 429.278 284.662 430.71C284.653 432.057 284.252 433.229 283.46 434.226C282.676 435.223 281.602 435.999 280.238 436.553C278.875 437.098 277.315 437.371 275.559 437.371C272.755 437.371 270.544 436.795 268.924 435.645C267.314 434.486 266.393 432.935 266.163 430.991L272.338 430.838C272.474 431.554 272.828 432.099 273.399 432.474C273.97 432.849 274.699 433.037 275.585 433.037C276.386 433.037 277.038 432.888 277.541 432.589C278.044 432.291 278.299 431.895 278.308 431.401C278.299 430.957 278.103 430.604 277.72 430.339C277.336 430.067 276.735 429.854 275.917 429.7L272.491 429.048C270.522 428.69 269.056 428.03 268.093 427.067C267.13 426.095 266.653 424.859 266.662 423.359C266.653 422.047 267.002 420.926 267.71 419.997C268.417 419.06 269.423 418.344 270.727 417.849C272.031 417.355 273.569 417.108 275.342 417.108C278.001 417.108 280.098 417.666 281.632 418.783C283.166 419.891 284.014 421.416 284.176 423.359ZM295.474 437V410.818H306.289C308.249 410.818 309.941 411.202 311.364 411.969C312.796 412.727 313.9 413.788 314.675 415.152C315.451 416.507 315.839 418.084 315.839 419.882C315.839 421.689 315.442 423.27 314.65 424.625C313.866 425.972 312.745 427.016 311.288 427.757C309.83 428.499 308.1 428.869 306.097 428.869H299.424V423.884H304.921C305.876 423.884 306.673 423.717 307.312 423.385C307.96 423.053 308.45 422.588 308.782 421.991C309.114 421.386 309.281 420.683 309.281 419.882C309.281 419.072 309.114 418.374 308.782 417.786C308.45 417.189 307.96 416.729 307.312 416.405C306.664 416.081 305.867 415.919 304.921 415.919H301.802V437H295.474ZM318.958 437V417.364H325.21V437H318.958ZM322.09 415.075C321.212 415.075 320.458 414.786 319.827 414.206C319.197 413.618 318.881 412.911 318.881 412.084C318.881 411.266 319.197 410.567 319.827 409.987C320.458 409.399 321.212 409.105 322.09 409.105C322.977 409.105 323.731 409.399 324.353 409.987C324.984 410.567 325.299 411.266 325.299 412.084C325.299 412.911 324.984 413.618 324.353 414.206C323.731 414.786 322.977 415.075 322.09 415.075ZM329.189 444.364V417.364H335.376V420.726H335.568C335.824 420.129 336.186 419.554 336.654 419C337.132 418.446 337.737 417.994 338.47 417.645C339.211 417.287 340.098 417.108 341.129 417.108C342.493 417.108 343.767 417.466 344.951 418.182C346.145 418.898 347.108 420.001 347.841 421.493C348.574 422.984 348.94 424.885 348.94 427.195C348.94 429.419 348.586 431.281 347.879 432.781C347.18 434.281 346.234 435.406 345.041 436.156C343.856 436.906 342.539 437.281 341.091 437.281C340.102 437.281 339.245 437.119 338.521 436.795C337.797 436.472 337.187 436.045 336.693 435.517C336.207 434.989 335.832 434.422 335.568 433.817H335.44V444.364H329.189ZM335.312 427.182C335.312 428.239 335.453 429.159 335.734 429.943C336.024 430.727 336.437 431.337 336.974 431.771C337.52 432.197 338.172 432.411 338.93 432.411C339.697 432.411 340.349 432.197 340.886 431.771C341.423 431.337 341.828 430.727 342.1 429.943C342.382 429.159 342.522 428.239 342.522 427.182C342.522 426.125 342.382 425.209 342.1 424.433C341.828 423.658 341.423 423.057 340.886 422.631C340.358 422.205 339.706 421.991 338.93 421.991C338.163 421.991 337.511 422.2 336.974 422.618C336.437 423.036 336.024 423.632 335.734 424.408C335.453 425.183 335.312 426.108 335.312 427.182ZM361.395 437.371C359.341 437.371 357.568 436.966 356.077 436.156C354.594 435.338 353.452 434.175 352.651 432.666C351.858 431.149 351.462 429.347 351.462 427.259C351.462 425.23 351.862 423.457 352.663 421.94C353.464 420.415 354.594 419.23 356.051 418.386C357.509 417.534 359.226 417.108 361.203 417.108C362.601 417.108 363.879 417.325 365.038 417.76C366.197 418.195 367.199 418.838 368.043 419.69C368.886 420.543 369.543 421.595 370.011 422.848C370.48 424.092 370.714 425.52 370.714 427.131V428.69H353.648V425.06H364.898C364.889 424.395 364.732 423.803 364.425 423.283C364.118 422.763 363.696 422.358 363.159 422.068C362.631 421.77 362.021 421.621 361.331 421.621C360.632 421.621 360.006 421.778 359.452 422.094C358.898 422.401 358.459 422.822 358.135 423.359C357.811 423.888 357.641 424.489 357.624 425.162V428.857C357.624 429.658 357.781 430.361 358.097 430.966C358.412 431.562 358.859 432.027 359.439 432.359C360.018 432.692 360.709 432.858 361.51 432.858C362.064 432.858 362.567 432.781 363.018 432.628C363.47 432.474 363.858 432.249 364.182 431.95C364.506 431.652 364.749 431.286 364.911 430.851L370.651 431.017C370.412 432.304 369.888 433.425 369.078 434.379C368.277 435.325 367.224 436.062 365.92 436.591C364.616 437.111 363.108 437.371 361.395 437.371ZM380.159 410.818V437H373.907V410.818H380.159ZM384.138 437V417.364H390.389V437H384.138ZM387.27 415.075C386.392 415.075 385.638 414.786 385.007 414.206C384.376 413.618 384.061 412.911 384.061 412.084C384.061 411.266 384.376 410.567 385.007 409.987C385.638 409.399 386.392 409.105 387.27 409.105C388.156 409.105 388.911 409.399 389.533 409.987C390.163 410.567 390.479 411.266 390.479 412.084C390.479 412.911 390.163 413.618 389.533 414.206C388.911 414.786 388.156 415.075 387.27 415.075ZM400.62 425.801V437H394.368V417.364H400.313V420.969H400.53C400.965 419.767 401.706 418.825 402.755 418.143C403.803 417.453 405.051 417.108 406.5 417.108C407.881 417.108 409.078 417.419 410.093 418.041C411.115 418.655 411.908 419.516 412.471 420.624C413.042 421.723 413.323 423.01 413.314 424.484V437H407.063V425.712C407.071 424.621 406.794 423.768 406.232 423.155C405.678 422.541 404.907 422.234 403.918 422.234C403.262 422.234 402.682 422.379 402.179 422.669C401.685 422.95 401.301 423.355 401.029 423.884C400.765 424.412 400.628 425.051 400.62 425.801ZM426.364 437.371C424.31 437.371 422.537 436.966 421.045 436.156C419.563 435.338 418.42 434.175 417.619 432.666C416.827 431.149 416.43 429.347 416.43 427.259C416.43 425.23 416.831 423.457 417.632 421.94C418.433 420.415 419.562 419.23 421.02 418.386C422.477 417.534 424.195 417.108 426.172 417.108C427.57 417.108 428.848 417.325 430.007 417.76C431.166 418.195 432.168 418.838 433.011 419.69C433.855 420.543 434.511 421.595 434.98 422.848C435.449 424.092 435.683 425.52 435.683 427.131V428.69H418.616V425.06H429.866C429.858 424.395 429.7 423.803 429.393 423.283C429.087 422.763 428.665 422.358 428.128 422.068C427.599 421.77 426.99 421.621 426.3 421.621C425.601 421.621 424.974 421.778 424.42 422.094C423.866 422.401 423.428 422.822 423.104 423.359C422.78 423.888 422.609 424.489 422.592 425.162V428.857C422.592 429.658 422.75 430.361 423.065 430.966C423.381 431.562 423.828 432.027 424.408 432.359C424.987 432.692 425.678 432.858 426.479 432.858C427.033 432.858 427.536 432.781 427.987 432.628C428.439 432.474 428.827 432.249 429.151 431.95C429.474 431.652 429.717 431.286 429.879 430.851L435.619 431.017C435.381 432.304 434.857 433.425 434.047 434.379C433.246 435.325 432.193 436.062 430.889 436.591C429.585 437.111 428.077 437.371 426.364 437.371ZM442.392 437.371C441.471 437.371 440.683 437.047 440.027 436.399C439.379 435.751 439.059 434.967 439.068 434.047C439.059 433.143 439.379 432.372 440.027 431.733C440.683 431.085 441.471 430.761 442.392 430.761C443.261 430.761 444.028 431.085 444.693 431.733C445.366 432.372 445.707 433.143 445.716 434.047C445.707 434.661 445.545 435.219 445.23 435.722C444.923 436.224 444.518 436.625 444.015 436.923C443.521 437.222 442.98 437.371 442.392 437.371ZM442.392 423.896C441.471 423.896 440.683 423.577 440.027 422.938C439.379 422.29 439.059 421.501 439.068 420.572C439.059 419.669 439.379 418.898 440.027 418.259C440.683 417.611 441.471 417.287 442.392 417.287C443.261 417.287 444.028 417.611 444.693 418.259C445.366 418.898 445.707 419.669 445.716 420.572C445.707 421.186 445.545 421.744 445.23 422.247C444.923 422.75 444.518 423.151 444.015 423.449C443.521 423.747 442.98 423.896 442.392 423.896Z" fill="#8FA5ED"/>
</g>
<defs>
<filter id="filter0_d_3_159" x="454" y="116" width="356" height="112" filterUnits="userSpaceOnUse" color-interpolation-filters="sRGB">
<feFlood flood-opacity="0" result="BackgroundImageFix"/>
<feColorMatrix in="SourceAlpha" type="matrix" values="0 0 0 0 0 0 0 0 0 0 0 0 0 0 0 0 0 0 127 0" result="hardAlpha"/>
<feOffset dy="8"/>
<feGaussianBlur stdDeviation="8"/>
<feColorMatrix type="matrix" values="0 0 0 0 0.337255 0 0 0 0 0.388235 0 0 0 0 0.505882 0 0 0 0.24 0"/>
<feBlend mode="normal" in2="BackgroundImageFix" result="effect1_dropShadow_3_159"/>
<feBlend mode="normal" in="SourceGraphic" in2="effect1_dropShadow_3_159" result="shape"/>
</filter>
<filter id="filter1_d_3_159" x="454" y="384" width="356" height="112" filterUnits="userSpaceOnUse" color-interpolation-filters="sRGB">
<feFlood flood-opacity="0" result="BackgroundImageFix"/>
<feColorMatrix in="SourceAlpha" type="matrix" values="0 0 0 0 0 0 0 0 0 0 0 0 0 0 0 0 0 0 127 0" result="hardAlpha"/>
<feOffset dy="8"/>
<feGaussianBlur stdDeviation="8"/>
<feColorMatrix type="matrix" values="0 0 0 0 0.337255 0 0 0 0 0.388235 0 0 0 0 0.505882 0 0 0 0.24 0"/>
<feBlend mode="normal" in2="BackgroundImageFix" result="effect1_dropShadow_3_159"/>
<feBlend mode="normal" in="SourceGraphic" in2="effect1_dropShadow_3_159" result="shape"/>
</filter>
<filter id="filter2_d_3_159" x="1032" y="116" width="356" height="112" filterUnits="userSpaceOnUse" color-interpolation-filters="sRGB">
<feFlood flood-opacity="0" result="BackgroundImageFix"/>
<feColorMatrix in="SourceAlpha" type="matrix" values="0 0 0 0 0 0 0 0 0 0 0 0 0 0 0 0 0 0 127 0" result="hardAlpha"/>
<feOffset dy="8"/>
<feGaussianBlur stdDeviation="8"/>
<feColorMatrix type="matrix" values="0 0 0 0 0.337255 0 0 0 0 0.388235 0 0 0 0 0.505882 0 0 0 0.24 0"/>
<feBlend mode="normal" in2="BackgroundImageFix" result="effect1_dropShadow_3_159"/>
<feBlend mode="normal" in="SourceGraphic" in2="effect1_dropShadow_3_159" result="shape"/>
</filter>
<filter id="filter3_d_3_159" x="1032" y="384" width="356" height="112" filterUnits="userSpaceOnUse" color-interpolation-filters="sRGB">
<feFlood flood-opacity="0" result="BackgroundImageFix"/>
<feColorMatrix in="SourceAlpha" type="matrix" values="0 0 0 0 0 0 0 0 0 0 0 0 0 0 0 0 0 0 127 0" result="hardAlpha"/>
<feOffset dy="8"/>
<feGaussianBlur stdDeviation="8"/>
<feColorMatrix type="matrix" values="0 0 0 0 0.337255 0 0 0 0 0.388235 0 0 0 0 0.505882 0 0 0 0.24 0"/>
<feBlend mode="normal" in2="BackgroundImageFix" result="effect1_dropShadow_3_159"/>
<feBlend mode="normal" in="SourceGraphic" in2="effect1_dropShadow_3_159" result="shape"/>
</filter>
<filter id="filter4_d_3_159" x="1611" y="116" width="356" height="112" filterUnits="userSpaceOnUse" color-interpolation-filters="sRGB">
<feFlood flood-opacity="0" result="BackgroundImageFix"/>
<feColorMatrix in="SourceAlpha" type="matrix" values="0 0 0 0 0 0 0 0 0 0 0 0 0 0 0 0 0 0 127 0" result="hardAlpha"/>
<feOffset dy="8"/>
<feGaussianBlur stdDeviation="8"/>
<feColorMatrix type="matrix" values="0 0 0 0 0.337255 0 0 0 0 0.388235 0 0 0 0 0.505882 0 0 0 0.24 0"/>
<feBlend mode="normal" in2="BackgroundImageFix" result="effect1_dropShadow_3_159"/>
<feBlend mode="normal" in="SourceGraphic" in2="effect1_dropShadow_3_159" result="shape"/>
</filter>
<filter id="filter5_d_3_159" x="1611" y="384" width="356" height="112" filterUnits="userSpaceOnUse" color-interpolation-filters="sRGB">
<feFlood flood-opacity="0" result="BackgroundImageFix"/>
<feColorMatrix in="SourceAlpha" type="matrix" values="0 0 0 0 0 0 0 0 0 0 0 0 0 0 0 0 0 0 127 0" result="hardAlpha"/>
<feOffset dy="8"/>
<feGaussianBlur stdDeviation="8"/>
<feColorMatrix type="matrix" values="0 0 0 0 0.337255 0 0 0 0 0.388235 0 0 0 0 0.505882 0 0 0 0.24 0"/>
<feBlend mode="normal" in2="BackgroundImageFix" result="effect1_dropShadow_3_159"/>
<feBlend mode="normal" in="SourceGraphic" in2="effect1_dropShadow_3_159" result="shape"/>
</filter>
<clipPath id="clip0_3_159">
<rect width="2113" height="599" fill="white"/>
</clipPath>
</defs>
</svg>
