<?xml version="1.0" encoding="UTF-8" standalone="no"?>
<svg
   id="Layer_1"
   data-name="Layer 1"
   viewBox="0 0 1879.3351 639.67988"
   version="1.1"
   sodipodi:docname="otel-collector-after-connector.svg"
   width="1879.3351"
   height="639.67987"
   inkscape:version="1.4.2 (ebf0e940, 2025-05-08)"
   xmlns:inkscape="http://www.inkscape.org/namespaces/inkscape"
   xmlns:sodipodi="http://sodipodi.sourceforge.net/DTD/sodipodi-0.dtd"
   xmlns="http://www.w3.org/2000/svg"
   xmlns:svg="http://www.w3.org/2000/svg">
  <defs
     id="defs121" />
  <sodipodi:namedview
     id="namedview121"
     pagecolor="#ffffff"
     bordercolor="#000000"
     borderopacity="0.25"
     inkscape:showpageshadow="2"
     inkscape:pageopacity="0.0"
     inkscape:pagecheckerboard="true"
     inkscape:deskcolor="#d1d1d1"
     inkscape:zoom="0.49066486"
     inkscape:cx="989.47376"
     inkscape:cy="301.63155"
     inkscape:window-width="1680"
     inkscape:window-height="929"
     inkscape:window-x="0"
     inkscape:window-y="25"
     inkscape:window-maximized="1"
     inkscape:current-layer="Layer_1" />
  <path
     d="m 655.93957,163.34877 c -1.179,-33.17241 2.32718,-67.687238 -1.695,-100.044998 -112.53509,-2.623529 -225.72709,-0.3761 -338.515,-1.125 -13.18021,16.63866 -2.17355,48.660938 -5.79,71.290198 -10.12659,33.19712 14.10906,38.43605 41.49893,33.7198 100.88382,-0.75713 202.17545,1.50961 302.80607,-1.125 z"
     fill="#e7ecf8"
     id="path1" />
  <path
     d="m 655.93957,634.34877 c -1.179,-33.17241 2.32718,-67.68724 -1.695,-100.045 -112.53509,-2.62353 -225.72709,-0.3761 -338.515,-1.125 -13.18021,16.63866 -2.17355,48.66094 -5.79,71.2902 -10.12659,33.19712 14.10906,38.43605 41.49893,33.7198 100.88382,-0.75713 202.17545,1.50961 302.80607,-1.125 z"
     fill="#e7ecf8"
     id="path2" />
  <path
     d="m 1812.9396,221.34877 c -1.179,-33.17241 2.3272,-67.68724 -1.695,-100.045 -112.5351,-2.62353 -225.7271,-0.3761 -338.515,-1.125 -13.1802,16.63866 -2.1735,48.66094 -5.79,71.2902 -10.1266,33.19712 14.1091,38.43605 41.4989,33.7198 100.8839,-0.75713 202.1755,1.50961 302.8061,-1.125 z"
     fill="#e7ecf8"
     id="path3" />
  <path
     d="m 1812.9396,101.34877 c -1.1792,-33.168998 2.3275,-67.68067 -1.695,-100.0349981 -112.5351,-2.623529 -225.7271,-0.37610004 -338.515,-1.12500004 -13.1802,16.63865814 -2.1735,48.66094214 -5.79,71.29020014 -10.1266,33.197118 14.1091,38.436048 41.4989,33.719798 100.8839,-0.75713 202.1755,1.50961 302.8061,-1.125 l 1.695,-2.715 z"
     fill="#edf2df"
     id="path4" />
  <path
     d="m 1233.9396,163.34877 c -1.179,-33.17241 2.3272,-67.687238 -1.695,-100.044998 -112.5351,-2.623529 -225.7271,-0.3761 -338.51503,-1.125 -13.18021,16.63866 -2.17355,48.660938 -5.79,71.290198 -10.12659,33.19712 14.10906,38.43605 41.49893,33.7198 100.8839,-0.75713 202.1755,1.50961 302.8061,-1.125 z"
     fill="#e7ecf8"
     id="path5" />
  <path
     d="m 1233.9396,564.34877 c -1.179,-33.17241 2.3272,-67.68724 -1.695,-100.045 -112.5351,-2.62353 -225.7271,-0.3761 -338.51503,-1.125 -13.18021,16.63866 -2.17355,48.66094 -5.79,71.2902 -10.12659,33.19712 14.10906,38.43605 41.49893,33.7198 100.8839,-0.75713 202.1755,1.50961 302.8061,-1.125 z"
     fill="#e7ecf8"
     id="path6" />
  <path
     d="m 1812.9396,564.34877 c -1.179,-33.17241 2.3272,-67.68724 -1.695,-100.045 -112.5351,-2.62353 -225.7271,-0.3761 -338.515,-1.125 -13.1802,16.63866 -2.1735,48.66094 -5.79,71.2902 -10.1266,33.19712 14.1091,38.43605 41.4989,33.7198 100.8839,-0.75713 202.1755,1.50961 302.8061,-1.125 z"
     fill="#e7ecf8"
     id="path7" />
  <g
     id="g18"
     transform="translate(-46.04043,-36.961228)">
    <path
       d="m 366.98,119.91 c 9.07736,-14.43637 60.15368,-15.97825 65.12,-1.82468 0,24.02156 0,48.04312 0,72.06468 -21.38574,-5.21687 -65.19999,14.2983 -65.12,-18.66532 0,-17.19156 0,-34.38312 0,-51.57468 z"
       fill="#92a9ef"
       id="path8" />
    <path
       d="m 384.98,156.6 c 35.57029,3.393 8.23938,21.40669 0,0 z"
       fill="none"
       stroke="#ffffff"
       stroke-linecap="round"
       stroke-linejoin="round"
       stroke-width="3"
       id="path9" />
    <path
       d="m 402.98,161.85 c 40.61364,-19.7904 2.929,18.39753 0,0 z"
       fill="none"
       stroke="#ffffff"
       stroke-linecap="round"
       stroke-linejoin="round"
       stroke-width="3"
       id="path10" />
    <path
       d="m 384.98,156.15 c 4.5,-1.25 9,-2.5 13.5,-3.75 m 9,0 c 4.5,1.25 9,2.5 13.5,3.75"
       fill="none"
       stroke="#ffffff"
       stroke-linecap="round"
       stroke-linejoin="round"
       stroke-width="3"
       id="path11" />
    <path
       d="m 407.48,132.15 c 0,4.5 0,9 0,13.5"
       fill="none"
       stroke="#ffffff"
       stroke-linecap="round"
       stroke-linejoin="round"
       stroke-width="3"
       id="path12" />
    <path
       d="m 398.48,132.15 c 0,4.5 0,9 0,13.5"
       fill="none"
       stroke="#ffffff"
       stroke-linecap="round"
       stroke-linejoin="round"
       stroke-width="3"
       id="path13" />
    <path
       d="m 407.48,145.65 c 1.25468,0.41823 4.25468,1.41823 4.5,1.5"
       fill="none"
       stroke="#ffffff"
       stroke-linecap="round"
       stroke-linejoin="round"
       stroke-width="3"
       id="path14" />
    <path
       d="m 393.98,147.15 c 1.25468,-0.41823 4.25468,-1.41823 4.5,-1.5"
       fill="none"
       stroke="#ffffff"
       stroke-linecap="round"
       stroke-linejoin="round"
       stroke-width="3"
       id="path15" />
    <path
       d="m 402.98,156.15 c 3,-3 6,-6 9,-9"
       fill="none"
       stroke="#ffffff"
       stroke-linecap="round"
       stroke-linejoin="round"
       stroke-width="3"
       id="path16" />
    <path
       d="m 402.98,156.15 c -3,-3 -6,-6 -9,-9"
       fill="none"
       stroke="#ffffff"
       stroke-linecap="round"
       stroke-linejoin="round"
       stroke-width="3"
       id="path17" />
    <path
       d="m 432.11,110.15 c 83.57667,0 167.15333,0 250.73,0 15.12298,18.50766 7.53545,52.92074 5.7575,77.15125 -52.17371,6.60096 -107.20892,1.00451 -160.4962,2.85875 -31.9971,0 -63.9942,0 -95.9913,0 0,-26.67 0,-53.34 0,-80.01 z"
       fill="#ffffff"
       id="path18" />
  </g>
  <g
     id="g29"
     transform="translate(-46.04043,-36.961228)">
    <path
       d="m 366.98,590.91 c 9.07736,-14.43637 60.15368,-15.97825 65.12,-1.82468 0,24.02156 0,48.04312 0,72.06468 -21.38574,-5.21687 -65.19999,14.2983 -65.12,-18.66532 0,-17.19156 0,-34.38312 0,-51.57468 z"
       fill="#92a9ef"
       id="path19" />
    <path
       d="m 384.98,627.6 c 35.57029,3.393 8.23938,21.40669 0,0 z"
       fill="none"
       stroke="#ffffff"
       stroke-linecap="round"
       stroke-linejoin="round"
       stroke-width="3"
       id="path20" />
    <path
       d="m 402.98,632.85 c 40.61364,-19.7904 2.929,18.39753 0,0 z"
       fill="none"
       stroke="#ffffff"
       stroke-linecap="round"
       stroke-linejoin="round"
       stroke-width="3"
       id="path21" />
    <path
       d="m 384.98,627.15 c 4.5,-1.25 9,-2.5 13.5,-3.75 m 9,0 c 4.5,1.25 9,2.5 13.5,3.75"
       fill="none"
       stroke="#ffffff"
       stroke-linecap="round"
       stroke-linejoin="round"
       stroke-width="3"
       id="path22" />
    <path
       d="m 407.48,603.15 c 0,4.5 0,9 0,13.5"
       fill="none"
       stroke="#ffffff"
       stroke-linecap="round"
       stroke-linejoin="round"
       stroke-width="3"
       id="path23" />
    <path
       d="m 398.48,603.15 c 0,4.5 0,9 0,13.5"
       fill="none"
       stroke="#ffffff"
       stroke-linecap="round"
       stroke-linejoin="round"
       stroke-width="3"
       id="path24" />
    <path
       d="m 407.48,616.65 c 1.25468,0.41823 4.25468,1.41823 4.5,1.5"
       fill="none"
       stroke="#ffffff"
       stroke-linecap="round"
       stroke-linejoin="round"
       stroke-width="3"
       id="path25" />
    <path
       d="m 393.98,618.15 c 1.25468,-0.41823 4.25468,-1.41823 4.5,-1.5"
       fill="none"
       stroke="#ffffff"
       stroke-linecap="round"
       stroke-linejoin="round"
       stroke-width="3"
       id="path26" />
    <path
       d="m 402.98,627.15 c 3,-3 6,-6 9,-9"
       fill="none"
       stroke="#ffffff"
       stroke-linecap="round"
       stroke-linejoin="round"
       stroke-width="3"
       id="path27" />
    <path
       d="m 402.98,627.15 c -3,-3 -6,-6 -9,-9"
       fill="none"
       stroke="#ffffff"
       stroke-linecap="round"
       stroke-linejoin="round"
       stroke-width="3"
       id="path28" />
    <path
       d="m 432.11,581.15 c 83.57667,0 167.15333,0 250.73,0 15.12298,18.50766 7.53545,52.92074 5.7575,77.15125 -52.17371,6.60096 -107.20892,1.00451 -160.4962,2.85875 -31.9971,0 -63.9942,0 -95.9913,0 0,-26.67 0,-53.34 0,-80.01 z"
       fill="#ffffff"
       id="path29" />
  </g>
  <g
     id="g40"
     transform="translate(-46.04043,-36.961228)">
    <path
       d="m 1523.98,177.91 c 9.0821,-14.43912 60.1584,-15.97485 65.13,-1.82468 0,24.02156 0,48.04312 0,72.06468 -21.3888,-5.2169 -65.2037,14.29817 -65.13,-18.66532 0,-17.19156 0,-34.38312 0,-51.57468 z"
       fill="#92a9ef"
       id="path30" />
    <path
       d="m 1538.98,214.6 c 35.5703,3.393 8.2394,21.40669 0,0 z"
       fill="none"
       stroke="#ffffff"
       stroke-linecap="round"
       stroke-linejoin="round"
       stroke-width="3"
       id="path31" />
    <path
       d="m 1556.98,219.85 c 40.6136,-19.7904 2.929,18.39753 0,0 z"
       fill="none"
       stroke="#ffffff"
       stroke-linecap="round"
       stroke-linejoin="round"
       stroke-width="3"
       id="path32" />
    <path
       d="m 1538.98,214.15 c 4.5,-1.25 9,-2.5 13.5,-3.75 m 9,0 c 4.5,1.25 9,2.5 13.5,3.75"
       fill="none"
       stroke="#ffffff"
       stroke-linecap="round"
       stroke-linejoin="round"
       stroke-width="3"
       id="path33" />
    <path
       d="m 1552.48,214.15 c 0,-4.5 0,-9 0,-13.5"
       fill="none"
       stroke="#ffffff"
       stroke-linecap="round"
       stroke-linejoin="round"
       stroke-width="3"
       id="path34" />
    <path
       d="m 1561.48,214.15 c 0,-4.5 0,-9 0,-13.5"
       fill="none"
       stroke="#ffffff"
       stroke-linecap="round"
       stroke-linejoin="round"
       stroke-width="3"
       id="path35" />
    <path
       d="m 1552.48,200.65 c -1.2547,-0.41823 -4.2547,-1.41823 -4.5,-1.5"
       fill="none"
       stroke="#ffffff"
       stroke-linecap="round"
       stroke-linejoin="round"
       stroke-width="3"
       id="path36" />
    <path
       d="m 1565.98,199.15 c -1.2547,0.41823 -4.2547,1.41823 -4.5,1.5"
       fill="none"
       stroke="#ffffff"
       stroke-linecap="round"
       stroke-linejoin="round"
       stroke-width="3"
       id="path37" />
    <path
       d="m 1556.98,190.15 c -3,3 -6,6 -9,9"
       fill="none"
       stroke="#ffffff"
       stroke-linecap="round"
       stroke-linejoin="round"
       stroke-width="3"
       id="path38" />
    <path
       d="m 1556.98,190.15 c 3,3 6,6 9,9"
       fill="none"
       stroke="#ffffff"
       stroke-linecap="round"
       stroke-linejoin="round"
       stroke-width="3"
       id="path39" />
    <path
       d="m 1589.11,168.15 c 83.5767,0 167.1533,0 250.73,0 15.123,18.50766 7.5354,52.92074 5.7575,77.15125 -52.1737,6.60096 -107.2089,1.00451 -160.4962,2.85875 -31.9971,0 -63.9942,0 -95.9913,0 0,-26.67 0,-53.34 0,-80.01 z"
       fill="#ffffff"
       id="path40" />
  </g>
  <g
     id="g59"
     transform="translate(-46.04043,-36.961228)">
    <path
       d="m 944.98,119.91 c 9.08208,-14.43912 60.1584,-15.97485 65.13,-1.82468 0,24.02156 0,48.04312 0,72.06468 -21.38881,-5.2169 -65.20373,14.29817 -65.13,-18.66532 0,-17.19156 0,-34.38312 0,-51.57468 z"
       fill="#92a9ef"
       id="path41" />
    <path
       d="m 986.98,137.15 c -32.31281,-12.9212 -32.62927,43.00735 0,30 9.06162,-2.48255 9.29452,-27.4 0,-30 z"
       fill="none"
       stroke="#ffffff"
       stroke-linecap="round"
       stroke-linejoin="round"
       stroke-width="3"
       id="path42" />
    <path
       d="m 983.98,143.15 c -37.52047,-4.23526 6.78669,41.08225 3,3 z"
       fill="none"
       stroke="#ffffff"
       stroke-linecap="round"
       stroke-linejoin="round"
       stroke-width="3"
       id="path43" />
    <path
       d="m 970.48,137.15 c 0,-1.32255 0,-5.32255 0,-6"
       fill="none"
       stroke="#ffffff"
       stroke-linecap="round"
       stroke-linejoin="round"
       stroke-width="3"
       id="path44" />
    <path
       d="m 970.48,173.15 c 0,-1.32255 0,-5.32255 0,-6"
       fill="none"
       stroke="#ffffff"
       stroke-linecap="round"
       stroke-linejoin="round"
       stroke-width="3"
       id="path45" />
    <path
       d="m 977.98,137.15 c 0,-1.32255 0,-5.32255 0,-6"
       fill="none"
       stroke="#ffffff"
       stroke-linecap="round"
       stroke-linejoin="round"
       stroke-width="3"
       id="path46" />
    <path
       d="m 977.98,173.15 c 0,-1.32255 0,-5.32255 0,-6"
       fill="none"
       stroke="#ffffff"
       stroke-linecap="round"
       stroke-linejoin="round"
       stroke-width="3"
       id="path47" />
    <path
       d="m 985.48,137.15 c 0,-1.32255 0,-5.32255 0,-6"
       fill="none"
       stroke="#ffffff"
       stroke-linecap="round"
       stroke-linejoin="round"
       stroke-width="3"
       id="path48" />
    <path
       d="m 985.48,173.15 c 0,-1.32255 0,-5.32255 0,-6"
       fill="none"
       stroke="#ffffff"
       stroke-linecap="round"
       stroke-linejoin="round"
       stroke-width="3"
       id="path49" />
    <path
       d="m 992.98,159.65 c 1.32255,0 5.32255,0 6,0"
       fill="none"
       stroke="#ffffff"
       stroke-linecap="round"
       stroke-linejoin="round"
       stroke-width="3"
       id="path50" />
    <path
       d="m 956.98,159.65 c 1.32255,0 5.32255,0 6,0"
       fill="none"
       stroke="#ffffff"
       stroke-linecap="round"
       stroke-linejoin="round"
       stroke-width="3"
       id="path51" />
    <path
       d="m 992.98,152.15 c 1.32255,0 5.32255,0 6,0"
       fill="none"
       stroke="#ffffff"
       stroke-linecap="round"
       stroke-linejoin="round"
       stroke-width="3"
       id="path52" />
    <path
       d="m 982.48,152.15 h 3.5"
       fill="none"
       stroke="#ffffff"
       stroke-linecap="round"
       stroke-linejoin="round"
       stroke-width="3"
       id="path53" />
    <path
       d="m 970.48,149.15 h 3.5"
       fill="none"
       stroke="#ffffff"
       stroke-linecap="round"
       stroke-linejoin="round"
       stroke-width="3"
       id="path54" />
    <path
       d="m 976.48,160.15 v -3.5"
       fill="none"
       stroke="#ffffff"
       stroke-linecap="round"
       stroke-linejoin="round"
       stroke-width="3"
       id="path55" />
    <path
       d="m 956.98,152.15 c 1.32255,0 5.32255,0 6,0"
       fill="none"
       stroke="#ffffff"
       stroke-linecap="round"
       stroke-linejoin="round"
       stroke-width="3"
       id="path56" />
    <path
       d="m 992.98,144.65 c 1.32255,0 5.32255,0 6,0"
       fill="none"
       stroke="#ffffff"
       stroke-linecap="round"
       stroke-linejoin="round"
       stroke-width="3"
       id="path57" />
    <path
       d="m 956.98,144.65 c 1.32255,0 5.32255,0 6,0"
       fill="none"
       stroke="#ffffff"
       stroke-linecap="round"
       stroke-linejoin="round"
       stroke-width="3"
       id="path58" />
    <path
       d="m 1010.11,110.15 c 83.5767,0 167.1533,0 250.73,0 15.123,18.50766 7.5354,52.92074 5.7575,77.15125 -52.1737,6.60096 -107.2089,1.00451 -160.4962,2.85875 -31.9971,0 -63.9942,0 -95.9913,0 0,-26.67 0,-53.34 0,-80.01 z"
       fill="#ffffff"
       id="path59" />
  </g>
  <g
     id="g78"
     transform="translate(-46.04043,-36.961228)">
    <path
       d="m 944.98,520.91 c 9.08208,-14.43912 60.1584,-15.97485 65.13,-1.82468 0,24.02156 0,48.04312 0,72.06468 -21.38881,-5.2169 -65.20373,14.29817 -65.13,-18.66532 0,-17.19156 0,-34.38312 0,-51.57468 z"
       fill="#92a9ef"
       id="path60" />
    <path
       d="m 986.98,538.15 c -32.31281,-12.9212 -32.62927,43.00735 0,30 9.06162,-2.48255 9.29452,-27.4 0,-30 z"
       fill="none"
       stroke="#ffffff"
       stroke-linecap="round"
       stroke-linejoin="round"
       stroke-width="3"
       id="path61" />
    <path
       d="m 983.98,544.15 c -37.52047,-4.23526 6.78669,41.08225 3,3 z"
       fill="none"
       stroke="#ffffff"
       stroke-linecap="round"
       stroke-linejoin="round"
       stroke-width="3"
       id="path62" />
    <path
       d="m 970.48,538.15 c 0,-1.32255 0,-5.32255 0,-6"
       fill="none"
       stroke="#ffffff"
       stroke-linecap="round"
       stroke-linejoin="round"
       stroke-width="3"
       id="path63" />
    <path
       d="m 970.48,574.15 c 0,-1.32255 0,-5.32255 0,-6"
       fill="none"
       stroke="#ffffff"
       stroke-linecap="round"
       stroke-linejoin="round"
       stroke-width="3"
       id="path64" />
    <path
       d="m 977.98,538.15 c 0,-1.32255 0,-5.32255 0,-6"
       fill="none"
       stroke="#ffffff"
       stroke-linecap="round"
       stroke-linejoin="round"
       stroke-width="3"
       id="path65" />
    <path
       d="m 977.98,574.15 c 0,-1.32255 0,-5.32255 0,-6"
       fill="none"
       stroke="#ffffff"
       stroke-linecap="round"
       stroke-linejoin="round"
       stroke-width="3"
       id="path66" />
    <path
       d="m 985.48,538.15 c 0,-1.32255 0,-5.32255 0,-6"
       fill="none"
       stroke="#ffffff"
       stroke-linecap="round"
       stroke-linejoin="round"
       stroke-width="3"
       id="path67" />
    <path
       d="m 985.48,574.15 c 0,-1.32255 0,-5.32255 0,-6"
       fill="none"
       stroke="#ffffff"
       stroke-linecap="round"
       stroke-linejoin="round"
       stroke-width="3"
       id="path68" />
    <path
       d="m 992.98,560.65 c 1.32255,0 5.32255,0 6,0"
       fill="none"
       stroke="#ffffff"
       stroke-linecap="round"
       stroke-linejoin="round"
       stroke-width="3"
       id="path69" />
    <path
       d="m 956.98,560.65 c 1.32255,0 5.32255,0 6,0"
       fill="none"
       stroke="#ffffff"
       stroke-linecap="round"
       stroke-linejoin="round"
       stroke-width="3"
       id="path70" />
    <path
       d="m 992.98,553.15 c 1.32255,0 5.32255,0 6,0"
       fill="none"
       stroke="#ffffff"
       stroke-linecap="round"
       stroke-linejoin="round"
       stroke-width="3"
       id="path71" />
    <path
       d="m 982.48,553.15 h 3.5"
       fill="none"
       stroke="#ffffff"
       stroke-linecap="round"
       stroke-linejoin="round"
       stroke-width="3"
       id="path72" />
    <path
       d="m 970.48,550.15 h 3.5"
       fill="none"
       stroke="#ffffff"
       stroke-linecap="round"
       stroke-linejoin="round"
       stroke-width="3"
       id="path73" />
    <path
       d="m 976.48,561.15 v -3.5"
       fill="none"
       stroke="#ffffff"
       stroke-linecap="round"
       stroke-linejoin="round"
       stroke-width="3"
       id="path74" />
    <path
       d="m 956.98,553.15 c 1.32255,0 5.32255,0 6,0"
       fill="none"
       stroke="#ffffff"
       stroke-linecap="round"
       stroke-linejoin="round"
       stroke-width="3"
       id="path75" />
    <path
       d="m 992.98,545.65 c 1.32255,0 5.32255,0 6,0"
       fill="none"
       stroke="#ffffff"
       stroke-linecap="round"
       stroke-linejoin="round"
       stroke-width="3"
       id="path76" />
    <path
       d="m 956.98,545.65 c 1.32255,0 5.32255,0 6,0"
       fill="none"
       stroke="#ffffff"
       stroke-linecap="round"
       stroke-linejoin="round"
       stroke-width="3"
       id="path77" />
    <path
       d="m 1010.11,511.15 c 83.5767,0 167.1533,0 250.73,0 15.123,18.50766 7.5354,52.92074 5.7575,77.15125 -52.1737,6.60096 -107.2089,1.00451 -160.4962,2.85875 -31.9971,0 -63.9942,0 -95.9913,0 0,-26.67 0,-53.34 0,-80.01 z"
       fill="#ffffff"
       id="path78" />
  </g>
  <g
     id="g89"
     transform="translate(-46.04043,-36.961228)">
    <path
       d="m 1523.98,520.91 c 9.0821,-14.43912 60.1584,-15.97485 65.13,-1.82468 0,24.02156 0,48.04312 0,72.06468 -21.3888,-5.2169 -65.2037,14.29817 -65.13,-18.66532 0,-17.19156 0,-34.38312 0,-51.57468 z"
       fill="#92a9ef"
       id="path79" />
    <path
       d="m 1538.98,557.6 c 35.5703,3.393 8.2394,21.40669 0,0 z"
       fill="none"
       stroke="#ffffff"
       stroke-linecap="round"
       stroke-linejoin="round"
       stroke-width="3"
       id="path80" />
    <path
       d="m 1556.98,562.85 c 40.6136,-19.7904 2.929,18.39753 0,0 z"
       fill="none"
       stroke="#ffffff"
       stroke-linecap="round"
       stroke-linejoin="round"
       stroke-width="3"
       id="path81" />
    <path
       d="m 1538.98,557.15 c 4.5,-1.25 9,-2.5 13.5,-3.75 m 9,0 c 4.5,1.25 9,2.5 13.5,3.75"
       fill="none"
       stroke="#ffffff"
       stroke-linecap="round"
       stroke-linejoin="round"
       stroke-width="3"
       id="path82" />
    <path
       d="m 1552.48,557.15 c 0,-4.5 0,-9 0,-13.5"
       fill="none"
       stroke="#ffffff"
       stroke-linecap="round"
       stroke-linejoin="round"
       stroke-width="3"
       id="path83" />
    <path
       d="m 1561.48,557.15 c 0,-4.5 0,-9 0,-13.5"
       fill="none"
       stroke="#ffffff"
       stroke-linecap="round"
       stroke-linejoin="round"
       stroke-width="3"
       id="path84" />
    <path
       d="m 1552.48,543.65 c -1.2547,-0.41823 -4.2547,-1.41823 -4.5,-1.5"
       fill="none"
       stroke="#ffffff"
       stroke-linecap="round"
       stroke-linejoin="round"
       stroke-width="3"
       id="path85" />
    <path
       d="m 1565.98,542.15 c -1.2547,0.41823 -4.2547,1.41823 -4.5,1.5"
       fill="none"
       stroke="#ffffff"
       stroke-linecap="round"
       stroke-linejoin="round"
       stroke-width="3"
       id="path86" />
    <path
       d="m 1556.98,533.15 c -3,3 -6,6 -9,9"
       fill="none"
       stroke="#ffffff"
       stroke-linecap="round"
       stroke-linejoin="round"
       stroke-width="3"
       id="path87" />
    <path
       d="m 1556.98,533.15 c 3,3 6,6 9,9"
       fill="none"
       stroke="#ffffff"
       stroke-linecap="round"
       stroke-linejoin="round"
       stroke-width="3"
       id="path88" />
    <path
       d="m 1589.11,511.15 c 83.5767,0 167.1533,0 250.73,0 15.123,18.50766 7.5354,52.92074 5.7575,77.15125 -52.1737,6.60096 -107.2089,1.00451 -160.4962,2.85875 -31.9971,0 -63.9942,0 -95.9913,0 0,-26.67 0,-53.34 0,-80.01 z"
       fill="#ffffff"
       id="path89" />
  </g>
  <path
     d="m 888.48957,115.88877 c -12.2613,-36.587238 -11.57111,23.5275 -4.43952,4.91258 l 2.66025,-2.94371 z m -232.55,0.5 c 77.15667,0 154.31333,0 231.47,0 -17.04732,-7.88863 -48.72575,-1.14615 -71.41786,-3.39 -53.35072,0 -106.70143,0 -160.05214,0 z"
     fill="#7d88a1"
     id="path90" />
  <path
     d="m 894.87957,501.04877 c -7.11555,-41.63732 -9.69333,2.04612 -10.13795,7.81722 3.37931,-2.60574 6.75863,-5.21148 10.13795,-7.81722 z m -247.14,-56.44 c 81.95333,18.92 163.90667,37.84 245.86,56.76 -11.334,-12.80943 -45.20204,-11.51339 -64.81153,-19.14268 -60.04616,-13.86244 -120.09231,-27.72488 -180.13847,-41.58732 l -0.89572,3.86523 -0.0243,0.10477 z"
     fill="#7d88a1"
     id="path91" />
  <path
     d="m 891.39957,522.19877 c -28.57542,-23.13093 -0.68177,4.24819 -5.89,14.93 1.95941,-4.97574 3.95512,-9.95939 5.89,-14.93 z m -238.28,87.31 c 78.53,-28.58333 157.06,-57.16667 235.59,-85.75 -13.92642,-4.22195 -44.48275,14.78503 -64.67226,19.51986 -57.40258,20.89338 -114.80516,41.78676 -172.20774,62.68014 l 1.29,3.54 z"
     fill="#7d88a1"
     id="path92" />
  <path
     d="m 1471.7296,34.948772 c -25.2936,-31.2444621 -7.5757,4.951068 -5.4046,10.811713 1.7999,-3.604278 3.6118,-7.205755 5.4046,-10.811713 z m -244.99,66.219998 c 81.33,-21.793328 162.66,-43.586665 243.99,-65.379998 -18.0176,-4.217902 -47.498,11.387288 -69.9541,14.845115 -58.3353,15.631625 -116.6706,31.263255 -175.0059,46.894885 z"
     fill="#7d88a1"
     id="path93" />
  <path
     d="m 1466.4896,516.88877 c -12.2613,-36.58724 -11.5711,23.5275 -4.4395,4.91258 l 2.6602,-2.94371 z m -232.55,0.5 c 77.1567,0 154.3133,0 231.47,0 -17.0473,-7.88863 -48.7258,-1.14615 -71.4179,-3.39 -53.3507,0 -106.7014,0 -160.0521,0 z"
     fill="#7d88a1"
     id="path94" />
  <g
     id="g102"
     transform="translate(-46.04043,-36.961228)">
    <path
       d="m 1523.98,57.91 c 9.0821,-14.439121 60.1584,-15.974851 65.13,-1.824682 0,24.021561 0,48.043122 0,72.064682 -21.3888,-5.2169 -65.2037,14.29817 -65.13,-18.66532 0,-17.191559 0,-34.383119 0,-51.57468 z"
       fill="#92a9ef"
       id="path95" />
    <path
       d="m 1556.48,103.65 c 57.8209,-37.034996 -56.5426,-37.351937 0,0 z"
       fill="none"
       stroke="#ffffff"
       stroke-linecap="round"
       stroke-linejoin="round"
       stroke-width="3"
       id="path96" />
    <path
       d="m 1556.48,94.65 c 24.1958,-16.163339 -23.3722,-14.140257 0,0 z"
       fill="none"
       stroke="#ffffff"
       stroke-linecap="round"
       stroke-linejoin="round"
       stroke-width="3"
       id="path97" />
    <path
       d="m 1571.48,88.65 c 1.3226,0 5.3226,0 6,0"
       fill="none"
       stroke="#ffffff"
       stroke-linecap="round"
       stroke-linejoin="round"
       stroke-width="3"
       id="path98" />
    <path
       d="m 1536.98,88.65 c 1.3226,0 4.3226,0 4.5,0"
       fill="none"
       stroke="#ffffff"
       stroke-linecap="round"
       stroke-linejoin="round"
       stroke-width="3"
       id="path99" />
    <path
       d="m 1569.98,79.65 c 1.1829,-0.591464 5.1829,-2.591464 6,-3"
       fill="none"
       stroke="#ffffff"
       stroke-linecap="round"
       stroke-linejoin="round"
       stroke-width="3"
       id="path100" />
    <path
       d="m 1569.98,97.65 c 1.1215,0.700952 5.1215,3.20095 6,3.75"
       fill="none"
       stroke="#ffffff"
       stroke-linecap="round"
       stroke-linejoin="round"
       stroke-width="3"
       id="path101" />
    <path
       d="m 1589.11,48.15 c 83.5767,0 167.1533,0 250.73,0 15.123,18.50766 7.5354,52.92074 5.7575,77.15125 -52.1737,6.60096 -107.2089,1.00451 -160.4962,2.85875 -31.9971,0 -63.9942,0 -95.9913,0 0,-26.67 0,-53.34 0,-80.01 z"
       fill="#ffffff"
       id="path102" />
  </g>
  <path
     d="m 655.93957,514.34877 c -1.179,-33.17241 2.32718,-67.68724 -1.695,-100.045 -112.53509,-2.62353 -225.72709,-0.3761 -338.515,-1.125 -13.18021,16.63866 -2.17355,48.66094 -5.79,71.2902 -10.12659,33.19712 14.10906,38.43605 41.49893,33.7198 100.88382,-0.75713 202.17545,1.50961 302.80607,-1.125 z"
     fill="#edf2df"
     id="path103" />
  <g
     id="g107"
     transform="translate(-46.04043,-36.961228)">
    <path
       d="m 367.48,470.91 c 9.09788,-13.58855 59.56936,-15.66491 64.12,-1.32468 -2.62642,22.38435 5.26767,55.28922 -3.96766,71.06468 -21.08846,-4.05622 -65.34414,13.52496 -60.15234,-22.13298 0,-15.869 0,-31.73801 0,-47.60702 z"
       fill="#92a9ef"
       stroke="#ffffff"
       id="path104" />
    <path
       d="m 398.48,515.65 c 57.82092,-37.035 -56.54258,-37.35194 0,0 z"
       fill="none"
       stroke="#ffffff"
       stroke-linecap="round"
       stroke-linejoin="round"
       stroke-width="3"
       id="path105" />
    <path
       d="m 398.48,506.65 c 24.19582,-16.16334 -23.37218,-14.14026 0,0 z"
       fill="none"
       stroke="#ffffff"
       stroke-linecap="round"
       stroke-linejoin="round"
       stroke-width="3"
       id="path106" />
    <path
       d="m 432.61,461.65 c 83.41,0 166.82,0 250.23,0 14.32568,18.63934 7.02634,52.33694 5.3725,76.33 -56.08646,6.20627 -114.87832,0.92836 -172.01418,2.68 -27.86277,0 -55.72555,0 -83.58832,0 0,-26.33667 0,-52.67333 0,-79.01 z"
       fill="#ffffff"
       stroke="#ffffff"
       id="path107" />
  </g>
  <path
     d="m 1475.9996,175.23877 c -7.1156,-41.63732 -9.6933,2.04612 -10.138,7.81722 3.3794,-2.60574 6.7587,-5.21148 10.138,-7.81722 z m -247.14,-56.45 c 81.9533,18.92 163.9067,37.84 245.86,56.76 -11.334,-12.80943 -45.202,-11.51339 -64.8115,-19.14268 -60.0462,-13.86244 -120.0923,-27.72488 -180.1385,-41.58732 l -0.8865,3.86736 z"
     fill="#7d88a1"
     id="path108" />
  <path
     d="m 484.93957,413.18877 c 1.05426,-43.70925 -2.10668,-87.8395 1.57109,-131.28672 19.38902,-22.76214 55.0022,-7.97921 81.91145,-12.21328 429.00586,0 858.01169,0 1287.01749,0 33.9295,-9.19558 15.1121,-53.27016 20,-79.51489 -1.0444,-43.87194 2.093,-88.16154 -1.5711,-131.771827 -11.6078,-20.769684 -41.6219,-9.162442 -60.9289,-12.213281"
     fill="none"
     stroke="#a9c265"
     stroke-width="6"
     id="path109" />
  <text
     fill="#8fa5ed"
     font-family="Arial-BoldMT, Arial"
     font-size="38px"
     font-weight="700"
     id="text110"
     x="6.0695705"
     y="127.94877"><tspan
       x="6.0695705"
       y="127.94877"
       letter-spacing="-0.06em"
       id="tspan109">T</tspan><tspan
       x="27.189571"
       y="127.94877"
       id="tspan110">races Pipeline:</tspan></text>
  <text
     fill="#7d88a1"
     font-family="ArialMT, Arial"
     font-size="36px"
     id="text111"
     x="408.25958"
     y="123.90878"><tspan
       x="408.25958"
       y="123.90878"
       id="tspan111">Receiver</tspan></text>
  <text
     fill="#7d88a1"
     font-family="ArialMT, Arial"
     font-size="36px"
     id="text112"
     x="409.78958"
     y="476.59879"><tspan
       x="409.78958"
       y="476.59879"
       id="tspan112">Connector</tspan></text>
  <text
     fill="#7d88a1"
     font-family="ArialMT, Arial"
     font-size="36px"
     id="text113"
     x="407.78958"
     y="596.2688"><tspan
       x="407.78958"
       y="596.2688"
       id="tspan113">Receiver</tspan></text>
  <text
     fill="#7d88a1"
     font-family="ArialMT, Arial"
     font-size="36px"
     id="text114"
     x="1563.1295"
     y="182.59877"><tspan
       x="1563.1295"
       y="182.59877"
       id="tspan114">Exporter</tspan></text>
  <text
     fill="#7d88a1"
     font-family="ArialMT, Arial"
     font-size="36px"
     id="text115"
     x="1563.1295"
     y="525.18878"><tspan
       x="1563.1295"
       y="525.18878"
       id="tspan115">Exporter</tspan></text>
  <text
     fill="#7d88a1"
     font-family="ArialMT, Arial"
     font-size="36px"
     id="text116"
     x="1564.3895"
     y="61.728771"><tspan
       x="1564.3895"
       y="61.728771"
       id="tspan116">Connector</tspan></text>
  <text
     fill="#7d88a1"
     font-family="ArialMT, Arial"
     font-size="36px"
     id="text117"
     x="988.19958"
     y="123.13877"><tspan
       x="988.19958"
       y="123.13877"
       id="tspan117">Processor</tspan></text>
  <text
     fill="#7d88a1"
     font-family="ArialMT, Arial"
     font-size="36px"
     id="text118"
     x="986.25958"
     y="524.80878"><tspan
       x="986.25958"
       y="524.80878"
       id="tspan118">Processor</tspan></text>
  <text
     fill="#8fa5ed"
     font-family="Arial-BoldMT, Arial"
     font-size="38px"
     font-weight="700"
     id="text119"
     x="-2.6904297"
     y="528.79877"><tspan
       x="-2.6904297"
       y="528.79877"
       id="tspan119">Metrics Pipeline:</tspan></text>
  <path
     d="m 540.80957,385.88877 c -4.86831,-28.76514 1.90128,-66.86819 39.8783,-56.81 346.92723,0 693.85453,0 1040.78173,0 33.9793,9.158 15.1532,53.26452 20.04,79.51489 0,10.29837 0,20.59674 0,30.89511"
     fill="none"
     stroke="#ffb000"
     stroke-width="6"
     id="path119" />
  <path
     d="m 1654.6296,423.15877 c -16.3808,19.85188 -45.8194,-9.01805 -10.98,19.54 2.3981,-4.65057 24.8455,-18.55564 10.98,-19.54 z"
     fill="#ffb000"
     id="path120" />
  <path
     d="m 553.92957,372.76877 c -16.38084,19.85188 -45.81941,-9.01805 -10.98,19.54 2.39813,-4.65057 24.84546,-18.55564 10.98,-19.54 z"
     fill="#ffb000"
     id="path121" />
  <rect
     x="945.99957"
     y="301.29877"
     width="311.04001"
     height="68.480003"
     fill="#ffebc7"
     stroke="#ffb000"
     stroke-width="6"
     id="rect121" />
  <text
     fill="#bc7d00"
     font-family="ArialMT, Arial"
     font-size="36px"
     id="text121"
     x="970.47955"
     y="345.14877"><tspan
       x="970.47955"
       y="345.14877"
       id="tspan121">Processing loop</tspan></text>
</svg>
