<svg width="984" height="698" viewBox="0 0 984 698" fill="none" xmlns="http://www.w3.org/2000/svg">
<rect width="984" height="698" fill="white"/>
<path d="M106.564 624.848H103.236V634H90.964V597.6H108.488C111.851 597.6 114.78 598.155 117.276 599.264C119.772 600.373 121.696 601.968 123.048 604.048C124.4 606.128 125.076 608.555 125.076 611.328C125.076 613.928 124.487 616.199 123.308 618.14C122.129 620.081 120.431 621.624 118.212 622.768L125.856 634H112.752L106.564 624.848ZM112.7 611.328C112.7 609.976 112.284 608.936 111.452 608.208C110.62 607.445 109.372 607.064 107.708 607.064H103.236V615.592H107.708C109.372 615.592 110.62 615.228 111.452 614.5C112.284 613.737 112.7 612.68 112.7 611.328ZM161.014 624.744V634H130.75V597.6H160.338V606.856H142.814V611.12H158.206V619.96H142.814V624.744H161.014ZM179.05 606.856V613.096H194.234V622.352H179.05V634H166.778V597.6H196.366V606.856H179.05ZM231.547 624.744V634H201.283V597.6H230.871V606.856H213.347V611.12H228.739V619.96H213.347V624.744H231.547ZM252.912 624.848H249.584V634H237.312V597.6H254.836C258.198 597.6 261.128 598.155 263.624 599.264C266.12 600.373 268.044 601.968 269.396 604.048C270.748 606.128 271.424 608.555 271.424 611.328C271.424 613.928 270.834 616.199 269.656 618.14C268.477 620.081 266.778 621.624 264.56 622.768L272.204 634H259.1L252.912 624.848ZM259.048 611.328C259.048 609.976 258.632 608.936 257.8 608.208C256.968 607.445 255.72 607.064 254.056 607.064H249.584V615.592H254.056C255.72 615.592 256.968 615.228 257.8 614.5C258.632 613.737 259.048 612.68 259.048 611.328ZM307.362 624.744V634H277.098V597.6H306.686V606.856H289.162V611.12H304.554V619.96H289.162V624.744H307.362ZM349.006 597.6V634H338.918L325.086 617.464V634H313.126V597.6H323.214L337.046 614.136V597.6H349.006ZM374.783 634.832C370.935 634.832 367.468 634.035 364.383 632.44C361.298 630.811 358.871 628.557 357.103 625.68C355.37 622.768 354.503 619.475 354.503 615.8C354.503 612.125 355.37 608.849 357.103 605.972C358.871 603.06 361.298 600.807 364.383 599.212C367.468 597.583 370.935 596.768 374.783 596.768C378.319 596.768 381.474 597.392 384.247 598.64C387.02 599.888 389.308 601.691 391.111 604.048L383.363 610.964C381.11 608.121 378.458 606.7 375.407 606.7C372.842 606.7 370.779 607.532 369.219 609.196C367.659 610.825 366.879 613.027 366.879 615.8C366.879 618.573 367.659 620.792 369.219 622.456C370.779 624.085 372.842 624.9 375.407 624.9C378.458 624.9 381.11 623.479 383.363 620.636L391.111 627.552C389.308 629.909 387.02 631.712 384.247 632.96C381.474 634.208 378.319 634.832 374.783 634.832ZM425.958 624.744V634H395.694V597.6H425.282V606.856H407.758V611.12H423.15V619.96H407.758V624.744H425.958ZM473.156 627.656H459.324L456.88 634H444.4L460.312 597.6H472.376L488.288 634H475.6L473.156 627.656ZM469.776 618.816L466.24 609.664L462.704 618.816H469.776ZM506.887 624.848H503.559V634H491.287V597.6H508.811C512.173 597.6 515.103 598.155 517.599 599.264C520.095 600.373 522.019 601.968 523.371 604.048C524.723 606.128 525.399 608.555 525.399 611.328C525.399 613.928 524.809 616.199 523.631 618.14C522.452 620.081 520.753 621.624 518.535 622.768L526.179 634H513.075L506.887 624.848ZM513.023 611.328C513.023 609.976 512.607 608.936 511.775 608.208C510.943 607.445 509.695 607.064 508.031 607.064H503.559V615.592H508.031C509.695 615.592 510.943 615.228 511.775 614.5C512.607 613.737 513.023 612.68 513.023 611.328ZM549.897 634.832C546.049 634.832 542.582 634.035 539.497 632.44C536.412 630.811 533.985 628.557 532.217 625.68C530.484 622.768 529.617 619.475 529.617 615.8C529.617 612.125 530.484 608.849 532.217 605.972C533.985 603.06 536.412 600.807 539.497 599.212C542.582 597.583 546.049 596.768 549.897 596.768C553.433 596.768 556.588 597.392 559.361 598.64C562.134 599.888 564.422 601.691 566.225 604.048L558.477 610.964C556.224 608.121 553.572 606.7 550.521 606.7C547.956 606.7 545.893 607.532 544.333 609.196C542.773 610.825 541.993 613.027 541.993 615.8C541.993 618.573 542.773 620.792 544.333 622.456C545.893 624.085 547.956 624.9 550.521 624.9C553.572 624.9 556.224 623.479 558.477 620.636L566.225 627.552C564.422 629.909 562.134 631.712 559.361 632.96C556.588 634.208 553.433 634.832 549.897 634.832ZM606.688 597.6V634H594.416V620.584H583.08V634H570.808V597.6H583.08V610.496H594.416V597.6H606.688ZM613.641 597.6H625.913V634H613.641V597.6ZM640.765 607.116H630.105V597.6H663.697V607.116H653.037V634H640.765V607.116ZM698.188 624.744V634H667.924V597.6H697.512V606.856H679.988V611.12H695.38V619.96H679.988V624.744H698.188ZM722.777 634.832C718.929 634.832 715.462 634.035 712.377 632.44C709.291 630.811 706.865 628.557 705.097 625.68C703.363 622.768 702.497 619.475 702.497 615.8C702.497 612.125 703.363 608.849 705.097 605.972C706.865 603.06 709.291 600.807 712.377 599.212C715.462 597.583 718.929 596.768 722.777 596.768C726.313 596.768 729.467 597.392 732.241 598.64C735.014 599.888 737.302 601.691 739.105 604.048L731.357 610.964C729.103 608.121 726.451 606.7 723.401 606.7C720.835 606.7 718.773 607.532 717.213 609.196C715.653 610.825 714.873 613.027 714.873 615.8C714.873 618.573 715.653 620.792 717.213 622.456C718.773 624.085 720.835 624.9 723.401 624.9C726.451 624.9 729.103 623.479 731.357 620.636L739.105 627.552C737.302 629.909 735.014 631.712 732.241 632.96C729.467 634.208 726.313 634.832 722.777 634.832ZM751.338 607.116H740.678V597.6H774.27V607.116H763.61V634H751.338V607.116ZM795.41 634.832C789.828 634.832 785.478 633.324 782.358 630.308C779.238 627.292 777.678 623.063 777.678 617.62V597.6H789.95V617.256C789.95 619.925 790.418 621.867 791.354 623.08C792.324 624.293 793.711 624.9 795.514 624.9C797.316 624.9 798.686 624.293 799.622 623.08C800.592 621.867 801.078 619.925 801.078 617.256V597.6H813.142V617.62C813.142 623.063 811.582 627.292 808.462 630.308C805.342 633.324 800.991 634.832 795.41 634.832ZM835.407 624.848H832.079V634H819.807V597.6H837.331C840.694 597.6 843.623 598.155 846.119 599.264C848.615 600.373 850.539 601.968 851.891 604.048C853.243 606.128 853.919 608.555 853.919 611.328C853.919 613.928 853.33 616.199 852.151 618.14C850.972 620.081 849.274 621.624 847.055 622.768L854.699 634H841.595L835.407 624.848ZM841.543 611.328C841.543 609.976 841.127 608.936 840.295 608.208C839.463 607.445 838.215 607.064 836.551 607.064H832.079V615.592H836.551C838.215 615.592 839.463 615.228 840.295 614.5C841.127 613.737 841.543 612.68 841.543 611.328ZM889.857 624.744V634H859.593V597.6H889.181V606.856H871.657V611.12H887.049V619.96H871.657V624.744H889.857Z" fill="black"/>
<rect x="112" y="95" width="167" height="403" rx="10" fill="#FFF2DA"/>
<rect x="704" y="95" width="167" height="403" rx="10" fill="#FFF2DA"/>
<rect opacity="0.2" x="112" y="95" width="759" height="403" rx="10" fill="#FFF2DA"/>
<g filter="url(#filter0_d)">
<rect x="130" y="283" width="132" height="132" rx="10" fill="url(#paint0_linear)"/>
</g>
<g filter="url(#filter1_d)">
<rect x="722" y="282" width="132" height="132" rx="10" fill="url(#paint1_linear)"/>
</g>
<g filter="url(#filter2_d)">
<rect x="520" y="215" width="132" height="132" rx="10" fill="url(#paint2_linear)"/>
</g>
<rect x="331" y="199" width="137" height="62" rx="8" stroke="#BCC6D4" stroke-width="2" stroke-linecap="round" stroke-linejoin="round" stroke-dasharray="4 6"/>
<rect x="331" y="317" width="137" height="62" rx="8" stroke="#BCC6D4" stroke-width="2" stroke-linecap="round" stroke-linejoin="round" stroke-dasharray="4 6"/>
<g filter="url(#filter3_i)">
<rect x="130" y="116" width="132" height="130" rx="7" fill="#F8E7C6"/>
</g>
<g filter="url(#filter4_i)">
<rect x="723" y="116" width="129" height="130" rx="7" fill="#F8E7C6"/>
</g>
<rect x="130" y="189" width="132" height="57" rx="7" fill="url(#paint3_linear)"/>
<rect x="722" y="189" width="129" height="57" rx="7" fill="url(#paint4_linear)"/>
<path d="M169.262 160H171.459L167.572 150.9H165.453L161.501 160H163.62L164.335 158.232H168.547L169.262 160ZM165.011 156.581L166.454 153.045L167.884 156.581H165.011ZM176.643 152.941C175.694 152.941 174.927 153.331 174.433 154.033V153.006H172.431V162.522H174.433V158.986C174.94 159.688 175.707 160.078 176.682 160.078C178.645 160.078 179.932 158.661 179.932 156.542C179.932 154.384 178.606 152.941 176.643 152.941ZM176.175 158.414C175.148 158.414 174.433 157.634 174.433 156.477C174.433 155.346 175.148 154.553 176.175 154.553C177.202 154.553 177.904 155.359 177.904 156.477C177.904 157.621 177.202 158.414 176.175 158.414ZM185.53 152.941C184.581 152.941 183.814 153.331 183.32 154.033V153.006H181.318V162.522H183.32V158.986C183.827 159.688 184.594 160.078 185.569 160.078C187.532 160.078 188.819 158.661 188.819 156.542C188.819 154.384 187.493 152.941 185.53 152.941ZM185.062 158.414C184.035 158.414 183.32 157.634 183.32 156.477C183.32 155.346 184.035 154.553 185.062 154.553C186.089 154.553 186.791 155.359 186.791 156.477C186.791 157.621 186.089 158.414 185.062 158.414ZM190.204 150.354V160H192.206V150.354H190.204ZM195.215 150.016C194.643 150.016 194.24 150.432 194.24 151.017C194.24 151.589 194.643 152.018 195.215 152.018C195.787 152.018 196.19 151.589 196.19 151.017C196.19 150.432 195.787 150.016 195.215 150.016ZM194.214 153.006V160H196.216V153.006H194.214ZM202.804 155.385L204.156 154.41C203.532 153.474 202.466 152.941 201.127 152.941C198.982 152.941 197.539 154.384 197.539 156.529C197.539 158.648 198.982 160.078 201.101 160.078C202.531 160.078 203.623 159.506 204.208 158.531L202.83 157.595C202.479 158.141 201.92 158.414 201.205 158.414C200.23 158.414 199.541 157.647 199.541 156.516C199.541 155.398 200.23 154.644 201.205 154.644C201.894 154.631 202.427 154.917 202.804 155.385ZM211.304 160L211.291 155.437C211.278 153.864 210.199 152.928 208.327 152.928C207.105 152.928 206.208 153.214 205.168 153.734L205.792 155.112C206.52 154.709 207.248 154.501 207.872 154.501C208.834 154.501 209.328 154.93 209.328 155.671V155.801H207.404C205.688 155.814 204.739 156.594 204.739 157.907C204.739 159.181 205.649 160.091 207.144 160.091C208.119 160.091 208.873 159.766 209.341 159.181V160H211.304ZM207.703 158.661C207.027 158.661 206.611 158.31 206.611 157.777C206.611 157.218 206.988 156.984 207.755 156.984H209.328V157.608C209.211 158.206 208.548 158.661 207.703 158.661ZM216.942 158.141C216.578 158.31 216.266 158.401 216.006 158.401C215.577 158.414 215.33 158.18 215.33 157.595V154.709H217.228V153.318H215.33V151.394H213.341V153.318H212.366V154.696H213.341V157.933C213.341 159.376 214.29 160.091 215.538 160.091C216.188 160.091 216.838 159.909 217.358 159.61L216.942 158.141ZM219.565 150.016C218.993 150.016 218.59 150.432 218.59 151.017C218.59 151.589 218.993 152.018 219.565 152.018C220.137 152.018 220.54 151.589 220.54 151.017C220.54 150.432 220.137 150.016 219.565 150.016ZM218.564 153.006V160H220.566V153.006H218.564ZM225.646 152.941C223.397 152.941 221.889 154.358 221.889 156.503C221.889 158.635 223.397 160.078 225.646 160.078C227.882 160.078 229.39 158.635 229.39 156.503C229.39 154.358 227.882 152.941 225.646 152.941ZM225.646 154.605C226.673 154.605 227.388 155.385 227.388 156.529C227.388 157.673 226.673 158.453 225.646 158.453C224.606 158.453 223.891 157.673 223.891 156.529C223.891 155.385 224.606 154.605 225.646 154.605ZM235.133 152.928C234.041 152.941 233.209 153.357 232.715 154.228V153.006H230.713V160H232.715V156.555C232.715 155.528 233.313 154.774 234.314 154.761C235.172 154.761 235.692 155.307 235.692 156.191V160H237.694V155.606C237.694 153.968 236.693 152.928 235.133 152.928Z" fill="#BB9956"/>
<path d="M757.262 160H759.459L755.572 150.9H753.453L749.501 160H751.62L752.335 158.232H756.547L757.262 160ZM753.011 156.581L754.454 153.045L755.884 156.581H753.011ZM764.643 152.941C763.694 152.941 762.927 153.331 762.433 154.033V153.006H760.431V162.522H762.433V158.986C762.94 159.688 763.707 160.078 764.682 160.078C766.645 160.078 767.932 158.661 767.932 156.542C767.932 154.384 766.606 152.941 764.643 152.941ZM764.175 158.414C763.148 158.414 762.433 157.634 762.433 156.477C762.433 155.346 763.148 154.553 764.175 154.553C765.202 154.553 765.904 155.359 765.904 156.477C765.904 157.621 765.202 158.414 764.175 158.414ZM773.53 152.941C772.581 152.941 771.814 153.331 771.32 154.033V153.006H769.318V162.522H771.32V158.986C771.827 159.688 772.594 160.078 773.569 160.078C775.532 160.078 776.819 158.661 776.819 156.542C776.819 154.384 775.493 152.941 773.53 152.941ZM773.062 158.414C772.035 158.414 771.32 157.634 771.32 156.477C771.32 155.346 772.035 154.553 773.062 154.553C774.089 154.553 774.791 155.359 774.791 156.477C774.791 157.621 774.089 158.414 773.062 158.414ZM778.204 150.354V160H780.206V150.354H778.204ZM783.215 150.016C782.643 150.016 782.24 150.432 782.24 151.017C782.24 151.589 782.643 152.018 783.215 152.018C783.787 152.018 784.19 151.589 784.19 151.017C784.19 150.432 783.787 150.016 783.215 150.016ZM782.214 153.006V160H784.216V153.006H782.214ZM790.804 155.385L792.156 154.41C791.532 153.474 790.466 152.941 789.127 152.941C786.982 152.941 785.539 154.384 785.539 156.529C785.539 158.648 786.982 160.078 789.101 160.078C790.531 160.078 791.623 159.506 792.208 158.531L790.83 157.595C790.479 158.141 789.92 158.414 789.205 158.414C788.23 158.414 787.541 157.647 787.541 156.516C787.541 155.398 788.23 154.644 789.205 154.644C789.894 154.631 790.427 154.917 790.804 155.385ZM799.304 160L799.291 155.437C799.278 153.864 798.199 152.928 796.327 152.928C795.105 152.928 794.208 153.214 793.168 153.734L793.792 155.112C794.52 154.709 795.248 154.501 795.872 154.501C796.834 154.501 797.328 154.93 797.328 155.671V155.801H795.404C793.688 155.814 792.739 156.594 792.739 157.907C792.739 159.181 793.649 160.091 795.144 160.091C796.119 160.091 796.873 159.766 797.341 159.181V160H799.304ZM795.703 158.661C795.027 158.661 794.611 158.31 794.611 157.777C794.611 157.218 794.988 156.984 795.755 156.984H797.328V157.608C797.211 158.206 796.548 158.661 795.703 158.661ZM804.942 158.141C804.578 158.31 804.266 158.401 804.006 158.401C803.577 158.414 803.33 158.18 803.33 157.595V154.709H805.228V153.318H803.33V151.394H801.341V153.318H800.366V154.696H801.341V157.933C801.341 159.376 802.29 160.091 803.538 160.091C804.188 160.091 804.838 159.909 805.358 159.61L804.942 158.141ZM807.565 150.016C806.993 150.016 806.59 150.432 806.59 151.017C806.59 151.589 806.993 152.018 807.565 152.018C808.137 152.018 808.54 151.589 808.54 151.017C808.54 150.432 808.137 150.016 807.565 150.016ZM806.564 153.006V160H808.566V153.006H806.564ZM813.646 152.941C811.397 152.941 809.889 154.358 809.889 156.503C809.889 158.635 811.397 160.078 813.646 160.078C815.882 160.078 817.39 158.635 817.39 156.503C817.39 154.358 815.882 152.941 813.646 152.941ZM813.646 154.605C814.673 154.605 815.388 155.385 815.388 156.529C815.388 157.673 814.673 158.453 813.646 158.453C812.606 158.453 811.891 157.673 811.891 156.529C811.891 155.385 812.606 154.605 813.646 154.605ZM823.133 152.928C822.041 152.941 821.209 153.357 820.715 154.228V153.006H818.713V160H820.715V156.555C820.715 155.528 821.313 154.774 822.314 154.761C823.172 154.761 823.692 155.307 823.692 156.191V160H825.694V155.606C825.694 153.968 824.693 152.928 823.133 152.928Z" fill="#BB9956"/>
<path d="M155.676 357.835C152.894 357.835 150.788 359.798 150.788 362.45C150.788 365.089 152.894 367.091 155.676 367.091C158.458 367.091 160.564 365.076 160.564 362.45C160.564 359.811 158.458 357.835 155.676 357.835ZM155.702 359.629C157.223 359.629 158.458 360.851 158.458 362.45C158.458 364.049 157.223 365.297 155.702 365.297C154.181 365.297 152.894 364.049 152.894 362.45C152.894 360.851 154.168 359.629 155.702 359.629ZM165.785 365.141C165.421 365.31 165.109 365.401 164.849 365.401C164.42 365.414 164.173 365.18 164.173 364.595V361.709H166.071V360.318H164.173V358.394H162.184V360.318H161.209V361.696H162.184V364.933C162.184 366.376 163.133 367.091 164.381 367.091C165.031 367.091 165.681 366.909 166.201 366.61L165.785 365.141ZM170.36 359.941C168.228 359.941 166.759 361.371 166.759 363.529C166.759 365.648 168.176 367.078 170.412 367.078C171.673 367.078 172.7 366.623 173.402 365.843L172.349 364.777C171.868 365.258 171.244 365.518 170.581 365.518C169.684 365.518 169.008 364.998 168.774 364.114H173.792C173.961 361.566 172.817 359.941 170.36 359.941ZM168.735 362.931C168.891 362.008 169.489 361.41 170.373 361.41C171.296 361.41 171.894 362.008 171.92 362.931H168.735ZM175.178 357.354V367H177.18V357.354H175.178ZM189.716 360.799L190.912 359.343C190.015 358.42 188.637 357.835 187.324 357.835C184.568 357.835 182.475 359.811 182.475 362.437C182.475 365.076 184.529 367.091 187.246 367.091C188.572 367.091 189.963 366.454 190.925 365.466L189.716 364.153C189.066 364.803 188.169 365.219 187.35 365.219C185.79 365.219 184.581 363.997 184.581 362.411C184.581 360.825 185.79 359.616 187.35 359.616C188.195 359.616 189.092 360.084 189.716 360.799ZM195.106 359.941C192.857 359.941 191.349 361.358 191.349 363.503C191.349 365.635 192.857 367.078 195.106 367.078C197.342 367.078 198.85 365.635 198.85 363.503C198.85 361.358 197.342 359.941 195.106 359.941ZM195.106 361.605C196.133 361.605 196.848 362.385 196.848 363.529C196.848 364.673 196.133 365.453 195.106 365.453C194.066 365.453 193.351 364.673 193.351 363.529C193.351 362.385 194.066 361.605 195.106 361.605ZM200.239 357.354V367H202.241V357.354H200.239ZM204.314 357.354V367H206.316V357.354H204.314ZM211.327 359.941C209.195 359.941 207.726 361.371 207.726 363.529C207.726 365.648 209.143 367.078 211.379 367.078C212.64 367.078 213.667 366.623 214.369 365.843L213.316 364.777C212.835 365.258 212.211 365.518 211.548 365.518C210.651 365.518 209.975 364.998 209.741 364.114H214.759C214.928 361.566 213.784 359.941 211.327 359.941ZM209.702 362.931C209.858 362.008 210.456 361.41 211.34 361.41C212.263 361.41 212.861 362.008 212.887 362.931H209.702ZM220.748 362.385L222.1 361.41C221.476 360.474 220.41 359.941 219.071 359.941C216.926 359.941 215.483 361.384 215.483 363.529C215.483 365.648 216.926 367.078 219.045 367.078C220.475 367.078 221.567 366.506 222.152 365.531L220.774 364.595C220.423 365.141 219.864 365.414 219.149 365.414C218.174 365.414 217.485 364.647 217.485 363.516C217.485 362.398 218.174 361.644 219.149 361.644C219.838 361.631 220.371 361.917 220.748 362.385ZM227.319 365.141C226.955 365.31 226.643 365.401 226.383 365.401C225.954 365.414 225.707 365.18 225.707 364.595V361.709H227.605V360.318H225.707V358.394H223.718V360.318H222.743V361.696H223.718V364.933C223.718 366.376 224.667 367.091 225.915 367.091C226.565 367.091 227.215 366.909 227.735 366.61L227.319 365.141ZM232.05 359.941C229.801 359.941 228.293 361.358 228.293 363.503C228.293 365.635 229.801 367.078 232.05 367.078C234.286 367.078 235.794 365.635 235.794 363.503C235.794 361.358 234.286 359.941 232.05 359.941ZM232.05 361.605C233.077 361.605 233.792 362.385 233.792 363.529C233.792 364.673 233.077 365.453 232.05 365.453C231.01 365.453 230.295 364.673 230.295 363.529C230.295 362.385 231.01 361.605 232.05 361.605ZM239.119 361.267V360.006H237.117V367H239.119V363.633C239.119 362.45 240.003 361.683 241.433 361.813V359.928C240.393 359.941 239.6 360.409 239.119 361.267Z" fill="white"/>
<path d="M747.676 357.835C744.894 357.835 742.788 359.798 742.788 362.45C742.788 365.089 744.894 367.091 747.676 367.091C750.458 367.091 752.564 365.076 752.564 362.45C752.564 359.811 750.458 357.835 747.676 357.835ZM747.702 359.629C749.223 359.629 750.458 360.851 750.458 362.45C750.458 364.049 749.223 365.297 747.702 365.297C746.181 365.297 744.894 364.049 744.894 362.45C744.894 360.851 746.168 359.629 747.702 359.629ZM757.785 365.141C757.421 365.31 757.109 365.401 756.849 365.401C756.42 365.414 756.173 365.18 756.173 364.595V361.709H758.071V360.318H756.173V358.394H754.184V360.318H753.209V361.696H754.184V364.933C754.184 366.376 755.133 367.091 756.381 367.091C757.031 367.091 757.681 366.909 758.201 366.61L757.785 365.141ZM762.36 359.941C760.228 359.941 758.759 361.371 758.759 363.529C758.759 365.648 760.176 367.078 762.412 367.078C763.673 367.078 764.7 366.623 765.402 365.843L764.349 364.777C763.868 365.258 763.244 365.518 762.581 365.518C761.684 365.518 761.008 364.998 760.774 364.114H765.792C765.961 361.566 764.817 359.941 762.36 359.941ZM760.735 362.931C760.891 362.008 761.489 361.41 762.373 361.41C763.296 361.41 763.894 362.008 763.92 362.931H760.735ZM767.178 357.354V367H769.18V357.354H767.178ZM781.716 360.799L782.912 359.343C782.015 358.42 780.637 357.835 779.324 357.835C776.568 357.835 774.475 359.811 774.475 362.437C774.475 365.076 776.529 367.091 779.246 367.091C780.572 367.091 781.963 366.454 782.925 365.466L781.716 364.153C781.066 364.803 780.169 365.219 779.35 365.219C777.79 365.219 776.581 363.997 776.581 362.411C776.581 360.825 777.79 359.616 779.35 359.616C780.195 359.616 781.092 360.084 781.716 360.799ZM787.106 359.941C784.857 359.941 783.349 361.358 783.349 363.503C783.349 365.635 784.857 367.078 787.106 367.078C789.342 367.078 790.85 365.635 790.85 363.503C790.85 361.358 789.342 359.941 787.106 359.941ZM787.106 361.605C788.133 361.605 788.848 362.385 788.848 363.529C788.848 364.673 788.133 365.453 787.106 365.453C786.066 365.453 785.351 364.673 785.351 363.529C785.351 362.385 786.066 361.605 787.106 361.605ZM792.239 357.354V367H794.241V357.354H792.239ZM796.314 357.354V367H798.316V357.354H796.314ZM803.327 359.941C801.195 359.941 799.726 361.371 799.726 363.529C799.726 365.648 801.143 367.078 803.379 367.078C804.64 367.078 805.667 366.623 806.369 365.843L805.316 364.777C804.835 365.258 804.211 365.518 803.548 365.518C802.651 365.518 801.975 364.998 801.741 364.114H806.759C806.928 361.566 805.784 359.941 803.327 359.941ZM801.702 362.931C801.858 362.008 802.456 361.41 803.34 361.41C804.263 361.41 804.861 362.008 804.887 362.931H801.702ZM812.748 362.385L814.1 361.41C813.476 360.474 812.41 359.941 811.071 359.941C808.926 359.941 807.483 361.384 807.483 363.529C807.483 365.648 808.926 367.078 811.045 367.078C812.475 367.078 813.567 366.506 814.152 365.531L812.774 364.595C812.423 365.141 811.864 365.414 811.149 365.414C810.174 365.414 809.485 364.647 809.485 363.516C809.485 362.398 810.174 361.644 811.149 361.644C811.838 361.631 812.371 361.917 812.748 362.385ZM819.319 365.141C818.955 365.31 818.643 365.401 818.383 365.401C817.954 365.414 817.707 365.18 817.707 364.595V361.709H819.605V360.318H817.707V358.394H815.718V360.318H814.743V361.696H815.718V364.933C815.718 366.376 816.667 367.091 817.915 367.091C818.565 367.091 819.215 366.909 819.735 366.61L819.319 365.141ZM824.05 359.941C821.801 359.941 820.293 361.358 820.293 363.503C820.293 365.635 821.801 367.078 824.05 367.078C826.286 367.078 827.794 365.635 827.794 363.503C827.794 361.358 826.286 359.941 824.05 359.941ZM824.05 361.605C825.077 361.605 825.792 362.385 825.792 363.529C825.792 364.673 825.077 365.453 824.05 365.453C823.01 365.453 822.295 364.673 822.295 363.529C822.295 362.385 823.01 361.605 824.05 361.605ZM831.119 361.267V360.006H829.117V367H831.119V363.633C831.119 362.45 832.003 361.683 833.433 361.813V359.928C832.393 359.941 831.6 360.409 831.119 361.267Z" fill="white"/>
<path d="M545.676 290.835C542.894 290.835 540.788 292.798 540.788 295.45C540.788 298.089 542.894 300.091 545.676 300.091C548.458 300.091 550.564 298.076 550.564 295.45C550.564 292.811 548.458 290.835 545.676 290.835ZM545.702 292.629C547.223 292.629 548.458 293.851 548.458 295.45C548.458 297.049 547.223 298.297 545.702 298.297C544.181 298.297 542.894 297.049 542.894 295.45C542.894 293.851 544.168 292.629 545.702 292.629ZM555.785 298.141C555.421 298.31 555.109 298.401 554.849 298.401C554.42 298.414 554.173 298.18 554.173 297.595V294.709H556.071V293.318H554.173V291.394H552.184V293.318H551.209V294.696H552.184V297.933C552.184 299.376 553.133 300.091 554.381 300.091C555.031 300.091 555.681 299.909 556.201 299.61L555.785 298.141ZM560.36 292.941C558.228 292.941 556.759 294.371 556.759 296.529C556.759 298.648 558.176 300.078 560.412 300.078C561.673 300.078 562.7 299.623 563.402 298.843L562.349 297.777C561.868 298.258 561.244 298.518 560.581 298.518C559.684 298.518 559.008 297.998 558.774 297.114H563.792C563.961 294.566 562.817 292.941 560.36 292.941ZM558.735 295.931C558.891 295.008 559.489 294.41 560.373 294.41C561.296 294.41 561.894 295.008 561.92 295.931H558.735ZM565.178 290.354V300H567.18V290.354H565.178ZM579.716 293.799L580.912 292.343C580.015 291.42 578.637 290.835 577.324 290.835C574.568 290.835 572.475 292.811 572.475 295.437C572.475 298.076 574.529 300.091 577.246 300.091C578.572 300.091 579.963 299.454 580.925 298.466L579.716 297.153C579.066 297.803 578.169 298.219 577.35 298.219C575.79 298.219 574.581 296.997 574.581 295.411C574.581 293.825 575.79 292.616 577.35 292.616C578.195 292.616 579.092 293.084 579.716 293.799ZM585.106 292.941C582.857 292.941 581.349 294.358 581.349 296.503C581.349 298.635 582.857 300.078 585.106 300.078C587.342 300.078 588.85 298.635 588.85 296.503C588.85 294.358 587.342 292.941 585.106 292.941ZM585.106 294.605C586.133 294.605 586.848 295.385 586.848 296.529C586.848 297.673 586.133 298.453 585.106 298.453C584.066 298.453 583.351 297.673 583.351 296.529C583.351 295.385 584.066 294.605 585.106 294.605ZM590.239 290.354V300H592.241V290.354H590.239ZM594.314 290.354V300H596.316V290.354H594.314ZM601.327 292.941C599.195 292.941 597.726 294.371 597.726 296.529C597.726 298.648 599.143 300.078 601.379 300.078C602.64 300.078 603.667 299.623 604.369 298.843L603.316 297.777C602.835 298.258 602.211 298.518 601.548 298.518C600.651 298.518 599.975 297.998 599.741 297.114H604.759C604.928 294.566 603.784 292.941 601.327 292.941ZM599.702 295.931C599.858 295.008 600.456 294.41 601.34 294.41C602.263 294.41 602.861 295.008 602.887 295.931H599.702ZM610.748 295.385L612.1 294.41C611.476 293.474 610.41 292.941 609.071 292.941C606.926 292.941 605.483 294.384 605.483 296.529C605.483 298.648 606.926 300.078 609.045 300.078C610.475 300.078 611.567 299.506 612.152 298.531L610.774 297.595C610.423 298.141 609.864 298.414 609.149 298.414C608.174 298.414 607.485 297.647 607.485 296.516C607.485 295.398 608.174 294.644 609.149 294.644C609.838 294.631 610.371 294.917 610.748 295.385ZM617.319 298.141C616.955 298.31 616.643 298.401 616.383 298.401C615.954 298.414 615.707 298.18 615.707 297.595V294.709H617.605V293.318H615.707V291.394H613.718V293.318H612.743V294.696H613.718V297.933C613.718 299.376 614.667 300.091 615.915 300.091C616.565 300.091 617.215 299.909 617.735 299.61L617.319 298.141ZM622.05 292.941C619.801 292.941 618.293 294.358 618.293 296.503C618.293 298.635 619.801 300.078 622.05 300.078C624.286 300.078 625.794 298.635 625.794 296.503C625.794 294.358 624.286 292.941 622.05 292.941ZM622.05 294.605C623.077 294.605 623.792 295.385 623.792 296.529C623.792 297.673 623.077 298.453 622.05 298.453C621.01 298.453 620.295 297.673 620.295 296.529C620.295 295.385 621.01 294.605 622.05 294.605ZM629.119 294.267V293.006H627.117V300H629.119V296.633C629.119 295.45 630.003 294.683 631.433 294.813V292.928C630.393 292.941 629.6 293.409 629.119 294.267Z" fill="white"/>
<path opacity="0.4" d="M183.759 385H185.956L182.069 375.9H179.95L175.998 385H178.117L178.832 383.232H183.044L183.759 385ZM179.508 381.581L180.951 378.045L182.381 381.581H179.508ZM191.108 378.006V378.955C190.627 378.305 189.899 377.928 188.95 377.941C187.169 377.941 185.947 379.28 185.947 381.256C185.947 383.284 187.195 384.636 189.002 384.636C189.925 384.636 190.64 384.272 191.108 383.622V384.415C191.108 385.364 190.38 385.975 189.236 385.975C188.443 385.975 187.702 385.728 187.065 385.273L186.324 386.677C187.13 387.223 188.183 387.6 189.366 387.6C191.602 387.6 193.097 386.339 193.097 384.35V378.006H191.108ZM189.47 383.115C188.482 383.115 187.832 382.374 187.819 381.308C187.832 380.242 188.495 379.488 189.47 379.488C190.445 379.488 191.108 380.229 191.108 381.308C191.108 382.374 190.445 383.115 189.47 383.115ZM197.927 377.941C195.795 377.941 194.326 379.371 194.326 381.529C194.326 383.648 195.743 385.078 197.979 385.078C199.24 385.078 200.267 384.623 200.969 383.843L199.916 382.777C199.435 383.258 198.811 383.518 198.148 383.518C197.251 383.518 196.575 382.998 196.341 382.114H201.359C201.528 379.566 200.384 377.941 197.927 377.941ZM196.302 380.931C196.458 380.008 197.056 379.41 197.94 379.41C198.863 379.41 199.461 380.008 199.487 380.931H196.302ZM207.101 377.928C206.009 377.941 205.177 378.357 204.683 379.228V378.006H202.681V385H204.683V381.555C204.683 380.528 205.281 379.774 206.282 379.761C207.14 379.761 207.66 380.307 207.66 381.191V385H209.662V380.606C209.662 378.968 208.661 377.928 207.101 377.928ZM215.303 383.141C214.939 383.31 214.627 383.401 214.367 383.401C213.938 383.414 213.691 383.18 213.691 382.595V379.709H215.589V378.318H213.691V376.394H211.702V378.318H210.727V379.696H211.702V382.933C211.702 384.376 212.651 385.091 213.899 385.091C214.549 385.091 215.199 384.909 215.719 384.61L215.303 383.141Z" fill="white"/>
<path opacity="0.4" d="M775.759 385H777.956L774.069 375.9H771.95L767.998 385H770.117L770.832 383.232H775.044L775.759 385ZM771.508 381.581L772.951 378.045L774.381 381.581H771.508ZM783.108 378.006V378.955C782.627 378.305 781.899 377.928 780.95 377.941C779.169 377.941 777.947 379.28 777.947 381.256C777.947 383.284 779.195 384.636 781.002 384.636C781.925 384.636 782.64 384.272 783.108 383.622V384.415C783.108 385.364 782.38 385.975 781.236 385.975C780.443 385.975 779.702 385.728 779.065 385.273L778.324 386.677C779.13 387.223 780.183 387.6 781.366 387.6C783.602 387.6 785.097 386.339 785.097 384.35V378.006H783.108ZM781.47 383.115C780.482 383.115 779.832 382.374 779.819 381.308C779.832 380.242 780.495 379.488 781.47 379.488C782.445 379.488 783.108 380.229 783.108 381.308C783.108 382.374 782.445 383.115 781.47 383.115ZM789.927 377.941C787.795 377.941 786.326 379.371 786.326 381.529C786.326 383.648 787.743 385.078 789.979 385.078C791.24 385.078 792.267 384.623 792.969 383.843L791.916 382.777C791.435 383.258 790.811 383.518 790.148 383.518C789.251 383.518 788.575 382.998 788.341 382.114H793.359C793.528 379.566 792.384 377.941 789.927 377.941ZM788.302 380.931C788.458 380.008 789.056 379.41 789.94 379.41C790.863 379.41 791.461 380.008 791.487 380.931H788.302ZM799.101 377.928C798.009 377.941 797.177 378.357 796.683 379.228V378.006H794.681V385H796.683V381.555C796.683 380.528 797.281 379.774 798.282 379.761C799.14 379.761 799.66 380.307 799.66 381.191V385H801.662V380.606C801.662 378.968 800.661 377.928 799.101 377.928ZM807.303 383.141C806.939 383.31 806.627 383.401 806.367 383.401C805.938 383.414 805.691 383.18 805.691 382.595V379.709H807.589V378.318H805.691V376.394H803.702V378.318H802.727V379.696H803.702V382.933C803.702 384.376 804.651 385.091 805.899 385.091C806.549 385.091 807.199 384.909 807.719 384.61L807.303 383.141Z" fill="white"/>
<path opacity="0.4" d="M569.108 311.5L569.901 309.797C568.991 309.199 567.717 308.809 566.443 308.809C564.337 308.809 562.92 309.849 562.92 311.5C562.92 314.724 567.769 313.723 567.769 315.439C567.769 315.998 567.262 316.31 566.417 316.31C565.455 316.31 564.129 315.777 563.193 314.945L562.374 316.622C563.401 317.493 564.896 318.065 566.391 318.065C568.406 318.065 569.953 317.103 569.953 315.322C569.966 312.046 565.117 312.982 565.117 311.305C565.117 310.811 565.585 310.564 566.274 310.564C567.002 310.564 568.146 310.928 569.108 311.5ZM574.356 310.941C572.224 310.941 570.755 312.371 570.755 314.529C570.755 316.648 572.172 318.078 574.408 318.078C575.669 318.078 576.696 317.623 577.398 316.843L576.345 315.777C575.864 316.258 575.24 316.518 574.577 316.518C573.68 316.518 573.004 315.998 572.77 315.114H577.788C577.957 312.566 576.813 310.941 574.356 310.941ZM572.731 313.931C572.887 313.008 573.485 312.41 574.369 312.41C575.292 312.41 575.89 313.008 575.916 313.931H572.731ZM581.112 312.267V311.006H579.11V318H581.112V314.633C581.112 313.45 581.996 312.683 583.426 312.813V310.928C582.386 310.941 581.593 311.409 581.112 312.267ZM583.835 311.019L586.487 318H588.541L591.18 311.006H589.191L587.553 316.102L585.902 311.006L583.835 311.019ZM593.06 308.016C592.488 308.016 592.085 308.432 592.085 309.017C592.085 309.589 592.488 310.018 593.06 310.018C593.632 310.018 594.035 309.589 594.035 309.017C594.035 308.432 593.632 308.016 593.06 308.016ZM592.059 311.006V318H594.061V311.006H592.059ZM600.649 313.385L602.001 312.41C601.377 311.474 600.311 310.941 598.972 310.941C596.827 310.941 595.384 312.384 595.384 314.529C595.384 316.648 596.827 318.078 598.946 318.078C600.376 318.078 601.468 317.506 602.053 316.531L600.675 315.595C600.324 316.141 599.765 316.414 599.05 316.414C598.075 316.414 597.386 315.647 597.386 314.516C597.386 313.398 598.075 312.644 599.05 312.644C599.739 312.631 600.272 312.917 600.649 313.385ZM606.094 310.941C603.962 310.941 602.493 312.371 602.493 314.529C602.493 316.648 603.91 318.078 606.146 318.078C607.407 318.078 608.434 317.623 609.136 316.843L608.083 315.777C607.602 316.258 606.978 316.518 606.315 316.518C605.418 316.518 604.742 315.998 604.508 315.114H609.526C609.695 312.566 608.551 310.941 606.094 310.941ZM604.469 313.931C604.625 313.008 605.223 312.41 606.107 312.41C607.03 312.41 607.628 313.008 607.654 313.931H604.469Z" fill="white"/>
<path d="M184.76 459.9V469H186.814V465.412H190.935V469H192.989V459.9H190.935V463.696H186.814V459.9H184.76ZM198.113 461.941C195.864 461.941 194.356 463.358 194.356 465.503C194.356 467.635 195.864 469.078 198.113 469.078C200.349 469.078 201.857 467.635 201.857 465.503C201.857 463.358 200.349 461.941 198.113 461.941ZM198.113 463.605C199.14 463.605 199.855 464.385 199.855 465.529C199.855 466.673 199.14 467.453 198.113 467.453C197.073 467.453 196.358 466.673 196.358 465.529C196.358 464.385 197.073 463.605 198.113 463.605ZM207.587 464.06L208.276 462.695C207.496 462.201 206.508 461.915 205.546 461.915C204.025 461.915 202.79 462.656 202.79 464.099C202.79 466.556 206.417 465.958 206.417 467.076C206.417 467.453 206.04 467.622 205.533 467.622C204.766 467.622 203.83 467.31 203.102 466.751L202.452 468.103C203.245 468.74 204.35 469.078 205.481 469.078C207.067 469.078 208.328 468.324 208.328 466.894C208.341 464.424 204.649 464.957 204.649 463.904C204.649 463.54 204.987 463.384 205.455 463.384C206.04 463.384 206.82 463.631 207.587 464.06ZM213.581 467.141C213.217 467.31 212.905 467.401 212.645 467.401C212.216 467.414 211.969 467.18 211.969 466.595V463.709H213.867V462.318H211.969V460.394H209.98V462.318H209.005V463.696H209.98V466.933C209.98 468.376 210.929 469.091 212.177 469.091C212.827 469.091 213.477 468.909 213.997 468.61L213.581 467.141Z" fill="#B9831F"/>
<path d="M776.76 459.9V469H778.814V465.412H782.935V469H784.989V459.9H782.935V463.696H778.814V459.9H776.76ZM790.113 461.941C787.864 461.941 786.356 463.358 786.356 465.503C786.356 467.635 787.864 469.078 790.113 469.078C792.349 469.078 793.857 467.635 793.857 465.503C793.857 463.358 792.349 461.941 790.113 461.941ZM790.113 463.605C791.14 463.605 791.855 464.385 791.855 465.529C791.855 466.673 791.14 467.453 790.113 467.453C789.073 467.453 788.358 466.673 788.358 465.529C788.358 464.385 789.073 463.605 790.113 463.605ZM799.587 464.06L800.276 462.695C799.496 462.201 798.508 461.915 797.546 461.915C796.025 461.915 794.79 462.656 794.79 464.099C794.79 466.556 798.417 465.958 798.417 467.076C798.417 467.453 798.04 467.622 797.533 467.622C796.766 467.622 795.83 467.31 795.102 466.751L794.452 468.103C795.245 468.74 796.35 469.078 797.481 469.078C799.067 469.078 800.328 468.324 800.328 466.894C800.341 464.424 796.649 464.957 796.649 463.904C796.649 463.54 796.987 463.384 797.455 463.384C798.04 463.384 798.82 463.631 799.587 464.06ZM805.581 467.141C805.217 467.31 804.905 467.401 804.645 467.401C804.216 467.414 803.969 467.18 803.969 466.595V463.709H805.867V462.318H803.969V460.394H801.98V462.318H801.005V463.696H801.98V466.933C801.98 468.376 802.929 469.091 804.177 469.091C804.827 469.091 805.477 468.909 805.997 468.61L805.581 467.141Z" fill="#B9831F"/>
<circle cx="167.909" cy="225.61" r="2.18599" transform="rotate(45 167.909 225.61)" stroke="#002E42" stroke-width="2" stroke-linecap="round" stroke-linejoin="round"/>
<path d="M157.76 227.291L155.477 229.573" stroke="#002E42" stroke-width="2" stroke-miterlimit="10" stroke-linecap="round"/>
<path d="M154.137 228.762L156.229 230.854" stroke="#002E42" stroke-width="2" stroke-miterlimit="10" stroke-linecap="round"/>
<path d="M159.644 229.175L155.497 225.028L160.821 219.703L162.707 221.588C160.577 223.718 161.299 226.012 161.926 226.893L159.644 229.175Z" stroke="#002E42" stroke-width="2" stroke-miterlimit="10" stroke-linecap="round" stroke-linejoin="round"/>
<path d="M165.366 219.683L162.727 217.044L167.291 212.48L172.57 217.759L170.288 220.041C168.78 218.533 166.507 218.542 165.366 219.683Z" stroke="#002E42" stroke-width="2" stroke-miterlimit="10" stroke-linecap="round" stroke-linejoin="round"/>
<path d="M176.476 216.659L168.616 208.799C168.225 208.408 168.225 207.775 168.616 207.384L170.293 205.707C170.683 205.317 171.317 205.317 171.707 205.707L179.567 213.567C179.958 213.958 179.958 214.591 179.567 214.981L177.89 216.659C177.499 217.049 176.866 217.049 176.476 216.659Z" stroke="#002E42" stroke-width="2" stroke-miterlimit="10" stroke-linecap="round" stroke-linejoin="round"/>
<circle cx="761.909" cy="225.61" r="2.18599" transform="rotate(45 761.909 225.61)" stroke="#002E42" stroke-width="2" stroke-linecap="round" stroke-linejoin="round"/>
<path d="M751.76 227.291L749.477 229.573" stroke="#002E42" stroke-width="2" stroke-miterlimit="10" stroke-linecap="round"/>
<path d="M748.137 228.762L750.229 230.854" stroke="#002E42" stroke-width="2" stroke-miterlimit="10" stroke-linecap="round"/>
<path d="M753.644 229.175L749.497 225.028L754.821 219.703L756.707 221.588C754.577 223.718 755.299 226.012 755.926 226.893L753.644 229.175Z" stroke="#002E42" stroke-width="2" stroke-miterlimit="10" stroke-linecap="round" stroke-linejoin="round"/>
<path d="M759.366 219.683L756.727 217.044L761.291 212.48L766.57 217.759L764.288 220.041C762.78 218.533 760.507 218.542 759.366 219.683Z" stroke="#002E42" stroke-width="2" stroke-miterlimit="10" stroke-linecap="round" stroke-linejoin="round"/>
<path d="M770.476 216.659L762.616 208.799C762.225 208.408 762.225 207.775 762.616 207.384L764.293 205.707C764.683 205.317 765.317 205.317 765.707 205.707L773.567 213.567C773.958 213.958 773.958 214.591 773.567 214.981L771.89 216.659C771.499 217.049 770.866 217.049 770.476 216.659Z" stroke="#002E42" stroke-width="2" stroke-miterlimit="10" stroke-linecap="round" stroke-linejoin="round"/>
<path d="M197.239 203.835C194.457 203.835 192.351 205.798 192.351 208.45C192.351 211.089 194.457 213.091 197.239 213.091C200.021 213.091 202.127 211.076 202.127 208.45C202.127 205.811 200.021 203.835 197.239 203.835ZM197.265 205.629C198.786 205.629 200.021 206.851 200.021 208.45C200.021 210.049 198.786 211.297 197.265 211.297C195.744 211.297 194.457 210.049 194.457 208.45C194.457 206.851 195.731 205.629 197.265 205.629ZM202.324 203.9V205.642H205.093V213H207.147V205.642H209.929V203.9H202.324ZM193.001 221.9V231H198.955V229.206H195.055V221.9H193.001ZM201.136 221.016C200.564 221.016 200.161 221.432 200.161 222.017C200.161 222.589 200.564 223.018 201.136 223.018C201.708 223.018 202.111 222.589 202.111 222.017C202.111 221.432 201.708 221.016 201.136 221.016ZM200.135 224.006V231H202.137V224.006H200.135ZM208.335 223.941C207.386 223.941 206.619 224.331 206.125 225.033V221.354H204.123V231H206.125V229.986C206.632 230.688 207.399 231.078 208.374 231.078C210.337 231.078 211.624 229.661 211.624 227.542C211.624 225.384 210.298 223.941 208.335 223.941ZM207.867 229.414C206.84 229.414 206.125 228.634 206.125 227.477C206.125 226.346 206.84 225.553 207.867 225.553C208.894 225.553 209.596 226.359 209.596 227.477C209.596 228.621 208.894 229.414 207.867 229.414ZM214.946 225.267V224.006H212.944V231H214.946V227.633C214.946 226.45 215.83 225.683 217.26 225.813V223.928C216.22 223.941 215.427 224.409 214.946 225.267ZM224.156 231L224.143 226.437C224.13 224.864 223.051 223.928 221.179 223.928C219.957 223.928 219.06 224.214 218.02 224.734L218.644 226.112C219.372 225.709 220.1 225.501 220.724 225.501C221.686 225.501 222.18 225.93 222.18 226.671V226.801H220.256C218.54 226.814 217.591 227.594 217.591 228.907C217.591 230.181 218.501 231.091 219.996 231.091C220.971 231.091 221.725 230.766 222.193 230.181V231H224.156ZM220.555 229.661C219.879 229.661 219.463 229.31 219.463 228.777C219.463 228.218 219.84 227.984 220.607 227.984H222.18V228.608C222.063 229.206 221.4 229.661 220.555 229.661ZM227.883 225.267V224.006H225.881V231H227.883V227.633C227.883 226.45 228.767 225.683 230.197 225.813V223.928C229.157 223.941 228.364 224.409 227.883 225.267ZM235 231.78L238.068 224.006H236.066L234.415 228.816L232.582 224.006H230.515L233.414 230.857L233.219 231.247C233.024 231.663 232.712 231.871 232.296 231.871C231.971 231.871 231.698 231.754 231.386 231.494L230.541 232.937C231.113 233.405 231.698 233.613 232.439 233.613C233.648 233.613 234.506 233.015 235 231.78Z" fill="#002E42"/>
<path d="M791.239 203.835C788.457 203.835 786.351 205.798 786.351 208.45C786.351 211.089 788.457 213.091 791.239 213.091C794.021 213.091 796.127 211.076 796.127 208.45C796.127 205.811 794.021 203.835 791.239 203.835ZM791.265 205.629C792.786 205.629 794.021 206.851 794.021 208.45C794.021 210.049 792.786 211.297 791.265 211.297C789.744 211.297 788.457 210.049 788.457 208.45C788.457 206.851 789.731 205.629 791.265 205.629ZM796.324 203.9V205.642H799.093V213H801.147V205.642H803.929V203.9H796.324ZM787.001 221.9V231H792.955V229.206H789.055V221.9H787.001ZM795.136 221.016C794.564 221.016 794.161 221.432 794.161 222.017C794.161 222.589 794.564 223.018 795.136 223.018C795.708 223.018 796.111 222.589 796.111 222.017C796.111 221.432 795.708 221.016 795.136 221.016ZM794.135 224.006V231H796.137V224.006H794.135ZM802.335 223.941C801.386 223.941 800.619 224.331 800.125 225.033V221.354H798.123V231H800.125V229.986C800.632 230.688 801.399 231.078 802.374 231.078C804.337 231.078 805.624 229.661 805.624 227.542C805.624 225.384 804.298 223.941 802.335 223.941ZM801.867 229.414C800.84 229.414 800.125 228.634 800.125 227.477C800.125 226.346 800.84 225.553 801.867 225.553C802.894 225.553 803.596 226.359 803.596 227.477C803.596 228.621 802.894 229.414 801.867 229.414ZM808.946 225.267V224.006H806.944V231H808.946V227.633C808.946 226.45 809.83 225.683 811.26 225.813V223.928C810.22 223.941 809.427 224.409 808.946 225.267ZM818.156 231L818.143 226.437C818.13 224.864 817.051 223.928 815.179 223.928C813.957 223.928 813.06 224.214 812.02 224.734L812.644 226.112C813.372 225.709 814.1 225.501 814.724 225.501C815.686 225.501 816.18 225.93 816.18 226.671V226.801H814.256C812.54 226.814 811.591 227.594 811.591 228.907C811.591 230.181 812.501 231.091 813.996 231.091C814.971 231.091 815.725 230.766 816.193 230.181V231H818.156ZM814.555 229.661C813.879 229.661 813.463 229.31 813.463 228.777C813.463 228.218 813.84 227.984 814.607 227.984H816.18V228.608C816.063 229.206 815.4 229.661 814.555 229.661ZM821.883 225.267V224.006H819.881V231H821.883V227.633C821.883 226.45 822.767 225.683 824.197 225.813V223.928C823.157 223.941 822.364 224.409 821.883 225.267ZM829 231.78L832.068 224.006H830.066L828.415 228.816L826.582 224.006H824.515L827.414 230.857L827.219 231.247C827.024 231.663 826.712 231.871 826.296 231.871C825.971 231.871 825.698 231.754 825.386 231.494L824.541 232.937C825.113 233.405 825.698 233.613 826.439 233.613C827.648 233.613 828.506 233.015 829 231.78Z" fill="#002E42"/>
<path d="M191.333 329.606V338C191.333 338.552 191.781 339 192.333 339H208.182C208.734 339 209.182 338.552 209.182 338V329.606" stroke="white" stroke-width="2" stroke-linecap="round" stroke-linejoin="round"/>
<circle cx="196.411" cy="332.907" r="2.36117" stroke="white" stroke-width="2" stroke-linecap="round" stroke-linejoin="round"/>
<circle cx="204.028" cy="332.907" r="2.36117" stroke="white" stroke-width="2" stroke-linecap="round" stroke-linejoin="round"/>
<circle cx="196.361" cy="325.361" r="2.36117" stroke="white" stroke-width="2" stroke-linecap="round" stroke-linejoin="round"/>
<path d="M197.977 317.242L197.979 317.244L199.914 319.156C199.623 319.446 199.378 319.717 199.15 319.97L199.146 319.975C199.044 320.088 198.946 320.196 198.847 320.304C198.484 320.05 198.105 319.862 197.691 319.737C197.096 319.557 196.488 319.525 195.858 319.548L195.856 319.548C195.13 319.575 194.441 319.748 193.803 320.063C193.407 319.669 193.008 319.276 192.612 318.884C192.463 318.737 192.314 318.591 192.166 318.445L195.68 314.973C196.447 315.727 197.214 316.484 197.977 317.242ZM200.093 318.954C200.093 318.954 200.093 318.954 200.092 318.955L200.093 318.954ZM191.954 318.482L191.964 318.472L191.954 318.482Z" stroke="white" stroke-width="2" stroke-miterlimit="10"/>
<path d="M191.859 322.198C191.858 322.197 191.856 322.195 191.853 322.192M191.859 322.198C191.859 322.198 191.859 322.198 191.859 322.198C191.86 322.198 191.86 322.198 191.86 322.198L192.433 321.587L192.436 321.584L192.544 321.469L192.436 321.585L192.434 321.587L191.863 322.202L191.853 322.192M191.859 322.198C191.857 322.196 191.855 322.194 191.853 322.192M191.859 322.198L191.853 322.192M191.75 321.097C191.749 321.099 191.744 321.105 191.738 321.115L191.744 321.106L191.75 321.097ZM191.75 321.097L191.75 321.097L191.75 321.097ZM188.474 327.871C187.617 327.07 186.764 326.271 185.912 325.465C186.181 325.212 186.45 324.96 186.719 324.707C188.021 323.485 189.323 322.264 190.629 321.047C190.855 321.255 191.07 321.457 191.288 321.663C191.315 321.688 191.342 321.713 191.369 321.739C190.772 322.915 190.682 324.158 191.096 325.413C190.221 326.231 189.347 327.051 188.474 327.871ZM191.49 325.045C191.492 325.043 191.494 325.041 191.495 325.04L191.49 325.045Z" stroke="white" stroke-width="2" stroke-miterlimit="10"/>
<path d="M186.967 327.098L184.605 329.46" stroke="white" stroke-width="2" stroke-miterlimit="10" stroke-linecap="round"/>
<path d="M183.818 328.672L185.392 330.247" stroke="white" stroke-width="2" stroke-miterlimit="10" stroke-linecap="round"/>
<path d="M197.49 310.937L198.584 309.965C198.971 309.62 199.558 309.629 199.935 309.985L205.206 314.964C205.632 315.366 205.622 316.048 205.184 316.438L204.089 317.411C203.702 317.755 203.115 317.746 202.738 317.39L197.467 312.412C197.041 312.009 197.051 311.327 197.49 310.937Z" stroke="white" stroke-width="2" stroke-miterlimit="10" stroke-linecap="round" stroke-linejoin="round"/>
<path d="M783.333 329.606V338C783.333 338.552 783.781 339 784.333 339H800.182C800.734 339 801.182 338.552 801.182 338V329.606" stroke="white" stroke-width="2" stroke-linecap="round" stroke-linejoin="round"/>
<circle cx="788.411" cy="332.907" r="2.36117" stroke="white" stroke-width="2" stroke-linecap="round" stroke-linejoin="round"/>
<circle cx="796.028" cy="332.907" r="2.36117" stroke="white" stroke-width="2" stroke-linecap="round" stroke-linejoin="round"/>
<circle cx="788.361" cy="325.361" r="2.36117" stroke="white" stroke-width="2" stroke-linecap="round" stroke-linejoin="round"/>
<path d="M789.977 317.242L789.979 317.244L791.914 319.156C791.623 319.446 791.378 319.717 791.15 319.97L791.146 319.975C791.044 320.088 790.946 320.196 790.847 320.304C790.484 320.05 790.105 319.862 789.691 319.737C789.096 319.557 788.488 319.525 787.858 319.548L787.856 319.548C787.13 319.575 786.441 319.748 785.803 320.063C785.407 319.669 785.008 319.276 784.612 318.884C784.463 318.737 784.314 318.591 784.166 318.445L787.68 314.973C788.447 315.727 789.214 316.484 789.977 317.242ZM792.093 318.954C792.093 318.954 792.093 318.954 792.092 318.955L792.093 318.954ZM783.954 318.482L783.964 318.472L783.954 318.482Z" stroke="white" stroke-width="2" stroke-miterlimit="10"/>
<path d="M783.859 322.198C783.858 322.197 783.856 322.195 783.853 322.192M783.859 322.198C783.859 322.198 783.859 322.198 783.859 322.198C783.86 322.198 783.86 322.198 783.86 322.198L784.433 321.587L784.436 321.584L784.544 321.469L784.436 321.585L784.434 321.587L783.863 322.202L783.853 322.192M783.859 322.198C783.857 322.196 783.855 322.194 783.853 322.192M783.859 322.198L783.853 322.192M783.75 321.097C783.749 321.099 783.744 321.105 783.738 321.115L783.744 321.106L783.75 321.097ZM783.75 321.097L783.75 321.097L783.75 321.097ZM780.474 327.871C779.617 327.07 778.764 326.271 777.912 325.465C778.181 325.212 778.45 324.96 778.719 324.707C780.021 323.485 781.323 322.264 782.629 321.047C782.855 321.255 783.07 321.457 783.288 321.663C783.315 321.688 783.342 321.713 783.369 321.739C782.772 322.915 782.682 324.158 783.096 325.413C782.221 326.231 781.347 327.051 780.474 327.871ZM783.49 325.045C783.492 325.043 783.494 325.041 783.495 325.04L783.49 325.045Z" stroke="white" stroke-width="2" stroke-miterlimit="10"/>
<path d="M778.967 327.098L776.605 329.46" stroke="white" stroke-width="2" stroke-miterlimit="10" stroke-linecap="round"/>
<path d="M775.818 328.672L777.392 330.247" stroke="white" stroke-width="2" stroke-miterlimit="10" stroke-linecap="round"/>
<path d="M789.49 310.937L790.584 309.965C790.971 309.62 791.558 309.629 791.935 309.985L797.206 314.964C797.632 315.366 797.622 316.048 797.184 316.438L796.089 317.411C795.702 317.755 795.115 317.746 794.738 317.39L789.467 312.412C789.041 312.009 789.051 311.327 789.49 310.937Z" stroke="white" stroke-width="2" stroke-miterlimit="10" stroke-linecap="round" stroke-linejoin="round"/>
<path d="M581.333 262.606V271C581.333 271.552 581.781 272 582.333 272H598.182C598.734 272 599.182 271.552 599.182 271V262.606" stroke="white" stroke-width="2" stroke-linecap="round" stroke-linejoin="round"/>
<circle cx="586.411" cy="265.907" r="2.36117" stroke="white" stroke-width="2" stroke-linecap="round" stroke-linejoin="round"/>
<circle cx="594.028" cy="265.907" r="2.36117" stroke="white" stroke-width="2" stroke-linecap="round" stroke-linejoin="round"/>
<circle cx="586.361" cy="258.361" r="2.36117" stroke="white" stroke-width="2" stroke-linecap="round" stroke-linejoin="round"/>
<path d="M587.977 250.242L587.979 250.244L589.914 252.156C589.623 252.446 589.378 252.717 589.15 252.97L589.146 252.975C589.044 253.088 588.946 253.196 588.847 253.304C588.484 253.05 588.105 252.862 587.691 252.737C587.096 252.557 586.488 252.525 585.858 252.548L585.856 252.548C585.13 252.575 584.441 252.748 583.803 253.063C583.407 252.669 583.008 252.276 582.612 251.884C582.463 251.737 582.314 251.591 582.166 251.445L585.68 247.973C586.447 248.727 587.214 249.484 587.977 250.242ZM590.093 251.954C590.093 251.954 590.093 251.954 590.092 251.955L590.093 251.954ZM581.954 251.482L581.964 251.472L581.954 251.482Z" stroke="white" stroke-width="2" stroke-miterlimit="10"/>
<path d="M581.859 255.198C581.858 255.197 581.856 255.195 581.853 255.192M581.859 255.198C581.859 255.198 581.859 255.198 581.859 255.198C581.86 255.198 581.86 255.198 581.86 255.198L582.433 254.587L582.436 254.584L582.544 254.469L582.436 254.585L582.434 254.587L581.863 255.202L581.853 255.192M581.859 255.198C581.857 255.196 581.855 255.194 581.853 255.192M581.859 255.198L581.853 255.192M581.75 254.097C581.749 254.099 581.744 254.105 581.738 254.115L581.744 254.106L581.75 254.097ZM581.75 254.097L581.75 254.097L581.75 254.097ZM578.474 260.871C577.617 260.07 576.764 259.271 575.912 258.465C576.181 258.212 576.45 257.96 576.719 257.707C578.021 256.485 579.323 255.264 580.629 254.047C580.855 254.255 581.07 254.457 581.288 254.663C581.315 254.688 581.342 254.713 581.369 254.739C580.772 255.915 580.682 257.158 581.096 258.413C580.221 259.231 579.347 260.051 578.474 260.871ZM581.49 258.045C581.492 258.043 581.494 258.041 581.495 258.04L581.49 258.045Z" stroke="white" stroke-width="2" stroke-miterlimit="10"/>
<path d="M576.967 260.098L574.605 262.46" stroke="white" stroke-width="2" stroke-miterlimit="10" stroke-linecap="round"/>
<path d="M573.818 261.672L575.392 263.247" stroke="white" stroke-width="2" stroke-miterlimit="10" stroke-linecap="round"/>
<path d="M587.49 243.937L588.584 242.965C588.971 242.62 589.558 242.629 589.935 242.985L595.206 247.964C595.632 248.366 595.622 249.048 595.184 249.438L594.089 250.411C593.702 250.755 593.115 250.746 592.738 250.39L587.467 245.412C587.041 245.009 587.051 244.327 587.49 243.937Z" stroke="white" stroke-width="2" stroke-miterlimit="10" stroke-linecap="round" stroke-linejoin="round"/>
<path d="M373.399 217.9H369.213V227H373.542C375.648 227 376.974 226.038 376.974 224.478C376.974 223.282 376.259 222.398 375.076 222.177C376.051 221.917 376.649 221.15 376.649 220.175C376.649 218.771 375.401 217.9 373.399 217.9ZM373.295 221.566H371.267V219.577H373.295C374.075 219.564 374.543 219.928 374.543 220.552C374.543 221.189 374.075 221.566 373.295 221.566ZM373.295 225.323H371.267V223.165H373.295C374.257 223.152 374.855 223.555 374.855 224.218C374.855 224.92 374.257 225.323 373.295 225.323ZM384.448 227L384.435 222.437C384.422 220.864 383.343 219.928 381.471 219.928C380.249 219.928 379.352 220.214 378.312 220.734L378.936 222.112C379.664 221.709 380.392 221.501 381.016 221.501C381.978 221.501 382.472 221.93 382.472 222.671V222.801H380.548C378.832 222.814 377.883 223.594 377.883 224.907C377.883 226.181 378.793 227.091 380.288 227.091C381.263 227.091 382.017 226.766 382.485 226.181V227H384.448ZM380.847 225.661C380.171 225.661 379.755 225.31 379.755 224.777C379.755 224.218 380.132 223.984 380.899 223.984H382.472V224.608C382.355 225.206 381.692 225.661 380.847 225.661ZM390.84 222.385L392.192 221.41C391.568 220.474 390.502 219.941 389.163 219.941C387.018 219.941 385.575 221.384 385.575 223.529C385.575 225.648 387.018 227.078 389.137 227.078C390.567 227.078 391.659 226.506 392.244 225.531L390.866 224.595C390.515 225.141 389.956 225.414 389.241 225.414C388.266 225.414 387.577 224.647 387.577 223.516C387.577 222.398 388.266 221.644 389.241 221.644C389.93 221.631 390.463 221.917 390.84 222.385ZM398.153 227H400.519L397.841 222.71L400.402 220.019H398.127L395.566 222.658V217.354H393.564V227H395.566V225.102L396.463 224.153L398.153 227ZM401.326 222.359V223.685H404.68V222.359H401.326ZM409.387 219.941C407.255 219.941 405.786 221.371 405.786 223.529C405.786 225.648 407.203 227.078 409.439 227.078C410.7 227.078 411.727 226.623 412.429 225.843L411.376 224.777C410.895 225.258 410.271 225.518 409.608 225.518C408.711 225.518 408.035 224.998 407.801 224.114H412.819C412.988 221.566 411.844 219.941 409.387 219.941ZM407.762 222.931C407.918 222.008 408.516 221.41 409.4 221.41C410.323 221.41 410.921 222.008 410.947 222.931H407.762ZM418.561 219.928C417.469 219.941 416.637 220.357 416.143 221.228V220.006H414.141V227H416.143V223.555C416.143 222.528 416.741 221.774 417.742 221.761C418.6 221.761 419.12 222.307 419.12 223.191V227H421.122V222.606C421.122 220.968 420.121 219.928 418.561 219.928ZM427.764 217.354V221.033C427.257 220.318 426.49 219.928 425.502 219.928C423.552 219.928 422.252 221.345 422.252 223.477C422.252 225.635 423.565 227.078 425.554 227.078C426.516 227.078 427.27 226.688 427.764 225.973V227H429.753V217.354H427.764ZM426.022 225.466C424.969 225.466 424.267 224.673 424.254 223.529C424.267 222.398 424.982 221.592 426.022 221.592C427.049 221.592 427.764 222.385 427.764 223.529C427.764 224.673 427.049 225.466 426.022 225.466ZM396.762 235.887V237.629H398.582V245H400.636V235.887H396.762Z" fill="#002E42"/>
<path d="M373.399 335.9H369.213V345H373.542C375.648 345 376.974 344.038 376.974 342.478C376.974 341.282 376.259 340.398 375.076 340.177C376.051 339.917 376.649 339.15 376.649 338.175C376.649 336.771 375.401 335.9 373.399 335.9ZM373.295 339.566H371.267V337.577H373.295C374.075 337.564 374.543 337.928 374.543 338.552C374.543 339.189 374.075 339.566 373.295 339.566ZM373.295 343.323H371.267V341.165H373.295C374.257 341.152 374.855 341.555 374.855 342.218C374.855 342.92 374.257 343.323 373.295 343.323ZM384.448 345L384.435 340.437C384.422 338.864 383.343 337.928 381.471 337.928C380.249 337.928 379.352 338.214 378.312 338.734L378.936 340.112C379.664 339.709 380.392 339.501 381.016 339.501C381.978 339.501 382.472 339.93 382.472 340.671V340.801H380.548C378.832 340.814 377.883 341.594 377.883 342.907C377.883 344.181 378.793 345.091 380.288 345.091C381.263 345.091 382.017 344.766 382.485 344.181V345H384.448ZM380.847 343.661C380.171 343.661 379.755 343.31 379.755 342.777C379.755 342.218 380.132 341.984 380.899 341.984H382.472V342.608C382.355 343.206 381.692 343.661 380.847 343.661ZM390.84 340.385L392.192 339.41C391.568 338.474 390.502 337.941 389.163 337.941C387.018 337.941 385.575 339.384 385.575 341.529C385.575 343.648 387.018 345.078 389.137 345.078C390.567 345.078 391.659 344.506 392.244 343.531L390.866 342.595C390.515 343.141 389.956 343.414 389.241 343.414C388.266 343.414 387.577 342.647 387.577 341.516C387.577 340.398 388.266 339.644 389.241 339.644C389.93 339.631 390.463 339.917 390.84 340.385ZM398.153 345H400.519L397.841 340.71L400.402 338.019H398.127L395.566 340.658V335.354H393.564V345H395.566V343.102L396.463 342.153L398.153 345ZM401.326 340.359V341.685H404.68V340.359H401.326ZM409.387 337.941C407.255 337.941 405.786 339.371 405.786 341.529C405.786 343.648 407.203 345.078 409.439 345.078C410.7 345.078 411.727 344.623 412.429 343.843L411.376 342.777C410.895 343.258 410.271 343.518 409.608 343.518C408.711 343.518 408.035 342.998 407.801 342.114H412.819C412.988 339.566 411.844 337.941 409.387 337.941ZM407.762 340.931C407.918 340.008 408.516 339.41 409.4 339.41C410.323 339.41 410.921 340.008 410.947 340.931H407.762ZM418.561 337.928C417.469 337.941 416.637 338.357 416.143 339.228V338.006H414.141V345H416.143V341.555C416.143 340.528 416.741 339.774 417.742 339.761C418.6 339.761 419.12 340.307 419.12 341.191V345H421.122V340.606C421.122 338.968 420.121 337.928 418.561 337.928ZM427.764 335.354V339.033C427.257 338.318 426.49 337.928 425.502 337.928C423.552 337.928 422.252 339.345 422.252 341.477C422.252 343.635 423.565 345.078 425.554 345.078C426.516 345.078 427.27 344.688 427.764 343.973V345H429.753V335.354H427.764ZM426.022 343.466C424.969 343.466 424.267 342.673 424.254 341.529C424.267 340.398 424.982 339.592 426.022 339.592C427.049 339.592 427.764 340.385 427.764 341.529C427.764 342.673 427.049 343.466 426.022 343.466ZM399.479 358.112L396.112 361.583V363H402.95V361.271H398.764L400.883 359.178C401.884 358.138 402.625 357.124 402.625 356.149C402.625 354.719 401.338 353.796 399.518 353.796C398.231 353.796 396.996 354.303 395.878 355.148L396.684 356.682C397.503 355.98 398.439 355.538 399.219 355.538C400.012 355.538 400.467 355.876 400.467 356.461C400.467 356.903 400.064 357.527 399.479 358.112Z" fill="#002E42"/>
<path d="M411.946 480V471.456H413.182L416.41 478.812H415.822L419.026 471.456H420.262V480H418.882L418.87 473.676L419.278 473.772L416.614 480H415.594L412.87 473.772L413.302 473.676L413.314 480H411.946ZM427.205 479.328C426.917 479.568 426.561 479.756 426.137 479.892C425.721 480.02 425.297 480.084 424.865 480.084C424.209 480.084 423.641 479.96 423.161 479.712C422.689 479.464 422.325 479.104 422.069 478.632C421.813 478.16 421.685 477.6 421.685 476.952C421.685 476.328 421.809 475.78 422.057 475.308C422.305 474.828 422.649 474.456 423.089 474.192C423.529 473.92 424.037 473.784 424.613 473.784C425.173 473.784 425.653 473.908 426.053 474.156C426.453 474.396 426.761 474.744 426.977 475.2C427.201 475.656 427.313 476.196 427.313 476.82V477.048H423.005L423.017 476.244H426.425L426.017 476.652C426.025 476.068 425.909 475.624 425.669 475.32C425.437 475.016 425.097 474.864 424.649 474.864C424.169 474.864 423.797 475.036 423.533 475.38C423.269 475.716 423.137 476.2 423.137 476.832C423.137 477.552 423.285 478.084 423.581 478.428C423.877 478.764 424.325 478.932 424.925 478.932C425.253 478.932 425.573 478.88 425.885 478.776C426.205 478.664 426.501 478.504 426.773 478.296L427.205 479.328ZM427.746 475.068V473.94H432.018V475.068H427.746ZM432.018 478.752V479.94C431.858 479.996 431.698 480.032 431.538 480.048C431.386 480.072 431.222 480.084 431.046 480.084C430.366 480.084 429.838 479.892 429.462 479.508C429.094 479.124 428.91 478.572 428.91 477.852V472.464L430.41 471.96V477.78C430.41 478.052 430.454 478.268 430.542 478.428C430.63 478.58 430.746 478.688 430.89 478.752C431.042 478.816 431.21 478.848 431.394 478.848C431.498 478.848 431.598 478.84 431.694 478.824C431.79 478.808 431.898 478.784 432.018 478.752ZM433.036 480V475.656C433.036 475.376 433.028 475.092 433.012 474.804C433.004 474.508 432.98 474.22 432.94 473.94H434.356L434.524 475.5L434.356 475.416C434.46 474.88 434.696 474.476 435.064 474.204C435.432 473.932 435.848 473.796 436.312 473.796C436.432 473.796 436.544 473.804 436.648 473.82C436.752 473.836 436.844 473.86 436.924 473.892L436.9 475.26C436.652 475.156 436.388 475.104 436.108 475.104C435.748 475.104 435.452 475.176 435.22 475.32C434.996 475.464 434.824 475.66 434.704 475.908C434.592 476.148 434.536 476.42 434.536 476.724V480H433.036ZM437.736 480V473.94H439.236V480H437.736ZM437.664 471.192H439.332V472.668H437.664V471.192ZM443.601 480.084C442.969 480.084 442.421 479.96 441.957 479.712C441.501 479.456 441.149 479.096 440.901 478.632C440.661 478.16 440.541 477.608 440.541 476.976C440.541 476.336 440.669 475.776 440.925 475.296C441.181 474.816 441.545 474.444 442.017 474.18C442.489 473.916 443.041 473.784 443.673 473.784C444.097 473.784 444.509 473.852 444.909 473.988C445.317 474.124 445.649 474.312 445.905 474.552L445.473 475.608C445.217 475.4 444.945 475.244 444.657 475.14C444.369 475.028 444.081 474.972 443.793 474.972C443.265 474.972 442.845 475.14 442.533 475.476C442.229 475.812 442.077 476.304 442.077 476.952C442.077 477.592 442.229 478.08 442.533 478.416C442.837 478.752 443.261 478.92 443.805 478.92C444.085 478.92 444.369 478.868 444.657 478.764C444.945 478.652 445.217 478.488 445.473 478.272L445.905 479.328C445.641 479.568 445.301 479.756 444.885 479.892C444.477 480.02 444.049 480.084 443.601 480.084ZM449.132 480.084C448.028 480.084 447.156 479.832 446.516 479.328L446.936 478.272C447.256 478.512 447.604 478.692 447.98 478.812C448.356 478.932 448.748 478.992 449.156 478.992C449.524 478.992 449.804 478.932 449.996 478.812C450.188 478.692 450.284 478.524 450.284 478.308C450.284 478.124 450.216 477.98 450.08 477.876C449.944 477.764 449.712 477.668 449.384 477.588L448.376 477.36C447.824 477.24 447.408 477.04 447.128 476.76C446.856 476.472 446.72 476.108 446.72 475.668C446.72 475.3 446.824 474.976 447.032 474.696C447.24 474.408 447.532 474.184 447.908 474.024C448.284 473.864 448.72 473.784 449.216 473.784C449.648 473.784 450.064 473.852 450.464 473.988C450.864 474.116 451.212 474.304 451.508 474.552L451.076 475.584C450.772 475.352 450.46 475.18 450.14 475.068C449.828 474.956 449.516 474.9 449.204 474.9C448.86 474.9 448.592 474.964 448.4 475.092C448.208 475.22 448.112 475.396 448.112 475.62C448.112 475.796 448.168 475.936 448.28 476.04C448.4 476.144 448.604 476.228 448.892 476.292L449.912 476.544C450.512 476.672 450.948 476.88 451.22 477.168C451.5 477.448 451.64 477.82 451.64 478.284C451.64 478.836 451.416 479.276 450.968 479.604C450.52 479.924 449.908 480.084 449.132 480.084ZM461.952 476.004V477.06H456.048V476.004H461.952ZM458.472 473.58H459.528V479.496H458.472V473.58ZM468.817 480V472.728H466.033V471.456H473.161V472.728H470.377V480H468.817ZM473.161 480V475.656C473.161 475.376 473.153 475.092 473.137 474.804C473.129 474.508 473.105 474.22 473.065 473.94H474.481L474.649 475.5L474.481 475.416C474.585 474.88 474.821 474.476 475.189 474.204C475.557 473.932 475.973 473.796 476.437 473.796C476.557 473.796 476.669 473.804 476.773 473.82C476.877 473.836 476.969 473.86 477.049 473.892L477.025 475.26C476.777 475.156 476.513 475.104 476.233 475.104C475.873 475.104 475.577 475.176 475.345 475.32C475.121 475.464 474.949 475.66 474.829 475.908C474.717 476.148 474.661 476.42 474.661 476.724V480H473.161ZM480.107 480.084C479.579 480.084 479.111 479.96 478.703 479.712C478.295 479.456 477.979 479.096 477.755 478.632C477.539 478.16 477.431 477.608 477.431 476.976C477.431 476.336 477.543 475.78 477.767 475.308C477.991 474.828 478.303 474.456 478.703 474.192C479.111 473.92 479.579 473.784 480.107 473.784C480.619 473.784 481.063 473.912 481.439 474.168C481.823 474.416 482.083 474.764 482.219 475.212L482.075 475.296V473.94H483.551V480H482.075V478.632L482.219 478.68C482.083 479.128 481.823 479.476 481.439 479.724C481.063 479.964 480.619 480.084 480.107 480.084ZM480.515 478.932C481.011 478.932 481.395 478.76 481.667 478.416C481.939 478.072 482.075 477.584 482.075 476.952C482.075 476.304 481.939 475.812 481.667 475.476C481.395 475.132 481.011 474.96 480.515 474.96C480.011 474.96 479.619 475.136 479.339 475.488C479.059 475.84 478.919 476.336 478.919 476.976C478.919 477.6 479.059 478.084 479.339 478.428C479.619 478.764 480.011 478.932 480.515 478.932ZM487.921 480.084C487.289 480.084 486.741 479.96 486.277 479.712C485.821 479.456 485.469 479.096 485.221 478.632C484.981 478.16 484.861 477.608 484.861 476.976C484.861 476.336 484.989 475.776 485.245 475.296C485.501 474.816 485.865 474.444 486.337 474.18C486.809 473.916 487.361 473.784 487.993 473.784C488.417 473.784 488.829 473.852 489.229 473.988C489.637 474.124 489.969 474.312 490.225 474.552L489.793 475.608C489.537 475.4 489.265 475.244 488.977 475.14C488.689 475.028 488.401 474.972 488.113 474.972C487.585 474.972 487.165 475.14 486.853 475.476C486.549 475.812 486.397 476.304 486.397 476.952C486.397 477.592 486.549 478.08 486.853 478.416C487.157 478.752 487.581 478.92 488.125 478.92C488.405 478.92 488.689 478.868 488.977 478.764C489.265 478.652 489.537 478.488 489.793 478.272L490.225 479.328C489.961 479.568 489.621 479.756 489.205 479.892C488.797 480.02 488.369 480.084 487.921 480.084ZM496.428 479.328C496.14 479.568 495.784 479.756 495.36 479.892C494.944 480.02 494.52 480.084 494.088 480.084C493.432 480.084 492.864 479.96 492.384 479.712C491.912 479.464 491.548 479.104 491.292 478.632C491.036 478.16 490.908 477.6 490.908 476.952C490.908 476.328 491.032 475.78 491.28 475.308C491.528 474.828 491.872 474.456 492.312 474.192C492.752 473.92 493.26 473.784 493.836 473.784C494.396 473.784 494.876 473.908 495.276 474.156C495.676 474.396 495.984 474.744 496.2 475.2C496.424 475.656 496.536 476.196 496.536 476.82V477.048H492.228L492.24 476.244H495.648L495.24 476.652C495.248 476.068 495.132 475.624 494.892 475.32C494.66 475.016 494.32 474.864 493.872 474.864C493.392 474.864 493.02 475.036 492.756 475.38C492.492 475.716 492.36 476.2 492.36 476.832C492.36 477.552 492.508 478.084 492.804 478.428C493.1 478.764 493.548 478.932 494.148 478.932C494.476 478.932 494.796 478.88 495.108 478.776C495.428 478.664 495.724 478.504 495.996 478.296L496.428 479.328ZM500.026 480.084C498.922 480.084 498.05 479.832 497.41 479.328L497.83 478.272C498.15 478.512 498.498 478.692 498.874 478.812C499.25 478.932 499.642 478.992 500.05 478.992C500.418 478.992 500.698 478.932 500.89 478.812C501.082 478.692 501.178 478.524 501.178 478.308C501.178 478.124 501.11 477.98 500.974 477.876C500.838 477.764 500.606 477.668 500.278 477.588L499.27 477.36C498.718 477.24 498.302 477.04 498.022 476.76C497.75 476.472 497.614 476.108 497.614 475.668C497.614 475.3 497.718 474.976 497.926 474.696C498.134 474.408 498.426 474.184 498.802 474.024C499.178 473.864 499.614 473.784 500.11 473.784C500.542 473.784 500.958 473.852 501.358 473.988C501.758 474.116 502.106 474.304 502.402 474.552L501.97 475.584C501.666 475.352 501.354 475.18 501.034 475.068C500.722 474.956 500.41 474.9 500.098 474.9C499.754 474.9 499.486 474.964 499.294 475.092C499.102 475.22 499.006 475.396 499.006 475.62C499.006 475.796 499.062 475.936 499.174 476.04C499.294 476.144 499.498 476.228 499.786 476.292L500.806 476.544C501.406 476.672 501.842 476.88 502.114 477.168C502.394 477.448 502.534 477.82 502.534 478.284C502.534 478.836 502.31 479.276 501.862 479.604C501.414 479.924 500.802 480.084 500.026 480.084Z" fill="#6F9CEC"/>
<path d="M529.948 480V471.456H531.184L534.412 478.812H533.824L537.028 471.456H538.264V480H536.884L536.872 473.676L537.28 473.772L534.616 480H533.596L530.872 473.772L531.304 473.676L531.316 480H529.948ZM545.207 479.328C544.919 479.568 544.563 479.756 544.139 479.892C543.723 480.02 543.299 480.084 542.867 480.084C542.211 480.084 541.643 479.96 541.163 479.712C540.691 479.464 540.327 479.104 540.071 478.632C539.815 478.16 539.687 477.6 539.687 476.952C539.687 476.328 539.811 475.78 540.059 475.308C540.307 474.828 540.651 474.456 541.091 474.192C541.531 473.92 542.039 473.784 542.615 473.784C543.175 473.784 543.655 473.908 544.055 474.156C544.455 474.396 544.763 474.744 544.979 475.2C545.203 475.656 545.315 476.196 545.315 476.82V477.048H541.007L541.019 476.244H544.427L544.019 476.652C544.027 476.068 543.911 475.624 543.671 475.32C543.439 475.016 543.099 474.864 542.651 474.864C542.171 474.864 541.799 475.036 541.535 475.38C541.271 475.716 541.139 476.2 541.139 476.832C541.139 477.552 541.287 478.084 541.583 478.428C541.879 478.764 542.327 478.932 542.927 478.932C543.255 478.932 543.575 478.88 543.887 478.776C544.207 478.664 544.503 478.504 544.775 478.296L545.207 479.328ZM545.748 475.068V473.94H550.02V475.068H545.748ZM550.02 478.752V479.94C549.86 479.996 549.7 480.032 549.54 480.048C549.388 480.072 549.224 480.084 549.048 480.084C548.368 480.084 547.84 479.892 547.464 479.508C547.096 479.124 546.912 478.572 546.912 477.852V472.464L548.412 471.96V477.78C548.412 478.052 548.456 478.268 548.544 478.428C548.632 478.58 548.748 478.688 548.892 478.752C549.044 478.816 549.212 478.848 549.396 478.848C549.5 478.848 549.6 478.84 549.696 478.824C549.792 478.808 549.9 478.784 550.02 478.752ZM551.038 480V475.656C551.038 475.376 551.03 475.092 551.014 474.804C551.006 474.508 550.982 474.22 550.942 473.94H552.358L552.526 475.5L552.358 475.416C552.462 474.88 552.698 474.476 553.066 474.204C553.434 473.932 553.85 473.796 554.314 473.796C554.434 473.796 554.546 473.804 554.65 473.82C554.754 473.836 554.846 473.86 554.926 473.892L554.902 475.26C554.654 475.156 554.39 475.104 554.11 475.104C553.75 475.104 553.454 475.176 553.222 475.32C552.998 475.464 552.826 475.66 552.706 475.908C552.594 476.148 552.538 476.42 552.538 476.724V480H551.038ZM555.738 480V473.94H557.238V480H555.738ZM555.666 471.192H557.334V472.668H555.666V471.192ZM561.603 480.084C560.971 480.084 560.423 479.96 559.959 479.712C559.503 479.456 559.151 479.096 558.903 478.632C558.663 478.16 558.543 477.608 558.543 476.976C558.543 476.336 558.671 475.776 558.927 475.296C559.183 474.816 559.547 474.444 560.019 474.18C560.491 473.916 561.043 473.784 561.675 473.784C562.099 473.784 562.511 473.852 562.911 473.988C563.319 474.124 563.651 474.312 563.907 474.552L563.475 475.608C563.219 475.4 562.947 475.244 562.659 475.14C562.371 475.028 562.083 474.972 561.795 474.972C561.267 474.972 560.847 475.14 560.535 475.476C560.231 475.812 560.079 476.304 560.079 476.952C560.079 477.592 560.231 478.08 560.535 478.416C560.839 478.752 561.263 478.92 561.807 478.92C562.087 478.92 562.371 478.868 562.659 478.764C562.947 478.652 563.219 478.488 563.475 478.272L563.907 479.328C563.643 479.568 563.303 479.756 562.887 479.892C562.479 480.02 562.051 480.084 561.603 480.084ZM567.134 480.084C566.03 480.084 565.158 479.832 564.518 479.328L564.938 478.272C565.258 478.512 565.606 478.692 565.982 478.812C566.358 478.932 566.75 478.992 567.158 478.992C567.526 478.992 567.806 478.932 567.998 478.812C568.19 478.692 568.286 478.524 568.286 478.308C568.286 478.124 568.218 477.98 568.082 477.876C567.946 477.764 567.714 477.668 567.386 477.588L566.378 477.36C565.826 477.24 565.41 477.04 565.13 476.76C564.858 476.472 564.722 476.108 564.722 475.668C564.722 475.3 564.826 474.976 565.034 474.696C565.242 474.408 565.534 474.184 565.91 474.024C566.286 473.864 566.722 473.784 567.218 473.784C567.65 473.784 568.066 473.852 568.466 473.988C568.866 474.116 569.214 474.304 569.51 474.552L569.078 475.584C568.774 475.352 568.462 475.18 568.142 475.068C567.83 474.956 567.518 474.9 567.206 474.9C566.862 474.9 566.594 474.964 566.402 475.092C566.21 475.22 566.114 475.396 566.114 475.62C566.114 475.796 566.17 475.936 566.282 476.04C566.402 476.144 566.606 476.228 566.894 476.292L567.914 476.544C568.514 476.672 568.95 476.88 569.222 477.168C569.502 477.448 569.642 477.82 569.642 478.284C569.642 478.836 569.418 479.276 568.97 479.604C568.522 479.924 567.91 480.084 567.134 480.084Z" fill="#E2C898"/>
<path d="M449.243 448L452.778 451.536C453.169 451.926 453.169 452.559 452.778 452.95L449.243 456.485" stroke="#6AACF1" stroke-width="2" stroke-linecap="round" stroke-linejoin="round"/>
<path d="M565.243 448L569.485 452.243L565.243 456.485" stroke="#E2C898" stroke-width="2" stroke-linecap="round" stroke-linejoin="round"/>
<path d="M325.243 344L329.485 348.243L325.243 352.485" stroke="#E2C898" stroke-width="2" stroke-linecap="round" stroke-linejoin="round"/>
<path d="M174.243 460L178.485 464.243L174.243 468.485" stroke="#E2C898" stroke-width="2" stroke-linecap="round" stroke-linejoin="round"/>
<path d="M762.243 460L766.485 464.243L762.243 468.485" stroke="#E2C898" stroke-width="2" stroke-linecap="round" stroke-linejoin="round"/>
<path d="M474.243 344L470 348.243L474.243 352.485" stroke="#E2C898" stroke-width="2" stroke-linecap="round" stroke-linejoin="round"/>
<path d="M475.243 234.485L471.707 230.95C471.317 230.559 471.317 229.926 471.707 229.536L475.243 226" stroke="#6AACF1" stroke-width="2" stroke-linecap="round" stroke-linejoin="round"/>
<path d="M659.243 285.485L655.707 281.95C655.317 281.559 655.317 280.926 655.707 280.536L659.243 277" stroke="#6AACF1" stroke-width="2" stroke-linecap="round" stroke-linejoin="round"/>
<path d="M158.485 277.243L154.95 280.778C154.559 281.169 153.926 281.169 153.536 280.778L150 277.243" stroke="#6AACF1" stroke-width="2" stroke-linecap="round" stroke-linejoin="round"/>
<path d="M746.485 277.243L742.95 280.778C742.559 281.169 741.926 281.169 741.536 280.778L738 277.243" stroke="#6AACF1" stroke-width="2" stroke-linecap="round" stroke-linejoin="round"/>
<path d="M325.243 228L328.778 231.536C329.169 231.926 329.169 232.559 328.778 232.95L325.243 236.485" stroke="#6AACF1" stroke-width="2" stroke-linecap="round" stroke-linejoin="round"/>
<path d="M154 248V276" stroke="#6AACF1" stroke-width="2" stroke-linecap="round" stroke-linejoin="round" stroke-dasharray="1 9 5 9"/>
<path d="M742 248V276" stroke="#6AACF1" stroke-width="2" stroke-linecap="round" stroke-linejoin="round" stroke-dasharray="1 9 5 9"/>
<path d="M412 452H444" stroke="#6AACF1" stroke-width="2" stroke-linecap="round" stroke-linejoin="round" stroke-dasharray="1 9 5 9"/>
<path d="M529 452H561" stroke="#E2C898" stroke-width="2" stroke-linecap="round" stroke-linejoin="round" stroke-dasharray="1 5"/>
<path d="M265 348H329" stroke="#E2C898" stroke-width="2" stroke-linecap="round" stroke-linejoin="round" stroke-dasharray="1 5"/>
<path d="M154 417V445.5C154 455.717 162.283 464 172.5 464V464" stroke="#E2C898" stroke-width="2" stroke-linecap="round" stroke-linejoin="round" stroke-dasharray="1 5"/>
<path d="M742 417V445.5C742 455.717 750.283 464 760.5 464V464" stroke="#E2C898" stroke-width="2" stroke-linecap="round" stroke-linejoin="round" stroke-dasharray="1 5"/>
<path d="M474.985 348V348C485.203 348 493.485 339.717 493.485 329.5V320.015C493.485 305.923 504.909 294.5 519 294.5V294.5" stroke="#E2C898" stroke-width="2" stroke-linecap="round" stroke-linejoin="round" stroke-dasharray="1 5"/>
<path d="M475.985 230.485V230.485C486.203 230.485 494.485 238.768 494.485 248.985V258.471C494.485 272.562 505.909 283.985 520 283.985V283.985" stroke="#6AACF1" stroke-width="2" stroke-linecap="round" stroke-linejoin="round" stroke-dasharray="1 9 5 9"/>
<path d="M659.985 281.485V281.485C673.248 281.485 684 292.237 684 305.5V315.493C684 334.274 699.226 349.5 718.007 349.5H718.5" stroke="#6AACF1" stroke-width="2" stroke-linecap="round" stroke-linejoin="round" stroke-dasharray="1 9 5 9"/>
<path d="M265 337.5V337.5C285.158 337.5 301.5 321.158 301.5 301V255.5C301.5 242.521 312.021 232 325 232V232" stroke="#6AACF1" stroke-width="2" stroke-linecap="round" stroke-linejoin="round" stroke-dasharray="1 9 5 9"/>
<defs>
<filter id="filter0_d" x="100" y="271" width="192" height="192" filterUnits="userSpaceOnUse" color-interpolation-filters="sRGB">
<feFlood flood-opacity="0" result="BackgroundImageFix"/>
<feColorMatrix in="SourceAlpha" type="matrix" values="0 0 0 0 0 0 0 0 0 0 0 0 0 0 0 0 0 0 127 0"/>
<feMorphology radius="4" operator="erode" in="SourceAlpha" result="effect1_dropShadow"/>
<feOffset dy="18"/>
<feGaussianBlur stdDeviation="17"/>
<feColorMatrix type="matrix" values="0 0 0 0 0.205927 0 0 0 0 0.32894 0 0 0 0 0.51346 0 0 0 0.15 0"/>
<feBlend mode="multiply" in2="BackgroundImageFix" result="effect1_dropShadow"/>
<feBlend mode="normal" in="SourceGraphic" in2="effect1_dropShadow" result="shape"/>
</filter>
<filter id="filter1_d" x="692" y="270" width="192" height="192" filterUnits="userSpaceOnUse" color-interpolation-filters="sRGB">
<feFlood flood-opacity="0" result="BackgroundImageFix"/>
<feColorMatrix in="SourceAlpha" type="matrix" values="0 0 0 0 0 0 0 0 0 0 0 0 0 0 0 0 0 0 127 0"/>
<feMorphology radius="4" operator="erode" in="SourceAlpha" result="effect1_dropShadow"/>
<feOffset dy="18"/>
<feGaussianBlur stdDeviation="17"/>
<feColorMatrix type="matrix" values="0 0 0 0 0.447059 0 0 0 0 0.568627 0 0 0 0 0.909804 0 0 0 0.34 0"/>
<feBlend mode="multiply" in2="BackgroundImageFix" result="effect1_dropShadow"/>
<feBlend mode="normal" in="SourceGraphic" in2="effect1_dropShadow" result="shape"/>
</filter>
<filter id="filter2_d" x="490" y="203" width="192" height="192" filterUnits="userSpaceOnUse" color-interpolation-filters="sRGB">
<feFlood flood-opacity="0" result="BackgroundImageFix"/>
<feColorMatrix in="SourceAlpha" type="matrix" values="0 0 0 0 0 0 0 0 0 0 0 0 0 0 0 0 0 0 127 0"/>
<feMorphology radius="4" operator="erode" in="SourceAlpha" result="effect1_dropShadow"/>
<feOffset dy="18"/>
<feGaussianBlur stdDeviation="17"/>
<feColorMatrix type="matrix" values="0 0 0 0 0.321569 0 0 0 0 0.780392 0 0 0 0 0.858824 0 0 0 0.34 0"/>
<feBlend mode="multiply" in2="BackgroundImageFix" result="effect1_dropShadow"/>
<feBlend mode="normal" in="SourceGraphic" in2="effect1_dropShadow" result="shape"/>
</filter>
<filter id="filter3_i" x="130" y="116" width="135" height="133" filterUnits="userSpaceOnUse" color-interpolation-filters="sRGB">
<feFlood flood-opacity="0" result="BackgroundImageFix"/>
<feBlend mode="normal" in="SourceGraphic" in2="BackgroundImageFix" result="shape"/>
<feColorMatrix in="SourceAlpha" type="matrix" values="0 0 0 0 0 0 0 0 0 0 0 0 0 0 0 0 0 0 127 0" result="hardAlpha"/>
<feMorphology radius="4" operator="dilate" in="SourceAlpha" result="effect1_innerShadow"/>
<feOffset dx="3" dy="3"/>
<feGaussianBlur stdDeviation="5"/>
<feComposite in2="hardAlpha" operator="arithmetic" k2="-1" k3="1"/>
<feColorMatrix type="matrix" values="0 0 0 0 0.949398 0 0 0 0 0.771846 0 0 0 0 0.444057 0 0 0 1 0"/>
<feBlend mode="normal" in2="shape" result="effect1_innerShadow"/>
</filter>
<filter id="filter4_i" x="723" y="116" width="132" height="133" filterUnits="userSpaceOnUse" color-interpolation-filters="sRGB">
<feFlood flood-opacity="0" result="BackgroundImageFix"/>
<feBlend mode="normal" in="SourceGraphic" in2="BackgroundImageFix" result="shape"/>
<feColorMatrix in="SourceAlpha" type="matrix" values="0 0 0 0 0 0 0 0 0 0 0 0 0 0 0 0 0 0 127 0" result="hardAlpha"/>
<feMorphology radius="4" operator="dilate" in="SourceAlpha" result="effect1_innerShadow"/>
<feOffset dx="3" dy="3"/>
<feGaussianBlur stdDeviation="5"/>
<feComposite in2="hardAlpha" operator="arithmetic" k2="-1" k3="1"/>
<feColorMatrix type="matrix" values="0 0 0 0 0.949398 0 0 0 0 0.771846 0 0 0 0 0.444057 0 0 0 1 0"/>
<feBlend mode="normal" in2="shape" result="effect1_innerShadow"/>
</filter>
<linearGradient id="paint0_linear" x1="262" y1="425.617" x2="203.198" y2="256.137" gradientUnits="userSpaceOnUse">
<stop stop-color="#777CE0"/>
<stop offset="1" stop-color="#60CEFD"/>
</linearGradient>
<linearGradient id="paint1_linear" x1="854" y1="424.617" x2="795.198" y2="255.137" gradientUnits="userSpaceOnUse">
<stop stop-color="#777CE0"/>
<stop offset="1" stop-color="#60CEFD"/>
</linearGradient>
<linearGradient id="paint2_linear" x1="520" y1="361.061" x2="589.393" y2="186.064" gradientUnits="userSpaceOnUse">
<stop stop-color="#3DB2D7"/>
<stop offset="1" stop-color="#71E5DE"/>
</linearGradient>
<linearGradient id="paint3_linear" x1="141.647" y1="248.478" x2="137.358" y2="197.455" gradientUnits="userSpaceOnUse">
<stop stop-color="#FFC557"/>
<stop offset="1" stop-color="#FFD586"/>
</linearGradient>
<linearGradient id="paint4_linear" x1="733.382" y1="248.478" x2="728.994" y2="197.472" gradientUnits="userSpaceOnUse">
<stop stop-color="#FFC557"/>
<stop offset="1" stop-color="#FFD586"/>
</linearGradient>
</defs>
</svg>
