<svg width="984" height="698" viewBox="0 0 984 698" fill="none" xmlns="http://www.w3.org/2000/svg">
<rect width="984" height="698" fill="white"/>
<path d="M106.564 624.848H103.236V634H90.964V597.6H108.488C111.851 597.6 114.78 598.155 117.276 599.264C119.772 600.373 121.696 601.968 123.048 604.048C124.4 606.128 125.076 608.555 125.076 611.328C125.076 613.928 124.487 616.199 123.308 618.14C122.129 620.081 120.431 621.624 118.212 622.768L125.856 634H112.752L106.564 624.848ZM112.7 611.328C112.7 609.976 112.284 608.936 111.452 608.208C110.62 607.445 109.372 607.064 107.708 607.064H103.236V615.592H107.708C109.372 615.592 110.62 615.228 111.452 614.5C112.284 613.737 112.7 612.68 112.7 611.328ZM161.014 624.744V634H130.75V597.6H160.338V606.856H142.814V611.12H158.206V619.96H142.814V624.744H161.014ZM179.05 606.856V613.096H194.234V622.352H179.05V634H166.778V597.6H196.366V606.856H179.05ZM231.547 624.744V634H201.283V597.6H230.871V606.856H213.347V611.12H228.739V619.96H213.347V624.744H231.547ZM252.912 624.848H249.584V634H237.312V597.6H254.836C258.198 597.6 261.128 598.155 263.624 599.264C266.12 600.373 268.044 601.968 269.396 604.048C270.748 606.128 271.424 608.555 271.424 611.328C271.424 613.928 270.834 616.199 269.656 618.14C268.477 620.081 266.778 621.624 264.56 622.768L272.204 634H259.1L252.912 624.848ZM259.048 611.328C259.048 609.976 258.632 608.936 257.8 608.208C256.968 607.445 255.72 607.064 254.056 607.064H249.584V615.592H254.056C255.72 615.592 256.968 615.228 257.8 614.5C258.632 613.737 259.048 612.68 259.048 611.328ZM307.362 624.744V634H277.098V597.6H306.686V606.856H289.162V611.12H304.554V619.96H289.162V624.744H307.362ZM349.006 597.6V634H338.918L325.086 617.464V634H313.126V597.6H323.214L337.046 614.136V597.6H349.006ZM374.783 634.832C370.935 634.832 367.468 634.035 364.383 632.44C361.298 630.811 358.871 628.557 357.103 625.68C355.37 622.768 354.503 619.475 354.503 615.8C354.503 612.125 355.37 608.849 357.103 605.972C358.871 603.06 361.298 600.807 364.383 599.212C367.468 597.583 370.935 596.768 374.783 596.768C378.319 596.768 381.474 597.392 384.247 598.64C387.02 599.888 389.308 601.691 391.111 604.048L383.363 610.964C381.11 608.121 378.458 606.7 375.407 606.7C372.842 606.7 370.779 607.532 369.219 609.196C367.659 610.825 366.879 613.027 366.879 615.8C366.879 618.573 367.659 620.792 369.219 622.456C370.779 624.085 372.842 624.9 375.407 624.9C378.458 624.9 381.11 623.479 383.363 620.636L391.111 627.552C389.308 629.909 387.02 631.712 384.247 632.96C381.474 634.208 378.319 634.832 374.783 634.832ZM425.958 624.744V634H395.694V597.6H425.282V606.856H407.758V611.12H423.15V619.96H407.758V624.744H425.958ZM473.156 627.656H459.324L456.88 634H444.4L460.312 597.6H472.376L488.288 634H475.6L473.156 627.656ZM469.776 618.816L466.24 609.664L462.704 618.816H469.776ZM506.887 624.848H503.559V634H491.287V597.6H508.811C512.173 597.6 515.103 598.155 517.599 599.264C520.095 600.373 522.019 601.968 523.371 604.048C524.723 606.128 525.399 608.555 525.399 611.328C525.399 613.928 524.809 616.199 523.631 618.14C522.452 620.081 520.753 621.624 518.535 622.768L526.179 634H513.075L506.887 624.848ZM513.023 611.328C513.023 609.976 512.607 608.936 511.775 608.208C510.943 607.445 509.695 607.064 508.031 607.064H503.559V615.592H508.031C509.695 615.592 510.943 615.228 511.775 614.5C512.607 613.737 513.023 612.68 513.023 611.328ZM549.897 634.832C546.049 634.832 542.582 634.035 539.497 632.44C536.412 630.811 533.985 628.557 532.217 625.68C530.484 622.768 529.617 619.475 529.617 615.8C529.617 612.125 530.484 608.849 532.217 605.972C533.985 603.06 536.412 600.807 539.497 599.212C542.582 597.583 546.049 596.768 549.897 596.768C553.433 596.768 556.588 597.392 559.361 598.64C562.134 599.888 564.422 601.691 566.225 604.048L558.477 610.964C556.224 608.121 553.572 606.7 550.521 606.7C547.956 606.7 545.893 607.532 544.333 609.196C542.773 610.825 541.993 613.027 541.993 615.8C541.993 618.573 542.773 620.792 544.333 622.456C545.893 624.085 547.956 624.9 550.521 624.9C553.572 624.9 556.224 623.479 558.477 620.636L566.225 627.552C564.422 629.909 562.134 631.712 559.361 632.96C556.588 634.208 553.433 634.832 549.897 634.832ZM606.688 597.6V634H594.416V620.584H583.08V634H570.808V597.6H583.08V610.496H594.416V597.6H606.688ZM613.641 597.6H625.913V634H613.641V597.6ZM640.765 607.116H630.105V597.6H663.697V607.116H653.037V634H640.765V607.116ZM698.188 624.744V634H667.924V597.6H697.512V606.856H679.988V611.12H695.38V619.96H679.988V624.744H698.188ZM722.777 634.832C718.929 634.832 715.462 634.035 712.377 632.44C709.291 630.811 706.865 628.557 705.097 625.68C703.363 622.768 702.497 619.475 702.497 615.8C702.497 612.125 703.363 608.849 705.097 605.972C706.865 603.06 709.291 600.807 712.377 599.212C715.462 597.583 718.929 596.768 722.777 596.768C726.313 596.768 729.467 597.392 732.241 598.64C735.014 599.888 737.302 601.691 739.105 604.048L731.357 610.964C729.103 608.121 726.451 606.7 723.401 606.7C720.835 606.7 718.773 607.532 717.213 609.196C715.653 610.825 714.873 613.027 714.873 615.8C714.873 618.573 715.653 620.792 717.213 622.456C718.773 624.085 720.835 624.9 723.401 624.9C726.451 624.9 729.103 623.479 731.357 620.636L739.105 627.552C737.302 629.909 735.014 631.712 732.241 632.96C729.467 634.208 726.313 634.832 722.777 634.832ZM751.338 607.116H740.678V597.6H774.27V607.116H763.61V634H751.338V607.116ZM795.41 634.832C789.828 634.832 785.478 633.324 782.358 630.308C779.238 627.292 777.678 623.063 777.678 617.62V597.6H789.95V617.256C789.95 619.925 790.418 621.867 791.354 623.08C792.324 624.293 793.711 624.9 795.514 624.9C797.316 624.9 798.686 624.293 799.622 623.08C800.592 621.867 801.078 619.925 801.078 617.256V597.6H813.142V617.62C813.142 623.063 811.582 627.292 808.462 630.308C805.342 633.324 800.991 634.832 795.41 634.832ZM835.407 624.848H832.079V634H819.807V597.6H837.331C840.694 597.6 843.623 598.155 846.119 599.264C848.615 600.373 850.539 601.968 851.891 604.048C853.243 606.128 853.919 608.555 853.919 611.328C853.919 613.928 853.33 616.199 852.151 618.14C850.972 620.081 849.274 621.624 847.055 622.768L854.699 634H841.595L835.407 624.848ZM841.543 611.328C841.543 609.976 841.127 608.936 840.295 608.208C839.463 607.445 838.215 607.064 836.551 607.064H832.079V615.592H836.551C838.215 615.592 839.463 615.228 840.295 614.5C841.127 613.737 841.543 612.68 841.543 611.328ZM889.857 624.744V634H859.593V597.6H889.181V606.856H871.657V611.12H887.049V619.96H871.657V624.744H889.857Z" fill="black"/>
<rect x="118" y="97" width="167" height="403" rx="10" fill="#FFF2DA"/>
<rect x="710" y="97" width="167" height="403" rx="10" fill="#FFF2DA"/>
<rect opacity="0.2" x="118" y="97" width="759" height="403" rx="10" fill="#FFF2DA"/>
<g filter="url(#filter0_d)">
<rect x="136" y="285" width="132" height="132" rx="10" fill="url(#paint0_linear)"/>
</g>
<g filter="url(#filter1_d)">
<rect x="728" y="284" width="132" height="132" rx="10" fill="url(#paint1_linear)"/>
</g>
<g filter="url(#filter2_d)">
<rect x="526" y="217" width="132" height="132" rx="10" fill="url(#paint2_linear)"/>
</g>
<rect x="337" y="201" width="137" height="62" rx="8" stroke="#D4D7E4" stroke-width="2" stroke-linecap="round" stroke-linejoin="round" stroke-dasharray="4 6"/>
<rect x="337" y="319" width="137" height="62" rx="8" stroke="#D4D7E4" stroke-width="2" stroke-linecap="round" stroke-linejoin="round" stroke-dasharray="4 6"/>
<g filter="url(#filter3_i)">
<rect x="136" y="118" width="132" height="130" rx="7" fill="#F8E7C6"/>
</g>
<g filter="url(#filter4_i)">
<rect x="729" y="118" width="129" height="130" rx="7" fill="#F8E7C6"/>
</g>
<rect x="136" y="191" width="132" height="57" rx="7" fill="url(#paint3_linear)"/>
<rect x="728" y="191" width="129" height="57" rx="7" fill="url(#paint4_linear)"/>
<path d="M175.262 162H177.459L173.572 152.9H171.453L167.501 162H169.62L170.335 160.232H174.547L175.262 162ZM171.011 158.581L172.454 155.045L173.884 158.581H171.011ZM182.643 154.941C181.694 154.941 180.927 155.331 180.433 156.033V155.006H178.431V164.522H180.433V160.986C180.94 161.688 181.707 162.078 182.682 162.078C184.645 162.078 185.932 160.661 185.932 158.542C185.932 156.384 184.606 154.941 182.643 154.941ZM182.175 160.414C181.148 160.414 180.433 159.634 180.433 158.477C180.433 157.346 181.148 156.553 182.175 156.553C183.202 156.553 183.904 157.359 183.904 158.477C183.904 159.621 183.202 160.414 182.175 160.414ZM191.53 154.941C190.581 154.941 189.814 155.331 189.32 156.033V155.006H187.318V164.522H189.32V160.986C189.827 161.688 190.594 162.078 191.569 162.078C193.532 162.078 194.819 160.661 194.819 158.542C194.819 156.384 193.493 154.941 191.53 154.941ZM191.062 160.414C190.035 160.414 189.32 159.634 189.32 158.477C189.32 157.346 190.035 156.553 191.062 156.553C192.089 156.553 192.791 157.359 192.791 158.477C192.791 159.621 192.089 160.414 191.062 160.414ZM196.204 152.354V162H198.206V152.354H196.204ZM201.215 152.016C200.643 152.016 200.24 152.432 200.24 153.017C200.24 153.589 200.643 154.018 201.215 154.018C201.787 154.018 202.19 153.589 202.19 153.017C202.19 152.432 201.787 152.016 201.215 152.016ZM200.214 155.006V162H202.216V155.006H200.214ZM208.804 157.385L210.156 156.41C209.532 155.474 208.466 154.941 207.127 154.941C204.982 154.941 203.539 156.384 203.539 158.529C203.539 160.648 204.982 162.078 207.101 162.078C208.531 162.078 209.623 161.506 210.208 160.531L208.83 159.595C208.479 160.141 207.92 160.414 207.205 160.414C206.23 160.414 205.541 159.647 205.541 158.516C205.541 157.398 206.23 156.644 207.205 156.644C207.894 156.631 208.427 156.917 208.804 157.385ZM217.304 162L217.291 157.437C217.278 155.864 216.199 154.928 214.327 154.928C213.105 154.928 212.208 155.214 211.168 155.734L211.792 157.112C212.52 156.709 213.248 156.501 213.872 156.501C214.834 156.501 215.328 156.93 215.328 157.671V157.801H213.404C211.688 157.814 210.739 158.594 210.739 159.907C210.739 161.181 211.649 162.091 213.144 162.091C214.119 162.091 214.873 161.766 215.341 161.181V162H217.304ZM213.703 160.661C213.027 160.661 212.611 160.31 212.611 159.777C212.611 159.218 212.988 158.984 213.755 158.984H215.328V159.608C215.211 160.206 214.548 160.661 213.703 160.661ZM222.942 160.141C222.578 160.31 222.266 160.401 222.006 160.401C221.577 160.414 221.33 160.18 221.33 159.595V156.709H223.228V155.318H221.33V153.394H219.341V155.318H218.366V156.696H219.341V159.933C219.341 161.376 220.29 162.091 221.538 162.091C222.188 162.091 222.838 161.909 223.358 161.61L222.942 160.141ZM225.565 152.016C224.993 152.016 224.59 152.432 224.59 153.017C224.59 153.589 224.993 154.018 225.565 154.018C226.137 154.018 226.54 153.589 226.54 153.017C226.54 152.432 226.137 152.016 225.565 152.016ZM224.564 155.006V162H226.566V155.006H224.564ZM231.646 154.941C229.397 154.941 227.889 156.358 227.889 158.503C227.889 160.635 229.397 162.078 231.646 162.078C233.882 162.078 235.39 160.635 235.39 158.503C235.39 156.358 233.882 154.941 231.646 154.941ZM231.646 156.605C232.673 156.605 233.388 157.385 233.388 158.529C233.388 159.673 232.673 160.453 231.646 160.453C230.606 160.453 229.891 159.673 229.891 158.529C229.891 157.385 230.606 156.605 231.646 156.605ZM241.133 154.928C240.041 154.941 239.209 155.357 238.715 156.228V155.006H236.713V162H238.715V158.555C238.715 157.528 239.313 156.774 240.314 156.761C241.172 156.761 241.692 157.307 241.692 158.191V162H243.694V157.606C243.694 155.968 242.693 154.928 241.133 154.928Z" fill="#BB9956"/>
<path d="M763.262 162H765.459L761.572 152.9H759.453L755.501 162H757.62L758.335 160.232H762.547L763.262 162ZM759.011 158.581L760.454 155.045L761.884 158.581H759.011ZM770.643 154.941C769.694 154.941 768.927 155.331 768.433 156.033V155.006H766.431V164.522H768.433V160.986C768.94 161.688 769.707 162.078 770.682 162.078C772.645 162.078 773.932 160.661 773.932 158.542C773.932 156.384 772.606 154.941 770.643 154.941ZM770.175 160.414C769.148 160.414 768.433 159.634 768.433 158.477C768.433 157.346 769.148 156.553 770.175 156.553C771.202 156.553 771.904 157.359 771.904 158.477C771.904 159.621 771.202 160.414 770.175 160.414ZM779.53 154.941C778.581 154.941 777.814 155.331 777.32 156.033V155.006H775.318V164.522H777.32V160.986C777.827 161.688 778.594 162.078 779.569 162.078C781.532 162.078 782.819 160.661 782.819 158.542C782.819 156.384 781.493 154.941 779.53 154.941ZM779.062 160.414C778.035 160.414 777.32 159.634 777.32 158.477C777.32 157.346 778.035 156.553 779.062 156.553C780.089 156.553 780.791 157.359 780.791 158.477C780.791 159.621 780.089 160.414 779.062 160.414ZM784.204 152.354V162H786.206V152.354H784.204ZM789.215 152.016C788.643 152.016 788.24 152.432 788.24 153.017C788.24 153.589 788.643 154.018 789.215 154.018C789.787 154.018 790.19 153.589 790.19 153.017C790.19 152.432 789.787 152.016 789.215 152.016ZM788.214 155.006V162H790.216V155.006H788.214ZM796.804 157.385L798.156 156.41C797.532 155.474 796.466 154.941 795.127 154.941C792.982 154.941 791.539 156.384 791.539 158.529C791.539 160.648 792.982 162.078 795.101 162.078C796.531 162.078 797.623 161.506 798.208 160.531L796.83 159.595C796.479 160.141 795.92 160.414 795.205 160.414C794.23 160.414 793.541 159.647 793.541 158.516C793.541 157.398 794.23 156.644 795.205 156.644C795.894 156.631 796.427 156.917 796.804 157.385ZM805.304 162L805.291 157.437C805.278 155.864 804.199 154.928 802.327 154.928C801.105 154.928 800.208 155.214 799.168 155.734L799.792 157.112C800.52 156.709 801.248 156.501 801.872 156.501C802.834 156.501 803.328 156.93 803.328 157.671V157.801H801.404C799.688 157.814 798.739 158.594 798.739 159.907C798.739 161.181 799.649 162.091 801.144 162.091C802.119 162.091 802.873 161.766 803.341 161.181V162H805.304ZM801.703 160.661C801.027 160.661 800.611 160.31 800.611 159.777C800.611 159.218 800.988 158.984 801.755 158.984H803.328V159.608C803.211 160.206 802.548 160.661 801.703 160.661ZM810.942 160.141C810.578 160.31 810.266 160.401 810.006 160.401C809.577 160.414 809.33 160.18 809.33 159.595V156.709H811.228V155.318H809.33V153.394H807.341V155.318H806.366V156.696H807.341V159.933C807.341 161.376 808.29 162.091 809.538 162.091C810.188 162.091 810.838 161.909 811.358 161.61L810.942 160.141ZM813.565 152.016C812.993 152.016 812.59 152.432 812.59 153.017C812.59 153.589 812.993 154.018 813.565 154.018C814.137 154.018 814.54 153.589 814.54 153.017C814.54 152.432 814.137 152.016 813.565 152.016ZM812.564 155.006V162H814.566V155.006H812.564ZM819.646 154.941C817.397 154.941 815.889 156.358 815.889 158.503C815.889 160.635 817.397 162.078 819.646 162.078C821.882 162.078 823.39 160.635 823.39 158.503C823.39 156.358 821.882 154.941 819.646 154.941ZM819.646 156.605C820.673 156.605 821.388 157.385 821.388 158.529C821.388 159.673 820.673 160.453 819.646 160.453C818.606 160.453 817.891 159.673 817.891 158.529C817.891 157.385 818.606 156.605 819.646 156.605ZM829.133 154.928C828.041 154.941 827.209 155.357 826.715 156.228V155.006H824.713V162H826.715V158.555C826.715 157.528 827.313 156.774 828.314 156.761C829.172 156.761 829.692 157.307 829.692 158.191V162H831.694V157.606C831.694 155.968 830.693 154.928 829.133 154.928Z" fill="#BB9956"/>
<path d="M161.072 359.835C158.29 359.835 156.184 361.798 156.184 364.45C156.184 367.089 158.29 369.091 161.072 369.091C163.854 369.091 165.96 367.076 165.96 364.45C165.96 361.811 163.854 359.835 161.072 359.835ZM161.098 361.629C162.619 361.629 163.854 362.851 163.854 364.45C163.854 366.049 162.619 367.297 161.098 367.297C159.577 367.297 158.29 366.049 158.29 364.45C158.29 362.851 159.564 361.629 161.098 361.629ZM166.157 359.9V361.642H168.926V369H170.98V361.642H173.762V359.9H166.157ZM176.963 361.941C174.831 361.941 173.362 363.371 173.362 365.529C173.362 367.648 174.779 369.078 177.015 369.078C178.276 369.078 179.303 368.623 180.005 367.843L178.952 366.777C178.471 367.258 177.847 367.518 177.184 367.518C176.287 367.518 175.611 366.998 175.377 366.114H180.395C180.564 363.566 179.42 361.941 176.963 361.941ZM175.338 364.931C175.494 364.008 176.092 363.41 176.976 363.41C177.899 363.41 178.497 364.008 178.523 364.931H175.338ZM181.781 359.354V369H183.783V359.354H181.781ZM196.319 362.799L197.515 361.343C196.618 360.42 195.24 359.835 193.927 359.835C191.171 359.835 189.078 361.811 189.078 364.437C189.078 367.076 191.132 369.091 193.849 369.091C195.175 369.091 196.566 368.454 197.528 367.466L196.319 366.153C195.669 366.803 194.772 367.219 193.953 367.219C192.393 367.219 191.184 365.997 191.184 364.411C191.184 362.825 192.393 361.616 193.953 361.616C194.798 361.616 195.695 362.084 196.319 362.799ZM201.709 361.941C199.46 361.941 197.952 363.358 197.952 365.503C197.952 367.635 199.46 369.078 201.709 369.078C203.945 369.078 205.453 367.635 205.453 365.503C205.453 363.358 203.945 361.941 201.709 361.941ZM201.709 363.605C202.736 363.605 203.451 364.385 203.451 365.529C203.451 366.673 202.736 367.453 201.709 367.453C200.669 367.453 199.954 366.673 199.954 365.529C199.954 364.385 200.669 363.605 201.709 363.605ZM206.842 359.354V369H208.844V359.354H206.842ZM210.917 359.354V369H212.919V359.354H210.917ZM217.93 361.941C215.798 361.941 214.329 363.371 214.329 365.529C214.329 367.648 215.746 369.078 217.982 369.078C219.243 369.078 220.27 368.623 220.972 367.843L219.919 366.777C219.438 367.258 218.814 367.518 218.151 367.518C217.254 367.518 216.578 366.998 216.344 366.114H221.362C221.531 363.566 220.387 361.941 217.93 361.941ZM216.305 364.931C216.461 364.008 217.059 363.41 217.943 363.41C218.866 363.41 219.464 364.008 219.49 364.931H216.305ZM227.351 364.385L228.703 363.41C228.079 362.474 227.013 361.941 225.674 361.941C223.529 361.941 222.086 363.384 222.086 365.529C222.086 367.648 223.529 369.078 225.648 369.078C227.078 369.078 228.17 368.506 228.755 367.531L227.377 366.595C227.026 367.141 226.467 367.414 225.752 367.414C224.777 367.414 224.088 366.647 224.088 365.516C224.088 364.398 224.777 363.644 225.752 363.644C226.441 363.631 226.974 363.917 227.351 364.385ZM233.922 367.141C233.558 367.31 233.246 367.401 232.986 367.401C232.557 367.414 232.31 367.18 232.31 366.595V363.709H234.208V362.318H232.31V360.394H230.321V362.318H229.346V363.696H230.321V366.933C230.321 368.376 231.27 369.091 232.518 369.091C233.168 369.091 233.818 368.909 234.338 368.61L233.922 367.141ZM238.653 361.941C236.404 361.941 234.896 363.358 234.896 365.503C234.896 367.635 236.404 369.078 238.653 369.078C240.889 369.078 242.397 367.635 242.397 365.503C242.397 363.358 240.889 361.941 238.653 361.941ZM238.653 363.605C239.68 363.605 240.395 364.385 240.395 365.529C240.395 366.673 239.68 367.453 238.653 367.453C237.613 367.453 236.898 366.673 236.898 365.529C236.898 364.385 237.613 363.605 238.653 363.605ZM245.722 363.267V362.006H243.72V369H245.722V365.633C245.722 364.45 246.606 363.683 248.036 363.813V361.928C246.996 361.941 246.203 362.409 245.722 363.267Z" fill="white"/>
<path d="M753.072 359.835C750.29 359.835 748.184 361.798 748.184 364.45C748.184 367.089 750.29 369.091 753.072 369.091C755.854 369.091 757.96 367.076 757.96 364.45C757.96 361.811 755.854 359.835 753.072 359.835ZM753.098 361.629C754.619 361.629 755.854 362.851 755.854 364.45C755.854 366.049 754.619 367.297 753.098 367.297C751.577 367.297 750.29 366.049 750.29 364.45C750.29 362.851 751.564 361.629 753.098 361.629ZM758.157 359.9V361.642H760.926V369H762.98V361.642H765.762V359.9H758.157ZM768.963 361.941C766.831 361.941 765.362 363.371 765.362 365.529C765.362 367.648 766.779 369.078 769.015 369.078C770.276 369.078 771.303 368.623 772.005 367.843L770.952 366.777C770.471 367.258 769.847 367.518 769.184 367.518C768.287 367.518 767.611 366.998 767.377 366.114H772.395C772.564 363.566 771.42 361.941 768.963 361.941ZM767.338 364.931C767.494 364.008 768.092 363.41 768.976 363.41C769.899 363.41 770.497 364.008 770.523 364.931H767.338ZM773.781 359.354V369H775.783V359.354H773.781ZM788.319 362.799L789.515 361.343C788.618 360.42 787.24 359.835 785.927 359.835C783.171 359.835 781.078 361.811 781.078 364.437C781.078 367.076 783.132 369.091 785.849 369.091C787.175 369.091 788.566 368.454 789.528 367.466L788.319 366.153C787.669 366.803 786.772 367.219 785.953 367.219C784.393 367.219 783.184 365.997 783.184 364.411C783.184 362.825 784.393 361.616 785.953 361.616C786.798 361.616 787.695 362.084 788.319 362.799ZM793.709 361.941C791.46 361.941 789.952 363.358 789.952 365.503C789.952 367.635 791.46 369.078 793.709 369.078C795.945 369.078 797.453 367.635 797.453 365.503C797.453 363.358 795.945 361.941 793.709 361.941ZM793.709 363.605C794.736 363.605 795.451 364.385 795.451 365.529C795.451 366.673 794.736 367.453 793.709 367.453C792.669 367.453 791.954 366.673 791.954 365.529C791.954 364.385 792.669 363.605 793.709 363.605ZM798.842 359.354V369H800.844V359.354H798.842ZM802.917 359.354V369H804.919V359.354H802.917ZM809.93 361.941C807.798 361.941 806.329 363.371 806.329 365.529C806.329 367.648 807.746 369.078 809.982 369.078C811.243 369.078 812.27 368.623 812.972 367.843L811.919 366.777C811.438 367.258 810.814 367.518 810.151 367.518C809.254 367.518 808.578 366.998 808.344 366.114H813.362C813.531 363.566 812.387 361.941 809.93 361.941ZM808.305 364.931C808.461 364.008 809.059 363.41 809.943 363.41C810.866 363.41 811.464 364.008 811.49 364.931H808.305ZM819.351 364.385L820.703 363.41C820.079 362.474 819.013 361.941 817.674 361.941C815.529 361.941 814.086 363.384 814.086 365.529C814.086 367.648 815.529 369.078 817.648 369.078C819.078 369.078 820.17 368.506 820.755 367.531L819.377 366.595C819.026 367.141 818.467 367.414 817.752 367.414C816.777 367.414 816.088 366.647 816.088 365.516C816.088 364.398 816.777 363.644 817.752 363.644C818.441 363.631 818.974 363.917 819.351 364.385ZM825.922 367.141C825.558 367.31 825.246 367.401 824.986 367.401C824.557 367.414 824.31 367.18 824.31 366.595V363.709H826.208V362.318H824.31V360.394H822.321V362.318H821.346V363.696H822.321V366.933C822.321 368.376 823.27 369.091 824.518 369.091C825.168 369.091 825.818 368.909 826.338 368.61L825.922 367.141ZM830.653 361.941C828.404 361.941 826.896 363.358 826.896 365.503C826.896 367.635 828.404 369.078 830.653 369.078C832.889 369.078 834.397 367.635 834.397 365.503C834.397 363.358 832.889 361.941 830.653 361.941ZM830.653 363.605C831.68 363.605 832.395 364.385 832.395 365.529C832.395 366.673 831.68 367.453 830.653 367.453C829.613 367.453 828.898 366.673 828.898 365.529C828.898 364.385 829.613 363.605 830.653 363.605ZM837.722 363.267V362.006H835.72V369H837.722V365.633C837.722 364.45 838.606 363.683 840.036 363.813V361.928C838.996 361.941 838.203 362.409 837.722 363.267Z" fill="white"/>
<path d="M551.072 292.835C548.29 292.835 546.184 294.798 546.184 297.45C546.184 300.089 548.29 302.091 551.072 302.091C553.854 302.091 555.96 300.076 555.96 297.45C555.96 294.811 553.854 292.835 551.072 292.835ZM551.098 294.629C552.619 294.629 553.854 295.851 553.854 297.45C553.854 299.049 552.619 300.297 551.098 300.297C549.577 300.297 548.29 299.049 548.29 297.45C548.29 295.851 549.564 294.629 551.098 294.629ZM556.157 292.9V294.642H558.926V302H560.98V294.642H563.762V292.9H556.157ZM566.963 294.941C564.831 294.941 563.362 296.371 563.362 298.529C563.362 300.648 564.779 302.078 567.015 302.078C568.276 302.078 569.303 301.623 570.005 300.843L568.952 299.777C568.471 300.258 567.847 300.518 567.184 300.518C566.287 300.518 565.611 299.998 565.377 299.114H570.395C570.564 296.566 569.42 294.941 566.963 294.941ZM565.338 297.931C565.494 297.008 566.092 296.41 566.976 296.41C567.899 296.41 568.497 297.008 568.523 297.931H565.338ZM571.781 292.354V302H573.783V292.354H571.781ZM586.319 295.799L587.515 294.343C586.618 293.42 585.24 292.835 583.927 292.835C581.171 292.835 579.078 294.811 579.078 297.437C579.078 300.076 581.132 302.091 583.849 302.091C585.175 302.091 586.566 301.454 587.528 300.466L586.319 299.153C585.669 299.803 584.772 300.219 583.953 300.219C582.393 300.219 581.184 298.997 581.184 297.411C581.184 295.825 582.393 294.616 583.953 294.616C584.798 294.616 585.695 295.084 586.319 295.799ZM591.709 294.941C589.46 294.941 587.952 296.358 587.952 298.503C587.952 300.635 589.46 302.078 591.709 302.078C593.945 302.078 595.453 300.635 595.453 298.503C595.453 296.358 593.945 294.941 591.709 294.941ZM591.709 296.605C592.736 296.605 593.451 297.385 593.451 298.529C593.451 299.673 592.736 300.453 591.709 300.453C590.669 300.453 589.954 299.673 589.954 298.529C589.954 297.385 590.669 296.605 591.709 296.605ZM596.842 292.354V302H598.844V292.354H596.842ZM600.917 292.354V302H602.919V292.354H600.917ZM607.93 294.941C605.798 294.941 604.329 296.371 604.329 298.529C604.329 300.648 605.746 302.078 607.982 302.078C609.243 302.078 610.27 301.623 610.972 300.843L609.919 299.777C609.438 300.258 608.814 300.518 608.151 300.518C607.254 300.518 606.578 299.998 606.344 299.114H611.362C611.531 296.566 610.387 294.941 607.93 294.941ZM606.305 297.931C606.461 297.008 607.059 296.41 607.943 296.41C608.866 296.41 609.464 297.008 609.49 297.931H606.305ZM617.351 297.385L618.703 296.41C618.079 295.474 617.013 294.941 615.674 294.941C613.529 294.941 612.086 296.384 612.086 298.529C612.086 300.648 613.529 302.078 615.648 302.078C617.078 302.078 618.17 301.506 618.755 300.531L617.377 299.595C617.026 300.141 616.467 300.414 615.752 300.414C614.777 300.414 614.088 299.647 614.088 298.516C614.088 297.398 614.777 296.644 615.752 296.644C616.441 296.631 616.974 296.917 617.351 297.385ZM623.922 300.141C623.558 300.31 623.246 300.401 622.986 300.401C622.557 300.414 622.31 300.18 622.31 299.595V296.709H624.208V295.318H622.31V293.394H620.321V295.318H619.346V296.696H620.321V299.933C620.321 301.376 621.27 302.091 622.518 302.091C623.168 302.091 623.818 301.909 624.338 301.61L623.922 300.141ZM628.653 294.941C626.404 294.941 624.896 296.358 624.896 298.503C624.896 300.635 626.404 302.078 628.653 302.078C630.889 302.078 632.397 300.635 632.397 298.503C632.397 296.358 630.889 294.941 628.653 294.941ZM628.653 296.605C629.68 296.605 630.395 297.385 630.395 298.529C630.395 299.673 629.68 300.453 628.653 300.453C627.613 300.453 626.898 299.673 626.898 298.529C626.898 297.385 627.613 296.605 628.653 296.605ZM635.722 296.267V295.006H633.72V302H635.722V298.633C635.722 297.45 636.606 296.683 638.036 296.813V294.928C636.996 294.941 636.203 295.409 635.722 296.267Z" fill="white"/>
<path opacity="0.4" d="M189.759 387H191.956L188.069 377.9H185.95L181.998 387H184.117L184.832 385.232H189.044L189.759 387ZM185.508 383.581L186.951 380.045L188.381 383.581H185.508ZM197.108 380.006V380.955C196.627 380.305 195.899 379.928 194.95 379.941C193.169 379.941 191.947 381.28 191.947 383.256C191.947 385.284 193.195 386.636 195.002 386.636C195.925 386.636 196.64 386.272 197.108 385.622V386.415C197.108 387.364 196.38 387.975 195.236 387.975C194.443 387.975 193.702 387.728 193.065 387.273L192.324 388.677C193.13 389.223 194.183 389.6 195.366 389.6C197.602 389.6 199.097 388.339 199.097 386.35V380.006H197.108ZM195.47 385.115C194.482 385.115 193.832 384.374 193.819 383.308C193.832 382.242 194.495 381.488 195.47 381.488C196.445 381.488 197.108 382.229 197.108 383.308C197.108 384.374 196.445 385.115 195.47 385.115ZM203.927 379.941C201.795 379.941 200.326 381.371 200.326 383.529C200.326 385.648 201.743 387.078 203.979 387.078C205.24 387.078 206.267 386.623 206.969 385.843L205.916 384.777C205.435 385.258 204.811 385.518 204.148 385.518C203.251 385.518 202.575 384.998 202.341 384.114H207.359C207.528 381.566 206.384 379.941 203.927 379.941ZM202.302 382.931C202.458 382.008 203.056 381.41 203.94 381.41C204.863 381.41 205.461 382.008 205.487 382.931H202.302ZM213.101 379.928C212.009 379.941 211.177 380.357 210.683 381.228V380.006H208.681V387H210.683V383.555C210.683 382.528 211.281 381.774 212.282 381.761C213.14 381.761 213.66 382.307 213.66 383.191V387H215.662V382.606C215.662 380.968 214.661 379.928 213.101 379.928ZM221.303 385.141C220.939 385.31 220.627 385.401 220.367 385.401C219.938 385.414 219.691 385.18 219.691 384.595V381.709H221.589V380.318H219.691V378.394H217.702V380.318H216.727V381.696H217.702V384.933C217.702 386.376 218.651 387.091 219.899 387.091C220.549 387.091 221.199 386.909 221.719 386.61L221.303 385.141Z" fill="white"/>
<path opacity="0.4" d="M781.759 387H783.956L780.069 377.9H777.95L773.998 387H776.117L776.832 385.232H781.044L781.759 387ZM777.508 383.581L778.951 380.045L780.381 383.581H777.508ZM789.108 380.006V380.955C788.627 380.305 787.899 379.928 786.95 379.941C785.169 379.941 783.947 381.28 783.947 383.256C783.947 385.284 785.195 386.636 787.002 386.636C787.925 386.636 788.64 386.272 789.108 385.622V386.415C789.108 387.364 788.38 387.975 787.236 387.975C786.443 387.975 785.702 387.728 785.065 387.273L784.324 388.677C785.13 389.223 786.183 389.6 787.366 389.6C789.602 389.6 791.097 388.339 791.097 386.35V380.006H789.108ZM787.47 385.115C786.482 385.115 785.832 384.374 785.819 383.308C785.832 382.242 786.495 381.488 787.47 381.488C788.445 381.488 789.108 382.229 789.108 383.308C789.108 384.374 788.445 385.115 787.47 385.115ZM795.927 379.941C793.795 379.941 792.326 381.371 792.326 383.529C792.326 385.648 793.743 387.078 795.979 387.078C797.24 387.078 798.267 386.623 798.969 385.843L797.916 384.777C797.435 385.258 796.811 385.518 796.148 385.518C795.251 385.518 794.575 384.998 794.341 384.114H799.359C799.528 381.566 798.384 379.941 795.927 379.941ZM794.302 382.931C794.458 382.008 795.056 381.41 795.94 381.41C796.863 381.41 797.461 382.008 797.487 382.931H794.302ZM805.101 379.928C804.009 379.941 803.177 380.357 802.683 381.228V380.006H800.681V387H802.683V383.555C802.683 382.528 803.281 381.774 804.282 381.761C805.14 381.761 805.66 382.307 805.66 383.191V387H807.662V382.606C807.662 380.968 806.661 379.928 805.101 379.928ZM813.303 385.141C812.939 385.31 812.627 385.401 812.367 385.401C811.938 385.414 811.691 385.18 811.691 384.595V381.709H813.589V380.318H811.691V378.394H809.702V380.318H808.727V381.696H809.702V384.933C809.702 386.376 810.651 387.091 811.899 387.091C812.549 387.091 813.199 386.909 813.719 386.61L813.303 385.141Z" fill="white"/>
<path opacity="0.4" d="M575.108 313.5L575.901 311.797C574.991 311.199 573.717 310.809 572.443 310.809C570.337 310.809 568.92 311.849 568.92 313.5C568.92 316.724 573.769 315.723 573.769 317.439C573.769 317.998 573.262 318.31 572.417 318.31C571.455 318.31 570.129 317.777 569.193 316.945L568.374 318.622C569.401 319.493 570.896 320.065 572.391 320.065C574.406 320.065 575.953 319.103 575.953 317.322C575.966 314.046 571.117 314.982 571.117 313.305C571.117 312.811 571.585 312.564 572.274 312.564C573.002 312.564 574.146 312.928 575.108 313.5ZM580.356 312.941C578.224 312.941 576.755 314.371 576.755 316.529C576.755 318.648 578.172 320.078 580.408 320.078C581.669 320.078 582.696 319.623 583.398 318.843L582.345 317.777C581.864 318.258 581.24 318.518 580.577 318.518C579.68 318.518 579.004 317.998 578.77 317.114H583.788C583.957 314.566 582.813 312.941 580.356 312.941ZM578.731 315.931C578.887 315.008 579.485 314.41 580.369 314.41C581.292 314.41 581.89 315.008 581.916 315.931H578.731ZM587.112 314.267V313.006H585.11V320H587.112V316.633C587.112 315.45 587.996 314.683 589.426 314.813V312.928C588.386 312.941 587.593 313.409 587.112 314.267ZM589.835 313.019L592.487 320H594.541L597.18 313.006H595.191L593.553 318.102L591.902 313.006L589.835 313.019ZM599.06 310.016C598.488 310.016 598.085 310.432 598.085 311.017C598.085 311.589 598.488 312.018 599.06 312.018C599.632 312.018 600.035 311.589 600.035 311.017C600.035 310.432 599.632 310.016 599.06 310.016ZM598.059 313.006V320H600.061V313.006H598.059ZM606.649 315.385L608.001 314.41C607.377 313.474 606.311 312.941 604.972 312.941C602.827 312.941 601.384 314.384 601.384 316.529C601.384 318.648 602.827 320.078 604.946 320.078C606.376 320.078 607.468 319.506 608.053 318.531L606.675 317.595C606.324 318.141 605.765 318.414 605.05 318.414C604.075 318.414 603.386 317.647 603.386 316.516C603.386 315.398 604.075 314.644 605.05 314.644C605.739 314.631 606.272 314.917 606.649 315.385ZM612.094 312.941C609.962 312.941 608.493 314.371 608.493 316.529C608.493 318.648 609.91 320.078 612.146 320.078C613.407 320.078 614.434 319.623 615.136 318.843L614.083 317.777C613.602 318.258 612.978 318.518 612.315 318.518C611.418 318.518 610.742 317.998 610.508 317.114H615.526C615.695 314.566 614.551 312.941 612.094 312.941ZM610.469 315.931C610.625 315.008 611.223 314.41 612.107 314.41C613.03 314.41 613.628 315.008 613.654 315.931H610.469Z" fill="white"/>
<path d="M190.76 461.9V471H192.814V467.412H196.935V471H198.989V461.9H196.935V465.696H192.814V461.9H190.76ZM204.113 463.941C201.864 463.941 200.356 465.358 200.356 467.503C200.356 469.635 201.864 471.078 204.113 471.078C206.349 471.078 207.857 469.635 207.857 467.503C207.857 465.358 206.349 463.941 204.113 463.941ZM204.113 465.605C205.14 465.605 205.855 466.385 205.855 467.529C205.855 468.673 205.14 469.453 204.113 469.453C203.073 469.453 202.358 468.673 202.358 467.529C202.358 466.385 203.073 465.605 204.113 465.605ZM213.587 466.06L214.276 464.695C213.496 464.201 212.508 463.915 211.546 463.915C210.025 463.915 208.79 464.656 208.79 466.099C208.79 468.556 212.417 467.958 212.417 469.076C212.417 469.453 212.04 469.622 211.533 469.622C210.766 469.622 209.83 469.31 209.102 468.751L208.452 470.103C209.245 470.74 210.35 471.078 211.481 471.078C213.067 471.078 214.328 470.324 214.328 468.894C214.341 466.424 210.649 466.957 210.649 465.904C210.649 465.54 210.987 465.384 211.455 465.384C212.04 465.384 212.82 465.631 213.587 466.06ZM219.581 469.141C219.217 469.31 218.905 469.401 218.645 469.401C218.216 469.414 217.969 469.18 217.969 468.595V465.709H219.867V464.318H217.969V462.394H215.98V464.318H215.005V465.696H215.98V468.933C215.98 470.376 216.929 471.091 218.177 471.091C218.827 471.091 219.477 470.909 219.997 470.61L219.581 469.141Z" fill="#B9831F"/>
<path d="M782.76 461.9V471H784.814V467.412H788.935V471H790.989V461.9H788.935V465.696H784.814V461.9H782.76ZM796.113 463.941C793.864 463.941 792.356 465.358 792.356 467.503C792.356 469.635 793.864 471.078 796.113 471.078C798.349 471.078 799.857 469.635 799.857 467.503C799.857 465.358 798.349 463.941 796.113 463.941ZM796.113 465.605C797.14 465.605 797.855 466.385 797.855 467.529C797.855 468.673 797.14 469.453 796.113 469.453C795.073 469.453 794.358 468.673 794.358 467.529C794.358 466.385 795.073 465.605 796.113 465.605ZM805.587 466.06L806.276 464.695C805.496 464.201 804.508 463.915 803.546 463.915C802.025 463.915 800.79 464.656 800.79 466.099C800.79 468.556 804.417 467.958 804.417 469.076C804.417 469.453 804.04 469.622 803.533 469.622C802.766 469.622 801.83 469.31 801.102 468.751L800.452 470.103C801.245 470.74 802.35 471.078 803.481 471.078C805.067 471.078 806.328 470.324 806.328 468.894C806.341 466.424 802.649 466.957 802.649 465.904C802.649 465.54 802.987 465.384 803.455 465.384C804.04 465.384 804.82 465.631 805.587 466.06ZM811.581 469.141C811.217 469.31 810.905 469.401 810.645 469.401C810.216 469.414 809.969 469.18 809.969 468.595V465.709H811.867V464.318H809.969V462.394H807.98V464.318H807.005V465.696H807.98V468.933C807.98 470.376 808.929 471.091 810.177 471.091C810.827 471.091 811.477 470.909 811.997 470.61L811.581 469.141Z" fill="#B9831F"/>
<circle cx="173.909" cy="227.61" r="2.18599" transform="rotate(45 173.909 227.61)" stroke="#2E3141" stroke-width="2" stroke-linecap="round" stroke-linejoin="round"/>
<path d="M163.76 229.291L161.477 231.573" stroke="#2E3141" stroke-width="2" stroke-miterlimit="10" stroke-linecap="round"/>
<path d="M160.137 230.762L162.229 232.854" stroke="#2E3141" stroke-width="2" stroke-miterlimit="10" stroke-linecap="round"/>
<path d="M165.644 231.175L161.497 227.028L166.821 221.703L168.707 223.588C166.577 225.718 167.299 228.012 167.926 228.893L165.644 231.175Z" stroke="#2E3141" stroke-width="2" stroke-miterlimit="10" stroke-linecap="round" stroke-linejoin="round"/>
<path d="M171.366 221.683L168.727 219.044L173.291 214.48L178.57 219.759L176.288 222.041C174.78 220.533 172.507 220.542 171.366 221.683Z" stroke="#2E3141" stroke-width="2" stroke-miterlimit="10" stroke-linecap="round" stroke-linejoin="round"/>
<path d="M182.476 218.659L174.616 210.799C174.225 210.408 174.225 209.775 174.616 209.384L176.293 207.707C176.683 207.317 177.317 207.317 177.707 207.707L185.567 215.567C185.958 215.958 185.958 216.591 185.567 216.981L183.89 218.659C183.499 219.049 182.866 219.049 182.476 218.659Z" stroke="#2E3141" stroke-width="2" stroke-miterlimit="10" stroke-linecap="round" stroke-linejoin="round"/>
<circle cx="767.909" cy="227.61" r="2.18599" transform="rotate(45 767.909 227.61)" stroke="#2E3141" stroke-width="2" stroke-linecap="round" stroke-linejoin="round"/>
<path d="M757.76 229.291L755.477 231.573" stroke="#2E3141" stroke-width="2" stroke-miterlimit="10" stroke-linecap="round"/>
<path d="M754.137 230.762L756.229 232.854" stroke="#2E3141" stroke-width="2" stroke-miterlimit="10" stroke-linecap="round"/>
<path d="M759.644 231.175L755.497 227.028L760.821 221.703L762.707 223.588C760.577 225.718 761.299 228.012 761.926 228.893L759.644 231.175Z" stroke="#2E3141" stroke-width="2" stroke-miterlimit="10" stroke-linecap="round" stroke-linejoin="round"/>
<path d="M765.366 221.683L762.727 219.044L767.291 214.48L772.57 219.759L770.288 222.041C768.78 220.533 766.507 220.542 765.366 221.683Z" stroke="#2E3141" stroke-width="2" stroke-miterlimit="10" stroke-linecap="round" stroke-linejoin="round"/>
<path d="M776.476 218.659L768.616 210.799C768.225 210.408 768.225 209.775 768.616 209.384L770.293 207.707C770.683 207.317 771.317 207.317 771.707 207.707L779.567 215.567C779.958 215.958 779.958 216.591 779.567 216.981L777.89 218.659C777.499 219.049 776.866 219.049 776.476 218.659Z" stroke="#2E3141" stroke-width="2" stroke-miterlimit="10" stroke-linecap="round" stroke-linejoin="round"/>
<path d="M203.239 205.835C200.457 205.835 198.351 207.798 198.351 210.45C198.351 213.089 200.457 215.091 203.239 215.091C206.021 215.091 208.127 213.076 208.127 210.45C208.127 207.811 206.021 205.835 203.239 205.835ZM203.265 207.629C204.786 207.629 206.021 208.851 206.021 210.45C206.021 212.049 204.786 213.297 203.265 213.297C201.744 213.297 200.457 212.049 200.457 210.45C200.457 208.851 201.731 207.629 203.265 207.629ZM208.324 205.9V207.642H211.093V215H213.147V207.642H215.929V205.9H208.324ZM219.129 207.941C216.997 207.941 215.528 209.371 215.528 211.529C215.528 213.648 216.945 215.078 219.181 215.078C220.442 215.078 221.469 214.623 222.171 213.843L221.118 212.777C220.637 213.258 220.013 213.518 219.35 213.518C218.453 213.518 217.777 212.998 217.543 212.114H222.561C222.73 209.566 221.586 207.941 219.129 207.941ZM217.504 210.931C217.66 210.008 218.258 209.41 219.142 209.41C220.065 209.41 220.663 210.008 220.689 210.931H217.504ZM223.948 205.354V215H225.95V205.354H223.948ZM199.001 223.9V233H204.955V231.206H201.055V223.9H199.001ZM207.136 223.016C206.564 223.016 206.161 223.432 206.161 224.017C206.161 224.589 206.564 225.018 207.136 225.018C207.708 225.018 208.111 224.589 208.111 224.017C208.111 223.432 207.708 223.016 207.136 223.016ZM206.135 226.006V233H208.137V226.006H206.135ZM214.335 225.941C213.386 225.941 212.619 226.331 212.125 227.033V223.354H210.123V233H212.125V231.986C212.632 232.688 213.399 233.078 214.374 233.078C216.337 233.078 217.624 231.661 217.624 229.542C217.624 227.384 216.298 225.941 214.335 225.941ZM213.867 231.414C212.84 231.414 212.125 230.634 212.125 229.477C212.125 228.346 212.84 227.553 213.867 227.553C214.894 227.553 215.596 228.359 215.596 229.477C215.596 230.621 214.894 231.414 213.867 231.414ZM220.946 227.267V226.006H218.944V233H220.946V229.633C220.946 228.45 221.83 227.683 223.26 227.813V225.928C222.22 225.941 221.427 226.409 220.946 227.267ZM230.156 233L230.143 228.437C230.13 226.864 229.051 225.928 227.179 225.928C225.957 225.928 225.06 226.214 224.02 226.734L224.644 228.112C225.372 227.709 226.1 227.501 226.724 227.501C227.686 227.501 228.18 227.93 228.18 228.671V228.801H226.256C224.54 228.814 223.591 229.594 223.591 230.907C223.591 232.181 224.501 233.091 225.996 233.091C226.971 233.091 227.725 232.766 228.193 232.181V233H230.156ZM226.555 231.661C225.879 231.661 225.463 231.31 225.463 230.777C225.463 230.218 225.84 229.984 226.607 229.984H228.18V230.608C228.063 231.206 227.4 231.661 226.555 231.661ZM233.883 227.267V226.006H231.881V233H233.883V229.633C233.883 228.45 234.767 227.683 236.197 227.813V225.928C235.157 225.941 234.364 226.409 233.883 227.267ZM241 233.78L244.068 226.006H242.066L240.415 230.816L238.582 226.006H236.515L239.414 232.857L239.219 233.247C239.024 233.663 238.712 233.871 238.296 233.871C237.971 233.871 237.698 233.754 237.386 233.494L236.541 234.937C237.113 235.405 237.698 235.613 238.439 235.613C239.648 235.613 240.506 235.015 241 233.78Z" fill="#2E3141"/>
<path d="M797.239 205.835C794.457 205.835 792.351 207.798 792.351 210.45C792.351 213.089 794.457 215.091 797.239 215.091C800.021 215.091 802.127 213.076 802.127 210.45C802.127 207.811 800.021 205.835 797.239 205.835ZM797.265 207.629C798.786 207.629 800.021 208.851 800.021 210.45C800.021 212.049 798.786 213.297 797.265 213.297C795.744 213.297 794.457 212.049 794.457 210.45C794.457 208.851 795.731 207.629 797.265 207.629ZM802.324 205.9V207.642H805.093V215H807.147V207.642H809.929V205.9H802.324ZM813.129 207.941C810.997 207.941 809.528 209.371 809.528 211.529C809.528 213.648 810.945 215.078 813.181 215.078C814.442 215.078 815.469 214.623 816.171 213.843L815.118 212.777C814.637 213.258 814.013 213.518 813.35 213.518C812.453 213.518 811.777 212.998 811.543 212.114H816.561C816.73 209.566 815.586 207.941 813.129 207.941ZM811.504 210.931C811.66 210.008 812.258 209.41 813.142 209.41C814.065 209.41 814.663 210.008 814.689 210.931H811.504ZM817.948 205.354V215H819.95V205.354H817.948ZM793.001 223.9V233H798.955V231.206H795.055V223.9H793.001ZM801.136 223.016C800.564 223.016 800.161 223.432 800.161 224.017C800.161 224.589 800.564 225.018 801.136 225.018C801.708 225.018 802.111 224.589 802.111 224.017C802.111 223.432 801.708 223.016 801.136 223.016ZM800.135 226.006V233H802.137V226.006H800.135ZM808.335 225.941C807.386 225.941 806.619 226.331 806.125 227.033V223.354H804.123V233H806.125V231.986C806.632 232.688 807.399 233.078 808.374 233.078C810.337 233.078 811.624 231.661 811.624 229.542C811.624 227.384 810.298 225.941 808.335 225.941ZM807.867 231.414C806.84 231.414 806.125 230.634 806.125 229.477C806.125 228.346 806.84 227.553 807.867 227.553C808.894 227.553 809.596 228.359 809.596 229.477C809.596 230.621 808.894 231.414 807.867 231.414ZM814.946 227.267V226.006H812.944V233H814.946V229.633C814.946 228.45 815.83 227.683 817.26 227.813V225.928C816.22 225.941 815.427 226.409 814.946 227.267ZM824.156 233L824.143 228.437C824.13 226.864 823.051 225.928 821.179 225.928C819.957 225.928 819.06 226.214 818.02 226.734L818.644 228.112C819.372 227.709 820.1 227.501 820.724 227.501C821.686 227.501 822.18 227.93 822.18 228.671V228.801H820.256C818.54 228.814 817.591 229.594 817.591 230.907C817.591 232.181 818.501 233.091 819.996 233.091C820.971 233.091 821.725 232.766 822.193 232.181V233H824.156ZM820.555 231.661C819.879 231.661 819.463 231.31 819.463 230.777C819.463 230.218 819.84 229.984 820.607 229.984H822.18V230.608C822.063 231.206 821.4 231.661 820.555 231.661ZM827.883 227.267V226.006H825.881V233H827.883V229.633C827.883 228.45 828.767 227.683 830.197 227.813V225.928C829.157 225.941 828.364 226.409 827.883 227.267ZM835 233.78L838.068 226.006H836.066L834.415 230.816L832.582 226.006H830.515L833.414 232.857L833.219 233.247C833.024 233.663 832.712 233.871 832.296 233.871C831.971 233.871 831.698 233.754 831.386 233.494L830.541 234.937C831.113 235.405 831.698 235.613 832.439 235.613C833.648 235.613 834.506 235.015 835 233.78Z" fill="#2E3141"/>
<path d="M197.333 331.606V340C197.333 340.552 197.781 341 198.333 341H214.182C214.734 341 215.182 340.552 215.182 340V331.606" stroke="white" stroke-width="2" stroke-linecap="round" stroke-linejoin="round"/>
<circle cx="202.411" cy="334.907" r="2.36117" stroke="white" stroke-width="2" stroke-linecap="round" stroke-linejoin="round"/>
<circle cx="210.028" cy="334.907" r="2.36117" stroke="white" stroke-width="2" stroke-linecap="round" stroke-linejoin="round"/>
<circle cx="202.361" cy="327.361" r="2.36117" stroke="white" stroke-width="2" stroke-linecap="round" stroke-linejoin="round"/>
<path d="M203.977 319.242L203.979 319.244L205.914 321.156C205.623 321.446 205.378 321.717 205.15 321.97L205.146 321.975C205.044 322.088 204.946 322.196 204.847 322.304C204.484 322.05 204.105 321.862 203.691 321.737C203.096 321.557 202.488 321.525 201.858 321.548L201.856 321.548C201.13 321.575 200.441 321.748 199.803 322.063C199.407 321.669 199.008 321.276 198.612 320.884C198.463 320.737 198.314 320.591 198.166 320.445L201.68 316.973C202.447 317.727 203.214 318.484 203.977 319.242ZM206.093 320.954C206.093 320.954 206.093 320.954 206.092 320.955L206.093 320.954ZM197.954 320.482L197.964 320.472L197.954 320.482Z" stroke="white" stroke-width="2" stroke-miterlimit="10"/>
<path d="M197.859 324.198C197.858 324.197 197.856 324.195 197.853 324.192M197.859 324.198C197.859 324.198 197.859 324.198 197.859 324.198C197.86 324.198 197.86 324.198 197.86 324.198L198.433 323.587L198.436 323.584L198.544 323.469L198.436 323.585L198.434 323.587L197.863 324.202L197.853 324.192M197.859 324.198C197.857 324.196 197.855 324.194 197.853 324.192M197.859 324.198L197.853 324.192M197.75 323.097C197.749 323.099 197.744 323.105 197.738 323.115L197.744 323.106L197.75 323.097ZM197.75 323.097L197.75 323.097L197.75 323.097ZM194.474 329.871C193.617 329.07 192.764 328.271 191.912 327.465C192.181 327.212 192.45 326.96 192.719 326.707C194.021 325.485 195.323 324.264 196.629 323.047C196.855 323.255 197.07 323.457 197.288 323.663C197.315 323.688 197.342 323.713 197.369 323.739C196.772 324.915 196.682 326.158 197.096 327.413C196.221 328.231 195.347 329.051 194.474 329.871ZM197.49 327.045C197.492 327.043 197.494 327.041 197.495 327.04L197.49 327.045Z" stroke="white" stroke-width="2" stroke-miterlimit="10"/>
<path d="M192.967 329.098L190.605 331.46" stroke="white" stroke-width="2" stroke-miterlimit="10" stroke-linecap="round"/>
<path d="M189.818 330.672L191.392 332.247" stroke="white" stroke-width="2" stroke-miterlimit="10" stroke-linecap="round"/>
<path d="M203.49 312.937L204.584 311.965C204.971 311.62 205.558 311.629 205.935 311.985L211.206 316.964C211.632 317.366 211.622 318.048 211.184 318.438L210.089 319.411C209.702 319.755 209.115 319.746 208.738 319.39L203.467 314.412C203.041 314.009 203.051 313.327 203.49 312.937Z" stroke="white" stroke-width="2" stroke-miterlimit="10" stroke-linecap="round" stroke-linejoin="round"/>
<path d="M789.333 331.606V340C789.333 340.552 789.781 341 790.333 341H806.182C806.734 341 807.182 340.552 807.182 340V331.606" stroke="white" stroke-width="2" stroke-linecap="round" stroke-linejoin="round"/>
<circle cx="794.411" cy="334.907" r="2.36117" stroke="white" stroke-width="2" stroke-linecap="round" stroke-linejoin="round"/>
<circle cx="802.028" cy="334.907" r="2.36117" stroke="white" stroke-width="2" stroke-linecap="round" stroke-linejoin="round"/>
<circle cx="794.361" cy="327.361" r="2.36117" stroke="white" stroke-width="2" stroke-linecap="round" stroke-linejoin="round"/>
<path d="M795.977 319.242L795.979 319.244L797.914 321.156C797.623 321.446 797.378 321.717 797.15 321.97L797.146 321.975C797.044 322.088 796.946 322.196 796.847 322.304C796.484 322.05 796.105 321.862 795.691 321.737C795.096 321.557 794.488 321.525 793.858 321.548L793.856 321.548C793.13 321.575 792.441 321.748 791.803 322.063C791.407 321.669 791.008 321.276 790.612 320.884C790.463 320.737 790.314 320.591 790.166 320.445L793.68 316.973C794.447 317.727 795.214 318.484 795.977 319.242ZM798.093 320.954C798.093 320.954 798.093 320.954 798.092 320.955L798.093 320.954ZM789.954 320.482L789.964 320.472L789.954 320.482Z" stroke="white" stroke-width="2" stroke-miterlimit="10"/>
<path d="M789.859 324.198C789.858 324.197 789.856 324.195 789.853 324.192M789.859 324.198C789.859 324.198 789.859 324.198 789.859 324.198C789.86 324.198 789.86 324.198 789.86 324.198L790.433 323.587L790.436 323.584L790.544 323.469L790.436 323.585L790.434 323.587L789.863 324.202L789.853 324.192M789.859 324.198C789.857 324.196 789.855 324.194 789.853 324.192M789.859 324.198L789.853 324.192M789.75 323.097C789.749 323.099 789.744 323.105 789.738 323.115L789.744 323.106L789.75 323.097ZM789.75 323.097L789.75 323.097L789.75 323.097ZM786.474 329.871C785.617 329.07 784.764 328.271 783.912 327.465C784.181 327.212 784.45 326.96 784.719 326.707C786.021 325.485 787.323 324.264 788.629 323.047C788.855 323.255 789.07 323.457 789.288 323.663C789.315 323.688 789.342 323.713 789.369 323.739C788.772 324.915 788.682 326.158 789.096 327.413C788.221 328.231 787.347 329.051 786.474 329.871ZM789.49 327.045C789.492 327.043 789.494 327.041 789.495 327.04L789.49 327.045Z" stroke="white" stroke-width="2" stroke-miterlimit="10"/>
<path d="M784.967 329.098L782.605 331.46" stroke="white" stroke-width="2" stroke-miterlimit="10" stroke-linecap="round"/>
<path d="M781.818 330.672L783.392 332.247" stroke="white" stroke-width="2" stroke-miterlimit="10" stroke-linecap="round"/>
<path d="M795.49 312.937L796.584 311.965C796.971 311.62 797.558 311.629 797.935 311.985L803.206 316.964C803.632 317.366 803.622 318.048 803.184 318.438L802.089 319.411C801.702 319.755 801.115 319.746 800.738 319.39L795.467 314.412C795.041 314.009 795.051 313.327 795.49 312.937Z" stroke="white" stroke-width="2" stroke-miterlimit="10" stroke-linecap="round" stroke-linejoin="round"/>
<path d="M587.333 264.606V273C587.333 273.552 587.781 274 588.333 274H604.182C604.734 274 605.182 273.552 605.182 273V264.606" stroke="white" stroke-width="2" stroke-linecap="round" stroke-linejoin="round"/>
<circle cx="592.411" cy="267.907" r="2.36117" stroke="white" stroke-width="2" stroke-linecap="round" stroke-linejoin="round"/>
<circle cx="600.028" cy="267.907" r="2.36117" stroke="white" stroke-width="2" stroke-linecap="round" stroke-linejoin="round"/>
<circle cx="592.361" cy="260.361" r="2.36117" stroke="white" stroke-width="2" stroke-linecap="round" stroke-linejoin="round"/>
<path d="M593.977 252.242L593.979 252.244L595.914 254.156C595.623 254.446 595.378 254.717 595.15 254.97L595.146 254.975C595.044 255.088 594.946 255.196 594.847 255.304C594.484 255.05 594.105 254.862 593.691 254.737C593.096 254.557 592.488 254.525 591.858 254.548L591.856 254.548C591.13 254.575 590.441 254.748 589.803 255.063C589.407 254.669 589.008 254.276 588.612 253.884C588.463 253.737 588.314 253.591 588.166 253.445L591.68 249.973C592.447 250.727 593.214 251.484 593.977 252.242ZM596.093 253.954C596.093 253.954 596.093 253.954 596.092 253.955L596.093 253.954ZM587.954 253.482L587.964 253.472L587.954 253.482Z" stroke="white" stroke-width="2" stroke-miterlimit="10"/>
<path d="M587.859 257.198C587.858 257.197 587.856 257.195 587.853 257.192M587.859 257.198C587.859 257.198 587.859 257.198 587.859 257.198C587.86 257.198 587.86 257.198 587.86 257.198L588.433 256.587L588.436 256.584L588.544 256.469L588.436 256.585L588.434 256.587L587.863 257.202L587.853 257.192M587.859 257.198C587.857 257.196 587.855 257.194 587.853 257.192M587.859 257.198L587.853 257.192M587.75 256.097C587.749 256.099 587.744 256.105 587.738 256.115L587.744 256.106L587.75 256.097ZM587.75 256.097L587.75 256.097L587.75 256.097ZM584.474 262.871C583.617 262.07 582.764 261.271 581.912 260.465C582.181 260.212 582.45 259.96 582.719 259.707C584.021 258.485 585.323 257.264 586.629 256.047C586.855 256.255 587.07 256.457 587.288 256.663C587.315 256.688 587.342 256.713 587.369 256.739C586.772 257.915 586.682 259.158 587.096 260.413C586.221 261.231 585.347 262.051 584.474 262.871ZM587.49 260.045C587.492 260.043 587.494 260.041 587.495 260.04L587.49 260.045Z" stroke="white" stroke-width="2" stroke-miterlimit="10"/>
<path d="M582.967 262.098L580.605 264.46" stroke="white" stroke-width="2" stroke-miterlimit="10" stroke-linecap="round"/>
<path d="M579.818 263.672L581.392 265.247" stroke="white" stroke-width="2" stroke-miterlimit="10" stroke-linecap="round"/>
<path d="M593.49 245.937L594.584 244.965C594.971 244.62 595.558 244.629 595.935 244.985L601.206 249.964C601.632 250.366 601.622 251.048 601.184 251.438L600.089 252.411C599.702 252.755 599.115 252.746 598.738 252.39L593.467 247.412C593.041 247.009 593.051 246.327 593.49 245.937Z" stroke="white" stroke-width="2" stroke-miterlimit="10" stroke-linecap="round" stroke-linejoin="round"/>
<path d="M379.399 219.9H375.213V229H379.542C381.648 229 382.974 228.038 382.974 226.478C382.974 225.282 382.259 224.398 381.076 224.177C382.051 223.917 382.649 223.15 382.649 222.175C382.649 220.771 381.401 219.9 379.399 219.9ZM379.295 223.566H377.267V221.577H379.295C380.075 221.564 380.543 221.928 380.543 222.552C380.543 223.189 380.075 223.566 379.295 223.566ZM379.295 227.323H377.267V225.165H379.295C380.257 225.152 380.855 225.555 380.855 226.218C380.855 226.92 380.257 227.323 379.295 227.323ZM390.448 229L390.435 224.437C390.422 222.864 389.343 221.928 387.471 221.928C386.249 221.928 385.352 222.214 384.312 222.734L384.936 224.112C385.664 223.709 386.392 223.501 387.016 223.501C387.978 223.501 388.472 223.93 388.472 224.671V224.801H386.548C384.832 224.814 383.883 225.594 383.883 226.907C383.883 228.181 384.793 229.091 386.288 229.091C387.263 229.091 388.017 228.766 388.485 228.181V229H390.448ZM386.847 227.661C386.171 227.661 385.755 227.31 385.755 226.777C385.755 226.218 386.132 225.984 386.899 225.984H388.472V226.608C388.355 227.206 387.692 227.661 386.847 227.661ZM396.84 224.385L398.192 223.41C397.568 222.474 396.502 221.941 395.163 221.941C393.018 221.941 391.575 223.384 391.575 225.529C391.575 227.648 393.018 229.078 395.137 229.078C396.567 229.078 397.659 228.506 398.244 227.531L396.866 226.595C396.515 227.141 395.956 227.414 395.241 227.414C394.266 227.414 393.577 226.647 393.577 225.516C393.577 224.398 394.266 223.644 395.241 223.644C395.93 223.631 396.463 223.917 396.84 224.385ZM404.153 229H406.519L403.841 224.71L406.402 222.019H404.127L401.566 224.658V219.354H399.564V229H401.566V227.102L402.463 226.153L404.153 229ZM407.326 224.359V225.685H410.68V224.359H407.326ZM415.387 221.941C413.255 221.941 411.786 223.371 411.786 225.529C411.786 227.648 413.203 229.078 415.439 229.078C416.7 229.078 417.727 228.623 418.429 227.843L417.376 226.777C416.895 227.258 416.271 227.518 415.608 227.518C414.711 227.518 414.035 226.998 413.801 226.114H418.819C418.988 223.566 417.844 221.941 415.387 221.941ZM413.762 224.931C413.918 224.008 414.516 223.41 415.4 223.41C416.323 223.41 416.921 224.008 416.947 224.931H413.762ZM424.561 221.928C423.469 221.941 422.637 222.357 422.143 223.228V222.006H420.141V229H422.143V225.555C422.143 224.528 422.741 223.774 423.742 223.761C424.6 223.761 425.12 224.307 425.12 225.191V229H427.122V224.606C427.122 222.968 426.121 221.928 424.561 221.928ZM433.764 219.354V223.033C433.257 222.318 432.49 221.928 431.502 221.928C429.552 221.928 428.252 223.345 428.252 225.477C428.252 227.635 429.565 229.078 431.554 229.078C432.516 229.078 433.27 228.688 433.764 227.973V229H435.753V219.354H433.764ZM432.022 227.466C430.969 227.466 430.267 226.673 430.254 225.529C430.267 224.398 430.982 223.592 432.022 223.592C433.049 223.592 433.764 224.385 433.764 225.529C433.764 226.673 433.049 227.466 432.022 227.466ZM402.762 237.887V239.629H404.582V247H406.636V237.887H402.762Z" fill="#2E3141"/>
<path d="M379.399 337.9H375.213V347H379.542C381.648 347 382.974 346.038 382.974 344.478C382.974 343.282 382.259 342.398 381.076 342.177C382.051 341.917 382.649 341.15 382.649 340.175C382.649 338.771 381.401 337.9 379.399 337.9ZM379.295 341.566H377.267V339.577H379.295C380.075 339.564 380.543 339.928 380.543 340.552C380.543 341.189 380.075 341.566 379.295 341.566ZM379.295 345.323H377.267V343.165H379.295C380.257 343.152 380.855 343.555 380.855 344.218C380.855 344.92 380.257 345.323 379.295 345.323ZM390.448 347L390.435 342.437C390.422 340.864 389.343 339.928 387.471 339.928C386.249 339.928 385.352 340.214 384.312 340.734L384.936 342.112C385.664 341.709 386.392 341.501 387.016 341.501C387.978 341.501 388.472 341.93 388.472 342.671V342.801H386.548C384.832 342.814 383.883 343.594 383.883 344.907C383.883 346.181 384.793 347.091 386.288 347.091C387.263 347.091 388.017 346.766 388.485 346.181V347H390.448ZM386.847 345.661C386.171 345.661 385.755 345.31 385.755 344.777C385.755 344.218 386.132 343.984 386.899 343.984H388.472V344.608C388.355 345.206 387.692 345.661 386.847 345.661ZM396.84 342.385L398.192 341.41C397.568 340.474 396.502 339.941 395.163 339.941C393.018 339.941 391.575 341.384 391.575 343.529C391.575 345.648 393.018 347.078 395.137 347.078C396.567 347.078 397.659 346.506 398.244 345.531L396.866 344.595C396.515 345.141 395.956 345.414 395.241 345.414C394.266 345.414 393.577 344.647 393.577 343.516C393.577 342.398 394.266 341.644 395.241 341.644C395.93 341.631 396.463 341.917 396.84 342.385ZM404.153 347H406.519L403.841 342.71L406.402 340.019H404.127L401.566 342.658V337.354H399.564V347H401.566V345.102L402.463 344.153L404.153 347ZM407.326 342.359V343.685H410.68V342.359H407.326ZM415.387 339.941C413.255 339.941 411.786 341.371 411.786 343.529C411.786 345.648 413.203 347.078 415.439 347.078C416.7 347.078 417.727 346.623 418.429 345.843L417.376 344.777C416.895 345.258 416.271 345.518 415.608 345.518C414.711 345.518 414.035 344.998 413.801 344.114H418.819C418.988 341.566 417.844 339.941 415.387 339.941ZM413.762 342.931C413.918 342.008 414.516 341.41 415.4 341.41C416.323 341.41 416.921 342.008 416.947 342.931H413.762ZM424.561 339.928C423.469 339.941 422.637 340.357 422.143 341.228V340.006H420.141V347H422.143V343.555C422.143 342.528 422.741 341.774 423.742 341.761C424.6 341.761 425.12 342.307 425.12 343.191V347H427.122V342.606C427.122 340.968 426.121 339.928 424.561 339.928ZM433.764 337.354V341.033C433.257 340.318 432.49 339.928 431.502 339.928C429.552 339.928 428.252 341.345 428.252 343.477C428.252 345.635 429.565 347.078 431.554 347.078C432.516 347.078 433.27 346.688 433.764 345.973V347H435.753V337.354H433.764ZM432.022 345.466C430.969 345.466 430.267 344.673 430.254 343.529C430.267 342.398 430.982 341.592 432.022 341.592C433.049 341.592 433.764 342.385 433.764 343.529C433.764 344.673 433.049 345.466 432.022 345.466ZM405.479 360.112L402.112 363.583V365H408.95V363.271H404.764L406.883 361.178C407.884 360.138 408.625 359.124 408.625 358.149C408.625 356.719 407.338 355.796 405.518 355.796C404.231 355.796 402.996 356.303 401.878 357.148L402.684 358.682C403.503 357.98 404.439 357.538 405.219 357.538C406.012 357.538 406.467 357.876 406.467 358.461C406.467 358.903 406.064 359.527 405.479 360.112Z" fill="#2E3141"/>
<path d="M417.946 482V473.456H419.182L422.41 480.812H421.822L425.026 473.456H426.262V482H424.882L424.87 475.676L425.278 475.772L422.614 482H421.594L418.87 475.772L419.302 475.676L419.314 482H417.946ZM433.205 481.328C432.917 481.568 432.561 481.756 432.137 481.892C431.721 482.02 431.297 482.084 430.865 482.084C430.209 482.084 429.641 481.96 429.161 481.712C428.689 481.464 428.325 481.104 428.069 480.632C427.813 480.16 427.685 479.6 427.685 478.952C427.685 478.328 427.809 477.78 428.057 477.308C428.305 476.828 428.649 476.456 429.089 476.192C429.529 475.92 430.037 475.784 430.613 475.784C431.173 475.784 431.653 475.908 432.053 476.156C432.453 476.396 432.761 476.744 432.977 477.2C433.201 477.656 433.313 478.196 433.313 478.82V479.048H429.005L429.017 478.244H432.425L432.017 478.652C432.025 478.068 431.909 477.624 431.669 477.32C431.437 477.016 431.097 476.864 430.649 476.864C430.169 476.864 429.797 477.036 429.533 477.38C429.269 477.716 429.137 478.2 429.137 478.832C429.137 479.552 429.285 480.084 429.581 480.428C429.877 480.764 430.325 480.932 430.925 480.932C431.253 480.932 431.573 480.88 431.885 480.776C432.205 480.664 432.501 480.504 432.773 480.296L433.205 481.328ZM433.746 477.068V475.94H438.018V477.068H433.746ZM438.018 480.752V481.94C437.858 481.996 437.698 482.032 437.538 482.048C437.386 482.072 437.222 482.084 437.046 482.084C436.366 482.084 435.838 481.892 435.462 481.508C435.094 481.124 434.91 480.572 434.91 479.852V474.464L436.41 473.96V479.78C436.41 480.052 436.454 480.268 436.542 480.428C436.63 480.58 436.746 480.688 436.89 480.752C437.042 480.816 437.21 480.848 437.394 480.848C437.498 480.848 437.598 480.84 437.694 480.824C437.79 480.808 437.898 480.784 438.018 480.752ZM439.036 482V477.656C439.036 477.376 439.028 477.092 439.012 476.804C439.004 476.508 438.98 476.22 438.94 475.94H440.356L440.524 477.5L440.356 477.416C440.46 476.88 440.696 476.476 441.064 476.204C441.432 475.932 441.848 475.796 442.312 475.796C442.432 475.796 442.544 475.804 442.648 475.82C442.752 475.836 442.844 475.86 442.924 475.892L442.9 477.26C442.652 477.156 442.388 477.104 442.108 477.104C441.748 477.104 441.452 477.176 441.22 477.32C440.996 477.464 440.824 477.66 440.704 477.908C440.592 478.148 440.536 478.42 440.536 478.724V482H439.036ZM443.736 482V475.94H445.236V482H443.736ZM443.664 473.192H445.332V474.668H443.664V473.192ZM449.601 482.084C448.969 482.084 448.421 481.96 447.957 481.712C447.501 481.456 447.149 481.096 446.901 480.632C446.661 480.16 446.541 479.608 446.541 478.976C446.541 478.336 446.669 477.776 446.925 477.296C447.181 476.816 447.545 476.444 448.017 476.18C448.489 475.916 449.041 475.784 449.673 475.784C450.097 475.784 450.509 475.852 450.909 475.988C451.317 476.124 451.649 476.312 451.905 476.552L451.473 477.608C451.217 477.4 450.945 477.244 450.657 477.14C450.369 477.028 450.081 476.972 449.793 476.972C449.265 476.972 448.845 477.14 448.533 477.476C448.229 477.812 448.077 478.304 448.077 478.952C448.077 479.592 448.229 480.08 448.533 480.416C448.837 480.752 449.261 480.92 449.805 480.92C450.085 480.92 450.369 480.868 450.657 480.764C450.945 480.652 451.217 480.488 451.473 480.272L451.905 481.328C451.641 481.568 451.301 481.756 450.885 481.892C450.477 482.02 450.049 482.084 449.601 482.084ZM455.132 482.084C454.028 482.084 453.156 481.832 452.516 481.328L452.936 480.272C453.256 480.512 453.604 480.692 453.98 480.812C454.356 480.932 454.748 480.992 455.156 480.992C455.524 480.992 455.804 480.932 455.996 480.812C456.188 480.692 456.284 480.524 456.284 480.308C456.284 480.124 456.216 479.98 456.08 479.876C455.944 479.764 455.712 479.668 455.384 479.588L454.376 479.36C453.824 479.24 453.408 479.04 453.128 478.76C452.856 478.472 452.72 478.108 452.72 477.668C452.72 477.3 452.824 476.976 453.032 476.696C453.24 476.408 453.532 476.184 453.908 476.024C454.284 475.864 454.72 475.784 455.216 475.784C455.648 475.784 456.064 475.852 456.464 475.988C456.864 476.116 457.212 476.304 457.508 476.552L457.076 477.584C456.772 477.352 456.46 477.18 456.14 477.068C455.828 476.956 455.516 476.9 455.204 476.9C454.86 476.9 454.592 476.964 454.4 477.092C454.208 477.22 454.112 477.396 454.112 477.62C454.112 477.796 454.168 477.936 454.28 478.04C454.4 478.144 454.604 478.228 454.892 478.292L455.912 478.544C456.512 478.672 456.948 478.88 457.22 479.168C457.5 479.448 457.64 479.82 457.64 480.284C457.64 480.836 457.416 481.276 456.968 481.604C456.52 481.924 455.908 482.084 455.132 482.084ZM467.952 478.004V479.06H462.048V478.004H467.952ZM464.472 475.58H465.528V481.496H464.472V475.58ZM474.817 482V474.728H472.033V473.456H479.161V474.728H476.377V482H474.817ZM479.161 482V477.656C479.161 477.376 479.153 477.092 479.137 476.804C479.129 476.508 479.105 476.22 479.065 475.94H480.481L480.649 477.5L480.481 477.416C480.585 476.88 480.821 476.476 481.189 476.204C481.557 475.932 481.973 475.796 482.437 475.796C482.557 475.796 482.669 475.804 482.773 475.82C482.877 475.836 482.969 475.86 483.049 475.892L483.025 477.26C482.777 477.156 482.513 477.104 482.233 477.104C481.873 477.104 481.577 477.176 481.345 477.32C481.121 477.464 480.949 477.66 480.829 477.908C480.717 478.148 480.661 478.42 480.661 478.724V482H479.161ZM486.107 482.084C485.579 482.084 485.111 481.96 484.703 481.712C484.295 481.456 483.979 481.096 483.755 480.632C483.539 480.16 483.431 479.608 483.431 478.976C483.431 478.336 483.543 477.78 483.767 477.308C483.991 476.828 484.303 476.456 484.703 476.192C485.111 475.92 485.579 475.784 486.107 475.784C486.619 475.784 487.063 475.912 487.439 476.168C487.823 476.416 488.083 476.764 488.219 477.212L488.075 477.296V475.94H489.551V482H488.075V480.632L488.219 480.68C488.083 481.128 487.823 481.476 487.439 481.724C487.063 481.964 486.619 482.084 486.107 482.084ZM486.515 480.932C487.011 480.932 487.395 480.76 487.667 480.416C487.939 480.072 488.075 479.584 488.075 478.952C488.075 478.304 487.939 477.812 487.667 477.476C487.395 477.132 487.011 476.96 486.515 476.96C486.011 476.96 485.619 477.136 485.339 477.488C485.059 477.84 484.919 478.336 484.919 478.976C484.919 479.6 485.059 480.084 485.339 480.428C485.619 480.764 486.011 480.932 486.515 480.932ZM493.921 482.084C493.289 482.084 492.741 481.96 492.277 481.712C491.821 481.456 491.469 481.096 491.221 480.632C490.981 480.16 490.861 479.608 490.861 478.976C490.861 478.336 490.989 477.776 491.245 477.296C491.501 476.816 491.865 476.444 492.337 476.18C492.809 475.916 493.361 475.784 493.993 475.784C494.417 475.784 494.829 475.852 495.229 475.988C495.637 476.124 495.969 476.312 496.225 476.552L495.793 477.608C495.537 477.4 495.265 477.244 494.977 477.14C494.689 477.028 494.401 476.972 494.113 476.972C493.585 476.972 493.165 477.14 492.853 477.476C492.549 477.812 492.397 478.304 492.397 478.952C492.397 479.592 492.549 480.08 492.853 480.416C493.157 480.752 493.581 480.92 494.125 480.92C494.405 480.92 494.689 480.868 494.977 480.764C495.265 480.652 495.537 480.488 495.793 480.272L496.225 481.328C495.961 481.568 495.621 481.756 495.205 481.892C494.797 482.02 494.369 482.084 493.921 482.084ZM502.428 481.328C502.14 481.568 501.784 481.756 501.36 481.892C500.944 482.02 500.52 482.084 500.088 482.084C499.432 482.084 498.864 481.96 498.384 481.712C497.912 481.464 497.548 481.104 497.292 480.632C497.036 480.16 496.908 479.6 496.908 478.952C496.908 478.328 497.032 477.78 497.28 477.308C497.528 476.828 497.872 476.456 498.312 476.192C498.752 475.92 499.26 475.784 499.836 475.784C500.396 475.784 500.876 475.908 501.276 476.156C501.676 476.396 501.984 476.744 502.2 477.2C502.424 477.656 502.536 478.196 502.536 478.82V479.048H498.228L498.24 478.244H501.648L501.24 478.652C501.248 478.068 501.132 477.624 500.892 477.32C500.66 477.016 500.32 476.864 499.872 476.864C499.392 476.864 499.02 477.036 498.756 477.38C498.492 477.716 498.36 478.2 498.36 478.832C498.36 479.552 498.508 480.084 498.804 480.428C499.1 480.764 499.548 480.932 500.148 480.932C500.476 480.932 500.796 480.88 501.108 480.776C501.428 480.664 501.724 480.504 501.996 480.296L502.428 481.328ZM506.026 482.084C504.922 482.084 504.05 481.832 503.41 481.328L503.83 480.272C504.15 480.512 504.498 480.692 504.874 480.812C505.25 480.932 505.642 480.992 506.05 480.992C506.418 480.992 506.698 480.932 506.89 480.812C507.082 480.692 507.178 480.524 507.178 480.308C507.178 480.124 507.11 479.98 506.974 479.876C506.838 479.764 506.606 479.668 506.278 479.588L505.27 479.36C504.718 479.24 504.302 479.04 504.022 478.76C503.75 478.472 503.614 478.108 503.614 477.668C503.614 477.3 503.718 476.976 503.926 476.696C504.134 476.408 504.426 476.184 504.802 476.024C505.178 475.864 505.614 475.784 506.11 475.784C506.542 475.784 506.958 475.852 507.358 475.988C507.758 476.116 508.106 476.304 508.402 476.552L507.97 477.584C507.666 477.352 507.354 477.18 507.034 477.068C506.722 476.956 506.41 476.9 506.098 476.9C505.754 476.9 505.486 476.964 505.294 477.092C505.102 477.22 505.006 477.396 505.006 477.62C505.006 477.796 505.062 477.936 505.174 478.04C505.294 478.144 505.498 478.228 505.786 478.292L506.806 478.544C507.406 478.672 507.842 478.88 508.114 479.168C508.394 479.448 508.534 479.82 508.534 480.284C508.534 480.836 508.31 481.276 507.862 481.604C507.414 481.924 506.802 482.084 506.026 482.084Z" fill="#6F9CEC"/>
<path d="M535.948 482V473.456H537.184L540.412 480.812H539.824L543.028 473.456H544.264V482H542.884L542.872 475.676L543.28 475.772L540.616 482H539.596L536.872 475.772L537.304 475.676L537.316 482H535.948ZM551.207 481.328C550.919 481.568 550.563 481.756 550.139 481.892C549.723 482.02 549.299 482.084 548.867 482.084C548.211 482.084 547.643 481.96 547.163 481.712C546.691 481.464 546.327 481.104 546.071 480.632C545.815 480.16 545.687 479.6 545.687 478.952C545.687 478.328 545.811 477.78 546.059 477.308C546.307 476.828 546.651 476.456 547.091 476.192C547.531 475.92 548.039 475.784 548.615 475.784C549.175 475.784 549.655 475.908 550.055 476.156C550.455 476.396 550.763 476.744 550.979 477.2C551.203 477.656 551.315 478.196 551.315 478.82V479.048H547.007L547.019 478.244H550.427L550.019 478.652C550.027 478.068 549.911 477.624 549.671 477.32C549.439 477.016 549.099 476.864 548.651 476.864C548.171 476.864 547.799 477.036 547.535 477.38C547.271 477.716 547.139 478.2 547.139 478.832C547.139 479.552 547.287 480.084 547.583 480.428C547.879 480.764 548.327 480.932 548.927 480.932C549.255 480.932 549.575 480.88 549.887 480.776C550.207 480.664 550.503 480.504 550.775 480.296L551.207 481.328ZM551.748 477.068V475.94H556.02V477.068H551.748ZM556.02 480.752V481.94C555.86 481.996 555.7 482.032 555.54 482.048C555.388 482.072 555.224 482.084 555.048 482.084C554.368 482.084 553.84 481.892 553.464 481.508C553.096 481.124 552.912 480.572 552.912 479.852V474.464L554.412 473.96V479.78C554.412 480.052 554.456 480.268 554.544 480.428C554.632 480.58 554.748 480.688 554.892 480.752C555.044 480.816 555.212 480.848 555.396 480.848C555.5 480.848 555.6 480.84 555.696 480.824C555.792 480.808 555.9 480.784 556.02 480.752ZM557.038 482V477.656C557.038 477.376 557.03 477.092 557.014 476.804C557.006 476.508 556.982 476.22 556.942 475.94H558.358L558.526 477.5L558.358 477.416C558.462 476.88 558.698 476.476 559.066 476.204C559.434 475.932 559.85 475.796 560.314 475.796C560.434 475.796 560.546 475.804 560.65 475.82C560.754 475.836 560.846 475.86 560.926 475.892L560.902 477.26C560.654 477.156 560.39 477.104 560.11 477.104C559.75 477.104 559.454 477.176 559.222 477.32C558.998 477.464 558.826 477.66 558.706 477.908C558.594 478.148 558.538 478.42 558.538 478.724V482H557.038ZM561.738 482V475.94H563.238V482H561.738ZM561.666 473.192H563.334V474.668H561.666V473.192ZM567.603 482.084C566.971 482.084 566.423 481.96 565.959 481.712C565.503 481.456 565.151 481.096 564.903 480.632C564.663 480.16 564.543 479.608 564.543 478.976C564.543 478.336 564.671 477.776 564.927 477.296C565.183 476.816 565.547 476.444 566.019 476.18C566.491 475.916 567.043 475.784 567.675 475.784C568.099 475.784 568.511 475.852 568.911 475.988C569.319 476.124 569.651 476.312 569.907 476.552L569.475 477.608C569.219 477.4 568.947 477.244 568.659 477.14C568.371 477.028 568.083 476.972 567.795 476.972C567.267 476.972 566.847 477.14 566.535 477.476C566.231 477.812 566.079 478.304 566.079 478.952C566.079 479.592 566.231 480.08 566.535 480.416C566.839 480.752 567.263 480.92 567.807 480.92C568.087 480.92 568.371 480.868 568.659 480.764C568.947 480.652 569.219 480.488 569.475 480.272L569.907 481.328C569.643 481.568 569.303 481.756 568.887 481.892C568.479 482.02 568.051 482.084 567.603 482.084ZM573.134 482.084C572.03 482.084 571.158 481.832 570.518 481.328L570.938 480.272C571.258 480.512 571.606 480.692 571.982 480.812C572.358 480.932 572.75 480.992 573.158 480.992C573.526 480.992 573.806 480.932 573.998 480.812C574.19 480.692 574.286 480.524 574.286 480.308C574.286 480.124 574.218 479.98 574.082 479.876C573.946 479.764 573.714 479.668 573.386 479.588L572.378 479.36C571.826 479.24 571.41 479.04 571.13 478.76C570.858 478.472 570.722 478.108 570.722 477.668C570.722 477.3 570.826 476.976 571.034 476.696C571.242 476.408 571.534 476.184 571.91 476.024C572.286 475.864 572.722 475.784 573.218 475.784C573.65 475.784 574.066 475.852 574.466 475.988C574.866 476.116 575.214 476.304 575.51 476.552L575.078 477.584C574.774 477.352 574.462 477.18 574.142 477.068C573.83 476.956 573.518 476.9 573.206 476.9C572.862 476.9 572.594 476.964 572.402 477.092C572.21 477.22 572.114 477.396 572.114 477.62C572.114 477.796 572.17 477.936 572.282 478.04C572.402 478.144 572.606 478.228 572.894 478.292L573.914 478.544C574.514 478.672 574.95 478.88 575.222 479.168C575.502 479.448 575.642 479.82 575.642 480.284C575.642 480.836 575.418 481.276 574.97 481.604C574.522 481.924 573.91 482.084 573.134 482.084Z" fill="#E2C898"/>
<path d="M455.243 450L458.778 453.536C459.169 453.926 459.169 454.559 458.778 454.95L455.243 458.485" stroke="#6AACF1" stroke-width="2" stroke-linecap="round" stroke-linejoin="round"/>
<path d="M571.243 450L575.485 454.243L571.243 458.485" stroke="#E2C898" stroke-width="2" stroke-linecap="round" stroke-linejoin="round"/>
<path d="M331.243 346L335.485 350.243L331.243 354.485" stroke="#E2C898" stroke-width="2" stroke-linecap="round" stroke-linejoin="round"/>
<path d="M180.243 462L184.485 466.243L180.243 470.485" stroke="#E2C898" stroke-width="2" stroke-linecap="round" stroke-linejoin="round"/>
<path d="M768.243 462L772.485 466.243L768.243 470.485" stroke="#E2C898" stroke-width="2" stroke-linecap="round" stroke-linejoin="round"/>
<path d="M480.243 346L476 350.243L480.243 354.485" stroke="#E2C898" stroke-width="2" stroke-linecap="round" stroke-linejoin="round"/>
<path d="M481.243 236.485L477.707 232.95C477.317 232.559 477.317 231.926 477.707 231.536L481.243 228" stroke="#6AACF1" stroke-width="2" stroke-linecap="round" stroke-linejoin="round"/>
<path d="M665.243 287.485L661.707 283.95C661.317 283.559 661.317 282.926 661.707 282.536L665.243 279" stroke="#6AACF1" stroke-width="2" stroke-linecap="round" stroke-linejoin="round"/>
<path d="M164.485 279.243L160.95 282.778C160.559 283.169 159.926 283.169 159.536 282.778L156 279.243" stroke="#6AACF1" stroke-width="2" stroke-linecap="round" stroke-linejoin="round"/>
<path d="M752.485 279.243L748.95 282.778C748.559 283.169 747.926 283.169 747.536 282.778L744 279.243" stroke="#6AACF1" stroke-width="2" stroke-linecap="round" stroke-linejoin="round"/>
<path d="M331.243 230L334.778 233.536C335.169 233.926 335.169 234.559 334.778 234.95L331.243 238.485" stroke="#6AACF1" stroke-width="2" stroke-linecap="round" stroke-linejoin="round"/>
<path d="M160 250V278" stroke="#6AACF1" stroke-width="2" stroke-linecap="round" stroke-linejoin="round" stroke-dasharray="1 9 5 9"/>
<path d="M748 250V278" stroke="#6AACF1" stroke-width="2" stroke-linecap="round" stroke-linejoin="round" stroke-dasharray="1 9 5 9"/>
<path d="M418 454H450" stroke="#6AACF1" stroke-width="2" stroke-linecap="round" stroke-linejoin="round" stroke-dasharray="1 9 5 9"/>
<path d="M535 454H567" stroke="#E2C898" stroke-width="2" stroke-linecap="round" stroke-linejoin="round" stroke-dasharray="1 5"/>
<path d="M271 350H335" stroke="#E2C898" stroke-width="2" stroke-linecap="round" stroke-linejoin="round" stroke-dasharray="1 5"/>
<path d="M160 419V447.5C160 457.717 168.283 466 178.5 466V466" stroke="#E2C898" stroke-width="2" stroke-linecap="round" stroke-linejoin="round" stroke-dasharray="1 5"/>
<path d="M748 419V447.5C748 457.717 756.283 466 766.5 466V466" stroke="#E2C898" stroke-width="2" stroke-linecap="round" stroke-linejoin="round" stroke-dasharray="1 5"/>
<path d="M480.985 350V350C491.203 350 499.485 341.717 499.485 331.5V322.015C499.485 307.923 510.909 296.5 525 296.5V296.5" stroke="#E2C898" stroke-width="2" stroke-linecap="round" stroke-linejoin="round" stroke-dasharray="1 5"/>
<path d="M481.985 232.485V232.485C492.203 232.485 500.485 240.768 500.485 250.985V260.471C500.485 274.562 511.909 285.985 526 285.985V285.985" stroke="#6AACF1" stroke-width="2" stroke-linecap="round" stroke-linejoin="round" stroke-dasharray="1 9 5 9"/>
<path d="M665.985 283.485V283.485C679.248 283.485 690 294.237 690 307.5V317.493C690 336.274 705.226 351.5 724.007 351.5H724.5" stroke="#6AACF1" stroke-width="2" stroke-linecap="round" stroke-linejoin="round" stroke-dasharray="1 9 5 9"/>
<path d="M271 339.5V339.5C291.158 339.5 307.5 323.158 307.5 303V257.5C307.5 244.521 318.021 234 331 234V234" stroke="#6AACF1" stroke-width="2" stroke-linecap="round" stroke-linejoin="round" stroke-dasharray="1 9 5 9"/>
<defs>
<filter id="filter0_d" x="106" y="273" width="192" height="192" filterUnits="userSpaceOnUse" color-interpolation-filters="sRGB">
<feFlood flood-opacity="0" result="BackgroundImageFix"/>
<feColorMatrix in="SourceAlpha" type="matrix" values="0 0 0 0 0 0 0 0 0 0 0 0 0 0 0 0 0 0 127 0" result="hardAlpha"/>
<feMorphology radius="4" operator="erode" in="SourceAlpha" result="effect1_dropShadow"/>
<feOffset dy="18"/>
<feGaussianBlur stdDeviation="17"/>
<feColorMatrix type="matrix" values="0 0 0 0 0.205927 0 0 0 0 0.32894 0 0 0 0 0.51346 0 0 0 0.15 0"/>
<feBlend mode="multiply" in2="BackgroundImageFix" result="effect1_dropShadow"/>
<feBlend mode="normal" in="SourceGraphic" in2="effect1_dropShadow" result="shape"/>
</filter>
<filter id="filter1_d" x="698" y="272" width="192" height="192" filterUnits="userSpaceOnUse" color-interpolation-filters="sRGB">
<feFlood flood-opacity="0" result="BackgroundImageFix"/>
<feColorMatrix in="SourceAlpha" type="matrix" values="0 0 0 0 0 0 0 0 0 0 0 0 0 0 0 0 0 0 127 0" result="hardAlpha"/>
<feMorphology radius="4" operator="erode" in="SourceAlpha" result="effect1_dropShadow"/>
<feOffset dy="18"/>
<feGaussianBlur stdDeviation="17"/>
<feColorMatrix type="matrix" values="0 0 0 0 0.447059 0 0 0 0 0.568627 0 0 0 0 0.909804 0 0 0 0.34 0"/>
<feBlend mode="multiply" in2="BackgroundImageFix" result="effect1_dropShadow"/>
<feBlend mode="normal" in="SourceGraphic" in2="effect1_dropShadow" result="shape"/>
</filter>
<filter id="filter2_d" x="496" y="205" width="192" height="192" filterUnits="userSpaceOnUse" color-interpolation-filters="sRGB">
<feFlood flood-opacity="0" result="BackgroundImageFix"/>
<feColorMatrix in="SourceAlpha" type="matrix" values="0 0 0 0 0 0 0 0 0 0 0 0 0 0 0 0 0 0 127 0" result="hardAlpha"/>
<feMorphology radius="4" operator="erode" in="SourceAlpha" result="effect1_dropShadow"/>
<feOffset dy="18"/>
<feGaussianBlur stdDeviation="17"/>
<feColorMatrix type="matrix" values="0 0 0 0 0.321569 0 0 0 0 0.780392 0 0 0 0 0.858824 0 0 0 0.34 0"/>
<feBlend mode="multiply" in2="BackgroundImageFix" result="effect1_dropShadow"/>
<feBlend mode="normal" in="SourceGraphic" in2="effect1_dropShadow" result="shape"/>
</filter>
<filter id="filter3_i" x="136" y="118" width="135" height="133" filterUnits="userSpaceOnUse" color-interpolation-filters="sRGB">
<feFlood flood-opacity="0" result="BackgroundImageFix"/>
<feBlend mode="normal" in="SourceGraphic" in2="BackgroundImageFix" result="shape"/>
<feColorMatrix in="SourceAlpha" type="matrix" values="0 0 0 0 0 0 0 0 0 0 0 0 0 0 0 0 0 0 127 0" result="hardAlpha"/>
<feMorphology radius="4" operator="dilate" in="SourceAlpha" result="effect1_innerShadow"/>
<feOffset dx="3" dy="3"/>
<feGaussianBlur stdDeviation="5"/>
<feComposite in2="hardAlpha" operator="arithmetic" k2="-1" k3="1"/>
<feColorMatrix type="matrix" values="0 0 0 0 0.949398 0 0 0 0 0.771846 0 0 0 0 0.444057 0 0 0 1 0"/>
<feBlend mode="normal" in2="shape" result="effect1_innerShadow"/>
</filter>
<filter id="filter4_i" x="729" y="118" width="132" height="133" filterUnits="userSpaceOnUse" color-interpolation-filters="sRGB">
<feFlood flood-opacity="0" result="BackgroundImageFix"/>
<feBlend mode="normal" in="SourceGraphic" in2="BackgroundImageFix" result="shape"/>
<feColorMatrix in="SourceAlpha" type="matrix" values="0 0 0 0 0 0 0 0 0 0 0 0 0 0 0 0 0 0 127 0" result="hardAlpha"/>
<feMorphology radius="4" operator="dilate" in="SourceAlpha" result="effect1_innerShadow"/>
<feOffset dx="3" dy="3"/>
<feGaussianBlur stdDeviation="5"/>
<feComposite in2="hardAlpha" operator="arithmetic" k2="-1" k3="1"/>
<feColorMatrix type="matrix" values="0 0 0 0 0.949398 0 0 0 0 0.771846 0 0 0 0 0.444057 0 0 0 1 0"/>
<feBlend mode="normal" in2="shape" result="effect1_innerShadow"/>
</filter>
<linearGradient id="paint0_linear" x1="268" y1="427.617" x2="209.198" y2="258.137" gradientUnits="userSpaceOnUse">
<stop stop-color="#777CE0"/>
<stop offset="1" stop-color="#60CEFD"/>
</linearGradient>
<linearGradient id="paint1_linear" x1="860" y1="426.617" x2="801.198" y2="257.137" gradientUnits="userSpaceOnUse">
<stop stop-color="#777CE0"/>
<stop offset="1" stop-color="#60CEFD"/>
</linearGradient>
<linearGradient id="paint2_linear" x1="526" y1="363.061" x2="595.393" y2="188.064" gradientUnits="userSpaceOnUse">
<stop stop-color="#3DB2D7"/>
<stop offset="1" stop-color="#71E5DE"/>
</linearGradient>
<linearGradient id="paint3_linear" x1="128.235" y1="250.726" x2="145.259" y2="166.386" gradientUnits="userSpaceOnUse">
<stop stop-color="#FFC557"/>
<stop offset="1" stop-color="#FFD586"/>
</linearGradient>
<linearGradient id="paint4_linear" x1="720.412" y1="250.726" x2="737.799" y2="166.541" gradientUnits="userSpaceOnUse">
<stop stop-color="#FFC557"/>
<stop offset="1" stop-color="#FFD586"/>
</linearGradient>
</defs>
</svg>
