<svg width="1668" height="904" viewBox="0 0 1668 904" fill="none" xmlns="http://www.w3.org/2000/svg">
<rect width="1668" height="904" rx="27" fill="white"/>
<rect x="1074.29" y="81.7101" width="710.58" height="992.58" rx="25.6522" transform="rotate(90 1074.29 81.7101)" stroke="#90A8EC" stroke-width="3.42029"/>
<rect x="1624.29" y="555.71" width="236.58" height="515.58" rx="25.6522" transform="rotate(90 1624.29 555.71)" stroke="#F5A800" stroke-width="3.42029"/>
<path d="M299.791 347.209C300.459 347.877 301.541 347.877 302.209 347.209L313.093 336.326C313.76 335.658 313.76 334.575 313.093 333.907C312.425 333.24 311.342 333.24 310.674 333.907L301 343.581L291.326 333.907C290.658 333.24 289.575 333.24 288.907 333.907C288.24 334.575 288.24 335.658 288.907 336.326L299.791 347.209ZM299.29 277L299.29 346L302.71 346L302.71 277L299.29 277Z" fill="#7D88A1"/>
<path d="M403.791 495.209C404.459 495.877 405.541 495.877 406.209 495.209L417.093 484.326C417.76 483.658 417.76 482.575 417.093 481.907C416.425 481.24 415.342 481.24 414.674 481.907L405 491.581L395.326 481.907C394.658 481.24 393.575 481.24 392.907 481.907C392.24 482.575 392.24 483.658 392.907 484.326L403.791 495.209ZM403.29 425L403.29 494L406.71 494L406.71 425L403.29 425Z" fill="#7D88A1"/>
<path d="M531 578L531 667.159C531 670.937 534.063 674 537.841 674L1160 674" stroke="#7D88A1" stroke-width="3.42029"/>
<rect x="129" y="766" width="199.725" height="55" rx="10.2226" fill="white"/>
<path d="M170.453 789.051C170.365 788.169 169.99 787.484 169.327 786.996C168.664 786.508 167.764 786.264 166.627 786.264C165.854 786.264 165.202 786.373 164.67 786.592C164.138 786.803 163.73 787.098 163.446 787.477C163.169 787.856 163.03 788.286 163.03 788.767C163.016 789.168 163.1 789.518 163.282 789.816C163.471 790.115 163.73 790.374 164.058 790.593C164.386 790.804 164.765 790.99 165.195 791.15C165.625 791.303 166.084 791.434 166.572 791.544L168.584 792.025C169.56 792.243 170.456 792.535 171.273 792.899C172.089 793.263 172.796 793.712 173.393 794.244C173.991 794.776 174.454 795.402 174.782 796.124C175.117 796.845 175.288 797.672 175.295 798.605C175.288 799.975 174.938 801.163 174.246 802.169C173.561 803.167 172.57 803.943 171.273 804.497C169.983 805.044 168.427 805.317 166.605 805.317C164.798 805.317 163.224 805.04 161.883 804.486C160.549 803.932 159.507 803.113 158.756 802.027C158.013 800.934 157.623 799.582 157.587 797.971H162.167C162.218 798.722 162.433 799.349 162.812 799.851C163.198 800.347 163.712 800.722 164.353 800.977C165.002 801.225 165.734 801.349 166.55 801.349C167.352 801.349 168.048 801.232 168.638 800.999C169.236 800.766 169.699 800.442 170.026 800.026C170.354 799.611 170.518 799.134 170.518 798.594C170.518 798.091 170.369 797.669 170.07 797.326C169.779 796.984 169.349 796.692 168.78 796.452C168.219 796.211 167.53 795.993 166.714 795.796L164.277 795.184C162.389 794.725 160.899 794.007 159.806 793.03C158.713 792.054 158.17 790.738 158.177 789.084C158.17 787.729 158.53 786.544 159.259 785.531C159.995 784.518 161.004 783.728 162.287 783.159C163.57 782.591 165.027 782.307 166.66 782.307C168.321 782.307 169.771 782.591 171.01 783.159C172.256 783.728 173.226 784.518 173.918 785.531C174.61 786.544 174.967 787.718 174.989 789.051H170.453ZM186.044 805.328C184.316 805.328 182.83 804.978 181.584 804.279C180.345 803.572 179.39 802.573 178.72 801.283C178.049 799.986 177.714 798.452 177.714 796.681C177.714 794.954 178.049 793.438 178.72 792.134C179.39 790.829 180.334 789.813 181.551 789.084C182.775 788.355 184.211 787.991 185.858 787.991C186.965 787.991 187.997 788.169 188.951 788.526C189.913 788.876 190.751 789.405 191.466 790.112C192.187 790.818 192.748 791.708 193.149 792.779C193.55 793.843 193.75 795.089 193.75 796.517V797.796H179.572V794.91H189.367C189.367 794.24 189.221 793.646 188.929 793.129C188.638 792.611 188.233 792.207 187.716 791.915C187.206 791.616 186.612 791.467 185.934 791.467C185.227 791.467 184.601 791.631 184.054 791.959C183.515 792.28 183.092 792.713 182.786 793.26C182.48 793.799 182.323 794.4 182.316 795.063V797.807C182.316 798.638 182.469 799.356 182.775 799.961C183.088 800.566 183.529 801.032 184.098 801.36C184.666 801.688 185.34 801.852 186.12 801.852C186.638 801.852 187.111 801.779 187.541 801.633C187.971 801.487 188.339 801.269 188.645 800.977C188.951 800.686 189.185 800.329 189.345 799.906L193.652 800.19C193.433 801.225 192.985 802.129 192.307 802.901C191.637 803.666 190.77 804.264 189.706 804.694C188.649 805.117 187.428 805.328 186.044 805.328ZM196.789 805V788.209H201.304V791.139H201.479C201.785 790.097 202.298 789.31 203.02 788.778C203.741 788.239 204.572 787.969 205.512 787.969C205.745 787.969 205.997 787.984 206.267 788.013C206.536 788.042 206.773 788.082 206.977 788.133V792.265C206.758 792.199 206.456 792.141 206.07 792.09C205.684 792.039 205.33 792.014 205.009 792.014C204.324 792.014 203.712 792.163 203.173 792.462C202.641 792.753 202.218 793.161 201.905 793.686C201.599 794.211 201.446 794.816 201.446 795.501V805H196.789ZM225.549 788.209L219.679 805H214.432L208.562 788.209H213.481L216.968 800.223H217.143L220.619 788.209H225.549ZM227.932 805V788.209H232.589V805H227.932ZM230.283 786.045C229.59 786.045 228.996 785.816 228.501 785.356C228.005 784.89 227.758 784.333 227.758 783.684C227.758 783.043 228.005 782.492 228.501 782.033C228.996 781.567 229.587 781.334 230.272 781.334C230.971 781.334 231.565 781.567 232.054 782.033C232.549 782.492 232.797 783.043 232.797 783.684C232.797 784.333 232.549 784.89 232.054 785.356C231.565 785.816 230.975 786.045 230.283 786.045ZM243.906 805.328C242.186 805.328 240.707 804.964 239.468 804.235C238.236 803.499 237.289 802.479 236.626 801.174C235.97 799.87 235.642 798.368 235.642 796.67C235.642 794.95 235.973 793.442 236.636 792.145C237.307 790.84 238.258 789.824 239.49 789.095C240.721 788.359 242.186 787.991 243.884 787.991C245.349 787.991 246.631 788.257 247.732 788.789C248.832 789.321 249.703 790.068 250.344 791.03C250.986 791.992 251.339 793.121 251.405 794.418H247.01C246.886 793.58 246.558 792.906 246.026 792.396C245.502 791.879 244.813 791.62 243.96 791.62C243.239 791.62 242.609 791.817 242.069 792.21C241.537 792.597 241.122 793.161 240.823 793.905C240.524 794.648 240.375 795.548 240.375 796.605C240.375 797.676 240.521 798.587 240.812 799.338C241.111 800.088 241.53 800.66 242.069 801.054C242.609 801.447 243.239 801.644 243.96 801.644C244.492 801.644 244.97 801.535 245.392 801.316C245.822 801.098 246.176 800.781 246.453 800.365C246.737 799.942 246.923 799.436 247.01 798.846H251.405C251.332 800.128 250.982 801.258 250.355 802.234C249.736 803.204 248.88 803.962 247.786 804.508C246.693 805.055 245.4 805.328 243.906 805.328ZM262.038 805.328C260.311 805.328 258.824 804.978 257.578 804.279C256.339 803.572 255.385 802.573 254.714 801.283C254.044 799.986 253.708 798.452 253.708 796.681C253.708 794.954 254.044 793.438 254.714 792.134C255.385 790.829 256.328 789.813 257.545 789.084C258.77 788.355 260.205 787.991 261.852 787.991C262.96 787.991 263.991 788.169 264.946 788.526C265.908 788.876 266.746 789.405 267.46 790.112C268.182 790.818 268.743 791.708 269.143 792.779C269.544 793.843 269.745 795.089 269.745 796.517V797.796H255.567V794.91H265.361C265.361 794.24 265.216 793.646 264.924 793.129C264.633 792.611 264.228 792.207 263.711 791.915C263.201 791.616 262.607 791.467 261.929 791.467C261.222 791.467 260.595 791.631 260.049 791.959C259.509 792.28 259.087 792.713 258.781 793.26C258.475 793.799 258.318 794.4 258.311 795.063V797.807C258.311 798.638 258.464 799.356 258.77 799.961C259.083 800.566 259.524 801.032 260.092 801.36C260.661 801.688 261.335 801.852 262.115 801.852C262.632 801.852 263.106 801.779 263.536 801.633C263.966 801.487 264.334 801.269 264.64 800.977C264.946 800.686 265.179 800.329 265.339 799.906L269.646 800.19C269.428 801.225 268.98 802.129 268.302 802.901C267.631 803.666 266.764 804.264 265.7 804.694C264.643 805.117 263.423 805.328 262.038 805.328ZM283.854 805H278.782L286.511 782.613H292.61L300.328 805H295.256L289.648 787.729H289.473L283.854 805ZM283.537 796.2H295.518V799.895H283.537V796.2Z" fill="#90A8EC"/>
<rect x="1147" y="766" width="197.725" height="55" rx="10.2226" fill="white"/>
<path d="M1188.45 789.051C1188.37 788.169 1187.99 787.484 1187.33 786.996C1186.66 786.508 1185.76 786.264 1184.63 786.264C1183.85 786.264 1183.2 786.373 1182.67 786.592C1182.14 786.803 1181.73 787.098 1181.45 787.477C1181.17 787.856 1181.03 788.286 1181.03 788.767C1181.02 789.168 1181.1 789.518 1181.28 789.816C1181.47 790.115 1181.73 790.374 1182.06 790.593C1182.39 790.804 1182.76 790.99 1183.19 791.15C1183.62 791.303 1184.08 791.434 1184.57 791.544L1186.58 792.025C1187.56 792.243 1188.46 792.535 1189.27 792.899C1190.09 793.263 1190.8 793.712 1191.39 794.244C1191.99 794.776 1192.45 795.402 1192.78 796.124C1193.12 796.845 1193.29 797.672 1193.3 798.605C1193.29 799.975 1192.94 801.163 1192.25 802.169C1191.56 803.167 1190.57 803.943 1189.27 804.497C1187.98 805.044 1186.43 805.317 1184.6 805.317C1182.8 805.317 1181.22 805.04 1179.88 804.486C1178.55 803.932 1177.51 803.113 1176.76 802.027C1176.01 800.934 1175.62 799.582 1175.59 797.971H1180.17C1180.22 798.722 1180.43 799.349 1180.81 799.851C1181.2 800.347 1181.71 800.722 1182.35 800.977C1183 801.225 1183.73 801.349 1184.55 801.349C1185.35 801.349 1186.05 801.232 1186.64 800.999C1187.24 800.766 1187.7 800.442 1188.03 800.026C1188.35 799.611 1188.52 799.134 1188.52 798.594C1188.52 798.091 1188.37 797.669 1188.07 797.326C1187.78 796.984 1187.35 796.692 1186.78 796.452C1186.22 796.211 1185.53 795.993 1184.71 795.796L1182.28 795.184C1180.39 794.725 1178.9 794.007 1177.81 793.03C1176.71 792.054 1176.17 790.738 1176.18 789.084C1176.17 787.729 1176.53 786.544 1177.26 785.531C1178 784.518 1179 783.728 1180.29 783.159C1181.57 782.591 1183.03 782.307 1184.66 782.307C1186.32 782.307 1187.77 782.591 1189.01 783.159C1190.26 783.728 1191.23 784.518 1191.92 785.531C1192.61 786.544 1192.97 787.718 1192.99 789.051H1188.45ZM1204.04 805.328C1202.32 805.328 1200.83 804.978 1199.58 804.279C1198.34 803.572 1197.39 802.573 1196.72 801.283C1196.05 799.986 1195.71 798.452 1195.71 796.681C1195.71 794.954 1196.05 793.438 1196.72 792.134C1197.39 790.829 1198.33 789.813 1199.55 789.084C1200.78 788.355 1202.21 787.991 1203.86 787.991C1204.97 787.991 1206 788.169 1206.95 788.526C1207.91 788.876 1208.75 789.405 1209.47 790.112C1210.19 790.818 1210.75 791.708 1211.15 792.779C1211.55 793.843 1211.75 795.089 1211.75 796.517V797.796H1197.57V794.91H1207.37C1207.37 794.24 1207.22 793.646 1206.93 793.129C1206.64 792.611 1206.23 792.207 1205.72 791.915C1205.21 791.616 1204.61 791.467 1203.93 791.467C1203.23 791.467 1202.6 791.631 1202.05 791.959C1201.51 792.28 1201.09 792.713 1200.79 793.26C1200.48 793.799 1200.32 794.4 1200.32 795.063V797.807C1200.32 798.638 1200.47 799.356 1200.78 799.961C1201.09 800.566 1201.53 801.032 1202.1 801.36C1202.67 801.688 1203.34 801.852 1204.12 801.852C1204.64 801.852 1205.11 801.779 1205.54 801.633C1205.97 801.487 1206.34 801.269 1206.65 800.977C1206.95 800.686 1207.18 800.329 1207.34 799.906L1211.65 800.19C1211.43 801.225 1210.98 802.129 1210.31 802.901C1209.64 803.666 1208.77 804.264 1207.71 804.694C1206.65 805.117 1205.43 805.328 1204.04 805.328ZM1214.79 805V788.209H1219.3V791.139H1219.48C1219.78 790.097 1220.3 789.31 1221.02 788.778C1221.74 788.239 1222.57 787.969 1223.51 787.969C1223.75 787.969 1224 787.984 1224.27 788.013C1224.54 788.042 1224.77 788.082 1224.98 788.133V792.265C1224.76 792.199 1224.46 792.141 1224.07 792.09C1223.68 792.039 1223.33 792.014 1223.01 792.014C1222.32 792.014 1221.71 792.163 1221.17 792.462C1220.64 792.753 1220.22 793.161 1219.9 793.686C1219.6 794.211 1219.45 794.816 1219.45 795.501V805H1214.79ZM1243.55 788.209L1237.68 805H1232.43L1226.56 788.209H1231.48L1234.97 800.223H1235.14L1238.62 788.209H1243.55ZM1245.93 805V788.209H1250.59V805H1245.93ZM1248.28 786.045C1247.59 786.045 1247 785.816 1246.5 785.356C1246.01 784.89 1245.76 784.333 1245.76 783.684C1245.76 783.043 1246.01 782.492 1246.5 782.033C1247 781.567 1247.59 781.334 1248.27 781.334C1248.97 781.334 1249.57 781.567 1250.05 782.033C1250.55 782.492 1250.8 783.043 1250.8 783.684C1250.8 784.333 1250.55 784.89 1250.05 785.356C1249.57 785.816 1248.97 786.045 1248.28 786.045ZM1261.91 805.328C1260.19 805.328 1258.71 804.964 1257.47 804.235C1256.24 803.499 1255.29 802.479 1254.63 801.174C1253.97 799.87 1253.64 798.368 1253.64 796.67C1253.64 794.95 1253.97 793.442 1254.64 792.145C1255.31 790.84 1256.26 789.824 1257.49 789.095C1258.72 788.359 1260.19 787.991 1261.88 787.991C1263.35 787.991 1264.63 788.257 1265.73 788.789C1266.83 789.321 1267.7 790.068 1268.34 791.03C1268.99 791.992 1269.34 793.121 1269.4 794.418H1265.01C1264.89 793.58 1264.56 792.906 1264.03 792.396C1263.5 791.879 1262.81 791.62 1261.96 791.62C1261.24 791.62 1260.61 791.817 1260.07 792.21C1259.54 792.597 1259.12 793.161 1258.82 793.905C1258.52 794.648 1258.37 795.548 1258.37 796.605C1258.37 797.676 1258.52 798.587 1258.81 799.338C1259.11 800.088 1259.53 800.66 1260.07 801.054C1260.61 801.447 1261.24 801.644 1261.96 801.644C1262.49 801.644 1262.97 801.535 1263.39 801.316C1263.82 801.098 1264.18 800.781 1264.45 800.365C1264.74 799.942 1264.92 799.436 1265.01 798.846H1269.4C1269.33 800.128 1268.98 801.258 1268.36 802.234C1267.74 803.204 1266.88 803.962 1265.79 804.508C1264.69 805.055 1263.4 805.328 1261.91 805.328ZM1280.04 805.328C1278.31 805.328 1276.82 804.978 1275.58 804.279C1274.34 803.572 1273.38 802.573 1272.71 801.283C1272.04 799.986 1271.71 798.452 1271.71 796.681C1271.71 794.954 1272.04 793.438 1272.71 792.134C1273.38 790.829 1274.33 789.813 1275.55 789.084C1276.77 788.355 1278.21 787.991 1279.85 787.991C1280.96 787.991 1281.99 788.169 1282.95 788.526C1283.91 788.876 1284.75 789.405 1285.46 790.112C1286.18 790.818 1286.74 791.708 1287.14 792.779C1287.54 793.843 1287.74 795.089 1287.74 796.517V797.796H1273.57V794.91H1283.36C1283.36 794.24 1283.22 793.646 1282.92 793.129C1282.63 792.611 1282.23 792.207 1281.71 791.915C1281.2 791.616 1280.61 791.467 1279.93 791.467C1279.22 791.467 1278.6 791.631 1278.05 791.959C1277.51 792.28 1277.09 792.713 1276.78 793.26C1276.47 793.799 1276.32 794.4 1276.31 795.063V797.807C1276.31 798.638 1276.46 799.356 1276.77 799.961C1277.08 800.566 1277.52 801.032 1278.09 801.36C1278.66 801.688 1279.33 801.852 1280.11 801.852C1280.63 801.852 1281.11 801.779 1281.54 801.633C1281.97 801.487 1282.33 801.269 1282.64 800.977C1282.95 800.686 1283.18 800.329 1283.34 799.906L1287.65 800.19C1287.43 801.225 1286.98 802.129 1286.3 802.901C1285.63 803.666 1284.76 804.264 1283.7 804.694C1282.64 805.117 1281.42 805.328 1280.04 805.328ZM1298 805V782.613H1306.96C1308.61 782.613 1309.98 782.857 1311.08 783.345C1312.18 783.833 1313.01 784.511 1313.56 785.378C1314.12 786.238 1314.39 787.229 1314.39 788.352C1314.39 789.226 1314.22 789.995 1313.87 790.658C1313.52 791.314 1313.04 791.853 1312.42 792.276C1311.82 792.691 1311.13 792.986 1310.35 793.161V793.38C1311.2 793.416 1312 793.657 1312.74 794.101C1313.49 794.546 1314.1 795.169 1314.57 795.971C1315.03 796.765 1315.27 797.712 1315.27 798.813C1315.27 800.001 1314.97 801.061 1314.38 801.994C1313.8 802.919 1312.94 803.652 1311.79 804.191C1310.65 804.73 1309.24 805 1307.56 805H1298ZM1302.73 801.13H1306.59C1307.91 801.13 1308.87 800.879 1309.47 800.376C1310.08 799.866 1310.38 799.188 1310.38 798.343C1310.38 797.723 1310.23 797.177 1309.93 796.703C1309.63 796.229 1309.21 795.858 1308.65 795.588C1308.11 795.318 1307.45 795.184 1306.7 795.184H1302.73V801.13ZM1302.73 791.981H1306.24C1306.89 791.981 1307.46 791.868 1307.96 791.642C1308.48 791.409 1308.88 791.081 1309.17 790.658C1309.47 790.235 1309.62 789.729 1309.62 789.139C1309.62 788.33 1309.33 787.677 1308.75 787.182C1308.18 786.686 1307.37 786.439 1306.33 786.439H1302.73V791.981Z" fill="#F5A800"/>
<rect x="105" y="274" width="114" height="934" rx="8" transform="rotate(-90 105 274)" fill="#90A8EC"/>
<path d="M130.946 227.5V205.113H139.778C141.476 205.113 142.923 205.437 144.118 206.086C145.313 206.727 146.224 207.62 146.851 208.764C147.485 209.901 147.802 211.212 147.802 212.699C147.802 214.186 147.481 215.497 146.84 216.634C146.199 217.771 145.269 218.657 144.052 219.291C142.843 219.925 141.378 220.242 139.658 220.242H134.028V216.448H138.893C139.804 216.448 140.554 216.292 141.145 215.978C141.742 215.658 142.187 215.217 142.478 214.656C142.777 214.087 142.927 213.435 142.927 212.699C142.927 211.956 142.777 211.307 142.478 210.753C142.187 210.192 141.742 209.758 141.145 209.452C140.547 209.139 139.789 208.982 138.871 208.982H135.679V227.5H130.946ZM155.126 227.817C154.055 227.817 153.1 227.631 152.262 227.26C151.424 226.881 150.761 226.323 150.272 225.587C149.791 224.844 149.551 223.918 149.551 222.81C149.551 221.878 149.722 221.094 150.065 220.46C150.407 219.826 150.874 219.316 151.464 218.93C152.054 218.544 152.725 218.252 153.475 218.055C154.233 217.859 155.027 217.72 155.858 217.64C156.835 217.538 157.622 217.443 158.219 217.356C158.817 217.261 159.251 217.123 159.52 216.94C159.79 216.758 159.925 216.489 159.925 216.131V216.066C159.925 215.374 159.706 214.838 159.269 214.459C158.839 214.08 158.227 213.891 157.432 213.891C156.594 213.891 155.927 214.076 155.432 214.448C154.936 214.812 154.608 215.271 154.448 215.825L150.141 215.476C150.36 214.455 150.79 213.573 151.431 212.83C152.072 212.08 152.9 211.504 153.912 211.103C154.933 210.695 156.113 210.491 157.454 210.491C158.387 210.491 159.28 210.6 160.132 210.819C160.992 211.037 161.754 211.376 162.417 211.835C163.088 212.295 163.616 212.885 164.002 213.606C164.388 214.32 164.581 215.177 164.581 216.175V227.5H160.165V225.172H160.034C159.764 225.696 159.404 226.159 158.952 226.56C158.5 226.953 157.957 227.263 157.323 227.489C156.689 227.708 155.957 227.817 155.126 227.817ZM156.459 224.603C157.145 224.603 157.749 224.468 158.274 224.199C158.799 223.922 159.211 223.55 159.509 223.084C159.808 222.617 159.958 222.089 159.958 221.499V219.717C159.812 219.812 159.611 219.899 159.356 219.979C159.109 220.052 158.828 220.121 158.515 220.187C158.201 220.245 157.888 220.3 157.574 220.351C157.261 220.395 156.977 220.435 156.722 220.471C156.175 220.551 155.698 220.679 155.29 220.854C154.882 221.029 154.565 221.266 154.339 221.564C154.113 221.856 154 222.22 154 222.657C154 223.291 154.229 223.776 154.689 224.111C155.155 224.439 155.745 224.603 156.459 224.603ZM168.194 227.5V210.709H172.709V213.639H172.884C173.19 212.597 173.704 211.81 174.425 211.278C175.147 210.739 175.977 210.469 176.917 210.469C177.151 210.469 177.402 210.484 177.672 210.513C177.941 210.542 178.178 210.582 178.382 210.633V214.765C178.164 214.699 177.861 214.641 177.475 214.59C177.089 214.539 176.735 214.514 176.415 214.514C175.73 214.514 175.117 214.663 174.578 214.962C174.046 215.253 173.623 215.661 173.31 216.186C173.004 216.711 172.851 217.316 172.851 218.001V227.5H168.194ZM187.66 227.828C185.933 227.828 184.446 227.478 183.2 226.779C181.961 226.072 181.007 225.073 180.336 223.783C179.666 222.486 179.331 220.952 179.331 219.181C179.331 217.454 179.666 215.938 180.336 214.634C181.007 213.329 181.95 212.313 183.167 211.584C184.392 210.855 185.827 210.491 187.474 210.491C188.582 210.491 189.613 210.669 190.568 211.026C191.53 211.376 192.368 211.905 193.082 212.612C193.804 213.318 194.365 214.208 194.766 215.279C195.166 216.343 195.367 217.589 195.367 219.017V220.296H181.189V217.41H190.983C190.983 216.74 190.838 216.146 190.546 215.629C190.255 215.111 189.85 214.707 189.333 214.415C188.823 214.116 188.229 213.967 187.551 213.967C186.844 213.967 186.217 214.131 185.671 214.459C185.131 214.78 184.709 215.213 184.403 215.76C184.097 216.299 183.94 216.9 183.933 217.563V220.307C183.933 221.138 184.086 221.856 184.392 222.461C184.705 223.066 185.146 223.532 185.714 223.86C186.283 224.188 186.957 224.352 187.737 224.352C188.254 224.352 188.728 224.279 189.158 224.133C189.588 223.987 189.956 223.769 190.262 223.477C190.568 223.186 190.801 222.829 190.961 222.406L195.268 222.69C195.05 223.725 194.602 224.629 193.924 225.401C193.253 226.166 192.386 226.764 191.322 227.194C190.266 227.617 189.045 227.828 187.66 227.828ZM203.062 217.793V227.5H198.406V210.709H202.844V213.672H203.041C203.412 212.695 204.035 211.923 204.91 211.354C205.784 210.779 206.845 210.491 208.091 210.491C209.257 210.491 210.273 210.746 211.141 211.256C212.008 211.766 212.682 212.495 213.163 213.442C213.644 214.382 213.884 215.505 213.884 216.809V227.5H209.228V217.64C209.235 216.612 208.973 215.811 208.441 215.235C207.909 214.652 207.176 214.361 206.243 214.361C205.617 214.361 205.063 214.495 204.582 214.765C204.108 215.035 203.737 215.428 203.467 215.946C203.205 216.456 203.07 217.072 203.062 217.793ZM226.486 210.709V214.208H216.374V210.709H226.486ZM218.67 206.687H223.326V222.34C223.326 222.77 223.392 223.106 223.523 223.346C223.654 223.579 223.837 223.743 224.07 223.838C224.31 223.933 224.587 223.98 224.9 223.98C225.119 223.98 225.338 223.962 225.556 223.925C225.775 223.882 225.943 223.849 226.059 223.827L226.792 227.292C226.558 227.365 226.23 227.449 225.808 227.544C225.385 227.646 224.871 227.708 224.266 227.73C223.144 227.773 222.16 227.624 221.315 227.281C220.477 226.939 219.825 226.407 219.358 225.685C218.892 224.964 218.662 224.053 218.67 222.953V206.687ZM248.876 211.551C248.788 210.669 248.413 209.984 247.75 209.496C247.087 209.008 246.187 208.764 245.05 208.764C244.277 208.764 243.625 208.873 243.093 209.092C242.561 209.303 242.153 209.598 241.869 209.977C241.592 210.356 241.453 210.786 241.453 211.267C241.439 211.668 241.522 212.018 241.705 212.316C241.894 212.615 242.153 212.874 242.481 213.093C242.809 213.304 243.188 213.49 243.618 213.65C244.048 213.803 244.507 213.934 244.995 214.044L247.006 214.525C247.983 214.743 248.879 215.035 249.695 215.399C250.512 215.763 251.219 216.212 251.816 216.744C252.414 217.276 252.876 217.902 253.204 218.624C253.54 219.345 253.711 220.172 253.718 221.105C253.711 222.475 253.361 223.663 252.669 224.669C251.984 225.667 250.993 226.443 249.695 226.997C248.406 227.544 246.85 227.817 245.028 227.817C243.22 227.817 241.646 227.54 240.305 226.986C238.972 226.432 237.93 225.613 237.179 224.527C236.436 223.434 236.046 222.082 236.009 220.471H240.59C240.641 221.222 240.856 221.849 241.235 222.351C241.621 222.847 242.135 223.222 242.776 223.477C243.425 223.725 244.157 223.849 244.973 223.849C245.775 223.849 246.471 223.732 247.061 223.499C247.659 223.266 248.121 222.942 248.449 222.526C248.777 222.111 248.941 221.634 248.941 221.094C248.941 220.591 248.792 220.169 248.493 219.826C248.202 219.484 247.772 219.192 247.203 218.952C246.642 218.711 245.953 218.493 245.137 218.296L242.699 217.684C240.812 217.225 239.322 216.507 238.229 215.53C237.135 214.554 236.592 213.238 236.6 211.584C236.592 210.229 236.953 209.044 237.682 208.031C238.418 207.018 239.427 206.228 240.71 205.659C241.993 205.091 243.45 204.807 245.082 204.807C246.744 204.807 248.194 205.091 249.433 205.659C250.679 206.228 251.649 207.018 252.341 208.031C253.033 209.044 253.39 210.218 253.412 211.551H248.876ZM256.814 233.796V210.709H261.406V213.53H261.613C261.817 213.078 262.113 212.619 262.499 212.152C262.892 211.679 263.402 211.285 264.029 210.972C264.663 210.651 265.45 210.491 266.39 210.491C267.615 210.491 268.744 210.812 269.779 211.453C270.814 212.087 271.641 213.045 272.26 214.328C272.88 215.603 273.19 217.203 273.19 219.127C273.19 221 272.887 222.581 272.282 223.871C271.685 225.153 270.869 226.126 269.834 226.789C268.806 227.445 267.655 227.773 266.379 227.773C265.476 227.773 264.707 227.624 264.073 227.325C263.446 227.026 262.932 226.651 262.532 226.199C262.131 225.74 261.825 225.277 261.613 224.811H261.471V233.796H256.814ZM261.373 219.105C261.373 220.103 261.511 220.974 261.788 221.717C262.065 222.461 262.466 223.04 262.991 223.455C263.515 223.864 264.153 224.068 264.904 224.068C265.662 224.068 266.303 223.86 266.828 223.444C267.352 223.022 267.749 222.439 268.019 221.695C268.296 220.945 268.434 220.081 268.434 219.105C268.434 218.135 268.3 217.283 268.03 216.547C267.76 215.811 267.363 215.235 266.839 214.82C266.314 214.404 265.669 214.197 264.904 214.197C264.146 214.197 263.504 214.397 262.98 214.798C262.462 215.199 262.065 215.767 261.788 216.503C261.511 217.239 261.373 218.106 261.373 219.105ZM281.082 227.817C280.011 227.817 279.056 227.631 278.218 227.26C277.38 226.881 276.717 226.323 276.229 225.587C275.748 224.844 275.507 223.918 275.507 222.81C275.507 221.878 275.678 221.094 276.021 220.46C276.363 219.826 276.83 219.316 277.42 218.93C278.01 218.544 278.681 218.252 279.431 218.055C280.189 217.859 280.984 217.72 281.814 217.64C282.791 217.538 283.578 217.443 284.176 217.356C284.773 217.261 285.207 217.123 285.476 216.94C285.746 216.758 285.881 216.489 285.881 216.131V216.066C285.881 215.374 285.662 214.838 285.225 214.459C284.795 214.08 284.183 213.891 283.389 213.891C282.55 213.891 281.884 214.076 281.388 214.448C280.893 214.812 280.565 215.271 280.404 215.825L276.097 215.476C276.316 214.455 276.746 213.573 277.387 212.83C278.029 212.08 278.856 211.504 279.869 211.103C280.889 210.695 282.069 210.491 283.41 210.491C284.343 210.491 285.236 210.6 286.089 210.819C286.949 211.037 287.71 211.376 288.373 211.835C289.044 212.295 289.572 212.885 289.958 213.606C290.345 214.32 290.538 215.177 290.538 216.175V227.5H286.121V225.172H285.99C285.721 225.696 285.36 226.159 284.908 226.56C284.456 226.953 283.913 227.263 283.279 227.489C282.645 227.708 281.913 227.817 281.082 227.817ZM282.416 224.603C283.101 224.603 283.706 224.468 284.23 224.199C284.755 223.922 285.167 223.55 285.465 223.084C285.764 222.617 285.914 222.089 285.914 221.499V219.717C285.768 219.812 285.568 219.899 285.312 219.979C285.065 220.052 284.784 220.121 284.471 220.187C284.157 220.245 283.844 220.3 283.531 220.351C283.217 220.395 282.933 220.435 282.678 220.471C282.131 220.551 281.654 220.679 281.246 220.854C280.838 221.029 280.521 221.266 280.295 221.564C280.069 221.856 279.956 222.22 279.956 222.657C279.956 223.291 280.186 223.776 280.645 224.111C281.111 224.439 281.701 224.603 282.416 224.603ZM298.807 217.793V227.5H294.15V210.709H298.589V213.672H298.785C299.157 212.695 299.78 211.923 300.655 211.354C301.529 210.779 302.589 210.491 303.836 210.491C305.002 210.491 306.018 210.746 306.885 211.256C307.753 211.766 308.427 212.495 308.908 213.442C309.389 214.382 309.629 215.505 309.629 216.809V227.5H304.972V217.64C304.98 216.612 304.717 215.811 304.185 215.235C303.653 214.652 302.921 214.361 301.988 214.361C301.361 214.361 300.808 214.495 300.327 214.765C299.853 215.035 299.481 215.428 299.212 215.946C298.949 216.456 298.814 217.072 298.807 217.793Z" fill="white"/>
<g filter="url(#filter0_d_426_715)">
<path d="M352 194C352 188.477 356.477 184 362 184H490.996C496.521 184 501 188.479 501 194.004V239.996C501 245.521 496.521 250 490.996 250H362C356.477 250 352 245.523 352 240V194Z" fill="white"/>
<path d="M392.239 212.495H389.596C389.439 211.735 389.166 211.067 388.775 210.491C388.391 209.916 387.922 209.433 387.368 209.042C386.821 208.644 386.214 208.346 385.546 208.147C384.878 207.948 384.182 207.848 383.457 207.848C382.136 207.848 380.938 208.182 379.866 208.85C378.8 209.518 377.951 210.502 377.319 211.802C376.693 213.102 376.381 214.697 376.381 216.587C376.381 218.477 376.693 220.072 377.319 221.372C377.951 222.672 378.8 223.656 379.866 224.324C380.938 224.992 382.136 225.326 383.457 225.326C384.182 225.326 384.878 225.226 385.546 225.028C386.214 224.829 386.821 224.534 387.368 224.143C387.922 223.745 388.391 223.258 388.775 222.683C389.166 222.1 389.439 221.433 389.596 220.679H392.239C392.04 221.795 391.677 222.793 391.152 223.674C390.626 224.555 389.972 225.305 389.191 225.923C388.409 226.534 387.532 226.999 386.558 227.319C385.592 227.639 384.558 227.798 383.457 227.798C381.596 227.798 379.94 227.344 378.491 226.434C377.042 225.525 375.901 224.232 375.07 222.555C374.239 220.878 373.823 218.889 373.823 216.587C373.823 214.285 374.239 212.296 375.07 210.619C375.901 208.942 377.042 207.649 378.491 206.74C379.94 205.83 381.596 205.376 383.457 205.376C384.558 205.376 385.592 205.536 386.558 205.855C387.532 206.175 388.409 206.644 389.191 207.262C389.972 207.873 390.626 208.619 391.152 209.5C391.677 210.374 392.04 211.372 392.239 212.495ZM398.684 205.674V227.5H396.168V205.674H398.684ZM403.29 227.5V211.131H405.805V227.5H403.29ZM404.569 208.402C404.079 208.402 403.656 208.235 403.301 207.902C402.953 207.568 402.779 207.166 402.779 206.697C402.779 206.228 402.953 205.827 403.301 205.493C403.656 205.159 404.079 204.992 404.569 204.992C405.059 204.992 405.478 205.159 405.826 205.493C406.182 205.827 406.359 206.228 406.359 206.697C406.359 207.166 406.182 207.568 405.826 207.902C405.478 208.235 405.059 208.402 404.569 208.402ZM417.275 227.841C415.698 227.841 414.337 227.493 413.193 226.797C412.056 226.093 411.179 225.113 410.561 223.855C409.95 222.591 409.644 221.12 409.644 219.443C409.644 217.766 409.95 216.289 410.561 215.01C411.179 213.724 412.039 212.722 413.14 212.005C414.248 211.28 415.541 210.917 417.019 210.917C417.872 210.917 418.714 211.06 419.545 211.344C420.376 211.628 421.133 212.09 421.815 212.729C422.497 213.362 423.04 214.2 423.445 215.244C423.85 216.289 424.053 217.575 424.053 219.102V220.168H411.435V217.994H421.495C421.495 217.07 421.31 216.246 420.941 215.521C420.579 214.797 420.06 214.225 419.385 213.806C418.717 213.386 417.929 213.177 417.019 213.177C416.017 213.177 415.151 213.425 414.419 213.923C413.694 214.413 413.136 215.052 412.746 215.841C412.355 216.63 412.159 217.475 412.159 218.377V219.827C412.159 221.063 412.373 222.111 412.799 222.971C413.232 223.823 413.833 224.473 414.6 224.921C415.367 225.361 416.259 225.582 417.275 225.582C417.936 225.582 418.532 225.489 419.065 225.305C419.605 225.113 420.071 224.829 420.461 224.452C420.852 224.068 421.154 223.592 421.367 223.024L423.797 223.706C423.541 224.53 423.111 225.255 422.508 225.88C421.904 226.498 421.158 226.981 420.27 227.329C419.381 227.671 418.383 227.841 417.275 227.841ZM430.394 217.653V227.5H427.879V211.131H430.309V213.688H430.522C430.905 212.857 431.488 212.189 432.27 211.685C433.051 211.173 434.06 210.917 435.296 210.917C436.404 210.917 437.374 211.145 438.206 211.6C439.037 212.047 439.683 212.729 440.145 213.646C440.607 214.555 440.838 215.706 440.838 217.099V227.5H438.323V217.269C438.323 215.983 437.989 214.981 437.321 214.264C436.653 213.539 435.737 213.177 434.571 213.177C433.769 213.177 433.051 213.351 432.419 213.699C431.793 214.047 431.3 214.555 430.937 215.223C430.575 215.891 430.394 216.701 430.394 217.653ZM452.553 211.131V213.262H444.07V211.131H452.553ZM446.542 207.209H449.057V222.811C449.057 223.521 449.16 224.054 449.366 224.409C449.579 224.758 449.849 224.992 450.176 225.113C450.51 225.226 450.862 225.283 451.231 225.283C451.508 225.283 451.736 225.269 451.913 225.241C452.091 225.205 452.233 225.177 452.34 225.155L452.851 227.415C452.681 227.479 452.443 227.543 452.137 227.607C451.832 227.678 451.444 227.713 450.975 227.713C450.265 227.713 449.569 227.56 448.887 227.255C448.212 226.949 447.65 226.484 447.203 225.859C446.762 225.234 446.542 224.445 446.542 223.493V207.209ZM459.672 205.674V227.5H457.029V205.674H459.672ZM470.811 227.841C469.447 227.841 468.243 227.496 467.198 226.807C466.154 226.111 465.337 225.131 464.747 223.866C464.157 222.594 463.863 221.092 463.863 219.358C463.863 217.639 464.157 216.147 464.747 214.882C465.337 213.617 466.157 212.64 467.209 211.951C468.26 211.262 469.475 210.917 470.854 210.917C471.919 210.917 472.761 211.095 473.379 211.45C474.005 211.798 474.481 212.196 474.807 212.644C475.141 213.084 475.401 213.447 475.585 213.731H475.799V205.674H478.314V227.5H475.884V224.985H475.585C475.401 225.283 475.138 225.66 474.797 226.115C474.456 226.562 473.969 226.964 473.337 227.319C472.704 227.667 471.863 227.841 470.811 227.841ZM471.152 225.582C472.161 225.582 473.014 225.319 473.71 224.793C474.406 224.26 474.935 223.525 475.298 222.587C475.66 221.642 475.841 220.552 475.841 219.315C475.841 218.093 475.664 217.024 475.308 216.108C474.953 215.184 474.427 214.466 473.731 213.955C473.035 213.436 472.175 213.177 471.152 213.177C470.086 213.177 469.198 213.45 468.488 213.997C467.784 214.537 467.255 215.273 466.9 216.203C466.552 217.127 466.378 218.164 466.378 219.315C466.378 220.48 466.555 221.539 466.911 222.491C467.273 223.436 467.806 224.189 468.509 224.75C469.22 225.305 470.101 225.582 471.152 225.582Z" fill="#7D88A1"/>
</g>
<rect x="205" y="426" width="114" height="438" rx="8" transform="rotate(-90 205 426)" fill="#E7ECF8"/>
<path d="M269.699 364.95H264.911C264.823 364.331 264.645 363.781 264.375 363.3C264.105 362.812 263.759 362.396 263.337 362.054C262.914 361.711 262.426 361.449 261.872 361.267C261.325 361.084 260.731 360.993 260.09 360.993C258.931 360.993 257.922 361.281 257.062 361.857C256.202 362.425 255.535 363.256 255.062 364.349C254.588 365.435 254.351 366.754 254.351 368.306C254.351 369.902 254.588 371.243 255.062 372.329C255.543 373.415 256.213 374.235 257.073 374.789C257.933 375.342 258.928 375.619 260.057 375.619C260.691 375.619 261.278 375.536 261.817 375.368C262.364 375.2 262.848 374.956 263.271 374.636C263.694 374.308 264.044 373.91 264.32 373.444C264.605 372.978 264.801 372.446 264.911 371.848L269.699 371.87C269.575 372.897 269.265 373.889 268.77 374.843C268.281 375.791 267.622 376.64 266.791 377.39C265.967 378.134 264.984 378.724 263.839 379.161C262.703 379.591 261.416 379.806 259.981 379.806C257.984 379.806 256.198 379.354 254.624 378.451C253.058 377.547 251.819 376.239 250.908 374.526C250.004 372.814 249.552 370.74 249.552 368.306C249.552 365.865 250.011 363.788 250.93 362.075C251.848 360.363 253.094 359.058 254.668 358.162C256.242 357.258 258.013 356.807 259.981 356.807C261.278 356.807 262.48 356.989 263.588 357.353C264.703 357.718 265.691 358.25 266.55 358.949C267.41 359.641 268.11 360.49 268.649 361.496C269.196 362.502 269.546 363.653 269.699 364.95ZM277.662 369.793V379.5H273.005V357.113H277.531V365.672H277.728C278.107 364.681 278.719 363.905 279.564 363.344C280.41 362.775 281.47 362.491 282.745 362.491C283.911 362.491 284.928 362.746 285.795 363.256C286.67 363.759 287.347 364.484 287.828 365.431C288.317 366.371 288.557 367.497 288.55 368.809V379.5H283.893V369.64C283.9 368.605 283.638 367.8 283.106 367.224C282.581 366.648 281.845 366.361 280.898 366.361C280.264 366.361 279.703 366.495 279.214 366.765C278.733 367.035 278.354 367.428 278.078 367.946C277.808 368.456 277.669 369.072 277.662 369.793ZM292.214 379.5V362.709H296.871V379.5H292.214ZM294.565 360.545C293.872 360.545 293.278 360.316 292.783 359.856C292.287 359.39 292.04 358.833 292.04 358.184C292.04 357.543 292.287 356.992 292.783 356.533C293.278 356.067 293.869 355.834 294.554 355.834C295.253 355.834 295.847 356.067 296.336 356.533C296.831 356.992 297.079 357.543 297.079 358.184C297.079 358.833 296.831 359.39 296.336 359.856C295.847 360.316 295.257 360.545 294.565 360.545ZM305.258 357.113V379.5H300.602V357.113H305.258ZM315.176 379.773C313.9 379.773 312.745 379.445 311.71 378.789C310.683 378.126 309.867 377.153 309.262 375.871C308.664 374.581 308.366 373 308.366 371.127C308.366 369.203 308.675 367.603 309.295 366.328C309.914 365.045 310.738 364.087 311.765 363.453C312.8 362.812 313.933 362.491 315.165 362.491C316.105 362.491 316.888 362.651 317.515 362.972C318.149 363.285 318.659 363.679 319.045 364.152C319.439 364.619 319.738 365.078 319.942 365.53H320.084V357.113H324.73V379.5H320.139V376.811H319.942C319.723 377.277 319.413 377.74 319.013 378.199C318.619 378.651 318.105 379.026 317.471 379.325C316.845 379.624 316.079 379.773 315.176 379.773ZM316.651 376.068C317.402 376.068 318.036 375.864 318.553 375.455C319.078 375.04 319.479 374.461 319.756 373.717C320.04 372.974 320.182 372.103 320.182 371.105C320.182 370.106 320.044 369.239 319.767 368.503C319.49 367.767 319.089 367.199 318.564 366.798C318.04 366.397 317.402 366.197 316.651 366.197C315.886 366.197 315.241 366.404 314.717 366.82C314.192 367.235 313.795 367.811 313.525 368.547C313.255 369.283 313.121 370.135 313.121 371.105C313.121 372.081 313.255 372.945 313.525 373.695C313.802 374.439 314.199 375.022 314.717 375.444C315.241 375.86 315.886 376.068 316.651 376.068ZM347.915 363.551C347.828 362.669 347.452 361.984 346.789 361.496C346.126 361.008 345.226 360.764 344.089 360.764C343.317 360.764 342.664 360.873 342.132 361.092C341.6 361.303 341.192 361.598 340.908 361.977C340.631 362.356 340.493 362.786 340.493 363.267C340.478 363.668 340.562 364.018 340.744 364.316C340.934 364.615 341.192 364.874 341.52 365.093C341.848 365.304 342.227 365.49 342.657 365.65C343.087 365.803 343.546 365.934 344.034 366.044L346.046 366.525C347.022 366.743 347.919 367.035 348.735 367.399C349.551 367.763 350.258 368.212 350.856 368.744C351.453 369.276 351.916 369.902 352.244 370.624C352.579 371.345 352.75 372.172 352.758 373.105C352.75 374.475 352.401 375.663 351.708 376.669C351.023 377.667 350.032 378.443 348.735 378.997C347.445 379.544 345.889 379.817 344.067 379.817C342.26 379.817 340.686 379.54 339.345 378.986C338.011 378.432 336.969 377.613 336.219 376.527C335.475 375.434 335.085 374.082 335.049 372.471H339.629C339.68 373.222 339.895 373.849 340.274 374.351C340.66 374.847 341.174 375.222 341.815 375.477C342.464 375.725 343.196 375.849 344.013 375.849C344.814 375.849 345.51 375.732 346.1 375.499C346.698 375.266 347.161 374.942 347.489 374.526C347.817 374.111 347.981 373.634 347.981 373.094C347.981 372.591 347.831 372.169 347.532 371.826C347.241 371.484 346.811 371.192 346.243 370.952C345.681 370.711 344.993 370.493 344.177 370.296L341.739 369.684C339.851 369.225 338.361 368.507 337.268 367.53C336.175 366.554 335.632 365.238 335.639 363.584C335.632 362.229 335.993 361.044 336.721 360.031C337.457 359.018 338.467 358.228 339.749 357.659C341.032 357.091 342.489 356.807 344.122 356.807C345.783 356.807 347.234 357.091 348.473 357.659C349.719 358.228 350.688 359.018 351.38 360.031C352.073 361.044 352.43 362.218 352.452 363.551H347.915ZM355.854 385.796V362.709H360.445V365.53H360.653C360.857 365.078 361.152 364.619 361.538 364.152C361.932 363.679 362.442 363.285 363.069 362.972C363.703 362.651 364.49 362.491 365.43 362.491C366.654 362.491 367.784 362.812 368.818 363.453C369.853 364.087 370.68 365.045 371.3 366.328C371.919 367.603 372.229 369.203 372.229 371.127C372.229 373 371.927 374.581 371.322 375.871C370.724 377.153 369.908 378.126 368.873 378.789C367.846 379.445 366.694 379.773 365.419 379.773C364.515 379.773 363.746 379.624 363.112 379.325C362.486 379.026 361.972 378.651 361.571 378.199C361.17 377.74 360.864 377.277 360.653 376.811H360.511V385.796H355.854ZM360.412 371.105C360.412 372.103 360.551 372.974 360.828 373.717C361.105 374.461 361.505 375.04 362.03 375.455C362.555 375.864 363.192 376.068 363.943 376.068C364.701 376.068 365.342 375.86 365.867 375.444C366.392 375.022 366.789 374.439 367.059 373.695C367.335 372.945 367.474 372.081 367.474 371.105C367.474 370.135 367.339 369.283 367.069 368.547C366.8 367.811 366.403 367.235 365.878 366.82C365.353 366.404 364.708 366.197 363.943 366.197C363.185 366.197 362.544 366.397 362.019 366.798C361.502 367.199 361.105 367.767 360.828 368.503C360.551 369.239 360.412 370.106 360.412 371.105ZM380.121 379.817C379.05 379.817 378.096 379.631 377.257 379.26C376.419 378.881 375.756 378.323 375.268 377.587C374.787 376.844 374.546 375.918 374.546 374.81C374.546 373.878 374.718 373.094 375.06 372.46C375.403 371.826 375.869 371.316 376.459 370.93C377.05 370.544 377.72 370.252 378.471 370.055C379.229 369.859 380.023 369.72 380.854 369.64C381.83 369.538 382.617 369.443 383.215 369.356C383.813 369.261 384.246 369.123 384.516 368.94C384.785 368.758 384.92 368.489 384.92 368.131V368.066C384.92 367.374 384.702 366.838 384.264 366.459C383.834 366.08 383.222 365.891 382.428 365.891C381.59 365.891 380.923 366.076 380.428 366.448C379.932 366.812 379.604 367.271 379.444 367.825L375.137 367.476C375.355 366.455 375.785 365.573 376.427 364.83C377.068 364.08 377.895 363.504 378.908 363.103C379.928 362.695 381.109 362.491 382.45 362.491C383.383 362.491 384.275 362.6 385.128 362.819C385.988 363.037 386.749 363.376 387.413 363.835C388.083 364.295 388.611 364.885 388.998 365.606C389.384 366.32 389.577 367.177 389.577 368.175V379.5H385.161V377.172H385.03C384.76 377.696 384.399 378.159 383.947 378.56C383.496 378.953 382.953 379.263 382.319 379.489C381.685 379.708 380.952 379.817 380.121 379.817ZM381.455 376.603C382.14 376.603 382.745 376.468 383.27 376.199C383.794 375.922 384.206 375.55 384.505 375.084C384.804 374.617 384.953 374.089 384.953 373.499V371.717C384.807 371.812 384.607 371.899 384.352 371.979C384.104 372.052 383.824 372.121 383.51 372.187C383.197 372.245 382.883 372.3 382.57 372.351C382.257 372.395 381.972 372.435 381.717 372.471C381.171 372.551 380.694 372.679 380.285 372.854C379.877 373.029 379.56 373.266 379.334 373.564C379.108 373.856 378.996 374.22 378.996 374.657C378.996 375.291 379.225 375.776 379.684 376.111C380.151 376.439 380.741 376.603 381.455 376.603ZM397.847 369.793V379.5H393.19V362.709H397.628V365.672H397.825C398.196 364.695 398.819 363.923 399.694 363.354C400.568 362.779 401.629 362.491 402.875 362.491C404.041 362.491 405.058 362.746 405.925 363.256C406.792 363.766 407.466 364.495 407.947 365.442C408.428 366.382 408.669 367.505 408.669 368.809V379.5H404.012V369.64C404.019 368.612 403.757 367.811 403.225 367.235C402.693 366.652 401.96 366.361 401.028 366.361C400.401 366.361 399.847 366.495 399.366 366.765C398.892 367.035 398.521 367.428 398.251 367.946C397.989 368.456 397.854 369.072 397.847 369.793Z" fill="#8FA5ED"/>
<g filter="url(#filter1_d_426_715)">
<path d="M451 346C451 340.477 455.477 336 461 336H589.996C595.521 336 600 340.479 600 346.004V391.996C600 397.521 595.521 402 589.996 402H461C455.477 402 451 397.523 451 392V346Z" fill="white"/>
<path d="M491.239 364.495H488.596C488.439 363.735 488.166 363.067 487.775 362.491C487.391 361.916 486.922 361.433 486.368 361.042C485.821 360.644 485.214 360.346 484.546 360.147C483.878 359.948 483.182 359.848 482.457 359.848C481.136 359.848 479.938 360.182 478.866 360.85C477.8 361.518 476.951 362.502 476.319 363.802C475.693 365.102 475.381 366.697 475.381 368.587C475.381 370.477 475.693 372.072 476.319 373.372C476.951 374.672 477.8 375.656 478.866 376.324C479.938 376.992 481.136 377.326 482.457 377.326C483.182 377.326 483.878 377.226 484.546 377.028C485.214 376.829 485.821 376.534 486.368 376.143C486.922 375.745 487.391 375.258 487.775 374.683C488.166 374.1 488.439 373.433 488.596 372.679H491.239C491.04 373.795 490.677 374.793 490.152 375.674C489.626 376.555 488.972 377.305 488.191 377.923C487.409 378.534 486.532 378.999 485.558 379.319C484.592 379.639 483.558 379.798 482.457 379.798C480.596 379.798 478.94 379.344 477.491 378.434C476.042 377.525 474.901 376.232 474.07 374.555C473.239 372.878 472.823 370.889 472.823 368.587C472.823 366.285 473.239 364.296 474.07 362.619C474.901 360.942 476.042 359.649 477.491 358.74C478.94 357.83 480.596 357.376 482.457 357.376C483.558 357.376 484.592 357.536 485.558 357.855C486.532 358.175 487.409 358.644 488.191 359.262C488.972 359.873 489.626 360.619 490.152 361.5C490.677 362.374 491.04 363.372 491.239 364.495ZM497.684 357.674V379.5H495.168V357.674H497.684ZM502.29 379.5V363.131H504.805V379.5H502.29ZM503.569 360.402C503.079 360.402 502.656 360.235 502.301 359.902C501.953 359.568 501.779 359.166 501.779 358.697C501.779 358.228 501.953 357.827 502.301 357.493C502.656 357.159 503.079 356.992 503.569 356.992C504.059 356.992 504.478 357.159 504.826 357.493C505.182 357.827 505.359 358.228 505.359 358.697C505.359 359.166 505.182 359.568 504.826 359.902C504.478 360.235 504.059 360.402 503.569 360.402ZM516.275 379.841C514.698 379.841 513.337 379.493 512.193 378.797C511.056 378.093 510.179 377.113 509.561 375.855C508.95 374.591 508.644 373.12 508.644 371.443C508.644 369.766 508.95 368.289 509.561 367.01C510.179 365.724 511.039 364.722 512.14 364.005C513.248 363.28 514.541 362.917 516.019 362.917C516.872 362.917 517.714 363.06 518.545 363.344C519.376 363.628 520.133 364.09 520.815 364.729C521.497 365.362 522.04 366.2 522.445 367.244C522.85 368.289 523.053 369.575 523.053 371.102V372.168H510.435V369.994H520.495C520.495 369.07 520.31 368.246 519.941 367.521C519.579 366.797 519.06 366.225 518.385 365.806C517.717 365.386 516.929 365.177 516.019 365.177C515.017 365.177 514.151 365.425 513.419 365.923C512.694 366.413 512.136 367.052 511.746 367.841C511.355 368.63 511.159 369.475 511.159 370.377V371.827C511.159 373.063 511.373 374.111 511.799 374.971C512.232 375.823 512.833 376.473 513.6 376.921C514.367 377.361 515.259 377.582 516.275 377.582C516.936 377.582 517.532 377.489 518.065 377.305C518.605 377.113 519.071 376.829 519.461 376.452C519.852 376.068 520.154 375.592 520.367 375.024L522.797 375.706C522.541 376.53 522.111 377.255 521.508 377.88C520.904 378.498 520.158 378.981 519.27 379.329C518.381 379.671 517.383 379.841 516.275 379.841ZM529.394 369.653V379.5H526.879V363.131H529.309V365.688H529.522C529.905 364.857 530.488 364.189 531.27 363.685C532.051 363.173 533.06 362.917 534.296 362.917C535.404 362.917 536.374 363.145 537.206 363.6C538.037 364.047 538.683 364.729 539.145 365.646C539.607 366.555 539.838 367.706 539.838 369.099V379.5H537.323V369.269C537.323 367.983 536.989 366.981 536.321 366.264C535.653 365.539 534.737 365.177 533.571 365.177C532.769 365.177 532.051 365.351 531.419 365.699C530.793 366.047 530.3 366.555 529.937 367.223C529.575 367.891 529.394 368.701 529.394 369.653ZM551.553 363.131V365.262H543.07V363.131H551.553ZM545.542 359.209H548.057V374.811C548.057 375.521 548.16 376.054 548.366 376.409C548.579 376.758 548.849 376.992 549.176 377.113C549.51 377.226 549.862 377.283 550.231 377.283C550.508 377.283 550.736 377.269 550.913 377.241C551.091 377.205 551.233 377.177 551.34 377.155L551.851 379.415C551.681 379.479 551.443 379.543 551.137 379.607C550.832 379.678 550.444 379.713 549.975 379.713C549.265 379.713 548.569 379.56 547.887 379.255C547.212 378.949 546.65 378.484 546.203 377.859C545.762 377.234 545.542 376.445 545.542 375.493V359.209ZM558.672 357.674V379.5H556.029V357.674H558.672ZM569.811 379.841C568.447 379.841 567.243 379.496 566.198 378.807C565.154 378.111 564.337 377.131 563.747 375.866C563.157 374.594 562.863 373.092 562.863 371.358C562.863 369.639 563.157 368.147 563.747 366.882C564.337 365.617 565.157 364.64 566.209 363.951C567.26 363.262 568.475 362.917 569.854 362.917C570.919 362.917 571.761 363.095 572.379 363.45C573.005 363.798 573.481 364.196 573.807 364.644C574.141 365.084 574.401 365.447 574.585 365.731H574.799V357.674H577.314V379.5H574.884V376.985H574.585C574.401 377.283 574.138 377.66 573.797 378.115C573.456 378.562 572.969 378.964 572.337 379.319C571.704 379.667 570.863 379.841 569.811 379.841ZM570.152 377.582C571.161 377.582 572.014 377.319 572.71 376.793C573.406 376.26 573.935 375.525 574.298 374.587C574.66 373.642 574.841 372.552 574.841 371.315C574.841 370.093 574.664 369.024 574.308 368.108C573.953 367.184 573.427 366.466 572.731 365.955C572.035 365.436 571.175 365.177 570.152 365.177C569.086 365.177 568.198 365.45 567.488 365.997C566.784 366.537 566.255 367.273 565.9 368.203C565.552 369.127 565.378 370.164 565.378 371.315C565.378 372.48 565.555 373.539 565.911 374.491C566.273 375.436 566.806 376.189 567.509 376.75C568.22 377.305 569.101 377.582 570.152 377.582Z" fill="#7D88A1"/>
</g>
<rect x="312" y="578" width="114" height="438" rx="8" transform="rotate(-90 312 578)" fill="#E7ECF8"/>
<path d="M376.699 516.95H371.911C371.823 516.331 371.645 515.781 371.375 515.3C371.105 514.812 370.759 514.396 370.337 514.054C369.914 513.711 369.426 513.449 368.872 513.267C368.325 513.084 367.731 512.993 367.09 512.993C365.931 512.993 364.922 513.281 364.062 513.857C363.202 514.425 362.535 515.256 362.062 516.349C361.588 517.435 361.351 518.754 361.351 520.306C361.351 521.902 361.588 523.243 362.062 524.329C362.543 525.415 363.213 526.235 364.073 526.789C364.933 527.342 365.928 527.619 367.057 527.619C367.691 527.619 368.278 527.536 368.817 527.368C369.364 527.2 369.848 526.956 370.271 526.636C370.694 526.308 371.044 525.91 371.32 525.444C371.605 524.978 371.801 524.446 371.911 523.848L376.699 523.87C376.575 524.897 376.265 525.889 375.77 526.843C375.281 527.791 374.622 528.64 373.791 529.39C372.967 530.134 371.984 530.724 370.839 531.161C369.703 531.591 368.416 531.806 366.981 531.806C364.984 531.806 363.198 531.354 361.624 530.451C360.058 529.547 358.819 528.239 357.908 526.526C357.004 524.814 356.552 522.74 356.552 520.306C356.552 517.865 357.011 515.788 357.93 514.075C358.848 512.363 360.094 511.058 361.668 510.162C363.242 509.258 365.013 508.807 366.981 508.807C368.278 508.807 369.48 508.989 370.588 509.353C371.703 509.718 372.691 510.25 373.55 510.949C374.41 511.641 375.11 512.49 375.649 513.496C376.196 514.502 376.546 515.653 376.699 516.95ZM384.662 521.793V531.5H380.005V509.113H384.531V517.672H384.728C385.107 516.681 385.719 515.905 386.564 515.344C387.41 514.775 388.47 514.491 389.745 514.491C390.911 514.491 391.928 514.746 392.795 515.256C393.67 515.759 394.347 516.484 394.828 517.431C395.317 518.371 395.557 519.497 395.55 520.809V531.5H390.893V521.64C390.9 520.605 390.638 519.8 390.106 519.224C389.581 518.648 388.845 518.361 387.898 518.361C387.264 518.361 386.703 518.495 386.214 518.765C385.733 519.035 385.354 519.428 385.078 519.946C384.808 520.456 384.669 521.072 384.662 521.793ZM399.214 531.5V514.709H403.871V531.5H399.214ZM401.565 512.545C400.872 512.545 400.278 512.316 399.783 511.856C399.287 511.39 399.04 510.833 399.04 510.184C399.04 509.543 399.287 508.992 399.783 508.533C400.278 508.067 400.869 507.834 401.554 507.834C402.253 507.834 402.847 508.067 403.336 508.533C403.831 508.992 404.079 509.543 404.079 510.184C404.079 510.833 403.831 511.39 403.336 511.856C402.847 512.316 402.257 512.545 401.565 512.545ZM412.258 509.113V531.5H407.602V509.113H412.258ZM422.176 531.773C420.9 531.773 419.745 531.445 418.71 530.789C417.683 530.126 416.867 529.153 416.262 527.871C415.664 526.581 415.366 525 415.366 523.127C415.366 521.203 415.675 519.603 416.295 518.328C416.914 517.045 417.738 516.087 418.765 515.453C419.8 514.812 420.933 514.491 422.165 514.491C423.105 514.491 423.888 514.651 424.515 514.972C425.149 515.285 425.659 515.679 426.045 516.152C426.439 516.619 426.738 517.078 426.942 517.53H427.084V509.113H431.73V531.5H427.139V528.811H426.942C426.723 529.277 426.413 529.74 426.013 530.199C425.619 530.651 425.105 531.026 424.471 531.325C423.845 531.624 423.079 531.773 422.176 531.773ZM423.651 528.068C424.402 528.068 425.036 527.864 425.553 527.455C426.078 527.04 426.479 526.461 426.756 525.717C427.04 524.974 427.182 524.103 427.182 523.105C427.182 522.106 427.044 521.239 426.767 520.503C426.49 519.767 426.089 519.199 425.564 518.798C425.04 518.397 424.402 518.197 423.651 518.197C422.886 518.197 422.241 518.404 421.717 518.82C421.192 519.235 420.795 519.811 420.525 520.547C420.255 521.283 420.121 522.135 420.121 523.105C420.121 524.081 420.255 524.945 420.525 525.695C420.802 526.439 421.199 527.022 421.717 527.444C422.241 527.86 422.886 528.068 423.651 528.068ZM454.915 515.551C454.828 514.669 454.452 513.984 453.789 513.496C453.126 513.008 452.226 512.764 451.089 512.764C450.317 512.764 449.664 512.873 449.132 513.092C448.6 513.303 448.192 513.598 447.908 513.977C447.631 514.356 447.493 514.786 447.493 515.267C447.478 515.668 447.562 516.018 447.744 516.316C447.934 516.615 448.192 516.874 448.52 517.093C448.848 517.304 449.227 517.49 449.657 517.65C450.087 517.803 450.546 517.934 451.034 518.044L453.046 518.525C454.022 518.743 454.919 519.035 455.735 519.399C456.551 519.763 457.258 520.212 457.856 520.744C458.453 521.276 458.916 521.902 459.244 522.624C459.579 523.345 459.75 524.172 459.758 525.105C459.75 526.475 459.401 527.663 458.708 528.669C458.023 529.667 457.032 530.443 455.735 530.997C454.445 531.544 452.889 531.817 451.067 531.817C449.26 531.817 447.686 531.54 446.345 530.986C445.011 530.432 443.969 529.613 443.219 528.527C442.475 527.434 442.085 526.082 442.049 524.471H446.629C446.68 525.222 446.895 525.849 447.274 526.351C447.66 526.847 448.174 527.222 448.815 527.477C449.464 527.725 450.196 527.849 451.013 527.849C451.814 527.849 452.51 527.732 453.1 527.499C453.698 527.266 454.161 526.942 454.489 526.526C454.817 526.111 454.981 525.634 454.981 525.094C454.981 524.591 454.831 524.169 454.532 523.826C454.241 523.484 453.811 523.192 453.243 522.952C452.681 522.711 451.993 522.493 451.177 522.296L448.739 521.684C446.851 521.225 445.361 520.507 444.268 519.53C443.175 518.554 442.632 517.238 442.639 515.584C442.632 514.229 442.993 513.044 443.721 512.031C444.457 511.018 445.467 510.228 446.749 509.659C448.032 509.091 449.489 508.807 451.122 508.807C452.783 508.807 454.234 509.091 455.473 509.659C456.719 510.228 457.688 511.018 458.38 512.031C459.073 513.044 459.43 514.218 459.452 515.551H454.915ZM462.854 537.796V514.709H467.445V517.53H467.653C467.857 517.078 468.152 516.619 468.538 516.152C468.932 515.679 469.442 515.285 470.069 514.972C470.703 514.651 471.49 514.491 472.43 514.491C473.654 514.491 474.784 514.812 475.818 515.453C476.853 516.087 477.68 517.045 478.3 518.328C478.919 519.603 479.229 521.203 479.229 523.127C479.229 525 478.927 526.581 478.322 527.871C477.724 529.153 476.908 530.126 475.873 530.789C474.846 531.445 473.694 531.773 472.419 531.773C471.515 531.773 470.746 531.624 470.112 531.325C469.486 531.026 468.972 530.651 468.571 530.199C468.17 529.74 467.864 529.277 467.653 528.811H467.511V537.796H462.854ZM467.412 523.105C467.412 524.103 467.551 524.974 467.828 525.717C468.105 526.461 468.505 527.04 469.03 527.455C469.555 527.864 470.192 528.068 470.943 528.068C471.701 528.068 472.342 527.86 472.867 527.444C473.392 527.022 473.789 526.439 474.059 525.695C474.335 524.945 474.474 524.081 474.474 523.105C474.474 522.135 474.339 521.283 474.069 520.547C473.8 519.811 473.403 519.235 472.878 518.82C472.353 518.404 471.708 518.197 470.943 518.197C470.185 518.197 469.544 518.397 469.019 518.798C468.502 519.199 468.105 519.767 467.828 520.503C467.551 521.239 467.412 522.106 467.412 523.105ZM487.121 531.817C486.05 531.817 485.096 531.631 484.257 531.26C483.419 530.881 482.756 530.323 482.268 529.587C481.787 528.844 481.546 527.918 481.546 526.81C481.546 525.878 481.718 525.094 482.06 524.46C482.403 523.826 482.869 523.316 483.459 522.93C484.05 522.544 484.72 522.252 485.471 522.055C486.229 521.859 487.023 521.72 487.854 521.64C488.83 521.538 489.617 521.443 490.215 521.356C490.813 521.261 491.246 521.123 491.516 520.94C491.785 520.758 491.92 520.489 491.92 520.131V520.066C491.92 519.374 491.702 518.838 491.264 518.459C490.834 518.08 490.222 517.891 489.428 517.891C488.59 517.891 487.923 518.076 487.428 518.448C486.932 518.812 486.604 519.271 486.444 519.825L482.137 519.476C482.355 518.455 482.785 517.573 483.427 516.83C484.068 516.08 484.895 515.504 485.908 515.103C486.928 514.695 488.109 514.491 489.45 514.491C490.383 514.491 491.275 514.6 492.128 514.819C492.988 515.037 493.749 515.376 494.413 515.835C495.083 516.295 495.611 516.885 495.998 517.606C496.384 518.32 496.577 519.177 496.577 520.175V531.5H492.161V529.172H492.03C491.76 529.696 491.399 530.159 490.947 530.56C490.496 530.953 489.953 531.263 489.319 531.489C488.685 531.708 487.952 531.817 487.121 531.817ZM488.455 528.603C489.14 528.603 489.745 528.468 490.27 528.199C490.794 527.922 491.206 527.55 491.505 527.084C491.804 526.617 491.953 526.089 491.953 525.499V523.717C491.807 523.812 491.607 523.899 491.352 523.979C491.104 524.052 490.824 524.121 490.51 524.187C490.197 524.245 489.883 524.3 489.57 524.351C489.257 524.395 488.972 524.435 488.717 524.471C488.171 524.551 487.694 524.679 487.285 524.854C486.877 525.029 486.56 525.266 486.334 525.564C486.108 525.856 485.996 526.22 485.996 526.657C485.996 527.291 486.225 527.776 486.684 528.111C487.151 528.439 487.741 528.603 488.455 528.603ZM504.847 521.793V531.5H500.19V514.709H504.628V517.672H504.825C505.196 516.695 505.819 515.923 506.694 515.354C507.568 514.779 508.629 514.491 509.875 514.491C511.041 514.491 512.058 514.746 512.925 515.256C513.792 515.766 514.466 516.495 514.947 517.442C515.428 518.382 515.669 519.505 515.669 520.809V531.5H511.012V521.64C511.019 520.612 510.757 519.811 510.225 519.235C509.693 518.652 508.96 518.361 508.028 518.361C507.401 518.361 506.847 518.495 506.366 518.765C505.892 519.035 505.521 519.428 505.251 519.946C504.989 520.456 504.854 521.072 504.847 521.793Z" fill="#8FA5ED"/>
<g filter="url(#filter2_d_426_715)">
<path d="M558 498C558 492.477 562.477 488 568 488H696.996C702.521 488 707 492.479 707 498.004V543.996C707 549.521 702.521 554 696.996 554H568C562.477 554 558 549.523 558 544V498Z" fill="white"/>
<path d="M598.239 516.495H595.596C595.439 515.735 595.166 515.067 594.775 514.491C594.391 513.916 593.922 513.433 593.368 513.042C592.821 512.644 592.214 512.346 591.546 512.147C590.878 511.948 590.182 511.848 589.457 511.848C588.136 511.848 586.938 512.182 585.866 512.85C584.8 513.518 583.951 514.502 583.319 515.802C582.693 517.102 582.381 518.697 582.381 520.587C582.381 522.477 582.693 524.072 583.319 525.372C583.951 526.672 584.8 527.656 585.866 528.324C586.938 528.992 588.136 529.326 589.457 529.326C590.182 529.326 590.878 529.226 591.546 529.028C592.214 528.829 592.821 528.534 593.368 528.143C593.922 527.745 594.391 527.258 594.775 526.683C595.166 526.1 595.439 525.433 595.596 524.679H598.239C598.04 525.795 597.677 526.793 597.152 527.674C596.626 528.555 595.972 529.305 595.191 529.923C594.409 530.534 593.532 530.999 592.558 531.319C591.592 531.639 590.558 531.798 589.457 531.798C587.596 531.798 585.94 531.344 584.491 530.434C583.042 529.525 581.901 528.232 581.07 526.555C580.239 524.878 579.823 522.889 579.823 520.587C579.823 518.285 580.239 516.296 581.07 514.619C581.901 512.942 583.042 511.649 584.491 510.74C585.94 509.83 587.596 509.376 589.457 509.376C590.558 509.376 591.592 509.536 592.558 509.855C593.532 510.175 594.409 510.644 595.191 511.262C595.972 511.873 596.626 512.619 597.152 513.5C597.677 514.374 598.04 515.372 598.239 516.495ZM604.684 509.674V531.5H602.168V509.674H604.684ZM609.29 531.5V515.131H611.805V531.5H609.29ZM610.569 512.402C610.079 512.402 609.656 512.235 609.301 511.902C608.953 511.568 608.779 511.166 608.779 510.697C608.779 510.228 608.953 509.827 609.301 509.493C609.656 509.159 610.079 508.992 610.569 508.992C611.059 508.992 611.478 509.159 611.826 509.493C612.182 509.827 612.359 510.228 612.359 510.697C612.359 511.166 612.182 511.568 611.826 511.902C611.478 512.235 611.059 512.402 610.569 512.402ZM623.275 531.841C621.698 531.841 620.337 531.493 619.193 530.797C618.056 530.093 617.179 529.113 616.561 527.855C615.95 526.591 615.644 525.12 615.644 523.443C615.644 521.766 615.95 520.289 616.561 519.01C617.179 517.724 618.039 516.722 619.14 516.005C620.248 515.28 621.541 514.917 623.019 514.917C623.872 514.917 624.714 515.06 625.545 515.344C626.376 515.628 627.133 516.09 627.815 516.729C628.497 517.362 629.04 518.2 629.445 519.244C629.85 520.289 630.053 521.575 630.053 523.102V524.168H617.435V521.994H627.495C627.495 521.07 627.31 520.246 626.941 519.521C626.579 518.797 626.06 518.225 625.385 517.806C624.717 517.386 623.929 517.177 623.019 517.177C622.017 517.177 621.151 517.425 620.419 517.923C619.694 518.413 619.136 519.052 618.746 519.841C618.355 520.63 618.159 521.475 618.159 522.377V523.827C618.159 525.063 618.373 526.111 618.799 526.971C619.232 527.823 619.833 528.473 620.6 528.921C621.367 529.361 622.259 529.582 623.275 529.582C623.936 529.582 624.532 529.489 625.065 529.305C625.605 529.113 626.071 528.829 626.461 528.452C626.852 528.068 627.154 527.592 627.367 527.024L629.797 527.706C629.541 528.53 629.111 529.255 628.508 529.88C627.904 530.498 627.158 530.981 626.27 531.329C625.381 531.671 624.383 531.841 623.275 531.841ZM636.394 521.653V531.5H633.879V515.131H636.309V517.688H636.522C636.905 516.857 637.488 516.189 638.27 515.685C639.051 515.173 640.06 514.917 641.296 514.917C642.404 514.917 643.374 515.145 644.206 515.6C645.037 516.047 645.683 516.729 646.145 517.646C646.607 518.555 646.838 519.706 646.838 521.099V531.5H644.323V521.269C644.323 519.983 643.989 518.981 643.321 518.264C642.653 517.539 641.737 517.177 640.571 517.177C639.769 517.177 639.051 517.351 638.419 517.699C637.793 518.047 637.3 518.555 636.937 519.223C636.575 519.891 636.394 520.701 636.394 521.653ZM658.553 515.131V517.262H650.07V515.131H658.553ZM652.542 511.209H655.057V526.811C655.057 527.521 655.16 528.054 655.366 528.409C655.579 528.758 655.849 528.992 656.176 529.113C656.51 529.226 656.862 529.283 657.231 529.283C657.508 529.283 657.736 529.269 657.913 529.241C658.091 529.205 658.233 529.177 658.34 529.155L658.851 531.415C658.681 531.479 658.443 531.543 658.137 531.607C657.832 531.678 657.444 531.713 656.975 531.713C656.265 531.713 655.569 531.56 654.887 531.255C654.212 530.949 653.65 530.484 653.203 529.859C652.762 529.234 652.542 528.445 652.542 527.493V511.209ZM665.672 509.674V531.5H663.029V509.674H665.672ZM676.811 531.841C675.447 531.841 674.243 531.496 673.198 530.807C672.154 530.111 671.337 529.131 670.747 527.866C670.157 526.594 669.863 525.092 669.863 523.358C669.863 521.639 670.157 520.147 670.747 518.882C671.337 517.617 672.157 516.64 673.209 515.951C674.26 515.262 675.475 514.917 676.854 514.917C677.919 514.917 678.761 515.095 679.379 515.45C680.005 515.798 680.481 516.196 680.807 516.644C681.141 517.084 681.401 517.447 681.585 517.731H681.799V509.674H684.314V531.5H681.884V528.985H681.585C681.401 529.283 681.138 529.66 680.797 530.115C680.456 530.562 679.969 530.964 679.337 531.319C678.704 531.667 677.863 531.841 676.811 531.841ZM677.152 529.582C678.161 529.582 679.014 529.319 679.71 528.793C680.406 528.26 680.935 527.525 681.298 526.587C681.66 525.642 681.841 524.552 681.841 523.315C681.841 522.093 681.664 521.024 681.308 520.108C680.953 519.184 680.427 518.466 679.731 517.955C679.035 517.436 678.175 517.177 677.152 517.177C676.086 517.177 675.198 517.45 674.488 517.997C673.784 518.537 673.255 519.273 672.9 520.203C672.552 521.127 672.378 522.164 672.378 523.315C672.378 524.48 672.555 525.539 672.911 526.491C673.273 527.436 673.806 528.189 674.509 528.75C675.22 529.305 676.101 529.582 677.152 529.582Z" fill="#7D88A1"/>
</g>
<rect x="1147" y="731" width="114" height="457" rx="8" transform="rotate(-90 1147 731)" fill="#FFFAEB"/>
<rect width="383" height="66" transform="translate(1184 641)" fill="#FFFAEB"/>
<path d="M1205.7 669.95H1200.91C1200.82 669.331 1200.64 668.781 1200.38 668.3C1200.11 667.812 1199.76 667.396 1199.34 667.054C1198.91 666.711 1198.43 666.449 1197.87 666.267C1197.33 666.084 1196.73 665.993 1196.09 665.993C1194.93 665.993 1193.92 666.281 1193.06 666.857C1192.2 667.425 1191.54 668.256 1191.06 669.349C1190.59 670.435 1190.35 671.754 1190.35 673.306C1190.35 674.902 1190.59 676.243 1191.06 677.329C1191.54 678.415 1192.21 679.235 1193.07 679.789C1193.93 680.342 1194.93 680.619 1196.06 680.619C1196.69 680.619 1197.28 680.536 1197.82 680.368C1198.36 680.2 1198.85 679.956 1199.27 679.636C1199.69 679.308 1200.04 678.91 1200.32 678.444C1200.6 677.978 1200.8 677.446 1200.91 676.848L1205.7 676.87C1205.57 677.897 1205.27 678.889 1204.77 679.843C1204.28 680.791 1203.62 681.64 1202.79 682.39C1201.97 683.134 1200.98 683.724 1199.84 684.161C1198.7 684.591 1197.42 684.806 1195.98 684.806C1193.98 684.806 1192.2 684.354 1190.62 683.451C1189.06 682.547 1187.82 681.239 1186.91 679.526C1186 677.814 1185.55 675.74 1185.55 673.306C1185.55 670.865 1186.01 668.788 1186.93 667.075C1187.85 665.363 1189.09 664.058 1190.67 663.162C1192.24 662.258 1194.01 661.807 1195.98 661.807C1197.28 661.807 1198.48 661.989 1199.59 662.353C1200.7 662.718 1201.69 663.25 1202.55 663.949C1203.41 664.641 1204.11 665.49 1204.65 666.496C1205.2 667.502 1205.55 668.653 1205.7 669.95ZM1213.66 674.793V684.5H1209.01V662.113H1213.53V670.672H1213.73C1214.11 669.681 1214.72 668.905 1215.56 668.344C1216.41 667.775 1217.47 667.491 1218.75 667.491C1219.91 667.491 1220.93 667.746 1221.8 668.256C1222.67 668.759 1223.35 669.484 1223.83 670.431C1224.32 671.371 1224.56 672.497 1224.55 673.809V684.5H1219.89V674.64C1219.9 673.605 1219.64 672.8 1219.11 672.224C1218.58 671.648 1217.85 671.361 1216.9 671.361C1216.26 671.361 1215.7 671.495 1215.21 671.765C1214.73 672.035 1214.35 672.428 1214.08 672.946C1213.81 673.456 1213.67 674.072 1213.66 674.793ZM1228.21 684.5V667.709H1232.87V684.5H1228.21ZM1230.56 665.545C1229.87 665.545 1229.28 665.316 1228.78 664.856C1228.29 664.39 1228.04 663.833 1228.04 663.184C1228.04 662.543 1228.29 661.992 1228.78 661.533C1229.28 661.067 1229.87 660.834 1230.55 660.834C1231.25 660.834 1231.85 661.067 1232.34 661.533C1232.83 661.992 1233.08 662.543 1233.08 663.184C1233.08 663.833 1232.83 664.39 1232.34 664.856C1231.85 665.316 1231.26 665.545 1230.56 665.545ZM1241.26 662.113V684.5H1236.6V662.113H1241.26ZM1251.18 684.773C1249.9 684.773 1248.75 684.445 1247.71 683.789C1246.68 683.126 1245.87 682.153 1245.26 680.871C1244.66 679.581 1244.37 678 1244.37 676.127C1244.37 674.203 1244.68 672.603 1245.29 671.328C1245.91 670.045 1246.74 669.087 1247.77 668.453C1248.8 667.812 1249.93 667.491 1251.16 667.491C1252.1 667.491 1252.89 667.651 1253.52 667.972C1254.15 668.285 1254.66 668.679 1255.05 669.152C1255.44 669.619 1255.74 670.078 1255.94 670.53H1256.08V662.113H1260.73V684.5H1256.14V681.811H1255.94C1255.72 682.277 1255.41 682.74 1255.01 683.199C1254.62 683.651 1254.11 684.026 1253.47 684.325C1252.84 684.624 1252.08 684.773 1251.18 684.773ZM1252.65 681.068C1253.4 681.068 1254.04 680.864 1254.55 680.455C1255.08 680.04 1255.48 679.461 1255.76 678.717C1256.04 677.974 1256.18 677.103 1256.18 676.105C1256.18 675.106 1256.04 674.239 1255.77 673.503C1255.49 672.767 1255.09 672.199 1254.56 671.798C1254.04 671.397 1253.4 671.197 1252.65 671.197C1251.89 671.197 1251.24 671.404 1250.72 671.82C1250.19 672.235 1249.79 672.811 1249.53 673.547C1249.26 674.283 1249.12 675.135 1249.12 676.105C1249.12 677.081 1249.26 677.945 1249.53 678.695C1249.8 679.439 1250.2 680.022 1250.72 680.444C1251.24 680.86 1251.89 681.068 1252.65 681.068ZM1283.92 668.551C1283.83 667.669 1283.45 666.984 1282.79 666.496C1282.13 666.008 1281.23 665.764 1280.09 665.764C1279.32 665.764 1278.66 665.873 1278.13 666.092C1277.6 666.303 1277.19 666.598 1276.91 666.977C1276.63 667.356 1276.49 667.786 1276.49 668.267C1276.48 668.668 1276.56 669.018 1276.74 669.316C1276.93 669.615 1277.19 669.874 1277.52 670.093C1277.85 670.304 1278.23 670.49 1278.66 670.65C1279.09 670.803 1279.55 670.934 1280.03 671.044L1282.05 671.525C1283.02 671.743 1283.92 672.035 1284.73 672.399C1285.55 672.763 1286.26 673.212 1286.86 673.744C1287.45 674.276 1287.92 674.902 1288.24 675.624C1288.58 676.345 1288.75 677.172 1288.76 678.105C1288.75 679.475 1288.4 680.663 1287.71 681.669C1287.02 682.667 1286.03 683.443 1284.73 683.997C1283.44 684.544 1281.89 684.817 1280.07 684.817C1278.26 684.817 1276.69 684.54 1275.34 683.986C1274.01 683.432 1272.97 682.613 1272.22 681.527C1271.48 680.434 1271.09 679.082 1271.05 677.471H1275.63C1275.68 678.222 1275.9 678.849 1276.27 679.351C1276.66 679.847 1277.17 680.222 1277.82 680.477C1278.46 680.725 1279.2 680.849 1280.01 680.849C1280.81 680.849 1281.51 680.732 1282.1 680.499C1282.7 680.266 1283.16 679.942 1283.49 679.526C1283.82 679.111 1283.98 678.634 1283.98 678.094C1283.98 677.591 1283.83 677.169 1283.53 676.826C1283.24 676.484 1282.81 676.192 1282.24 675.952C1281.68 675.711 1280.99 675.493 1280.18 675.296L1277.74 674.684C1275.85 674.225 1274.36 673.507 1273.27 672.53C1272.17 671.554 1271.63 670.238 1271.64 668.584C1271.63 667.229 1271.99 666.044 1272.72 665.031C1273.46 664.018 1274.47 663.228 1275.75 662.659C1277.03 662.091 1278.49 661.807 1280.12 661.807C1281.78 661.807 1283.23 662.091 1284.47 662.659C1285.72 663.228 1286.69 664.018 1287.38 665.031C1288.07 666.044 1288.43 667.218 1288.45 668.551H1283.92ZM1291.85 690.796V667.709H1296.45V670.53H1296.65C1296.86 670.078 1297.15 669.619 1297.54 669.152C1297.93 668.679 1298.44 668.285 1299.07 667.972C1299.7 667.651 1300.49 667.491 1301.43 667.491C1302.65 667.491 1303.78 667.812 1304.82 668.453C1305.85 669.087 1306.68 670.045 1307.3 671.328C1307.92 672.603 1308.23 674.203 1308.23 676.127C1308.23 678 1307.93 679.581 1307.32 680.871C1306.72 682.153 1305.91 683.126 1304.87 683.789C1303.85 684.445 1302.69 684.773 1301.42 684.773C1300.52 684.773 1299.75 684.624 1299.11 684.325C1298.49 684.026 1297.97 683.651 1297.57 683.199C1297.17 682.74 1296.86 682.277 1296.65 681.811H1296.51V690.796H1291.85ZM1296.41 676.105C1296.41 677.103 1296.55 677.974 1296.83 678.717C1297.1 679.461 1297.51 680.04 1298.03 680.455C1298.55 680.864 1299.19 681.068 1299.94 681.068C1300.7 681.068 1301.34 680.86 1301.87 680.444C1302.39 680.022 1302.79 679.439 1303.06 678.695C1303.34 677.945 1303.47 677.081 1303.47 676.105C1303.47 675.135 1303.34 674.283 1303.07 673.547C1302.8 672.811 1302.4 672.235 1301.88 671.82C1301.35 671.404 1300.71 671.197 1299.94 671.197C1299.19 671.197 1298.54 671.397 1298.02 671.798C1297.5 672.199 1297.1 672.767 1296.83 673.503C1296.55 674.239 1296.41 675.106 1296.41 676.105ZM1316.12 684.817C1315.05 684.817 1314.1 684.631 1313.26 684.26C1312.42 683.881 1311.76 683.323 1311.27 682.587C1310.79 681.844 1310.55 680.918 1310.55 679.81C1310.55 678.878 1310.72 678.094 1311.06 677.46C1311.4 676.826 1311.87 676.316 1312.46 675.93C1313.05 675.544 1313.72 675.252 1314.47 675.055C1315.23 674.859 1316.02 674.72 1316.85 674.64C1317.83 674.538 1318.62 674.443 1319.22 674.356C1319.81 674.261 1320.25 674.123 1320.52 673.94C1320.79 673.758 1320.92 673.489 1320.92 673.131V673.066C1320.92 672.374 1320.7 671.838 1320.26 671.459C1319.83 671.08 1319.22 670.891 1318.43 670.891C1317.59 670.891 1316.92 671.076 1316.43 671.448C1315.93 671.812 1315.6 672.271 1315.44 672.825L1311.14 672.476C1311.36 671.455 1311.79 670.573 1312.43 669.83C1313.07 669.08 1313.9 668.504 1314.91 668.103C1315.93 667.695 1317.11 667.491 1318.45 667.491C1319.38 667.491 1320.28 667.6 1321.13 667.819C1321.99 668.037 1322.75 668.376 1323.41 668.835C1324.08 669.295 1324.61 669.885 1325 670.606C1325.38 671.32 1325.58 672.177 1325.58 673.175V684.5H1321.16V682.172H1321.03C1320.76 682.696 1320.4 683.159 1319.95 683.56C1319.5 683.953 1318.95 684.263 1318.32 684.489C1317.68 684.708 1316.95 684.817 1316.12 684.817ZM1317.46 681.603C1318.14 681.603 1318.74 681.468 1319.27 681.199C1319.79 680.922 1320.21 680.55 1320.5 680.084C1320.8 679.617 1320.95 679.089 1320.95 678.499V676.717C1320.81 676.812 1320.61 676.899 1320.35 676.979C1320.1 677.052 1319.82 677.121 1319.51 677.187C1319.2 677.245 1318.88 677.3 1318.57 677.351C1318.26 677.395 1317.97 677.435 1317.72 677.471C1317.17 677.551 1316.69 677.679 1316.29 677.854C1315.88 678.029 1315.56 678.266 1315.33 678.564C1315.11 678.856 1315 679.22 1315 679.657C1315 680.291 1315.23 680.776 1315.68 681.111C1316.15 681.439 1316.74 681.603 1317.46 681.603ZM1333.85 674.793V684.5H1329.19V667.709H1333.63V670.672H1333.82C1334.2 669.695 1334.82 668.923 1335.69 668.354C1336.57 667.779 1337.63 667.491 1338.87 667.491C1340.04 667.491 1341.06 667.746 1341.92 668.256C1342.79 668.766 1343.47 669.495 1343.95 670.442C1344.43 671.382 1344.67 672.505 1344.67 673.809V684.5H1340.01V674.64C1340.02 673.612 1339.76 672.811 1339.22 672.235C1338.69 671.652 1337.96 671.361 1337.03 671.361C1336.4 671.361 1335.85 671.495 1335.37 671.765C1334.89 672.035 1334.52 672.428 1334.25 672.946C1333.99 673.456 1333.85 674.072 1333.85 674.793Z" fill="#F5A800"/>
<g filter="url(#filter3_d_426_715)">
<path d="M1387 651C1387 645.477 1391.48 641 1397 641H1557C1562.52 641 1567 645.479 1567 651.004V696.996C1567 702.521 1562.52 707 1557 707H1397C1391.48 707 1387 702.523 1387 697V651Z" fill="white"/>
<path d="M1412.91 678.361V678.234C1412.92 676.877 1413.06 675.797 1413.33 674.994C1413.6 674.191 1413.99 673.541 1414.48 673.044C1414.98 672.546 1415.58 672.088 1416.27 671.669C1416.69 671.413 1417.07 671.111 1417.4 670.763C1417.74 670.408 1418 669.999 1418.19 669.537C1418.39 669.076 1418.49 668.564 1418.49 668.003C1418.49 667.306 1418.33 666.703 1418 666.191C1417.67 665.679 1417.24 665.285 1416.69 665.008C1416.14 664.731 1415.54 664.592 1414.87 664.592C1414.28 664.592 1413.72 664.713 1413.18 664.955C1412.64 665.196 1412.19 665.576 1411.83 666.095C1411.47 666.614 1411.26 667.292 1411.2 668.131H1408.52C1408.57 666.923 1408.89 665.889 1409.45 665.029C1410.03 664.17 1410.79 663.513 1411.72 663.058C1412.67 662.603 1413.72 662.376 1414.87 662.376C1416.12 662.376 1417.2 662.624 1418.13 663.122C1419.06 663.619 1419.78 664.301 1420.28 665.168C1420.79 666.035 1421.05 667.022 1421.05 668.131C1421.05 668.912 1420.93 669.619 1420.69 670.251C1420.45 670.884 1420.11 671.449 1419.66 671.946C1419.22 672.443 1418.69 672.884 1418.06 673.267C1417.44 673.658 1416.94 674.07 1416.56 674.504C1416.19 674.93 1415.91 675.438 1415.74 676.028C1415.57 676.617 1415.48 677.353 1415.46 678.234V678.361H1412.91ZM1414.27 684.671C1413.74 684.671 1413.29 684.482 1412.92 684.106C1412.54 683.729 1412.35 683.278 1412.35 682.752C1412.35 682.226 1412.54 681.775 1412.92 681.399C1413.29 681.022 1413.74 680.834 1414.27 680.834C1414.8 680.834 1415.25 681.022 1415.62 681.399C1416 681.775 1416.19 682.226 1416.19 682.752C1416.19 683.1 1416.1 683.42 1415.92 683.711C1415.75 684.003 1415.52 684.237 1415.23 684.415C1414.95 684.585 1414.63 684.671 1414.27 684.671ZM1442.74 669.495H1440.1C1439.94 668.735 1439.67 668.067 1439.28 667.491C1438.89 666.916 1438.42 666.433 1437.87 666.042C1437.32 665.644 1436.71 665.346 1436.05 665.147C1435.38 664.948 1434.68 664.848 1433.96 664.848C1432.64 664.848 1431.44 665.182 1430.37 665.85C1429.3 666.518 1428.45 667.502 1427.82 668.802C1427.19 670.102 1426.88 671.697 1426.88 673.587C1426.88 675.477 1427.19 677.072 1427.82 678.372C1428.45 679.672 1429.3 680.656 1430.37 681.324C1431.44 681.992 1432.64 682.326 1433.96 682.326C1434.68 682.326 1435.38 682.226 1436.05 682.028C1436.71 681.829 1437.32 681.534 1437.87 681.143C1438.42 680.745 1438.89 680.258 1439.28 679.683C1439.67 679.1 1439.94 678.433 1440.1 677.679H1442.74C1442.54 678.795 1442.18 679.793 1441.65 680.674C1441.13 681.555 1440.47 682.305 1439.69 682.923C1438.91 683.534 1438.03 683.999 1437.06 684.319C1436.09 684.639 1435.06 684.798 1433.96 684.798C1432.1 684.798 1430.44 684.344 1428.99 683.434C1427.54 682.525 1426.4 681.232 1425.57 679.555C1424.74 677.878 1424.32 675.889 1424.32 673.587C1424.32 671.285 1424.74 669.296 1425.57 667.619C1426.4 665.942 1427.54 664.649 1428.99 663.74C1430.44 662.83 1432.1 662.376 1433.96 662.376C1435.06 662.376 1436.09 662.536 1437.06 662.855C1438.03 663.175 1438.91 663.644 1439.69 664.262C1440.47 664.873 1441.13 665.619 1441.65 666.5C1442.18 667.374 1442.54 668.372 1442.74 669.495ZM1449.18 662.674V684.5H1446.67V662.674H1449.18ZM1453.79 684.5V668.131H1456.31V684.5H1453.79ZM1455.07 665.402C1454.58 665.402 1454.16 665.235 1453.8 664.902C1453.45 664.568 1453.28 664.166 1453.28 663.697C1453.28 663.228 1453.45 662.827 1453.8 662.493C1454.16 662.159 1454.58 661.992 1455.07 661.992C1455.56 661.992 1455.98 662.159 1456.33 662.493C1456.68 662.827 1456.86 663.228 1456.86 663.697C1456.86 664.166 1456.68 664.568 1456.33 664.902C1455.98 665.235 1455.56 665.402 1455.07 665.402ZM1467.77 684.841C1466.2 684.841 1464.84 684.493 1463.69 683.797C1462.56 683.093 1461.68 682.113 1461.06 680.855C1460.45 679.591 1460.14 678.12 1460.14 676.443C1460.14 674.766 1460.45 673.289 1461.06 672.01C1461.68 670.724 1462.54 669.722 1463.64 669.005C1464.75 668.28 1466.04 667.917 1467.52 667.917C1468.37 667.917 1469.21 668.06 1470.04 668.344C1470.88 668.628 1471.63 669.09 1472.31 669.729C1473 670.362 1473.54 671.2 1473.95 672.244C1474.35 673.289 1474.55 674.575 1474.55 676.102V677.168H1461.93V674.994H1472C1472 674.07 1471.81 673.246 1471.44 672.521C1471.08 671.797 1470.56 671.225 1469.89 670.806C1469.22 670.386 1468.43 670.177 1467.52 670.177C1466.52 670.177 1465.65 670.425 1464.92 670.923C1464.19 671.413 1463.64 672.052 1463.25 672.841C1462.85 673.63 1462.66 674.475 1462.66 675.377V676.827C1462.66 678.063 1462.87 679.111 1463.3 679.971C1463.73 680.823 1464.33 681.473 1465.1 681.921C1465.87 682.361 1466.76 682.582 1467.77 682.582C1468.44 682.582 1469.03 682.489 1469.57 682.305C1470.11 682.113 1470.57 681.829 1470.96 681.452C1471.35 681.068 1471.65 680.592 1471.87 680.024L1474.3 680.706C1474.04 681.53 1473.61 682.255 1473.01 682.88C1472.4 683.498 1471.66 683.981 1470.77 684.329C1469.88 684.671 1468.88 684.841 1467.77 684.841ZM1480.89 674.653V684.5H1478.38V668.131H1480.81V670.688H1481.02C1481.41 669.857 1481.99 669.189 1482.77 668.685C1483.55 668.173 1484.56 667.917 1485.8 667.917C1486.9 667.917 1487.87 668.145 1488.71 668.6C1489.54 669.047 1490.18 669.729 1490.65 670.646C1491.11 671.555 1491.34 672.706 1491.34 674.099V684.5H1488.82V674.269C1488.82 672.983 1488.49 671.981 1487.82 671.264C1487.15 670.539 1486.24 670.177 1485.07 670.177C1484.27 670.177 1483.55 670.351 1482.92 670.699C1482.29 671.047 1481.8 671.555 1481.44 672.223C1481.08 672.891 1480.89 673.701 1480.89 674.653ZM1503.05 668.131V670.262H1494.57V668.131H1503.05ZM1497.04 664.209H1499.56V679.811C1499.56 680.521 1499.66 681.054 1499.87 681.409C1500.08 681.758 1500.35 681.992 1500.68 682.113C1501.01 682.226 1501.36 682.283 1501.73 682.283C1502.01 682.283 1502.24 682.269 1502.41 682.241C1502.59 682.205 1502.73 682.177 1502.84 682.155L1503.35 684.415C1503.18 684.479 1502.94 684.543 1502.64 684.607C1502.33 684.678 1501.94 684.713 1501.48 684.713C1500.76 684.713 1500.07 684.56 1499.39 684.255C1498.71 683.949 1498.15 683.484 1497.7 682.859C1497.26 682.234 1497.04 681.445 1497.04 680.493V664.209ZM1510.17 662.674V684.5H1507.53V662.674H1510.17ZM1521.31 684.841C1519.95 684.841 1518.74 684.496 1517.7 683.807C1516.65 683.111 1515.84 682.131 1515.25 680.866C1514.66 679.594 1514.36 678.092 1514.36 676.358C1514.36 674.639 1514.66 673.147 1515.25 671.882C1515.84 670.617 1516.66 669.64 1517.71 668.951C1518.76 668.262 1519.98 667.917 1521.35 667.917C1522.42 667.917 1523.26 668.095 1523.88 668.45C1524.5 668.798 1524.98 669.196 1525.31 669.644C1525.64 670.084 1525.9 670.447 1526.09 670.731H1526.3V662.674H1528.81V684.5H1526.38V681.985H1526.09C1525.9 682.283 1525.64 682.66 1525.3 683.115C1524.96 683.562 1524.47 683.964 1523.84 684.319C1523.2 684.667 1522.36 684.841 1521.31 684.841ZM1521.65 682.582C1522.66 682.582 1523.51 682.319 1524.21 681.793C1524.91 681.26 1525.44 680.525 1525.8 679.587C1526.16 678.642 1526.34 677.552 1526.34 676.315C1526.34 675.093 1526.16 674.024 1525.81 673.108C1525.45 672.184 1524.93 671.466 1524.23 670.955C1523.53 670.436 1522.68 670.177 1521.65 670.177C1520.59 670.177 1519.7 670.45 1518.99 670.997C1518.28 671.537 1517.76 672.273 1517.4 673.203C1517.05 674.127 1516.88 675.164 1516.88 676.315C1516.88 677.48 1517.06 678.539 1517.41 679.491C1517.77 680.436 1518.31 681.189 1519.01 681.75C1519.72 682.305 1520.6 682.582 1521.65 682.582ZM1537.05 678.361V678.234C1537.07 676.877 1537.21 675.797 1537.48 674.994C1537.75 674.191 1538.13 673.541 1538.63 673.044C1539.13 672.546 1539.72 672.088 1540.42 671.669C1540.84 671.413 1541.22 671.111 1541.55 670.763C1541.88 670.408 1542.15 669.999 1542.34 669.537C1542.54 669.076 1542.64 668.564 1542.64 668.003C1542.64 667.306 1542.47 666.703 1542.15 666.191C1541.82 665.679 1541.38 665.285 1540.83 665.008C1540.29 664.731 1539.68 664.592 1539.01 664.592C1538.43 664.592 1537.87 664.713 1537.33 664.955C1536.79 665.196 1536.34 665.576 1535.98 666.095C1535.61 666.614 1535.4 667.292 1535.35 668.131H1532.66C1532.72 666.923 1533.03 665.889 1533.6 665.029C1534.17 664.17 1534.93 663.513 1535.87 663.058C1536.81 662.603 1537.86 662.376 1539.01 662.376C1540.26 662.376 1541.35 662.624 1542.27 663.122C1543.2 663.619 1543.92 664.301 1544.43 665.168C1544.94 666.035 1545.19 667.022 1545.19 668.131C1545.19 668.912 1545.07 669.619 1544.83 670.251C1544.6 670.884 1544.26 671.449 1543.81 671.946C1543.37 672.443 1542.83 672.884 1542.21 673.267C1541.58 673.658 1541.08 674.07 1540.71 674.504C1540.33 674.93 1540.06 675.438 1539.89 676.028C1539.72 676.617 1539.62 677.353 1539.61 678.234V678.361H1537.05ZM1538.42 684.671C1537.89 684.671 1537.44 684.482 1537.06 684.106C1536.69 683.729 1536.5 683.278 1536.5 682.752C1536.5 682.226 1536.69 681.775 1537.06 681.399C1537.44 681.022 1537.89 680.834 1538.42 680.834C1538.94 680.834 1539.39 681.022 1539.77 681.399C1540.15 681.775 1540.33 682.226 1540.33 682.752C1540.33 683.1 1540.25 683.42 1540.07 683.711C1539.9 684.003 1539.67 684.237 1539.37 684.415C1539.09 684.585 1538.77 684.671 1538.42 684.671Z" fill="#7D88A1"/>
</g>
<defs>
<filter id="filter0_d_426_715" x="336" y="176" width="181" height="98" filterUnits="userSpaceOnUse" color-interpolation-filters="sRGB">
<feFlood flood-opacity="0" result="BackgroundImageFix"/>
<feColorMatrix in="SourceAlpha" type="matrix" values="0 0 0 0 0 0 0 0 0 0 0 0 0 0 0 0 0 0 127 0" result="hardAlpha"/>
<feOffset dy="8"/>
<feGaussianBlur stdDeviation="8"/>
<feColorMatrix type="matrix" values="0 0 0 0 0.337255 0 0 0 0 0.388235 0 0 0 0 0.505882 0 0 0 0.24 0"/>
<feBlend mode="normal" in2="BackgroundImageFix" result="effect1_dropShadow_426_715"/>
<feBlend mode="normal" in="SourceGraphic" in2="effect1_dropShadow_426_715" result="shape"/>
</filter>
<filter id="filter1_d_426_715" x="435" y="328" width="181" height="98" filterUnits="userSpaceOnUse" color-interpolation-filters="sRGB">
<feFlood flood-opacity="0" result="BackgroundImageFix"/>
<feColorMatrix in="SourceAlpha" type="matrix" values="0 0 0 0 0 0 0 0 0 0 0 0 0 0 0 0 0 0 127 0" result="hardAlpha"/>
<feOffset dy="8"/>
<feGaussianBlur stdDeviation="8"/>
<feColorMatrix type="matrix" values="0 0 0 0 0.337255 0 0 0 0 0.388235 0 0 0 0 0.505882 0 0 0 0.24 0"/>
<feBlend mode="normal" in2="BackgroundImageFix" result="effect1_dropShadow_426_715"/>
<feBlend mode="normal" in="SourceGraphic" in2="effect1_dropShadow_426_715" result="shape"/>
</filter>
<filter id="filter2_d_426_715" x="542" y="480" width="181" height="98" filterUnits="userSpaceOnUse" color-interpolation-filters="sRGB">
<feFlood flood-opacity="0" result="BackgroundImageFix"/>
<feColorMatrix in="SourceAlpha" type="matrix" values="0 0 0 0 0 0 0 0 0 0 0 0 0 0 0 0 0 0 127 0" result="hardAlpha"/>
<feOffset dy="8"/>
<feGaussianBlur stdDeviation="8"/>
<feColorMatrix type="matrix" values="0 0 0 0 0.337255 0 0 0 0 0.388235 0 0 0 0 0.505882 0 0 0 0.24 0"/>
<feBlend mode="normal" in2="BackgroundImageFix" result="effect1_dropShadow_426_715"/>
<feBlend mode="normal" in="SourceGraphic" in2="effect1_dropShadow_426_715" result="shape"/>
</filter>
<filter id="filter3_d_426_715" x="1371" y="633" width="212" height="98" filterUnits="userSpaceOnUse" color-interpolation-filters="sRGB">
<feFlood flood-opacity="0" result="BackgroundImageFix"/>
<feColorMatrix in="SourceAlpha" type="matrix" values="0 0 0 0 0 0 0 0 0 0 0 0 0 0 0 0 0 0 127 0" result="hardAlpha"/>
<feOffset dy="8"/>
<feGaussianBlur stdDeviation="8"/>
<feColorMatrix type="matrix" values="0 0 0 0 0.337255 0 0 0 0 0.388235 0 0 0 0 0.505882 0 0 0 0.24 0"/>
<feBlend mode="normal" in2="BackgroundImageFix" result="effect1_dropShadow_426_715"/>
<feBlend mode="normal" in="SourceGraphic" in2="effect1_dropShadow_426_715" result="shape"/>
</filter>
</defs>
</svg>
