<svg width="1055" height="898" fill="none" xmlns="http://www.w3.org/2000/svg"><rect width="1055" height="898" rx="27" fill="#fff"/><rect x="490.5" y="298.5" width="404" height="343" rx="22.631" transform="rotate(90 490.5 298.5)" stroke="#90A8EC" stroke-width="3"/><rect x="921.5" y="298.5" width="404" height="343" rx="22.631" transform="rotate(90 921.5 298.5)" stroke="#A9C265" stroke-width="3"/><rect x="166" y="272" width="158.262" height="49" rx="9.015" fill="#fff"/><path d="M191.847 306v-19.744h7.789c1.492 0 2.764.267 3.818.801 1.061.527 1.867 1.275 2.42 2.246.559.964.839 2.098.839 3.403 0 1.311-.283 2.439-.849 3.384-.565.938-1.385 1.658-2.458 2.159-1.067.501-2.359.752-3.876.752h-5.215v-3.355h4.541c.797 0 1.459-.109 1.986-.328.527-.218.919-.546 1.176-.983.263-.437.395-.98.395-1.629 0-.656-.132-1.208-.395-1.658-.257-.45-.653-.791-1.186-1.022-.527-.238-1.192-.357-1.996-.357h-2.815V306h-4.174Zm10.662-8.985 4.907 8.985h-4.608l-4.801-8.985h4.502Zm13.586 9.274c-1.523 0-2.834-.308-3.933-.925a6.337 6.337 0 0 1-2.526-2.642c-.591-1.144-.887-2.497-.887-4.058 0-1.524.296-2.86.887-4.011.591-1.15 1.424-2.047 2.497-2.689 1.08-.643 2.346-.964 3.798-.964.977 0 1.886.157 2.728.472a6.037 6.037 0 0 1 2.218 1.398c.636.623 1.131 1.407 1.484 2.352.354.938.531 2.037.531 3.297v1.128h-12.504v-2.545h8.638c0-.591-.129-1.115-.386-1.571a2.767 2.767 0 0 0-1.07-1.071c-.45-.263-.974-.395-1.571-.395-.624 0-1.176.145-1.659.434a3.047 3.047 0 0 0-1.118 1.147 3.236 3.236 0 0 0-.414 1.591v2.42c0 .732.135 1.365.405 1.899.276.533.665.945 1.166 1.234.501.289 1.096.434 1.784.434.456 0 .874-.065 1.253-.193a2.6 2.6 0 0 0 .973-.579c.27-.257.476-.572.617-.944l3.799.25a5.184 5.184 0 0 1-1.186 2.391c-.591.675-1.356 1.202-2.294 1.581-.932.373-2.009.559-3.23.559Zm23.359 5.264h-4.097v-7.925h-.126c-.193.412-.466.82-.819 1.225-.347.398-.8.729-1.36.993-.552.263-1.227.395-2.024.395-1.125 0-2.143-.289-3.056-.868-.906-.584-1.626-1.442-2.159-2.574-.527-1.137-.791-2.532-.791-4.184 0-1.696.273-3.107.819-4.232.547-1.131 1.273-1.976 2.179-2.535a5.58 5.58 0 0 1 2.998-.848c.829 0 1.52.141 2.073.424.559.276 1.009.623 1.35 1.041.347.411.61.816.79 1.215h.174v-2.488h4.049v20.361Zm-4.011-12.957c0-.88-.122-1.645-.366-2.294s-.598-1.151-1.06-1.504c-.463-.354-1.026-.53-1.688-.53-.674 0-1.243.183-1.706.549-.463.366-.813.874-1.051 1.523-.237.649-.356 1.401-.356 2.256 0 .861.119 1.623.356 2.285.245.656.595 1.17 1.051 1.542.463.367 1.032.55 1.706.55.662 0 1.222-.18 1.678-.54.463-.366.816-.877 1.06-1.533.251-.655.376-1.423.376-2.304Zm16.803 1.099v-8.503h4.107V306h-3.943v-2.69h-.154a4.368 4.368 0 0 1-1.668 2.092c-.771.527-1.712.791-2.824.791-.99 0-1.861-.225-2.613-.675-.752-.45-1.34-1.089-1.764-1.918-.418-.83-.63-1.822-.636-2.979v-9.429h4.107v8.696c.006.874.241 1.565.703 2.073.463.507 1.083.761 1.861.761.495 0 .957-.112 1.388-.337a2.647 2.647 0 0 0 1.041-1.022c.27-.45.402-1.006.395-1.668Zm14.141 6.594c-1.524 0-2.835-.308-3.934-.925a6.35 6.35 0 0 1-2.526-2.642c-.591-1.144-.886-2.497-.886-4.058 0-1.524.295-2.86.886-4.011.592-1.15 1.424-2.047 2.497-2.689 1.08-.643 2.346-.964 3.799-.964.977 0 1.886.157 2.728.472a6.042 6.042 0 0 1 2.217 1.398c.636.623 1.131 1.407 1.485 2.352.353.938.53 2.037.53 3.297v1.128h-12.504v-2.545h8.638c0-.591-.128-1.115-.385-1.571a2.767 2.767 0 0 0-1.07-1.071c-.45-.263-.974-.395-1.572-.395-.623 0-1.176.145-1.658.434a3.04 3.04 0 0 0-1.118 1.147 3.248 3.248 0 0 0-.415 1.591v2.42c0 .732.135 1.365.405 1.899a2.96 2.96 0 0 0 1.167 1.234c.501.289 1.095.434 1.783.434.456 0 .874-.065 1.253-.193.379-.129.704-.322.974-.579.27-.257.476-.572.617-.944l3.798.25a5.184 5.184 0 0 1-1.186 2.391c-.591.675-1.356 1.202-2.294 1.581-.932.373-2.008.559-3.229.559Zm21.796-10.874-3.759.231a1.952 1.952 0 0 0-.415-.867 2.194 2.194 0 0 0-.839-.627c-.34-.161-.748-.241-1.224-.241-.636 0-1.173.135-1.61.405-.437.263-.655.617-.655 1.06 0 .354.141.653.424.897.283.244.768.44 1.455.588l2.681.54c1.439.295 2.512.771 3.219 1.427.707.655 1.061 1.516 1.061 2.583 0 .971-.286 1.822-.858 2.555-.566.733-1.343 1.305-2.333 1.716-.983.405-2.118.607-3.403.607-1.96 0-3.522-.408-4.685-1.224-1.157-.823-1.835-1.941-2.035-3.355l4.04-.212c.122.598.418 1.054.887 1.369.469.308 1.07.463 1.802.463.72 0 1.299-.139 1.736-.415.443-.283.668-.646.675-1.089a1.134 1.134 0 0 0-.473-.916c-.308-.244-.784-.431-1.427-.559l-2.564-.511c-1.446-.289-2.523-.791-3.229-1.504-.701-.713-1.051-1.623-1.051-2.728 0-.952.257-1.771.771-2.459.521-.687 1.25-1.218 2.188-1.59.945-.373 2.051-.559 3.317-.559 1.87 0 3.342.395 4.415 1.185 1.08.791 1.709 1.867 1.889 3.23Zm10.8-4.223v3.085h-8.917v-3.085h8.917Zm-6.893-3.547h4.107v13.805c0 .379.058.675.174.887.115.205.276.35.482.433.212.084.456.126.732.126.193 0 .386-.016.579-.048.192-.039.34-.068.443-.087l.646 3.056c-.206.064-.495.138-.868.222-.372.09-.825.144-1.359.163-.99.039-1.857-.093-2.603-.395-.739-.302-1.314-.771-1.725-1.407-.412-.637-.614-1.44-.608-2.41v-14.345Z" fill="#90A8EC"/><rect x="146" y="757" width="195.262" height="49" rx="9.015" fill="#fff"/><path d="M175.25 791h-4.473l6.816-19.744h5.379L189.778 791h-4.473l-4.945-15.232h-.155L175.25 791Zm-.279-7.761h10.565v3.259h-10.565v-3.259Zm23.108 8.05c-1.517 0-2.822-.321-3.914-.964a6.514 6.514 0 0 1-2.507-2.699c-.578-1.151-.868-2.475-.868-3.972 0-1.517.293-2.847.878-3.991a6.515 6.515 0 0 1 2.516-2.69c1.086-.649 2.378-.973 3.875-.973 1.292 0 2.423.234 3.394.703.97.469 1.738 1.128 2.304 1.977.565.848.877 1.844.935 2.988h-3.876c-.109-.739-.398-1.333-.867-1.783-.463-.457-1.07-.685-1.822-.685-.637 0-1.192.174-1.668.521-.469.34-.836.838-1.099 1.494-.264.656-.395 1.449-.395 2.381 0 .945.128 1.748.385 2.41.264.662.633 1.167 1.109 1.514s1.031.52 1.668.52c.469 0 .89-.096 1.263-.289.379-.193.691-.472.935-.839.25-.372.414-.819.491-1.34h3.876c-.064 1.132-.373 2.128-.926 2.989-.546.855-1.301 1.523-2.265 2.005-.964.482-2.105.723-3.422.723Zm15.933 0c-1.517 0-2.822-.321-3.914-.964a6.521 6.521 0 0 1-2.507-2.699c-.578-1.151-.867-2.475-.867-3.972 0-1.517.292-2.847.877-3.991a6.515 6.515 0 0 1 2.516-2.69c1.086-.649 2.378-.973 3.875-.973 1.292 0 2.423.234 3.394.703.97.469 1.738 1.128 2.304 1.977.565.848.877 1.844.935 2.988h-3.875c-.11-.739-.399-1.333-.868-1.783-.463-.457-1.07-.685-1.822-.685-.636 0-1.192.174-1.668.521-.469.34-.835.838-1.099 1.494-.263.656-.395 1.449-.395 2.381 0 .945.128 1.748.385 2.41.264.662.634 1.167 1.109 1.514.476.347 1.032.52 1.668.52.469 0 .89-.096 1.263-.289.379-.193.691-.472.935-.839.251-.372.414-.819.492-1.34h3.875c-.064 1.132-.373 2.128-.925 2.989-.547.855-1.302 1.523-2.266 2.005s-2.105.723-3.422.723Zm15.933 0c-1.498 0-2.793-.318-3.885-.954a6.532 6.532 0 0 1-2.516-2.68c-.592-1.151-.887-2.484-.887-4.001 0-1.53.295-2.866.887-4.01a6.447 6.447 0 0 1 2.516-2.68c1.092-.643 2.387-.964 3.885-.964 1.497 0 2.789.321 3.875.964a6.426 6.426 0 0 1 2.526 2.68c.591 1.144.887 2.48.887 4.01 0 1.517-.296 2.85-.887 4.001a6.51 6.51 0 0 1-2.526 2.68c-1.086.636-2.378.954-3.875.954Zm.019-3.181c.681 0 1.25-.193 1.706-.579.457-.392.801-.925 1.032-1.6.238-.675.357-1.443.357-2.304 0-.861-.119-1.629-.357-2.304-.231-.675-.575-1.208-1.032-1.6-.456-.392-1.025-.588-1.706-.588-.688 0-1.266.196-1.735.588-.463.392-.813.925-1.051 1.6-.231.675-.347 1.443-.347 2.304 0 .861.116 1.629.347 2.304.238.675.588 1.208 1.051 1.6.469.386 1.047.579 1.735.579Zm19.435-3.413v-8.503h4.107V791h-3.943v-2.69h-.154a4.368 4.368 0 0 1-1.668 2.092c-.771.527-1.713.791-2.825.791-.989 0-1.86-.225-2.612-.675-.752-.45-1.34-1.089-1.764-1.918-.418-.83-.63-1.822-.637-2.979v-9.429h4.107v8.696c.007.874.241 1.565.704 2.073.463.507 1.083.761 1.861.761.494 0 .957-.112 1.388-.337a2.66 2.66 0 0 0 1.041-1.022c.27-.45.402-1.006.395-1.668Zm11.499-2.256V791h-4.107v-14.808h3.914v2.613h.173a4.135 4.135 0 0 1 1.649-2.044c.771-.508 1.706-.761 2.805-.761 1.029 0 1.925.225 2.69.674.765.45 1.359 1.093 1.783 1.928.425.83.637 1.819.637 2.97V791h-4.107v-8.696c.006-.906-.225-1.613-.694-2.121-.469-.514-1.115-.771-1.938-.771-.553 0-1.041.119-1.465.357a2.49 2.49 0 0 0-.984 1.041c-.231.45-.35.993-.356 1.629Zm20.657-6.247v3.085h-8.918v-3.085h8.918Zm-6.893-3.547h4.107v13.805c0 .379.057.675.173.887.116.205.276.35.482.433.212.084.456.126.733.126.193 0 .385-.016.578-.048.193-.039.341-.068.444-.087l.646 3.056c-.206.064-.495.138-.868.222-.373.09-.826.144-1.359.163-.99.039-1.858-.093-2.603-.395-.739-.302-1.315-.771-1.726-1.407-.411-.637-.614-1.44-.607-2.41v-14.345Zm20.102-1.389V791h-4.174v-19.744h4.174ZM305.198 791h-6.999v-19.744h7.057c1.985 0 3.695.396 5.128 1.186 1.433.784 2.536 1.912 3.307 3.384.778 1.472 1.166 3.233 1.166 5.283 0 2.057-.388 3.824-1.166 5.302a8.013 8.013 0 0 1-3.326 3.403c-1.44.791-3.162 1.186-5.167 1.186Zm-2.825-3.577h2.651c1.234 0 2.272-.218 3.114-.655.848-.444 1.485-1.128 1.909-2.054.43-.931.646-2.133.646-3.605 0-1.459-.216-2.651-.646-3.577-.424-.925-1.057-1.606-1.899-2.043-.842-.437-1.88-.656-3.114-.656h-2.661v12.59Z" fill="#90A8EC"/><rect x="577" y="757" width="195.262" height="49" rx="9.015" fill="#fff"/><path d="M606.25 791h-4.473l6.816-19.744h5.379L620.778 791h-4.473l-4.945-15.232h-.155L606.25 791Zm-.279-7.761h10.565v3.259h-10.565v-3.259Zm23.108 8.05c-1.517 0-2.822-.321-3.914-.964a6.514 6.514 0 0 1-2.507-2.699c-.578-1.151-.868-2.475-.868-3.972 0-1.517.293-2.847.878-3.991a6.515 6.515 0 0 1 2.516-2.69c1.086-.649 2.378-.973 3.875-.973 1.292 0 2.423.234 3.394.703.97.469 1.738 1.128 2.304 1.977.565.848.877 1.844.935 2.988h-3.876c-.109-.739-.398-1.333-.867-1.783-.463-.457-1.07-.685-1.822-.685-.637 0-1.192.174-1.668.521-.469.34-.836.838-1.099 1.494-.264.656-.395 1.449-.395 2.381 0 .945.128 1.748.385 2.41.264.662.633 1.167 1.109 1.514s1.031.52 1.668.52c.469 0 .89-.096 1.263-.289.379-.193.691-.472.935-.839.25-.372.414-.819.491-1.34h3.876c-.064 1.132-.373 2.128-.926 2.989-.546.855-1.301 1.523-2.265 2.005-.964.482-2.105.723-3.422.723Zm15.933 0c-1.517 0-2.822-.321-3.914-.964a6.521 6.521 0 0 1-2.507-2.699c-.578-1.151-.867-2.475-.867-3.972 0-1.517.292-2.847.877-3.991a6.515 6.515 0 0 1 2.516-2.69c1.086-.649 2.378-.973 3.875-.973 1.292 0 2.423.234 3.394.703.97.469 1.738 1.128 2.304 1.977.565.848.877 1.844.935 2.988h-3.875c-.11-.739-.399-1.333-.868-1.783-.463-.457-1.07-.685-1.822-.685-.636 0-1.192.174-1.668.521-.469.34-.835.838-1.099 1.494-.263.656-.395 1.449-.395 2.381 0 .945.128 1.748.385 2.41.264.662.634 1.167 1.109 1.514.476.347 1.032.52 1.668.52.469 0 .89-.096 1.263-.289.379-.193.691-.472.935-.839.251-.372.414-.819.492-1.34h3.875c-.064 1.132-.373 2.128-.925 2.989-.547.855-1.302 1.523-2.266 2.005s-2.105.723-3.422.723Zm15.933 0c-1.498 0-2.793-.318-3.885-.954a6.532 6.532 0 0 1-2.516-2.68c-.592-1.151-.887-2.484-.887-4.001 0-1.53.295-2.866.887-4.01a6.447 6.447 0 0 1 2.516-2.68c1.092-.643 2.387-.964 3.885-.964 1.497 0 2.789.321 3.875.964a6.426 6.426 0 0 1 2.526 2.68c.591 1.144.887 2.48.887 4.01 0 1.517-.296 2.85-.887 4.001a6.51 6.51 0 0 1-2.526 2.68c-1.086.636-2.378.954-3.875.954Zm.019-3.181c.681 0 1.25-.193 1.706-.579.457-.392.801-.925 1.032-1.6.238-.675.357-1.443.357-2.304 0-.861-.119-1.629-.357-2.304-.231-.675-.575-1.208-1.032-1.6-.456-.392-1.025-.588-1.706-.588-.688 0-1.266.196-1.735.588-.463.392-.813.925-1.051 1.6-.231.675-.347 1.443-.347 2.304 0 .861.116 1.629.347 2.304.238.675.588 1.208 1.051 1.6.469.386 1.047.579 1.735.579Zm19.435-3.413v-8.503h4.107V791h-3.943v-2.69h-.154a4.368 4.368 0 0 1-1.668 2.092c-.771.527-1.713.791-2.825.791-.989 0-1.86-.225-2.612-.675-.752-.45-1.34-1.089-1.764-1.918-.418-.83-.63-1.822-.637-2.979v-9.429h4.107v8.696c.007.874.241 1.565.704 2.073.463.507 1.083.761 1.861.761.494 0 .957-.112 1.388-.337a2.66 2.66 0 0 0 1.041-1.022c.27-.45.402-1.006.395-1.668Zm11.499-2.256V791h-4.107v-14.808h3.914v2.613h.173a4.135 4.135 0 0 1 1.649-2.044c.771-.508 1.706-.761 2.805-.761 1.029 0 1.925.225 2.69.674.765.45 1.359 1.093 1.783 1.928.425.83.637 1.819.637 2.97V791h-4.107v-8.696c.006-.906-.225-1.613-.694-2.121-.469-.514-1.115-.771-1.938-.771-.553 0-1.041.119-1.465.357a2.49 2.49 0 0 0-.984 1.041c-.231.45-.35.993-.356 1.629Zm20.657-6.247v3.085h-8.918v-3.085h8.918Zm-6.893-3.547h4.107v13.805c0 .379.057.675.173.887.116.205.276.35.482.433.212.084.456.126.733.126.193 0 .385-.016.578-.048.193-.039.341-.068.444-.087l.646 3.056c-.206.064-.495.138-.868.222-.373.09-.826.144-1.359.163-.99.039-1.858-.093-2.603-.395-.739-.302-1.315-.771-1.726-1.407-.411-.637-.614-1.44-.607-2.41v-14.345Zm20.102-1.389V791h-4.174v-19.744h4.174ZM736.198 791h-6.999v-19.744h7.057c1.985 0 3.695.396 5.128 1.186 1.433.784 2.536 1.912 3.307 3.384.778 1.472 1.166 3.233 1.166 5.283 0 2.057-.388 3.824-1.166 5.302a8.013 8.013 0 0 1-3.326 3.403c-1.44.791-3.162 1.186-5.167 1.186Zm-2.825-3.577h2.651c1.234 0 2.272-.218 3.114-.655.848-.444 1.485-1.128 1.909-2.054.43-.931.646-2.133.646-3.605 0-1.459-.216-2.651-.646-3.577-.424-.925-1.057-1.606-1.899-2.043-.842-.437-1.88-.656-3.114-.656h-2.661v12.59Z" fill="#A9C265"/><rect x="597" y="272" width="158.262" height="49" rx="9.015" fill="#fff"/><path d="M622.847 306v-19.744h7.789c1.492 0 2.764.267 3.818.801 1.061.527 1.867 1.275 2.42 2.246.559.964.839 2.098.839 3.403 0 1.311-.283 2.439-.849 3.384-.565.938-1.385 1.658-2.458 2.159-1.067.501-2.359.752-3.876.752h-5.215v-3.355h4.541c.797 0 1.459-.109 1.986-.328.527-.218.919-.546 1.176-.983.263-.437.395-.98.395-1.629 0-.656-.132-1.208-.395-1.658-.257-.45-.653-.791-1.186-1.022-.527-.238-1.192-.357-1.996-.357h-2.815V306h-4.174Zm10.662-8.985 4.907 8.985h-4.608l-4.801-8.985h4.502Zm13.586 9.274c-1.523 0-2.834-.308-3.933-.925a6.337 6.337 0 0 1-2.526-2.642c-.591-1.144-.887-2.497-.887-4.058 0-1.524.296-2.86.887-4.011.591-1.15 1.424-2.047 2.497-2.689 1.08-.643 2.346-.964 3.798-.964.977 0 1.886.157 2.728.472a6.037 6.037 0 0 1 2.218 1.398c.636.623 1.131 1.407 1.484 2.352.354.938.531 2.037.531 3.297v1.128h-12.504v-2.545h8.638c0-.591-.129-1.115-.386-1.571a2.767 2.767 0 0 0-1.07-1.071c-.45-.263-.974-.395-1.571-.395-.624 0-1.176.145-1.659.434a3.047 3.047 0 0 0-1.118 1.147 3.236 3.236 0 0 0-.414 1.591v2.42c0 .732.135 1.365.405 1.899.276.533.665.945 1.166 1.234.501.289 1.096.434 1.784.434.456 0 .874-.065 1.253-.193a2.6 2.6 0 0 0 .973-.579c.27-.257.476-.572.617-.944l3.799.25a5.184 5.184 0 0 1-1.186 2.391c-.591.675-1.356 1.202-2.294 1.581-.932.373-2.009.559-3.23.559Zm23.359 5.264h-4.097v-7.925h-.126c-.193.412-.466.82-.819 1.225-.347.398-.8.729-1.36.993-.552.263-1.227.395-2.024.395-1.125 0-2.143-.289-3.056-.868-.906-.584-1.626-1.442-2.159-2.574-.527-1.137-.791-2.532-.791-4.184 0-1.696.273-3.107.819-4.232.547-1.131 1.273-1.976 2.179-2.535a5.58 5.58 0 0 1 2.998-.848c.829 0 1.52.141 2.073.424.559.276 1.009.623 1.35 1.041.347.411.61.816.79 1.215h.174v-2.488h4.049v20.361Zm-4.011-12.957c0-.88-.122-1.645-.366-2.294s-.598-1.151-1.06-1.504c-.463-.354-1.026-.53-1.688-.53-.674 0-1.243.183-1.706.549-.463.366-.813.874-1.051 1.523-.237.649-.356 1.401-.356 2.256 0 .861.119 1.623.356 2.285.245.656.595 1.17 1.051 1.542.463.367 1.032.55 1.706.55.662 0 1.222-.18 1.678-.54.463-.366.816-.877 1.06-1.533.251-.655.376-1.423.376-2.304Zm16.803 1.099v-8.503h4.107V306h-3.943v-2.69h-.154a4.368 4.368 0 0 1-1.668 2.092c-.771.527-1.712.791-2.824.791-.99 0-1.861-.225-2.613-.675-.752-.45-1.34-1.089-1.764-1.918-.418-.83-.63-1.822-.636-2.979v-9.429h4.107v8.696c.006.874.241 1.565.703 2.073.463.507 1.083.761 1.861.761.495 0 .957-.112 1.388-.337a2.647 2.647 0 0 0 1.041-1.022c.27-.45.402-1.006.395-1.668Zm14.141 6.594c-1.524 0-2.835-.308-3.934-.925a6.35 6.35 0 0 1-2.526-2.642c-.591-1.144-.886-2.497-.886-4.058 0-1.524.295-2.86.886-4.011.592-1.15 1.424-2.047 2.497-2.689 1.08-.643 2.346-.964 3.799-.964.977 0 1.886.157 2.728.472a6.042 6.042 0 0 1 2.217 1.398c.636.623 1.131 1.407 1.485 2.352.353.938.53 2.037.53 3.297v1.128h-12.504v-2.545h8.638c0-.591-.128-1.115-.385-1.571a2.763 2.763 0 0 0-1.071-1.071c-.449-.263-.973-.395-1.571-.395-.623 0-1.176.145-1.658.434a3.04 3.04 0 0 0-1.118 1.147 3.248 3.248 0 0 0-.415 1.591v2.42c0 .732.135 1.365.405 1.899a2.96 2.96 0 0 0 1.167 1.234c.501.289 1.095.434 1.783.434.456 0 .874-.065 1.253-.193.379-.129.704-.322.974-.579.27-.257.476-.572.617-.944l3.798.25a5.184 5.184 0 0 1-1.186 2.391c-.591.675-1.356 1.202-2.294 1.581-.932.373-2.008.559-3.229.559Zm21.796-10.874-3.759.231a1.952 1.952 0 0 0-.415-.867 2.194 2.194 0 0 0-.839-.627c-.34-.161-.748-.241-1.224-.241-.636 0-1.173.135-1.61.405-.437.263-.655.617-.655 1.06 0 .354.141.653.424.897.283.244.768.44 1.455.588l2.681.54c1.439.295 2.512.771 3.219 1.427.707.655 1.061 1.516 1.061 2.583 0 .971-.286 1.822-.858 2.555-.566.733-1.343 1.305-2.333 1.716-.983.405-2.118.607-3.403.607-1.96 0-3.522-.408-4.685-1.224-1.157-.823-1.835-1.941-2.035-3.355l4.04-.212c.122.598.418 1.054.887 1.369.469.308 1.07.463 1.802.463.72 0 1.299-.139 1.736-.415.443-.283.668-.646.675-1.089a1.134 1.134 0 0 0-.473-.916c-.308-.244-.784-.431-1.427-.559l-2.564-.511c-1.446-.289-2.523-.791-3.229-1.504-.701-.713-1.051-1.623-1.051-2.728 0-.952.257-1.771.771-2.459.521-.687 1.25-1.218 2.188-1.59.945-.373 2.051-.559 3.317-.559 1.87 0 3.342.395 4.415 1.185 1.08.791 1.709 1.867 1.889 3.23Zm10.8-4.223v3.085h-8.917v-3.085h8.917Zm-6.893-3.547h4.107v13.805c0 .379.058.675.174.887.115.205.276.35.482.433.212.084.456.126.732.126.193 0 .386-.016.579-.048.192-.039.34-.068.443-.087l.646 3.056c-.206.064-.495.138-.868.222-.372.09-.825.144-1.359.163-.99.039-1.857-.093-2.603-.395-.739-.302-1.314-.771-1.725-1.407-.412-.637-.614-1.44-.608-2.41v-14.345Z" fill="#A9C265"/><path d="M355.781 780.253v-1.381h7.875v1.381h-7.875Zm0 3.784v-1.381h7.875v1.381h-7.875ZM372.3 788v-13.091h4.423c1.027 0 1.866.185 2.518.556.657.367 1.142.863 1.458 1.49.315.626.473 1.325.473 2.096 0 .771-.158 1.472-.473 2.103-.311.631-.793 1.134-1.445 1.509-.652.37-1.487.556-2.506.556h-3.17v-1.407h3.119c.703 0 1.268-.121 1.694-.364.426-.243.735-.571.927-.984.196-.418.294-.889.294-1.413s-.098-.993-.294-1.406a2.106 2.106 0 0 0-.933-.972c-.431-.238-1.002-.358-1.713-.358h-2.787V788H372.3Zm14.11.23a3.996 3.996 0 0 1-1.694-.351 2.906 2.906 0 0 1-1.208-1.03c-.298-.451-.447-.997-.447-1.636 0-.562.11-1.018.332-1.368.222-.354.518-.631.888-.831.371-.2.78-.349 1.228-.447.451-.103.905-.183 1.361-.243a64.64 64.64 0 0 1 1.451-.173c.375-.042.648-.113.818-.211.175-.098.263-.268.263-.511v-.051c0-.631-.173-1.121-.518-1.47-.341-.35-.859-.524-1.554-.524-.72 0-1.284.157-1.693.473-.41.315-.697.652-.863 1.009l-1.432-.511c.256-.596.596-1.061 1.023-1.393.43-.337.899-.571 1.406-.703a5.808 5.808 0 0 1 1.508-.205c.316 0 .678.038 1.087.115.413.072.812.224 1.195.454.388.23.71.577.966 1.042.255.464.383 1.086.383 1.866V788h-1.508v-1.33h-.077c-.102.214-.273.442-.512.684-.238.243-.556.45-.952.62-.396.171-.88.256-1.451.256Zm.23-1.355c.597 0 1.1-.117 1.509-.352a2.39 2.39 0 0 0 1.253-2.077v-1.381c-.064.077-.205.147-.422.211a7.08 7.08 0 0 1-.742.16c-.277.043-.547.081-.812.115-.26.03-.471.056-.632.077a5.765 5.765 0 0 0-1.1.249 1.894 1.894 0 0 0-.818.505c-.205.222-.307.524-.307.908 0 .524.194.92.582 1.189.392.264.888.396 1.489.396Zm11.293-8.693v1.278h-5.088v-1.278h5.088Zm-3.605-2.352h1.509v9.358c0 .426.061.745.185.958.128.209.29.35.486.422.2.068.411.102.633.102.166 0 .302-.008.409-.025l.255-.051.307 1.355a3.064 3.064 0 0 1-.428.115 3.126 3.126 0 0 1-.697.064c-.426 0-.843-.092-1.253-.275a2.495 2.495 0 0 1-1.01-.837c-.264-.375-.396-.848-.396-1.419v-9.767Zm7.594 6.264V788h-1.509v-13.091h1.509v4.807h.128c.23-.507.575-.91 1.035-1.208.465-.303 1.083-.454 1.854-.454.669 0 1.255.134 1.758.403.503.264.893.671 1.17 1.221.281.545.421 1.24.421 2.083V788h-1.508v-6.136c0-.78-.203-1.383-.607-1.809-.401-.431-.957-.646-1.669-.646a2.78 2.78 0 0 0-1.329.313 2.294 2.294 0 0 0-.921.914c-.221.401-.332.887-.332 1.458Zm10.226 6.008c-.316 0-.586-.113-.812-.339a1.104 1.104 0 0 1-.339-.811c0-.316.113-.586.339-.812.226-.226.496-.339.812-.339.315 0 .586.113.811.339.226.226.339.496.339.812 0 .209-.053.4-.16.575a1.19 1.19 0 0 1-.415.422 1.1 1.1 0 0 1-.575.153Zm11.221-9.92a2.009 2.009 0 0 0-.933-1.509c-.546-.358-1.215-.537-2.008-.537-.579 0-1.086.094-1.521.282-.43.187-.767.445-1.01.773a1.858 1.858 0 0 0-.358 1.119c0 .349.083.65.25.901.17.247.387.454.652.62.264.162.541.296.831.403.289.102.556.185.799.249l1.329.358c.341.089.72.213 1.138.371a5.26 5.26 0 0 1 1.208.645c.388.269.707.614.959 1.036.251.422.377.939.377 1.553 0 .707-.185 1.347-.556 1.918-.367.571-.904 1.024-1.611 1.361-.703.337-1.558.505-2.563.505-.938 0-1.75-.151-2.436-.454-.681-.302-1.218-.724-1.61-1.265-.388-.542-.608-1.17-.659-1.886h1.637c.042.494.208.903.498 1.227.294.32.665.559 1.112.716.452.154.938.23 1.458.23.605 0 1.148-.098 1.63-.294.481-.2.863-.477 1.144-.831a1.97 1.97 0 0 0 .422-1.253c0-.434-.122-.788-.365-1.061a2.667 2.667 0 0 0-.958-.664c-.397-.171-.825-.32-1.285-.448l-1.611-.46c-1.023-.294-1.832-.714-2.429-1.259-.597-.546-.895-1.26-.895-2.142 0-.733.198-1.372.595-1.917.4-.55.937-.976 1.61-1.279.678-.306 1.434-.46 2.27-.46.843 0 1.593.151 2.25.454.656.298 1.176.707 1.559 1.227.388.52.593 1.11.614 1.771h-1.534Zm8.231 10.023c-.946 0-1.762-.209-2.448-.627a4.207 4.207 0 0 1-1.579-1.764c-.366-.759-.55-1.641-.55-2.646 0-1.006.184-1.892.55-2.659.371-.772.887-1.373 1.547-1.803.665-.435 1.44-.652 2.327-.652.511 0 1.016.085 1.515.256.498.17.952.447 1.361.831.409.379.735.882.978 1.508.243.627.365 1.398.365 2.314v.639h-7.569v-1.304h6.034c0-.554-.11-1.048-.332-1.483a2.508 2.508 0 0 0-.933-1.029c-.401-.251-.874-.377-1.419-.377-.601 0-1.121.149-1.56.448a2.934 2.934 0 0 0-1.003 1.15c-.235.473-.352.98-.352 1.521v.87c0 .741.128 1.37.384 1.885.259.512.62.902 1.08 1.17.46.264.995.396 1.604.396.396 0 .754-.055 1.074-.166a2.29 2.29 0 0 0 .837-.511c.235-.23.416-.516.544-.857l1.457.409a3.224 3.224 0 0 1-.773 1.304c-.363.371-.81.661-1.343.87-.532.204-1.131.307-1.796.307Zm10.323 3.681c-.728 0-1.355-.093-1.879-.281-.524-.183-.961-.426-1.31-.729a3.992 3.992 0 0 1-.825-.958l1.202-.844c.136.179.309.383.518.614.208.234.494.436.856.607.367.174.846.262 1.438.262.793 0 1.447-.192 1.963-.575.515-.384.773-.985.773-1.803v-1.994h-.128c-.111.179-.268.4-.473.664-.2.26-.49.493-.869.697-.375.2-.882.301-1.521.301-.793 0-1.505-.188-2.135-.563-.627-.375-1.123-.92-1.49-1.636-.362-.716-.543-1.586-.543-2.608 0-1.006.177-1.882.531-2.627.353-.75.845-1.33 1.476-1.739.631-.413 1.36-.62 2.186-.62.639 0 1.147.107 1.522.32.379.208.669.447.869.715.204.265.362.482.473.652h.153v-1.559h1.458v10.099c0 .844-.192 1.53-.576 2.058-.379.533-.89.923-1.534 1.17-.639.252-1.351.377-2.135.377Zm-.051-5.395c.605 0 1.117-.138 1.534-.415.418-.277.735-.675.953-1.195.217-.52.326-1.142.326-1.867 0-.707-.107-1.331-.32-1.873-.213-.541-.528-.965-.946-1.272-.418-.307-.933-.46-1.547-.46-.639 0-1.172.162-1.598.486-.422.324-.739.758-.952 1.304a5.032 5.032 0 0 0-.313 1.815c0 .682.106 1.285.319 1.809.217.52.537.929.959 1.227.426.294.955.441 1.585.441Zm7.057 1.509v-9.818h1.457v1.534h.128c.205-.524.535-.931.991-1.221.456-.294 1.004-.441 1.643-.441.647 0 1.187.147 1.617.441.435.29.773.697 1.016 1.221h.103c.251-.507.628-.91 1.131-1.208.503-.303 1.106-.454 1.809-.454.878 0 1.596.275 2.154.825.558.545.837 1.395.837 2.55V788h-1.508v-6.571c0-.724-.198-1.242-.595-1.553a2.2 2.2 0 0 0-1.399-.467c-.691 0-1.226.209-1.605.627-.379.413-.569.937-.569 1.572V788h-1.534v-6.724c0-.559-.181-1.008-.543-1.349-.362-.345-.829-.518-1.4-.518-.392 0-.759.104-1.099.313-.337.209-.61.499-.819.87-.204.366-.306.79-.306 1.272V788h-1.509Zm19.761.205c-.946 0-1.762-.209-2.448-.627a4.207 4.207 0 0 1-1.579-1.764c-.366-.759-.55-1.641-.55-2.646 0-1.006.184-1.892.55-2.659.371-.772.886-1.373 1.547-1.803.665-.435 1.44-.652 2.327-.652.511 0 1.016.085 1.515.256.498.17.952.447 1.361.831.409.379.735.882.978 1.508.243.627.364 1.398.364 2.314v.639h-7.568v-1.304h6.034c0-.554-.111-1.048-.332-1.483a2.515 2.515 0 0 0-.933-1.029c-.401-.251-.874-.377-1.419-.377-.601 0-1.121.149-1.56.448a2.945 2.945 0 0 0-1.004 1.15c-.234.473-.351.98-.351 1.521v.87c0 .741.128 1.37.383 1.885.26.512.62.902 1.081 1.17.46.264.995.396 1.604.396.396 0 .754-.055 1.074-.166a2.29 2.29 0 0 0 .837-.511c.235-.23.416-.516.544-.857l1.457.409a3.224 3.224 0 0 1-.773 1.304c-.363.371-.81.661-1.343.87-.532.204-1.131.307-1.796.307Zm7.869-6.111V788h-1.509v-9.818h1.458v1.534h.127c.23-.499.58-.899 1.049-1.202.468-.307 1.074-.46 1.815-.46.665 0 1.246.136 1.745.409.499.269.886.678 1.163 1.227.277.546.416 1.236.416 2.071V788h-1.509v-6.136c0-.772-.2-1.373-.601-1.803-.4-.435-.95-.652-1.649-.652a2.63 2.63 0 0 0-1.291.313 2.242 2.242 0 0 0-.888.914c-.218.401-.326.887-.326 1.458Zm13.29-3.912v1.278h-5.088v-1.278h5.088Zm-3.605-2.352h1.509v9.358c0 .426.061.745.185.958.128.209.29.35.486.422.2.068.411.102.633.102.166 0 .302-.008.409-.025l.255-.051.307 1.355a3.064 3.064 0 0 1-.428.115 3.126 3.126 0 0 1-.697.064c-.426 0-.843-.092-1.253-.275a2.495 2.495 0 0 1-1.01-.837c-.264-.375-.396-.848-.396-1.419v-9.767Zm6.616 14.829v-16.364h3.784v1.253h-2.352v13.858h2.352v1.253h-3.784Zm10.357-15.75V788h-1.586v-11.429h-.076l-3.196 2.122v-1.611l3.272-2.173h1.586Zm6.807-.614v16.364h-3.784v-1.253h2.352v-13.858h-2.352v-1.253h3.784Zm-358.015-728L147.79 61.97h-1.381l4.219-15.674h1.381Zm9.739 13.935a3.987 3.987 0 0 1-1.693-.351 2.909 2.909 0 0 1-1.209-1.03c-.298-.451-.447-.997-.447-1.636 0-.562.111-1.018.332-1.368a2.35 2.35 0 0 1 .889-.83c.371-.201.78-.35 1.227-.448.452-.102.906-.184 1.362-.243.596-.077 1.08-.134 1.451-.173.375-.042.647-.113.818-.21.175-.099.262-.27.262-.512v-.051c0-.63-.173-1.12-.518-1.47-.341-.35-.859-.525-1.553-.525-.72 0-1.285.158-1.694.473-.409.316-.697.652-.863 1.01l-1.432-.51c.256-.598.597-1.062 1.023-1.394a3.83 3.83 0 0 1 1.406-.704 5.844 5.844 0 0 1 1.509-.204c.315 0 .677.038 1.086.115.414.073.812.224 1.196.454.387.23.709.577.965 1.042.256.464.383 1.086.383 1.866V60h-1.508v-1.33h-.077c-.102.213-.273.441-.511.684-.239.243-.556.45-.953.62-.396.17-.88.256-1.451.256Zm.231-1.355c.596 0 1.099-.117 1.508-.352a2.396 2.396 0 0 0 1.253-2.077v-1.38c-.064.076-.205.146-.422.21-.213.06-.46.113-.741.16a34 34 0 0 1-1.445.192 5.78 5.78 0 0 0-1.1.25 1.9 1.9 0 0 0-.818.504c-.204.222-.307.524-.307.908 0 .524.194.92.582 1.189.392.264.889.396 1.49.396Zm11.011 1.33c-.92 0-1.713-.218-2.377-.652-.665-.435-1.177-1.034-1.535-1.797-.357-.762-.536-1.634-.536-2.614 0-.997.183-1.877.549-2.64.371-.767.887-1.366 1.547-1.796.665-.435 1.44-.652 2.327-.652.69 0 1.312.128 1.866.383a3.577 3.577 0 0 1 1.362 1.074c.354.46.573.997.658 1.611h-1.508c-.115-.447-.371-.844-.767-1.189-.392-.35-.921-.524-1.586-.524-.588 0-1.103.154-1.546.46-.439.303-.782.731-1.03 1.285-.242.55-.364 1.195-.364 1.937 0 .758.119 1.419.358 1.981.243.563.584 1 1.023 1.31.443.312.963.467 1.559.467.392 0 .748-.068 1.068-.204.319-.137.59-.333.812-.588a2.27 2.27 0 0 0 .473-.92h1.508a3.488 3.488 0 0 1-.633 1.565 3.53 3.53 0 0 1-1.323 1.1c-.545.268-1.18.403-1.905.403Zm10.055 0c-.92 0-1.713-.218-2.378-.652-.665-.435-1.176-1.034-1.534-1.797-.358-.762-.537-1.634-.537-2.614 0-.997.183-1.877.55-2.64.371-.767.886-1.366 1.547-1.796.665-.435 1.44-.652 2.327-.652.69 0 1.312.128 1.866.383a3.577 3.577 0 0 1 1.362 1.074c.353.46.573.997.658 1.611h-1.509c-.115-.447-.37-.844-.767-1.189-.392-.35-.92-.524-1.585-.524-.588 0-1.104.154-1.547.46-.439.303-.782.731-1.029 1.285-.243.55-.364 1.195-.364 1.937 0 .758.119 1.419.358 1.981.243.563.584 1 1.022 1.31.444.312.964.467 1.56.467.392 0 .748-.068 1.068-.204a2.2 2.2 0 0 0 .811-.588 2.24 2.24 0 0 0 .473-.92h1.509a3.488 3.488 0 0 1-.633 1.565 3.53 3.53 0 0 1-1.323 1.1c-.546.268-1.18.403-1.905.403Zm10.055 0c-.887 0-1.664-.211-2.333-.633-.665-.422-1.185-1.012-1.56-1.77-.371-.76-.556-1.646-.556-2.66 0-1.023.185-1.915.556-2.678.375-.763.895-1.355 1.56-1.777.669-.422 1.446-.633 2.333-.633.886 0 1.662.21 2.326.633.67.422 1.189 1.014 1.56 1.777.375.763.563 1.655.563 2.678 0 1.014-.188 1.9-.563 2.66-.371.758-.89 1.348-1.56 1.77-.664.422-1.44.633-2.326.633Zm0-1.356c.673 0 1.227-.172 1.662-.517.434-.346.756-.8.965-1.362a5.208 5.208 0 0 0 .313-1.828c0-.656-.104-1.268-.313-1.835a3.099 3.099 0 0 0-.965-1.374c-.435-.35-.989-.524-1.662-.524-.674 0-1.227.175-1.662.524a3.09 3.09 0 0 0-.965 1.374 5.262 5.262 0 0 0-.314 1.835c0 .656.105 1.266.314 1.828.208.563.53 1.017.965 1.362.435.345.988.517 1.662.517Zm12.939-2.863v-5.804h1.508V60h-1.508v-1.662h-.102a3.227 3.227 0 0 1-1.074 1.272c-.486.345-1.1.518-1.841.518-.614 0-1.159-.134-1.637-.403-.477-.273-.852-.682-1.125-1.227-.272-.55-.409-1.242-.409-2.078v-6.238h1.509v6.136c0 .716.2 1.287.601 1.713.405.426.92.64 1.547.64.375 0 .756-.096 1.144-.288.392-.192.72-.486.984-.882.269-.397.403-.902.403-1.515Zm5.78-1.892V60h-1.509v-9.818h1.458v1.534h.128a2.8 2.8 0 0 1 1.048-1.202c.469-.307 1.074-.46 1.815-.46.665 0 1.247.136 1.745.41.499.267.887.677 1.164 1.226.277.546.415 1.236.415 2.071V60h-1.508v-6.136c0-.772-.201-1.372-.601-1.803-.401-.435-.951-.652-1.649-.652-.482 0-.912.105-1.292.313a2.238 2.238 0 0 0-.888.914c-.217.4-.326.887-.326 1.458Zm13.291-3.912v1.278h-5.089v-1.278h5.089Zm-3.606-2.352h1.509v9.358c0 .426.062.745.185.958.128.21.29.35.486.422.2.068.411.102.633.102.166 0 .302-.008.409-.025l.256-.051.307 1.355a3.085 3.085 0 0 1-.429.115 3.147 3.147 0 0 1-.696.064c-.427 0-.844-.092-1.253-.275a2.485 2.485 0 0 1-1.01-.837c-.264-.375-.397-.848-.397-1.42V47.83Zm15.565-1.535L232.85 61.97h-1.38l4.218-15.674h1.381Zm11.427.614V60h-1.585V48.571h-.076l-3.197 2.122v-1.61l3.273-2.174h1.585ZM252.261 60v-1.15l4.321-4.73c.507-.555.925-1.036 1.253-1.445.328-.414.571-.801.729-1.164.162-.366.243-.75.243-1.15 0-.46-.111-.859-.333-1.195a2.153 2.153 0 0 0-.894-.78 2.905 2.905 0 0 0-1.279-.275c-.503 0-.942.104-1.317.313-.37.205-.658.492-.863.863-.2.37-.3.805-.3 1.304h-1.509c0-.767.177-1.44.531-2.02a3.686 3.686 0 0 1 1.445-1.355c.613-.324 1.301-.486 2.064-.486.767 0 1.447.162 2.039.486a3.65 3.65 0 0 1 1.394 1.31 3.45 3.45 0 0 1 .505 1.835c0 .481-.088.952-.262 1.412-.171.456-.469.966-.895 1.528-.422.558-1.008 1.24-1.758 2.046l-2.94 3.145v.102h6.085V60h-8.259Zm15.322.179c-.844 0-1.596-.145-2.256-.435-.657-.29-1.179-.692-1.566-1.208a3.244 3.244 0 0 1-.627-1.809h1.611a1.9 1.9 0 0 0 .435 1.093 2.5 2.5 0 0 0 1.003.703c.414.167.872.25 1.375.25.562 0 1.061-.098 1.495-.294a2.454 2.454 0 0 0 1.023-.819c.247-.349.371-.754.371-1.214 0-.481-.12-.905-.358-1.272-.239-.37-.588-.66-1.049-.87-.46-.208-1.022-.313-1.687-.313h-1.048v-1.406h1.048c.52 0 .976-.093 1.368-.281.396-.188.705-.452.927-.793.226-.34.339-.741.339-1.201 0-.444-.099-.83-.295-1.157a2.014 2.014 0 0 0-.83-.767c-.354-.184-.772-.275-1.253-.275-.452 0-.878.083-1.279.25a2.37 2.37 0 0 0-.971.709 1.842 1.842 0 0 0-.409 1.112h-1.535c.026-.686.233-1.287.621-1.803.387-.52.894-.924 1.521-1.214a4.916 4.916 0 0 1 2.077-.435c.81 0 1.504.164 2.084.492a3.46 3.46 0 0 1 1.336 1.285c.311.533.467 1.108.467 1.726 0 .737-.194 1.366-.582 1.886-.384.52-.906.88-1.566 1.08v.102c.827.136 1.472.488 1.937 1.055.464.562.696 1.26.696 2.09 0 .712-.193 1.35-.581 1.918-.384.562-.908 1.005-1.573 1.33-.664.323-1.421.485-2.269.485Zm16.754-13.884-4.219 15.674h-1.381l4.219-15.674h1.381Zm10.839 13.91c-.886 0-1.664-.211-2.333-.633-.665-.422-1.185-1.012-1.56-1.77-.371-.76-.556-1.646-.556-2.66 0-1.023.185-1.915.556-2.678.375-.763.895-1.355 1.56-1.777.669-.422 1.447-.633 2.333-.633.886 0 1.662.21 2.327.633.669.422 1.189 1.014 1.559 1.777.375.763.563 1.655.563 2.678 0 1.014-.188 1.9-.563 2.66-.37.758-.89 1.348-1.559 1.77-.665.422-1.441.633-2.327.633Zm0-1.356c.673 0 1.227-.172 1.662-.517.435-.346.756-.8.965-1.362a5.208 5.208 0 0 0 .313-1.828c0-.656-.104-1.268-.313-1.835a3.091 3.091 0 0 0-.965-1.374c-.435-.35-.989-.524-1.662-.524-.673 0-1.227.175-1.662.524-.435.35-.756.808-.965 1.374a5.261 5.261 0 0 0-.313 1.835c0 .656.104 1.266.313 1.828.209.563.53 1.017.965 1.362.435.345.989.517 1.662.517ZM301.928 60v-9.818h1.457v1.483h.102c.179-.486.503-.88.972-1.183a2.86 2.86 0 0 1 1.585-.454c.111 0 .249.003.416.007.166.004.291.01.377.019v1.534a4.507 4.507 0 0 0-.352-.057 3.467 3.467 0 0 0-.569-.045c-.477 0-.903.1-1.278.3a2.262 2.262 0 0 0-.882.818 2.21 2.21 0 0 0-.32 1.183V60h-1.508Zm10.105.205c-.818 0-1.54-.207-2.167-.62-.626-.418-1.116-1.006-1.47-1.765-.353-.763-.53-1.664-.53-2.703 0-1.032.177-1.927.53-2.685.354-.759.846-1.345 1.477-1.758.631-.413 1.359-.62 2.186-.62.639 0 1.144.106 1.515.32.375.208.66.447.856.715.201.265.356.482.467.653h.128v-4.833h1.508V60h-1.457v-1.508h-.179a9.578 9.578 0 0 1-.473.677c-.205.269-.496.51-.876.722-.379.21-.884.314-1.515.314Zm.205-1.356c.605 0 1.116-.157 1.534-.473.418-.32.735-.76.952-1.323.218-.566.326-1.22.326-1.962 0-.733-.106-1.374-.319-1.924-.213-.554-.529-.985-.946-1.291-.418-.311-.933-.467-1.547-.467-.639 0-1.172.164-1.598.492-.422.324-.739.765-.952 1.323-.209.554-.314 1.177-.314 1.867 0 .699.107 1.334.32 1.905.217.566.537 1.018.959 1.355.426.332.954.498 1.585.498Zm11.384 1.356c-.946 0-1.762-.21-2.448-.627a4.205 4.205 0 0 1-1.579-1.764c-.366-.759-.55-1.64-.55-2.646s.184-1.892.55-2.66c.371-.77.887-1.372 1.547-1.802.665-.435 1.44-.652 2.327-.652.511 0 1.016.085 1.515.256.498.17.952.447 1.361.83.409.38.735.883.978 1.51.243.626.365 1.397.365 2.313v.64h-7.569v-1.305h6.034c0-.554-.11-1.048-.332-1.483a2.5 2.5 0 0 0-.933-1.029c-.401-.251-.874-.377-1.419-.377-.601 0-1.121.15-1.56.447a2.937 2.937 0 0 0-1.003 1.151c-.235.473-.352.98-.352 1.521v.87c0 .741.128 1.37.384 1.885.259.512.62.902 1.08 1.17.46.264.995.396 1.604.396.396 0 .754-.055 1.074-.166a2.29 2.29 0 0 0 .837-.511c.235-.23.416-.516.544-.857l1.457.41a3.228 3.228 0 0 1-.773 1.303c-.363.371-.81.66-1.343.87-.532.204-1.131.306-1.796.306Zm6.36-.205v-9.818h1.458v1.483h.102c.179-.486.503-.88.971-1.183a2.864 2.864 0 0 1 1.586-.454c.111 0 .249.003.415.007.166.004.292.01.377.019v1.534a4.45 4.45 0 0 0-.351-.057 3.467 3.467 0 0 0-.569-.045c-.477 0-.904.1-1.279.3-.37.196-.664.469-.882.818a2.21 2.21 0 0 0-.319 1.183V60h-1.509Zm16.388-13.705-4.219 15.674h-1.381l4.219-15.674h1.381Zm6.518 11.02v-1.304l5.753-9.102h.946v2.02h-.639l-4.347 6.878v.102h7.747v1.406h-9.46ZM359.05 60V46.909h1.509V60h-1.509Zm9.785.179c-.75 0-1.426-.15-2.027-.448a3.767 3.767 0 0 1-1.444-1.227 3.345 3.345 0 0 1-.595-1.777h1.534c.06.593.329 1.083.806 1.47.481.384 1.057.576 1.726.576.537 0 1.014-.126 1.432-.377.421-.252.752-.597.99-1.036.243-.443.365-.944.365-1.502 0-.571-.126-1.08-.378-1.528a2.77 2.77 0 0 0-1.022-1.067 2.89 2.89 0 0 0-1.49-.396 4.09 4.09 0 0 0-1.233.185c-.422.123-.769.283-1.042.48l-1.483-.18.793-6.443h6.801v1.406h-5.472l-.46 3.861h.077a3.4 3.4 0 0 1 1.009-.53 3.822 3.822 0 0 1 1.266-.211c.801 0 1.515.191 2.141.575.631.38 1.125.9 1.483 1.56.363.66.544 1.414.544 2.262 0 .836-.188 1.581-.563 2.238a4.114 4.114 0 0 1-1.534 1.547c-.652.375-1.393.562-2.224.562Zm11.207 0a4.9 4.9 0 0 1-1.611-.307c-.537-.196-1.027-.526-1.47-.99-.444-.47-.799-1.102-1.068-1.899-.268-.801-.403-1.807-.403-3.017 0-1.16.109-2.186.326-3.081.218-.9.533-1.656.946-2.27.414-.617.912-1.086 1.496-1.406.588-.32 1.251-.479 1.988-.479.733 0 1.385.147 1.956.441a3.73 3.73 0 0 1 1.406 1.215 4.23 4.23 0 0 1 .703 1.796h-1.559a2.89 2.89 0 0 0-.844-1.464c-.418-.388-.972-.582-1.662-.582-1.014 0-1.813.441-2.397 1.323-.579.883-.871 2.12-.876 3.714h.103a3.837 3.837 0 0 1 1.949-1.527 3.806 3.806 0 0 1 1.272-.211c.75 0 1.436.187 2.058.562.623.37 1.121.884 1.496 1.54.375.653.563 1.4.563 2.244 0 .81-.181 1.551-.544 2.225a4.137 4.137 0 0 1-1.527 1.598c-.652.392-1.419.584-2.301.575Zm0-1.406c.536 0 1.018-.135 1.444-.403a2.872 2.872 0 0 0 1.016-1.08c.252-.452.378-.955.378-1.509a3.02 3.02 0 0 0-.365-1.476 2.778 2.778 0 0 0-.99-1.068 2.622 2.622 0 0 0-1.432-.396c-.405 0-.782.08-1.132.243a2.92 2.92 0 0 0-.92.652c-.26.277-.465.594-.614.952a2.853 2.853 0 0 0-.224 1.119 3.029 3.029 0 0 0 1.375 2.55c.43.277.918.416 1.464.416Zm18.967 75.522-4.219 15.674h-1.381l4.219-15.674h1.381Zm6.85 17.387v-13.5h1.458v1.559h.179c.11-.17.264-.387.46-.652.2-.268.486-.507.856-.715.375-.213.882-.32 1.522-.32.826 0 1.555.207 2.186.62.63.413 1.123.999 1.476 1.758.354.758.531 1.653.531 2.684 0 1.04-.177 1.942-.531 2.704-.353.759-.843 1.347-1.47 1.765-.626.413-1.349.62-2.167.62-.63 0-1.135-.105-1.515-.314-.379-.213-.671-.454-.875-.722a9.311 9.311 0 0 1-.473-.678h-.128v5.191h-1.509Zm1.483-8.591c0 .741.109 1.396.326 1.962.217.563.535 1.004.953 1.323.417.316.929.473 1.534.473.63 0 1.157-.166 1.578-.498.427-.337.746-.789.959-1.355.218-.571.326-1.206.326-1.905 0-.69-.106-1.313-.319-1.867-.209-.558-.527-.999-.953-1.323-.422-.328-.952-.492-1.591-.492-.614 0-1.13.156-1.547.467-.418.307-.733.737-.946 1.291-.213.55-.32 1.191-.32 1.924Zm9.486 4.909v-9.818h1.457v1.483h.103c.179-.486.502-.88.971-1.183a2.865 2.865 0 0 1 1.585-.454c.111 0 .25.003.416.007.166.004.292.01.377.019v1.534a4.15 4.15 0 0 0-.352-.057 3.432 3.432 0 0 0-.568-.045c-.478 0-.904.1-1.279.3a2.264 2.264 0 0 0-.882.818 2.21 2.21 0 0 0-.32 1.183V148h-1.508Zm10.387.205c-.886 0-1.664-.211-2.333-.633-.665-.422-1.185-1.012-1.56-1.771-.37-.758-.556-1.645-.556-2.659 0-1.023.186-1.915.556-2.678.375-.763.895-1.355 1.56-1.777.669-.422 1.447-.633 2.333-.633.886 0 1.662.211 2.327.633.669.422 1.189 1.014 1.559 1.777.375.763.563 1.655.563 2.678 0 1.014-.188 1.901-.563 2.659-.37.759-.89 1.349-1.559 1.771-.665.422-1.441.633-2.327.633Zm0-1.356c.673 0 1.227-.172 1.662-.517.435-.345.756-.799.965-1.362a5.206 5.206 0 0 0 .313-1.828c0-.656-.104-1.268-.313-1.834a3.094 3.094 0 0 0-.965-1.375c-.435-.349-.989-.524-1.662-.524-.673 0-1.227.175-1.662.524-.435.35-.756.808-.965 1.375a5.256 5.256 0 0 0-.313 1.834c0 .656.104 1.266.313 1.828.209.563.53 1.017.965 1.362.435.345.989.517 1.662.517Zm10.459 1.356c-.818 0-1.54-.207-2.167-.62-.626-.418-1.116-1.006-1.47-1.765-.354-.762-.531-1.664-.531-2.704 0-1.031.177-1.926.531-2.684.354-.759.846-1.345 1.476-1.758.631-.413 1.36-.62 2.187-.62.639 0 1.144.107 1.514.32.375.208.661.447.857.715.2.265.356.482.467.652h.127v-4.832h1.509V148h-1.457v-1.509h-.179a9.992 9.992 0 0 1-.473.678c-.205.268-.497.509-.876.722-.379.209-.884.314-1.515.314Zm.205-1.356c.605 0 1.116-.157 1.534-.473.417-.319.735-.76.952-1.323.217-.566.326-1.221.326-1.962 0-.733-.106-1.374-.32-1.924-.213-.554-.528-.984-.946-1.291-.417-.311-.933-.467-1.546-.467-.64 0-1.172.164-1.598.492-.422.324-.74.765-.953 1.323-.209.554-.313 1.177-.313 1.867 0 .699.106 1.334.32 1.905.217.566.536 1.018.958 1.355.426.332.955.498 1.586.498Zm13.455-2.863v-5.804h1.508V148h-1.508v-1.662h-.102a3.23 3.23 0 0 1-1.074 1.272c-.486.345-1.1.518-1.841.518-.614 0-1.159-.134-1.637-.403-.477-.273-.852-.682-1.125-1.227-.272-.55-.409-1.242-.409-2.078v-6.238h1.509v6.136c0 .716.2 1.287.601 1.713.405.426.92.639 1.547.639.375 0 .756-.095 1.144-.287.392-.192.72-.486.984-.882.269-.397.403-.902.403-1.515Zm8.26 4.219c-.921 0-1.713-.218-2.378-.652-.665-.435-1.176-1.034-1.534-1.797-.358-.762-.537-1.634-.537-2.614 0-.997.183-1.877.55-2.64.371-.767.886-1.366 1.547-1.796.664-.435 1.44-.652 2.326-.652.691 0 1.313.128 1.867.384a3.56 3.56 0 0 1 1.361 1.073c.354.461.573.998.659 1.611h-1.509c-.115-.447-.371-.844-.767-1.189-.392-.349-.92-.524-1.585-.524-.588 0-1.104.153-1.547.46-.439.303-.782.731-1.029 1.285-.243.55-.364 1.195-.364 1.937 0 .758.119 1.419.358 1.981.242.563.583 1 1.022 1.311.443.311.963.466 1.56.466.392 0 .748-.068 1.067-.204.32-.136.591-.333.812-.588.222-.256.379-.563.473-.921h1.509a3.495 3.495 0 0 1-.633 1.566 3.535 3.535 0 0 1-1.323 1.1c-.546.268-1.181.403-1.905.403Zm10.336-10.023v1.278h-5.088v-1.278h5.088Zm-3.605-2.352h1.508v9.358c0 .426.062.745.186.958.127.209.289.35.485.422.201.068.412.102.633.102.166 0 .303-.008.409-.025l.256-.051.307 1.355a3.064 3.064 0 0 1-.428.115 3.138 3.138 0 0 1-.697.064c-.426 0-.844-.092-1.253-.275a2.488 2.488 0 0 1-1.01-.837c-.264-.375-.396-.848-.396-1.419v-9.767Zm15.564-1.535-4.218 15.674h-1.381l4.219-15.674h1.38Zm11.428.614V148h-1.585v-11.429h-.077l-3.196 2.122v-1.611l3.273-2.173h1.585ZM497.082 148v-1.151l4.321-4.73a30.68 30.68 0 0 0 1.253-1.444c.328-.414.571-.801.728-1.164.162-.366.243-.75.243-1.15 0-.46-.111-.859-.332-1.196a2.164 2.164 0 0 0-.895-.779 2.892 2.892 0 0 0-1.279-.275c-.502 0-.941.104-1.316.313a2.153 2.153 0 0 0-.863.863c-.201.371-.301.805-.301 1.304h-1.508c0-.767.177-1.44.53-2.02a3.69 3.69 0 0 1 1.445-1.355c.614-.324 1.302-.486 2.065-.486.767 0 1.446.162 2.039.486a3.663 3.663 0 0 1 1.393 1.31c.337.55.505 1.162.505 1.835 0 .481-.087.952-.262 1.412-.17.456-.469.966-.895 1.528-.422.558-1.008 1.24-1.758 2.046l-2.94 3.144v.103h6.085V148h-8.258Zm15.321.179c-.843 0-1.595-.145-2.256-.435-.656-.289-1.178-.692-1.566-1.208a3.244 3.244 0 0 1-.626-1.809h1.61a1.9 1.9 0 0 0 .435 1.093c.256.303.59.537 1.004.703.413.167.871.25 1.374.25.562 0 1.061-.098 1.496-.294a2.46 2.46 0 0 0 1.022-.818c.247-.35.371-.755.371-1.215 0-.482-.119-.906-.358-1.272-.239-.371-.588-.661-1.048-.869-.46-.209-1.023-.314-1.688-.314h-1.048v-1.406h1.048c.52 0 .976-.094 1.368-.281.397-.188.705-.452.927-.793.226-.341.339-.741.339-1.201 0-.444-.098-.829-.294-1.157a2.01 2.01 0 0 0-.831-.767c-.354-.184-.771-.275-1.253-.275a3.3 3.3 0 0 0-1.278.249 2.377 2.377 0 0 0-.972.71 1.845 1.845 0 0 0-.409 1.112h-1.534a3.114 3.114 0 0 1 .62-1.803c.388-.52.895-.924 1.521-1.214a4.914 4.914 0 0 1 2.078-.435c.809 0 1.504.164 2.083.492a3.46 3.46 0 0 1 1.336 1.285c.311.533.467 1.108.467 1.726 0 .737-.194 1.366-.582 1.886-.383.519-.905.88-1.566 1.08v.102c.827.136 1.472.488 1.937 1.055.464.562.697 1.259.697 2.09 0 .712-.194 1.351-.582 1.918-.383.562-.908 1.005-1.572 1.329-.665.324-1.422.486-2.27.486Zm16.754-13.884-4.219 15.674h-1.38l4.218-15.674h1.381Zm13.805 6.086-1.355.383a2.51 2.51 0 0 0-.377-.658 1.831 1.831 0 0 0-.665-.537c-.281-.141-.641-.211-1.08-.211-.601 0-1.102.138-1.502.415-.397.273-.595.62-.595 1.042 0 .375.137.672.409.889.273.217.699.398 1.279.543l1.457.358c.878.213 1.532.539 1.963.978.43.435.645.995.645 1.681 0 .563-.162 1.066-.486 1.509-.319.443-.767.792-1.342 1.048-.575.256-1.244.384-2.007.384-1.001 0-1.83-.218-2.487-.652-.656-.435-1.071-1.07-1.246-1.905l1.432-.358c.136.528.394.924.773 1.189.384.264.884.396 1.502.396.703 0 1.262-.149 1.675-.447.418-.303.626-.665.626-1.087 0-.341-.119-.627-.357-.857-.239-.234-.606-.409-1.1-.524l-1.636-.383c-.899-.213-1.56-.544-1.982-.991-.417-.452-.626-1.016-.626-1.694 0-.554.155-1.044.466-1.47.316-.426.744-.761 1.285-1.004.546-.243 1.164-.364 1.854-.364.971 0 1.734.213 2.288.639.558.426.955.989 1.189 1.688Zm6.72-2.199v1.278h-5.088v-1.278h5.088Zm-3.605-2.352h1.508v9.358c0 .426.062.745.186.958.127.209.289.35.485.422.201.068.412.102.633.102.166 0 .303-.008.409-.025l.256-.051.307 1.355a3.064 3.064 0 0 1-.428.115 3.138 3.138 0 0 1-.697.064c-.426 0-.844-.092-1.253-.275a2.482 2.482 0 0 1-1.01-.837c-.264-.375-.396-.848-.396-1.419v-9.767Zm9.757 12.375c-.886 0-1.664-.211-2.333-.633-.665-.422-1.185-1.012-1.56-1.771-.37-.758-.556-1.645-.556-2.659 0-1.023.186-1.915.556-2.678.375-.763.895-1.355 1.56-1.777.669-.422 1.447-.633 2.333-.633.887 0 1.662.211 2.327.633.669.422 1.189 1.014 1.56 1.777.375.763.562 1.655.562 2.678 0 1.014-.187 1.901-.562 2.659-.371.759-.891 1.349-1.56 1.771-.665.422-1.44.633-2.327.633Zm0-1.356c.673 0 1.227-.172 1.662-.517.435-.345.756-.799.965-1.362a5.207 5.207 0 0 0 .314-1.828c0-.656-.105-1.268-.314-1.834a3.094 3.094 0 0 0-.965-1.375c-.435-.349-.989-.524-1.662-.524-.673 0-1.227.175-1.662.524-.434.35-.756.808-.965 1.375a5.256 5.256 0 0 0-.313 1.834c0 .656.104 1.266.313 1.828.209.563.531 1.017.965 1.362.435.345.989.517 1.662.517Zm10.74 1.356c-.92 0-1.713-.218-2.377-.652-.665-.435-1.177-1.034-1.535-1.797-.357-.762-.536-1.634-.536-2.614 0-.997.183-1.877.549-2.64.371-.767.887-1.366 1.547-1.796.665-.435 1.44-.652 2.327-.652.69 0 1.312.128 1.866.384a3.572 3.572 0 0 1 1.362 1.073c.354.461.573.998.658 1.611h-1.508c-.115-.447-.371-.844-.767-1.189-.392-.349-.921-.524-1.586-.524-.588 0-1.103.153-1.546.46-.439.303-.782.731-1.03 1.285-.242.55-.364 1.195-.364 1.937 0 .758.119 1.419.358 1.981.243.563.584 1 1.023 1.311.443.311.963.466 1.559.466.392 0 .748-.068 1.068-.204.319-.136.59-.333.812-.588.221-.256.379-.563.473-.921h1.508a3.484 3.484 0 0 1-1.956 2.666c-.545.268-1.18.403-1.905.403Zm7.473-3.785-.026-1.866h.307l4.295-4.372h1.867l-4.577 4.628h-.128l-1.738 1.61ZM572.64 148v-13.091h1.509V148h-1.509Zm6.239 0-3.835-4.858 1.074-1.048 4.679 5.906h-1.918Zm207.902 632.253v-1.381h7.875v1.381h-7.875Zm0 3.784v-1.381h7.875v1.381h-7.875Zm18.283.281v-.077c.008-.813.094-1.461.255-1.943.162-.481.393-.871.691-1.169a5.513 5.513 0 0 1 1.074-.825 3.37 3.37 0 0 0 .677-.543 2.4 2.4 0 0 0 .473-.735c.12-.277.179-.584.179-.921 0-.418-.098-.78-.294-1.087a1.978 1.978 0 0 0-.786-.709 2.388 2.388 0 0 0-1.093-.249c-.35 0-.686.072-1.01.217a1.96 1.96 0 0 0-.812.684c-.217.311-.343.718-.377 1.221h-1.611c.034-.725.222-1.345.563-1.86.345-.516.799-.91 1.361-1.183a4.291 4.291 0 0 1 1.886-.409c.75 0 1.402.149 1.956.448.558.298.989.707 1.291 1.227.307.52.46 1.112.46 1.777 0 .469-.072.893-.217 1.272a3.13 3.13 0 0 1-.614 1.016 4.206 4.206 0 0 1-.958.793 3.967 3.967 0 0 0-.902.741c-.226.256-.39.561-.492.914-.102.354-.158.795-.166 1.323v.077h-1.534Zm.818 3.784c-.315 0-.586-.113-.812-.339a1.104 1.104 0 0 1-.339-.811c0-.316.113-.586.339-.812.226-.226.497-.339.812-.339.315 0 .586.113.812.339.226.226.339.496.339.812 0 .209-.054.4-.16.575a1.2 1.2 0 0 1-.416.422c-.17.102-.362.153-.575.153Z" fill="#7D88A1"/><path d="M186 321v309.159a6.841 6.841 0 0 0 6.841 6.841H302.5M617 321v230.159a6.841 6.841 0 0 0 6.841 6.841H734" stroke="#7D88A1" stroke-width="3"/><path d="M186 558h84" stroke="#7D88A1" stroke-width="3.42"/><path d="M186 479h53m378 0h53m-484-79h27m404 0h27" stroke="#7D88A1" stroke-width="3"/><g filter="url(#a)"><path d="M213 382c0-5.523 4.477-10 10-10h181c5.523 0 10 4.477 10 10v35c0 5.523-4.477 10-10 10H223c-5.523 0-10-4.477-10-10v-35Z" fill="#fff"/><path d="m281.538 392.909 3.887 11.02h.153l3.886-11.02h1.662L286.319 406h-1.636l-4.807-13.091h1.662Zm13.398 13.321a3.996 3.996 0 0 1-1.694-.351 2.906 2.906 0 0 1-1.208-1.03c-.298-.451-.448-.997-.448-1.636 0-.562.111-1.018.333-1.368.221-.354.518-.631.888-.831.371-.2.78-.349 1.228-.447.451-.103.905-.183 1.361-.243.597-.077 1.08-.134 1.451-.173.375-.042.648-.113.818-.211.175-.098.262-.268.262-.511v-.051c0-.631-.172-1.121-.517-1.47-.341-.35-.859-.524-1.554-.524-.72 0-1.284.157-1.694.473-.409.315-.696.652-.862 1.009l-1.432-.511c.255-.596.596-1.061 1.022-1.393.431-.337.9-.571 1.407-.703a5.808 5.808 0 0 1 1.508-.205c.316 0 .678.038 1.087.115.413.072.812.224 1.195.454.388.23.71.577.965 1.042.256.464.384 1.086.384 1.866V406h-1.509v-1.33h-.076a2.638 2.638 0 0 1-.512.684c-.238.243-.556.45-.952.62-.396.171-.88.256-1.451.256Zm.23-1.355c.597 0 1.099-.117 1.509-.352a2.39 2.39 0 0 0 1.252-2.077v-1.381c-.064.077-.204.147-.421.211-.214.06-.461.113-.742.16a31.625 31.625 0 0 1-1.445.192 5.755 5.755 0 0 0-1.099.249 1.894 1.894 0 0 0-.818.505c-.205.222-.307.524-.307.908 0 .524.194.92.582 1.189.392.264.888.396 1.489.396Zm8.532-11.966V406h-1.509v-13.091h1.509ZM306.461 406v-9.818h1.508V406h-1.508Zm.767-11.455c-.294 0-.548-.1-.761-.3a.964.964 0 0 1-.313-.722c0-.282.104-.522.313-.723.213-.2.467-.3.761-.3s.545.1.754.3c.213.201.32.441.32.723a.956.956 0 0 1-.32.722c-.209.2-.46.3-.754.3Zm7.212 11.66c-.819 0-1.541-.207-2.167-.62-.627-.418-1.117-1.006-1.47-1.765-.354-.762-.531-1.664-.531-2.704 0-1.031.177-1.926.531-2.684.353-.759.845-1.345 1.476-1.758.631-.413 1.359-.62 2.186-.62.639 0 1.144.107 1.515.32.375.208.661.447.857.715.2.265.355.482.466.652h.128v-4.832h1.509V406h-1.458v-1.509h-.179a9.64 9.64 0 0 1-.473.678c-.204.268-.496.509-.875.722-.38.209-.885.314-1.515.314Zm.204-1.356c.605 0 1.117-.157 1.534-.473.418-.319.735-.76.953-1.323.217-.566.326-1.221.326-1.962 0-.733-.107-1.374-.32-1.924-.213-.554-.528-.984-.946-1.291-.418-.311-.933-.467-1.547-.467-.639 0-1.172.164-1.598.492-.422.324-.739.765-.952 1.323-.209.554-.313 1.177-.313 1.867 0 .699.106 1.334.319 1.905.217.566.537 1.018.959 1.355.426.332.954.498 1.585.498Zm10.157 1.381a3.996 3.996 0 0 1-1.694-.351 2.906 2.906 0 0 1-1.208-1.03c-.298-.451-.447-.997-.447-1.636 0-.562.111-1.018.332-1.368.222-.354.518-.631.889-.831.37-.2.779-.349 1.227-.447.452-.103.905-.183 1.361-.243a64.64 64.64 0 0 1 1.451-.173c.375-.042.648-.113.819-.211.174-.098.262-.268.262-.511v-.051c0-.631-.173-1.121-.518-1.47-.341-.35-.859-.524-1.553-.524-.721 0-1.285.157-1.694.473-.409.315-.697.652-.863 1.009l-1.432-.511c.256-.596.597-1.061 1.023-1.393.43-.337.899-.571 1.406-.703a5.808 5.808 0 0 1 1.508-.205c.316 0 .678.038 1.087.115.413.072.812.224 1.195.454.388.23.71.577.966 1.042.255.464.383 1.086.383 1.866V406h-1.508v-1.33h-.077c-.102.214-.273.442-.511.684-.239.243-.557.45-.953.62-.396.171-.88.256-1.451.256Zm.23-1.355c.597 0 1.1-.117 1.509-.352a2.39 2.39 0 0 0 1.253-2.077v-1.381c-.064.077-.205.147-.422.211-.213.06-.46.113-.742.16-.277.043-.547.081-.812.115-.259.03-.47.056-.632.077a5.765 5.765 0 0 0-1.1.249 1.9 1.9 0 0 0-.818.505c-.204.222-.307.524-.307.908 0 .524.194.92.582 1.189.392.264.888.396 1.489.396Zm11.293-8.693v1.278h-5.088v-1.278h5.088Zm-3.605-2.352h1.509v9.358c0 .426.062.745.185.958.128.209.29.35.486.422.2.068.411.102.633.102.166 0 .302-.008.409-.025l.256-.051.306 1.355a3.064 3.064 0 0 1-.428.115 3.126 3.126 0 0 1-.697.064c-.426 0-.843-.092-1.252-.275a2.482 2.482 0 0 1-1.01-.837c-.265-.375-.397-.848-.397-1.419v-9.767Zm9.886 12.375c-.946 0-1.762-.209-2.449-.627a4.205 4.205 0 0 1-1.578-1.764c-.367-.759-.55-1.641-.55-2.646 0-1.006.183-1.892.55-2.659.37-.772.886-1.373 1.546-1.803.665-.435 1.441-.652 2.327-.652.512 0 1.017.085 1.515.256.499.17.953.447 1.362.831.409.379.735.882.978 1.508.242.627.364 1.398.364 2.314v.639h-7.568v-1.304h6.034c0-.554-.111-1.048-.333-1.483a2.508 2.508 0 0 0-.933-1.029c-.4-.251-.873-.377-1.419-.377-.601 0-1.121.149-1.559.448-.435.294-.77.677-1.004 1.15-.234.473-.352.98-.352 1.521v.87c0 .741.128 1.37.384 1.885.26.512.62.902 1.08 1.17.46.264.995.396 1.605.396.396 0 .754-.055 1.073-.166.324-.115.603-.285.838-.511a2.33 2.33 0 0 0 .543-.857l1.458.409a3.237 3.237 0 0 1-.774 1.304c-.362.371-.81.661-1.342.87a4.993 4.993 0 0 1-1.796.307Z" fill="#7D88A1"/></g><g filter="url(#b)"><path d="M656 152c0-5.523 4.477-10 10-10h111c5.523 0 10 4.477 10 10v35c0 5.523-4.477 10-10 10H666c-5.523 0-10-4.477-10-10v-35Z" fill="#fff"/><path d="M705.995 166.182a2.003 2.003 0 0 0-.933-1.509c-.545-.358-1.214-.537-2.007-.537-.58 0-1.087.094-1.521.282-.431.187-.767.445-1.01.773a1.852 1.852 0 0 0-.358 1.119c0 .349.083.65.249.901.17.247.388.454.652.62.264.162.541.296.831.403.29.102.556.185.799.249l1.33.358c.34.089.72.213 1.137.371a5.24 5.24 0 0 1 1.208.645c.388.269.708.614.959 1.036.252.422.377.939.377 1.553 0 .707-.185 1.347-.556 1.918-.366.571-.903 1.024-1.611 1.361-.703.337-1.557.505-2.563.505-.937 0-1.749-.151-2.435-.454-.682-.302-1.219-.724-1.611-1.265-.388-.542-.607-1.17-.658-1.886h1.636c.043.494.209.903.499 1.227.294.32.664.559 1.112.716.452.154.937.23 1.457.23.605 0 1.149-.098 1.63-.294.482-.2.863-.477 1.144-.831.282-.358.422-.775.422-1.253 0-.434-.121-.788-.364-1.061a2.68 2.68 0 0 0-.959-.664 9.961 9.961 0 0 0-1.285-.448l-1.61-.46c-1.023-.294-1.833-.714-2.429-1.259-.597-.546-.895-1.26-.895-2.142 0-.733.198-1.372.594-1.917.401-.55.938-.976 1.611-1.279.677-.306 1.434-.46 2.269-.46.844 0 1.594.151 2.25.454.656.298 1.176.707 1.56 1.227.388.52.592 1.11.613 1.771h-1.534Zm8.385 0v1.278h-5.088v-1.278h5.088Zm-3.605-2.352h1.508v9.358c0 .426.062.745.186.958.128.209.29.35.486.422.2.068.411.102.632.102a2.7 2.7 0 0 0 .41-.025l.255-.051.307 1.355a3.064 3.064 0 0 1-.428.115 3.132 3.132 0 0 1-.697.064c-.426 0-.844-.092-1.253-.275a2.488 2.488 0 0 1-1.01-.837c-.264-.375-.396-.848-.396-1.419v-9.767Zm9.757 12.375c-.886 0-1.664-.211-2.333-.633-.664-.422-1.184-1.012-1.559-1.771-.371-.758-.556-1.645-.556-2.659 0-1.023.185-1.915.556-2.678.375-.763.895-1.355 1.559-1.777.669-.422 1.447-.633 2.333-.633.887 0 1.662.211 2.327.633.669.422 1.189 1.014 1.56 1.777.375.763.562 1.655.562 2.678 0 1.014-.187 1.901-.562 2.659-.371.759-.891 1.349-1.56 1.771-.665.422-1.44.633-2.327.633Zm0-1.356c.674 0 1.228-.172 1.662-.517a3.05 3.05 0 0 0 .966-1.362 5.23 5.23 0 0 0 .313-1.828 5.28 5.28 0 0 0-.313-1.834 3.096 3.096 0 0 0-.966-1.375c-.434-.349-.988-.524-1.662-.524-.673 0-1.227.175-1.662.524-.434.35-.756.808-.965 1.375a5.256 5.256 0 0 0-.313 1.834c0 .656.104 1.266.313 1.828.209.563.531 1.017.965 1.362.435.345.989.517 1.662.517Zm10.741 1.356c-.921 0-1.713-.218-2.378-.652-.665-.435-1.176-1.034-1.534-1.797-.358-.762-.537-1.634-.537-2.614 0-.997.183-1.877.549-2.64.371-.767.887-1.366 1.547-1.796.665-.435 1.441-.652 2.327-.652.69 0 1.313.128 1.867.384a3.568 3.568 0 0 1 1.361 1.073c.354.461.573.998.658 1.611h-1.508c-.115-.447-.371-.844-.767-1.189-.392-.349-.921-.524-1.585-.524-.588 0-1.104.153-1.547.46-.439.303-.782.731-1.029 1.285-.243.55-.365 1.195-.365 1.937 0 .758.12 1.419.358 1.981.243.563.584 1 1.023 1.311.443.311.963.466 1.56.466.392 0 .748-.068 1.067-.204.32-.136.59-.333.812-.588.221-.256.379-.563.473-.921h1.508a3.494 3.494 0 0 1-.632 1.566 3.538 3.538 0 0 1-1.324 1.1c-.545.268-1.18.403-1.904.403Zm7.472-3.785-.026-1.866h.307l4.296-4.372h1.866l-4.577 4.628h-.127l-1.739 1.61Zm-1.406 3.58v-13.091h1.508V176h-1.508Zm6.238 0-3.835-4.858 1.074-1.048 4.679 5.906h-1.918Z" fill="#7D88A1"/></g><g filter="url(#c)"><path d="M646 382c0-5.523 4.477-10 10-10h181c5.523 0 10 4.477 10 10v35c0 5.523-4.477 10-10 10H656c-5.523 0-10-4.477-10-10v-35Z" fill="#fff"/><path d="m714.538 392.909 3.887 11.02h.153l3.886-11.02h1.662L719.319 406h-1.636l-4.807-13.091h1.662Zm13.398 13.321a3.996 3.996 0 0 1-1.694-.351 2.906 2.906 0 0 1-1.208-1.03c-.298-.451-.448-.997-.448-1.636 0-.562.111-1.018.333-1.368.221-.354.518-.631.888-.831.371-.2.78-.349 1.228-.447.451-.103.905-.183 1.361-.243.597-.077 1.08-.134 1.451-.173.375-.042.648-.113.818-.211.175-.098.262-.268.262-.511v-.051c0-.631-.172-1.121-.517-1.47-.341-.35-.859-.524-1.554-.524-.72 0-1.284.157-1.694.473-.409.315-.696.652-.862 1.009l-1.432-.511c.255-.596.596-1.061 1.022-1.393.431-.337.9-.571 1.407-.703a5.808 5.808 0 0 1 1.508-.205c.316 0 .678.038 1.087.115.413.072.812.224 1.195.454.388.23.71.577.965 1.042.256.464.384 1.086.384 1.866V406h-1.509v-1.33h-.076a2.638 2.638 0 0 1-.512.684c-.238.243-.556.45-.952.62-.396.171-.88.256-1.451.256Zm.23-1.355c.597 0 1.099-.117 1.509-.352a2.39 2.39 0 0 0 1.252-2.077v-1.381c-.064.077-.204.147-.421.211-.214.06-.461.113-.742.16a31.625 31.625 0 0 1-1.445.192 5.755 5.755 0 0 0-1.099.249 1.894 1.894 0 0 0-.818.505c-.205.222-.307.524-.307.908 0 .524.194.92.582 1.189.392.264.888.396 1.489.396Zm8.532-11.966V406h-1.509v-13.091h1.509ZM739.461 406v-9.818h1.508V406h-1.508Zm.767-11.455c-.294 0-.548-.1-.761-.3a.964.964 0 0 1-.313-.722c0-.282.104-.522.313-.723.213-.2.467-.3.761-.3s.545.1.754.3c.213.201.32.441.32.723a.956.956 0 0 1-.32.722c-.209.2-.46.3-.754.3Zm7.212 11.66c-.819 0-1.541-.207-2.167-.62-.627-.418-1.117-1.006-1.47-1.765-.354-.762-.531-1.664-.531-2.704 0-1.031.177-1.926.531-2.684.353-.759.845-1.345 1.476-1.758.631-.413 1.359-.62 2.186-.62.639 0 1.144.107 1.515.32.375.208.661.447.857.715.2.265.355.482.466.652h.128v-4.832h1.509V406h-1.458v-1.509h-.179a9.64 9.64 0 0 1-.473.678c-.204.268-.496.509-.875.722-.38.209-.885.314-1.515.314Zm.204-1.356c.605 0 1.117-.157 1.534-.473.418-.319.735-.76.953-1.323.217-.566.326-1.221.326-1.962 0-.733-.107-1.374-.32-1.924-.213-.554-.528-.984-.946-1.291-.418-.311-.933-.467-1.547-.467-.639 0-1.172.164-1.598.492-.422.324-.739.765-.952 1.323-.209.554-.313 1.177-.313 1.867 0 .699.106 1.334.319 1.905.217.566.537 1.018.959 1.355.426.332.954.498 1.585.498Zm10.157 1.381a3.996 3.996 0 0 1-1.694-.351 2.906 2.906 0 0 1-1.208-1.03c-.298-.451-.447-.997-.447-1.636 0-.562.111-1.018.332-1.368.222-.354.518-.631.889-.831.37-.2.779-.349 1.227-.447.452-.103.905-.183 1.361-.243a64.64 64.64 0 0 1 1.451-.173c.375-.042.648-.113.819-.211.174-.098.262-.268.262-.511v-.051c0-.631-.173-1.121-.518-1.47-.341-.35-.859-.524-1.553-.524-.721 0-1.285.157-1.694.473-.409.315-.697.652-.863 1.009l-1.432-.511c.256-.596.597-1.061 1.023-1.393.43-.337.899-.571 1.406-.703a5.808 5.808 0 0 1 1.508-.205c.316 0 .678.038 1.087.115.413.072.812.224 1.195.454.388.23.71.577.966 1.042.255.464.383 1.086.383 1.866V406h-1.508v-1.33h-.077c-.102.214-.273.442-.511.684-.239.243-.557.45-.953.62-.396.171-.88.256-1.451.256Zm.23-1.355c.597 0 1.1-.117 1.509-.352a2.39 2.39 0 0 0 1.253-2.077v-1.381c-.064.077-.205.147-.422.211-.213.06-.46.113-.742.16-.277.043-.547.081-.812.115-.259.03-.47.056-.632.077a5.765 5.765 0 0 0-1.1.249 1.9 1.9 0 0 0-.818.505c-.204.222-.307.524-.307.908 0 .524.194.92.582 1.189.392.264.888.396 1.489.396Zm11.293-8.693v1.278h-5.088v-1.278h5.088Zm-3.605-2.352h1.509v9.358c0 .426.062.745.185.958.128.209.29.35.486.422.2.068.411.102.633.102.166 0 .302-.008.409-.025l.256-.051.306 1.355a3.064 3.064 0 0 1-.428.115 3.126 3.126 0 0 1-.697.064c-.426 0-.843-.092-1.252-.275a2.482 2.482 0 0 1-1.01-.837c-.265-.375-.397-.848-.397-1.419v-9.767Zm9.886 12.375c-.946 0-1.762-.209-2.449-.627a4.205 4.205 0 0 1-1.578-1.764c-.367-.759-.55-1.641-.55-2.646 0-1.006.183-1.892.55-2.659.37-.772.886-1.373 1.546-1.803.665-.435 1.441-.652 2.327-.652.512 0 1.017.085 1.515.256.499.17.953.447 1.362.831.409.379.735.882.978 1.508.242.627.364 1.398.364 2.314v.639h-7.568v-1.304h6.034c0-.554-.111-1.048-.333-1.483a2.508 2.508 0 0 0-.933-1.029c-.4-.251-.873-.377-1.419-.377-.601 0-1.121.149-1.559.448-.435.294-.77.677-1.004 1.15-.234.473-.352.98-.352 1.521v.87c0 .741.128 1.37.384 1.885.26.512.62.902 1.08 1.17.46.264.995.396 1.605.396.396 0 .754-.055 1.073-.166.324-.115.603-.285.838-.511a2.33 2.33 0 0 0 .543-.857l1.458.409a3.237 3.237 0 0 1-.774 1.304c-.362.371-.81.661-1.342.87a4.993 4.993 0 0 1-1.796.307Z" fill="#7D88A1"/></g><g filter="url(#d)"><path d="M239 461c0-5.523 4.477-10 10-10h133c5.523 0 10 4.477 10 10v35c0 5.523-4.477 10-10 10H249c-5.523 0-10-4.477-10-10v-35Z" fill="#fff"/><path d="M280.643 485h-4.04v-13.091h4.219c1.269 0 2.356.262 3.259.786.904.52 1.596 1.268 2.078 2.244.481.972.722 2.135.722 3.49 0 1.364-.243 2.538-.728 3.522a5.2 5.2 0 0 1-2.123 2.263c-.929.524-2.058.786-3.387.786Zm-2.455-1.406h2.352c1.083 0 1.98-.209 2.691-.627a3.855 3.855 0 0 0 1.592-1.783c.349-.771.524-1.69.524-2.755 0-1.057-.172-1.967-.518-2.729-.345-.767-.86-1.356-1.547-1.765-.686-.413-1.54-.62-2.563-.62h-2.531v10.279Zm14.037 1.636a3.996 3.996 0 0 1-1.694-.351 2.906 2.906 0 0 1-1.208-1.03c-.298-.451-.447-.997-.447-1.636 0-.562.11-1.018.332-1.368.222-.354.518-.631.888-.831.371-.2.78-.349 1.228-.447.451-.103.905-.183 1.361-.243.597-.077 1.08-.134 1.451-.173.375-.042.648-.113.818-.211.175-.098.262-.268.262-.511v-.051c0-.631-.172-1.121-.517-1.47-.341-.35-.859-.524-1.554-.524-.72 0-1.284.157-1.693.473-.41.315-.697.652-.863 1.009l-1.432-.511c.255-.596.596-1.061 1.023-1.393.43-.337.899-.571 1.406-.703a5.808 5.808 0 0 1 1.508-.205c.316 0 .678.038 1.087.115.413.072.812.224 1.195.454.388.23.71.577.965 1.042.256.464.384 1.086.384 1.866V485h-1.509v-1.33h-.076a2.638 2.638 0 0 1-.512.684c-.238.243-.556.45-.952.62-.396.171-.88.256-1.451.256Zm.23-1.355c.597 0 1.1-.117 1.509-.352a2.39 2.39 0 0 0 1.252-2.077v-1.381c-.063.077-.204.147-.421.211-.214.06-.461.113-.742.16a31.012 31.012 0 0 1-1.445.192 5.755 5.755 0 0 0-1.099.249 1.894 1.894 0 0 0-.818.505c-.205.222-.307.524-.307.908 0 .524.194.92.582 1.189.392.264.888.396 1.489.396Zm11.293-8.693v1.278h-5.088v-1.278h5.088Zm-3.605-2.352h1.509v9.358c0 .426.061.745.185.958.128.209.29.35.486.422.2.068.411.102.633.102.166 0 .302-.008.409-.025l.255-.051.307 1.355a3.064 3.064 0 0 1-.428.115 3.132 3.132 0 0 1-.697.064c-.426 0-.844-.092-1.253-.275a2.495 2.495 0 0 1-1.01-.837c-.264-.375-.396-.848-.396-1.419v-9.767Zm8.764 12.4a3.993 3.993 0 0 1-1.694-.351 2.906 2.906 0 0 1-1.208-1.03c-.299-.451-.448-.997-.448-1.636 0-.562.111-1.018.333-1.368.221-.354.517-.631.888-.831.371-.2.78-.349 1.227-.447.452-.103.906-.183 1.362-.243.596-.077 1.08-.134 1.451-.173.375-.042.648-.113.818-.211.175-.098.262-.268.262-.511v-.051c0-.631-.173-1.121-.518-1.47-.341-.35-.858-.524-1.553-.524-.72 0-1.285.157-1.694.473-.409.315-.697.652-.863 1.009l-1.432-.511c.256-.596.597-1.061 1.023-1.393a3.83 3.83 0 0 1 1.406-.703 5.821 5.821 0 0 1 1.509-.205c.315 0 .677.038 1.087.115.413.072.811.224 1.195.454.388.23.709.577.965 1.042.256.464.384 1.086.384 1.866V485h-1.509v-1.33h-.077a2.609 2.609 0 0 1-.511.684c-.239.243-.556.45-.952.62-.397.171-.88.256-1.451.256Zm.23-1.355c.596 0 1.099-.117 1.508-.352.414-.234.725-.536.933-.907.214-.371.32-.761.32-1.17v-1.381c-.064.077-.204.147-.422.211-.213.06-.46.113-.741.16a31.625 31.625 0 0 1-1.445.192 5.755 5.755 0 0 0-1.099.249c-.337.111-.61.279-.818.505-.205.222-.307.524-.307.908 0 .524.194.92.581 1.189.392.264.889.396 1.49.396Zm7.228 1.125v-13.091h1.508v4.832h.128c.111-.17.264-.387.46-.652.2-.268.486-.507.857-.715.375-.213.882-.32 1.521-.32.827 0 1.555.207 2.186.62.631.413 1.123.999 1.477 1.758.353.758.53 1.653.53 2.684 0 1.04-.177 1.942-.53 2.704-.354.759-.844 1.347-1.471 1.765-.626.413-1.348.62-2.166.62-.631 0-1.136-.105-1.515-.314-.38-.213-.672-.454-.876-.722a9.64 9.64 0 0 1-.473-.678h-.179V485h-1.457Zm1.482-4.909c0 .741.109 1.396.326 1.962.218.563.535 1.004.953 1.323.418.316.929.473 1.534.473.631 0 1.157-.166 1.579-.498.426-.337.746-.789.959-1.355a5.325 5.325 0 0 0 .326-1.905c0-.69-.107-1.313-.32-1.867-.209-.558-.526-.999-.952-1.323-.422-.328-.953-.492-1.592-.492-.614 0-1.129.156-1.547.467-.418.307-.733.737-.946 1.291-.213.55-.32 1.191-.32 1.924Zm12.382 5.139a3.996 3.996 0 0 1-1.694-.351 2.906 2.906 0 0 1-1.208-1.03c-.298-.451-.448-.997-.448-1.636 0-.562.111-1.018.333-1.368.221-.354.518-.631.888-.831.371-.2.78-.349 1.228-.447.451-.103.905-.183 1.361-.243.597-.077 1.08-.134 1.451-.173.375-.042.648-.113.818-.211.175-.098.262-.268.262-.511v-.051c0-.631-.172-1.121-.517-1.47-.341-.35-.859-.524-1.554-.524-.72 0-1.284.157-1.694.473-.409.315-.696.652-.862 1.009l-1.432-.511c.255-.596.596-1.061 1.022-1.393.431-.337.9-.571 1.407-.703a5.808 5.808 0 0 1 1.508-.205c.316 0 .678.038 1.087.115.413.072.812.224 1.195.454.388.23.71.577.965 1.042.256.464.384 1.086.384 1.866V485h-1.509v-1.33h-.076a2.638 2.638 0 0 1-.512.684c-.238.243-.556.45-.952.62-.396.171-.88.256-1.451.256Zm.23-1.355c.597 0 1.099-.117 1.509-.352a2.39 2.39 0 0 0 1.252-2.077v-1.381c-.064.077-.204.147-.422.211-.213.06-.46.113-.741.16a31.625 31.625 0 0 1-1.445.192 5.755 5.755 0 0 0-1.099.249 1.894 1.894 0 0 0-.818.505c-.205.222-.307.524-.307.908 0 .524.194.92.582 1.189.392.264.888.396 1.489.396Zm13.978-6.494-1.355.383a2.539 2.539 0 0 0-.377-.658 1.831 1.831 0 0 0-.665-.537c-.281-.141-.642-.211-1.08-.211-.601 0-1.102.138-1.503.415-.396.273-.594.62-.594 1.042 0 .375.136.672.409.889.273.217.699.398 1.278.543l1.458.358c.878.213 1.532.539 1.962.978.431.435.646.995.646 1.681 0 .563-.162 1.066-.486 1.509-.32.443-.767.792-1.342 1.048-.576.256-1.245.384-2.007.384-1.002 0-1.831-.218-2.487-.652-.656-.435-1.072-1.07-1.246-1.905l1.431-.358c.137.528.395.924.774 1.189.383.264.884.396 1.502.396.703 0 1.261-.149 1.675-.447.417-.303.626-.665.626-1.087 0-.341-.119-.627-.358-.857-.238-.234-.605-.409-1.099-.524l-1.637-.383c-.899-.213-1.559-.544-1.981-.991-.418-.452-.627-1.016-.627-1.694 0-.554.156-1.044.467-1.47.315-.426.744-.761 1.285-1.004.545-.243 1.163-.364 1.854-.364.971 0 1.734.213 2.288.639.558.426.954.989 1.189 1.688Zm6.566 7.824c-.946 0-1.762-.209-2.448-.627a4.207 4.207 0 0 1-1.579-1.764c-.366-.759-.55-1.641-.55-2.646 0-1.006.184-1.892.55-2.659.371-.772.886-1.373 1.547-1.803.665-.435 1.44-.652 2.327-.652.511 0 1.016.085 1.515.256.498.17.952.447 1.361.831.409.379.735.882.978 1.508.243.627.364 1.398.364 2.314v.639H347.5v-1.304h6.034c0-.554-.111-1.048-.332-1.483a2.515 2.515 0 0 0-.933-1.029c-.401-.251-.874-.377-1.419-.377-.601 0-1.121.149-1.56.448a2.945 2.945 0 0 0-1.004 1.15c-.234.473-.351.98-.351 1.521v.87c0 .741.128 1.37.383 1.885.26.512.62.902 1.081 1.17.46.264.995.396 1.604.396.396 0 .754-.055 1.074-.166a2.29 2.29 0 0 0 .837-.511c.235-.23.416-.516.544-.857l1.457.409a3.224 3.224 0 0 1-.773 1.304c-.363.371-.81.661-1.343.87-.532.204-1.131.307-1.796.307Z" fill="#7D88A1"/></g><g filter="url(#e)"><path d="M672 461c0-5.523 4.477-10 10-10h133c5.523 0 10 4.477 10 10v35c0 5.523-4.477 10-10 10H682c-5.523 0-10-4.477-10-10v-35Z" fill="#fff"/><path d="M713.643 485h-4.04v-13.091h4.219c1.269 0 2.356.262 3.259.786.904.52 1.596 1.268 2.078 2.244.481.972.722 2.135.722 3.49 0 1.364-.243 2.538-.728 3.522a5.2 5.2 0 0 1-2.123 2.263c-.929.524-2.058.786-3.387.786Zm-2.455-1.406h2.352c1.083 0 1.98-.209 2.691-.627a3.855 3.855 0 0 0 1.592-1.783c.349-.771.524-1.69.524-2.755 0-1.057-.172-1.967-.518-2.729-.345-.767-.86-1.356-1.547-1.765-.686-.413-1.54-.62-2.563-.62h-2.531v10.279Zm14.037 1.636a3.996 3.996 0 0 1-1.694-.351 2.906 2.906 0 0 1-1.208-1.03c-.298-.451-.447-.997-.447-1.636 0-.562.11-1.018.332-1.368.222-.354.518-.631.888-.831.371-.2.78-.349 1.228-.447.451-.103.905-.183 1.361-.243.597-.077 1.08-.134 1.451-.173.375-.042.648-.113.818-.211.175-.098.262-.268.262-.511v-.051c0-.631-.172-1.121-.517-1.47-.341-.35-.859-.524-1.554-.524-.72 0-1.284.157-1.693.473-.41.315-.697.652-.863 1.009l-1.432-.511c.255-.596.596-1.061 1.023-1.393.43-.337.899-.571 1.406-.703a5.808 5.808 0 0 1 1.508-.205c.316 0 .678.038 1.087.115.413.072.812.224 1.195.454.388.23.71.577.965 1.042.256.464.384 1.086.384 1.866V485h-1.509v-1.33h-.076a2.638 2.638 0 0 1-.512.684c-.238.243-.556.45-.952.62-.396.171-.88.256-1.451.256Zm.23-1.355c.597 0 1.1-.117 1.509-.352a2.39 2.39 0 0 0 1.252-2.077v-1.381c-.063.077-.204.147-.421.211-.214.06-.461.113-.742.16a31.012 31.012 0 0 1-1.445.192 5.755 5.755 0 0 0-1.099.249 1.894 1.894 0 0 0-.818.505c-.205.222-.307.524-.307.908 0 .524.194.92.582 1.189.392.264.888.396 1.489.396Zm11.293-8.693v1.278h-5.088v-1.278h5.088Zm-3.605-2.352h1.509v9.358c0 .426.061.745.185.958.128.209.29.35.486.422.2.068.411.102.633.102.166 0 .302-.008.409-.025l.255-.051.307 1.355a3.064 3.064 0 0 1-.428.115 3.132 3.132 0 0 1-.697.064c-.426 0-.844-.092-1.253-.275a2.495 2.495 0 0 1-1.01-.837c-.264-.375-.396-.848-.396-1.419v-9.767Zm8.764 12.4a3.993 3.993 0 0 1-1.694-.351 2.906 2.906 0 0 1-1.208-1.03c-.299-.451-.448-.997-.448-1.636 0-.562.111-1.018.333-1.368.221-.354.517-.631.888-.831.371-.2.78-.349 1.227-.447.452-.103.906-.183 1.362-.243.596-.077 1.08-.134 1.451-.173.375-.042.648-.113.818-.211.175-.098.262-.268.262-.511v-.051c0-.631-.173-1.121-.518-1.47-.341-.35-.858-.524-1.553-.524-.72 0-1.285.157-1.694.473-.409.315-.697.652-.863 1.009l-1.432-.511c.256-.596.597-1.061 1.023-1.393a3.83 3.83 0 0 1 1.406-.703 5.821 5.821 0 0 1 1.509-.205c.315 0 .677.038 1.087.115.413.072.811.224 1.195.454.388.23.709.577.965 1.042.256.464.384 1.086.384 1.866V485h-1.509v-1.33h-.077a2.609 2.609 0 0 1-.511.684c-.239.243-.556.45-.952.62-.397.171-.88.256-1.451.256Zm.23-1.355c.596 0 1.099-.117 1.508-.352.414-.234.725-.536.933-.907.214-.371.32-.761.32-1.17v-1.381c-.064.077-.204.147-.422.211-.213.06-.46.113-.741.16a31.625 31.625 0 0 1-1.445.192 5.755 5.755 0 0 0-1.099.249c-.337.111-.61.279-.818.505-.205.222-.307.524-.307.908 0 .524.194.92.581 1.189.392.264.889.396 1.49.396Zm7.228 1.125v-13.091h1.508v4.832h.128c.111-.17.264-.387.46-.652.2-.268.486-.507.857-.715.375-.213.882-.32 1.521-.32.827 0 1.555.207 2.186.62.631.413 1.123.999 1.477 1.758.353.758.53 1.653.53 2.684 0 1.04-.177 1.942-.53 2.704-.354.759-.844 1.347-1.471 1.765-.626.413-1.348.62-2.166.62-.631 0-1.136-.105-1.515-.314-.38-.213-.672-.454-.876-.722a9.64 9.64 0 0 1-.473-.678h-.179V485h-1.457Zm1.482-4.909c0 .741.109 1.396.326 1.962.218.563.535 1.004.953 1.323.418.316.929.473 1.534.473.631 0 1.157-.166 1.579-.498.426-.337.746-.789.959-1.355a5.325 5.325 0 0 0 .326-1.905c0-.69-.107-1.313-.32-1.867-.209-.558-.526-.999-.952-1.323-.422-.328-.953-.492-1.592-.492-.614 0-1.129.156-1.547.467-.418.307-.733.737-.946 1.291-.213.55-.32 1.191-.32 1.924Zm12.382 5.139a3.996 3.996 0 0 1-1.694-.351 2.906 2.906 0 0 1-1.208-1.03c-.298-.451-.448-.997-.448-1.636 0-.562.111-1.018.333-1.368.221-.354.518-.631.888-.831.371-.2.78-.349 1.228-.447.451-.103.905-.183 1.361-.243.597-.077 1.08-.134 1.451-.173.375-.042.648-.113.818-.211.175-.098.262-.268.262-.511v-.051c0-.631-.172-1.121-.517-1.47-.341-.35-.859-.524-1.554-.524-.72 0-1.284.157-1.694.473-.409.315-.696.652-.862 1.009l-1.432-.511c.255-.596.596-1.061 1.022-1.393.431-.337.9-.571 1.407-.703a5.808 5.808 0 0 1 1.508-.205c.316 0 .678.038 1.087.115.413.072.812.224 1.195.454.388.23.71.577.965 1.042.256.464.384 1.086.384 1.866V485h-1.509v-1.33h-.076a2.638 2.638 0 0 1-.512.684c-.238.243-.556.45-.952.62-.396.171-.88.256-1.451.256Zm.23-1.355c.597 0 1.099-.117 1.509-.352a2.39 2.39 0 0 0 1.252-2.077v-1.381c-.064.077-.204.147-.422.211-.213.06-.46.113-.741.16a31.625 31.625 0 0 1-1.445.192 5.755 5.755 0 0 0-1.099.249 1.894 1.894 0 0 0-.818.505c-.205.222-.307.524-.307.908 0 .524.194.92.582 1.189.392.264.888.396 1.489.396Zm13.978-6.494-1.355.383a2.539 2.539 0 0 0-.377-.658 1.831 1.831 0 0 0-.665-.537c-.281-.141-.642-.211-1.08-.211-.601 0-1.102.138-1.503.415-.396.273-.594.62-.594 1.042 0 .375.136.672.409.889.273.217.699.398 1.278.543l1.458.358c.878.213 1.532.539 1.962.978.431.435.646.995.646 1.681 0 .563-.162 1.066-.486 1.509-.32.443-.767.792-1.342 1.048-.576.256-1.245.384-2.007.384-1.002 0-1.831-.218-2.487-.652-.656-.435-1.072-1.07-1.246-1.905l1.431-.358c.137.528.395.924.774 1.189.383.264.884.396 1.502.396.703 0 1.261-.149 1.675-.447.417-.303.626-.665.626-1.087 0-.341-.119-.627-.358-.857-.238-.234-.605-.409-1.099-.524l-1.637-.383c-.899-.213-1.559-.544-1.981-.991-.418-.452-.627-1.016-.627-1.694 0-.554.156-1.044.467-1.47.315-.426.744-.761 1.285-1.004.545-.243 1.163-.364 1.854-.364.971 0 1.734.213 2.288.639.558.426.954.989 1.189 1.688Zm6.566 7.824c-.946 0-1.762-.209-2.448-.627a4.207 4.207 0 0 1-1.579-1.764c-.366-.759-.55-1.641-.55-2.646 0-1.006.184-1.892.55-2.659.371-.772.886-1.373 1.547-1.803.665-.435 1.44-.652 2.327-.652.511 0 1.016.085 1.515.256.498.17.952.447 1.361.831.409.379.735.882.978 1.508.243.627.364 1.398.364 2.314v.639H780.5v-1.304h6.034c0-.554-.111-1.048-.332-1.483a2.515 2.515 0 0 0-.933-1.029c-.401-.251-.874-.377-1.419-.377-.601 0-1.121.149-1.56.448a2.945 2.945 0 0 0-1.004 1.15c-.234.473-.351.98-.351 1.521v.87c0 .741.128 1.37.383 1.885.26.512.62.902 1.081 1.17.46.264.995.396 1.604.396.396 0 .754-.055 1.074-.166a2.29 2.29 0 0 0 .837-.511c.235-.23.416-.516.544-.857l1.457.409a3.224 3.224 0 0 1-.773 1.304c-.363.371-.81.661-1.343.87-.532.204-1.131.307-1.796.307Z" fill="#7D88A1"/></g><g filter="url(#f)"><path d="M704 540c0-5.523 4.477-10 10-10h133c5.523 0 10 4.477 10 10v35c0 5.523-4.477 10-10 10H714c-5.523 0-10-4.477-10-10v-35Z" fill="#fff"/><path d="M745.643 564h-4.04v-13.091h4.219c1.269 0 2.356.262 3.259.786.904.52 1.596 1.268 2.078 2.244.481.972.722 2.135.722 3.49 0 1.364-.243 2.538-.728 3.522a5.2 5.2 0 0 1-2.123 2.263c-.929.524-2.058.786-3.387.786Zm-2.455-1.406h2.352c1.083 0 1.98-.209 2.691-.627a3.855 3.855 0 0 0 1.592-1.783c.349-.771.524-1.69.524-2.755 0-1.057-.172-1.967-.518-2.729-.345-.767-.86-1.356-1.547-1.765-.686-.413-1.54-.62-2.563-.62h-2.531v10.279Zm14.037 1.636a3.996 3.996 0 0 1-1.694-.351 2.906 2.906 0 0 1-1.208-1.03c-.298-.451-.447-.997-.447-1.636 0-.562.11-1.018.332-1.368.222-.354.518-.631.888-.831.371-.2.78-.349 1.228-.447.451-.103.905-.183 1.361-.243.597-.077 1.08-.134 1.451-.173.375-.042.648-.113.818-.211.175-.098.262-.268.262-.511v-.051c0-.631-.172-1.121-.517-1.47-.341-.35-.859-.524-1.554-.524-.72 0-1.284.157-1.693.473-.41.315-.697.652-.863 1.009l-1.432-.511c.255-.596.596-1.061 1.023-1.393.43-.337.899-.571 1.406-.703a5.808 5.808 0 0 1 1.508-.205c.316 0 .678.038 1.087.115.413.072.812.224 1.195.454.388.23.71.577.965 1.042.256.464.384 1.086.384 1.866V564h-1.509v-1.33h-.076a2.638 2.638 0 0 1-.512.684c-.238.243-.556.45-.952.62-.396.171-.88.256-1.451.256Zm.23-1.355c.597 0 1.1-.117 1.509-.352a2.39 2.39 0 0 0 1.252-2.077v-1.381c-.063.077-.204.147-.421.211-.214.06-.461.113-.742.16a31.012 31.012 0 0 1-1.445.192 5.755 5.755 0 0 0-1.099.249 1.894 1.894 0 0 0-.818.505c-.205.222-.307.524-.307.908 0 .524.194.92.582 1.189.392.264.888.396 1.489.396Zm11.293-8.693v1.278h-5.088v-1.278h5.088Zm-3.605-2.352h1.509v9.358c0 .426.061.745.185.958.128.209.29.35.486.422.2.068.411.102.633.102.166 0 .302-.008.409-.025l.255-.051.307 1.355a3.064 3.064 0 0 1-.428.115 3.132 3.132 0 0 1-.697.064c-.426 0-.844-.092-1.253-.275a2.495 2.495 0 0 1-1.01-.837c-.264-.375-.396-.848-.396-1.419v-9.767Zm8.764 12.4a3.993 3.993 0 0 1-1.694-.351 2.906 2.906 0 0 1-1.208-1.03c-.299-.451-.448-.997-.448-1.636 0-.562.111-1.018.333-1.368.221-.354.517-.631.888-.831.371-.2.78-.349 1.227-.447.452-.103.906-.183 1.362-.243.596-.077 1.08-.134 1.451-.173.375-.042.648-.113.818-.211.175-.098.262-.268.262-.511v-.051c0-.631-.173-1.121-.518-1.47-.341-.35-.858-.524-1.553-.524-.72 0-1.285.157-1.694.473-.409.315-.697.652-.863 1.009l-1.432-.511c.256-.596.597-1.061 1.023-1.393a3.83 3.83 0 0 1 1.406-.703 5.821 5.821 0 0 1 1.509-.205c.315 0 .677.038 1.087.115.413.072.811.224 1.195.454.388.23.709.577.965 1.042.256.464.384 1.086.384 1.866V564h-1.509v-1.33h-.077a2.609 2.609 0 0 1-.511.684c-.239.243-.556.45-.952.62-.397.171-.88.256-1.451.256Zm.23-1.355c.596 0 1.099-.117 1.508-.352.414-.234.725-.536.933-.907.214-.371.32-.761.32-1.17v-1.381c-.064.077-.204.147-.422.211-.213.06-.46.113-.741.16a31.625 31.625 0 0 1-1.445.192 5.755 5.755 0 0 0-1.099.249c-.337.111-.61.279-.818.505-.205.222-.307.524-.307.908 0 .524.194.92.581 1.189.392.264.889.396 1.49.396Zm7.228 1.125v-13.091h1.508v4.832h.128c.111-.17.264-.387.46-.652.2-.268.486-.507.857-.715.375-.213.882-.32 1.521-.32.827 0 1.555.207 2.186.62.631.413 1.123.999 1.477 1.758.353.758.53 1.653.53 2.684 0 1.04-.177 1.942-.53 2.704-.354.759-.844 1.347-1.471 1.765-.626.413-1.348.62-2.166.62-.631 0-1.136-.105-1.515-.314-.38-.213-.672-.454-.876-.722a9.64 9.64 0 0 1-.473-.678h-.179V564h-1.457Zm1.482-4.909c0 .741.109 1.396.326 1.962.218.563.535 1.004.953 1.323.418.316.929.473 1.534.473.631 0 1.157-.166 1.579-.498.426-.337.746-.789.959-1.355a5.325 5.325 0 0 0 .326-1.905c0-.69-.107-1.313-.32-1.867-.209-.558-.526-.999-.952-1.323-.422-.328-.953-.492-1.592-.492-.614 0-1.129.156-1.547.467-.418.307-.733.737-.946 1.291-.213.55-.32 1.191-.32 1.924Zm12.382 5.139a3.996 3.996 0 0 1-1.694-.351 2.906 2.906 0 0 1-1.208-1.03c-.298-.451-.448-.997-.448-1.636 0-.562.111-1.018.333-1.368.221-.354.518-.631.888-.831.371-.2.78-.349 1.228-.447.451-.103.905-.183 1.361-.243.597-.077 1.08-.134 1.451-.173.375-.042.648-.113.818-.211.175-.098.262-.268.262-.511v-.051c0-.631-.172-1.121-.517-1.47-.341-.35-.859-.524-1.554-.524-.72 0-1.284.157-1.694.473-.409.315-.696.652-.862 1.009l-1.432-.511c.255-.596.596-1.061 1.022-1.393.431-.337.9-.571 1.407-.703a5.808 5.808 0 0 1 1.508-.205c.316 0 .678.038 1.087.115.413.072.812.224 1.195.454.388.23.71.577.965 1.042.256.464.384 1.086.384 1.866V564h-1.509v-1.33h-.076a2.638 2.638 0 0 1-.512.684c-.238.243-.556.45-.952.62-.396.171-.88.256-1.451.256Zm.23-1.355c.597 0 1.099-.117 1.509-.352a2.39 2.39 0 0 0 1.252-2.077v-1.381c-.064.077-.204.147-.422.211-.213.06-.46.113-.741.16a31.625 31.625 0 0 1-1.445.192 5.755 5.755 0 0 0-1.099.249 1.894 1.894 0 0 0-.818.505c-.205.222-.307.524-.307.908 0 .524.194.92.582 1.189.392.264.888.396 1.489.396Zm13.978-6.494-1.355.383a2.539 2.539 0 0 0-.377-.658 1.831 1.831 0 0 0-.665-.537c-.281-.141-.642-.211-1.08-.211-.601 0-1.102.138-1.503.415-.396.273-.594.62-.594 1.042 0 .375.136.672.409.889.273.217.699.398 1.278.543l1.458.358c.878.213 1.532.539 1.962.978.431.435.646.995.646 1.681 0 .563-.162 1.066-.486 1.509-.32.443-.767.792-1.342 1.048-.576.256-1.245.384-2.007.384-1.002 0-1.831-.218-2.487-.652-.656-.435-1.072-1.07-1.246-1.905l1.431-.358c.137.528.395.924.774 1.189.383.264.884.396 1.502.396.703 0 1.261-.149 1.675-.447.417-.303.626-.665.626-1.087 0-.341-.119-.627-.358-.857-.238-.234-.605-.409-1.099-.524l-1.637-.383c-.899-.213-1.559-.544-1.981-.991-.418-.452-.627-1.016-.627-1.694 0-.554.156-1.044.467-1.47.315-.426.744-.761 1.285-1.004.545-.243 1.163-.364 1.854-.364.971 0 1.734.213 2.288.639.558.426.954.989 1.189 1.688Zm6.566 7.824c-.946 0-1.762-.209-2.448-.627a4.207 4.207 0 0 1-1.579-1.764c-.366-.759-.55-1.641-.55-2.646 0-1.006.184-1.892.55-2.659.371-.772.886-1.373 1.547-1.803.665-.435 1.44-.652 2.327-.652.511 0 1.016.085 1.515.256.498.17.952.447 1.361.831.409.379.735.882.978 1.508.243.627.364 1.398.364 2.314v.639H812.5v-1.304h6.034c0-.554-.111-1.048-.332-1.483a2.515 2.515 0 0 0-.933-1.029c-.401-.251-.874-.377-1.419-.377-.601 0-1.121.149-1.56.448a2.945 2.945 0 0 0-1.004 1.15c-.234.473-.351.98-.351 1.521v.87c0 .741.128 1.37.383 1.885.26.512.62.902 1.081 1.17.46.264.995.396 1.604.396.396 0 .754-.055 1.074-.166a2.29 2.29 0 0 0 .837-.511c.235-.23.416-.516.544-.857l1.457.409a3.224 3.224 0 0 1-.773 1.304c-.363.371-.81.661-1.343.87-.532.204-1.131.307-1.796.307Z" fill="#7D88A1"/></g><g filter="url(#g)"><path d="M270 540c0-5.523 4.477-10 10-10h41c5.523 0 10 4.477 10 10v35c0 5.523-4.477 10-10 10h-41c-5.523 0-10-4.477-10-10v-35Z" fill="#fff"/><path d="M288.445 564h-1.662l4.807-13.091h1.637L298.033 564h-1.661l-3.912-11.02h-.103L288.445 564Zm.614-5.114h6.699v1.407h-6.699v-1.407ZM300.073 564v-13.091h4.423c1.027 0 1.866.185 2.518.556.657.367 1.142.863 1.458 1.49.315.626.473 1.325.473 2.096 0 .771-.158 1.472-.473 2.103-.311.631-.793 1.134-1.445 1.509-.652.37-1.487.556-2.506.556h-3.17v-1.407h3.119c.703 0 1.268-.121 1.694-.364.426-.243.735-.571.927-.984.196-.418.294-.889.294-1.413s-.098-.993-.294-1.406a2.106 2.106 0 0 0-.933-.972c-.431-.238-1.002-.358-1.713-.358h-2.787V564h-1.585Zm13.011-13.091V564h-1.586v-13.091h1.586Z" fill="#7D88A1"/></g><g filter="url(#h)"><path d="M303 619c0-5.523 4.477-10 10-10h89c5.523 0 10 4.477 10 10v35c0 5.523-4.477 10-10 10h-89c-5.523 0-10-4.477-10-10v-35Z" fill="#fff"/><path d="M350.803 643h-4.04v-13.091h4.219c1.27 0 2.356.262 3.26.786.903.52 1.596 1.268 2.077 2.244.482.972.722 2.135.722 3.49 0 1.364-.243 2.538-.728 3.522a5.203 5.203 0 0 1-2.122 2.263c-.929.524-2.059.786-3.388.786Zm-2.455-1.406h2.352c1.083 0 1.98-.209 2.692-.627a3.858 3.858 0 0 0 1.591-1.783c.35-.771.524-1.69.524-2.755 0-1.057-.172-1.967-.517-2.729-.346-.767-.861-1.356-1.547-1.765-.686-.413-1.541-.62-2.564-.62h-2.531v10.279ZM359.7 643v-13.091h4.577c.912 0 1.664.158 2.257.473.592.311 1.033.731 1.323 1.259.289.524.434 1.106.434 1.745 0 .563-.1 1.027-.3 1.394a2.338 2.338 0 0 1-.78.869 3.537 3.537 0 0 1-1.042.473v.128c.401.026.803.166 1.208.422.405.256.744.622 1.017 1.099.272.478.409 1.061.409 1.752 0 .656-.149 1.246-.448 1.77-.298.524-.769.94-1.412 1.247-.644.307-1.481.46-2.512.46H359.7Zm1.586-1.406h3.145c1.035 0 1.77-.201 2.205-.601.439-.405.658-.895.658-1.47 0-.443-.113-.853-.339-1.228a2.444 2.444 0 0 0-.965-.907c-.417-.23-.912-.345-1.483-.345h-3.221v4.551Zm0-5.932h2.94c.477 0 .908-.094 1.291-.281.388-.188.695-.452.921-.793.23-.341.345-.741.345-1.202 0-.575-.2-1.063-.601-1.463-.401-.405-1.036-.608-1.905-.608h-2.991v4.347Z" fill="#7D88A1"/></g><path d="M264.939 133.061a1.502 1.502 0 0 0 2.122 0l9.546-9.546a1.502 1.502 0 0 0 0-2.122 1.502 1.502 0 0 0-2.122 0L266 129.879l-8.485-8.486a1.502 1.502 0 0 0-2.122 0 1.502 1.502 0 0 0 0 2.122l9.546 9.546ZM264.5 81v51h3V81h-3Zm378.561 90.061a1.502 1.502 0 0 0 0-2.122l-9.546-9.546a1.502 1.502 0 0 0-2.122 0 1.502 1.502 0 0 0 0 2.122l8.486 8.485-8.486 8.485a1.502 1.502 0 0 0 0 2.122 1.502 1.502 0 0 0 2.122 0l9.546-9.546ZM332 171.5h310v-3H332v3Z" fill="#7D88A1"/><g filter="url(#i)"><path d="M201 152c0-5.523 4.477-10 10-10h111c5.523 0 10 4.477 10 10v35c0 5.523-4.477 10-10 10H211c-5.523 0-10-4.477-10-10v-35Z" fill="#fff"/><path d="M237.926 167h-1.585a3.306 3.306 0 0 0-1.336-2.071 3.57 3.57 0 0 0-1.093-.537 4.378 4.378 0 0 0-1.253-.179c-.793 0-1.511.2-2.154.601-.639.4-1.149.991-1.528 1.771-.375.779-.562 1.736-.562 2.87 0 1.133.187 2.09.562 2.87.379.779.889 1.37 1.528 1.77a3.987 3.987 0 0 0 2.154.601c.435 0 .852-.06 1.253-.179.4-.119.765-.296 1.093-.53a3.4 3.4 0 0 0 .844-.876c.234-.35.398-.75.492-1.202h1.585a5.278 5.278 0 0 1-.652 1.796 4.896 4.896 0 0 1-1.176 1.349 5.145 5.145 0 0 1-1.579.837c-.58.192-1.2.288-1.86.288-1.117 0-2.109-.273-2.979-.818-.869-.546-1.553-1.321-2.052-2.327-.498-1.006-.747-2.199-.747-3.579 0-1.381.249-2.574.747-3.58.499-1.006 1.183-1.781 2.052-2.327.87-.545 1.862-.818 2.979-.818.66 0 1.28.096 1.86.288.584.192 1.11.473 1.579.844.469.366.861.813 1.176 1.342.315.524.533 1.123.652 1.796Zm3.866 3.094V176h-1.509v-13.091h1.509v4.807h.127c.231-.507.576-.91 1.036-1.208.464-.303 1.082-.454 1.854-.454.669 0 1.255.134 1.757.403.503.264.893.671 1.17 1.221.281.545.422 1.24.422 2.083V176h-1.508v-6.136c0-.78-.203-1.383-.608-1.809-.4-.431-.956-.646-1.668-.646-.494 0-.938.104-1.33.313a2.298 2.298 0 0 0-.92.914c-.222.401-.332.887-.332 1.458Zm13.242 6.111c-.946 0-1.762-.209-2.448-.627a4.207 4.207 0 0 1-1.579-1.764c-.366-.759-.549-1.641-.549-2.646 0-1.006.183-1.892.549-2.659.371-.772.887-1.373 1.547-1.803.665-.435 1.44-.652 2.327-.652.511 0 1.016.085 1.515.256.498.17.952.447 1.361.831.409.379.735.882.978 1.508.243.627.365 1.398.365 2.314v.639h-7.569v-1.304h6.035c0-.554-.111-1.048-.333-1.483a2.508 2.508 0 0 0-.933-1.029c-.401-.251-.874-.377-1.419-.377-.601 0-1.121.149-1.56.448a2.942 2.942 0 0 0-1.003 1.15c-.235.473-.352.98-.352 1.521v.87c0 .741.128 1.37.384 1.885.26.512.62.902 1.08 1.17.46.264.995.396 1.604.396.397 0 .755-.055 1.074-.166a2.29 2.29 0 0 0 .837-.511c.235-.23.416-.516.544-.857l1.457.409a3.224 3.224 0 0 1-.773 1.304c-.362.371-.81.661-1.343.87-.532.204-1.131.307-1.796.307Zm10.349 0c-.92 0-1.713-.218-2.378-.652-.665-.435-1.176-1.034-1.534-1.797-.358-.762-.537-1.634-.537-2.614 0-.997.183-1.877.55-2.64.371-.767.886-1.366 1.547-1.796.664-.435 1.44-.652 2.326-.652.691 0 1.313.128 1.867.384a3.56 3.56 0 0 1 1.361 1.073c.354.461.574.998.659 1.611h-1.509c-.115-.447-.37-.844-.767-1.189-.392-.349-.92-.524-1.585-.524-.588 0-1.104.153-1.547.46-.439.303-.782.731-1.029 1.285-.243.55-.364 1.195-.364 1.937 0 .758.119 1.419.358 1.981.243.563.583 1 1.022 1.311.444.311.963.466 1.56.466.392 0 .748-.068 1.067-.204.32-.136.591-.333.812-.588.222-.256.38-.563.473-.921h1.509a3.484 3.484 0 0 1-1.956 2.666c-.546.268-1.181.403-1.905.403Zm7.472-3.785-.025-1.866h.307l4.295-4.372h1.866l-4.576 4.628h-.128l-1.739 1.61Zm-1.406 3.58v-13.091h1.509V176h-1.509Zm6.239 0-3.836-4.858 1.074-1.048 4.679 5.906h-1.917Zm7.136.205c-.886 0-1.664-.211-2.333-.633-.664-.422-1.184-1.012-1.559-1.771-.371-.758-.556-1.645-.556-2.659 0-1.023.185-1.915.556-2.678.375-.763.895-1.355 1.559-1.777.669-.422 1.447-.633 2.333-.633.887 0 1.662.211 2.327.633.669.422 1.189 1.014 1.56 1.777.375.763.562 1.655.562 2.678 0 1.014-.187 1.901-.562 2.659-.371.759-.891 1.349-1.56 1.771-.665.422-1.44.633-2.327.633Zm0-1.356c.674 0 1.228-.172 1.662-.517a3.05 3.05 0 0 0 .966-1.362 5.23 5.23 0 0 0 .313-1.828 5.28 5.28 0 0 0-.313-1.834 3.096 3.096 0 0 0-.966-1.375c-.434-.349-.988-.524-1.662-.524-.673 0-1.227.175-1.662.524-.434.35-.756.808-.965 1.375a5.256 5.256 0 0 0-.313 1.834c0 .656.104 1.266.313 1.828.209.563.531 1.017.965 1.362.435.345.989.517 1.662.517Zm12.939-2.863v-5.804h1.509V176h-1.509v-1.662h-.102c-.23.499-.588.923-1.074 1.272-.485.345-1.099.518-1.841.518-.613 0-1.159-.134-1.636-.403-.477-.273-.852-.682-1.125-1.227-.273-.55-.409-1.242-.409-2.078v-6.238h1.509v6.136c0 .716.2 1.287.6 1.713.405.426.921.639 1.547.639a2.56 2.56 0 0 0 1.144-.287c.392-.192.721-.486.985-.882.268-.397.402-.902.402-1.515Zm8.542-5.804v1.278h-5.088v-1.278h5.088Zm-3.605-2.352h1.508v9.358c0 .426.062.745.186.958.127.209.289.35.485.422.201.068.412.102.633.102.166 0 .303-.008.409-.025l.256-.051.307 1.355a3.064 3.064 0 0 1-.428.115 3.138 3.138 0 0 1-.697.064c-.426 0-.844-.092-1.253-.275a2.488 2.488 0 0 1-1.01-.837c-.264-.375-.396-.848-.396-1.419v-9.767Z" fill="#7D88A1"/></g><defs><filter id="a" x="197" y="364" width="233" height="87" filterUnits="userSpaceOnUse" color-interpolation-filters="sRGB"><feFlood flood-opacity="0" result="BackgroundImageFix"/><feColorMatrix in="SourceAlpha" values="0 0 0 0 0 0 0 0 0 0 0 0 0 0 0 0 0 0 127 0" result="hardAlpha"/><feOffset dy="8"/><feGaussianBlur stdDeviation="8"/><feColorMatrix values="0 0 0 0 0.337255 0 0 0 0 0.388235 0 0 0 0 0.505882 0 0 0 0.24 0"/><feBlend in2="BackgroundImageFix" result="effect1_dropShadow_429_807"/><feBlend in="SourceGraphic" in2="effect1_dropShadow_429_807" result="shape"/></filter><filter id="b" x="640" y="134" width="163" height="87" filterUnits="userSpaceOnUse" color-interpolation-filters="sRGB"><feFlood flood-opacity="0" result="BackgroundImageFix"/><feColorMatrix in="SourceAlpha" values="0 0 0 0 0 0 0 0 0 0 0 0 0 0 0 0 0 0 127 0" result="hardAlpha"/><feOffset dy="8"/><feGaussianBlur stdDeviation="8"/><feColorMatrix values="0 0 0 0 0.337255 0 0 0 0 0.388235 0 0 0 0 0.505882 0 0 0 0.24 0"/><feBlend in2="BackgroundImageFix" result="effect1_dropShadow_429_807"/><feBlend in="SourceGraphic" in2="effect1_dropShadow_429_807" result="shape"/></filter><filter id="c" x="630" y="364" width="233" height="87" filterUnits="userSpaceOnUse" color-interpolation-filters="sRGB"><feFlood flood-opacity="0" result="BackgroundImageFix"/><feColorMatrix in="SourceAlpha" values="0 0 0 0 0 0 0 0 0 0 0 0 0 0 0 0 0 0 127 0" result="hardAlpha"/><feOffset dy="8"/><feGaussianBlur stdDeviation="8"/><feColorMatrix values="0 0 0 0 0.337255 0 0 0 0 0.388235 0 0 0 0 0.505882 0 0 0 0.24 0"/><feBlend in2="BackgroundImageFix" result="effect1_dropShadow_429_807"/><feBlend in="SourceGraphic" in2="effect1_dropShadow_429_807" result="shape"/></filter><filter id="d" x="223" y="443" width="185" height="87" filterUnits="userSpaceOnUse" color-interpolation-filters="sRGB"><feFlood flood-opacity="0" result="BackgroundImageFix"/><feColorMatrix in="SourceAlpha" values="0 0 0 0 0 0 0 0 0 0 0 0 0 0 0 0 0 0 127 0" result="hardAlpha"/><feOffset dy="8"/><feGaussianBlur stdDeviation="8"/><feColorMatrix values="0 0 0 0 0.337255 0 0 0 0 0.388235 0 0 0 0 0.505882 0 0 0 0.24 0"/><feBlend in2="BackgroundImageFix" result="effect1_dropShadow_429_807"/><feBlend in="SourceGraphic" in2="effect1_dropShadow_429_807" result="shape"/></filter><filter id="e" x="656" y="443" width="185" height="87" filterUnits="userSpaceOnUse" color-interpolation-filters="sRGB"><feFlood flood-opacity="0" result="BackgroundImageFix"/><feColorMatrix in="SourceAlpha" values="0 0 0 0 0 0 0 0 0 0 0 0 0 0 0 0 0 0 127 0" result="hardAlpha"/><feOffset dy="8"/><feGaussianBlur stdDeviation="8"/><feColorMatrix values="0 0 0 0 0.337255 0 0 0 0 0.388235 0 0 0 0 0.505882 0 0 0 0.24 0"/><feBlend in2="BackgroundImageFix" result="effect1_dropShadow_429_807"/><feBlend in="SourceGraphic" in2="effect1_dropShadow_429_807" result="shape"/></filter><filter id="f" x="688" y="522" width="185" height="87" filterUnits="userSpaceOnUse" color-interpolation-filters="sRGB"><feFlood flood-opacity="0" result="BackgroundImageFix"/><feColorMatrix in="SourceAlpha" values="0 0 0 0 0 0 0 0 0 0 0 0 0 0 0 0 0 0 127 0" result="hardAlpha"/><feOffset dy="8"/><feGaussianBlur stdDeviation="8"/><feColorMatrix values="0 0 0 0 0.337255 0 0 0 0 0.388235 0 0 0 0 0.505882 0 0 0 0.24 0"/><feBlend in2="BackgroundImageFix" result="effect1_dropShadow_429_807"/><feBlend in="SourceGraphic" in2="effect1_dropShadow_429_807" result="shape"/></filter><filter id="g" x="254" y="522" width="93" height="87" filterUnits="userSpaceOnUse" color-interpolation-filters="sRGB"><feFlood flood-opacity="0" result="BackgroundImageFix"/><feColorMatrix in="SourceAlpha" values="0 0 0 0 0 0 0 0 0 0 0 0 0 0 0 0 0 0 127 0" result="hardAlpha"/><feOffset dy="8"/><feGaussianBlur stdDeviation="8"/><feColorMatrix values="0 0 0 0 0.337255 0 0 0 0 0.388235 0 0 0 0 0.505882 0 0 0 0.24 0"/><feBlend in2="BackgroundImageFix" result="effect1_dropShadow_429_807"/><feBlend in="SourceGraphic" in2="effect1_dropShadow_429_807" result="shape"/></filter><filter id="h" x="287" y="601" width="141" height="87" filterUnits="userSpaceOnUse" color-interpolation-filters="sRGB"><feFlood flood-opacity="0" result="BackgroundImageFix"/><feColorMatrix in="SourceAlpha" values="0 0 0 0 0 0 0 0 0 0 0 0 0 0 0 0 0 0 127 0" result="hardAlpha"/><feOffset dy="8"/><feGaussianBlur stdDeviation="8"/><feColorMatrix values="0 0 0 0 0.337255 0 0 0 0 0.388235 0 0 0 0 0.505882 0 0 0 0.24 0"/><feBlend in2="BackgroundImageFix" result="effect1_dropShadow_429_807"/><feBlend in="SourceGraphic" in2="effect1_dropShadow_429_807" result="shape"/></filter><filter id="i" x="185" y="134" width="163" height="87" filterUnits="userSpaceOnUse" color-interpolation-filters="sRGB"><feFlood flood-opacity="0" result="BackgroundImageFix"/><feColorMatrix in="SourceAlpha" values="0 0 0 0 0 0 0 0 0 0 0 0 0 0 0 0 0 0 127 0" result="hardAlpha"/><feOffset dy="8"/><feGaussianBlur stdDeviation="8"/><feColorMatrix values="0 0 0 0 0.337255 0 0 0 0 0.388235 0 0 0 0 0.505882 0 0 0 0.24 0"/><feBlend in2="BackgroundImageFix" result="effect1_dropShadow_429_807"/><feBlend in="SourceGraphic" in2="effect1_dropShadow_429_807" result="shape"/></filter></defs></svg>