<svg width="1668" height="904" fill="none" xmlns="http://www.w3.org/2000/svg"><rect width="1668" height="904" rx="27" fill="#fff"/><rect x="1074.29" y="81.71" width="710.58" height="992.58" rx="25.652" transform="rotate(90 1074.29 81.71)" stroke="#90A8EC" stroke-width="3.42"/><rect x="1624.29" y="555.71" width="236.58" height="515.58" rx="25.652" transform="rotate(90 1624.29 555.71)" stroke="#F5A800" stroke-width="3.42"/><path d="M299.791 347.209a1.71 1.71 0 0 0 2.418 0l10.884-10.883a1.712 1.712 0 0 0 0-2.419 1.712 1.712 0 0 0-2.419 0L301 343.581l-9.674-9.674a1.712 1.712 0 0 0-2.419 0 1.712 1.712 0 0 0 0 2.419l10.884 10.883ZM299.29 277v69h3.42v-69h-3.42Zm104.501 218.209a1.71 1.71 0 0 0 2.418 0l10.884-10.883a1.712 1.712 0 0 0 0-2.419 1.712 1.712 0 0 0-2.419 0L405 491.581l-9.674-9.674a1.712 1.712 0 0 0-2.419 0 1.712 1.712 0 0 0 0 2.419l10.884 10.883ZM403.29 425v69h3.42v-69h-3.42Z" fill="#7D88A1"/><path d="M531 578v89.159a6.841 6.841 0 0 0 6.841 6.841H1160" stroke="#7D88A1" stroke-width="3.42"/><rect x="129" y="766" width="199.725" height="55" rx="10.223" fill="#fff"/><path d="M170.453 789.051c-.088-.882-.463-1.567-1.126-2.055-.663-.488-1.563-.732-2.7-.732-.773 0-1.425.109-1.957.328-.532.211-.94.506-1.224.885a2.132 2.132 0 0 0-.416 1.29c-.014.401.07.751.252 1.049.189.299.448.558.776.777a5.9 5.9 0 0 0 1.137.557c.43.153.889.284 1.377.394l2.012.481c.976.218 1.872.51 2.689.874a8.149 8.149 0 0 1 2.12 1.345 5.58 5.58 0 0 1 1.389 1.88c.335.721.506 1.548.513 2.481-.007 1.37-.357 2.558-1.049 3.564-.685.998-1.676 1.774-2.973 2.328-1.29.547-2.846.82-4.668.82-1.807 0-3.381-.277-4.722-.831-1.334-.554-2.376-1.373-3.127-2.459-.743-1.093-1.133-2.445-1.169-4.056h4.58c.051.751.266 1.378.645 1.88.386.496.9.871 1.541 1.126.649.248 1.381.372 2.197.372.802 0 1.498-.117 2.088-.35.598-.233 1.061-.557 1.388-.973.328-.415.492-.892.492-1.432 0-.503-.149-.925-.448-1.268-.291-.342-.721-.634-1.29-.874-.561-.241-1.25-.459-2.066-.656l-2.437-.612c-1.888-.459-3.378-1.177-4.471-2.154-1.093-.976-1.636-2.292-1.629-3.946-.007-1.355.353-2.54 1.082-3.553.736-1.013 1.745-1.803 3.028-2.372 1.283-.568 2.74-.852 4.373-.852 1.661 0 3.111.284 4.35.852 1.246.569 2.216 1.359 2.908 2.372.692 1.013 1.049 2.187 1.071 3.52h-4.536Zm15.591 16.277c-1.728 0-3.214-.35-4.46-1.049a7.186 7.186 0 0 1-2.864-2.996c-.671-1.297-1.006-2.831-1.006-4.602 0-1.727.335-3.243 1.006-4.547.67-1.305 1.614-2.321 2.831-3.05 1.224-.729 2.66-1.093 4.307-1.093 1.107 0 2.139.178 3.093.535.962.35 1.8.879 2.515 1.586.721.706 1.282 1.596 1.683 2.667.401 1.064.601 2.31.601 3.738v1.279h-14.178v-2.886h9.795c0-.67-.146-1.264-.438-1.781a3.132 3.132 0 0 0-1.213-1.214c-.51-.299-1.104-.448-1.782-.448-.707 0-1.333.164-1.88.492a3.45 3.45 0 0 0-1.268 1.301 3.668 3.668 0 0 0-.47 1.803v2.744c0 .831.153 1.549.459 2.154a3.354 3.354 0 0 0 1.323 1.399c.568.328 1.242.492 2.022.492.518 0 .991-.073 1.421-.219.43-.146.798-.364 1.104-.656.306-.291.54-.648.7-1.071l4.307.284a5.88 5.88 0 0 1-1.345 2.711c-.67.765-1.537 1.363-2.601 1.793-1.057.423-2.278.634-3.662.634Zm10.745-.328v-16.791h4.515v2.93h.175c.306-1.042.819-1.829 1.541-2.361.721-.539 1.552-.809 2.492-.809.233 0 .485.015.755.044.269.029.506.069.71.12v4.132a6.038 6.038 0 0 0-.907-.175 8.149 8.149 0 0 0-1.061-.076c-.685 0-1.297.149-1.836.448a3.29 3.29 0 0 0-1.268 1.224c-.306.525-.459 1.13-.459 1.815V805h-4.657Zm28.76-16.791L219.679 805h-5.247l-5.87-16.791h4.919l3.487 12.014h.175l3.476-12.014h4.93ZM227.932 805v-16.791h4.657V805h-4.657Zm2.351-18.955a2.525 2.525 0 0 1-1.782-.689c-.496-.466-.743-1.023-.743-1.672 0-.641.247-1.192.743-1.651a2.496 2.496 0 0 1 1.771-.699c.699 0 1.293.233 1.782.699.495.459.743 1.01.743 1.651 0 .649-.248 1.206-.743 1.672-.489.46-1.079.689-1.771.689Zm13.623 19.283c-1.72 0-3.199-.364-4.438-1.093a7.383 7.383 0 0 1-2.842-3.061c-.656-1.304-.984-2.806-.984-4.504 0-1.72.331-3.228.994-4.525.671-1.305 1.622-2.321 2.854-3.05 1.231-.736 2.696-1.104 4.394-1.104 1.465 0 2.747.266 3.848.798 1.1.532 1.971 1.279 2.612 2.241.642.962.995 2.091 1.061 3.388h-4.395c-.124-.838-.452-1.512-.984-2.022-.524-.517-1.213-.776-2.066-.776-.721 0-1.351.197-1.891.59-.532.387-.947.951-1.246 1.695-.299.743-.448 1.643-.448 2.7 0 1.071.146 1.982.437 2.733.299.75.718 1.322 1.257 1.716.54.393 1.17.59 1.891.59.532 0 1.01-.109 1.432-.328.43-.218.784-.535 1.061-.951.284-.423.47-.929.557-1.519h4.395c-.073 1.282-.423 2.412-1.05 3.388-.619.97-1.475 1.728-2.569 2.274-1.093.547-2.386.82-3.88.82Zm18.132 0c-1.727 0-3.214-.35-4.46-1.049a7.192 7.192 0 0 1-2.864-2.996c-.67-1.297-1.006-2.831-1.006-4.602 0-1.727.336-3.243 1.006-4.547.671-1.305 1.614-2.321 2.831-3.05 1.225-.729 2.66-1.093 4.307-1.093 1.108 0 2.139.178 3.094.535.962.35 1.8.879 2.514 1.586.722.706 1.283 1.596 1.683 2.667.401 1.064.602 2.31.602 3.738v1.279h-14.178v-2.886h9.794c0-.67-.145-1.264-.437-1.781a3.132 3.132 0 0 0-1.213-1.214c-.51-.299-1.104-.448-1.782-.448-.707 0-1.334.164-1.88.492-.54.321-.962.754-1.268 1.301a3.668 3.668 0 0 0-.47 1.803v2.744c0 .831.153 1.549.459 2.154a3.358 3.358 0 0 0 1.322 1.399c.569.328 1.243.492 2.023.492.517 0 .991-.073 1.421-.219.43-.146.798-.364 1.104-.656a2.84 2.84 0 0 0 .699-1.071l4.307.284a5.869 5.869 0 0 1-1.344 2.711c-.671.765-1.538 1.363-2.602 1.793-1.057.423-2.277.634-3.662.634Zm21.816-.328h-5.072l7.729-22.387h6.099L300.328 805h-5.072l-5.608-17.271h-.175L283.854 805Zm-.317-8.8h11.981v3.695h-11.981V796.2Z" fill="#90A8EC"/><rect x="1147" y="766" width="197.725" height="55" rx="10.223" fill="#fff"/><path d="M1188.45 789.051c-.08-.882-.46-1.567-1.12-2.055-.67-.488-1.57-.732-2.7-.732-.78 0-1.43.109-1.96.328-.53.211-.94.506-1.22.885s-.42.809-.42 1.29c-.01.401.07.751.25 1.049.19.299.45.558.78.777.33.211.7.397 1.13.557.43.153.89.284 1.38.394l2.01.481c.98.218 1.88.51 2.69.874.82.364 1.53.813 2.12 1.345.6.532 1.06 1.158 1.39 1.88.34.721.51 1.548.52 2.481-.01 1.37-.36 2.558-1.05 3.564-.69.998-1.68 1.774-2.98 2.328-1.29.547-2.84.82-4.67.82-1.8 0-3.38-.277-4.72-.831-1.33-.554-2.37-1.373-3.12-2.459-.75-1.093-1.14-2.445-1.17-4.056h4.58c.05.751.26 1.378.64 1.88.39.496.9.871 1.54 1.126.65.248 1.38.372 2.2.372.8 0 1.5-.117 2.09-.35.6-.233 1.06-.557 1.39-.973.32-.415.49-.892.49-1.432 0-.503-.15-.925-.45-1.268-.29-.342-.72-.634-1.29-.874-.56-.241-1.25-.459-2.07-.656l-2.43-.612c-1.89-.459-3.38-1.177-4.47-2.154-1.1-.976-1.64-2.292-1.63-3.946-.01-1.355.35-2.54 1.08-3.553.74-1.013 1.74-1.803 3.03-2.372 1.28-.568 2.74-.852 4.37-.852 1.66 0 3.11.284 4.35.852 1.25.569 2.22 1.359 2.91 2.372s1.05 2.187 1.07 3.52h-4.54Zm15.59 16.277c-1.72 0-3.21-.35-4.46-1.049-1.24-.707-2.19-1.706-2.86-2.996-.67-1.297-1.01-2.831-1.01-4.602 0-1.727.34-3.243 1.01-4.547.67-1.305 1.61-2.321 2.83-3.05 1.23-.729 2.66-1.093 4.31-1.093 1.11 0 2.14.178 3.09.535.96.35 1.8.879 2.52 1.586.72.706 1.28 1.596 1.68 2.667.4 1.064.6 2.31.6 3.738v1.279h-14.18v-2.886h9.8c0-.67-.15-1.264-.44-1.781-.29-.518-.7-.922-1.21-1.214-.51-.299-1.11-.448-1.79-.448-.7 0-1.33.164-1.88.492-.54.321-.96.754-1.26 1.301-.31.539-.47 1.14-.47 1.803v2.744c0 .831.15 1.549.46 2.154.31.605.75 1.071 1.32 1.399.57.328 1.24.492 2.02.492.52 0 .99-.073 1.42-.219.43-.146.8-.364 1.11-.656.3-.291.53-.648.69-1.071l4.31.284a5.96 5.96 0 0 1-1.34 2.711c-.67.765-1.54 1.363-2.6 1.793-1.06.423-2.28.634-3.67.634Zm10.75-.328v-16.791h4.51v2.93h.18c.3-1.042.82-1.829 1.54-2.361.72-.539 1.55-.809 2.49-.809.24 0 .49.015.76.044.27.029.5.069.71.12v4.132a6.013 6.013 0 0 0-.91-.175 8.195 8.195 0 0 0-1.06-.076c-.69 0-1.3.149-1.84.448a3.36 3.36 0 0 0-1.27 1.224c-.3.525-.45 1.13-.45 1.815V805h-4.66Zm28.76-16.791L1237.68 805h-5.25l-5.87-16.791h4.92l3.49 12.014h.17l3.48-12.014h4.93Zm2.38 16.791v-16.791h4.66V805h-4.66Zm2.35-18.955c-.69 0-1.28-.229-1.78-.689-.49-.466-.74-1.023-.74-1.672 0-.641.25-1.192.74-1.651a2.51 2.51 0 0 1 1.77-.699c.7 0 1.3.233 1.78.699.5.459.75 1.01.75 1.651 0 .649-.25 1.206-.75 1.672-.48.46-1.08.689-1.77.689Zm13.63 19.283c-1.72 0-3.2-.364-4.44-1.093a7.372 7.372 0 0 1-2.84-3.061c-.66-1.304-.99-2.806-.99-4.504 0-1.72.33-3.228 1-4.525.67-1.305 1.62-2.321 2.85-3.05 1.23-.736 2.7-1.104 4.39-1.104 1.47 0 2.75.266 3.85.798s1.97 1.279 2.61 2.241c.65.962 1 2.091 1.06 3.388h-4.39c-.12-.838-.45-1.512-.98-2.022-.53-.517-1.22-.776-2.07-.776-.72 0-1.35.197-1.89.59-.53.387-.95.951-1.25 1.695-.3.743-.45 1.643-.45 2.7 0 1.071.15 1.982.44 2.733.3.75.72 1.322 1.26 1.716.54.393 1.17.59 1.89.59.53 0 1.01-.109 1.43-.328.43-.218.79-.535 1.06-.951.29-.423.47-.929.56-1.519h4.39c-.07 1.282-.42 2.412-1.04 3.388-.62.97-1.48 1.728-2.57 2.274-1.1.547-2.39.82-3.88.82Zm18.13 0c-1.73 0-3.22-.35-4.46-1.049a7.193 7.193 0 0 1-2.87-2.996c-.67-1.297-1-2.831-1-4.602 0-1.727.33-3.243 1-4.547.67-1.305 1.62-2.321 2.84-3.05 1.22-.729 2.66-1.093 4.3-1.093 1.11 0 2.14.178 3.1.535.96.35 1.8.879 2.51 1.586.72.706 1.28 1.596 1.68 2.667.4 1.064.6 2.31.6 3.738v1.279h-14.17v-2.886h9.79c0-.67-.14-1.264-.44-1.781a3.098 3.098 0 0 0-1.21-1.214c-.51-.299-1.1-.448-1.78-.448-.71 0-1.33.164-1.88.492-.54.321-.96.754-1.27 1.301-.31.539-.46 1.14-.47 1.803v2.744c0 .831.15 1.549.46 2.154.31.605.75 1.071 1.32 1.399.57.328 1.24.492 2.02.492.52 0 1-.073 1.43-.219a2.96 2.96 0 0 0 1.1-.656c.31-.291.54-.648.7-1.071l4.31.284a5.878 5.878 0 0 1-1.35 2.711c-.67.765-1.54 1.363-2.6 1.793-1.06.423-2.28.634-3.66.634ZM1298 805v-22.387h8.96c1.65 0 3.02.244 4.12.732s1.93 1.166 2.48 2.033c.56.86.83 1.851.83 2.974 0 .874-.17 1.643-.52 2.306a4.48 4.48 0 0 1-1.45 1.618c-.6.415-1.29.71-2.07.885v.219c.85.036 1.65.277 2.39.721.75.445 1.36 1.068 1.83 1.87.46.794.7 1.741.7 2.842 0 1.188-.3 2.248-.89 3.181-.58.925-1.44 1.658-2.59 2.197-1.14.539-2.55.809-4.23.809H1298Zm4.73-3.87h3.86c1.32 0 2.28-.251 2.88-.754.61-.51.91-1.188.91-2.033 0-.62-.15-1.166-.45-1.64-.3-.474-.72-.845-1.28-1.115-.54-.27-1.2-.404-1.95-.404h-3.97v5.946Zm0-9.149h3.51c.65 0 1.22-.113 1.72-.339.52-.233.92-.561 1.21-.984.3-.423.45-.929.45-1.519 0-.809-.29-1.462-.87-1.957-.57-.496-1.38-.743-2.42-.743h-3.6v5.542Z" fill="#F5A800"/><rect x="105" y="274" width="114" height="934" rx="8" transform="rotate(-90 105 274)" fill="#90A8EC"/><path d="M130.946 227.5v-22.387h8.832c1.698 0 3.145.324 4.34.973 1.195.641 2.106 1.534 2.733 2.678.634 1.137.951 2.448.951 3.935s-.321 2.798-.962 3.935-1.571 2.023-2.788 2.657c-1.209.634-2.674.951-4.394.951h-5.63v-3.794h4.865c.911 0 1.661-.156 2.252-.47.597-.32 1.042-.761 1.333-1.322.299-.569.449-1.221.449-1.957 0-.743-.15-1.392-.449-1.946-.291-.561-.736-.995-1.333-1.301-.598-.313-1.356-.47-2.274-.47h-3.192V227.5h-4.733Zm24.18.317c-1.071 0-2.026-.186-2.864-.557a4.618 4.618 0 0 1-1.99-1.673c-.481-.743-.721-1.669-.721-2.777 0-.932.171-1.716.514-2.35a4.155 4.155 0 0 1 1.399-1.53 6.801 6.801 0 0 1 2.011-.875 15.4 15.4 0 0 1 2.383-.415 60.946 60.946 0 0 0 2.361-.284c.598-.095 1.032-.233 1.301-.416.27-.182.405-.451.405-.809v-.065c0-.692-.219-1.228-.656-1.607-.43-.379-1.042-.568-1.837-.568-.838 0-1.505.185-2 .557-.496.364-.824.823-.984 1.377l-4.307-.349c.219-1.021.649-1.903 1.29-2.646.641-.75 1.469-1.326 2.481-1.727 1.021-.408 2.201-.612 3.542-.612.933 0 1.826.109 2.678.328.86.218 1.622.557 2.285 1.016a4.945 4.945 0 0 1 1.585 1.771c.386.714.579 1.571.579 2.569V227.5h-4.416v-2.328h-.131c-.27.524-.63.987-1.082 1.388a5.023 5.023 0 0 1-1.629.929c-.634.219-1.366.328-2.197.328Zm1.333-3.214c.686 0 1.29-.135 1.815-.404a3.21 3.21 0 0 0 1.235-1.115c.299-.467.449-.995.449-1.585v-1.782a2.492 2.492 0 0 1-.602.262c-.247.073-.528.142-.841.208-.314.058-.627.113-.941.164l-.852.12a5.743 5.743 0 0 0-1.432.383c-.408.175-.725.412-.951.71-.226.292-.339.656-.339 1.093 0 .634.229 1.119.689 1.454.466.328 1.056.492 1.77.492Zm11.735 2.897v-16.791h4.515v2.93h.175c.306-1.042.82-1.829 1.541-2.361.722-.539 1.552-.809 2.492-.809.234 0 .485.015.755.044.269.029.506.069.71.12v4.132a6.013 6.013 0 0 0-.907-.175 8.146 8.146 0 0 0-1.06-.076c-.685 0-1.298.149-1.837.448a3.29 3.29 0 0 0-1.268 1.224c-.306.525-.459 1.13-.459 1.815v9.499h-4.657Zm19.466.328c-1.727 0-3.214-.35-4.46-1.049a7.192 7.192 0 0 1-2.864-2.996c-.67-1.297-1.005-2.831-1.005-4.602 0-1.727.335-3.243 1.005-4.547.671-1.305 1.614-2.321 2.831-3.05 1.225-.729 2.66-1.093 4.307-1.093 1.108 0 2.139.178 3.094.535.962.35 1.8.879 2.514 1.586.722.706 1.283 1.596 1.684 2.667.4 1.064.601 2.31.601 3.738v1.279h-14.178v-2.886h9.794c0-.67-.145-1.264-.437-1.781a3.132 3.132 0 0 0-1.213-1.214c-.51-.299-1.104-.448-1.782-.448-.707 0-1.334.164-1.88.492-.54.321-.962.754-1.268 1.301a3.668 3.668 0 0 0-.47 1.803v2.744c0 .831.153 1.549.459 2.154a3.358 3.358 0 0 0 1.322 1.399c.569.328 1.243.492 2.023.492.517 0 .991-.073 1.421-.219.43-.146.798-.364 1.104-.656a2.84 2.84 0 0 0 .699-1.071l4.307.284a5.869 5.869 0 0 1-1.344 2.711c-.671.765-1.538 1.363-2.602 1.793-1.056.423-2.277.634-3.662.634Zm15.402-10.035v9.707h-4.656v-16.791h4.438v2.963h.197a4.68 4.68 0 0 1 1.869-2.318c.874-.575 1.935-.863 3.181-.863 1.166 0 2.182.255 3.05.765.867.51 1.541 1.239 2.022 2.186.481.94.721 2.063.721 3.367V227.5h-4.656v-9.86c.007-1.028-.255-1.829-.787-2.405-.532-.583-1.265-.874-2.198-.874-.626 0-1.18.134-1.661.404-.474.27-.845.663-1.115 1.181-.262.51-.397 1.126-.405 1.847Zm23.424-7.084v3.499h-10.112v-3.499h10.112Zm-7.816-4.022h4.656v15.653c0 .43.066.766.197 1.006.131.233.314.397.547.492.24.095.517.142.83.142.219 0 .438-.018.656-.055l.503-.098.733 3.465c-.234.073-.562.157-.984.252a7.91 7.91 0 0 1-1.542.186c-1.122.043-2.106-.106-2.951-.449-.838-.342-1.49-.874-1.957-1.596-.466-.721-.696-1.632-.688-2.732v-16.266Zm30.206 4.864c-.088-.882-.463-1.567-1.126-2.055-.663-.488-1.563-.732-2.7-.732-.773 0-1.425.109-1.957.328-.532.211-.94.506-1.224.885a2.132 2.132 0 0 0-.416 1.29c-.014.401.069.751.252 1.049.189.299.448.558.776.777a5.9 5.9 0 0 0 1.137.557c.43.153.889.284 1.377.394l2.011.481c.977.218 1.873.51 2.689.874a8.138 8.138 0 0 1 2.121 1.345 5.577 5.577 0 0 1 1.388 1.88c.336.721.507 1.548.514 2.481-.007 1.37-.357 2.558-1.049 3.564-.685.998-1.676 1.774-2.974 2.328-1.289.547-2.845.82-4.667.82-1.808 0-3.382-.277-4.723-.831-1.333-.554-2.375-1.373-3.126-2.459-.743-1.093-1.133-2.445-1.17-4.056h4.581c.051.751.266 1.378.645 1.88.386.496.9.871 1.541 1.126.649.248 1.381.372 2.197.372.802 0 1.498-.117 2.088-.35.598-.233 1.06-.557 1.388-.973.328-.415.492-.892.492-1.432 0-.503-.149-.925-.448-1.268-.291-.342-.721-.634-1.29-.874-.561-.241-1.25-.459-2.066-.656l-2.438-.612c-1.887-.459-3.377-1.177-4.47-2.154-1.094-.976-1.637-2.292-1.629-3.946-.008-1.355.353-2.54 1.082-3.553.736-1.013 1.745-1.803 3.028-2.372 1.283-.568 2.74-.852 4.372-.852 1.662 0 3.112.284 4.351.852 1.246.569 2.216 1.359 2.908 2.372.692 1.013 1.049 2.187 1.071 3.52h-4.536Zm7.938 22.245v-23.087h4.592v2.821h.207c.204-.452.5-.911.886-1.378.393-.473.903-.867 1.53-1.18.634-.321 1.421-.481 2.361-.481 1.225 0 2.354.321 3.389.962 1.035.634 1.862 1.592 2.481 2.875.62 1.275.93 2.875.93 4.799 0 1.873-.303 3.454-.908 4.744-.597 1.282-1.413 2.255-2.448 2.918-1.028.656-2.179.984-3.455.984-.903 0-1.672-.149-2.306-.448-.627-.299-1.141-.674-1.541-1.126a5.74 5.74 0 0 1-.919-1.388h-.142v8.985h-4.657Zm4.559-14.691c0 .998.138 1.869.415 2.612.277.744.678 1.323 1.203 1.738.524.409 1.162.613 1.913.613.758 0 1.399-.208 1.924-.624.524-.422.921-1.005 1.191-1.749.277-.75.415-1.614.415-2.59 0-.97-.134-1.822-.404-2.558-.27-.736-.667-1.312-1.191-1.727-.525-.416-1.17-.623-1.935-.623-.758 0-1.4.2-1.924.601-.518.401-.915.969-1.192 1.705-.277.736-.415 1.603-.415 2.602Zm19.709 8.712c-1.071 0-2.026-.186-2.864-.557a4.61 4.61 0 0 1-1.989-1.673c-.481-.743-.722-1.669-.722-2.777 0-.932.171-1.716.514-2.35a4.155 4.155 0 0 1 1.399-1.53 6.801 6.801 0 0 1 2.011-.875 15.421 15.421 0 0 1 2.383-.415 61.28 61.28 0 0 0 2.362-.284c.597-.095 1.031-.233 1.3-.416.27-.182.405-.451.405-.809v-.065c0-.692-.219-1.228-.656-1.607-.43-.379-1.042-.568-1.836-.568-.839 0-1.505.185-2.001.557-.495.364-.823.823-.984 1.377l-4.307-.349c.219-1.021.649-1.903 1.29-2.646.642-.75 1.469-1.326 2.482-1.727 1.02-.408 2.2-.612 3.541-.612.933 0 1.826.109 2.679.328a6.99 6.99 0 0 1 2.284 1.016 4.945 4.945 0 0 1 1.585 1.771c.387.714.58 1.571.58 2.569V227.5h-4.417v-2.328h-.131c-.269.524-.63.987-1.082 1.388a5.023 5.023 0 0 1-1.629.929c-.634.219-1.366.328-2.197.328Zm1.334-3.214c.685 0 1.29-.135 1.814-.404a3.21 3.21 0 0 0 1.235-1.115c.299-.467.449-.995.449-1.585v-1.782a2.474 2.474 0 0 1-.602.262c-.247.073-.528.142-.841.208-.314.058-.627.113-.94.164l-.853.12a5.743 5.743 0 0 0-1.432.383c-.408.175-.725.412-.951.71-.226.292-.339.656-.339 1.093 0 .634.23 1.119.689 1.454.466.328 1.056.492 1.771.492Zm16.391-6.81v9.707h-4.657v-16.791h4.439v2.963h.196a4.687 4.687 0 0 1 1.87-2.318c.874-.575 1.934-.863 3.181-.863 1.166 0 2.182.255 3.049.765.868.51 1.542 1.239 2.023 2.186.481.94.721 2.063.721 3.367V227.5h-4.657v-9.86c.008-1.028-.255-1.829-.787-2.405-.532-.583-1.264-.874-2.197-.874-.627 0-1.18.134-1.661.404-.474.27-.846.663-1.115 1.181-.263.51-.398 1.126-.405 1.847Z" fill="#fff"/><g filter="url(#a)"><path d="M352 194c0-5.523 4.477-10 10-10h128.996c5.525 0 10.004 4.479 10.004 10.004v45.992c0 5.525-4.479 10.004-10.004 10.004H362c-5.523 0-10-4.477-10-10v-46Z" fill="#fff"/><path d="M392.239 212.495h-2.643c-.157-.76-.43-1.428-.821-2.004a5.483 5.483 0 0 0-1.407-1.449 5.965 5.965 0 0 0-1.822-.895 7.276 7.276 0 0 0-2.089-.299c-1.321 0-2.519.334-3.591 1.002-1.066.668-1.915 1.652-2.547 2.952-.626 1.3-.938 2.895-.938 4.785 0 1.89.312 3.485.938 4.785.632 1.3 1.481 2.284 2.547 2.952 1.072.668 2.27 1.002 3.591 1.002.725 0 1.421-.1 2.089-.298a6.105 6.105 0 0 0 1.822-.885 5.634 5.634 0 0 0 1.407-1.46c.391-.583.664-1.25.821-2.004h2.643c-.199 1.116-.562 2.114-1.087 2.995a8.198 8.198 0 0 1-1.961 2.249 8.595 8.595 0 0 1-2.633 1.396c-.966.32-2 .479-3.101.479-1.861 0-3.517-.454-4.966-1.364-1.449-.909-2.59-2.202-3.421-3.879s-1.247-3.666-1.247-5.968.416-4.291 1.247-5.968c.831-1.677 1.972-2.97 3.421-3.879 1.449-.91 3.105-1.364 4.966-1.364a9.83 9.83 0 0 1 3.101.479c.974.32 1.851.789 2.633 1.407a8.051 8.051 0 0 1 1.961 2.238c.525.874.888 1.872 1.087 2.995Zm6.445-6.821V227.5h-2.516v-21.826h2.516Zm4.606 21.826v-16.369h2.515V227.5h-2.515Zm1.279-19.098a1.79 1.79 0 0 1-1.268-.5 1.611 1.611 0 0 1-.522-1.205c0-.469.174-.87.522-1.204a1.788 1.788 0 0 1 1.268-.501c.49 0 .909.167 1.257.501.356.334.533.735.533 1.204s-.177.871-.533 1.205c-.348.333-.767.5-1.257.5Zm12.706 19.439c-1.577 0-2.938-.348-4.082-1.044-1.137-.704-2.014-1.684-2.632-2.942-.611-1.264-.917-2.735-.917-4.412s.306-3.154.917-4.433c.618-1.286 1.478-2.288 2.579-3.005 1.108-.725 2.401-1.088 3.879-1.088.853 0 1.695.143 2.526.427a6.262 6.262 0 0 1 2.27 1.385c.682.633 1.225 1.471 1.63 2.515.405 1.045.608 2.331.608 3.858v1.066h-12.618v-2.174h10.06c0-.924-.185-1.748-.554-2.473a4.174 4.174 0 0 0-1.556-1.715c-.668-.42-1.456-.629-2.366-.629-1.002 0-1.868.248-2.6.746a4.893 4.893 0 0 0-1.673 1.918 5.633 5.633 0 0 0-.587 2.536v1.45c0 1.236.214 2.284.64 3.144.433.852 1.034 1.502 1.801 1.95.767.44 1.659.661 2.675.661.661 0 1.257-.093 1.79-.277a3.823 3.823 0 0 0 1.396-.853c.391-.384.693-.86.906-1.428l2.43.682a5.399 5.399 0 0 1-1.289 2.174c-.604.618-1.35 1.101-2.238 1.449-.889.342-1.887.512-2.995.512Zm13.119-10.188v9.847h-2.515v-16.369h2.43v2.557h.213a4.665 4.665 0 0 1 1.748-2.003c.781-.512 1.79-.768 3.026-.768 1.108 0 2.078.228 2.91.683.831.447 1.477 1.129 1.939 2.046.462.909.693 2.06.693 3.453V227.5h-2.515v-10.231c0-1.286-.334-2.288-1.002-3.005-.668-.725-1.584-1.087-2.75-1.087-.802 0-1.52.174-2.152.522-.626.348-1.119.856-1.482 1.524-.362.668-.543 1.478-.543 2.43Zm22.159-6.522v2.131h-8.483v-2.131h8.483Zm-6.011-3.922h2.515v15.602c0 .71.103 1.243.309 1.598.213.349.483.583.81.704.334.113.686.17 1.055.17.277 0 .505-.014.682-.042l.427-.086.511 2.26c-.17.064-.408.128-.714.192-.305.071-.693.106-1.162.106-.71 0-1.406-.153-2.088-.458a4.15 4.15 0 0 1-1.684-1.396c-.441-.625-.661-1.414-.661-2.366v-16.284Zm13.13-1.535V227.5h-2.643v-21.826h2.643Zm11.139 22.167c-1.364 0-2.568-.345-3.613-1.034-1.044-.696-1.861-1.676-2.451-2.941-.59-1.272-.884-2.774-.884-4.508 0-1.719.294-3.211.884-4.476.59-1.265 1.41-2.242 2.462-2.931 1.051-.689 2.266-1.034 3.645-1.034 1.065 0 1.907.178 2.525.533.626.348 1.102.746 1.428 1.194.334.44.594.803.778 1.087h.214v-8.057h2.515V227.5h-2.43v-2.515h-.299c-.184.298-.447.675-.788 1.13-.341.447-.828.849-1.46 1.204-.633.348-1.474.522-2.526.522Zm.341-2.259c1.009 0 1.862-.263 2.558-.789.696-.533 1.225-1.268 1.588-2.206.362-.945.543-2.035.543-3.272 0-1.222-.177-2.291-.533-3.207-.355-.924-.881-1.642-1.577-2.153-.696-.519-1.556-.778-2.579-.778-1.066 0-1.954.273-2.664.82-.704.54-1.233 1.276-1.588 2.206-.348.924-.522 1.961-.522 3.112 0 1.165.177 2.224.533 3.176.362.945.895 1.698 1.598 2.259.711.555 1.592.832 2.643.832Z" fill="#7D88A1"/></g><rect x="205" y="426" width="114" height="438" rx="8" transform="rotate(-90 205 426)" fill="#E7ECF8"/><path d="M269.699 364.95h-4.788a4.686 4.686 0 0 0-.536-1.65 4.21 4.21 0 0 0-1.038-1.246 4.56 4.56 0 0 0-1.465-.787 5.585 5.585 0 0 0-1.782-.274c-1.159 0-2.168.288-3.028.864-.86.568-1.527 1.399-2 2.492-.474 1.086-.711 2.405-.711 3.957 0 1.596.237 2.937.711 4.023.481 1.086 1.151 1.906 2.011 2.46.86.553 1.855.83 2.984.83a5.89 5.89 0 0 0 1.76-.251 4.646 4.646 0 0 0 1.454-.732 4.208 4.208 0 0 0 1.049-1.192c.285-.466.481-.998.591-1.596l4.788.022a8.673 8.673 0 0 1-.929 2.973 8.929 8.929 0 0 1-1.979 2.547c-.824.744-1.807 1.334-2.952 1.771-1.136.43-2.423.645-3.858.645-1.997 0-3.783-.452-5.357-1.355-1.566-.904-2.805-2.212-3.716-3.925-.904-1.712-1.356-3.786-1.356-6.22 0-2.441.459-4.518 1.378-6.231.918-1.712 2.164-3.017 3.738-3.913 1.574-.904 3.345-1.355 5.313-1.355 1.297 0 2.499.182 3.607.546a9.159 9.159 0 0 1 2.962 1.596 8.199 8.199 0 0 1 2.099 2.547c.547 1.006.897 2.157 1.05 3.454Zm7.963 4.843v9.707h-4.657v-22.387h4.526v8.559h.197c.379-.991.991-1.767 1.836-2.328.846-.569 1.906-.853 3.181-.853 1.166 0 2.183.255 3.05.765.875.503 1.552 1.228 2.033 2.175.489.94.729 2.066.722 3.378V379.5h-4.657v-9.86c.007-1.035-.255-1.84-.787-2.416-.525-.576-1.261-.863-2.208-.863-.634 0-1.195.134-1.684.404a2.86 2.86 0 0 0-1.136 1.181c-.27.51-.409 1.126-.416 1.847Zm14.552 9.707v-16.791h4.657V379.5h-4.657Zm2.351-18.955a2.525 2.525 0 0 1-1.782-.689c-.496-.466-.743-1.023-.743-1.672 0-.641.247-1.192.743-1.651a2.496 2.496 0 0 1 1.771-.699c.699 0 1.293.233 1.782.699.495.459.743 1.01.743 1.651 0 .649-.248 1.206-.743 1.672-.489.46-1.079.689-1.771.689Zm10.693-3.432V379.5h-4.656v-22.387h4.656Zm9.918 22.66c-1.276 0-2.431-.328-3.466-.984-1.027-.663-1.843-1.636-2.448-2.918-.598-1.29-.896-2.871-.896-4.744 0-1.924.309-3.524.929-4.799.619-1.283 1.443-2.241 2.47-2.875a6.333 6.333 0 0 1 3.4-.962c.94 0 1.723.16 2.35.481.634.313 1.144.707 1.53 1.18.394.467.693.926.897 1.378h.142v-8.417h4.646V379.5h-4.591v-2.689h-.197a6.044 6.044 0 0 1-.929 1.388c-.394.452-.908.827-1.542 1.126-.626.299-1.392.448-2.295.448Zm1.475-3.705c.751 0 1.385-.204 1.902-.613.525-.415.926-.994 1.203-1.738.284-.743.426-1.614.426-2.612 0-.999-.138-1.866-.415-2.602-.277-.736-.678-1.304-1.203-1.705-.524-.401-1.162-.601-1.913-.601-.765 0-1.41.207-1.934.623-.525.415-.922.991-1.192 1.727-.27.736-.404 1.588-.404 2.558 0 .976.134 1.84.404 2.59.277.744.674 1.327 1.192 1.749.524.416 1.169.624 1.934.624Zm31.264-12.517c-.087-.882-.463-1.567-1.126-2.055-.663-.488-1.563-.732-2.7-.732-.772 0-1.425.109-1.957.328-.532.211-.94.506-1.224.885a2.13 2.13 0 0 0-.415 1.29c-.015.401.069.751.251 1.049.19.299.448.558.776.777a5.9 5.9 0 0 0 1.137.557c.43.153.889.284 1.377.394l2.012.481c.976.218 1.873.51 2.689.874a8.172 8.172 0 0 1 2.121 1.345 5.59 5.59 0 0 1 1.388 1.88c.335.721.506 1.548.514 2.481-.008 1.37-.357 2.558-1.05 3.564-.685.998-1.676 1.774-2.973 2.328-1.29.547-2.846.82-4.668.82-1.807 0-3.381-.277-4.722-.831-1.334-.554-2.376-1.373-3.126-2.459-.744-1.093-1.134-2.445-1.17-4.056h4.58c.051.751.266 1.378.645 1.88.386.496.9.871 1.541 1.126.649.248 1.381.372 2.198.372.801 0 1.497-.117 2.087-.35.598-.233 1.061-.557 1.389-.973.328-.415.492-.892.492-1.432 0-.503-.15-.925-.449-1.268-.291-.342-.721-.634-1.289-.874-.562-.241-1.25-.459-2.066-.656l-2.438-.612c-1.888-.459-3.378-1.177-4.471-2.154-1.093-.976-1.636-2.292-1.629-3.946-.007-1.355.354-2.54 1.082-3.553.736-1.013 1.746-1.803 3.028-2.372 1.283-.568 2.74-.852 4.373-.852 1.661 0 3.112.284 4.351.852 1.246.569 2.215 1.359 2.907 2.372.693 1.013 1.05 2.187 1.072 3.52h-4.537Zm7.939 22.245v-23.087h4.591v2.821h.208c.204-.452.499-.911.885-1.378.394-.473.904-.867 1.531-1.18.634-.321 1.421-.481 2.361-.481a6.31 6.31 0 0 1 3.388.962c1.035.634 1.862 1.592 2.482 2.875.619 1.275.929 2.875.929 4.799 0 1.873-.302 3.454-.907 4.744-.598 1.282-1.414 2.255-2.449 2.918-1.027.656-2.179.984-3.454.984-.904 0-1.673-.149-2.307-.448-.626-.299-1.14-.674-1.541-1.126a5.706 5.706 0 0 1-.918-1.388h-.142v8.985h-4.657Zm4.558-14.691c0 .998.139 1.869.416 2.612.277.744.677 1.323 1.202 1.738.525.409 1.162.613 1.913.613.758 0 1.399-.208 1.924-.624.525-.422.922-1.005 1.192-1.749.276-.75.415-1.614.415-2.59 0-.97-.135-1.822-.405-2.558-.269-.736-.666-1.312-1.191-1.727-.525-.416-1.17-.623-1.935-.623-.758 0-1.399.2-1.924.601-.517.401-.914.969-1.191 1.705-.277.736-.416 1.603-.416 2.602Zm19.709 8.712c-1.071 0-2.025-.186-2.864-.557a4.61 4.61 0 0 1-1.989-1.673c-.481-.743-.722-1.669-.722-2.777 0-.932.172-1.716.514-2.35a4.163 4.163 0 0 1 1.399-1.53 6.807 6.807 0 0 1 2.012-.875 15.4 15.4 0 0 1 2.383-.415 61.437 61.437 0 0 0 2.361-.284c.598-.095 1.031-.233 1.301-.416.269-.182.404-.451.404-.809v-.065c0-.692-.218-1.228-.656-1.607-.43-.379-1.042-.568-1.836-.568-.838 0-1.505.185-2 .557-.496.364-.824.823-.984 1.377l-4.307-.349c.218-1.021.648-1.903 1.29-2.646.641-.75 1.468-1.326 2.481-1.727 1.02-.408 2.201-.612 3.542-.612.933 0 1.825.109 2.678.328.86.218 1.621.557 2.285 1.016.67.46 1.198 1.05 1.585 1.771.386.714.579 1.571.579 2.569V379.5h-4.416v-2.328h-.131c-.27.524-.631.987-1.083 1.388a5.008 5.008 0 0 1-1.628.929c-.634.219-1.367.328-2.198.328Zm1.334-3.214c.685 0 1.29-.135 1.815-.404a3.224 3.224 0 0 0 1.235-1.115c.299-.467.448-.995.448-1.585v-1.782a2.482 2.482 0 0 1-.601.262c-.248.073-.528.142-.842.208-.313.058-.627.113-.94.164l-.853.12a5.766 5.766 0 0 0-1.432.383c-.408.175-.725.412-.951.71-.226.292-.338.656-.338 1.093 0 .634.229 1.119.688 1.454.467.328 1.057.492 1.771.492Zm16.392-6.81v9.707h-4.657v-16.791h4.438v2.963h.197a4.68 4.68 0 0 1 1.869-2.318c.874-.575 1.935-.863 3.181-.863 1.166 0 2.183.255 3.05.765s1.541 1.239 2.022 2.186c.481.94.722 2.063.722 3.367V379.5h-4.657v-9.86c.007-1.028-.255-1.829-.787-2.405-.532-.583-1.265-.874-2.197-.874-.627 0-1.181.134-1.662.404-.474.27-.845.663-1.115 1.181-.262.51-.397 1.126-.404 1.847Z" fill="#8FA5ED"/><g filter="url(#b)"><path d="M451 346c0-5.523 4.477-10 10-10h128.996c5.525 0 10.004 4.479 10.004 10.004v45.992c0 5.525-4.479 10.004-10.004 10.004H461c-5.523 0-10-4.477-10-10v-46Z" fill="#fff"/><path d="M491.239 364.495h-2.643c-.157-.76-.43-1.428-.821-2.004a5.483 5.483 0 0 0-1.407-1.449 5.965 5.965 0 0 0-1.822-.895 7.276 7.276 0 0 0-2.089-.299c-1.321 0-2.519.334-3.591 1.002-1.066.668-1.915 1.652-2.547 2.952-.626 1.3-.938 2.895-.938 4.785 0 1.89.312 3.485.938 4.785.632 1.3 1.481 2.284 2.547 2.952 1.072.668 2.27 1.002 3.591 1.002.725 0 1.421-.1 2.089-.298a6.105 6.105 0 0 0 1.822-.885 5.634 5.634 0 0 0 1.407-1.46c.391-.583.664-1.25.821-2.004h2.643c-.199 1.116-.562 2.114-1.087 2.995a8.198 8.198 0 0 1-1.961 2.249 8.595 8.595 0 0 1-2.633 1.396c-.966.32-2 .479-3.101.479-1.861 0-3.517-.454-4.966-1.364-1.449-.909-2.59-2.202-3.421-3.879s-1.247-3.666-1.247-5.968.416-4.291 1.247-5.968c.831-1.677 1.972-2.97 3.421-3.879 1.449-.91 3.105-1.364 4.966-1.364a9.83 9.83 0 0 1 3.101.479c.974.32 1.851.789 2.633 1.407a8.051 8.051 0 0 1 1.961 2.238c.525.874.888 1.872 1.087 2.995Zm6.445-6.821V379.5h-2.516v-21.826h2.516Zm4.606 21.826v-16.369h2.515V379.5h-2.515Zm1.279-19.098a1.79 1.79 0 0 1-1.268-.5 1.611 1.611 0 0 1-.522-1.205c0-.469.174-.87.522-1.204a1.788 1.788 0 0 1 1.268-.501c.49 0 .909.167 1.257.501.356.334.533.735.533 1.204s-.177.871-.533 1.205c-.348.333-.767.5-1.257.5Zm12.706 19.439c-1.577 0-2.938-.348-4.082-1.044-1.137-.704-2.014-1.684-2.632-2.942-.611-1.264-.917-2.735-.917-4.412s.306-3.154.917-4.433c.618-1.286 1.478-2.288 2.579-3.005 1.108-.725 2.401-1.088 3.879-1.088.853 0 1.695.143 2.526.427a6.262 6.262 0 0 1 2.27 1.385c.682.633 1.225 1.471 1.63 2.515.405 1.045.608 2.331.608 3.858v1.066h-12.618v-2.174h10.06c0-.924-.185-1.748-.554-2.473a4.174 4.174 0 0 0-1.556-1.715c-.668-.42-1.456-.629-2.366-.629-1.002 0-1.868.248-2.6.746a4.893 4.893 0 0 0-1.673 1.918 5.633 5.633 0 0 0-.587 2.536v1.45c0 1.236.214 2.284.64 3.144.433.852 1.034 1.502 1.801 1.95.767.44 1.659.661 2.675.661.661 0 1.257-.093 1.79-.277a3.823 3.823 0 0 0 1.396-.853c.391-.384.693-.86.906-1.428l2.43.682a5.399 5.399 0 0 1-1.289 2.174c-.604.618-1.35 1.101-2.238 1.449-.889.342-1.887.512-2.995.512Zm13.119-10.188v9.847h-2.515v-16.369h2.43v2.557h.213a4.665 4.665 0 0 1 1.748-2.003c.781-.512 1.79-.768 3.026-.768 1.108 0 2.078.228 2.91.683.831.447 1.477 1.129 1.939 2.046.462.909.693 2.06.693 3.453V379.5h-2.515v-10.231c0-1.286-.334-2.288-1.002-3.005-.668-.725-1.584-1.087-2.75-1.087-.802 0-1.52.174-2.152.522-.626.348-1.119.856-1.482 1.524-.362.668-.543 1.478-.543 2.43Zm22.159-6.522v2.131h-8.483v-2.131h8.483Zm-6.011-3.922h2.515v15.602c0 .71.103 1.243.309 1.598.213.349.483.583.81.704.334.113.686.17 1.055.17.277 0 .505-.014.682-.042l.427-.086.511 2.26c-.17.064-.408.128-.714.192-.305.071-.693.106-1.162.106-.71 0-1.406-.153-2.088-.458a4.15 4.15 0 0 1-1.684-1.396c-.441-.625-.661-1.414-.661-2.366v-16.284Zm13.13-1.535V379.5h-2.643v-21.826h2.643Zm11.139 22.167c-1.364 0-2.568-.345-3.613-1.034-1.044-.696-1.861-1.676-2.451-2.941-.59-1.272-.884-2.774-.884-4.508 0-1.719.294-3.211.884-4.476.59-1.265 1.41-2.242 2.462-2.931 1.051-.689 2.266-1.034 3.645-1.034 1.065 0 1.907.178 2.525.533.626.348 1.102.746 1.428 1.194.334.44.594.803.778 1.087h.214v-8.057h2.515V379.5h-2.43v-2.515h-.299c-.184.298-.447.675-.788 1.13-.341.447-.828.849-1.46 1.204-.633.348-1.474.522-2.526.522Zm.341-2.259c1.009 0 1.862-.263 2.558-.789.696-.533 1.225-1.268 1.588-2.206.362-.945.543-2.035.543-3.272 0-1.222-.177-2.291-.533-3.207-.355-.924-.881-1.642-1.577-2.153-.696-.519-1.556-.778-2.579-.778-1.066 0-1.954.273-2.664.82-.704.54-1.233 1.276-1.588 2.206-.348.924-.522 1.961-.522 3.112 0 1.165.177 2.224.533 3.176.362.945.895 1.698 1.598 2.259.711.555 1.592.832 2.643.832Z" fill="#7D88A1"/></g><rect x="312" y="578" width="114" height="438" rx="8" transform="rotate(-90 312 578)" fill="#E7ECF8"/><path d="M376.699 516.95h-4.788a4.686 4.686 0 0 0-.536-1.65 4.21 4.21 0 0 0-1.038-1.246 4.56 4.56 0 0 0-1.465-.787 5.585 5.585 0 0 0-1.782-.274c-1.159 0-2.168.288-3.028.864-.86.568-1.527 1.399-2 2.492-.474 1.086-.711 2.405-.711 3.957 0 1.596.237 2.937.711 4.023.481 1.086 1.151 1.906 2.011 2.46.86.553 1.855.83 2.984.83a5.89 5.89 0 0 0 1.76-.251 4.646 4.646 0 0 0 1.454-.732 4.208 4.208 0 0 0 1.049-1.192c.285-.466.481-.998.591-1.596l4.788.022a8.673 8.673 0 0 1-.929 2.973 8.929 8.929 0 0 1-1.979 2.547c-.824.744-1.807 1.334-2.952 1.771-1.136.43-2.423.645-3.858.645-1.997 0-3.783-.452-5.357-1.355-1.566-.904-2.805-2.212-3.716-3.925-.904-1.712-1.356-3.786-1.356-6.22 0-2.441.459-4.518 1.378-6.231.918-1.712 2.164-3.017 3.738-3.913 1.574-.904 3.345-1.355 5.313-1.355 1.297 0 2.499.182 3.607.546a9.159 9.159 0 0 1 2.962 1.596 8.199 8.199 0 0 1 2.099 2.547c.547 1.006.897 2.157 1.05 3.454Zm7.963 4.843v9.707h-4.657v-22.387h4.526v8.559h.197c.379-.991.991-1.767 1.836-2.328.846-.569 1.906-.853 3.181-.853 1.166 0 2.183.255 3.05.765.875.503 1.552 1.228 2.033 2.175.489.94.729 2.066.722 3.378V531.5h-4.657v-9.86c.007-1.035-.255-1.84-.787-2.416-.525-.576-1.261-.863-2.208-.863-.634 0-1.195.134-1.684.404a2.86 2.86 0 0 0-1.136 1.181c-.27.51-.409 1.126-.416 1.847Zm14.552 9.707v-16.791h4.657V531.5h-4.657Zm2.351-18.955a2.525 2.525 0 0 1-1.782-.689c-.496-.466-.743-1.023-.743-1.672 0-.641.247-1.192.743-1.651a2.496 2.496 0 0 1 1.771-.699c.699 0 1.293.233 1.782.699.495.459.743 1.01.743 1.651 0 .649-.248 1.206-.743 1.672-.489.46-1.079.689-1.771.689Zm10.693-3.432V531.5h-4.656v-22.387h4.656Zm9.918 22.66c-1.276 0-2.431-.328-3.466-.984-1.027-.663-1.843-1.636-2.448-2.918-.598-1.29-.896-2.871-.896-4.744 0-1.924.309-3.524.929-4.799.619-1.283 1.443-2.241 2.47-2.875a6.333 6.333 0 0 1 3.4-.962c.94 0 1.723.16 2.35.481.634.313 1.144.707 1.53 1.18.394.467.693.926.897 1.378h.142v-8.417h4.646V531.5h-4.591v-2.689h-.197a6.044 6.044 0 0 1-.929 1.388c-.394.452-.908.827-1.542 1.126-.626.299-1.392.448-2.295.448Zm1.475-3.705c.751 0 1.385-.204 1.902-.613.525-.415.926-.994 1.203-1.738.284-.743.426-1.614.426-2.612 0-.999-.138-1.866-.415-2.602-.277-.736-.678-1.304-1.203-1.705-.524-.401-1.162-.601-1.913-.601-.765 0-1.41.207-1.934.623-.525.415-.922.991-1.192 1.727-.27.736-.404 1.588-.404 2.558 0 .976.134 1.84.404 2.59.277.744.674 1.327 1.192 1.749.524.416 1.169.624 1.934.624Zm31.264-12.517c-.087-.882-.463-1.567-1.126-2.055-.663-.488-1.563-.732-2.7-.732-.772 0-1.425.109-1.957.328-.532.211-.94.506-1.224.885a2.13 2.13 0 0 0-.415 1.29c-.015.401.069.751.251 1.049.19.299.448.558.776.777a5.9 5.9 0 0 0 1.137.557c.43.153.889.284 1.377.394l2.012.481c.976.218 1.873.51 2.689.874a8.172 8.172 0 0 1 2.121 1.345 5.59 5.59 0 0 1 1.388 1.88c.335.721.506 1.548.514 2.481-.008 1.37-.357 2.558-1.05 3.564-.685.998-1.676 1.774-2.973 2.328-1.29.547-2.846.82-4.668.82-1.807 0-3.381-.277-4.722-.831-1.334-.554-2.376-1.373-3.126-2.459-.744-1.093-1.134-2.445-1.17-4.056h4.58c.051.751.266 1.378.645 1.88.386.496.9.871 1.541 1.126.649.248 1.381.372 2.198.372.801 0 1.497-.117 2.087-.35.598-.233 1.061-.557 1.389-.973.328-.415.492-.892.492-1.432 0-.503-.15-.925-.449-1.268-.291-.342-.721-.634-1.289-.874-.562-.241-1.25-.459-2.066-.656l-2.438-.612c-1.888-.459-3.378-1.177-4.471-2.154-1.093-.976-1.636-2.292-1.629-3.946-.007-1.355.354-2.54 1.082-3.553.736-1.013 1.746-1.803 3.028-2.372 1.283-.568 2.74-.852 4.373-.852 1.661 0 3.112.284 4.351.852 1.246.569 2.215 1.359 2.907 2.372.693 1.013 1.05 2.187 1.072 3.52h-4.537Zm7.939 22.245v-23.087h4.591v2.821h.208c.204-.452.499-.911.885-1.378.394-.473.904-.867 1.531-1.18.634-.321 1.421-.481 2.361-.481a6.31 6.31 0 0 1 3.388.962c1.035.634 1.862 1.592 2.482 2.875.619 1.275.929 2.875.929 4.799 0 1.873-.302 3.454-.907 4.744-.598 1.282-1.414 2.255-2.449 2.918-1.027.656-2.179.984-3.454.984-.904 0-1.673-.149-2.307-.448-.626-.299-1.14-.674-1.541-1.126a5.706 5.706 0 0 1-.918-1.388h-.142v8.985h-4.657Zm4.558-14.691c0 .998.139 1.869.416 2.612.277.744.677 1.323 1.202 1.738.525.409 1.162.613 1.913.613.758 0 1.399-.208 1.924-.624.525-.422.922-1.005 1.192-1.749.276-.75.415-1.614.415-2.59 0-.97-.135-1.822-.405-2.558-.269-.736-.666-1.312-1.191-1.727-.525-.416-1.17-.623-1.935-.623-.758 0-1.399.2-1.924.601-.517.401-.914.969-1.191 1.705-.277.736-.416 1.603-.416 2.602Zm19.709 8.712c-1.071 0-2.025-.186-2.864-.557a4.61 4.61 0 0 1-1.989-1.673c-.481-.743-.722-1.669-.722-2.777 0-.932.172-1.716.514-2.35a4.163 4.163 0 0 1 1.399-1.53 6.807 6.807 0 0 1 2.012-.875 15.4 15.4 0 0 1 2.383-.415 61.437 61.437 0 0 0 2.361-.284c.598-.095 1.031-.233 1.301-.416.269-.182.404-.451.404-.809v-.065c0-.692-.218-1.228-.656-1.607-.43-.379-1.042-.568-1.836-.568-.838 0-1.505.185-2 .557-.496.364-.824.823-.984 1.377l-4.307-.349c.218-1.021.648-1.903 1.29-2.646.641-.75 1.468-1.326 2.481-1.727 1.02-.408 2.201-.612 3.542-.612.933 0 1.825.109 2.678.328.86.218 1.621.557 2.285 1.016.67.46 1.198 1.05 1.585 1.771.386.714.579 1.571.579 2.569V531.5h-4.416v-2.328h-.131c-.27.524-.631.987-1.083 1.388a5.008 5.008 0 0 1-1.628.929c-.634.219-1.367.328-2.198.328Zm1.334-3.214c.685 0 1.29-.135 1.815-.404a3.224 3.224 0 0 0 1.235-1.115c.299-.467.448-.995.448-1.585v-1.782a2.482 2.482 0 0 1-.601.262c-.248.073-.528.142-.842.208-.313.058-.627.113-.94.164l-.853.12a5.766 5.766 0 0 0-1.432.383c-.408.175-.725.412-.951.71-.226.292-.338.656-.338 1.093 0 .634.229 1.119.688 1.454.467.328 1.057.492 1.771.492Zm16.392-6.81v9.707h-4.657v-16.791h4.438v2.963h.197a4.68 4.68 0 0 1 1.869-2.318c.874-.575 1.935-.863 3.181-.863 1.166 0 2.183.255 3.05.765s1.541 1.239 2.022 2.186c.481.94.722 2.063.722 3.367V531.5h-4.657v-9.86c.007-1.028-.255-1.829-.787-2.405-.532-.583-1.265-.874-2.197-.874-.627 0-1.181.134-1.662.404-.474.27-.845.663-1.115 1.181-.262.51-.397 1.126-.404 1.847Z" fill="#8FA5ED"/><g filter="url(#c)"><path d="M558 498c0-5.523 4.477-10 10-10h128.996c5.525 0 10.004 4.479 10.004 10.004v45.992c0 5.525-4.479 10.004-10.004 10.004H568c-5.523 0-10-4.477-10-10v-46Z" fill="#fff"/><path d="M598.239 516.495h-2.643c-.157-.76-.43-1.428-.821-2.004a5.483 5.483 0 0 0-1.407-1.449 5.965 5.965 0 0 0-1.822-.895 7.276 7.276 0 0 0-2.089-.299c-1.321 0-2.519.334-3.591 1.002-1.066.668-1.915 1.652-2.547 2.952-.626 1.3-.938 2.895-.938 4.785 0 1.89.312 3.485.938 4.785.632 1.3 1.481 2.284 2.547 2.952 1.072.668 2.27 1.002 3.591 1.002.725 0 1.421-.1 2.089-.298a6.105 6.105 0 0 0 1.822-.885 5.634 5.634 0 0 0 1.407-1.46c.391-.583.664-1.25.821-2.004h2.643c-.199 1.116-.562 2.114-1.087 2.995a8.198 8.198 0 0 1-1.961 2.249 8.595 8.595 0 0 1-2.633 1.396c-.966.32-2 .479-3.101.479-1.861 0-3.517-.454-4.966-1.364-1.449-.909-2.59-2.202-3.421-3.879s-1.247-3.666-1.247-5.968.416-4.291 1.247-5.968c.831-1.677 1.972-2.97 3.421-3.879 1.449-.91 3.105-1.364 4.966-1.364a9.83 9.83 0 0 1 3.101.479c.974.32 1.851.789 2.633 1.407a8.051 8.051 0 0 1 1.961 2.238c.525.874.888 1.872 1.087 2.995Zm6.445-6.821V531.5h-2.516v-21.826h2.516Zm4.606 21.826v-16.369h2.515V531.5h-2.515Zm1.279-19.098a1.79 1.79 0 0 1-1.268-.5 1.611 1.611 0 0 1-.522-1.205c0-.469.174-.87.522-1.204a1.788 1.788 0 0 1 1.268-.501c.49 0 .909.167 1.257.501.356.334.533.735.533 1.204s-.177.871-.533 1.205c-.348.333-.767.5-1.257.5Zm12.706 19.439c-1.577 0-2.938-.348-4.082-1.044-1.137-.704-2.014-1.684-2.632-2.942-.611-1.264-.917-2.735-.917-4.412s.306-3.154.917-4.433c.618-1.286 1.478-2.288 2.579-3.005 1.108-.725 2.401-1.088 3.879-1.088.853 0 1.695.143 2.526.427a6.262 6.262 0 0 1 2.27 1.385c.682.633 1.225 1.471 1.63 2.515.405 1.045.608 2.331.608 3.858v1.066h-12.618v-2.174h10.06c0-.924-.185-1.748-.554-2.473a4.174 4.174 0 0 0-1.556-1.715c-.668-.42-1.456-.629-2.366-.629-1.002 0-1.868.248-2.6.746a4.893 4.893 0 0 0-1.673 1.918 5.633 5.633 0 0 0-.587 2.536v1.45c0 1.236.214 2.284.64 3.144.433.852 1.034 1.502 1.801 1.95.767.44 1.659.661 2.675.661.661 0 1.257-.093 1.79-.277a3.823 3.823 0 0 0 1.396-.853c.391-.384.693-.86.906-1.428l2.43.682a5.399 5.399 0 0 1-1.289 2.174c-.604.618-1.35 1.101-2.238 1.449-.889.342-1.887.512-2.995.512Zm13.119-10.188v9.847h-2.515v-16.369h2.43v2.557h.213a4.665 4.665 0 0 1 1.748-2.003c.781-.512 1.79-.768 3.026-.768 1.108 0 2.078.228 2.91.683.831.447 1.477 1.129 1.939 2.046.462.909.693 2.06.693 3.453V531.5h-2.515v-10.231c0-1.286-.334-2.288-1.002-3.005-.668-.725-1.584-1.087-2.75-1.087-.802 0-1.52.174-2.152.522-.626.348-1.119.856-1.482 1.524-.362.668-.543 1.478-.543 2.43Zm22.159-6.522v2.131h-8.483v-2.131h8.483Zm-6.011-3.922h2.515v15.602c0 .71.103 1.243.309 1.598.213.349.483.583.81.704.334.113.686.17 1.055.17.277 0 .505-.014.682-.042l.427-.086.511 2.26c-.17.064-.408.128-.714.192-.305.071-.693.106-1.162.106-.71 0-1.406-.153-2.088-.458a4.15 4.15 0 0 1-1.684-1.396c-.441-.625-.661-1.414-.661-2.366v-16.284Zm13.13-1.535V531.5h-2.643v-21.826h2.643Zm11.139 22.167c-1.364 0-2.568-.345-3.613-1.034-1.044-.696-1.861-1.676-2.451-2.941-.59-1.272-.884-2.774-.884-4.508 0-1.719.294-3.211.884-4.476.59-1.265 1.41-2.242 2.462-2.931 1.051-.689 2.266-1.034 3.645-1.034 1.065 0 1.907.178 2.525.533.626.348 1.102.746 1.428 1.194.334.44.594.803.778 1.087h.214v-8.057h2.515V531.5h-2.43v-2.515h-.299c-.184.298-.447.675-.788 1.13-.341.447-.828.849-1.46 1.204-.633.348-1.474.522-2.526.522Zm.341-2.259c1.009 0 1.862-.263 2.558-.789.696-.533 1.225-1.268 1.588-2.206.362-.945.543-2.035.543-3.272 0-1.222-.177-2.291-.533-3.207-.355-.924-.881-1.642-1.577-2.153-.696-.519-1.556-.778-2.579-.778-1.066 0-1.954.273-2.664.82-.704.54-1.233 1.276-1.588 2.206-.348.924-.522 1.961-.522 3.112 0 1.165.177 2.224.533 3.176.362.945.895 1.698 1.598 2.259.711.555 1.592.832 2.643.832Z" fill="#7D88A1"/></g><rect x="1147" y="731" width="114" height="457" rx="8" transform="rotate(-90 1147 731)" fill="#FFFAEB"/><path fill="#FFFAEB" d="M1184 641h383v66h-383z"/><path d="M1205.7 669.95h-4.79a4.939 4.939 0 0 0-.53-1.65 4.246 4.246 0 0 0-1.04-1.246 4.595 4.595 0 0 0-1.47-.787 5.546 5.546 0 0 0-1.78-.274c-1.16 0-2.17.288-3.03.864-.86.568-1.52 1.399-2 2.492-.47 1.086-.71 2.405-.71 3.957 0 1.596.24 2.937.71 4.023.48 1.086 1.15 1.906 2.01 2.46.86.553 1.86.83 2.99.83.63 0 1.22-.083 1.76-.251a4.668 4.668 0 0 0 1.45-.732c.42-.328.77-.726 1.05-1.192.28-.466.48-.998.59-1.596l4.79.022a8.697 8.697 0 0 1-.93 2.973 8.968 8.968 0 0 1-1.98 2.547c-.82.744-1.81 1.334-2.95 1.771-1.14.43-2.42.645-3.86.645-2 0-3.78-.452-5.36-1.355-1.56-.904-2.8-2.212-3.71-3.925-.91-1.712-1.36-3.786-1.36-6.22 0-2.441.46-4.518 1.38-6.231.92-1.712 2.16-3.017 3.74-3.913 1.57-.904 3.34-1.355 5.31-1.355 1.3 0 2.5.182 3.61.546 1.11.365 2.1.897 2.96 1.596a8.216 8.216 0 0 1 2.1 2.547c.55 1.006.9 2.157 1.05 3.454Zm7.96 4.843v9.707h-4.65v-22.387h4.52v8.559h.2c.38-.991.99-1.767 1.83-2.328.85-.569 1.91-.853 3.19-.853 1.16 0 2.18.255 3.05.765.87.503 1.55 1.228 2.03 2.175.49.94.73 2.066.72 3.378V684.5h-4.66v-9.86c.01-1.035-.25-1.84-.78-2.416-.53-.576-1.26-.863-2.21-.863-.64 0-1.2.134-1.69.404-.48.27-.86.663-1.13 1.181-.27.51-.41 1.126-.42 1.847Zm14.55 9.707v-16.791h4.66V684.5h-4.66Zm2.35-18.955c-.69 0-1.28-.229-1.78-.689-.49-.466-.74-1.023-.74-1.672 0-.641.25-1.192.74-1.651a2.51 2.51 0 0 1 1.77-.699c.7 0 1.3.233 1.79.699.49.459.74 1.01.74 1.651 0 .649-.25 1.206-.74 1.672-.49.46-1.08.689-1.78.689Zm10.7-3.432V684.5h-4.66v-22.387h4.66Zm9.92 22.66c-1.28 0-2.43-.328-3.47-.984-1.03-.663-1.84-1.636-2.45-2.918-.6-1.29-.89-2.871-.89-4.744 0-1.924.31-3.524.92-4.799.62-1.283 1.45-2.241 2.48-2.875a6.292 6.292 0 0 1 3.39-.962c.94 0 1.73.16 2.36.481.63.313 1.14.707 1.53 1.18.39.467.69.926.89 1.378h.14v-8.417h4.65V684.5h-4.59v-2.689h-.2c-.22.466-.53.929-.93 1.388-.39.452-.9.827-1.54 1.126-.63.299-1.39.448-2.29.448Zm1.47-3.705c.75 0 1.39-.204 1.9-.613.53-.415.93-.994 1.21-1.738.28-.743.42-1.614.42-2.612 0-.999-.14-1.866-.41-2.602-.28-.736-.68-1.304-1.21-1.705-.52-.401-1.16-.601-1.91-.601-.76 0-1.41.207-1.93.623-.53.415-.93.991-1.19 1.727-.27.736-.41 1.588-.41 2.558 0 .976.14 1.84.41 2.59.27.744.67 1.327 1.19 1.749.52.416 1.17.624 1.93.624Zm31.27-12.517c-.09-.882-.47-1.567-1.13-2.055-.66-.488-1.56-.732-2.7-.732-.77 0-1.43.109-1.96.328-.53.211-.94.506-1.22.885s-.42.809-.42 1.29c-.01.401.07.751.25 1.049.19.299.45.558.78.777.33.211.71.397 1.14.557.43.153.89.284 1.37.394l2.02.481c.97.218 1.87.51 2.68.874.82.364 1.53.813 2.13 1.345a5.554 5.554 0 0 1 1.38 1.88c.34.721.51 1.548.52 2.481-.01 1.37-.36 2.558-1.05 3.564-.69.998-1.68 1.774-2.98 2.328-1.29.547-2.84.82-4.66.82-1.81 0-3.38-.277-4.73-.831-1.33-.554-2.37-1.373-3.12-2.459-.74-1.093-1.13-2.445-1.17-4.056h4.58c.05.751.27 1.378.64 1.88.39.496.9.871 1.55 1.126.64.248 1.38.372 2.19.372.8 0 1.5-.117 2.09-.35.6-.233 1.06-.557 1.39-.973.33-.415.49-.892.49-1.432 0-.503-.15-.925-.45-1.268-.29-.342-.72-.634-1.29-.874-.56-.241-1.25-.459-2.06-.656l-2.44-.612c-1.89-.459-3.38-1.177-4.47-2.154-1.1-.976-1.64-2.292-1.63-3.946-.01-1.355.35-2.54 1.08-3.553.74-1.013 1.75-1.803 3.03-2.372 1.28-.568 2.74-.852 4.37-.852 1.66 0 3.11.284 4.35.852 1.25.569 2.22 1.359 2.91 2.372s1.05 2.187 1.07 3.52h-4.53Zm7.93 22.245v-23.087h4.6v2.821h.2c.21-.452.5-.911.89-1.378.39-.473.9-.867 1.53-1.18.63-.321 1.42-.481 2.36-.481 1.22 0 2.35.321 3.39.962 1.03.634 1.86 1.592 2.48 2.875.62 1.275.93 2.875.93 4.799 0 1.873-.3 3.454-.91 4.744-.6 1.282-1.41 2.255-2.45 2.918-1.02.656-2.18.984-3.45.984-.9 0-1.67-.149-2.31-.448-.62-.299-1.14-.674-1.54-1.126-.4-.459-.71-.922-.92-1.388h-.14v8.985h-4.66Zm4.56-14.691c0 .998.14 1.869.42 2.612.27.744.68 1.323 1.2 1.738.52.409 1.16.613 1.91.613.76 0 1.4-.208 1.93-.624.52-.422.92-1.005 1.19-1.749.28-.75.41-1.614.41-2.59 0-.97-.13-1.822-.4-2.558-.27-.736-.67-1.312-1.19-1.727-.53-.416-1.17-.623-1.94-.623-.75 0-1.4.2-1.92.601-.52.401-.92.969-1.19 1.705-.28.736-.42 1.603-.42 2.602Zm19.71 8.712c-1.07 0-2.02-.186-2.86-.557a4.613 4.613 0 0 1-1.99-1.673c-.48-.743-.72-1.669-.72-2.777 0-.932.17-1.716.51-2.35a4.14 4.14 0 0 1 1.4-1.53 6.795 6.795 0 0 1 2.01-.875c.76-.196 1.55-.335 2.38-.415.98-.102 1.77-.197 2.37-.284.59-.095 1.03-.233 1.3-.416.27-.182.4-.451.4-.809v-.065c0-.692-.22-1.228-.66-1.607-.43-.379-1.04-.568-1.83-.568-.84 0-1.51.185-2 .557-.5.364-.83.823-.99 1.377l-4.3-.349c.22-1.021.65-1.903 1.29-2.646.64-.75 1.47-1.326 2.48-1.727 1.02-.408 2.2-.612 3.54-.612.93 0 1.83.109 2.68.328a6.94 6.94 0 0 1 2.28 1.016c.67.46 1.2 1.05 1.59 1.771.38.714.58 1.571.58 2.569V684.5h-4.42v-2.328h-.13c-.27.524-.63.987-1.08 1.388-.45.393-1 .703-1.63.929-.64.219-1.37.328-2.2.328Zm1.34-3.214c.68 0 1.28-.135 1.81-.404.52-.277.94-.649 1.23-1.115.3-.467.45-.995.45-1.585v-1.782c-.14.095-.34.182-.6.262-.25.073-.53.142-.84.208-.31.058-.63.113-.94.164l-.85.12c-.55.08-1.03.208-1.43.383-.41.175-.73.412-.96.71-.22.292-.33.656-.33 1.093 0 .634.23 1.119.68 1.454.47.328 1.06.492 1.78.492Zm16.39-6.81v9.707h-4.66v-16.791h4.44v2.963h.19c.38-.977 1-1.749 1.87-2.318.88-.575 1.94-.863 3.18-.863 1.17 0 2.19.255 3.05.765.87.51 1.55 1.239 2.03 2.186.48.94.72 2.063.72 3.367V684.5h-4.66v-9.86c.01-1.028-.25-1.829-.79-2.405-.53-.583-1.26-.874-2.19-.874-.63 0-1.18.134-1.66.404s-.85.663-1.12 1.181c-.26.51-.4 1.126-.4 1.847Z" fill="#F5A800"/><g filter="url(#d)"><path d="M1387 651c0-5.523 4.48-10 10-10h160c5.52 0 10 4.479 10 10.004v45.992c0 5.525-4.48 10.004-10 10.004h-160c-5.52 0-10-4.477-10-10v-46Z" fill="#fff"/><path d="M1412.91 678.361v-.127c.01-1.357.15-2.437.42-3.24.27-.803.66-1.453 1.15-1.95.5-.498 1.1-.956 1.79-1.375.42-.256.8-.558 1.13-.906.34-.355.6-.764.79-1.226.2-.461.3-.973.3-1.534 0-.697-.16-1.3-.49-1.812a3.287 3.287 0 0 0-1.31-1.183 3.969 3.969 0 0 0-1.82-.416c-.59 0-1.15.121-1.69.363-.54.241-.99.621-1.35 1.14-.36.519-.57 1.197-.63 2.036h-2.68c.05-1.208.37-2.242.93-3.102a5.736 5.736 0 0 1 2.27-1.971c.95-.455 2-.682 3.15-.682 1.25 0 2.33.248 3.26.746.93.497 1.65 1.179 2.15 2.046.51.867.77 1.854.77 2.963 0 .781-.12 1.488-.36 2.12a5.29 5.29 0 0 1-1.03 1.695c-.44.497-.97.938-1.6 1.321-.62.391-1.12.803-1.5 1.237-.37.426-.65.934-.82 1.524-.17.589-.26 1.325-.28 2.206v.127h-2.55Zm1.36 6.31c-.53 0-.98-.189-1.35-.565a1.84 1.84 0 0 1-.57-1.354c0-.526.19-.977.57-1.353a1.82 1.82 0 0 1 1.35-.565c.53 0 .98.188 1.35.565.38.376.57.827.57 1.353 0 .348-.09.668-.27.959-.17.292-.4.526-.69.704-.28.17-.6.256-.96.256Zm28.47-15.176h-2.64c-.16-.76-.43-1.428-.82-2.004a5.653 5.653 0 0 0-1.41-1.449 6.08 6.08 0 0 0-1.82-.895 7.319 7.319 0 0 0-2.09-.299c-1.32 0-2.52.334-3.59 1.002-1.07.668-1.92 1.652-2.55 2.952-.63 1.3-.94 2.895-.94 4.785 0 1.89.31 3.485.94 4.785.63 1.3 1.48 2.284 2.55 2.952 1.07.668 2.27 1.002 3.59 1.002.72 0 1.42-.1 2.09-.298a6.225 6.225 0 0 0 1.82-.885 5.813 5.813 0 0 0 1.41-1.46c.39-.583.66-1.25.82-2.004h2.64c-.2 1.116-.56 2.114-1.09 2.995a8.112 8.112 0 0 1-1.96 2.249 8.603 8.603 0 0 1-2.63 1.396c-.97.32-2 .479-3.1.479-1.86 0-3.52-.454-4.97-1.364-1.45-.909-2.59-2.202-3.42-3.879-.83-1.677-1.25-3.666-1.25-5.968s.42-4.291 1.25-5.968c.83-1.677 1.97-2.97 3.42-3.879 1.45-.91 3.11-1.364 4.97-1.364 1.1 0 2.13.16 3.1.479.97.32 1.85.789 2.63 1.407a7.968 7.968 0 0 1 1.96 2.238c.53.874.89 1.872 1.09 2.995Zm6.44-6.821V684.5h-2.51v-21.826h2.51Zm4.61 21.826v-16.369h2.52V684.5h-2.52Zm1.28-19.098c-.49 0-.91-.167-1.27-.5a1.602 1.602 0 0 1-.52-1.205c0-.469.17-.87.52-1.204a1.8 1.8 0 0 1 1.27-.501c.49 0 .91.167 1.26.501.35.334.53.735.53 1.204s-.18.871-.53 1.205c-.35.333-.77.5-1.26.5Zm12.7 19.439c-1.57 0-2.93-.348-4.08-1.044-1.13-.704-2.01-1.684-2.63-2.942-.61-1.264-.92-2.735-.92-4.412s.31-3.154.92-4.433c.62-1.286 1.48-2.288 2.58-3.005 1.11-.725 2.4-1.088 3.88-1.088.85 0 1.69.143 2.52.427.84.284 1.59.746 2.27 1.385.69.633 1.23 1.471 1.64 2.515.4 1.045.6 2.331.6 3.858v1.066h-12.62v-2.174H1472c0-.924-.19-1.748-.56-2.473a4.18 4.18 0 0 0-1.55-1.715c-.67-.42-1.46-.629-2.37-.629-1 0-1.87.248-2.6.746a4.846 4.846 0 0 0-1.67 1.918 5.52 5.52 0 0 0-.59 2.536v1.45c0 1.236.21 2.284.64 3.144.43.852 1.03 1.502 1.8 1.95.77.44 1.66.661 2.67.661.67 0 1.26-.093 1.8-.277.54-.192 1-.476 1.39-.853.39-.384.69-.86.91-1.428l2.43.682a5.481 5.481 0 0 1-1.29 2.174c-.61.618-1.35 1.101-2.24 1.449-.89.342-1.89.512-3 .512Zm13.12-10.188v9.847h-2.51v-16.369h2.43v2.557h.21a4.73 4.73 0 0 1 1.75-2.003c.78-.512 1.79-.768 3.03-.768 1.1 0 2.07.228 2.91.683.83.447 1.47 1.129 1.94 2.046.46.909.69 2.06.69 3.453V684.5h-2.52v-10.231c0-1.286-.33-2.288-1-3.005-.67-.725-1.58-1.087-2.75-1.087-.8 0-1.52.174-2.15.522-.63.348-1.12.856-1.48 1.524-.36.668-.55 1.478-.55 2.43Zm22.16-6.522v2.131h-8.48v-2.131h8.48Zm-6.01-3.922h2.52v15.602c0 .71.1 1.243.31 1.598.21.349.48.583.81.704.33.113.68.17 1.05.17.28 0 .51-.014.68-.042l.43-.086.51 2.26c-.17.064-.41.128-.71.192-.31.071-.7.106-1.16.106-.72 0-1.41-.153-2.09-.458a4.155 4.155 0 0 1-1.69-1.396c-.44-.625-.66-1.414-.66-2.366v-16.284Zm13.13-1.535V684.5h-2.64v-21.826h2.64Zm11.14 22.167c-1.36 0-2.57-.345-3.61-1.034-1.05-.696-1.86-1.676-2.45-2.941-.59-1.272-.89-2.774-.89-4.508 0-1.719.3-3.211.89-4.476.59-1.265 1.41-2.242 2.46-2.931 1.05-.689 2.27-1.034 3.64-1.034 1.07 0 1.91.178 2.53.533.62.348 1.1.746 1.43 1.194.33.44.59.803.78 1.087h.21v-8.057h2.51V684.5h-2.43v-2.515h-.29c-.19.298-.45.675-.79 1.13-.34.447-.83.849-1.46 1.204-.64.348-1.48.522-2.53.522Zm.34-2.259c1.01 0 1.86-.263 2.56-.789.7-.533 1.23-1.268 1.59-2.206.36-.945.54-2.035.54-3.272 0-1.222-.18-2.291-.53-3.207-.36-.924-.88-1.642-1.58-2.153-.7-.519-1.55-.778-2.58-.778-1.06 0-1.95.273-2.66.82-.71.54-1.23 1.276-1.59 2.206-.35.924-.52 1.961-.52 3.112 0 1.165.18 2.224.53 3.176.36.945.9 1.698 1.6 2.259.71.555 1.59.832 2.64.832Zm15.4-4.221v-.127c.02-1.357.16-2.437.43-3.24.27-.803.65-1.453 1.15-1.95.5-.498 1.09-.956 1.79-1.375.42-.256.8-.558 1.13-.906.33-.355.6-.764.79-1.226.2-.461.3-.973.3-1.534 0-.697-.17-1.3-.49-1.812a3.314 3.314 0 0 0-1.32-1.183 3.94 3.94 0 0 0-1.82-.416c-.58 0-1.14.121-1.68.363-.54.241-.99.621-1.35 1.14-.37.519-.58 1.197-.63 2.036h-2.69c.06-1.208.37-2.242.94-3.102a5.604 5.604 0 0 1 2.27-1.971c.94-.455 1.99-.682 3.14-.682 1.25 0 2.34.248 3.26.746.93.497 1.65 1.179 2.16 2.046.51.867.76 1.854.76 2.963 0 .781-.12 1.488-.36 2.12a5.092 5.092 0 0 1-1.02 1.695 7.12 7.12 0 0 1-1.6 1.321c-.63.391-1.13.803-1.5 1.237-.38.426-.65.934-.82 1.524-.17.589-.27 1.325-.28 2.206v.127h-2.56Zm1.37 6.31c-.53 0-.98-.189-1.36-.565a1.869 1.869 0 0 1-.56-1.354c0-.526.19-.977.56-1.353.38-.377.83-.565 1.36-.565.52 0 .97.188 1.35.565.38.376.56.827.56 1.353 0 .348-.08.668-.26.959-.17.292-.4.526-.7.704-.28.17-.6.256-.95.256Z" fill="#7D88A1"/></g><defs><filter id="a" x="336" y="176" width="181" height="98" filterUnits="userSpaceOnUse" color-interpolation-filters="sRGB"><feFlood flood-opacity="0" result="BackgroundImageFix"/><feColorMatrix in="SourceAlpha" values="0 0 0 0 0 0 0 0 0 0 0 0 0 0 0 0 0 0 127 0" result="hardAlpha"/><feOffset dy="8"/><feGaussianBlur stdDeviation="8"/><feColorMatrix values="0 0 0 0 0.337255 0 0 0 0 0.388235 0 0 0 0 0.505882 0 0 0 0.24 0"/><feBlend in2="BackgroundImageFix" result="effect1_dropShadow_426_715"/><feBlend in="SourceGraphic" in2="effect1_dropShadow_426_715" result="shape"/></filter><filter id="b" x="435" y="328" width="181" height="98" filterUnits="userSpaceOnUse" color-interpolation-filters="sRGB"><feFlood flood-opacity="0" result="BackgroundImageFix"/><feColorMatrix in="SourceAlpha" values="0 0 0 0 0 0 0 0 0 0 0 0 0 0 0 0 0 0 127 0" result="hardAlpha"/><feOffset dy="8"/><feGaussianBlur stdDeviation="8"/><feColorMatrix values="0 0 0 0 0.337255 0 0 0 0 0.388235 0 0 0 0 0.505882 0 0 0 0.24 0"/><feBlend in2="BackgroundImageFix" result="effect1_dropShadow_426_715"/><feBlend in="SourceGraphic" in2="effect1_dropShadow_426_715" result="shape"/></filter><filter id="c" x="542" y="480" width="181" height="98" filterUnits="userSpaceOnUse" color-interpolation-filters="sRGB"><feFlood flood-opacity="0" result="BackgroundImageFix"/><feColorMatrix in="SourceAlpha" values="0 0 0 0 0 0 0 0 0 0 0 0 0 0 0 0 0 0 127 0" result="hardAlpha"/><feOffset dy="8"/><feGaussianBlur stdDeviation="8"/><feColorMatrix values="0 0 0 0 0.337255 0 0 0 0 0.388235 0 0 0 0 0.505882 0 0 0 0.24 0"/><feBlend in2="BackgroundImageFix" result="effect1_dropShadow_426_715"/><feBlend in="SourceGraphic" in2="effect1_dropShadow_426_715" result="shape"/></filter><filter id="d" x="1371" y="633" width="212" height="98" filterUnits="userSpaceOnUse" color-interpolation-filters="sRGB"><feFlood flood-opacity="0" result="BackgroundImageFix"/><feColorMatrix in="SourceAlpha" values="0 0 0 0 0 0 0 0 0 0 0 0 0 0 0 0 0 0 127 0" result="hardAlpha"/><feOffset dy="8"/><feGaussianBlur stdDeviation="8"/><feColorMatrix values="0 0 0 0 0.337255 0 0 0 0 0.388235 0 0 0 0 0.505882 0 0 0 0.24 0"/><feBlend in2="BackgroundImageFix" result="effect1_dropShadow_426_715"/><feBlend in="SourceGraphic" in2="effect1_dropShadow_426_715" result="shape"/></filter></defs></svg>