<?xml version="1.0" encoding="UTF-8" standalone="no"?>
<svg
   id="Layer_1"
   version="1.1"
   viewBox="0 0 1500 996"
   xmlns="http://www.w3.org/2000/svg"
   xmlns:svg="http://www.w3.org/2000/svg"
   xmlns:i="http://ns.adobe.com/AdobeIllustrator/10.0/">
  <!-- Generator: Adobe Illustrator 29.5.1, SVG Export Plug-In . SVG Version: 2.1.0 Build 141)  -->
  <defs
     id="defs29">
    <style
       id="style1">
      .st0, .st1, .st2, .st3, .st4 {
        fill: none;
      }

      .st5, .st6, .st7, .st8, .st9 {
        fill: #7d88a1;
      }

      .st10 {
        filter: url(#drop-shadow-1);
      }

      .st11 {
        filter: url(#drop-shadow-3);
      }

      .st12 {
        filter: url(#drop-shadow-2);
      }

      .st13 {
        filter: url(#drop-shadow-14);
      }

      .st13, .st14, .st15, .st16, .st17, .st18, .st19, .st20, .st21, .st22, .st23, .st24 {
        fill: #fff;
      }

      .st14 {
        filter: url(#drop-shadow-13);
      }

      .st15 {
        filter: url(#drop-shadow-10);
      }

      .st16 {
        filter: url(#drop-shadow-12);
      }

      .st17 {
        filter: url(#drop-shadow-11);
      }

      .st25 {
        fill: #566381;
      }

      .st26 {
        fill: #8ea9ec;
      }

      .st1, .st2 {
        stroke-miterlimit: 10;
      }

      .st1, .st2, .st3 {
        stroke: #fff;
        stroke-width: 3px;
      }

      .st27 {
        fill: #f6f7f9;
      }

      .st28 {
        fill: #f5a800;
        font-size: 33px;
        letter-spacing: 0em;
      }

      .st28, .st29, .st30, .st9, .st31 {
        font-family: Arial-BoldMT, Arial;
        font-weight: 700;
      }

      .st32 {
        fill: #e8f6fc;
      }

      .st33 {
        clip-path: url(#clippath-1);
      }

      .st34 {
        clip-path: url(#clippath-2);
      }

      .st35, .st31 {
        fill: #acb3c3;
      }

      .st2, .st3 {
        stroke-linecap: round;
      }

      .st3 {
        stroke-linejoin: round;
      }

      .st29, .st30, .st7, .st8, .st9 {
        font-size: 30px;
      }

      .st29, .st8 {
        letter-spacing: 0em;
      }

      .st29, .st36, .st37 {
        fill: #a9c265;
      }

      .st19 {
        filter: url(#drop-shadow-9);
      }

      .st20 {
        filter: url(#drop-shadow-8);
      }

      .st21 {
        filter: url(#drop-shadow-6);
      }

      .st22 {
        filter: url(#drop-shadow-7);
      }

      .st23 {
        filter: url(#drop-shadow-5);
      }

      .st24 {
        filter: url(#drop-shadow-4);
      }

      .st30 {
        fill: #0778d4;
        isolation: isolate;
        opacity: .6;
      }

      .st30, .st7, .st9 {
        letter-spacing: 0em;
      }

      .st6 {
        fill-rule: evenodd;
      }

      .st7, .st8 {
        font-family: ArialMT, Arial;
      }

      .st38 {
        fill: #d6d9e1;
      }

      .st39 {
        fill: #fffaeb;
      }

      .st31 {
        font-size: 32px;
        letter-spacing: 0em;
      }

      .st4 {
        stroke: #acb3c3;
        stroke-dasharray: 6.8 6.8;
        stroke-width: 3.4px;
      }

      .st37 {
        fill-opacity: .2;
      }

      .st40 {
        clip-path: url(#clippath);
      }
    </style>
    <filter
       id="drop-shadow-1"
       x="650"
       y="345"
       width="404"
       height="228"
       filterUnits="userSpaceOnUse">
      <feOffset
         dx="5"
         dy="5"
         id="feOffset1" />
      <feGaussianBlur
         result="blur"
         stdDeviation="10"
         id="feGaussianBlur1" />
      <feFlood
         flood-color="#000"
         flood-opacity=".2"
         id="feFlood1" />
      <feComposite
         in2="blur"
         operator="in"
         id="feComposite1" />
      <feComposite
         in="SourceGraphic"
         id="feComposite2" />
    </filter>
    <filter
       id="drop-shadow-2"
       x="644"
       y="339"
       width="404"
       height="228"
       filterUnits="userSpaceOnUse">
      <feOffset
         dx="5"
         dy="5"
         id="feOffset2" />
      <feGaussianBlur
         result="blur1"
         stdDeviation="10"
         id="feGaussianBlur2" />
      <feFlood
         flood-color="#000"
         flood-opacity=".2"
         id="feFlood2" />
      <feComposite
         in2="blur1"
         operator="in"
         id="feComposite3" />
      <feComposite
         in="SourceGraphic"
         id="feComposite4" />
    </filter>
    <filter
       id="drop-shadow-3"
       x="637"
       y="333"
       width="404"
       height="228"
       filterUnits="userSpaceOnUse">
      <feOffset
         dx="5"
         dy="5"
         id="feOffset4" />
      <feGaussianBlur
         result="blur2"
         stdDeviation="10"
         id="feGaussianBlur4" />
      <feFlood
         flood-color="#000"
         flood-opacity=".2"
         id="feFlood4" />
      <feComposite
         in2="blur2"
         operator="in"
         id="feComposite5" />
      <feComposite
         in="SourceGraphic"
         id="feComposite6" />
    </filter>
    <filter
       id="drop-shadow-4"
       x="67"
       y="799"
       width="249"
       height="112"
       filterUnits="userSpaceOnUse">
      <feOffset
         dx="5"
         dy="5"
         id="feOffset6" />
      <feGaussianBlur
         result="blur3"
         stdDeviation="5"
         id="feGaussianBlur6" />
      <feFlood
         flood-color="#000"
         flood-opacity="0"
         id="feFlood6" />
      <feComposite
         in2="blur3"
         operator="in"
         id="feComposite7" />
      <feComposite
         in="SourceGraphic"
         id="feComposite8" />
    </filter>
    <clipPath
       id="clippath">
      <rect
         class="st0"
         x="213.9"
         y="835"
         width="49.8"
         height="29.8"
         id="rect8" />
    </clipPath>
    <clipPath
       id="clippath-1">
      <rect
         class="st0"
         x="165.7"
         y="832.6"
         width="34.9"
         height="34.9"
         id="rect9" />
    </clipPath>
    <clipPath
       id="clippath-2">
      <rect
         class="st0"
         x="109"
         y="832.6"
         width="43.4"
         height="34.9"
         id="rect10" />
    </clipPath>
    <filter
       id="drop-shadow-5"
       x="67"
       y="587"
       width="257"
       height="112"
       filterUnits="userSpaceOnUse">
      <feOffset
         dx="5"
         dy="5"
         id="feOffset10" />
      <feGaussianBlur
         result="blur4"
         stdDeviation="5"
         id="feGaussianBlur10" />
      <feFlood
         flood-color="#000"
         flood-opacity="0"
         id="feFlood10" />
      <feComposite
         in2="blur4"
         operator="in"
         id="feComposite10" />
      <feComposite
         in="SourceGraphic"
         id="feComposite11" />
    </filter>
    <filter
       id="drop-shadow-6"
       x="1163"
       y="248"
       width="289"
       height="142"
       filterUnits="userSpaceOnUse">
      <feOffset
         dx="5"
         dy="5"
         id="feOffset11" />
      <feGaussianBlur
         result="blur5"
         stdDeviation="5"
         id="feGaussianBlur11" />
      <feFlood
         flood-color="#000"
         flood-opacity="0"
         id="feFlood11" />
      <feComposite
         in2="blur5"
         operator="in"
         id="feComposite12" />
      <feComposite
         in="SourceGraphic"
         id="feComposite13" />
    </filter>
    <filter
       id="drop-shadow-7"
       x="1163"
       y="389"
       width="289"
       height="142"
       filterUnits="userSpaceOnUse">
      <feOffset
         dx="5"
         dy="5"
         id="feOffset13" />
      <feGaussianBlur
         result="blur6"
         stdDeviation="5"
         id="feGaussianBlur13" />
      <feFlood
         flood-color="#000"
         flood-opacity="0"
         id="feFlood13" />
      <feComposite
         in2="blur6"
         operator="in"
         id="feComposite14" />
      <feComposite
         in="SourceGraphic"
         id="feComposite15" />
    </filter>
    <filter
       id="drop-shadow-8"
       x="1163"
       y="530"
       width="289"
       height="142"
       filterUnits="userSpaceOnUse">
      <feOffset
         dx="5"
         dy="5"
         id="feOffset15" />
      <feGaussianBlur
         result="blur7"
         stdDeviation="5"
         id="feGaussianBlur15" />
      <feFlood
         flood-color="#000"
         flood-opacity="0"
         id="feFlood15" />
      <feComposite
         in2="blur7"
         operator="in"
         id="feComposite16" />
      <feComposite
         in="SourceGraphic"
         id="feComposite17" />
    </filter>
    <filter
       id="drop-shadow-9"
       x="634"
       y="797"
       width="292"
       height="112"
       filterUnits="userSpaceOnUse">
      <feOffset
         dx="5"
         dy="5"
         id="feOffset17" />
      <feGaussianBlur
         result="blur8"
         stdDeviation="5"
         id="feGaussianBlur17" />
      <feFlood
         flood-color="#000"
         flood-opacity="0"
         id="feFlood17" />
      <feComposite
         in2="blur8"
         operator="in"
         id="feComposite18" />
      <feComposite
         in="SourceGraphic"
         id="feComposite19" />
    </filter>
    <filter
       id="drop-shadow-10"
       x="914"
       y="797"
       width="157"
       height="112"
       filterUnits="userSpaceOnUse">
      <feOffset
         dx="5"
         dy="5"
         id="feOffset19" />
      <feGaussianBlur
         result="blur9"
         stdDeviation="5"
         id="feGaussianBlur19" />
      <feFlood
         flood-color="#000"
         flood-opacity="0"
         id="feFlood19" />
      <feComposite
         in2="blur9"
         operator="in"
         id="feComposite20" />
      <feComposite
         in="SourceGraphic"
         id="feComposite21" />
    </filter>
    <filter
       id="drop-shadow-11"
       x="67"
       y="262"
       width="214"
       height="112"
       filterUnits="userSpaceOnUse">
      <feOffset
         dx="5"
         dy="5"
         id="feOffset21" />
      <feGaussianBlur
         result="blur10"
         stdDeviation="5"
         id="feGaussianBlur21" />
      <feFlood
         flood-color="#000"
         flood-opacity="0"
         id="feFlood21" />
      <feComposite
         in2="blur10"
         operator="in"
         id="feComposite22" />
      <feComposite
         in="SourceGraphic"
         id="feComposite23" />
    </filter>
    <filter
       id="drop-shadow-12"
       x="67"
       y="164"
       width="310"
       height="112"
       filterUnits="userSpaceOnUse">
      <feOffset
         dx="5"
         dy="5"
         id="feOffset23" />
      <feGaussianBlur
         result="blur11"
         stdDeviation="5"
         id="feGaussianBlur23" />
      <feFlood
         flood-color="#000"
         flood-opacity="0"
         id="feFlood23" />
      <feComposite
         in2="blur11"
         operator="in"
         id="feComposite24" />
      <feComposite
         in="SourceGraphic"
         id="feComposite25" />
    </filter>
    <filter
       id="drop-shadow-13"
       x="67"
       y="693"
       width="217"
       height="112"
       filterUnits="userSpaceOnUse">
      <feOffset
         dx="5"
         dy="5"
         id="feOffset25" />
      <feGaussianBlur
         result="blur12"
         stdDeviation="5"
         id="feGaussianBlur25" />
      <feFlood
         flood-color="#000"
         flood-opacity="0"
         id="feFlood25" />
      <feComposite
         in2="blur12"
         operator="in"
         id="feComposite26" />
      <feComposite
         in="SourceGraphic"
         id="feComposite27" />
    </filter>
    <filter
       id="drop-shadow-14"
       x="67"
       y="368"
       width="227"
       height="112"
       filterUnits="userSpaceOnUse">
      <feOffset
         dx="5"
         dy="5"
         id="feOffset27" />
      <feGaussianBlur
         result="blur13"
         stdDeviation="5"
         id="feGaussianBlur27" />
      <feFlood
         flood-color="#000"
         flood-opacity="0"
         id="feFlood27" />
      <feComposite
         in2="blur13"
         operator="in"
         id="feComposite28" />
      <feComposite
         in="SourceGraphic"
         id="feComposite29" />
    </filter>
  </defs>
  <rect
     class="st0"
     y="0"
     width="1500"
     height="996"
     id="rect29" />
  <rect
     class="st0"
     y="0"
     width="1500"
     height="996"
     id="rect30" />
  <g
     class="st10"
     id="g31">
    <path
       class="st26"
       d="M675,384c0-5.5,4.5-10,10-10h70v164h-69c-6.1,0-11-4.9-11-11v-143Z"
       id="path30" />
    <path
       class="st18"
       d="M755,370h254c5.5,0,10,4.5,10,10v148c0,5.5-4.5,10-10,10h-254v-168Z"
       id="path31" />
  </g>
  <path
     class="st3"
     d="M706.3,458.9v12c0,.8.6,1.5,1.5,1.5h22.8c.8,0,1.5-.6,1.5-1.5v-12"
     id="path32" />
  <path
     class="st3"
     d="M713.7,467.1c1.9,0,3.4-1.5,3.4-3.4s-1.5-3.5-3.4-3.5-3.5,1.5-3.5,3.5,1.5,3.4,3.5,3.4Z"
     id="path33" />
  <path
     class="st3"
     d="M724.6,467.1c1.9,0,3.5-1.5,3.5-3.4s-1.5-3.5-3.5-3.5-3.4,1.5-3.4,3.5,1.5,3.4,3.4,3.4Z"
     id="path34" />
  <path
     class="st3"
     d="M713.5,456.4c1.9,0,3.5-1.5,3.5-3.5s-1.5-3.4-3.5-3.4-3.5,1.5-3.5,3.4,1.5,3.5,3.5,3.5Z"
     id="path35" />
  <path
     class="st1"
     d="M715.9,441.2l2.7,2.7h0c-.4.6-.8.9-1,1.2-.1.1-.3.3-.3.4h-.2c-.4-.3-1-.6-1.6-.8-.9-.3-1.7-.3-2.5-.3s-2,.3-2.9.8h-.1c-.6-.6-1.1-1.1-1.7-1.6s-.5-.3-.6-.6h0c0-.1,4.9-5,4.9-5h.2c1,1.1,2.1,2.1,3.2,3.1Z"
     id="path36" />
  <path
     class="st1"
     d="M702.2,456.4c-1.2-1.1-2.4-2.2-3.5-3.3h0c.3-.4.8-.8,1-1.2,1.8-1.8,3.8-3.5,5.6-5.2h.1c.3.3.6.6.9.9-.8,1.6-.9,3.3-.3,5.1h0c-1.4,1.5-2.7,2.7-3.9,3.8Z"
     id="path37" />
  <path
     class="st2"
     d="M700.2,455.3l-3.5,3.5"
     id="path38" />
  <path
     class="st2"
     d="M695.5,457.6l2.2,2.2"
     id="path39" />
  <path
     class="st3"
     d="M715.2,432.2l1.5-1.4c.6-.5,1.3-.5,1.9,0l7.5,7.2c.6.6.6,1.5,0,2.1l-1.5,1.4c-.6.5-1.3.5-1.9,0l-7.5-7.2c-.6-.6-.6-1.5,0-2.1Z"
     id="path40" />
  <path
     class="st5"
     d="M808.1,453.6c0,2.3-.4,4.3-1.2,6s-2,3-3.4,3.9c-1.4.9-3.1,1.4-5,1.4s-3.5-.5-5-1.4c-1.4-.9-2.6-2.2-3.4-3.9-.8-1.7-1.2-3.7-1.2-6s.4-4.3,1.2-6c.8-1.7,2-3,3.4-3.9,1.4-.9,3.1-1.4,5-1.4s3.5.5,5,1.4c1.4.9,2.6,2.2,3.4,3.9s1.2,3.7,1.2,6ZM805.6,453.6c0-1.9-.3-3.5-.9-4.8-.6-1.3-1.5-2.3-2.5-3-1.1-.7-2.3-1-3.6-1s-2.5.3-3.6,1c-1.1.7-1.9,1.7-2.5,3-.6,1.3-.9,2.9-.9,4.8s.3,3.5.9,4.8c.6,1.3,1.5,2.3,2.5,3,1.1.7,2.3,1,3.6,1s2.5-.3,3.6-1c1.1-.7,1.9-1.7,2.5-3,.6-1.3.9-2.9.9-4.8ZM810.5,445v-2.3h16.4v2.3h-6.9v19.5h-2.6v-19.5h-6.9ZM835.1,464.8c-1.6,0-2.9-.3-4.1-1-1.1-.7-2-1.7-2.6-2.9-.6-1.3-.9-2.7-.9-4.4s.3-3.2.9-4.4c.6-1.3,1.5-2.3,2.6-3,1.1-.7,2.4-1.1,3.9-1.1s1.7.1,2.5.4c.8.3,1.6.7,2.3,1.4.7.6,1.2,1.5,1.6,2.5.4,1,.6,2.3.6,3.9v1.1h-12.6v-2.2h10.1c0-.9-.2-1.7-.6-2.5-.4-.7-.9-1.3-1.6-1.7-.7-.4-1.5-.6-2.4-.6s-1.9.2-2.6.7c-.7.5-1.3,1.1-1.7,1.9-.4.8-.6,1.6-.6,2.5v1.4c0,1.2.2,2.3.6,3.1.4.9,1,1.5,1.8,2,.8.4,1.7.7,2.7.7s1.3,0,1.8-.3c.5-.2,1-.5,1.4-.9.4-.4.7-.9.9-1.4l2.4.7c-.3.8-.7,1.5-1.3,2.2-.6.6-1.4,1.1-2.2,1.4-.9.3-1.9.5-3,.5ZM848.2,442.7v21.8h-2.5v-21.8h2.5ZM879.1,449.5h-2.6c-.2-.8-.4-1.4-.8-2-.4-.6-.9-1.1-1.4-1.4-.5-.4-1.2-.7-1.8-.9-.7-.2-1.4-.3-2.1-.3-1.3,0-2.5.3-3.6,1-1.1.7-1.9,1.7-2.5,3-.6,1.3-.9,2.9-.9,4.8s.3,3.5.9,4.8c.6,1.3,1.5,2.3,2.5,3,1.1.7,2.3,1,3.6,1s1.4-.1,2.1-.3c.7-.2,1.3-.5,1.8-.9.6-.4,1-.9,1.4-1.5.4-.6.7-1.2.8-2h2.6c-.2,1.1-.6,2.1-1.1,3-.5.9-1.2,1.6-2,2.2-.8.6-1.7,1.1-2.6,1.4-1,.3-2,.5-3.1.5-1.9,0-3.5-.5-5-1.4-1.4-.9-2.6-2.2-3.4-3.9-.8-1.7-1.2-3.7-1.2-6s.4-4.3,1.2-6c.8-1.7,2-3,3.4-3.9,1.4-.9,3.1-1.4,5-1.4s2.1.2,3.1.5c1,.3,1.9.8,2.6,1.4.8.6,1.4,1.4,2,2.2.5.9.9,1.9,1.1,3ZM889.7,464.8c-1.5,0-2.8-.4-3.9-1.1-1.1-.7-2-1.7-2.6-3-.6-1.3-.9-2.7-.9-4.4s.3-3.2.9-4.5c.6-1.3,1.5-2.3,2.6-3,1.1-.7,2.4-1.1,3.9-1.1s2.8.4,3.9,1.1c1.1.7,2,1.7,2.6,3,.6,1.3.9,2.8.9,4.5s-.3,3.2-.9,4.4c-.6,1.3-1.5,2.2-2.6,3-1.1.7-2.4,1.1-3.9,1.1ZM889.7,462.6c1.1,0,2-.3,2.8-.9.7-.6,1.3-1.3,1.6-2.3.3-.9.5-2,.5-3s-.2-2.1-.5-3.1c-.3-.9-.9-1.7-1.6-2.3-.7-.6-1.6-.9-2.8-.9s-2,.3-2.8.9c-.7.6-1.3,1.3-1.6,2.3-.3.9-.5,2-.5,3.1s.2,2.1.5,3c.3.9.9,1.7,1.6,2.3.7.6,1.6.9,2.8.9ZM903.5,442.7v21.8h-2.5v-21.8h2.5ZM910.6,442.7v21.8h-2.5v-21.8h2.5ZM922.1,464.8c-1.6,0-2.9-.3-4.1-1-1.1-.7-2-1.7-2.6-2.9-.6-1.3-.9-2.7-.9-4.4s.3-3.2.9-4.4c.6-1.3,1.5-2.3,2.6-3,1.1-.7,2.4-1.1,3.9-1.1s1.7.1,2.5.4c.8.3,1.6.7,2.3,1.4.7.6,1.2,1.5,1.6,2.5.4,1,.6,2.3.6,3.9v1.1h-12.6v-2.2h10.1c0-.9-.2-1.7-.6-2.5-.4-.7-.9-1.3-1.6-1.7-.7-.4-1.5-.6-2.4-.6s-1.9.2-2.6.7c-.7.5-1.3,1.1-1.7,1.9-.4.8-.6,1.6-.6,2.5v1.4c0,1.2.2,2.3.6,3.1.4.9,1,1.5,1.8,2,.8.4,1.7.7,2.7.7s1.3,0,1.8-.3c.5-.2,1-.5,1.4-.9.4-.4.7-.9.9-1.4l2.4.7c-.3.8-.7,1.5-1.3,2.2-.6.6-1.3,1.1-2.2,1.4-.9.3-1.9.5-3,.5ZM939.3,464.8c-1.5,0-2.9-.4-4-1.1-1.1-.7-2-1.7-2.6-3-.6-1.3-.9-2.7-.9-4.4s.3-3.1.9-4.4c.6-1.3,1.5-2.3,2.6-3,1.1-.7,2.4-1.1,3.9-1.1s2.2.2,3.1.6c.9.4,1.7,1,2.3,1.8.6.8,1,1.7,1.1,2.7h-2.5c-.2-.7-.6-1.4-1.3-2-.7-.6-1.5-.9-2.6-.9s-1.8.3-2.6.8c-.7.5-1.3,1.2-1.7,2.1-.4.9-.6,2-.6,3.2s.2,2.4.6,3.3c.4.9,1,1.7,1.7,2.2.7.5,1.6.8,2.6.8s1.2-.1,1.8-.3c.5-.2,1-.6,1.4-1,.4-.4.6-.9.8-1.5h2.5c-.1,1-.5,1.8-1.1,2.6-.6.8-1.3,1.4-2.2,1.8-.9.4-2,.7-3.2.7ZM956.5,448.1v2.1h-8.5v-2.1h8.5ZM950.5,444.2h2.5v15.6c0,.7.1,1.2.3,1.6.2.3.5.6.8.7.3.1.7.2,1.1.2s.5,0,.7,0c.2,0,.3,0,.4,0l.5,2.3c-.2,0-.4.1-.7.2-.3,0-.7.1-1.2.1-.7,0-1.4-.2-2.1-.5-.7-.3-1.2-.8-1.7-1.4-.4-.6-.7-1.4-.7-2.4v-16.3ZM966.8,464.8c-1.5,0-2.8-.4-3.9-1.1-1.1-.7-2-1.7-2.6-3-.6-1.3-.9-2.7-.9-4.4s.3-3.2.9-4.5c.6-1.3,1.5-2.3,2.6-3,1.1-.7,2.4-1.1,3.9-1.1s2.8.4,3.9,1.1c1.1.7,2,1.7,2.6,3,.6,1.3.9,2.8.9,4.5s-.3,3.2-.9,4.4c-.6,1.3-1.5,2.2-2.6,3-1.1.7-2.4,1.1-3.9,1.1ZM966.8,462.6c1.1,0,2-.3,2.8-.9.7-.6,1.3-1.3,1.6-2.3.3-.9.5-2,.5-3s-.2-2.1-.5-3.1c-.3-.9-.9-1.7-1.6-2.3-.7-.6-1.6-.9-2.8-.9s-2,.3-2.8.9c-.7.6-1.3,1.3-1.6,2.3-.3.9-.5,2-.5,3.1s.2,2.1.5,3c.3.9.9,1.7,1.6,2.3.7.6,1.6.9,2.8.9ZM978,464.5v-16.4h2.4v2.5h.2c.3-.8.8-1.5,1.6-2s1.7-.8,2.6-.8.4,0,.7,0c.3,0,.5,0,.6,0v2.6c0,0-.3,0-.6,0-.3,0-.6,0-.9,0-.8,0-1.5.2-2.1.5-.6.3-1.1.8-1.5,1.4-.4.6-.5,1.2-.5,2v10.4h-2.5Z"
     id="path41" />
  <g
     class="st12"
     id="g43">
    <path
       class="st26"
       d="M669,378c0-5.5,4.5-10,10-10h70v164h-69c-6.1,0-11-4.9-11-11v-143Z"
       id="path42" />
    <path
       class="st18"
       d="M749,364h254c5.5,0,10,4.5,10,10v148c0,5.5-4.5,10-10,10h-254v-168Z"
       id="path43" />
  </g>
  <path
     class="st3"
     d="M700.3,452.9v12c0,.8.6,1.5,1.5,1.5h22.8c.8,0,1.5-.6,1.5-1.5v-12"
     id="path44" />
  <path
     class="st3"
     d="M707.7,461.1c1.9,0,3.4-1.5,3.4-3.4s-1.5-3.5-3.4-3.5-3.5,1.5-3.5,3.5,1.5,3.4,3.5,3.4Z"
     id="path45" />
  <path
     class="st3"
     d="M718.6,461.1c1.9,0,3.5-1.5,3.5-3.4s-1.5-3.5-3.5-3.5-3.4,1.5-3.4,3.5,1.5,3.4,3.4,3.4Z"
     id="path46" />
  <path
     class="st3"
     d="M707.5,450.4c1.9,0,3.5-1.5,3.5-3.5s-1.5-3.4-3.5-3.4-3.5,1.5-3.5,3.4,1.5,3.5,3.5,3.5Z"
     id="path47" />
  <path
     class="st1"
     d="M709.9,435.2l2.7,2.7h0c-.4.6-.8.9-1,1.2-.1.1-.3.3-.3.4h-.2c-.4-.3-1-.6-1.6-.8-.9-.3-1.7-.3-2.5-.3s-2,.3-2.9.8h-.1c-.6-.6-1.1-1.1-1.7-1.6s-.5-.3-.6-.6h0c0-.1,4.9-5,4.9-5h.2c1,1.1,2.1,2.1,3.2,3.1Z"
     id="path48" />
  <path
     class="st1"
     d="M696.2,450.4c-1.2-1.1-2.4-2.2-3.5-3.3h0c.3-.4.8-.8,1-1.2,1.8-1.8,3.8-3.5,5.6-5.2h.1c.3.3.6.6.9.9-.8,1.6-.9,3.3-.3,5.1h0c-1.4,1.5-2.7,2.7-3.9,3.8Z"
     id="path49" />
  <path
     class="st2"
     d="M694.2,449.3l-3.5,3.5"
     id="path50" />
  <path
     class="st2"
     d="M689.5,451.6l2.2,2.2"
     id="path51" />
  <path
     class="st3"
     d="M709.2,426.2l1.5-1.4c.6-.5,1.3-.5,1.9,0l7.5,7.2c.6.6.6,1.5,0,2.1l-1.5,1.4c-.6.5-1.3.5-1.9,0l-7.5-7.2c-.6-.6-.6-1.5,0-2.1Z"
     id="path52" />
  <path
     class="st5"
     d="M802.1,447.6c0,2.3-.4,4.3-1.2,6s-2,3-3.4,3.9c-1.4.9-3.1,1.4-5,1.4s-3.5-.5-5-1.4c-1.4-.9-2.6-2.2-3.4-3.9-.8-1.7-1.2-3.7-1.2-6s.4-4.3,1.2-6c.8-1.7,2-3,3.4-3.9,1.4-.9,3.1-1.4,5-1.4s3.5.5,5,1.4c1.4.9,2.6,2.2,3.4,3.9s1.2,3.7,1.2,6ZM799.6,447.6c0-1.9-.3-3.5-.9-4.8-.6-1.3-1.5-2.3-2.5-3-1.1-.7-2.3-1-3.6-1s-2.5.3-3.6,1c-1.1.7-1.9,1.7-2.5,3-.6,1.3-.9,2.9-.9,4.8s.3,3.5.9,4.8c.6,1.3,1.5,2.3,2.5,3,1.1.7,2.3,1,3.6,1s2.5-.3,3.6-1c1.1-.7,1.9-1.7,2.5-3,.6-1.3.9-2.9.9-4.8ZM804.5,439v-2.3h16.4v2.3h-6.9v19.5h-2.6v-19.5h-6.9ZM829.1,458.8c-1.6,0-2.9-.3-4.1-1-1.1-.7-2-1.7-2.6-2.9-.6-1.3-.9-2.7-.9-4.4s.3-3.2.9-4.4c.6-1.3,1.5-2.3,2.6-3,1.1-.7,2.4-1.1,3.9-1.1s1.7.1,2.5.4c.8.3,1.6.7,2.3,1.4.7.6,1.2,1.5,1.6,2.5.4,1,.6,2.3.6,3.9v1.1h-12.6v-2.2h10.1c0-.9-.2-1.7-.6-2.5-.4-.7-.9-1.3-1.6-1.7-.7-.4-1.5-.6-2.4-.6s-1.9.2-2.6.7c-.7.5-1.3,1.1-1.7,1.9-.4.8-.6,1.6-.6,2.5v1.4c0,1.2.2,2.3.6,3.1.4.9,1,1.5,1.8,2,.8.4,1.7.7,2.7.7s1.3,0,1.8-.3c.5-.2,1-.5,1.4-.9.4-.4.7-.9.9-1.4l2.4.7c-.3.8-.7,1.5-1.3,2.2-.6.6-1.4,1.1-2.2,1.4-.9.3-1.9.5-3,.5ZM842.2,436.7v21.8h-2.5v-21.8h2.5ZM873.1,443.5h-2.6c-.2-.8-.4-1.4-.8-2-.4-.6-.9-1.1-1.4-1.4-.5-.4-1.2-.7-1.8-.9-.7-.2-1.4-.3-2.1-.3-1.3,0-2.5.3-3.6,1-1.1.7-1.9,1.7-2.5,3-.6,1.3-.9,2.9-.9,4.8s.3,3.5.9,4.8c.6,1.3,1.5,2.3,2.5,3,1.1.7,2.3,1,3.6,1s1.4-.1,2.1-.3c.7-.2,1.3-.5,1.8-.9.6-.4,1-.9,1.4-1.5.4-.6.7-1.2.8-2h2.6c-.2,1.1-.6,2.1-1.1,3-.5.9-1.2,1.6-2,2.2-.8.6-1.7,1.1-2.6,1.4-1,.3-2,.5-3.1.5-1.9,0-3.5-.5-5-1.4-1.4-.9-2.6-2.2-3.4-3.9-.8-1.7-1.2-3.7-1.2-6s.4-4.3,1.2-6c.8-1.7,2-3,3.4-3.9,1.4-.9,3.1-1.4,5-1.4s2.1.2,3.1.5c1,.3,1.9.8,2.6,1.4.8.6,1.4,1.4,2,2.2.5.9.9,1.9,1.1,3ZM883.7,458.8c-1.5,0-2.8-.4-3.9-1.1-1.1-.7-2-1.7-2.6-3-.6-1.3-.9-2.7-.9-4.4s.3-3.2.9-4.5c.6-1.3,1.5-2.3,2.6-3,1.1-.7,2.4-1.1,3.9-1.1s2.8.4,3.9,1.1c1.1.7,2,1.7,2.6,3,.6,1.3.9,2.8.9,4.5s-.3,3.2-.9,4.4c-.6,1.3-1.5,2.2-2.6,3-1.1.7-2.4,1.1-3.9,1.1ZM883.7,456.6c1.1,0,2-.3,2.8-.9.7-.6,1.3-1.3,1.6-2.3.3-.9.5-2,.5-3s-.2-2.1-.5-3.1c-.3-.9-.9-1.7-1.6-2.3-.7-.6-1.6-.9-2.8-.9s-2,.3-2.8.9c-.7.6-1.3,1.3-1.6,2.3-.3.9-.5,2-.5,3.1s.2,2.1.5,3c.3.9.9,1.7,1.6,2.3.7.6,1.6.9,2.8.9ZM897.5,436.7v21.8h-2.5v-21.8h2.5ZM904.6,436.7v21.8h-2.5v-21.8h2.5ZM916.1,458.8c-1.6,0-2.9-.3-4.1-1-1.1-.7-2-1.7-2.6-2.9-.6-1.3-.9-2.7-.9-4.4s.3-3.2.9-4.4c.6-1.3,1.5-2.3,2.6-3,1.1-.7,2.4-1.1,3.9-1.1s1.7.1,2.5.4c.8.3,1.6.7,2.3,1.4.7.6,1.2,1.5,1.6,2.5.4,1,.6,2.3.6,3.9v1.1h-12.6v-2.2h10.1c0-.9-.2-1.7-.6-2.5-.4-.7-.9-1.3-1.6-1.7-.7-.4-1.5-.6-2.4-.6s-1.9.2-2.6.7c-.7.5-1.3,1.1-1.7,1.9-.4.8-.6,1.6-.6,2.5v1.4c0,1.2.2,2.3.6,3.1.4.9,1,1.5,1.8,2,.8.4,1.7.7,2.7.7s1.3,0,1.8-.3c.5-.2,1-.5,1.4-.9.4-.4.7-.9.9-1.4l2.4.7c-.3.8-.7,1.5-1.3,2.2-.6.6-1.3,1.1-2.2,1.4-.9.3-1.9.5-3,.5ZM933.3,458.8c-1.5,0-2.9-.4-4-1.1-1.1-.7-2-1.7-2.6-3-.6-1.3-.9-2.7-.9-4.4s.3-3.1.9-4.4c.6-1.3,1.5-2.3,2.6-3,1.1-.7,2.4-1.1,3.9-1.1s2.2.2,3.1.6c.9.4,1.7,1,2.3,1.8.6.8,1,1.7,1.1,2.7h-2.5c-.2-.7-.6-1.4-1.3-2-.7-.6-1.5-.9-2.6-.9s-1.8.3-2.6.8c-.7.5-1.3,1.2-1.7,2.1-.4.9-.6,2-.6,3.2s.2,2.4.6,3.3c.4.9,1,1.7,1.7,2.2.7.5,1.6.8,2.6.8s1.2-.1,1.8-.3c.5-.2,1-.6,1.4-1,.4-.4.6-.9.8-1.5h2.5c-.1,1-.5,1.8-1.1,2.6-.6.8-1.3,1.4-2.2,1.8-.9.4-2,.7-3.2.7ZM950.5,442.1v2.1h-8.5v-2.1h8.5ZM944.5,438.2h2.5v15.6c0,.7.1,1.2.3,1.6.2.3.5.6.8.7.3.1.7.2,1.1.2s.5,0,.7,0c.2,0,.3,0,.4,0l.5,2.3c-.2,0-.4.1-.7.2-.3,0-.7.1-1.2.1-.7,0-1.4-.2-2.1-.5-.7-.3-1.2-.8-1.7-1.4-.4-.6-.7-1.4-.7-2.4v-16.3ZM960.8,458.8c-1.5,0-2.8-.4-3.9-1.1-1.1-.7-2-1.7-2.6-3-.6-1.3-.9-2.7-.9-4.4s.3-3.2.9-4.5c.6-1.3,1.5-2.3,2.6-3,1.1-.7,2.4-1.1,3.9-1.1s2.8.4,3.9,1.1c1.1.7,2,1.7,2.6,3,.6,1.3.9,2.8.9,4.5s-.3,3.2-.9,4.4c-.6,1.3-1.5,2.2-2.6,3-1.1.7-2.4,1.1-3.9,1.1ZM960.8,456.6c1.1,0,2-.3,2.8-.9.7-.6,1.3-1.3,1.6-2.3.3-.9.5-2,.5-3s-.2-2.1-.5-3.1c-.3-.9-.9-1.7-1.6-2.3-.7-.6-1.6-.9-2.8-.9s-2,.3-2.8.9c-.7.6-1.3,1.3-1.6,2.3-.3.9-.5,2-.5,3.1s.2,2.1.5,3c.3.9.9,1.7,1.6,2.3.7.6,1.6.9,2.8.9ZM972,458.5v-16.4h2.4v2.5h.2c.3-.8.8-1.5,1.6-2s1.7-.8,2.6-.8.4,0,.7,0c.3,0,.5,0,.6,0v2.6c0,0-.3,0-.6,0-.3,0-.6,0-.9,0-.8,0-1.5.2-2.1.5-.6.3-1.1.8-1.5,1.4-.4.6-.5,1.2-.5,2v10.4h-2.5Z"
     id="path53" />
  <g
     class="st11"
     id="g55">
    <path
       class="st26"
       d="M662,372c0-5.5,4.5-10,10-10h70v164h-69c-6.1,0-11-4.9-11-11v-143Z"
       id="path54" />
    <path
       class="st18"
       d="M742,358h254c5.5,0,10,4.5,10,10v148c0,5.5-4.5,10-10,10h-254v-168Z"
       id="path55" />
  </g>
  <path
     class="st3"
     d="M693.3,446.9v12c0,.8.6,1.5,1.5,1.5h22.8c.8,0,1.5-.6,1.5-1.5v-12"
     id="path56" />
  <path
     class="st3"
     d="M700.7,455.1c1.9,0,3.4-1.5,3.4-3.4s-1.5-3.5-3.4-3.5-3.5,1.5-3.5,3.5,1.5,3.4,3.5,3.4Z"
     id="path57" />
  <path
     class="st3"
     d="M711.6,455.1c1.9,0,3.5-1.5,3.5-3.4s-1.5-3.5-3.5-3.5-3.4,1.5-3.4,3.5,1.5,3.4,3.4,3.4Z"
     id="path58" />
  <path
     class="st3"
     d="M700.5,444.4c1.9,0,3.5-1.5,3.5-3.5s-1.5-3.4-3.5-3.4-3.5,1.5-3.5,3.4,1.5,3.5,3.5,3.5Z"
     id="path59" />
  <path
     class="st1"
     d="M702.9,429.2l2.7,2.7h0c-.4.6-.8.9-1,1.2-.1.1-.3.3-.3.4h-.2c-.4-.3-1-.6-1.6-.8-.9-.3-1.7-.3-2.5-.3s-2,.3-2.9.8h-.1c-.6-.6-1.1-1.1-1.7-1.6s-.5-.3-.6-.6h0c0-.1,4.9-5,4.9-5h.2c1,1.1,2.1,2.1,3.2,3.1Z"
     id="path60" />
  <path
     class="st1"
     d="M689.2,444.4c-1.2-1.1-2.4-2.2-3.5-3.3h0c.3-.4.8-.8,1-1.2,1.8-1.8,3.8-3.5,5.6-5.2h.1c.3.3.6.6.9.9-.8,1.6-.9,3.3-.3,5.1h0c-1.4,1.5-2.7,2.7-3.9,3.8Z"
     id="path61" />
  <path
     class="st2"
     d="M687.2,443.3l-3.5,3.5"
     id="path62" />
  <path
     class="st2"
     d="M682.5,445.6l2.2,2.2"
     id="path63" />
  <path
     class="st3"
     d="M702.2,420.2l1.5-1.4c.6-.5,1.3-.5,1.9,0l7.5,7.2c.6.6.6,1.5,0,2.1l-1.5,1.4c-.6.5-1.3.5-1.9,0l-7.5-7.2c-.6-.6-.6-1.5,0-2.1Z"
     id="path64" />
  <rect
     class="st27"
     x="45"
     y="520"
     width="405"
     height="403"
     id="rect64" />
  <rect
     class="st37"
     x="1140"
     y="95"
     width="325"
     height="602"
     rx="9"
     ry="9"
     id="rect65" />
  <rect
     class="st39"
     x="608"
     y="731"
     width="477"
     height="188"
     rx="8"
     ry="8"
     id="rect66" />
  <rect
     class="st32"
     x="45"
     y="91"
     width="405"
     height="401"
     rx="8"
     ry="8"
     id="rect67" />
  <rect
     class="st4"
     x="663.7"
     y="96.7"
     width="340.6"
     height="112.6"
     rx="6.3"
     ry="6.3"
     id="rect68" />
  <path
     class="st24"
     d="M77,819c0-5.5,4.5-10,10-10h198.7c5.5,0,10,4.5,10,10v62c0,5.5-4.5,10-10,10H87c-5.5,0-10-4.5-10-10v-62Z"
     id="path68" />
  <g
     class="st40"
     clip-path="url(#clippath)"
     id="g71">
    <path
       class="st25"
       d="M227.9,845.8c0,.6,0,1.1.2,1.5.1.4.3.8.5,1.2,0,.1.1.3.1.4,0,.2-.1.3-.3.5l-1,.7c-.1,0-.3.1-.4.1s-.3,0-.5-.2c-.2-.2-.4-.5-.6-.8-.2-.3-.3-.6-.5-1-1.3,1.5-2.9,2.3-4.9,2.3s-2.5-.4-3.3-1.2c-.8-.8-1.2-1.9-1.2-3.2s.5-2.6,1.5-3.4c1-.9,2.4-1.3,4.1-1.3s1.1,0,1.8.1c.6,0,1.2.2,1.9.4v-1.2c0-1.3-.3-2.1-.8-2.6-.5-.5-1.4-.8-2.7-.8s-1.2,0-1.8.2c-.6.1-1.2.3-1.8.6-.3.1-.5.2-.6.2-.1,0-.2,0-.3,0-.2,0-.3-.2-.3-.5v-.8c0-.3,0-.5.1-.6,0-.1.2-.2.5-.3.6-.3,1.3-.5,2.1-.7.8-.2,1.7-.3,2.6-.3,2,0,3.4.4,4.3,1.3.9.9,1.4,2.3,1.4,4.1v5.4h0ZM221.2,848.3c.5,0,1.1,0,1.7-.3.6-.2,1.1-.6,1.6-1.1.3-.3.5-.7.6-1.1.1-.4.2-.9.2-1.4v-.7c-.5-.1-1-.2-1.5-.3-.5,0-1,0-1.6,0-1.1,0-1.9.2-2.5.7-.5.4-.8,1.1-.8,1.9s.2,1.4.6,1.8c.4.4,1,.6,1.7.6ZM234.5,850.1c-.3,0-.5,0-.6-.2-.1-.1-.2-.3-.3-.6l-3.9-12.8c0-.3-.1-.5-.1-.7,0-.3.1-.4.4-.4h1.6c.3,0,.5,0,.6.2.1,0,.2.3.3.6l2.8,11,2.6-11c0-.3.2-.5.3-.6.1-.1.4-.2.7-.2h1.3c.3,0,.5,0,.7.2.1,0,.2.3.3.6l2.6,11.1,2.9-11.1c0-.3.2-.5.3-.6.1-.1.3-.2.6-.2h1.5c.3,0,.4.1.4.4s0,.2,0,.3c0,0,0,.2-.1.4l-4,12.8c0,.3-.2.5-.3.6-.1,0-.3.2-.6.2h-1.4c-.3,0-.5,0-.7-.2-.1-.1-.2-.3-.3-.7l-2.6-10.7-2.6,10.7c0,.3-.2.5-.3.7-.1.1-.4.2-.7.2h-1.4ZM255.8,850.6c-.9,0-1.7,0-2.6-.3-.8-.2-1.5-.4-1.9-.7-.3-.1-.4-.3-.5-.5s-.1-.3-.1-.5v-.8c0-.3.1-.5.4-.5s.2,0,.3,0c0,0,.2,0,.4.2.6.2,1.2.4,1.8.6.7.1,1.3.2,2,.2,1,0,1.9-.2,2.4-.5.6-.4.9-.9.9-1.6s-.1-.8-.4-1.2c-.3-.3-.9-.6-1.7-.9l-2.4-.7c-1.2-.4-2.1-.9-2.7-1.7-.5-.7-.8-1.5-.8-2.4s.1-1.3.4-1.8c.3-.5.7-1,1.2-1.4.5-.4,1.1-.7,1.7-.9.7-.2,1.4-.3,2.1-.3s.7,0,1.1,0c.4,0,.7.1,1.1.2.3,0,.6.2.9.3.3,0,.5.2.7.3.2.1.4.3.5.4.1.1.1.3.1.5v.8c0,.3-.1.5-.4.5s-.3,0-.6-.2c-.9-.4-2-.6-3.2-.6s-1.7.1-2.2.5c-.5.3-.8.8-.8,1.5s.2.9.5,1.2c.3.3.9.6,1.8.9l2.4.7c1.2.4,2.1.9,2.6,1.6.5.7.8,1.5.8,2.3s-.1,1.4-.4,1.9c-.3.6-.7,1.1-1.2,1.5-.5.4-1.1.7-1.8.9-.7.2-1.5.3-2.4.3Z"
       id="path69" />
    <path
       class="st6"
       d="M258.9,858.6c-5.5,4-13.4,6.2-20.2,6.2s-18.1-3.5-24.6-9.4c-.5-.5,0-1.1.6-.7,7,4.1,15.7,6.5,24.7,6.5s12.7-1.3,18.8-3.8c.9-.4,1.7.6.8,1.3Z"
       id="path70" />
    <path
       class="st6"
       d="M261.2,856c-.7-.9-4.6-.4-6.4-.2-.5,0-.6-.4-.1-.7,3.1-2.2,8.2-1.6,8.8-.8.6.7-.2,5.9-3.1,8.3-.4.4-.9.2-.7-.3.7-1.6,2.1-5.3,1.4-6.2Z"
       id="path71" />
  </g>
  <g
     class="st33"
     clip-path="url(#clippath-1)"
     id="g75">
    <path
       class="st25"
       d="M165.7,832.6h16.6v16.6h-16.6v-16.6Z"
       id="path72" />
    <path
       class="st5"
       d="M183.9,832.6h16.6v16.6h-16.6v-16.6Z"
       id="path73" />
    <path
       class="st35"
       d="M165.7,850.8h16.6v16.6h-16.6v-16.6Z"
       id="path74" />
    <path
       class="st38"
       d="M183.9,850.8h16.6v16.6h-16.6v-16.6Z"
       id="path75" />
  </g>
  <g
     class="st34"
     clip-path="url(#clippath-2)"
     id="g79">
    <path
       class="st35"
       d="M136.6,842.2h1.4s3.8-3.8,3.8-3.8l.2-1.6c-3-2.7-6.9-4.3-11.3-4.3-7.8,0-14.4,5.3-16.4,12.5.4-.3,1.3,0,1.3,0l7.5-1.2s.4-.6.6-.6c1.8-2,4.3-3.1,7-3.1s4.3.8,5.9,2.1h0Z"
       id="path76" />
    <path
       class="st25"
       d="M147.1,845.1c-.9-3.2-2.7-6.1-5.1-8.3l-5.3,5.3c2.1,1.7,3.5,4.4,3.5,7.3v.9c2.6,0,4.7,2.1,4.7,4.7s-2.1,4.7-4.7,4.7h-9.4l-.9.9v5.7l.9.9h9.4c6.8,0,12.2-5.5,12.2-12.2,0-4.2-2.1-7.9-5.3-10.1h0Z"
       id="path77" />
    <path
       class="st38"
       d="M121.2,867.4h9.4v-7.5h-9.4c-.7,0-1.3-.1-1.9-.4l-1.4.4-3.8,3.8-.3,1.3c2.1,1.6,4.7,2.5,7.4,2.5Z"
       id="path78" />
    <path
       class="st5"
       d="M121.2,842.9c-6.8,0-12.2,5.5-12.2,12.2,0,4,1.9,7.5,4.9,9.8l5.5-5.5c-1.7-.8-2.8-2.4-2.8-4.3s2.1-4.7,4.7-4.7,3.6,1.2,4.3,2.8l5.5-5.5c-2.2-2.9-5.8-4.9-9.8-4.9Z"
       id="path79" />
  </g>
  <path
     class="st23"
     d="M77,607c0-5.5,4.5-10,10-10h207c5.5,0,10,4.5,10,10v62c0,5.5-4.5,10-10,10H87c-5.5,0-10-4.5-10-10v-62Z"
     id="path80" />
  <path
     class="st21"
     d="M1173,268c0-5.5,4.5-10,10-10h239c5.5,0,10,4.5,10,10v92c0,5.5-4.5,10-10,10h-239c-5.5,0-10-4.5-10-10v-92Z"
     id="path81" />
  <path
     class="st22"
     d="M1173,409c0-5.5,4.5-10,10-10h239c5.5,0,10,4.5,10,10v92c0,5.5-4.5,10-10,10h-239c-5.5,0-10-4.5-10-10v-92Z"
     id="path82" />
  <path
     class="st20"
     d="M1173,550c0-5.5,4.5-10,10-10h239c5.5,0,10,4.5,10,10v92c0,5.5-4.5,10-10,10h-239c-5.5,0-10-4.5-10-10v-92Z"
     id="path83" />
  <path
     class="st19"
     d="M644,817c0-5.5,4.5-10,10-10h242c5.5,0,10,4.5,10,10v62c0,5.5-4.5,10-10,10h-242c-5.5,0-10-4.5-10-10v-62Z"
     id="path84" />
  <path
     class="st15"
     d="M924,817c0-5.5,4.5-10,10-10h107c5.5,0,10,4.5,10,10v62c0,5.5-4.5,10-10,10h-107c-5.5,0-10-4.5-10-10v-62Z"
     id="path85" />
  <path
     class="st17"
     d="M77,282c0-5.5,4.5-10,10-10h164c5.5,0,10,4.5,10,10v62c0,5.5-4.5,10-10,10H87c-5.5,0-10-4.5-10-10v-62Z"
     id="path86" />
  <path
     class="st16"
     d="M77,184c0-5.5,4.5-10,10-10h260c5.5,0,10,4.5,10,10v62c0,5.5-4.5,10-10,10H87c-5.5,0-10-4.5-10-10v-62Z"
     id="path87" />
  <path
     class="st14"
     d="M77,713c0-5.5,4.5-10,10-10h167c5.5,0,10,4.5,10,10v62c0,5.5-4.5,10-10,10H87c-5.5,0-10-4.5-10-10v-62Z"
     id="path88" />
  <path
     class="st13"
     d="M77,388c0-5.5,4.5-10,10-10h177c5.5,0,10,4.5,10,10v62c0,5.5-4.5,10-10,10H87c-5.5,0-10-4.5-10-10v-62Z"
     id="path89" />
  <path
     class="st26"
     d="M640.1,425.1c.6-.6.6-1.5,0-2.1l-9.5-9.5c-.6-.6-1.5-.6-2.1,0-.6.6-.6,1.5,0,2.1l8.5,8.5-8.5,8.5c-.6.6-.6,1.5,0,2.1.6.6,1.5.6,2.1,0l9.5-9.5ZM328,646.5h160v-3h-160v3ZM521.5,613v-157h-3v157h3ZM552,425.5h87v-3h-87v3ZM521.5,456c0-16.8,13.7-30.5,30.5-30.5v-3c-18.5,0-33.5,15-33.5,33.5h3ZM488,646.5c18.5,0,33.5-15,33.5-33.5h-3c0,16.8-13.7,30.5-30.5,30.5v3Z"
     id="path90" />
  <path
     class="st26"
     d="M637.1,150.1c.6-.6.6-1.5,0-2.1l-9.5-9.5c-.6-.6-1.5-.6-2.1,0-.6.6-.6,1.5,0,2.1l8.5,8.5-8.5,8.5c-.6.6-.6,1.5,0,2.1.6.6,1.5.6,2.1,0l9.5-9.5ZM450,273.5h83v-3h-83v3ZM566.5,240v-59h-3v59h3ZM597,150.5h39v-3h-39v3ZM566.5,181c0-16.8,13.7-30.5,30.5-30.5v-3c-18.5,0-33.5,15-33.5,33.5h3ZM533,273.5c18.5,0,33.5-15,33.5-33.5h-3c0,16.8-13.7,30.5-30.5,30.5v3Z"
     id="path91" />
  <path
     class="st26"
     d="M640.1,392.9c.6.6.6,1.5,0,2.1l-9.5,9.5c-.6.6-1.5.6-2.1,0-.6-.6-.6-1.5,0-2.1l8.5-8.5-8.5-8.5c-.6-.6-.6-1.5,0-2.1.6-.6,1.5-.6,2.1,0l9.5,9.5ZM450,270.5h84.8v3h-84.8v-3ZM568.3,304v58h-3v-58h3ZM598.8,392.5h40.2v3h-40.2v-3ZM568.3,362c0,16.8,13.7,30.5,30.5,30.5v3c-18.5,0-33.5-15-33.5-33.5h3ZM534.8,270.5c18.5,0,33.5,15,33.5,33.5h-3c0-16.8-13.7-30.5-30.5-30.5v-3Z"
     id="path92" />
  <path
     class="st26"
     d="M640.1,457.1c.6-.6.6-1.5,0-2.1l-9.5-9.5c-.6-.6-1.5-.6-2.1,0-.6.6-.6,1.5,0,2.1l8.5,8.5-8.5,8.5c-.6.6-.6,1.5,0,2.1.6.6,1.5.6,2.1,0l9.5-9.5ZM264,750.5h241.9v-3h-241.9v3ZM539.4,717v-229h-3v229h3ZM569.9,457.5h69.1v-3h-69.1v3ZM539.4,488c0-16.8,13.7-30.5,30.5-30.5v-3c-18.5,0-33.5,15-33.5,33.5h3ZM505.9,750.5c18.5,0,33.5-15,33.5-33.5h-3c0,16.8-13.7,30.5-30.5,30.5v3Z"
     id="path93" />
  <path
     class="st26"
     d="M640.1,491.1c.6-.6.6-1.5,0-2.1l-9.5-9.5c-.6-.6-1.5-.6-2.1,0-.6.6-.6,1.5,0,2.1l8.5,8.5-8.5,8.5c-.6.6-.6,1.5,0,2.1.6.6,1.5.6,2.1,0l9.5-9.5ZM296,855.5h239.1v-3h-239.1v3ZM568.6,822v-300h-3v300h3ZM599.1,491.5h39.9v-3h-39.9v3ZM568.6,522c0-16.8,13.7-30.5,30.5-30.5v-3c-18.5,0-33.5,15-33.5,33.5h3ZM535.1,855.5c18.5,0,33.5-15,33.5-33.5h-3c0,16.8-13.7,30.5-30.5,30.5v3Z"
     id="path94" />
  <path
     class="st26"
     d="M848.1,570.9c-.6-.6-1.5-.6-2.1,0l-9.5,9.5c-.6.6-.6,1.5,0,2.1.6.6,1.5.6,2.1,0l8.5-8.5,8.5,8.5c.6.6,1.5.6,2.1,0,.6-.6.6-1.5,0-2.1l-9.5-9.5ZM845.5,572v159h3v-159h-3Z"
     id="path95" />
  <path
     class="st36"
     d="M1040.9,421.9c-.6.6-.6,1.5,0,2.1l9.6,9.5c.6.6,1.5.6,2.1,0,.6-.6.6-1.5,0-2.1l-8.5-8.5,8.5-8.5c.6-.6.6-1.5,0-2.1-.6-.6-1.5-.6-2.1,0l-9.6,9.5ZM1162.1,313.1c.6-.6.6-1.5,0-2.1l-9.6-9.5c-.6-.6-1.5-.6-2.1,0-.6.6-.6,1.5,0,2.1l8.5,8.5-8.5,8.5c-.6.6-.6,1.5,0,2.1.6.6,1.5.6,2.1,0l9.6-9.5ZM1042,424.5h30.6v-3h-30.6v3ZM1106.1,391v-47h-3v47h3ZM1136.6,313.5h24.4v-3h-24.4v3ZM1106.1,344c0-16.8,13.7-30.5,30.5-30.5v-3c-18.5,0-33.5,15-33.5,33.5h3ZM1072.6,424.5c18.5,0,33.5-15,33.5-33.5h-3c0,16.8-13.7,30.5-30.5,30.5v3Z"
     id="path96" />
  <path
     class="st36"
     d="M1162.1,594.9c.6.6.6,1.5,0,2.1l-9.6,9.5c-.6.6-1.5.6-2.1,0-.6-.6-.6-1.5,0-2.1l8.5-8.5-8.5-8.5c-.6-.6-.6-1.5,0-2.1.6-.6,1.5-.6,2.1,0l9.6,9.5ZM1040.9,486.1c-.6-.6-.6-1.5,0-2.1l9.6-9.5c.6-.6,1.5-.6,2.1,0,.6.6.6,1.5,0,2.1l-8.5,8.5,8.5,8.5c.6.6.6,1.5,0,2.1-.6.6-1.5.6-2.1,0l-9.6-9.5ZM1161,597.5h-30.6v-3h30.6v3ZM1096.9,564v-47h3v47h-3ZM1066.4,486.5h-24.4v-3h24.4v3ZM1096.9,517c0-16.8-13.7-30.5-30.5-30.5v-3c18.5,0,33.5,15,33.5,33.5h-3ZM1130.4,597.5c-18.5,0-33.5-15-33.5-33.5h3c0,16.8,13.7,30.5,30.5,30.5v3Z"
     id="path97" />
  <path
     class="st36"
     d="M1040.9,451.9c-.6.6-.6,1.5,0,2.1l9.6,9.5c.6.6,1.5.6,2.1,0,.6-.6.6-1.5,0-2.1l-8.5-8.5,8.5-8.5c.6-.6.6-1.5,0-2.1-.6-.6-1.5-.6-2.1,0l-9.6,9.5ZM1162.1,454.1c.6-.6.6-1.5,0-2.1l-9.6-9.5c-.6-.6-1.5-.6-2.1,0-.6.6-.6,1.5,0,2.1l8.5,8.5-8.5,8.5c-.6.6-.6,1.5,0,2.1.6.6,1.5.6,2.1,0l9.6-9.5ZM1042,454.5h119v-3h-119v3Z"
     id="path98" />
  <text
     class="st7"
     transform="translate(107 229.1)"
     id="text98"><tspan
       x="0"
       y="0"
       id="tspan98">OTel Auto. Inst.</tspan></text>
  <text
     class="st7"
     transform="translate(105.5 326.3)"
     id="text99"><tspan
       x="0"
       y="0"
       id="tspan99">OTel API</tspan></text>
  <text
     class="st7"
     transform="translate(105.5 430.3)"
     id="text100"><tspan
       x="0"
       y="0"
       id="tspan100">OTel SDK</tspan></text>
  <text
     class="st30"
     transform="translate(77.3 144.4)"
     id="text101"><tspan
       x="0"
       y="0"
       id="tspan101">Microservices</tspan></text>
  <text
     class="st9"
     transform="translate(76.9 573.5)"
     id="text102"><tspan
       x="0"
       y="0"
       id="tspan102">Shared Infra</tspan></text>
  <text
     class="st7"
     transform="translate(110.5 648.8)"
     id="text103"><tspan
       x="0"
       y="0"
       id="tspan103">Kubernetes</tspan></text>
  <text
     class="st7"
     transform="translate(109.3 756.2)"
     id="text104"><tspan
       x="0"
       y="0"
       id="tspan104">L7 Proxy</tspan></text>
  <text
     class="st31"
     transform="translate(704.3 163.8)"
     id="text105"><tspan
       x="0"
       y="0"
       id="tspan105">3rd party service</tspan></text>
  <text
     class="st29"
     transform="translate(1173 154.4)"
     id="text107"><tspan
       x="0"
       y="0"
       id="tspan106">Observability</tspan><tspan
       x="0"
       y="36"
       id="tspan107">Frontends &amp; APIs</tspan></text>
  <text
     class="st8"
     transform="translate(1205.5 448.4)"
     id="text109"><tspan
       x="0"
       y="0"
       id="tspan108">Trace</tspan><tspan
       x="0"
       y="36"
       id="tspan109">Databases</tspan></text>
  <text
     class="st8"
     transform="translate(1203.8 589.7)"
     id="text111"><tspan
       x="0"
       y="0"
       id="tspan110">Column</tspan><tspan
       x="0"
       y="36"
       id="tspan111">Stores</tspan></text>
  <text
     class="st28"
     transform="translate(641.4 779.8)"
     id="text112"><tspan
       x="0"
       y="0"
       id="tspan112">Client Instrumentation</tspan></text>
  <text
     class="st8"
     transform="translate(678.3 857.1)"
     id="text113"><tspan
       x="0"
       y="0"
       id="tspan113">Managed DBs</tspan></text>
  <text
     class="st8"
     transform="translate(955.3 856.7)"
     id="text114"><tspan
       x="0"
       y="0"
       id="tspan114">APIs</tspan></text>
  <text
     class="st8"
     transform="translate(772.9 452.7)"
     id="text115"><tspan
       x="0"
       y="0"
       id="tspan115">OTel Collector</tspan></text>
  <text
     class="st8"
     transform="translate(1206 306.3)"
     id="text117"><tspan
       x="0"
       y="0"
       id="tspan116">Time Series</tspan><tspan
       x="0"
       y="36"
       id="tspan117">Databases</tspan></text>
</svg>
