<svg width="1180" height="751" fill="none" xmlns="http://www.w3.org/2000/svg"><g clip-path="url(#a)"><path fill="#fff" d="M0 0h1180v751H0z"/><path d="M66.973 55H1132.16v54.216H66.973V55Z" fill="#E7ECF8"/><path d="M66.973 55h9.567v54.216h-9.567V55Z" fill="#8FA5ED"/><path d="M95.957 91.443c-1.142 0-2.125-.27-2.95-.808-.824-.54-1.458-1.282-1.902-2.228-.444-.946-.666-2.027-.666-3.243 0-1.236.227-2.328.682-3.274.46-.951 1.099-1.694 1.918-2.227.825-.54 1.787-.809 2.886-.809.856 0 1.628.159 2.315.476.687.317 1.25.76 1.688 1.332.439.57.711 1.236.817 1.997h-1.871c-.143-.555-.46-1.046-.951-1.474-.487-.434-1.142-.65-1.966-.65-.73 0-1.37.19-1.919.57-.544.376-.97.907-1.276 1.594-.302.682-.452 1.482-.452 2.402 0 .94.148 1.76.444 2.458.301.697.724 1.239 1.268 1.625.55.386 1.195.579 1.935.579.486 0 .927-.085 1.324-.254a2.73 2.73 0 0 0 1.006-.73 2.8 2.8 0 0 0 .587-1.141h1.871a4.333 4.333 0 0 1-.785 1.942 4.387 4.387 0 0 1-1.64 1.364c-.677.333-1.465.5-2.363.5Zm9.394-16.49V91.19h-1.871V74.954h1.871Zm3.427 16.236V79.013h1.871v12.176h-1.871Zm.951-14.206c-.365 0-.679-.124-.943-.373a1.197 1.197 0 0 1-.389-.895c0-.35.13-.648.389-.896.264-.249.578-.373.943-.373s.676.124.935.373c.265.248.397.547.397.896s-.132.647-.397.895a1.3 1.3 0 0 1-.935.373Zm9.452 14.46c-1.174 0-2.186-.259-3.037-.777-.845-.523-1.498-1.252-1.958-2.188-.454-.94-.681-2.035-.681-3.282 0-1.247.227-2.346.681-3.298.46-.956 1.1-1.702 1.919-2.235.824-.54 1.786-.809 2.885-.809.635 0 1.261.106 1.879.317a4.648 4.648 0 0 1 1.689 1.03c.507.471.912 1.095 1.213 1.872.301.777.452 1.733.452 2.87v.792h-9.387v-1.617h7.484c0-.687-.137-1.3-.412-1.84a3.112 3.112 0 0 0-1.158-1.276c-.496-.311-1.083-.467-1.76-.467-.745 0-1.39.185-1.934.555-.539.364-.954.84-1.245 1.427a4.201 4.201 0 0 0-.436 1.886v1.078c0 .92.159 1.7.476 2.34.322.633.769 1.117 1.34 1.45.571.328 1.234.492 1.99.492.491 0 .935-.07 1.332-.207a2.856 2.856 0 0 0 1.038-.634c.291-.285.515-.64.674-1.062l1.807.507a4.006 4.006 0 0 1-.959 1.617 4.67 4.67 0 0 1-1.665 1.079c-.66.253-1.403.38-2.227.38Zm9.759-7.579v7.325h-1.871V79.013h1.807v1.902h.159a3.476 3.476 0 0 1 1.3-1.49c.581-.38 1.332-.571 2.251-.571.825 0 1.546.17 2.165.507.618.333 1.099.84 1.443 1.522.343.677.515 1.533.515 2.569v7.737h-1.871v-7.61c0-.957-.249-1.702-.745-2.236-.497-.539-1.179-.808-2.046-.808-.597 0-1.131.13-1.601.388a2.783 2.783 0 0 0-1.102 1.134c-.27.497-.404 1.1-.404 1.807Zm16.483-4.852v1.586h-6.31v-1.585h6.31Zm-4.471-2.917h1.871v11.606c0 .529.077.925.23 1.19.158.258.359.433.602.523.249.084.51.126.785.126.206 0 .376-.01.508-.031l.317-.064.38 1.681a3.807 3.807 0 0 1-.531.143 3.9 3.9 0 0 1-.864.079 3.766 3.766 0 0 1-1.554-.34 3.085 3.085 0 0 1-1.252-1.04c-.328-.465-.492-1.051-.492-1.76V76.096Z" fill="#566381"/><path d="M124 137.54h971v55H124v-55Z" fill="#E7E9EE"/><path d="M124.378 137.919h9.568v54.216h-9.568v-54.216Zm29.777 19.191-5.233 19.439h-1.712l5.232-19.439h1.713Zm5.801 17.283c-.772 0-1.472-.146-2.101-.436a3.605 3.605 0 0 1-1.498-1.277c-.37-.56-.555-1.236-.555-2.029 0-.698.137-1.263.412-1.697a2.91 2.91 0 0 1 1.102-1.03c.46-.249.967-.434 1.522-.555.56-.127 1.123-.227 1.689-.301a73.37 73.37 0 0 1 1.799-.214c.465-.053.803-.14 1.015-.262.217-.122.325-.333.325-.634v-.064c0-.782-.214-1.39-.642-1.823-.423-.433-1.065-.65-1.927-.65-.893 0-1.593.195-2.101.587-.507.391-.864.808-1.07 1.252l-1.776-.634c.318-.74.74-1.316 1.269-1.728a4.734 4.734 0 0 1 1.744-.872 7.247 7.247 0 0 1 1.871-.254c.391 0 .84.048 1.348.143a4.31 4.31 0 0 1 1.482.563c.481.285.88.716 1.197 1.292.317.576.476 1.347.476 2.315v8.022h-1.871v-1.649h-.095c-.127.265-.339.547-.634.849-.296.301-.69.557-1.182.769-.491.211-1.091.317-1.799.317Zm.285-1.681c.74 0 1.364-.145 1.871-.436.513-.291.899-.666 1.157-1.126.265-.459.397-.943.397-1.45v-1.713c-.079.095-.254.183-.523.262-.265.074-.571.14-.92.198-.343.053-.679.1-1.007.143-.322.037-.584.068-.785.095-.486.063-.94.166-1.363.309a2.346 2.346 0 0 0-1.015.626c-.254.275-.38.65-.38 1.126 0 .65.24 1.142.721 1.475.486.327 1.102.491 1.847.491Zm8.711 5.962v-16.743h1.807v1.934h.222c.138-.212.328-.481.571-.809.248-.333.602-.629 1.062-.888.465-.264 1.094-.396 1.887-.396 1.025 0 1.929.256 2.711.769.782.513 1.393 1.239 1.832 2.18.438.941.658 2.051.658 3.33 0 1.289-.22 2.407-.658 3.353-.439.941-1.047 1.67-1.824 2.188-.777.513-1.673.769-2.687.769-.782 0-1.409-.129-1.879-.388-.471-.265-.833-.563-1.086-.896a12.04 12.04 0 0 1-.587-.841h-.158v6.438h-1.871Zm1.839-10.655c0 .92.135 1.731.404 2.434.27.697.663 1.244 1.181 1.641.518.391 1.153.586 1.903.586.782 0 1.435-.206 1.958-.618.529-.417.925-.978 1.189-1.681.27-.708.405-1.495.405-2.362 0-.856-.132-1.628-.397-2.315-.259-.692-.652-1.239-1.181-1.641-.523-.407-1.181-.61-1.974-.61-.761 0-1.401.193-1.918.578-.518.381-.909.915-1.174 1.602-.264.682-.396 1.477-.396 2.386Zm11.765 6.088v-12.176h1.87v12.176h-1.87Zm.951-14.206a1.33 1.33 0 0 1-.944-.373 1.195 1.195 0 0 1-.388-.895c0-.349.129-.648.388-.896a1.33 1.33 0 0 1 .944-.373 1.3 1.3 0 0 1 .935.373c.265.248.397.547.397.896 0 .348-.132.647-.397.895a1.3 1.3 0 0 1-.935.373Z" fill="#566381"/><path d="M124 224.026h130.757v54.217H124v-54.217Z" fill="#E8F6FC"/><path d="M124 224.026h9.568v54.217H124v-54.217Z" fill="#97DBFC"/><path d="m153.614 243.543-5.232 19.439h-1.713l5.233-19.439h1.712Zm5.801 17.282c-.771 0-1.472-.145-2.101-.436a3.603 3.603 0 0 1-1.498-1.276c-.37-.56-.555-1.237-.555-2.029 0-.698.138-1.264.412-1.697a2.913 2.913 0 0 1 1.102-1.031c.46-.248.967-.433 1.522-.554a18.507 18.507 0 0 1 1.689-.302 79.34 79.34 0 0 1 1.8-.214c.465-.053.803-.14 1.014-.261.217-.122.325-.333.325-.635v-.063c0-.782-.214-1.39-.642-1.823-.423-.434-1.065-.65-1.926-.65-.893 0-1.594.195-2.101.586-.507.391-.864.809-1.07 1.253l-1.776-.634c.317-.74.74-1.316 1.268-1.729a4.765 4.765 0 0 1 1.744-.872 7.25 7.25 0 0 1 1.871-.253c.391 0 .841.047 1.348.142.513.09 1.007.278 1.483.563.48.286.88.716 1.197 1.292.317.576.475 1.348.475 2.315v8.023h-1.871v-1.649h-.095c-.127.264-.338.547-.634.848-.296.302-.69.558-1.181.769-.492.212-1.092.317-1.8.317Zm.286-1.68c.74 0 1.363-.146 1.871-.436.512-.291.898-.666 1.157-1.126a2.87 2.87 0 0 0 .396-1.451v-1.712c-.079.095-.253.182-.523.261a8.792 8.792 0 0 1-.919.199c-.344.053-.68.1-1.007.142-.323.037-.584.069-.785.096a7.105 7.105 0 0 0-1.364.309 2.348 2.348 0 0 0-1.014.626c-.254.275-.381.65-.381 1.126 0 .65.24 1.141.721 1.474.487.328 1.102.492 1.848.492Zm16.384-3.584v-7.198h1.871v12.177h-1.871v-2.061h-.127c-.285.618-.729 1.144-1.332 1.577-.602.429-1.363.643-2.283.643-.761 0-1.437-.167-2.029-.5-.592-.338-1.057-.845-1.396-1.522-.338-.682-.507-1.541-.507-2.576v-7.738h1.871v7.611c0 .888.248 1.596.745 2.124.502.529 1.142.793 1.919.793.465 0 .938-.119 1.419-.357a3.087 3.087 0 0 0 1.221-1.094c.333-.491.499-1.117.499-1.879Zm10.593-7.198v1.586h-6.31v-1.586h6.31Zm-4.471-2.917h1.871v11.606c0 .528.077.925.23 1.189.159.259.359.433.603.523.248.085.51.127.784.127.207 0 .376-.01.508-.032l.317-.063.38 1.681a3.758 3.758 0 0 1-.531.142c-.227.053-.515.08-.864.08a3.775 3.775 0 0 1-1.554-.341 3.094 3.094 0 0 1-1.252-1.039c-.328-.465-.492-1.052-.492-1.76v-12.113Zm9.418 7.769v7.325h-1.871v-16.236h1.871v5.962h.159a3.439 3.439 0 0 1 1.284-1.499c.576-.375 1.343-.562 2.299-.562.83 0 1.557.166 2.18.499.624.328 1.108.832 1.451 1.514.349.677.523 1.538.523 2.585v7.737h-1.871v-7.611c0-.967-.251-1.715-.753-2.243-.497-.534-1.186-.801-2.069-.801-.613 0-1.163.13-1.649.389a2.84 2.84 0 0 0-1.141 1.133c-.275.497-.413 1.1-.413 1.808Zm24.447-8.911v16.236h-1.902l-8.848-12.748h-.158v12.748h-1.966v-16.236h1.902l8.879 12.78h.159v-12.78h1.934Z" fill="#566381"/><path d="M146 305.54h102v54H146v-54Z" fill="#FFF0F0"/><path d="M146 305.54h9.568v54.216H146V305.54Z" fill="#FFD6D6"/><path d="m175.452 325.543-5.232 19.439h-1.713l5.233-19.439h1.712Zm5.801 17.282c-.772 0-1.472-.145-2.101-.436a3.603 3.603 0 0 1-1.498-1.276c-.37-.56-.555-1.237-.555-2.029 0-.698.137-1.264.412-1.697a2.913 2.913 0 0 1 1.102-1.031c.46-.248.967-.433 1.522-.554a18.507 18.507 0 0 1 1.689-.302c.74-.095 1.34-.166 1.799-.214.466-.053.804-.14 1.015-.261.217-.122.325-.333.325-.635v-.063c0-.782-.214-1.39-.642-1.823-.423-.434-1.065-.65-1.926-.65-.894 0-1.594.195-2.101.586-.508.391-.864.809-1.07 1.253l-1.776-.634c.317-.74.74-1.316 1.268-1.729a4.765 4.765 0 0 1 1.744-.872 7.25 7.25 0 0 1 1.871-.253c.391 0 .841.047 1.348.142.513.09 1.007.278 1.482.563.481.286.88.716 1.198 1.292.317.576.475 1.348.475 2.315v8.023h-1.871v-1.649h-.095c-.127.264-.338.547-.634.848-.296.302-.69.558-1.181.769-.492.212-1.092.317-1.8.317Zm.285-1.68c.74 0 1.364-.146 1.871-.436.513-.291.899-.666 1.158-1.126a2.87 2.87 0 0 0 .396-1.451v-1.712c-.079.095-.253.182-.523.261a8.758 8.758 0 0 1-.92.199c-.343.053-.679.1-1.006.142-.323.037-.584.069-.785.096a7.105 7.105 0 0 0-1.364.309 2.352 2.352 0 0 0-1.015.626c-.253.275-.38.65-.38 1.126 0 .65.24 1.141.721 1.474.487.328 1.102.492 1.847.492Zm16.385-3.584v-7.198h1.871v12.177h-1.871v-2.061h-.127c-.285.618-.729 1.144-1.332 1.577-.602.429-1.363.643-2.283.643-.761 0-1.437-.167-2.029-.5-.592-.338-1.057-.845-1.396-1.522-.338-.682-.507-1.541-.507-2.576v-7.738h1.871v7.611c0 .888.248 1.596.745 2.124.502.529 1.142.793 1.919.793.465 0 .938-.119 1.419-.357a3.087 3.087 0 0 0 1.221-1.094c.333-.491.499-1.117.499-1.879Zm10.593-7.198v1.586h-6.31v-1.586h6.31Zm-4.471-2.917h1.871v11.606c0 .528.077.925.23 1.189.159.259.359.433.602.523.249.085.51.127.785.127.206 0 .376-.01.508-.032l.317-.063.38 1.681a3.836 3.836 0 0 1-.531.142c-.227.053-.515.08-.864.08a3.775 3.775 0 0 1-1.554-.341 3.094 3.094 0 0 1-1.252-1.039c-.328-.465-.492-1.052-.492-1.76v-12.113Zm9.418 7.769v7.325h-1.871v-16.236h1.871v5.962h.159a3.439 3.439 0 0 1 1.284-1.499c.576-.375 1.342-.562 2.299-.562.83 0 1.557.166 2.18.499.624.328 1.107.832 1.451 1.514.349.677.523 1.538.523 2.585v7.737h-1.871v-7.611c0-.967-.251-1.715-.753-2.243-.497-.534-1.186-.801-2.069-.801-.613 0-1.163.13-1.649.389a2.848 2.848 0 0 0-1.142 1.133c-.274.497-.412 1.1-.412 1.808Zm11.034 7.325v-1.427l8.752-13.065h-8.848v-1.744h11.194v1.427l-8.752 13.065h8.847v1.744h-11.193Z" fill="#566381"/><path d="M378.5 306.04h181v53h-181v-53Z" fill="#fff" stroke="#E7E9EE"/><path d="M378 305.54h9.568v54.216H378V305.54Z" fill="#D6D9E1"/><path d="M401.966 342.54v-16.236h9.799v1.744h-7.833v5.486h7.325v1.744h-7.325v5.518h7.96v1.744h-9.926Zm14.484-12.177 2.917 4.979 2.918-4.979h2.156l-3.932 6.089 3.932 6.088h-2.156l-2.918-4.725-2.917 4.725h-2.156l3.868-6.088-3.868-6.089h2.156Zm15.956 0v1.586h-6.31v-1.586h6.31Zm-4.471-2.917h1.871v11.606c0 .528.077.925.23 1.189.159.259.359.433.602.523.249.085.51.127.785.127.206 0 .376-.01.508-.032l.317-.063.38 1.681a3.836 3.836 0 0 1-.531.142c-.227.053-.515.08-.864.08a3.775 3.775 0 0 1-1.554-.341 3.094 3.094 0 0 1-1.252-1.039c-.328-.465-.492-1.052-.492-1.76v-12.113Zm8.649 15.221c-.391 0-.726-.14-1.007-.42-.28-.28-.42-.616-.42-1.007 0-.391.14-.727.42-1.007.281-.28.616-.42 1.007-.42.391 0 .727.14 1.007.42.28.28.42.616.42 1.007 0 .259-.066.497-.198.713a1.494 1.494 0 0 1-.515.524c-.212.126-.45.19-.714.19Zm11.317-16.363h2.347l5.517 13.477h.19l5.518-13.477h2.347v16.236h-1.839v-12.335h-.159l-5.074 12.335h-1.776l-5.073-12.335h-.159v12.335h-1.839v-16.236Zm24.713 16.49c-1.174 0-2.186-.259-3.037-.777-.845-.523-1.498-1.253-1.958-2.188-.454-.941-.682-2.035-.682-3.282 0-1.248.228-2.347.682-3.298.46-.957 1.099-1.702 1.919-2.236.824-.539 1.786-.808 2.885-.808.634 0 1.261.105 1.879.317a4.667 4.667 0 0 1 1.689 1.03c.507.471.911 1.094 1.213 1.871.301.777.452 1.734.452 2.87v.793h-9.387v-1.617h7.484c0-.688-.138-1.301-.412-1.84a3.112 3.112 0 0 0-1.158-1.276c-.497-.312-1.083-.468-1.76-.468-.745 0-1.39.185-1.934.555a3.661 3.661 0 0 0-1.245 1.427 4.204 4.204 0 0 0-.436 1.887v1.078c0 .92.159 1.699.476 2.339.322.634.769 1.118 1.34 1.451.57.327 1.234.491 1.99.491.491 0 .935-.069 1.331-.206a2.858 2.858 0 0 0 1.039-.634 2.89 2.89 0 0 0 .674-1.063l1.807.508a4.006 4.006 0 0 1-.959 1.617 4.669 4.669 0 0 1-1.665 1.078c-.66.254-1.403.381-2.227.381Zm7.888-.254v-12.177h1.807v1.839h.127c.222-.602.624-1.091 1.205-1.466a3.54 3.54 0 0 1 1.966-.563c.137 0 .309.003.515.008.206.005.362.013.468.024v1.902a5.678 5.678 0 0 0-.436-.071 4.29 4.29 0 0 0-.706-.056c-.592 0-1.12.125-1.585.373a2.8 2.8 0 0 0-1.094 1.015 2.737 2.737 0 0 0-.397 1.466v7.706h-1.87Zm12.882.254c-1.142 0-2.125-.27-2.949-.809-.825-.539-1.459-1.282-1.903-2.228-.444-.946-.666-2.026-.666-3.242 0-1.237.228-2.328.682-3.274.46-.951 1.099-1.694 1.919-2.228.824-.539 1.786-.808 2.885-.808.856 0 1.628.158 2.315.475.687.317 1.25.761 1.689 1.332.438.571.711 1.237.816 1.998h-1.871c-.142-.555-.459-1.047-.951-1.475-.486-.433-1.142-.65-1.966-.65-.729 0-1.369.191-1.918.571-.545.375-.97.906-1.277 1.594-.301.681-.452 1.482-.452 2.402 0 .94.148 1.76.444 2.457.301.698.724 1.24 1.269 1.625.549.386 1.194.579 1.934.579.486 0 .928-.085 1.324-.254a2.735 2.735 0 0 0 1.007-.729 2.79 2.79 0 0 0 .586-1.142h1.871a4.322 4.322 0 0 1-.785 1.943 4.377 4.377 0 0 1-1.641 1.363c-.676.333-1.464.5-2.362.5Zm9.394-7.579v7.325h-1.871v-16.236h1.871v5.962h.159a3.439 3.439 0 0 1 1.284-1.499c.576-.375 1.343-.562 2.299-.562.83 0 1.557.166 2.18.499.624.328 1.108.832 1.451 1.514.349.677.523 1.538.523 2.585v7.737h-1.871v-7.611c0-.967-.251-1.715-.753-2.243-.497-.534-1.186-.801-2.069-.801-.613 0-1.163.13-1.649.389a2.84 2.84 0 0 0-1.141 1.133c-.275.497-.413 1.1-.413 1.808Zm14.902 7.61c-.771 0-1.472-.145-2.1-.436a3.606 3.606 0 0 1-1.499-1.276c-.37-.56-.555-1.237-.555-2.029 0-.698.138-1.264.412-1.697a2.92 2.92 0 0 1 1.102-1.031c.46-.248.968-.433 1.523-.554.56-.127 1.123-.228 1.688-.302a79.34 79.34 0 0 1 1.8-.214c.465-.053.803-.14 1.014-.261.217-.122.325-.333.325-.635v-.063c0-.782-.214-1.39-.642-1.823-.422-.434-1.065-.65-1.926-.65-.893 0-1.594.195-2.101.586-.507.391-.864.809-1.07 1.253l-1.776-.634c.317-.74.74-1.316 1.268-1.729a4.77 4.77 0 0 1 1.745-.872 7.24 7.24 0 0 1 1.871-.253c.391 0 .84.047 1.347.142.513.09 1.007.278 1.483.563.481.286.88.716 1.197 1.292.317.576.475 1.348.475 2.315v8.023h-1.871v-1.649h-.095c-.126.264-.338.547-.634.848-.296.302-.69.558-1.181.769-.492.212-1.091.317-1.8.317Zm.286-1.68c.74 0 1.363-.146 1.871-.436.512-.291.898-.666 1.157-1.126a2.87 2.87 0 0 0 .396-1.451v-1.712c-.079.095-.253.182-.523.261a8.792 8.792 0 0 1-.919.199c-.344.053-.679.1-1.007.142-.323.037-.584.069-.785.096a7.105 7.105 0 0 0-1.364.309 2.348 2.348 0 0 0-1.014.626c-.254.275-.381.65-.381 1.126 0 .65.241 1.141.722 1.474.486.328 1.102.492 1.847.492Zm10.581-5.93v7.325h-1.871v-12.177h1.808v1.903h.158a3.486 3.486 0 0 1 1.3-1.491c.582-.38 1.332-.57 2.252-.57.824 0 1.546.169 2.164.507.619.333 1.099.84 1.443 1.522.344.677.515 1.533.515 2.569v7.737h-1.871v-7.611c0-.956-.248-1.701-.745-2.235-.497-.539-1.178-.809-2.045-.809a3.27 3.27 0 0 0-1.602.389 2.778 2.778 0 0 0-1.101 1.133c-.27.497-.405 1.1-.405 1.808Zm16.484-4.852v1.586h-6.311v-1.586h6.311Zm-4.471-2.917h1.871v11.606c0 .528.076.925.229 1.189.159.259.36.433.603.523.248.085.51.127.785.127a3.2 3.2 0 0 0 .507-.032l.317-.063.381 1.681a3.836 3.836 0 0 1-.531.142c-.228.053-.516.08-.864.08a3.768 3.768 0 0 1-1.554-.341 3.096 3.096 0 0 1-1.253-1.039c-.328-.465-.491-1.052-.491-1.76v-12.113Z" fill="#566381"/><path d="M285 305.54h82v54h-82v-54Z" fill="#E7ECF8"/><path d="M285 305.54h9.568v54.216H285V305.54Z" fill="#8FA5ED"/><path d="M313.976 342.54h-5.01v-16.236h5.232c1.575 0 2.923.325 4.043.975 1.121.645 1.98 1.573 2.577 2.783.597 1.205.896 2.648.896 4.328 0 1.692-.301 3.148-.904 4.369-.602 1.215-1.48 2.151-2.632 2.806-1.152.65-2.553.975-4.202.975Zm-3.044-1.744h2.918c1.342 0 2.454-.259 3.337-.777a4.783 4.783 0 0 0 1.974-2.212c.433-.956.65-2.095.65-3.417 0-1.31-.214-2.439-.642-3.385-.428-.951-1.068-1.68-1.919-2.188-.85-.512-1.91-.769-3.179-.769h-3.139v12.748Zm14.08 1.744v-16.236h5.676c1.131 0 2.064.196 2.798.587.735.386 1.282.906 1.641 1.562.36.65.539 1.371.539 2.164 0 .697-.124 1.274-.372 1.728a2.896 2.896 0 0 1-.967 1.078c-.397.264-.827.46-1.293.587v.158c.497.032.997.207 1.499.524.502.317.922.771 1.26 1.363.339.592.508 1.316.508 2.172 0 .814-.185 1.546-.555 2.196-.37.65-.954 1.166-1.752 1.546-.798.381-1.837.571-3.116.571h-5.866Zm1.966-1.744h3.9c1.284 0 2.196-.248 2.735-.745.545-.502.817-1.11.817-1.824 0-.549-.14-1.057-.42-1.522a3.053 3.053 0 0 0-1.197-1.125c-.518-.286-1.132-.429-1.84-.429h-3.995v5.645Zm0-7.357h3.646c.592 0 1.126-.116 1.602-.349.481-.232.861-.56 1.141-.983.286-.423.429-.919.429-1.49 0-.714-.249-1.319-.746-1.816-.496-.502-1.284-.753-2.362-.753h-3.71v5.391Z" fill="#566381"/><path d="M267 223.54h293v54H267v-54Z" fill="#E8F7EB"/><path d="M267 223.54h9.568v54.216H267V223.54Z" fill="#A9C265"/><path d="m296.452 242.543-5.232 19.439h-1.713l5.233-19.439h1.712Zm2.218 21.563v-16.743h1.807v1.934h.222c.138-.211.328-.48.571-.808.248-.333.603-.629 1.062-.888.465-.264 1.094-.396 1.887-.396 1.025 0 1.929.256 2.711.769.783.512 1.393 1.239 1.832 2.18.438.94.658 2.05.658 3.329 0 1.29-.22 2.408-.658 3.354-.439.94-1.047 1.67-1.824 2.188-.777.512-1.672.769-2.687.769-.782 0-1.409-.13-1.879-.389-.47-.264-.832-.563-1.086-.896a12.058 12.058 0 0 1-.587-.84h-.158v6.437h-1.871Zm1.839-10.654c0 .919.135 1.73.404 2.433.27.698.664 1.245 1.182 1.641.517.392 1.152.587 1.902.587.782 0 1.435-.206 1.958-.618.529-.418.925-.978 1.189-1.681.27-.708.405-1.496.405-2.362 0-.857-.132-1.628-.397-2.315-.259-.693-.652-1.24-1.181-1.641-.523-.407-1.181-.611-1.974-.611-.761 0-1.4.193-1.918.579-.518.38-.909.914-1.174 1.601-.264.682-.396 1.478-.396 2.387Zm15.348 6.373c-.772 0-1.472-.145-2.101-.436a3.603 3.603 0 0 1-1.498-1.276c-.37-.56-.555-1.237-.555-2.029 0-.698.137-1.264.412-1.697a2.913 2.913 0 0 1 1.102-1.031c.46-.248.967-.433 1.522-.554.56-.127 1.123-.228 1.689-.302.74-.095 1.34-.166 1.799-.214.465-.053.804-.14 1.015-.261.217-.122.325-.333.325-.635v-.063c0-.782-.214-1.39-.642-1.823-.423-.434-1.065-.65-1.926-.65-.894 0-1.594.195-2.101.586-.508.391-.864.809-1.071 1.253l-1.775-.634c.317-.74.74-1.316 1.268-1.729a4.765 4.765 0 0 1 1.744-.872 7.245 7.245 0 0 1 1.871-.253c.391 0 .84.047 1.348.142.512.09 1.007.278 1.482.563.481.286.88.716 1.197 1.292.317.576.476 1.348.476 2.315v8.023h-1.871v-1.649h-.095c-.127.264-.338.547-.634.848-.296.302-.69.558-1.181.769-.492.212-1.092.317-1.8.317Zm.285-1.68c.74 0 1.364-.146 1.871-.436.513-.291.899-.666 1.158-1.126a2.87 2.87 0 0 0 .396-1.451v-1.712c-.079.095-.254.182-.523.261a8.758 8.758 0 0 1-.92.199c-.343.053-.679.1-1.007.142a41.85 41.85 0 0 0-.784.096 7.088 7.088 0 0 0-1.364.309 2.352 2.352 0 0 0-1.015.626c-.253.275-.38.65-.38 1.126 0 .65.24 1.141.721 1.474.486.328 1.102.492 1.847.492Zm9.48 5.961c-.317 0-.6-.026-.848-.079-.249-.047-.421-.095-.516-.143l.476-1.649c.455.117.856.159 1.205.127.349-.031.658-.187.928-.467.274-.275.525-.722.753-1.34l.348-.952-4.502-12.24h2.029l3.361 9.704h.127l3.362-9.704h2.029l-5.169 13.953c-.232.629-.52 1.149-.864 1.562a3.236 3.236 0 0 1-1.197.927 3.689 3.689 0 0 1-1.522.301Zm11.221-4.566v-12.177h1.808v1.903h.159a3.056 3.056 0 0 1 1.228-1.514c.566-.365 1.245-.547 2.038-.547.803 0 1.472.182 2.005.547.54.359.96.864 1.261 1.514h.127a3.547 3.547 0 0 1 1.403-1.499c.624-.375 1.371-.562 2.244-.562 1.088 0 1.979.34 2.671 1.022.693.677 1.039 1.731 1.039 3.163v8.15h-1.871v-8.15c0-.898-.246-1.54-.738-1.926-.491-.386-1.07-.579-1.736-.579-.856 0-1.519.259-1.99.777-.47.513-.705 1.163-.705 1.95v7.928h-1.903v-8.34c0-.692-.224-1.25-.674-1.673-.449-.428-1.028-.642-1.736-.642-.486 0-.94.13-1.363.389a2.929 2.929 0 0 0-1.015 1.078c-.254.454-.381.98-.381 1.577v7.611h-1.871Zm24.509.254c-1.173 0-2.186-.259-3.036-.777-.846-.523-1.499-1.253-1.959-2.188-.454-.941-.681-2.035-.681-3.282 0-1.248.227-2.347.681-3.298.46-.957 1.1-1.702 1.919-2.236.824-.539 1.786-.808 2.886-.808.634 0 1.26.105 1.878.317a4.65 4.65 0 0 1 1.689 1.03c.507.471.912 1.094 1.213 1.871.301.777.452 1.734.452 2.87v.793h-9.386v-1.617h7.483c0-.688-.137-1.301-.412-1.84a3.11 3.11 0 0 0-1.157-1.276c-.497-.312-1.084-.468-1.76-.468-.746 0-1.39.185-1.935.555a3.65 3.65 0 0 0-1.244 1.427 4.19 4.19 0 0 0-.436 1.887v1.078c0 .92.158 1.699.475 2.339.323.634.769 1.118 1.34 1.451.571.327 1.234.491 1.99.491.491 0 .935-.069 1.332-.206a2.854 2.854 0 0 0 1.038-.634c.291-.286.516-.64.674-1.063l1.808.508a4.008 4.008 0 0 1-.96 1.617 4.673 4.673 0 0 1-1.664 1.078c-.661.254-1.404.381-2.228.381Zm9.759-7.579v7.325h-1.871v-12.177h1.807v1.903h.159a3.48 3.48 0 0 1 1.3-1.491c.581-.38 1.332-.57 2.252-.57.824 0 1.545.169 2.164.507.618.333 1.099.84 1.443 1.522.343.677.515 1.533.515 2.569v7.737h-1.871v-7.611c0-.956-.248-1.701-.745-2.235-.497-.539-1.179-.809-2.045-.809-.598 0-1.132.13-1.602.389a2.786 2.786 0 0 0-1.102 1.133c-.269.497-.404 1.1-.404 1.808Zm16.483-4.852v1.586h-6.31v-1.586h6.31Zm-4.471-2.917h1.871v11.606c0 .528.077.925.23 1.189.159.259.359.433.603.523.248.085.51.127.784.127.207 0 .376-.01.508-.032l.317-.063.38 1.681a3.758 3.758 0 0 1-.531.142c-.227.053-.515.08-.864.08a3.775 3.775 0 0 1-1.554-.341 3.094 3.094 0 0 1-1.252-1.039c-.328-.465-.492-1.052-.492-1.76v-12.113Zm24.917 3.932a5.695 5.695 0 0 0-.69-1.435 4.407 4.407 0 0 0-1.007-1.094 4.227 4.227 0 0 0-1.316-.69 5.255 5.255 0 0 0-1.617-.238c-.962 0-1.836.249-2.624.746-.787.496-1.414 1.228-1.879 2.196-.465.967-.697 2.153-.697 3.559 0 1.406.235 2.592.705 3.56.471.967 1.107 1.699 1.911 2.196.803.496 1.707.745 2.711.745.93 0 1.749-.198 2.458-.595a4.212 4.212 0 0 0 1.664-1.696c.402-.735.603-1.599.603-2.593l.602.127h-4.883v-1.744h6.184v1.744c0 1.337-.286 2.5-.857 3.488a5.902 5.902 0 0 1-2.346 2.299c-.994.539-2.135.809-3.425.809-1.438 0-2.701-.338-3.789-1.015-1.084-.676-1.929-1.638-2.537-2.885-.603-1.248-.904-2.728-.904-4.44 0-1.284.172-2.439.515-3.464.349-1.031.841-1.908 1.475-2.632a6.455 6.455 0 0 1 2.251-1.665c.867-.386 1.821-.579 2.862-.579.856 0 1.654.13 2.394.389a6.385 6.385 0 0 1 1.99 1.086 6.174 6.174 0 0 1 1.467 1.672c.391.645.66 1.361.808 2.149h-2.029Zm8.821 11.447c-.771 0-1.471-.145-2.1-.436a3.606 3.606 0 0 1-1.499-1.276c-.37-.56-.555-1.237-.555-2.029 0-.698.138-1.264.413-1.697a2.906 2.906 0 0 1 1.102-1.031 5.772 5.772 0 0 1 1.522-.554c.56-.127 1.123-.228 1.688-.302a79.34 79.34 0 0 1 1.8-.214c.465-.053.803-.14 1.015-.261.216-.122.325-.333.325-.635v-.063c0-.782-.214-1.39-.643-1.823-.422-.434-1.064-.65-1.926-.65-.893 0-1.593.195-2.101.586-.507.391-.864.809-1.07 1.253l-1.776-.634c.317-.74.74-1.316 1.269-1.729a4.757 4.757 0 0 1 1.744-.872 7.245 7.245 0 0 1 1.871-.253c.391 0 .84.047 1.347.142.513.09 1.007.278 1.483.563.481.286.88.716 1.197 1.292.317.576.476 1.348.476 2.315v8.023h-1.871v-1.649h-.096c-.126.264-.338.547-.634.848-.296.302-.689.558-1.181.769-.491.212-1.091.317-1.8.317Zm.286-1.68c.74 0 1.363-.146 1.871-.436.512-.291.898-.666 1.157-1.126.264-.46.397-.943.397-1.451v-1.712c-.08.095-.254.182-.524.261-.264.074-.57.141-.919.199-.344.053-.679.1-1.007.142-.322.037-.584.069-.785.096a7.077 7.077 0 0 0-1.363.309 2.346 2.346 0 0 0-1.015.626c-.254.275-.381.65-.381 1.126 0 .65.241 1.141.722 1.474.486.328 1.102.492 1.847.492Zm14.006-10.782v1.586h-6.31v-1.586h6.31Zm-4.471-2.917h1.871v11.606c0 .528.076.925.23 1.189.158.259.359.433.602.523.249.085.51.127.785.127a3.2 3.2 0 0 0 .507-.032l.318-.063.38 1.681a3.836 3.836 0 0 1-.531.142c-.227.053-.515.08-.864.08a3.768 3.768 0 0 1-1.554-.341 3.096 3.096 0 0 1-1.253-1.039c-.327-.465-.491-1.052-.491-1.76v-12.113Zm12.26 15.348c-1.173 0-2.185-.259-3.036-.777-.846-.523-1.499-1.253-1.958-2.188-.455-.941-.682-2.035-.682-3.282 0-1.248.227-2.347.682-3.298.459-.957 1.099-1.702 1.918-2.236.825-.539 1.786-.808 2.886-.808.634 0 1.26.105 1.879.317a4.655 4.655 0 0 1 1.688 1.03c.508.471.912 1.094 1.213 1.871.301.777.452 1.734.452 2.87v.793h-9.386v-1.617h7.483c0-.688-.137-1.301-.412-1.84a3.103 3.103 0 0 0-1.157-1.276c-.497-.312-1.084-.468-1.76-.468-.745 0-1.39.185-1.935.555a3.65 3.65 0 0 0-1.244 1.427 4.19 4.19 0 0 0-.436 1.887v1.078c0 .92.158 1.699.475 2.339.323.634.769 1.118 1.34 1.451.571.327 1.234.491 1.99.491.492 0 .935-.069 1.332-.206a2.845 2.845 0 0 0 1.038-.634c.291-.286.516-.64.674-1.063l1.808.508a4.008 4.008 0 0 1-.96 1.617 4.673 4.673 0 0 1-1.664 1.078c-.661.254-1.404.381-2.228.381Zm10.647-.254-3.71-12.177h1.966l2.632 9.323h.127l2.6-9.323h1.998l2.568 9.291h.127l2.632-9.291h1.966l-3.71 12.177h-1.839l-2.664-9.355h-.19l-2.664 9.355h-1.839Zm18.963.285c-.772 0-1.472-.145-2.101-.436a3.603 3.603 0 0 1-1.498-1.276c-.37-.56-.555-1.237-.555-2.029 0-.698.137-1.264.412-1.697a2.913 2.913 0 0 1 1.102-1.031c.46-.248.967-.433 1.522-.554.56-.127 1.123-.228 1.689-.302.74-.095 1.339-.166 1.799-.214.465-.053.804-.14 1.015-.261.217-.122.325-.333.325-.635v-.063c0-.782-.214-1.39-.642-1.823-.423-.434-1.065-.65-1.927-.65-.893 0-1.593.195-2.1.586-.508.391-.865.809-1.071 1.253l-1.775-.634c.317-.74.739-1.316 1.268-1.729a4.765 4.765 0 0 1 1.744-.872 7.245 7.245 0 0 1 1.871-.253c.391 0 .84.047 1.348.142.512.09 1.007.278 1.482.563.481.286.88.716 1.197 1.292.317.576.476 1.348.476 2.315v8.023h-1.871v-1.649h-.095c-.127.264-.338.547-.634.848-.296.302-.69.558-1.182.769-.491.212-1.091.317-1.799.317Zm.285-1.68c.74 0 1.364-.146 1.871-.436.513-.291.899-.666 1.158-1.126a2.87 2.87 0 0 0 .396-1.451v-1.712c-.079.095-.254.182-.523.261a8.758 8.758 0 0 1-.92.199c-.343.053-.679.1-1.007.142a41.85 41.85 0 0 0-.784.096 7.088 7.088 0 0 0-1.364.309 2.346 2.346 0 0 0-1.015.626c-.253.275-.38.65-.38 1.126 0 .65.24 1.141.721 1.474.486.328 1.102.492 1.847.492Zm9.48 5.961c-.317 0-.6-.026-.848-.079-.249-.047-.421-.095-.516-.143l.476-1.649c.454.117.856.159 1.205.127.349-.031.658-.187.927-.467.275-.275.526-.722.754-1.34l.348-.952-4.503-12.24h2.03l3.361 9.704h.127l3.361-9.704h2.03l-5.169 13.953c-.232.629-.521 1.149-.864 1.562a3.252 3.252 0 0 1-1.197.927 3.689 3.689 0 0 1-1.522.301Z" fill="#566381"/><path d="M600 223.54h475v55H600v-55Z" fill="#F6F7F9"/><path d="M600 224.026h9.568v54.217H600v-54.217Z" fill="#D6D9E1"/><path d="m630.209 243.543-5.232 19.439h-1.713l5.232-19.439h1.713Zm6.816 17.251c-1.015 0-1.911-.257-2.688-.769-.777-.518-1.385-1.248-1.823-2.188-.439-.946-.658-2.064-.658-3.354 0-1.279.219-2.389.658-3.329.438-.941 1.049-1.668 1.831-2.18.782-.513 1.686-.769 2.711-.769.793 0 1.419.132 1.879.396.465.259.819.555 1.063.888.248.328.441.597.578.808h.159v-5.993h1.871v16.236h-1.808v-1.871h-.222a11.99 11.99 0 0 1-.586.84c-.254.333-.616.632-1.086.896-.471.259-1.097.389-1.879.389Zm.253-1.681c.751 0 1.385-.195 1.903-.587.518-.396.912-.943 1.181-1.641.27-.703.405-1.514.405-2.433 0-.909-.133-1.705-.397-2.387-.264-.687-.655-1.221-1.173-1.601-.518-.386-1.158-.579-1.919-.579-.792 0-1.453.204-1.982.611-.523.401-.917.948-1.181 1.641-.259.687-.388 1.458-.388 2.315 0 .866.132 1.654.396 2.362.27.703.666 1.263 1.189 1.681.529.412 1.184.618 1.966.618Zm9.014 1.427v-12.177h1.871v12.177h-1.871Zm.951-14.206c-.364 0-.679-.125-.943-.373a1.196 1.196 0 0 1-.388-.896c0-.349.129-.647.388-.896.264-.248.579-.372.943-.372.365 0 .677.124.936.372.264.249.396.547.396.896s-.132.648-.396.896a1.306 1.306 0 0 1-.936.373Zm12.972 4.756-1.681.476a3.118 3.118 0 0 0-.467-.817 2.284 2.284 0 0 0-.825-.666c-.349-.174-.795-.261-1.34-.261-.745 0-1.366.172-1.863.515-.491.338-.737.769-.737 1.292 0 .465.169.833.508 1.102.338.27.866.494 1.585.674l1.808.444c1.088.264 1.9.669 2.433 1.213.534.539.801 1.234.801 2.085 0 .698-.201 1.321-.602 1.871-.397.55-.952.983-1.665 1.3-.714.317-1.544.476-2.49.476-1.242 0-2.27-.27-3.083-.809-.814-.539-1.33-1.326-1.546-2.362l1.775-.444c.17.655.489 1.147.96 1.474.475.328 1.096.492 1.863.492.872 0 1.564-.185 2.077-.555.518-.375.777-.825.777-1.348 0-.423-.148-.777-.444-1.062-.296-.291-.751-.508-1.364-.65l-2.029-.476c-1.115-.264-1.935-.674-2.458-1.229-.518-.56-.777-1.26-.777-2.101 0-.687.193-1.294.579-1.823.391-.528.922-.943 1.593-1.245.677-.301 1.443-.451 2.299-.451 1.205 0 2.151.264 2.839.792.692.529 1.183 1.226 1.474 2.093Zm3.038 14.016v-16.743h1.808v1.934h.222c.137-.211.328-.48.571-.808.248-.333.602-.629 1.062-.888.465-.264 1.094-.396 1.887-.396 1.025 0 1.929.256 2.711.769.782.512 1.393 1.239 1.831 2.18.439.94.658 2.05.658 3.329 0 1.29-.219 2.408-.658 3.354-.438.94-1.046 1.67-1.823 2.188-.777.512-1.673.769-2.688.769-.782 0-1.408-.13-1.878-.389-.471-.264-.833-.563-1.087-.896a11.99 11.99 0 0 1-.586-.84h-.159v6.437h-1.871Zm1.84-10.654c0 .919.134 1.73.404 2.433.269.698.663 1.245 1.181 1.641.518.392 1.152.587 1.903.587.782 0 1.435-.206 1.958-.618.528-.418.925-.978 1.189-1.681.27-.708.404-1.496.404-2.362 0-.857-.132-1.628-.396-2.315-.259-.693-.653-1.24-1.181-1.641-.523-.407-1.181-.611-1.974-.611-.761 0-1.401.193-1.919.579-.518.38-.909.914-1.173 1.601-.264.682-.396 1.478-.396 2.387Zm15.348 6.373c-.772 0-1.472-.145-2.101-.436a3.606 3.606 0 0 1-1.499-1.276c-.37-.56-.555-1.237-.555-2.029 0-.698.138-1.264.413-1.697a2.913 2.913 0 0 1 1.102-1.031 5.772 5.772 0 0 1 1.522-.554c.56-.127 1.123-.228 1.688-.302a79.34 79.34 0 0 1 1.8-.214c.465-.053.803-.14 1.015-.261.216-.122.325-.333.325-.635v-.063c0-.782-.214-1.39-.642-1.823-.423-.434-1.065-.65-1.927-.65-.893 0-1.593.195-2.101.586-.507.391-.864.809-1.07 1.253l-1.776-.634c.317-.74.74-1.316 1.269-1.729a4.757 4.757 0 0 1 1.744-.872 7.245 7.245 0 0 1 1.871-.253c.391 0 .84.047 1.347.142.513.09 1.007.278 1.483.563.481.286.88.716 1.197 1.292.317.576.476 1.348.476 2.315v8.023h-1.871v-1.649h-.095c-.127.264-.339.547-.635.848-.296.302-.689.558-1.181.769-.491.212-1.091.317-1.799.317Zm.285-1.68c.74 0 1.364-.146 1.871-.436.513-.291.898-.666 1.157-1.126.265-.46.397-.943.397-1.451v-1.712c-.08.095-.254.182-.524.261-.264.074-.57.141-.919.199-.344.053-.679.1-1.007.142-.322.037-.584.069-.785.096a7.077 7.077 0 0 0-1.363.309 2.346 2.346 0 0 0-1.015.626c-.254.275-.381.65-.381 1.126 0 .65.241 1.141.722 1.474.486.328 1.102.492 1.847.492Zm14.006-10.782v1.586h-6.31v-1.586h6.31Zm-4.471-2.917h1.871v11.606c0 .528.077.925.23 1.189.158.259.359.433.602.523.249.085.51.127.785.127.206 0 .375-.01.508-.032l.317-.063.38 1.681a3.836 3.836 0 0 1-.531.142c-.227.053-.515.08-.864.08a3.768 3.768 0 0 1-1.554-.341 3.096 3.096 0 0 1-1.253-1.039c-.327-.465-.491-1.052-.491-1.76v-12.113Zm12.102 15.348c-1.142 0-2.125-.27-2.95-.809-.824-.539-1.458-1.282-1.902-2.228-.444-.946-.666-2.026-.666-3.242 0-1.237.227-2.328.682-3.274.459-.951 1.099-1.694 1.918-2.228.825-.539 1.787-.808 2.886-.808.856 0 1.628.158 2.315.475.687.317 1.25.761 1.688 1.332.439.571.711 1.237.817 1.998h-1.871c-.143-.555-.46-1.047-.951-1.475-.487-.433-1.142-.65-1.966-.65-.73 0-1.369.191-1.919.571-.544.375-.97.906-1.276 1.594-.302.681-.452 1.482-.452 2.402 0 .94.148 1.76.444 2.457.301.698.724 1.24 1.268 1.625.55.386 1.195.579 1.935.579.486 0 .927-.085 1.323-.254a2.727 2.727 0 0 0 1.007-.729c.275-.317.471-.698.587-1.142h1.871a4.334 4.334 0 0 1-.785 1.943 4.377 4.377 0 0 1-1.641 1.363c-.676.333-1.464.5-2.362.5Zm9.394-7.579v7.325h-1.871v-16.236h1.871v5.962h.158a3.448 3.448 0 0 1 1.285-1.499c.576-.375 1.342-.562 2.299-.562.829 0 1.556.166 2.18.499.623.328 1.107.832 1.451 1.514.348.677.523 1.538.523 2.585v7.737h-1.871v-7.611c0-.967-.251-1.715-.753-2.243-.497-.534-1.187-.801-2.069-.801-.613 0-1.163.13-1.649.389a2.842 2.842 0 0 0-1.142 1.133c-.275.497-.412 1.1-.412 1.808Z" fill="#566381"/><path d="M638 306.54h398v54H638v-54Z" fill="#E8F7EB"/><path d="M638 306.54h9.568v54.216H638V306.54Z" fill="#A9C265"/><path d="m667.776 325.733-5.232 19.438h-1.712l5.232-19.438h1.712Zm6.816 17.25c-1.014 0-1.91-.256-2.687-.769-.777-.518-1.385-1.247-1.824-2.188-.438-.946-.658-2.064-.658-3.353 0-1.279.22-2.389.658-3.33.439-.941 1.05-1.667 1.832-2.18.782-.513 1.686-.769 2.711-.769.793 0 1.419.132 1.879.396.465.259.819.555 1.062.888.249.328.441.598.579.809h.158v-5.993h1.871v16.235h-1.807v-1.87h-.222c-.138.222-.333.502-.587.84-.253.333-.615.631-1.086.896-.47.259-1.097.388-1.879.388Zm.254-1.68c.75 0 1.385-.196 1.903-.587.518-.397.911-.944 1.181-1.641.269-.703.404-1.514.404-2.434 0-.909-.132-1.704-.396-2.386-.264-.687-.656-1.221-1.174-1.602-.517-.385-1.157-.578-1.918-.578-.793 0-1.453.203-1.982.61-.523.402-.917.949-1.181 1.641-.259.687-.389 1.459-.389 2.315 0 .867.133 1.654.397 2.362.269.703.666 1.264 1.189 1.681.528.412 1.184.619 1.966.619Zm9.014 1.426v-12.176h1.871v12.176h-1.871Zm.951-14.206a1.33 1.33 0 0 1-.943-.372 1.2 1.2 0 0 1-.389-.896c0-.349.13-.648.389-.896.264-.249.578-.373.943-.373s.677.124.936.373c.264.248.396.547.396.896 0 .348-.132.647-.396.896a1.305 1.305 0 0 1-.936.372Zm12.972 4.757-1.681.475a3.13 3.13 0 0 0-.468-.816 2.26 2.26 0 0 0-.824-.666c-.349-.175-.796-.262-1.34-.262-.745 0-1.366.172-1.863.516-.491.338-.737.769-.737 1.292 0 .465.169.832.507 1.102.338.269.867.494 1.586.674l1.807.444c1.089.264 1.9.668 2.434 1.212.534.54.801 1.235.801 2.085 0 .698-.201 1.322-.603 1.871-.396.55-.951.983-1.665 1.301-.713.317-1.543.475-2.489.475-1.242 0-2.27-.269-3.084-.808-.814-.54-1.329-1.327-1.546-2.363l1.776-.444c.169.656.489 1.147.959 1.475.476.327 1.097.491 1.863.491.872 0 1.565-.185 2.077-.555.518-.375.777-.824.777-1.347 0-.423-.148-.777-.444-1.063-.296-.29-.75-.507-1.363-.65l-2.03-.475c-1.115-.265-1.934-.674-2.457-1.229-.518-.56-.777-1.261-.777-2.101 0-.687.193-1.295.579-1.823.391-.529.922-.944 1.593-1.245.677-.301 1.443-.452 2.299-.452 1.205 0 2.151.264 2.838.793.693.528 1.184 1.226 1.475 2.093Zm3.038 14.016v-16.743h1.807v1.934h.222c.138-.211.328-.481.571-.809.249-.333.603-.629 1.063-.888.465-.264 1.094-.396 1.886-.396 1.026 0 1.929.256 2.712.769.782.513 1.392 1.239 1.831 2.18.439.941.658 2.051.658 3.33 0 1.289-.219 2.407-.658 3.353-.439.941-1.047 1.67-1.823 2.188-.777.513-1.673.769-2.688.769-.782 0-1.408-.129-1.879-.388-.47-.265-.832-.563-1.086-.896a12.058 12.058 0 0 1-.587-.84h-.158v6.437h-1.871Zm1.839-10.655c0 .92.135 1.731.405 2.434.269.697.663 1.244 1.181 1.641.518.391 1.152.587 1.902.587.783 0 1.435-.207 1.959-.619.528-.417.924-.978 1.189-1.681.269-.708.404-1.495.404-2.362 0-.856-.132-1.628-.396-2.315-.259-.692-.653-1.239-1.182-1.641-.523-.407-1.181-.61-1.974-.61-.761 0-1.4.193-1.918.578-.518.381-.909.915-1.173 1.602-.265.682-.397 1.477-.397 2.386Zm15.348 6.374c-.771 0-1.472-.145-2.101-.436a3.61 3.61 0 0 1-1.498-1.276c-.37-.561-.555-1.237-.555-2.03 0-.698.137-1.263.412-1.696a2.905 2.905 0 0 1 1.102-1.031c.46-.248.967-.433 1.522-.555a18.502 18.502 0 0 1 1.689-.301c.74-.095 1.34-.167 1.8-.214.465-.053.803-.14 1.014-.262.217-.121.325-.333.325-.634v-.064c0-.782-.214-1.39-.642-1.823-.423-.433-1.065-.65-1.926-.65-.893 0-1.594.196-2.101.587-.507.391-.864.808-1.07 1.252l-1.776-.634c.317-.74.74-1.316 1.268-1.728a4.75 4.75 0 0 1 1.744-.872 7.253 7.253 0 0 1 1.871-.254c.391 0 .841.048 1.348.143.513.09 1.007.277 1.483.563.48.285.879.716 1.197 1.292.317.576.475 1.348.475 2.315v8.022h-1.871v-1.648h-.095c-.127.264-.338.547-.634.848-.296.301-.69.557-1.181.769-.492.211-1.092.317-1.8.317Zm.286-1.681c.739 0 1.363-.145 1.871-.436.512-.29.898-.666 1.157-1.126.264-.459.396-.943.396-1.45v-1.713c-.079.095-.253.183-.523.262-.264.074-.571.14-.92.198a39.834 39.834 0 0 1-1.791.238 7.105 7.105 0 0 0-1.364.309 2.357 2.357 0 0 0-1.014.626c-.254.275-.381.65-.381 1.126 0 .65.24 1.142.721 1.475.487.327 1.102.491 1.848.491Zm14.006-10.781v1.585h-6.311v-1.585h6.311Zm-4.471-2.918h1.871v11.606c0 .529.076.925.229 1.189.159.259.36.434.603.524.248.084.51.127.785.127.206 0 .375-.011.507-.032l.317-.064.381 1.681a3.814 3.814 0 0 1-.531.143 3.916 3.916 0 0 1-.865.079 3.767 3.767 0 0 1-1.553-.341 3.086 3.086 0 0 1-1.253-1.038c-.328-.465-.491-1.052-.491-1.76v-12.114Zm12.101 15.348c-1.141 0-2.124-.269-2.949-.808-.824-.54-1.459-1.282-1.903-2.228-.444-.946-.665-2.027-.665-3.243 0-1.236.227-2.328.681-3.274.46-.951 1.1-1.694 1.919-2.227.824-.539 1.786-.809 2.885-.809.857 0 1.628.159 2.315.476.687.317 1.25.761 1.689 1.332.439.57.711 1.236.816 1.997h-1.87c-.143-.555-.46-1.046-.952-1.474-.486-.434-1.141-.65-1.966-.65-.729 0-1.369.19-1.918.57-.545.376-.97.907-1.277 1.594-.301.682-.452 1.482-.452 2.402 0 .941.148 1.76.444 2.458.302.697.724 1.239 1.269 1.625.549.386 1.194.579 1.934.579.486 0 .928-.085 1.324-.254a2.726 2.726 0 0 0 1.007-.73 2.8 2.8 0 0 0 .587-1.141h1.87a4.328 4.328 0 0 1-.784 1.942 4.404 4.404 0 0 1-1.641 1.364c-.677.333-1.464.499-2.363.499Zm9.394-7.579v7.325h-1.87v-16.235h1.87v5.961h.159a3.443 3.443 0 0 1 1.284-1.498c.576-.375 1.343-.563 2.299-.563.83 0 1.557.167 2.18.499.624.328 1.108.833 1.451 1.515.349.676.523 1.538.523 2.584v7.737h-1.871v-7.61c0-.967-.251-1.715-.753-2.244-.496-.533-1.186-.8-2.069-.8-.613 0-1.162.129-1.649.388a2.836 2.836 0 0 0-1.141 1.134c-.275.497-.413 1.099-.413 1.807Zm17.059-9.671-5.232 19.438h-1.713l5.232-19.438h1.713Zm10.843 7.547-1.681.475a3.097 3.097 0 0 0-.467-.816 2.263 2.263 0 0 0-.825-.666c-.349-.175-.795-.262-1.34-.262-.745 0-1.366.172-1.863.516-.491.338-.737.769-.737 1.292 0 .465.169.832.507 1.102.339.269.867.494 1.586.674l1.807.444c1.089.264 1.9.668 2.434 1.212.534.54.801 1.235.801 2.085 0 .698-.201 1.322-.603 1.871-.396.55-.951.983-1.664 1.301-.714.317-1.544.475-2.49.475-1.242 0-2.27-.269-3.084-.808-.813-.54-1.329-1.327-1.545-2.363l1.775-.444c.169.656.489 1.147.96 1.475.475.327 1.096.491 1.863.491.872 0 1.564-.185 2.077-.555.518-.375.777-.824.777-1.347 0-.423-.148-.777-.444-1.063-.296-.29-.751-.507-1.364-.65l-2.029-.475c-1.116-.265-1.935-.674-2.458-1.229-.518-.56-.777-1.261-.777-2.101 0-.687.193-1.295.579-1.823.391-.529.922-.944 1.593-1.245.677-.301 1.443-.452 2.299-.452 1.205 0 2.151.264 2.838.793.693.528 1.184 1.226 1.475 2.093Zm8.144 9.703c-1.174 0-2.186-.259-3.037-.777-.845-.523-1.498-1.252-1.958-2.188-.454-.941-.682-2.035-.682-3.282 0-1.247.228-2.346.682-3.298.46-.956 1.099-1.702 1.919-2.235.824-.539 1.786-.809 2.885-.809.635 0 1.261.106 1.879.317a4.661 4.661 0 0 1 1.689 1.031c.507.47.911 1.094 1.213 1.871.301.777.452 1.733.452 2.869v.793h-9.387v-1.617h7.484c0-.687-.137-1.3-.412-1.839a3.115 3.115 0 0 0-1.158-1.277c-.497-.311-1.083-.467-1.76-.467-.745 0-1.39.185-1.934.555-.539.364-.954.84-1.245 1.427a4.196 4.196 0 0 0-.436 1.886v1.079c0 .919.159 1.699.476 2.338.322.634.769 1.118 1.34 1.451.571.328 1.234.492 1.99.492.491 0 .935-.069 1.331-.207a2.844 2.844 0 0 0 1.039-.634c.291-.285.515-.639.674-1.062l1.807.507a4.006 4.006 0 0 1-.959 1.617 4.67 4.67 0 0 1-1.665 1.079c-.66.253-1.403.38-2.227.38Zm11.471.032c-.772 0-1.472-.145-2.101-.436a3.61 3.61 0 0 1-1.498-1.276c-.37-.561-.555-1.237-.555-2.03 0-.698.137-1.263.412-1.696a2.905 2.905 0 0 1 1.102-1.031c.46-.248.967-.433 1.522-.555.56-.127 1.123-.227 1.689-.301.74-.095 1.34-.167 1.799-.214.465-.053.804-.14 1.015-.262.217-.121.325-.333.325-.634v-.064c0-.782-.214-1.39-.642-1.823-.423-.433-1.065-.65-1.926-.65-.894 0-1.594.196-2.101.587-.508.391-.864.808-1.071 1.252l-1.775-.634c.317-.74.74-1.316 1.268-1.728a4.75 4.75 0 0 1 1.744-.872 7.247 7.247 0 0 1 1.871-.254c.391 0 .84.048 1.348.143.512.09 1.007.277 1.482.563.481.285.88.716 1.197 1.292.317.576.476 1.348.476 2.315v8.022h-1.871v-1.648h-.095c-.127.264-.338.547-.634.848-.296.301-.69.557-1.181.769-.492.211-1.092.317-1.8.317Zm.285-1.681c.74 0 1.364-.145 1.871-.436.513-.29.899-.666 1.158-1.126.264-.459.396-.943.396-1.45v-1.713c-.079.095-.254.183-.523.262-.264.074-.571.14-.92.198a39.263 39.263 0 0 1-1.791.238 7.088 7.088 0 0 0-1.364.309c-.417.138-.756.346-1.015.626-.253.275-.38.65-.38 1.126 0 .65.24 1.142.721 1.475.486.327 1.102.491 1.847.491Zm8.711 1.395v-12.176h1.807v1.839h.127c.222-.603.624-1.092 1.205-1.467a3.551 3.551 0 0 1 1.966-.563c.138 0 .309.003.516.008.206.006.362.013.467.024v1.903a5.406 5.406 0 0 0-.436-.072 4.289 4.289 0 0 0-.705-.055c-.592 0-1.121.124-1.586.372-.46.244-.824.582-1.094 1.015a2.737 2.737 0 0 0-.396 1.467v7.705h-1.871Zm12.882.254c-1.141 0-2.124-.269-2.949-.808-.824-.54-1.458-1.282-1.902-2.228-.444-.946-.666-2.027-.666-3.243 0-1.236.227-2.328.681-3.274.46-.951 1.1-1.694 1.919-2.227.824-.539 1.786-.809 2.886-.809.856 0 1.627.159 2.315.476a4.431 4.431 0 0 1 1.688 1.332c.439.57.711 1.236.817 1.997h-1.871c-.143-.555-.46-1.046-.952-1.474-.486-.434-1.141-.65-1.966-.65-.729 0-1.368.19-1.918.57-.545.376-.97.907-1.277 1.594-.301.682-.451 1.482-.451 2.402 0 .941.148 1.76.444 2.458.301.697.724 1.239 1.268 1.625.55.386 1.194.579 1.934.579a3.34 3.34 0 0 0 1.324-.254 2.718 2.718 0 0 0 1.007-.73 2.8 2.8 0 0 0 .587-1.141h1.871a4.341 4.341 0 0 1-.785 1.942 4.388 4.388 0 0 1-1.641 1.364c-.677.333-1.464.499-2.363.499Zm9.395-7.579v7.325h-1.871v-16.235h1.871v5.961h.158a3.45 3.45 0 0 1 1.284-1.498c.577-.375 1.343-.563 2.299-.563.83 0 1.557.167 2.181.499.623.328 1.107.833 1.45 1.515.349.676.524 1.538.524 2.584v7.737h-1.871v-7.61c0-.967-.251-1.715-.753-2.244-.497-.533-1.187-.8-2.07-.8-.613 0-1.162.129-1.649.388-.48.259-.861.637-1.141 1.134-.275.497-.412 1.099-.412 1.807Z" fill="#566381"/><path d="M638.487 388.837h124v54h-124v-54Z" fill="#FFF3CC"/><path d="M638 388.54h9.568v54.216H638V388.54Z" fill="#F5A800"/><path d="m667.776 407.733-5.232 19.438h-1.712l5.232-19.438h1.712Zm2.218 21.563v-16.743h1.808v1.934h.222c.137-.211.327-.481.571-.809.248-.333.602-.629 1.062-.888.465-.264 1.094-.396 1.887-.396 1.025 0 1.929.256 2.711.769.782.513 1.393 1.239 1.831 2.18.439.941.658 2.051.658 3.33 0 1.289-.219 2.407-.658 3.353-.438.941-1.046 1.67-1.823 2.188-.777.513-1.673.769-2.688.769-.782 0-1.408-.129-1.879-.388-.47-.265-.832-.563-1.086-.896a11.99 11.99 0 0 1-.586-.84h-.159v6.437h-1.871Zm1.839-10.655c0 .92.135 1.731.405 2.434.269.697.663 1.244 1.181 1.641.518.391 1.152.587 1.903.587.782 0 1.435-.207 1.958-.619.528-.417.925-.978 1.189-1.681.269-.708.404-1.495.404-2.362 0-.856-.132-1.628-.396-2.315-.259-.692-.653-1.239-1.181-1.641-.524-.407-1.182-.61-1.974-.61-.761 0-1.401.193-1.919.578-.518.381-.909.915-1.173 1.602-.264.682-.397 1.477-.397 2.386Zm16.712 6.342c-1.099 0-2.064-.261-2.894-.785-.824-.523-1.469-1.255-1.934-2.196-.46-.94-.69-2.04-.69-3.298 0-1.268.23-2.375.69-3.321.465-.946 1.11-1.681 1.934-2.204.83-.523 1.795-.785 2.894-.785 1.099 0 2.061.262 2.886.785.829.523 1.474 1.258 1.934 2.204.465.946.698 2.053.698 3.321 0 1.258-.233 2.358-.698 3.298-.46.941-1.105 1.673-1.934 2.196-.825.524-1.787.785-2.886.785Zm0-1.68c.835 0 1.522-.215 2.061-.643.539-.428.938-.991 1.197-1.688a6.47 6.47 0 0 0 .389-2.268c0-.813-.13-1.572-.389-2.275-.259-.703-.658-1.271-1.197-1.704-.539-.434-1.226-.65-2.061-.65s-1.522.216-2.061.65c-.539.433-.938 1.001-1.197 1.704a6.533 6.533 0 0 0-.389 2.275c0 .814.13 1.57.389 2.268.259.697.658 1.26 1.197 1.688.539.428 1.226.643 2.061.643Zm10.245-14.809v16.235h-1.871v-16.235h1.871Zm5.297 0v16.235h-1.871v-16.235h1.871Z" fill="#566381"/><path d="M638.487 471.837h124v54h-124v-54Z" fill="#FFF3CC"/><path d="M638 471.54h9.568v54.216H638V471.54Z" fill="#F5A800"/><path d="m667.776 490.733-5.232 19.438h-1.712l5.232-19.438h1.712Zm2.218 21.563v-16.743h1.808v1.934h.222c.137-.211.327-.481.571-.809.248-.333.602-.629 1.062-.888.465-.264 1.094-.396 1.887-.396 1.025 0 1.929.256 2.711.769.782.513 1.393 1.239 1.831 2.18.439.941.658 2.051.658 3.33 0 1.289-.219 2.407-.658 3.353-.438.941-1.046 1.67-1.823 2.188-.777.513-1.673.769-2.688.769-.782 0-1.408-.129-1.879-.388-.47-.265-.832-.563-1.086-.896a11.99 11.99 0 0 1-.586-.84h-.159v6.437h-1.871Zm1.839-10.655c0 .92.135 1.731.405 2.434.269.697.663 1.244 1.181 1.641.518.391 1.152.587 1.903.587.782 0 1.435-.207 1.958-.619.528-.417.925-.978 1.189-1.681.269-.708.404-1.495.404-2.362 0-.856-.132-1.628-.396-2.315-.259-.692-.653-1.239-1.181-1.641-.524-.407-1.182-.61-1.974-.61-.761 0-1.401.193-1.919.578-.518.381-.909.915-1.173 1.602-.264.682-.397 1.477-.397 2.386Zm16.712 6.342c-1.099 0-2.064-.261-2.894-.785-.824-.523-1.469-1.255-1.934-2.196-.46-.94-.69-2.04-.69-3.298 0-1.268.23-2.375.69-3.321.465-.946 1.11-1.681 1.934-2.204.83-.523 1.795-.785 2.894-.785 1.099 0 2.061.262 2.886.785.829.523 1.474 1.258 1.934 2.204.465.946.698 2.053.698 3.321 0 1.258-.233 2.358-.698 3.298-.46.941-1.105 1.673-1.934 2.196-.825.524-1.787.785-2.886.785Zm0-1.68c.835 0 1.522-.215 2.061-.643.539-.428.938-.991 1.197-1.688a6.47 6.47 0 0 0 .389-2.268c0-.813-.13-1.572-.389-2.275-.259-.703-.658-1.271-1.197-1.704-.539-.434-1.226-.65-2.061-.65s-1.522.216-2.061.65c-.539.433-.938 1.001-1.197 1.704a6.533 6.533 0 0 0-.389 2.275c0 .814.13 1.57.389 2.268.259.697.658 1.26 1.197 1.688.539.428 1.226.643 2.061.643Zm10.245-14.809v16.235h-1.871v-16.235h1.871Zm5.297 0v16.235h-1.871v-16.235h1.871Z" fill="#566381"/><path d="M638.487 553.837h124v54h-124v-54Z" fill="#FFF3CC"/><path d="M638 553.54h9.568v54.216H638V553.54Z" fill="#F5A800"/><path d="m667.776 572.733-5.232 19.438h-1.712l5.232-19.438h1.712Zm2.218 21.563v-16.743h1.808v1.934h.222c.137-.211.327-.481.571-.809.248-.333.602-.629 1.062-.888.465-.264 1.094-.396 1.887-.396 1.025 0 1.929.256 2.711.769.782.513 1.393 1.239 1.831 2.18.439.941.658 2.051.658 3.33 0 1.289-.219 2.407-.658 3.353-.438.941-1.046 1.67-1.823 2.188-.777.513-1.673.769-2.688.769-.782 0-1.408-.129-1.879-.388-.47-.265-.832-.563-1.086-.896a11.99 11.99 0 0 1-.586-.84h-.159v6.437h-1.871Zm1.839-10.655c0 .92.135 1.731.405 2.434.269.697.663 1.244 1.181 1.641.518.391 1.152.587 1.903.587.782 0 1.435-.207 1.958-.619.528-.417.925-.978 1.189-1.681.269-.708.404-1.495.404-2.362 0-.856-.132-1.628-.396-2.315-.259-.692-.653-1.239-1.181-1.641-.524-.407-1.182-.61-1.974-.61-.761 0-1.401.193-1.919.578-.518.381-.909.915-1.173 1.602-.264.682-.397 1.477-.397 2.386Zm16.712 6.342c-1.099 0-2.064-.261-2.894-.785-.824-.523-1.469-1.255-1.934-2.196-.46-.94-.69-2.04-.69-3.298 0-1.268.23-2.375.69-3.321.465-.946 1.11-1.681 1.934-2.204.83-.523 1.795-.785 2.894-.785 1.099 0 2.061.262 2.886.785.829.523 1.474 1.258 1.934 2.204.465.946.698 2.053.698 3.321 0 1.258-.233 2.358-.698 3.298-.46.941-1.105 1.673-1.934 2.196-.825.524-1.787.785-2.886.785Zm0-1.68c.835 0 1.522-.215 2.061-.643.539-.428.938-.991 1.197-1.688a6.47 6.47 0 0 0 .389-2.268c0-.813-.13-1.572-.389-2.275-.259-.703-.658-1.271-1.197-1.704-.539-.434-1.226-.65-2.061-.65s-1.522.216-2.061.65c-.539.433-.938 1.001-1.197 1.704a6.533 6.533 0 0 0-.389 2.275c0 .814.13 1.57.389 2.268.259.697.658 1.26 1.197 1.688.539.428 1.226.643 2.061.643Zm10.245-14.809v16.235h-1.871v-16.235h1.871Zm5.297 0v16.235h-1.871v-16.235h1.871Z" fill="#566381"/><path d="M638 635.54h185v54H638v-54Z" fill="#FFF3CC"/><path d="M638 635.54h9.568v54.216H638V635.54Z" fill="#F5A800"/><path d="m667.776 654.733-5.232 19.438h-1.712l5.232-19.438h1.712Zm2.218 21.563v-16.743h1.808v1.934h.222c.137-.211.327-.481.571-.809.248-.333.602-.629 1.062-.888.465-.264 1.094-.396 1.887-.396 1.025 0 1.929.256 2.711.769.782.513 1.393 1.239 1.831 2.18.439.941.658 2.051.658 3.33 0 1.289-.219 2.407-.658 3.353-.438.941-1.046 1.67-1.823 2.188-.777.513-1.673.769-2.688.769-.782 0-1.408-.129-1.879-.388-.47-.265-.832-.563-1.086-.896a11.99 11.99 0 0 1-.586-.84h-.159v6.437h-1.871Zm1.839-10.655c0 .92.135 1.731.405 2.434.269.697.663 1.244 1.181 1.641.518.391 1.152.587 1.903.587.782 0 1.435-.207 1.958-.619.528-.417.925-.978 1.189-1.681.269-.708.404-1.495.404-2.362 0-.856-.132-1.628-.396-2.315-.259-.692-.653-1.239-1.181-1.641-.524-.407-1.182-.61-1.974-.61-.761 0-1.401.193-1.919.578-.518.381-.909.915-1.173 1.602-.264.682-.397 1.477-.397 2.386Zm16.712 6.342c-1.099 0-2.064-.261-2.894-.785-.824-.523-1.469-1.255-1.934-2.196-.46-.94-.69-2.04-.69-3.298 0-1.268.23-2.375.69-3.321.465-.946 1.11-1.681 1.934-2.204.83-.523 1.795-.785 2.894-.785 1.099 0 2.061.262 2.886.785.829.523 1.474 1.258 1.934 2.204.465.946.698 2.053.698 3.321 0 1.258-.233 2.358-.698 3.298-.46.941-1.105 1.673-1.934 2.196-.825.524-1.787.785-2.886.785Zm0-1.68c.835 0 1.522-.215 2.061-.643.539-.428.938-.991 1.197-1.688a6.47 6.47 0 0 0 .389-2.268c0-.813-.13-1.572-.389-2.275-.259-.703-.658-1.271-1.197-1.704-.539-.434-1.226-.65-2.061-.65s-1.522.216-2.061.65c-.539.433-.938 1.001-1.197 1.704a6.533 6.533 0 0 0-.389 2.275c0 .814.13 1.57.389 2.268.259.697.658 1.26 1.197 1.688.539.428 1.226.643 2.061.643Zm10.245-14.809v16.235h-1.871v-16.235h1.871Zm5.297 0v16.235h-1.871v-16.235h1.871Zm8.691 16.235h-5.01v-16.235H713c1.575 0 2.923.325 4.043.975 1.12.645 1.979 1.572 2.576 2.782.598 1.205.896 2.648.896 4.329 0 1.691-.301 3.147-.903 4.368-.603 1.216-1.48 2.151-2.632 2.806-1.153.65-2.553.975-4.202.975Zm-3.044-1.744h2.917c1.342 0 2.455-.259 3.338-.777a4.791 4.791 0 0 0 1.974-2.211c.433-.957.65-2.096.65-3.417 0-1.311-.214-2.439-.642-3.385-.429-.952-1.068-1.681-1.919-2.188-.851-.513-1.911-.769-3.179-.769h-3.139v12.747Zm13.826 1.744v-12.176h1.807v1.839h.127c.222-.603.624-1.092 1.205-1.467a3.549 3.549 0 0 1 1.966-.563c.137 0 .309.003.515.008.206.006.362.013.468.024v1.903a5.492 5.492 0 0 0-.436-.072 4.292 4.292 0 0 0-.706-.055c-.592 0-1.12.124-1.585.372-.46.244-.825.582-1.094 1.015a2.738 2.738 0 0 0-.397 1.467v7.705h-1.87Zm8.306 0v-12.176h1.871v12.176h-1.871Zm.951-14.206a1.33 1.33 0 0 1-.943-.372 1.2 1.2 0 0 1-.389-.896c0-.349.13-.648.389-.896.264-.249.578-.373.943-.373s.677.124.936.373c.264.248.396.547.396.896 0 .348-.132.647-.396.896a1.305 1.305 0 0 1-.936.372Zm14.304 2.03-4.503 12.176h-1.903l-4.503-12.176h2.03l3.361 9.703h.127l3.361-9.703h2.03Zm7.138 12.43c-1.173 0-2.185-.259-3.036-.777-.845-.523-1.498-1.252-1.958-2.188-.455-.941-.682-2.035-.682-3.282 0-1.247.227-2.346.682-3.298.46-.956 1.099-1.702 1.919-2.235.824-.539 1.786-.809 2.885-.809.634 0 1.261.106 1.879.317a4.67 4.67 0 0 1 1.689 1.031c.507.47.911 1.094 1.213 1.871.301.777.451 1.733.451 2.869v.793h-9.386v-1.617h7.484c0-.687-.138-1.3-.412-1.839a3.115 3.115 0 0 0-1.158-1.277c-.497-.311-1.083-.467-1.76-.467-.745 0-1.39.185-1.934.555-.539.364-.954.84-1.245 1.427a4.196 4.196 0 0 0-.436 1.886v1.079c0 .919.159 1.699.476 2.338.322.634.769 1.118 1.34 1.451.57.328 1.234.492 1.989.492a4.03 4.03 0 0 0 1.332-.207 2.844 2.844 0 0 0 1.039-.634c.291-.285.515-.639.674-1.062l1.807.507a4.006 4.006 0 0 1-.959 1.617 4.67 4.67 0 0 1-1.665 1.079c-.661.253-1.403.38-2.228.38Zm7.888-.254v-12.176h1.808v1.839h.127c.222-.603.623-1.092 1.205-1.467a3.549 3.549 0 0 1 1.966-.563c.137 0 .309.003.515.008.206.006.362.013.468.024v1.903a5.492 5.492 0 0 0-.436-.072 4.292 4.292 0 0 0-.706-.055c-.592 0-1.12.124-1.585.372-.46.244-.825.582-1.094 1.015a2.738 2.738 0 0 0-.397 1.467v7.705h-1.871Zm13.283-16.996-5.232 19.438h-1.712l5.232-19.438h1.712Zm1.33 10.179v-.983c.883 0 1.498-.185 1.847-.555.354-.37.531-.989.531-1.855v-2.537c0-.73.069-1.361.207-1.895.142-.534.372-.975.689-1.324.317-.349.74-.608 1.269-.777.528-.169 1.181-.253 1.958-.253v1.553c-.613 0-1.097.096-1.451.286-.349.19-.597.486-.745.888-.143.396-.214.903-.214 1.522v3.171c0 .412-.056.787-.167 1.126a1.836 1.836 0 0 1-.594.872c-.291.243-.706.43-1.245.563-.534.132-1.229.198-2.085.198Zm6.501 10.115c-.777 0-1.43-.084-1.958-.253-.529-.169-.952-.428-1.269-.777-.317-.349-.547-.79-.689-1.324-.138-.534-.207-1.165-.207-1.895v-2.537c0-.866-.177-1.485-.531-1.855-.349-.37-.964-.555-1.847-.555v-.983c.856 0 1.551.066 2.085.198.539.133.954.32 1.245.563.29.243.489.534.594.872.111.339.167.714.167 1.126v3.171c0 .619.071 1.126.214 1.522.148.397.396.69.745.88.354.196.838.294 1.451.294v1.553Zm-6.501-9.196v-1.902h1.871v1.902h-1.871Zm8.976 5.898v-12.176h1.871v12.176h-1.871Zm.952-14.206c-.365 0-.68-.124-.944-.372a1.199 1.199 0 0 1-.388-.896c0-.349.129-.648.388-.896.264-.249.579-.373.944-.373a1.3 1.3 0 0 1 .935.373c.264.248.396.547.396.896 0 .348-.132.647-.396.896a1.304 1.304 0 0 1-.935.372Zm8.944 14.46c-1.015 0-1.911-.256-2.687-.769-.777-.518-1.385-1.247-1.824-2.188-.439-.946-.658-2.064-.658-3.353 0-1.279.219-2.389.658-3.33.439-.941 1.049-1.667 1.831-2.18.783-.513 1.686-.769 2.712-.769.792 0 1.419.132 1.879.396.465.259.819.555 1.062.888.248.328.441.598.579.809h.158v-5.993h1.871v16.235h-1.807v-1.87h-.222c-.138.222-.333.502-.587.84-.254.333-.616.631-1.086.896-.471.259-1.097.388-1.879.388Zm.254-1.68c.75 0 1.384-.196 1.902-.587.518-.397.912-.944 1.182-1.641.269-.703.404-1.514.404-2.434 0-.909-.132-1.704-.397-2.386-.264-.687-.655-1.221-1.173-1.602-.518-.385-1.157-.578-1.918-.578-.793 0-1.454.203-1.982.61-.523.402-.917.949-1.181 1.641-.259.687-.389 1.459-.389 2.315 0 .867.132 1.654.396 2.362.27.703.666 1.264 1.19 1.681.528.412 1.183.619 1.966.619Zm14.563-5.455v.983c-.883 0-1.501.185-1.855.555-.349.37-.523.989-.523 1.855v2.537c0 .73-.072 1.361-.215 1.895-.137.534-.364.975-.681 1.324-.317.349-.74.608-1.269.777-.528.169-1.181.253-1.958.253v-1.553c.613 0 1.094-.098 1.443-.294.354-.19.602-.483.745-.88.148-.396.222-.903.222-1.522v-3.171c0-.412.053-.787.159-1.126.111-.338.312-.629.602-.872.291-.243.703-.43 1.237-.563.539-.132 1.237-.198 2.093-.198Zm-6.501-10.115c.777 0 1.43.084 1.958.253.529.169.952.428 1.269.777.317.349.544.79.681 1.324.143.534.215 1.165.215 1.895v2.537c0 .866.174 1.485.523 1.855.354.37.972.555 1.855.555v.983c-.856 0-1.554-.066-2.093-.198-.534-.133-.946-.32-1.237-.563a1.897 1.897 0 0 1-.602-.872 3.76 3.76 0 0 1-.159-1.126v-3.171c0-.619-.074-1.126-.222-1.522a1.559 1.559 0 0 0-.745-.888c-.349-.19-.83-.286-1.443-.286v-1.553Zm6.501 9.196v1.902h-1.871v-1.902h1.871Z" fill="#566381"/></g><defs><clipPath id="a"><path fill="#fff" d="M0 0h1180v751H0z"/></clipPath></defs></svg>