<svg width="1180" height="751" viewBox="0 0 1180 751" fill="none" xmlns="http://www.w3.org/2000/svg">
<g clip-path="url(#clip0_422_717)">
<rect width="1180" height="751" fill="white"/>
<path d="M66.9729 55H1132.16V109.216H66.9729V55Z" fill="#E7ECF8"/>
<path d="M66.9729 55H76.5405V109.216H66.9729V55Z" fill="#8FA5ED"/>
<path d="M95.9566 91.4431C94.815 91.4431 93.832 91.1736 93.0075 90.6345C92.183 90.0954 91.5488 89.3529 91.1049 88.4068C90.6609 87.4608 90.4389 86.38 90.4389 85.1644C90.4389 83.9277 90.6662 82.8363 91.1207 81.8903C91.5805 80.939 92.22 80.1964 93.0392 79.6626C93.8637 79.1235 94.8256 78.854 95.9249 78.854C96.7811 78.854 97.5527 79.0125 98.2398 79.3297C98.9268 79.6468 99.4897 80.0907 99.9284 80.6615C100.367 81.2323 100.639 81.8982 100.745 82.6593H98.874C98.7313 82.1043 98.4142 81.6128 97.9227 81.1847C97.4364 80.7514 96.7811 80.5347 95.9566 80.5347C95.2273 80.5347 94.5878 80.7249 94.0381 81.1055C93.4937 81.4807 93.0683 82.0119 92.7618 82.6989C92.4605 83.3807 92.3099 84.1814 92.3099 85.101C92.3099 86.0418 92.4579 86.8609 92.7538 87.5586C93.0551 88.2562 93.4779 88.7979 94.0223 89.1838C94.5719 89.5696 95.2167 89.7625 95.9566 89.7625C96.4428 89.7625 96.8841 89.6779 97.2805 89.5088C97.6769 89.3397 98.0125 89.0965 98.2873 88.7794C98.5622 88.4623 98.7577 88.0818 98.874 87.6379H100.745C100.639 88.3566 100.378 89.0041 99.9601 89.5801C99.5478 90.1509 99.0008 90.6054 98.3191 90.9437C97.6426 91.2767 96.8551 91.4431 95.9566 91.4431ZM105.351 74.9536V91.1895H103.48V74.9536H105.351ZM108.778 91.1895V79.0125H110.649V91.1895H108.778ZM109.729 76.9831C109.364 76.9831 109.05 76.8589 108.786 76.6105C108.527 76.3621 108.397 76.0635 108.397 75.7146C108.397 75.3658 108.527 75.0672 108.786 74.8188C109.05 74.5704 109.364 74.4462 109.729 74.4462C110.094 74.4462 110.405 74.5704 110.664 74.8188C110.929 75.0672 111.061 75.3658 111.061 75.7146C111.061 76.0635 110.929 76.3621 110.664 76.6105C110.405 76.8589 110.094 76.9831 109.729 76.9831ZM119.181 91.4431C118.007 91.4431 116.995 91.1842 116.144 90.6662C115.299 90.143 114.646 89.4137 114.186 88.4782C113.732 87.5374 113.505 86.4434 113.505 85.1961C113.505 83.9488 113.732 82.8495 114.186 81.8982C114.646 80.9416 115.286 80.1964 116.105 79.6626C116.929 79.1235 117.891 78.854 118.99 78.854C119.625 78.854 120.251 78.9597 120.869 79.1711C121.488 79.3825 122.051 79.726 122.558 80.2017C123.065 80.6721 123.47 81.2957 123.771 82.0726C124.072 82.8495 124.223 83.8061 124.223 84.9424V85.7352H114.836V84.118H122.32C122.32 83.4309 122.183 82.8178 121.908 82.2787C121.638 81.7397 121.252 81.3142 120.75 81.0024C120.254 80.6906 119.667 80.5347 118.99 80.5347C118.245 80.5347 117.6 80.7196 117.056 81.0896C116.517 81.4543 116.102 81.9299 115.811 82.5166C115.521 83.1032 115.375 83.7322 115.375 84.4034V85.4815C115.375 86.4011 115.534 87.1807 115.851 87.8202C116.173 88.4544 116.62 88.938 117.191 89.271C117.762 89.5986 118.425 89.7625 119.181 89.7625C119.672 89.7625 120.116 89.6938 120.513 89.5564C120.914 89.4137 121.26 89.2023 121.551 88.9221C121.842 88.6367 122.066 88.2826 122.225 87.8598L124.032 88.3672C123.842 88.9803 123.522 89.5194 123.073 89.9844C122.624 90.4443 122.069 90.8036 121.408 91.0626C120.748 91.3163 120.005 91.4431 119.181 91.4431ZM128.94 83.8643V91.1895H127.069V79.0125H128.876V80.9152H129.035C129.32 80.2968 129.754 79.8 130.335 79.4248C130.916 79.0443 131.667 78.854 132.586 78.854C133.411 78.854 134.132 79.0231 134.751 79.3614C135.369 79.6943 135.85 80.2017 136.194 80.8835C136.537 81.56 136.709 82.4162 136.709 83.452V91.1895H134.838V83.5789C134.838 82.6223 134.589 81.8771 134.093 81.3433C133.596 80.8042 132.914 80.5347 132.047 80.5347C131.45 80.5347 130.916 80.6641 130.446 80.9231C129.981 81.1821 129.614 81.56 129.344 82.0568C129.074 82.5536 128.94 83.1561 128.94 83.8643ZM145.423 79.0125V80.5981H139.113V79.0125H145.423ZM140.952 76.0952H142.823V87.7013C142.823 88.2298 142.9 88.6262 143.053 88.8904C143.211 89.1494 143.412 89.3238 143.655 89.4137C143.904 89.4982 144.165 89.5405 144.44 89.5405C144.646 89.5405 144.816 89.5299 144.948 89.5088C145.08 89.4824 145.185 89.4612 145.265 89.4454L145.645 91.126C145.518 91.1736 145.341 91.2212 145.114 91.2687C144.887 91.3216 144.599 91.348 144.25 91.348C143.721 91.348 143.204 91.2344 142.696 91.0071C142.194 90.7799 141.777 90.4337 141.444 89.9686C141.116 89.5035 140.952 88.9169 140.952 88.2086V76.0952Z" fill="#566381"/>
<path d="M124 137.54H1095V192.54H124V137.54Z" fill="#E7E9EE"/>
<path d="M124.378 137.919H133.946V192.135H124.378V137.919Z" fill="#566381"/>
<path d="M154.155 157.11L148.922 176.549H147.21L152.442 157.11H154.155ZM159.956 174.393C159.184 174.393 158.484 174.247 157.855 173.957C157.226 173.661 156.727 173.235 156.357 172.68C155.987 172.12 155.802 171.444 155.802 170.651C155.802 169.953 155.939 169.388 156.214 168.954C156.489 168.516 156.856 168.172 157.316 167.924C157.776 167.675 158.283 167.49 158.838 167.369C159.398 167.242 159.961 167.142 160.527 167.068C161.266 166.973 161.866 166.901 162.326 166.854C162.791 166.801 163.129 166.714 163.341 166.592C163.558 166.47 163.666 166.259 163.666 165.958V165.894C163.666 165.112 163.452 164.504 163.024 164.071C162.601 163.638 161.959 163.421 161.097 163.421C160.204 163.421 159.504 163.616 158.996 164.008C158.489 164.399 158.132 164.816 157.926 165.26L156.15 164.626C156.468 163.886 156.89 163.31 157.419 162.898C157.953 162.48 158.534 162.189 159.163 162.026C159.797 161.857 160.421 161.772 161.034 161.772C161.425 161.772 161.874 161.82 162.382 161.915C162.894 162.005 163.388 162.192 163.864 162.478C164.345 162.763 164.744 163.194 165.061 163.77C165.378 164.346 165.537 165.117 165.537 166.085V174.107H163.666V172.458H163.571C163.444 172.723 163.232 173.005 162.937 173.307C162.641 173.608 162.247 173.864 161.755 174.076C161.264 174.287 160.664 174.393 159.956 174.393ZM160.241 172.712C160.981 172.712 161.605 172.567 162.112 172.276C162.625 171.985 163.011 171.61 163.269 171.15C163.534 170.691 163.666 170.207 163.666 169.7V167.987C163.587 168.082 163.412 168.17 163.143 168.249C162.878 168.323 162.572 168.389 162.223 168.447C161.88 168.5 161.544 168.547 161.216 168.59C160.894 168.627 160.632 168.658 160.431 168.685C159.945 168.748 159.491 168.851 159.068 168.994C158.65 169.131 158.312 169.34 158.053 169.62C157.799 169.895 157.673 170.27 157.673 170.746C157.673 171.396 157.913 171.888 158.394 172.221C158.88 172.548 159.496 172.712 160.241 172.712ZM168.952 178.674V161.931H170.759V163.865H170.981C171.119 163.653 171.309 163.384 171.552 163.056C171.8 162.723 172.154 162.427 172.614 162.168C173.079 161.904 173.708 161.772 174.501 161.772C175.526 161.772 176.43 162.028 177.212 162.541C177.994 163.054 178.605 163.78 179.044 164.721C179.482 165.662 179.702 166.772 179.702 168.051C179.702 169.34 179.482 170.458 179.044 171.404C178.605 172.345 177.997 173.074 177.22 173.592C176.443 174.105 175.547 174.361 174.533 174.361C173.751 174.361 173.124 174.232 172.654 173.973C172.183 173.708 171.821 173.41 171.568 173.077C171.314 172.739 171.119 172.458 170.981 172.236H170.823V178.674H168.952ZM170.791 168.019C170.791 168.939 170.926 169.75 171.195 170.453C171.465 171.15 171.858 171.697 172.376 172.094C172.894 172.485 173.529 172.68 174.279 172.68C175.061 172.68 175.714 172.474 176.237 172.062C176.766 171.645 177.162 171.084 177.426 170.381C177.696 169.673 177.831 168.886 177.831 168.019C177.831 167.163 177.699 166.391 177.434 165.704C177.175 165.012 176.782 164.465 176.253 164.063C175.73 163.656 175.072 163.453 174.279 163.453C173.518 163.453 172.878 163.646 172.361 164.031C171.843 164.412 171.452 164.946 171.187 165.633C170.923 166.315 170.791 167.11 170.791 168.019ZM182.556 174.107V161.931H184.426V174.107H182.556ZM183.507 159.901C183.142 159.901 182.828 159.777 182.563 159.528C182.304 159.28 182.175 158.981 182.175 158.633C182.175 158.284 182.304 157.985 182.563 157.737C182.828 157.488 183.142 157.364 183.507 157.364C183.872 157.364 184.183 157.488 184.442 157.737C184.707 157.985 184.839 158.284 184.839 158.633C184.839 158.981 184.707 159.28 184.442 159.528C184.183 159.777 183.872 159.901 183.507 159.901Z" fill="#566381"/>
<path d="M124 224.026H254.757V278.243H124V224.026Z" fill="#E8F6FC"/>
<path d="M124 224.026H133.568V278.243H124V224.026Z" fill="#97DBFC"/>
<path d="M153.614 243.543L148.382 262.982H146.669L151.902 243.543H153.614ZM159.415 260.825C158.644 260.825 157.943 260.68 157.314 260.389C156.685 260.093 156.186 259.668 155.816 259.113C155.446 258.553 155.261 257.876 155.261 257.084C155.261 256.386 155.399 255.82 155.673 255.387C155.948 254.948 156.315 254.605 156.775 254.356C157.235 254.108 157.742 253.923 158.297 253.802C158.858 253.675 159.42 253.574 159.986 253.5C160.726 253.405 161.326 253.334 161.786 253.286C162.251 253.233 162.589 253.146 162.8 253.025C163.017 252.903 163.125 252.692 163.125 252.39V252.327C163.125 251.545 162.911 250.937 162.483 250.504C162.06 250.07 161.418 249.854 160.557 249.854C159.664 249.854 158.963 250.049 158.456 250.44C157.949 250.831 157.592 251.249 157.386 251.693L155.61 251.059C155.927 250.319 156.35 249.743 156.878 249.33C157.412 248.913 157.993 248.622 158.622 248.458C159.257 248.289 159.88 248.205 160.493 248.205C160.884 248.205 161.334 248.252 161.841 248.347C162.354 248.437 162.848 248.625 163.324 248.91C163.804 249.196 164.204 249.626 164.521 250.202C164.838 250.778 164.996 251.55 164.996 252.517V260.54H163.125V258.891H163.03C162.903 259.155 162.692 259.438 162.396 259.739C162.1 260.041 161.706 260.297 161.215 260.508C160.723 260.72 160.123 260.825 159.415 260.825ZM159.701 259.145C160.441 259.145 161.064 258.999 161.572 258.709C162.084 258.418 162.47 258.043 162.729 257.583C162.993 257.123 163.125 256.64 163.125 256.132V254.42C163.046 254.515 162.872 254.602 162.602 254.681C162.338 254.755 162.031 254.822 161.683 254.88C161.339 254.933 161.003 254.98 160.676 255.022C160.353 255.059 160.092 255.091 159.891 255.118C159.405 255.181 158.95 255.284 158.527 255.427C158.11 255.564 157.772 255.773 157.513 256.053C157.259 256.328 157.132 256.703 157.132 257.179C157.132 257.829 157.372 258.32 157.853 258.653C158.34 258.981 158.955 259.145 159.701 259.145ZM176.085 255.561V248.363H177.956V260.54H176.085V258.479H175.958C175.673 259.097 175.229 259.623 174.626 260.056C174.024 260.485 173.263 260.699 172.343 260.699C171.582 260.699 170.906 260.532 170.314 260.199C169.722 259.861 169.257 259.354 168.918 258.677C168.58 257.995 168.411 257.136 168.411 256.101V248.363H170.282V255.974C170.282 256.862 170.53 257.57 171.027 258.098C171.529 258.627 172.169 258.891 172.946 258.891C173.411 258.891 173.884 258.772 174.365 258.534C174.851 258.297 175.258 257.932 175.586 257.44C175.919 256.949 176.085 256.323 176.085 255.561ZM186.678 248.363V249.949H180.368V248.363H186.678ZM182.207 245.446H184.078V257.052C184.078 257.58 184.155 257.977 184.308 258.241C184.467 258.5 184.667 258.674 184.911 258.764C185.159 258.849 185.421 258.891 185.695 258.891C185.902 258.891 186.071 258.881 186.203 258.859C186.335 258.833 186.441 258.812 186.52 258.796L186.9 260.477C186.774 260.524 186.597 260.572 186.369 260.619C186.142 260.672 185.854 260.699 185.505 260.699C184.977 260.699 184.459 260.585 183.951 260.358C183.449 260.13 183.032 259.784 182.699 259.319C182.371 258.854 182.207 258.267 182.207 257.559V245.446ZM191.625 253.215V260.54H189.754V244.304H191.625V250.266H191.784C192.069 249.637 192.497 249.137 193.068 248.767C193.644 248.392 194.411 248.205 195.367 248.205C196.197 248.205 196.924 248.371 197.547 248.704C198.171 249.032 198.655 249.536 198.998 250.218C199.347 250.895 199.521 251.756 199.521 252.803V260.54H197.65V252.929C197.65 251.962 197.399 251.214 196.897 250.686C196.4 250.152 195.711 249.885 194.828 249.885C194.215 249.885 193.665 250.015 193.179 250.274C192.698 250.533 192.318 250.911 192.038 251.407C191.763 251.904 191.625 252.507 191.625 253.215ZM216.072 244.304V260.54H214.17L205.322 247.792H205.164V260.54H203.198V244.304H205.1L213.979 257.084H214.138V244.304H216.072Z" fill="#566381"/>
<path d="M146 305.54H248V359.54H146V305.54Z" fill="#FFF0F0"/>
<path d="M146 305.54H155.568V359.756H146V305.54Z" fill="#FFD6D6"/>
<path d="M175.452 325.543L170.22 344.982H168.507L173.74 325.543H175.452ZM181.253 342.825C180.481 342.825 179.781 342.68 179.152 342.389C178.523 342.093 178.024 341.668 177.654 341.113C177.284 340.553 177.099 339.876 177.099 339.084C177.099 338.386 177.236 337.82 177.511 337.387C177.786 336.948 178.153 336.605 178.613 336.356C179.073 336.108 179.58 335.923 180.135 335.802C180.696 335.675 181.258 335.574 181.824 335.5C182.564 335.405 183.164 335.334 183.623 335.286C184.089 335.233 184.427 335.146 184.638 335.025C184.855 334.903 184.963 334.692 184.963 334.39V334.327C184.963 333.545 184.749 332.937 184.321 332.504C183.898 332.07 183.256 331.854 182.395 331.854C181.501 331.854 180.801 332.049 180.294 332.44C179.786 332.831 179.43 333.249 179.224 333.693L177.448 333.059C177.765 332.319 178.188 331.743 178.716 331.33C179.25 330.913 179.831 330.622 180.46 330.458C181.095 330.289 181.718 330.205 182.331 330.205C182.722 330.205 183.172 330.252 183.679 330.347C184.192 330.437 184.686 330.625 185.161 330.91C185.642 331.196 186.041 331.626 186.359 332.202C186.676 332.778 186.834 333.55 186.834 334.517V342.54H184.963V340.891H184.868C184.741 341.155 184.53 341.438 184.234 341.739C183.938 342.041 183.544 342.297 183.053 342.508C182.561 342.72 181.961 342.825 181.253 342.825ZM181.538 341.145C182.278 341.145 182.902 340.999 183.409 340.709C183.922 340.418 184.308 340.043 184.567 339.583C184.831 339.123 184.963 338.64 184.963 338.132V336.42C184.884 336.515 184.71 336.602 184.44 336.681C184.176 336.755 183.869 336.822 183.52 336.88C183.177 336.933 182.841 336.98 182.514 337.022C182.191 337.059 181.93 337.091 181.729 337.118C181.243 337.181 180.788 337.284 180.365 337.427C179.948 337.564 179.609 337.773 179.35 338.053C179.097 338.328 178.97 338.703 178.97 339.179C178.97 339.829 179.21 340.32 179.691 340.653C180.178 340.981 180.793 341.145 181.538 341.145ZM197.923 337.561V330.363H199.794V342.54H197.923V340.479H197.796C197.511 341.097 197.067 341.623 196.464 342.056C195.862 342.485 195.101 342.699 194.181 342.699C193.42 342.699 192.744 342.532 192.152 342.199C191.56 341.861 191.095 341.354 190.756 340.677C190.418 339.995 190.249 339.136 190.249 338.101V330.363H192.12V337.974C192.12 338.862 192.368 339.57 192.865 340.098C193.367 340.627 194.007 340.891 194.784 340.891C195.249 340.891 195.722 340.772 196.203 340.534C196.689 340.297 197.096 339.932 197.424 339.44C197.757 338.949 197.923 338.323 197.923 337.561ZM208.516 330.363V331.949H202.206V330.363H208.516ZM204.045 327.446H205.916V339.052C205.916 339.58 205.993 339.977 206.146 340.241C206.305 340.5 206.505 340.674 206.748 340.764C206.997 340.849 207.258 340.891 207.533 340.891C207.739 340.891 207.909 340.881 208.041 340.859C208.173 340.833 208.279 340.812 208.358 340.796L208.738 342.477C208.611 342.524 208.434 342.572 208.207 342.619C207.98 342.672 207.692 342.699 207.343 342.699C206.815 342.699 206.297 342.585 205.789 342.358C205.287 342.13 204.87 341.784 204.537 341.319C204.209 340.854 204.045 340.267 204.045 339.559V327.446ZM213.463 335.215V342.54H211.592V326.304H213.463V332.266H213.622C213.907 331.637 214.335 331.137 214.906 330.767C215.482 330.392 216.248 330.205 217.205 330.205C218.035 330.205 218.762 330.371 219.385 330.704C220.009 331.032 220.492 331.536 220.836 332.218C221.185 332.895 221.359 333.756 221.359 334.803V342.54H219.488V334.929C219.488 333.962 219.237 333.214 218.735 332.686C218.238 332.152 217.549 331.885 216.666 331.885C216.053 331.885 215.503 332.015 215.017 332.274C214.536 332.533 214.156 332.911 213.875 333.407C213.601 333.904 213.463 334.507 213.463 335.215ZM224.497 342.54V341.113L233.249 328.048H224.401V326.304H235.595V327.731L226.843 340.796H235.69V342.54H224.497Z" fill="#566381"/>
<path d="M378.5 306.04H559.5V359.04H378.5V306.04Z" fill="white" stroke="#E7E9EE"/>
<path d="M378 305.54H387.568V359.756H378V305.54Z" fill="#D6D9E1"/>
<path d="M401.966 342.54V326.304H411.765V328.048H403.932V333.534H411.257V335.278H403.932V340.796H411.892V342.54H401.966ZM416.45 330.363L419.367 335.342L422.285 330.363H424.441L420.509 336.452L424.441 342.54H422.285L419.367 337.815L416.45 342.54H414.294L418.162 336.452L414.294 330.363H416.45ZM432.406 330.363V331.949H426.096V330.363H432.406ZM427.935 327.446H429.806V339.052C429.806 339.58 429.883 339.977 430.036 340.241C430.195 340.5 430.395 340.674 430.638 340.764C430.887 340.849 431.148 340.891 431.423 340.891C431.629 340.891 431.799 340.881 431.931 340.859C432.063 340.833 432.169 340.812 432.248 340.796L432.628 342.477C432.501 342.524 432.324 342.572 432.097 342.619C431.87 342.672 431.582 342.699 431.233 342.699C430.705 342.699 430.187 342.585 429.679 342.358C429.177 342.13 428.76 341.784 428.427 341.319C428.099 340.854 427.935 340.267 427.935 339.559V327.446ZM436.584 342.667C436.193 342.667 435.858 342.527 435.577 342.247C435.297 341.967 435.157 341.631 435.157 341.24C435.157 340.849 435.297 340.513 435.577 340.233C435.858 339.953 436.193 339.813 436.584 339.813C436.975 339.813 437.311 339.953 437.591 340.233C437.871 340.513 438.011 340.849 438.011 341.24C438.011 341.499 437.945 341.737 437.813 341.953C437.686 342.17 437.514 342.344 437.298 342.477C437.086 342.603 436.848 342.667 436.584 342.667ZM447.901 326.304H450.248L455.765 339.781H455.955L461.473 326.304H463.82V342.54H461.981V330.205H461.822L456.748 342.54H454.972L449.899 330.205H449.74V342.54H447.901V326.304ZM472.614 342.794C471.44 342.794 470.428 342.535 469.577 342.017C468.732 341.494 468.079 340.764 467.619 339.829C467.165 338.888 466.937 337.794 466.937 336.547C466.937 335.299 467.165 334.2 467.619 333.249C468.079 332.292 468.718 331.547 469.538 331.013C470.362 330.474 471.324 330.205 472.423 330.205C473.057 330.205 473.684 330.31 474.302 330.522C474.92 330.733 475.483 331.077 475.991 331.552C476.498 332.023 476.902 332.646 477.204 333.423C477.505 334.2 477.656 335.157 477.656 336.293V337.086H468.269V335.469H475.753C475.753 334.781 475.615 334.168 475.341 333.629C475.071 333.09 474.685 332.665 474.183 332.353C473.686 332.041 473.1 331.885 472.423 331.885C471.678 331.885 471.033 332.07 470.489 332.44C469.95 332.805 469.535 333.281 469.244 333.867C468.954 334.454 468.808 335.083 468.808 335.754V336.832C468.808 337.752 468.967 338.531 469.284 339.171C469.606 339.805 470.053 340.289 470.624 340.622C471.194 340.949 471.858 341.113 472.614 341.113C473.105 341.113 473.549 341.044 473.945 340.907C474.347 340.764 474.693 340.553 474.984 340.273C475.275 339.987 475.499 339.633 475.658 339.21L477.465 339.718C477.275 340.331 476.955 340.87 476.506 341.335C476.057 341.795 475.502 342.154 474.841 342.413C474.181 342.667 473.438 342.794 472.614 342.794ZM480.502 342.54V330.363H482.309V332.202H482.436C482.658 331.6 483.06 331.111 483.641 330.736C484.222 330.36 484.878 330.173 485.607 330.173C485.744 330.173 485.916 330.176 486.122 330.181C486.328 330.186 486.484 330.194 486.59 330.205V332.107C486.527 332.091 486.381 332.068 486.154 332.036C485.932 331.999 485.697 331.98 485.448 331.98C484.856 331.98 484.328 332.105 483.863 332.353C483.403 332.596 483.038 332.934 482.769 333.368C482.505 333.796 482.372 334.285 482.372 334.834V342.54H480.502ZM493.384 342.794C492.242 342.794 491.259 342.524 490.435 341.985C489.61 341.446 488.976 340.703 488.532 339.757C488.088 338.811 487.866 337.731 487.866 336.515C487.866 335.278 488.094 334.187 488.548 333.241C489.008 332.29 489.647 331.547 490.467 331.013C491.291 330.474 492.253 330.205 493.352 330.205C494.208 330.205 494.98 330.363 495.667 330.68C496.354 330.997 496.917 331.441 497.356 332.012C497.794 332.583 498.067 333.249 498.172 334.01H496.301C496.159 333.455 495.842 332.963 495.35 332.535C494.864 332.102 494.208 331.885 493.384 331.885C492.655 331.885 492.015 332.076 491.466 332.456C490.921 332.831 490.496 333.362 490.189 334.05C489.888 334.731 489.737 335.532 489.737 336.452C489.737 337.392 489.885 338.212 490.181 338.909C490.482 339.607 490.905 340.149 491.45 340.534C491.999 340.92 492.644 341.113 493.384 341.113C493.87 341.113 494.312 341.028 494.708 340.859C495.104 340.69 495.44 340.447 495.715 340.13C495.99 339.813 496.185 339.432 496.301 338.988H498.172C498.067 339.707 497.805 340.355 497.387 340.931C496.975 341.502 496.428 341.956 495.746 342.294C495.07 342.627 494.282 342.794 493.384 342.794ZM502.778 335.215V342.54H500.907V326.304H502.778V332.266H502.937C503.222 331.637 503.65 331.137 504.221 330.767C504.797 330.392 505.564 330.205 506.52 330.205C507.35 330.205 508.077 330.371 508.7 330.704C509.324 331.032 509.808 331.536 510.151 332.218C510.5 332.895 510.674 333.756 510.674 334.803V342.54H508.803V334.929C508.803 333.962 508.552 333.214 508.05 332.686C507.553 332.152 506.864 331.885 505.981 331.885C505.368 331.885 504.818 332.015 504.332 332.274C503.851 332.533 503.471 332.911 503.191 333.407C502.916 333.904 502.778 334.507 502.778 335.215ZM517.68 342.825C516.909 342.825 516.208 342.68 515.58 342.389C514.951 342.093 514.451 341.668 514.081 341.113C513.711 340.553 513.526 339.876 513.526 339.084C513.526 338.386 513.664 337.82 513.938 337.387C514.213 336.948 514.581 336.605 515.04 336.356C515.5 336.108 516.008 335.923 516.563 335.802C517.123 335.675 517.686 335.574 518.251 335.5C518.991 335.405 519.591 335.334 520.051 335.286C520.516 335.233 520.854 335.146 521.065 335.025C521.282 334.903 521.39 334.692 521.39 334.39V334.327C521.39 333.545 521.176 332.937 520.748 332.504C520.326 332.07 519.683 331.854 518.822 331.854C517.929 331.854 517.228 332.049 516.721 332.44C516.214 332.831 515.857 333.249 515.651 333.693L513.875 333.059C514.192 332.319 514.615 331.743 515.143 331.33C515.677 330.913 516.259 330.622 516.888 330.458C517.522 330.289 518.145 330.205 518.759 330.205C519.15 330.205 519.599 330.252 520.106 330.347C520.619 330.437 521.113 330.625 521.589 330.91C522.07 331.196 522.469 331.626 522.786 332.202C523.103 332.778 523.261 333.55 523.261 334.517V342.54H521.39V340.891H521.295C521.169 341.155 520.957 341.438 520.661 341.739C520.365 342.041 519.971 342.297 519.48 342.508C518.988 342.72 518.389 342.825 517.68 342.825ZM517.966 341.145C518.706 341.145 519.329 340.999 519.837 340.709C520.349 340.418 520.735 340.043 520.994 339.583C521.258 339.123 521.39 338.64 521.39 338.132V336.42C521.311 336.515 521.137 336.602 520.867 336.681C520.603 336.755 520.296 336.822 519.948 336.88C519.604 336.933 519.269 336.98 518.941 337.022C518.618 337.059 518.357 337.091 518.156 337.118C517.67 337.181 517.215 337.284 516.792 337.427C516.375 337.564 516.037 337.773 515.778 338.053C515.524 338.328 515.397 338.703 515.397 339.179C515.397 339.829 515.638 340.32 516.119 340.653C516.605 340.981 517.221 341.145 517.966 341.145ZM528.547 335.215V342.54H526.676V330.363H528.484V332.266H528.642C528.928 331.647 529.361 331.151 529.942 330.775C530.524 330.395 531.274 330.205 532.194 330.205C533.018 330.205 533.74 330.374 534.358 330.712C534.977 331.045 535.457 331.552 535.801 332.234C536.145 332.911 536.316 333.767 536.316 334.803V342.54H534.445V334.929C534.445 333.973 534.197 333.228 533.7 332.694C533.203 332.155 532.522 331.885 531.655 331.885C531.058 331.885 530.524 332.015 530.053 332.274C529.588 332.533 529.221 332.911 528.952 333.407C528.682 333.904 528.547 334.507 528.547 335.215ZM545.031 330.363V331.949H538.72V330.363H545.031ZM540.56 327.446H542.431V339.052C542.431 339.58 542.507 339.977 542.66 340.241C542.819 340.5 543.02 340.674 543.263 340.764C543.511 340.849 543.773 340.891 544.048 340.891C544.254 340.891 544.423 340.881 544.555 340.859C544.687 340.833 544.793 340.812 544.872 340.796L545.253 342.477C545.126 342.524 544.949 342.572 544.722 342.619C544.494 342.672 544.206 342.699 543.858 342.699C543.329 342.699 542.811 342.585 542.304 342.358C541.802 342.13 541.384 341.784 541.051 341.319C540.723 340.854 540.56 340.267 540.56 339.559V327.446Z" fill="#566381"/>
<path d="M285 305.54H367V359.54H285V305.54Z" fill="#E7ECF8"/>
<path d="M285 305.54H294.568V359.756H285V305.54Z" fill="#8FA5ED"/>
<path d="M313.976 342.54H308.966V326.304H314.198C315.773 326.304 317.121 326.629 318.241 327.279C319.362 327.924 320.221 328.852 320.818 330.062C321.415 331.267 321.714 332.71 321.714 334.39C321.714 336.082 321.413 337.538 320.81 338.759C320.208 339.974 319.33 340.91 318.178 341.565C317.026 342.215 315.625 342.54 313.976 342.54ZM310.932 340.796H313.85C315.192 340.796 316.304 340.537 317.187 340.019C318.07 339.501 318.728 338.764 319.161 337.807C319.594 336.851 319.811 335.712 319.811 334.39C319.811 333.08 319.597 331.951 319.169 331.005C318.741 330.054 318.101 329.325 317.25 328.817C316.4 328.305 315.34 328.048 314.071 328.048H310.932V340.796ZM325.012 342.54V326.304H330.688C331.819 326.304 332.752 326.5 333.486 326.891C334.221 327.277 334.768 327.797 335.127 328.453C335.487 329.103 335.666 329.824 335.666 330.617C335.666 331.314 335.542 331.891 335.294 332.345C335.051 332.8 334.728 333.159 334.327 333.423C333.93 333.687 333.5 333.883 333.034 334.01V334.168C333.531 334.2 334.031 334.375 334.533 334.692C335.035 335.009 335.455 335.463 335.793 336.055C336.132 336.647 336.301 337.371 336.301 338.227C336.301 339.041 336.116 339.773 335.746 340.423C335.376 341.073 334.792 341.589 333.994 341.969C333.196 342.35 332.157 342.54 330.878 342.54H325.012ZM326.978 340.796H330.878C332.162 340.796 333.074 340.548 333.613 340.051C334.158 339.549 334.43 338.941 334.43 338.227C334.43 337.678 334.29 337.17 334.01 336.705C333.729 336.235 333.33 335.86 332.813 335.58C332.295 335.294 331.681 335.151 330.973 335.151H326.978V340.796ZM326.978 333.439H330.624C331.216 333.439 331.75 333.323 332.226 333.09C332.707 332.858 333.087 332.53 333.367 332.107C333.653 331.684 333.796 331.188 333.796 330.617C333.796 329.903 333.547 329.298 333.05 328.801C332.554 328.299 331.766 328.048 330.688 328.048H326.978V333.439Z" fill="#566381"/>
<path d="M267 223.54H560V277.54H267V223.54Z" fill="#E8F7EB"/>
<path d="M267 223.54H276.568V277.756H267V223.54Z" fill="#A9C265"/>
<path d="M296.452 242.543L291.22 261.982H289.507L294.74 242.543H296.452ZM298.67 264.106V247.363H300.477V249.297H300.699C300.837 249.086 301.027 248.817 301.27 248.489C301.518 248.156 301.873 247.86 302.332 247.601C302.797 247.337 303.426 247.205 304.219 247.205C305.244 247.205 306.148 247.461 306.93 247.974C307.713 248.486 308.323 249.213 308.762 250.154C309.2 251.094 309.42 252.204 309.42 253.483C309.42 254.773 309.2 255.891 308.762 256.837C308.323 257.777 307.715 258.507 306.938 259.025C306.161 259.537 305.266 259.794 304.251 259.794C303.469 259.794 302.842 259.664 302.372 259.405C301.902 259.141 301.54 258.842 301.286 258.509C301.032 258.171 300.837 257.891 300.699 257.669H300.541V264.106H298.67ZM300.509 253.452C300.509 254.371 300.644 255.182 300.913 255.885C301.183 256.583 301.577 257.13 302.095 257.526C302.612 257.918 303.247 258.113 303.997 258.113C304.779 258.113 305.432 257.907 305.955 257.495C306.484 257.077 306.88 256.517 307.144 255.814C307.414 255.106 307.549 254.318 307.549 253.452C307.549 252.595 307.417 251.824 307.152 251.137C306.893 250.444 306.5 249.897 305.971 249.496C305.448 249.089 304.79 248.885 303.997 248.885C303.236 248.885 302.597 249.078 302.079 249.464C301.561 249.844 301.17 250.378 300.905 251.065C300.641 251.747 300.509 252.543 300.509 253.452ZM315.857 259.825C315.085 259.825 314.385 259.68 313.756 259.389C313.127 259.093 312.628 258.668 312.258 258.113C311.888 257.553 311.703 256.876 311.703 256.084C311.703 255.386 311.84 254.82 312.115 254.387C312.39 253.948 312.757 253.605 313.217 253.356C313.677 253.108 314.184 252.923 314.739 252.802C315.299 252.675 315.862 252.574 316.428 252.5C317.168 252.405 317.768 252.334 318.227 252.286C318.692 252.233 319.031 252.146 319.242 252.025C319.459 251.903 319.567 251.692 319.567 251.39V251.327C319.567 250.545 319.353 249.937 318.925 249.504C318.502 249.07 317.86 248.854 316.999 248.854C316.105 248.854 315.405 249.049 314.898 249.44C314.39 249.831 314.034 250.249 313.827 250.693L312.052 250.059C312.369 249.319 312.792 248.743 313.32 248.33C313.854 247.913 314.435 247.622 315.064 247.458C315.698 247.289 316.322 247.205 316.935 247.205C317.326 247.205 317.775 247.252 318.283 247.347C318.795 247.437 319.29 247.625 319.765 247.91C320.246 248.196 320.645 248.626 320.962 249.202C321.279 249.778 321.438 250.55 321.438 251.517V259.54H319.567V257.891H319.472C319.345 258.155 319.134 258.438 318.838 258.739C318.542 259.041 318.148 259.297 317.657 259.508C317.165 259.72 316.565 259.825 315.857 259.825ZM316.142 258.145C316.882 258.145 317.506 257.999 318.013 257.709C318.526 257.418 318.912 257.043 319.171 256.583C319.435 256.123 319.567 255.64 319.567 255.132V253.42C319.488 253.515 319.313 253.602 319.044 253.681C318.78 253.755 318.473 253.822 318.124 253.88C317.781 253.933 317.445 253.98 317.117 254.022C316.795 254.059 316.533 254.091 316.333 254.118C315.846 254.181 315.392 254.284 314.969 254.427C314.552 254.564 314.213 254.773 313.954 255.053C313.701 255.328 313.574 255.703 313.574 256.179C313.574 256.829 313.814 257.32 314.295 257.653C314.781 257.981 315.397 258.145 316.142 258.145ZM325.622 264.106C325.305 264.106 325.022 264.08 324.774 264.027C324.525 263.98 324.353 263.932 324.258 263.884L324.734 262.235C325.189 262.352 325.59 262.394 325.939 262.362C326.288 262.331 326.597 262.175 326.867 261.895C327.141 261.62 327.392 261.173 327.62 260.555L327.968 259.603L323.466 247.363H325.495L328.856 257.067H328.983L332.345 247.363H334.374L329.205 261.316C328.973 261.945 328.685 262.465 328.341 262.878C327.998 263.295 327.599 263.604 327.144 263.805C326.695 264.006 326.187 264.106 325.622 264.106ZM336.843 259.54V247.363H338.651V249.266H338.81C339.063 248.616 339.473 248.111 340.038 247.752C340.604 247.387 341.283 247.205 342.076 247.205C342.879 247.205 343.548 247.387 344.081 247.752C344.621 248.111 345.041 248.616 345.342 249.266H345.469C345.781 248.637 346.248 248.137 346.872 247.767C347.496 247.392 348.243 247.205 349.116 247.205C350.204 247.205 351.095 247.545 351.787 248.227C352.48 248.904 352.826 249.958 352.826 251.39V259.54H350.955V251.39C350.955 250.492 350.709 249.85 350.217 249.464C349.726 249.078 349.147 248.885 348.481 248.885C347.625 248.885 346.962 249.144 346.491 249.662C346.021 250.175 345.786 250.825 345.786 251.612V259.54H343.883V251.2C343.883 250.508 343.659 249.95 343.209 249.527C342.76 249.099 342.181 248.885 341.473 248.885C340.987 248.885 340.533 249.015 340.11 249.274C339.692 249.533 339.354 249.892 339.095 250.352C338.841 250.806 338.714 251.332 338.714 251.929V259.54H336.843ZM361.352 259.794C360.179 259.794 359.166 259.535 358.316 259.017C357.47 258.494 356.817 257.764 356.357 256.829C355.903 255.888 355.676 254.794 355.676 253.547C355.676 252.299 355.903 251.2 356.357 250.249C356.817 249.292 357.457 248.547 358.276 248.013C359.1 247.474 360.062 247.205 361.162 247.205C361.796 247.205 362.422 247.31 363.04 247.522C363.659 247.733 364.222 248.077 364.729 248.552C365.236 249.023 365.641 249.646 365.942 250.423C366.243 251.2 366.394 252.157 366.394 253.293V254.086H357.008V252.469H364.491C364.491 251.781 364.354 251.168 364.079 250.629C363.809 250.09 363.424 249.665 362.922 249.353C362.425 249.041 361.838 248.885 361.162 248.885C360.416 248.885 359.772 249.07 359.227 249.44C358.688 249.805 358.273 250.281 357.983 250.867C357.692 251.454 357.547 252.083 357.547 252.754V253.832C357.547 254.752 357.705 255.531 358.022 256.171C358.345 256.805 358.791 257.289 359.362 257.622C359.933 257.949 360.596 258.113 361.352 258.113C361.843 258.113 362.287 258.044 362.684 257.907C363.085 257.764 363.432 257.553 363.722 257.273C364.013 256.987 364.238 256.633 364.396 256.21L366.204 256.718C366.013 257.331 365.694 257.87 365.244 258.335C364.795 258.795 364.24 259.154 363.58 259.413C362.919 259.667 362.176 259.794 361.352 259.794ZM371.111 252.215V259.54H369.24V247.363H371.047V249.266H371.206C371.491 248.647 371.925 248.151 372.506 247.775C373.087 247.395 373.838 247.205 374.758 247.205C375.582 247.205 376.303 247.374 376.922 247.712C377.54 248.045 378.021 248.552 378.365 249.234C378.708 249.911 378.88 250.767 378.88 251.803V259.54H377.009V251.929C377.009 250.973 376.761 250.228 376.264 249.694C375.767 249.155 375.085 248.885 374.219 248.885C373.621 248.885 373.087 249.015 372.617 249.274C372.152 249.533 371.785 249.911 371.515 250.407C371.246 250.904 371.111 251.507 371.111 252.215ZM387.594 247.363V248.949H381.284V247.363H387.594ZM383.123 244.446H384.994V256.052C384.994 256.58 385.071 256.977 385.224 257.241C385.383 257.5 385.583 257.674 385.827 257.764C386.075 257.849 386.337 257.891 386.611 257.891C386.818 257.891 386.987 257.881 387.119 257.859C387.251 257.833 387.357 257.812 387.436 257.796L387.816 259.477C387.69 259.524 387.513 259.572 387.285 259.619C387.058 259.672 386.77 259.699 386.421 259.699C385.893 259.699 385.375 259.585 384.867 259.358C384.365 259.13 383.948 258.784 383.615 258.319C383.287 257.854 383.123 257.267 383.123 256.559V244.446ZM408.04 248.378C407.866 247.844 407.636 247.366 407.35 246.943C407.07 246.515 406.735 246.15 406.343 245.849C405.958 245.548 405.519 245.318 405.027 245.159C404.536 245.001 403.997 244.921 403.41 244.921C402.448 244.921 401.574 245.17 400.786 245.667C399.999 246.163 399.372 246.895 398.907 247.863C398.442 248.83 398.21 250.016 398.21 251.422C398.21 252.828 398.445 254.014 398.915 254.982C399.386 255.949 400.022 256.681 400.826 257.178C401.629 257.674 402.533 257.923 403.537 257.923C404.467 257.923 405.286 257.725 405.995 257.328C406.708 256.927 407.263 256.361 407.659 255.632C408.061 254.897 408.262 254.033 408.262 253.039L408.864 253.166H403.981V251.422H410.165V253.166C410.165 254.503 409.879 255.666 409.308 256.654C408.743 257.643 407.961 258.409 406.962 258.953C405.968 259.492 404.827 259.762 403.537 259.762C402.099 259.762 400.836 259.424 399.748 258.747C398.664 258.071 397.819 257.109 397.211 255.862C396.608 254.614 396.307 253.134 396.307 251.422C396.307 250.138 396.479 248.983 396.822 247.958C397.171 246.927 397.663 246.05 398.297 245.326C398.931 244.602 399.682 244.047 400.548 243.661C401.415 243.275 402.369 243.082 403.41 243.082C404.266 243.082 405.064 243.212 405.804 243.471C406.55 243.724 407.213 244.086 407.794 244.557C408.381 245.022 408.87 245.579 409.261 246.229C409.652 246.874 409.921 247.59 410.069 248.378H408.04ZM416.861 259.825C416.09 259.825 415.39 259.68 414.761 259.389C414.132 259.093 413.632 258.668 413.262 258.113C412.892 257.553 412.707 256.876 412.707 256.084C412.707 255.386 412.845 254.82 413.12 254.387C413.394 253.948 413.762 253.605 414.222 253.356C414.681 253.108 415.189 252.923 415.744 252.802C416.304 252.675 416.867 252.574 417.432 252.5C418.172 252.405 418.772 252.334 419.232 252.286C419.697 252.233 420.035 252.146 420.247 252.025C420.463 251.903 420.572 251.692 420.572 251.39V251.327C420.572 250.545 420.358 249.937 419.929 249.504C419.507 249.07 418.865 248.854 418.003 248.854C417.11 248.854 416.41 249.049 415.902 249.44C415.395 249.831 415.038 250.249 414.832 250.693L413.056 250.059C413.373 249.319 413.796 248.743 414.325 248.33C414.858 247.913 415.44 247.622 416.069 247.458C416.703 247.289 417.327 247.205 417.94 247.205C418.331 247.205 418.78 247.252 419.287 247.347C419.8 247.437 420.294 247.625 420.77 247.91C421.251 248.196 421.65 248.626 421.967 249.202C422.284 249.778 422.443 250.55 422.443 251.517V259.54H420.572V257.891H420.476C420.35 258.155 420.138 258.438 419.842 258.739C419.546 259.041 419.153 259.297 418.661 259.508C418.17 259.72 417.57 259.825 416.861 259.825ZM417.147 258.145C417.887 258.145 418.51 257.999 419.018 257.709C419.53 257.418 419.916 257.043 420.175 256.583C420.439 256.123 420.572 255.64 420.572 255.132V253.42C420.492 253.515 420.318 253.602 420.048 253.681C419.784 253.755 419.478 253.822 419.129 253.88C418.785 253.933 418.45 253.98 418.122 254.022C417.8 254.059 417.538 254.091 417.337 254.118C416.851 254.181 416.396 254.284 415.974 254.427C415.556 254.564 415.218 254.773 414.959 255.053C414.705 255.328 414.578 255.703 414.578 256.179C414.578 256.829 414.819 257.32 415.3 257.653C415.786 257.981 416.402 258.145 417.147 258.145ZM431.153 247.363V248.949H424.843V247.363H431.153ZM426.682 244.446H428.553V256.052C428.553 256.58 428.629 256.977 428.783 257.241C428.941 257.5 429.142 257.674 429.385 257.764C429.634 257.849 429.895 257.891 430.17 257.891C430.376 257.891 430.545 257.881 430.677 257.859C430.81 257.833 430.915 257.812 430.995 257.796L431.375 259.477C431.248 259.524 431.071 259.572 430.844 259.619C430.617 259.672 430.329 259.699 429.98 259.699C429.451 259.699 428.933 259.585 428.426 259.358C427.924 259.13 427.506 258.784 427.173 258.319C426.846 257.854 426.682 257.267 426.682 256.559V244.446ZM438.942 259.794C437.769 259.794 436.757 259.535 435.906 259.017C435.06 258.494 434.407 257.764 433.948 256.829C433.493 255.888 433.266 254.794 433.266 253.547C433.266 252.299 433.493 251.2 433.948 250.249C434.407 249.292 435.047 248.547 435.866 248.013C436.691 247.474 437.652 247.205 438.752 247.205C439.386 247.205 440.012 247.31 440.631 247.522C441.249 247.733 441.812 248.077 442.319 248.552C442.827 249.023 443.231 249.646 443.532 250.423C443.833 251.2 443.984 252.157 443.984 253.293V254.086H434.598V252.469H442.081C442.081 251.781 441.944 251.168 441.669 250.629C441.4 250.09 441.014 249.665 440.512 249.353C440.015 249.041 439.428 248.885 438.752 248.885C438.007 248.885 437.362 249.07 436.817 249.44C436.278 249.805 435.863 250.281 435.573 250.867C435.282 251.454 435.137 252.083 435.137 252.754V253.832C435.137 254.752 435.295 255.531 435.612 256.171C435.935 256.805 436.381 257.289 436.952 257.622C437.523 257.949 438.186 258.113 438.942 258.113C439.434 258.113 439.877 258.044 440.274 257.907C440.676 257.764 441.022 257.553 441.312 257.273C441.603 256.987 441.828 256.633 441.986 256.21L443.794 256.718C443.603 257.331 443.284 257.87 442.834 258.335C442.385 258.795 441.83 259.154 441.17 259.413C440.509 259.667 439.766 259.794 438.942 259.794ZM449.589 259.54L445.879 247.363H447.845L450.477 256.686H450.604L453.204 247.363H455.202L457.77 256.654H457.897L460.529 247.363H462.495L458.785 259.54H456.946L454.282 250.185H454.092L451.428 259.54H449.589ZM468.552 259.825C467.78 259.825 467.08 259.68 466.451 259.389C465.822 259.093 465.323 258.668 464.953 258.113C464.583 257.553 464.398 256.876 464.398 256.084C464.398 255.386 464.535 254.82 464.81 254.387C465.085 253.948 465.452 253.605 465.912 253.356C466.372 253.108 466.879 252.923 467.434 252.802C467.994 252.675 468.557 252.574 469.123 252.5C469.863 252.405 470.462 252.334 470.922 252.286C471.387 252.233 471.726 252.146 471.937 252.025C472.154 251.903 472.262 251.692 472.262 251.39V251.327C472.262 250.545 472.048 249.937 471.62 249.504C471.197 249.07 470.555 248.854 469.693 248.854C468.8 248.854 468.1 249.049 467.593 249.44C467.085 249.831 466.728 250.249 466.522 250.693L464.747 250.059C465.064 249.319 465.486 248.743 466.015 248.33C466.549 247.913 467.13 247.622 467.759 247.458C468.393 247.289 469.017 247.205 469.63 247.205C470.021 247.205 470.47 247.252 470.978 247.347C471.49 247.437 471.985 247.625 472.46 247.91C472.941 248.196 473.34 248.626 473.657 249.202C473.974 249.778 474.133 250.55 474.133 251.517V259.54H472.262V257.891H472.167C472.04 258.155 471.829 258.438 471.533 258.739C471.237 259.041 470.843 259.297 470.351 259.508C469.86 259.72 469.26 259.825 468.552 259.825ZM468.837 258.145C469.577 258.145 470.201 257.999 470.708 257.709C471.221 257.418 471.607 257.043 471.866 256.583C472.13 256.123 472.262 255.64 472.262 255.132V253.42C472.183 253.515 472.008 253.602 471.739 253.681C471.475 253.755 471.168 253.822 470.819 253.88C470.476 253.933 470.14 253.98 469.812 254.022C469.49 254.059 469.228 254.091 469.028 254.118C468.541 254.181 468.087 254.284 467.664 254.427C467.246 254.564 466.908 254.773 466.649 255.053C466.396 255.328 466.269 255.703 466.269 256.179C466.269 256.829 466.509 257.32 466.99 257.653C467.476 257.981 468.092 258.145 468.837 258.145ZM478.317 264.106C478 264.106 477.717 264.08 477.469 264.027C477.22 263.98 477.048 263.932 476.953 263.884L477.429 262.235C477.883 262.352 478.285 262.394 478.634 262.362C478.983 262.331 479.292 262.175 479.561 261.895C479.836 261.62 480.087 261.173 480.315 260.555L480.663 259.603L476.16 247.363H478.19L481.551 257.067H481.678L485.039 247.363H487.069L481.9 261.316C481.668 261.945 481.379 262.465 481.036 262.878C480.692 263.295 480.293 263.604 479.839 263.805C479.39 264.006 478.882 264.106 478.317 264.106Z" fill="#566381"/>
<path d="M600 223.54H1075V278.54H600V223.54Z" fill="#F6F7F9"/>
<path d="M600 224.026H609.568V278.243H600V224.026Z" fill="#D6D9E1"/>
<path d="M630.209 243.543L624.977 262.982H623.264L628.496 243.543H630.209ZM637.025 260.794C636.01 260.794 635.114 260.537 634.337 260.025C633.56 259.507 632.952 258.777 632.514 257.837C632.075 256.891 631.856 255.773 631.856 254.483C631.856 253.204 632.075 252.094 632.514 251.154C632.952 250.213 633.563 249.486 634.345 248.974C635.127 248.461 636.031 248.205 637.056 248.205C637.849 248.205 638.475 248.337 638.935 248.601C639.4 248.86 639.754 249.156 639.998 249.489C640.246 249.817 640.439 250.086 640.576 250.297H640.735V244.304H642.606V260.54H640.798V258.669H640.576C640.439 258.891 640.243 259.171 639.99 259.509C639.736 259.842 639.374 260.141 638.904 260.405C638.433 260.664 637.807 260.794 637.025 260.794ZM637.278 259.113C638.029 259.113 638.663 258.918 639.181 258.526C639.699 258.13 640.093 257.583 640.362 256.885C640.632 256.182 640.767 255.371 640.767 254.452C640.767 253.543 640.634 252.747 640.37 252.065C640.106 251.378 639.715 250.844 639.197 250.464C638.679 250.078 638.039 249.885 637.278 249.885C636.486 249.885 635.825 250.089 635.296 250.496C634.773 250.897 634.379 251.444 634.115 252.137C633.856 252.824 633.727 253.595 633.727 254.452C633.727 255.318 633.859 256.106 634.123 256.814C634.393 257.517 634.789 258.077 635.312 258.495C635.841 258.907 636.496 259.113 637.278 259.113ZM646.292 260.54V248.363H648.163V260.54H646.292ZM647.243 246.334C646.879 246.334 646.564 246.209 646.3 245.961C646.041 245.713 645.912 245.414 645.912 245.065C645.912 244.716 646.041 244.418 646.3 244.169C646.564 243.921 646.879 243.797 647.243 243.797C647.608 243.797 647.92 243.921 648.179 244.169C648.443 244.418 648.575 244.716 648.575 245.065C648.575 245.414 648.443 245.713 648.179 245.961C647.92 246.209 647.608 246.334 647.243 246.334ZM660.215 251.09L658.534 251.566C658.429 251.286 658.273 251.014 658.067 250.749C657.866 250.48 657.591 250.258 657.242 250.083C656.893 249.909 656.447 249.822 655.902 249.822C655.157 249.822 654.536 249.994 654.039 250.337C653.548 250.675 653.302 251.106 653.302 251.629C653.302 252.094 653.471 252.462 653.81 252.731C654.148 253.001 654.676 253.225 655.395 253.405L657.203 253.849C658.291 254.113 659.103 254.518 659.636 255.062C660.17 255.601 660.437 256.296 660.437 257.147C660.437 257.845 660.236 258.468 659.835 259.018C659.438 259.568 658.883 260.001 658.17 260.318C657.456 260.635 656.626 260.794 655.68 260.794C654.438 260.794 653.41 260.524 652.597 259.985C651.783 259.446 651.267 258.659 651.051 257.623L652.826 257.179C652.996 257.834 653.315 258.326 653.786 258.653C654.261 258.981 654.882 259.145 655.649 259.145C656.521 259.145 657.213 258.96 657.726 258.59C658.244 258.215 658.503 257.765 658.503 257.242C658.503 256.819 658.355 256.465 658.059 256.18C657.763 255.889 657.308 255.672 656.695 255.53L654.666 255.054C653.551 254.79 652.731 254.38 652.208 253.825C651.69 253.265 651.431 252.565 651.431 251.724C651.431 251.037 651.624 250.43 652.01 249.901C652.401 249.373 652.932 248.958 653.603 248.656C654.28 248.355 655.046 248.205 655.902 248.205C657.107 248.205 658.053 248.469 658.741 248.997C659.433 249.526 659.924 250.223 660.215 251.09ZM663.253 265.106V248.363H665.061V250.297H665.283C665.42 250.086 665.611 249.817 665.854 249.489C666.102 249.156 666.456 248.86 666.916 248.601C667.381 248.337 668.01 248.205 668.803 248.205C669.828 248.205 670.732 248.461 671.514 248.974C672.296 249.486 672.907 250.213 673.345 251.154C673.784 252.094 674.003 253.204 674.003 254.483C674.003 255.773 673.784 256.891 673.345 257.837C672.907 258.777 672.299 259.507 671.522 260.025C670.745 260.537 669.849 260.794 668.834 260.794C668.052 260.794 667.426 260.664 666.956 260.405C666.485 260.141 666.123 259.842 665.869 259.509C665.616 259.171 665.42 258.891 665.283 258.669H665.124V265.106H663.253ZM665.093 254.452C665.093 255.371 665.227 256.182 665.497 256.885C665.766 257.583 666.16 258.13 666.678 258.526C667.196 258.918 667.83 259.113 668.581 259.113C669.363 259.113 670.016 258.907 670.539 258.495C671.067 258.077 671.464 257.517 671.728 256.814C671.998 256.106 672.132 255.318 672.132 254.452C672.132 253.595 672 252.824 671.736 252.137C671.477 251.444 671.083 250.897 670.555 250.496C670.032 250.089 669.374 249.885 668.581 249.885C667.82 249.885 667.18 250.078 666.662 250.464C666.144 250.844 665.753 251.378 665.489 252.065C665.225 252.747 665.093 253.543 665.093 254.452ZM680.441 260.825C679.669 260.825 678.969 260.68 678.34 260.389C677.711 260.093 677.211 259.668 676.841 259.113C676.471 258.553 676.286 257.876 676.286 257.084C676.286 256.386 676.424 255.82 676.699 255.387C676.974 254.948 677.341 254.605 677.801 254.356C678.26 254.108 678.768 253.923 679.323 253.802C679.883 253.675 680.446 253.574 681.011 253.5C681.751 253.405 682.351 253.334 682.811 253.286C683.276 253.233 683.614 253.146 683.826 253.025C684.042 252.903 684.151 252.692 684.151 252.39V252.327C684.151 251.545 683.937 250.937 683.509 250.504C683.086 250.07 682.444 249.854 681.582 249.854C680.689 249.854 679.989 250.049 679.481 250.44C678.974 250.831 678.617 251.249 678.411 251.693L676.635 251.059C676.952 250.319 677.375 249.743 677.904 249.33C678.437 248.913 679.019 248.622 679.648 248.458C680.282 248.289 680.906 248.205 681.519 248.205C681.91 248.205 682.359 248.252 682.866 248.347C683.379 248.437 683.873 248.625 684.349 248.91C684.83 249.196 685.229 249.626 685.546 250.202C685.863 250.778 686.022 251.55 686.022 252.517V260.54H684.151V258.891H684.056C683.929 259.155 683.717 259.438 683.421 259.739C683.125 260.041 682.732 260.297 682.24 260.508C681.749 260.72 681.149 260.825 680.441 260.825ZM680.726 259.145C681.466 259.145 682.09 258.999 682.597 258.709C683.11 258.418 683.495 258.043 683.754 257.583C684.019 257.123 684.151 256.64 684.151 256.132V254.42C684.071 254.515 683.897 254.602 683.627 254.681C683.363 254.755 683.057 254.822 682.708 254.88C682.364 254.933 682.029 254.98 681.701 255.022C681.379 255.059 681.117 255.091 680.916 255.118C680.43 255.181 679.975 255.284 679.553 255.427C679.135 255.564 678.797 255.773 678.538 256.053C678.284 256.328 678.157 256.703 678.157 257.179C678.157 257.829 678.398 258.32 678.879 258.653C679.365 258.981 679.981 259.145 680.726 259.145ZM694.732 248.363V249.949H688.422V248.363H694.732ZM690.261 245.446H692.132V257.052C692.132 257.58 692.209 257.977 692.362 258.241C692.52 258.5 692.721 258.674 692.964 258.764C693.213 258.849 693.474 258.891 693.749 258.891C693.955 258.891 694.124 258.881 694.257 258.859C694.389 258.833 694.494 258.812 694.574 258.796L694.954 260.477C694.827 260.524 694.65 260.572 694.423 260.619C694.196 260.672 693.908 260.699 693.559 260.699C693.03 260.699 692.512 260.585 692.005 260.358C691.503 260.13 691.085 259.784 690.752 259.319C690.425 258.854 690.261 258.267 690.261 257.559V245.446ZM702.363 260.794C701.221 260.794 700.238 260.524 699.413 259.985C698.589 259.446 697.955 258.703 697.511 257.757C697.067 256.811 696.845 255.731 696.845 254.515C696.845 253.278 697.072 252.187 697.527 251.241C697.986 250.29 698.626 249.547 699.445 249.013C700.27 248.474 701.232 248.205 702.331 248.205C703.187 248.205 703.959 248.363 704.646 248.68C705.333 248.997 705.896 249.441 706.334 250.012C706.773 250.583 707.045 251.249 707.151 252.01H705.28C705.137 251.455 704.82 250.963 704.329 250.535C703.842 250.102 703.187 249.885 702.363 249.885C701.633 249.885 700.994 250.076 700.444 250.456C699.9 250.831 699.474 251.362 699.168 252.05C698.866 252.731 698.716 253.532 698.716 254.452C698.716 255.392 698.864 256.212 699.16 256.909C699.461 257.607 699.884 258.149 700.428 258.534C700.978 258.92 701.623 259.113 702.363 259.113C702.849 259.113 703.29 259.028 703.686 258.859C704.083 258.69 704.418 258.447 704.693 258.13C704.968 257.813 705.164 257.432 705.28 256.988H707.151C707.045 257.707 706.784 258.355 706.366 258.931C705.954 259.502 705.407 259.956 704.725 260.294C704.049 260.627 703.261 260.794 702.363 260.794ZM711.757 253.215V260.54H709.886V244.304H711.757V250.266H711.915C712.201 249.637 712.629 249.137 713.2 248.767C713.776 248.392 714.542 248.205 715.499 248.205C716.328 248.205 717.055 248.371 717.679 248.704C718.302 249.032 718.786 249.536 719.13 250.218C719.478 250.895 719.653 251.756 719.653 252.803V260.54H717.782V252.929C717.782 251.962 717.531 251.214 717.029 250.686C716.532 250.152 715.842 249.885 714.96 249.885C714.347 249.885 713.797 250.015 713.311 250.274C712.83 250.533 712.449 250.911 712.169 251.407C711.894 251.904 711.757 252.507 711.757 253.215Z" fill="#566381"/>
<path d="M638 306.54H1036V360.54H638V306.54Z" fill="#E8F7EB"/>
<path d="M638 306.54H647.568V360.756H638V306.54Z" fill="#A9C265"/>
<path d="M667.776 325.733L662.544 345.171H660.832L666.064 325.733H667.776ZM674.592 342.983C673.578 342.983 672.682 342.727 671.905 342.214C671.128 341.696 670.52 340.967 670.081 340.026C669.643 339.08 669.423 337.962 669.423 336.673C669.423 335.394 669.643 334.284 670.081 333.343C670.52 332.402 671.131 331.676 671.913 331.163C672.695 330.65 673.599 330.394 674.624 330.394C675.417 330.394 676.043 330.526 676.503 330.79C676.968 331.049 677.322 331.345 677.565 331.678C677.814 332.006 678.006 332.276 678.144 332.487H678.302V326.494H680.173V342.729H678.366V340.859H678.144C678.006 341.081 677.811 341.361 677.557 341.699C677.304 342.032 676.942 342.33 676.471 342.595C676.001 342.854 675.374 342.983 674.592 342.983ZM674.846 341.303C675.596 341.303 676.231 341.107 676.749 340.716C677.267 340.319 677.66 339.772 677.93 339.075C678.199 338.372 678.334 337.561 678.334 336.641C678.334 335.732 678.202 334.937 677.938 334.255C677.674 333.568 677.282 333.034 676.764 332.653C676.247 332.268 675.607 332.075 674.846 332.075C674.053 332.075 673.393 332.278 672.864 332.685C672.341 333.087 671.947 333.634 671.683 334.326C671.424 335.013 671.294 335.785 671.294 336.641C671.294 337.508 671.427 338.295 671.691 339.003C671.96 339.706 672.357 340.267 672.88 340.684C673.408 341.096 674.064 341.303 674.846 341.303ZM683.86 342.729V330.553H685.731V342.729H683.86ZM684.811 328.523C684.446 328.523 684.132 328.399 683.868 328.151C683.609 327.902 683.479 327.603 683.479 327.255C683.479 326.906 683.609 326.607 683.868 326.359C684.132 326.11 684.446 325.986 684.811 325.986C685.176 325.986 685.488 326.11 685.747 326.359C686.011 326.607 686.143 326.906 686.143 327.255C686.143 327.603 686.011 327.902 685.747 328.151C685.488 328.399 685.176 328.523 684.811 328.523ZM697.783 333.28L696.102 333.755C695.996 333.475 695.84 333.203 695.634 332.939C695.433 332.669 695.159 332.447 694.81 332.273C694.461 332.098 694.014 332.011 693.47 332.011C692.725 332.011 692.104 332.183 691.607 332.527C691.116 332.865 690.87 333.296 690.87 333.819C690.87 334.284 691.039 334.651 691.377 334.921C691.715 335.19 692.244 335.415 692.963 335.595L694.77 336.039C695.859 336.303 696.67 336.707 697.204 337.251C697.738 337.791 698.005 338.486 698.005 339.336C698.005 340.034 697.804 340.658 697.402 341.207C697.006 341.757 696.451 342.19 695.737 342.508C695.024 342.825 694.194 342.983 693.248 342.983C692.006 342.983 690.978 342.714 690.164 342.175C689.35 341.635 688.835 340.848 688.618 339.812L690.394 339.368C690.563 340.024 690.883 340.515 691.353 340.843C691.829 341.17 692.45 341.334 693.216 341.334C694.088 341.334 694.781 341.149 695.293 340.779C695.811 340.404 696.07 339.955 696.07 339.432C696.07 339.009 695.922 338.655 695.626 338.369C695.33 338.079 694.876 337.862 694.263 337.719L692.233 337.244C691.118 336.979 690.299 336.57 689.776 336.015C689.258 335.455 688.999 334.754 688.999 333.914C688.999 333.227 689.192 332.619 689.578 332.091C689.969 331.562 690.5 331.147 691.171 330.846C691.848 330.545 692.614 330.394 693.47 330.394C694.675 330.394 695.621 330.658 696.308 331.187C697.001 331.715 697.492 332.413 697.783 333.28ZM700.821 347.296V330.553H702.628V332.487H702.85C702.988 332.276 703.178 332.006 703.421 331.678C703.67 331.345 704.024 331.049 704.484 330.79C704.949 330.526 705.578 330.394 706.37 330.394C707.396 330.394 708.299 330.65 709.082 331.163C709.864 331.676 710.474 332.402 710.913 333.343C711.352 334.284 711.571 335.394 711.571 336.673C711.571 337.962 711.352 339.08 710.913 340.026C710.474 340.967 709.866 341.696 709.09 342.214C708.313 342.727 707.417 342.983 706.402 342.983C705.62 342.983 704.994 342.854 704.523 342.595C704.053 342.33 703.691 342.032 703.437 341.699C703.183 341.361 702.988 341.081 702.85 340.859H702.692V347.296H700.821ZM702.66 336.641C702.66 337.561 702.795 338.372 703.065 339.075C703.334 339.772 703.728 340.319 704.246 340.716C704.764 341.107 705.398 341.303 706.148 341.303C706.931 341.303 707.583 341.096 708.107 340.684C708.635 340.267 709.031 339.706 709.296 339.003C709.565 338.295 709.7 337.508 709.7 336.641C709.7 335.785 709.568 335.013 709.304 334.326C709.045 333.634 708.651 333.087 708.122 332.685C707.599 332.278 706.941 332.075 706.148 332.075C705.387 332.075 704.748 332.268 704.23 332.653C703.712 333.034 703.321 333.568 703.057 334.255C702.792 334.937 702.66 335.732 702.66 336.641ZM718.008 343.015C717.237 343.015 716.536 342.87 715.907 342.579C715.278 342.283 714.779 341.857 714.409 341.303C714.039 340.742 713.854 340.066 713.854 339.273C713.854 338.575 713.991 338.01 714.266 337.577C714.541 337.138 714.908 336.794 715.368 336.546C715.828 336.298 716.335 336.113 716.89 335.991C717.451 335.864 718.013 335.764 718.579 335.69C719.319 335.595 719.919 335.523 720.379 335.476C720.844 335.423 721.182 335.336 721.393 335.214C721.61 335.093 721.718 334.881 721.718 334.58V334.516C721.718 333.734 721.504 333.126 721.076 332.693C720.653 332.26 720.011 332.043 719.15 332.043C718.257 332.043 717.556 332.239 717.049 332.63C716.542 333.021 716.185 333.438 715.979 333.882L714.203 333.248C714.52 332.508 714.943 331.932 715.471 331.52C716.005 331.102 716.586 330.812 717.215 330.648C717.85 330.479 718.473 330.394 719.086 330.394C719.477 330.394 719.927 330.442 720.434 330.537C720.947 330.627 721.441 330.814 721.917 331.1C722.397 331.385 722.796 331.816 723.114 332.392C723.431 332.968 723.589 333.74 723.589 334.707V342.729H721.718V341.081H721.623C721.496 341.345 721.285 341.628 720.989 341.929C720.693 342.23 720.299 342.486 719.808 342.698C719.316 342.909 718.716 343.015 718.008 343.015ZM718.294 341.334C719.033 341.334 719.657 341.189 720.165 340.898C720.677 340.608 721.063 340.232 721.322 339.772C721.586 339.313 721.718 338.829 721.718 338.322V336.609C721.639 336.704 721.465 336.792 721.195 336.871C720.931 336.945 720.624 337.011 720.275 337.069C719.932 337.122 719.596 337.17 719.269 337.212C718.946 337.249 718.685 337.281 718.484 337.307C717.998 337.37 717.543 337.473 717.12 337.616C716.703 337.754 716.365 337.962 716.106 338.242C715.852 338.517 715.725 338.892 715.725 339.368C715.725 340.018 715.965 340.51 716.446 340.843C716.933 341.17 717.548 341.334 718.294 341.334ZM732.3 330.553V332.138H725.989V330.553H732.3ZM727.829 327.635H729.7V339.241C729.7 339.77 729.776 340.166 729.929 340.43C730.088 340.689 730.289 340.864 730.532 340.954C730.78 341.038 731.042 341.081 731.317 341.081C731.523 341.081 731.692 341.07 731.824 341.049C731.956 341.022 732.062 341.001 732.141 340.985L732.522 342.666C732.395 342.714 732.218 342.761 731.991 342.809C731.763 342.862 731.475 342.888 731.126 342.888C730.598 342.888 730.08 342.774 729.573 342.547C729.071 342.32 728.653 341.974 728.32 341.509C727.992 341.044 727.829 340.457 727.829 339.749V327.635ZM739.93 342.983C738.789 342.983 737.806 342.714 736.981 342.175C736.157 341.635 735.522 340.893 735.078 339.947C734.634 339.001 734.413 337.92 734.413 336.704C734.413 335.468 734.64 334.376 735.094 333.43C735.554 332.479 736.194 331.736 737.013 331.203C737.837 330.664 738.799 330.394 739.898 330.394C740.755 330.394 741.526 330.553 742.213 330.87C742.9 331.187 743.463 331.631 743.902 332.202C744.341 332.772 744.613 333.438 744.718 334.199H742.848C742.705 333.644 742.388 333.153 741.896 332.725C741.41 332.291 740.755 332.075 739.93 332.075C739.201 332.075 738.561 332.265 738.012 332.645C737.467 333.021 737.042 333.552 736.735 334.239C736.434 334.921 736.283 335.721 736.283 336.641C736.283 337.582 736.431 338.401 736.727 339.099C737.029 339.796 737.451 340.338 737.996 340.724C738.545 341.11 739.19 341.303 739.93 341.303C740.416 341.303 740.858 341.218 741.254 341.049C741.65 340.88 741.986 340.637 742.261 340.319C742.536 340.002 742.731 339.622 742.848 339.178H744.718C744.613 339.897 744.351 340.544 743.934 341.12C743.521 341.691 742.974 342.145 742.293 342.484C741.616 342.817 740.829 342.983 739.93 342.983ZM749.324 335.404V342.729H747.454V326.494H749.324V332.455H749.483C749.768 331.826 750.197 331.327 750.767 330.957C751.343 330.582 752.11 330.394 753.066 330.394C753.896 330.394 754.623 330.561 755.246 330.893C755.87 331.221 756.354 331.726 756.697 332.408C757.046 333.084 757.22 333.946 757.22 334.992V342.729H755.349V335.119C755.349 334.152 755.098 333.404 754.596 332.875C754.1 332.342 753.41 332.075 752.527 332.075C751.914 332.075 751.365 332.204 750.878 332.463C750.397 332.722 750.017 333.1 749.737 333.597C749.462 334.094 749.324 334.696 749.324 335.404ZM766.383 325.733L761.151 345.171H759.438L764.67 325.733H766.383ZM777.226 333.28L775.545 333.755C775.44 333.475 775.284 333.203 775.078 332.939C774.877 332.669 774.602 332.447 774.253 332.273C773.904 332.098 773.458 332.011 772.913 332.011C772.168 332.011 771.547 332.183 771.05 332.527C770.559 332.865 770.313 333.296 770.313 333.819C770.313 334.284 770.482 334.651 770.82 334.921C771.159 335.19 771.687 335.415 772.406 335.595L774.213 336.039C775.302 336.303 776.113 336.707 776.647 337.251C777.181 337.791 777.448 338.486 777.448 339.336C777.448 340.034 777.247 340.658 776.845 341.207C776.449 341.757 775.894 342.19 775.181 342.508C774.467 342.825 773.637 342.983 772.691 342.983C771.449 342.983 770.421 342.714 769.607 342.175C768.794 341.635 768.278 340.848 768.062 339.812L769.837 339.368C770.006 340.024 770.326 340.515 770.797 340.843C771.272 341.17 771.893 341.334 772.66 341.334C773.532 341.334 774.224 341.149 774.737 340.779C775.255 340.404 775.514 339.955 775.514 339.432C775.514 339.009 775.366 338.655 775.07 338.369C774.774 338.079 774.319 337.862 773.706 337.719L771.677 337.244C770.561 336.979 769.742 336.57 769.219 336.015C768.701 335.455 768.442 334.754 768.442 333.914C768.442 333.227 768.635 332.619 769.021 332.091C769.412 331.562 769.943 331.147 770.614 330.846C771.291 330.545 772.057 330.394 772.913 330.394C774.118 330.394 775.064 330.658 775.751 331.187C776.444 331.715 776.935 332.413 777.226 333.28ZM785.37 342.983C784.196 342.983 783.184 342.724 782.333 342.206C781.488 341.683 780.835 340.954 780.375 340.018C779.921 339.077 779.693 337.983 779.693 336.736C779.693 335.489 779.921 334.39 780.375 333.438C780.835 332.482 781.474 331.736 782.294 331.203C783.118 330.664 784.08 330.394 785.179 330.394C785.814 330.394 786.44 330.5 787.058 330.711C787.677 330.923 788.239 331.266 788.747 331.742C789.254 332.212 789.658 332.836 789.96 333.613C790.261 334.39 790.412 335.346 790.412 336.482V337.275H781.025V335.658H788.509C788.509 334.971 788.372 334.358 788.097 333.819C787.827 333.28 787.441 332.854 786.939 332.542C786.442 332.231 785.856 332.075 785.179 332.075C784.434 332.075 783.789 332.26 783.245 332.63C782.706 332.994 782.291 333.47 782 334.057C781.71 334.643 781.564 335.272 781.564 335.943V337.022C781.564 337.941 781.723 338.721 782.04 339.36C782.362 339.994 782.809 340.478 783.38 340.811C783.951 341.139 784.614 341.303 785.37 341.303C785.861 341.303 786.305 341.234 786.701 341.096C787.103 340.954 787.449 340.742 787.74 340.462C788.031 340.177 788.255 339.823 788.414 339.4L790.221 339.907C790.031 340.52 789.711 341.059 789.262 341.524C788.813 341.984 788.258 342.344 787.597 342.603C786.937 342.856 786.194 342.983 785.37 342.983ZM796.841 343.015C796.069 343.015 795.369 342.87 794.74 342.579C794.111 342.283 793.612 341.857 793.242 341.303C792.872 340.742 792.687 340.066 792.687 339.273C792.687 338.575 792.824 338.01 793.099 337.577C793.374 337.138 793.741 336.794 794.201 336.546C794.661 336.298 795.168 336.113 795.723 335.991C796.283 335.864 796.846 335.764 797.412 335.69C798.152 335.595 798.752 335.523 799.211 335.476C799.676 335.423 800.015 335.336 800.226 335.214C800.443 335.093 800.551 334.881 800.551 334.58V334.516C800.551 333.734 800.337 333.126 799.909 332.693C799.486 332.26 798.844 332.043 797.983 332.043C797.089 332.043 796.389 332.239 795.882 332.63C795.374 333.021 795.018 333.438 794.811 333.882L793.036 333.248C793.353 332.508 793.776 331.932 794.304 331.52C794.838 331.102 795.419 330.812 796.048 330.648C796.682 330.479 797.306 330.394 797.919 330.394C798.31 330.394 798.759 330.442 799.267 330.537C799.779 330.627 800.274 330.814 800.749 331.1C801.23 331.385 801.629 331.816 801.946 332.392C802.263 332.968 802.422 333.74 802.422 334.707V342.729H800.551V341.081H800.456C800.329 341.345 800.118 341.628 799.822 341.929C799.526 342.23 799.132 342.486 798.641 342.698C798.149 342.909 797.549 343.015 796.841 343.015ZM797.126 341.334C797.866 341.334 798.49 341.189 798.997 340.898C799.51 340.608 799.896 340.232 800.155 339.772C800.419 339.313 800.551 338.829 800.551 338.322V336.609C800.472 336.704 800.297 336.792 800.028 336.871C799.764 336.945 799.457 337.011 799.108 337.069C798.765 337.122 798.429 337.17 798.101 337.212C797.779 337.249 797.517 337.281 797.317 337.307C796.83 337.37 796.376 337.473 795.953 337.616C795.536 337.754 795.197 337.962 794.938 338.242C794.685 338.517 794.558 338.892 794.558 339.368C794.558 340.018 794.798 340.51 795.279 340.843C795.765 341.17 796.381 341.334 797.126 341.334ZM805.837 342.729V330.553H807.644V332.392H807.771C807.993 331.789 808.395 331.3 808.976 330.925C809.558 330.55 810.213 330.362 810.942 330.362C811.08 330.362 811.251 330.365 811.458 330.37C811.664 330.376 811.82 330.383 811.925 330.394V332.297C811.862 332.281 811.717 332.257 811.489 332.225C811.267 332.188 811.032 332.17 810.784 332.17C810.192 332.17 809.663 332.294 809.198 332.542C808.738 332.786 808.374 333.124 808.104 333.557C807.84 333.985 807.708 334.474 807.708 335.024V342.729H805.837ZM818.719 342.983C817.578 342.983 816.595 342.714 815.77 342.175C814.946 341.635 814.312 340.893 813.868 339.947C813.424 339.001 813.202 337.92 813.202 336.704C813.202 335.468 813.429 334.376 813.883 333.43C814.343 332.479 814.983 331.736 815.802 331.203C816.626 330.664 817.588 330.394 818.688 330.394C819.544 330.394 820.315 330.553 821.003 330.87C821.69 331.187 822.252 331.631 822.691 332.202C823.13 332.772 823.402 333.438 823.508 334.199H821.637C821.494 333.644 821.177 333.153 820.685 332.725C820.199 332.291 819.544 332.075 818.719 332.075C817.99 332.075 817.351 332.265 816.801 332.645C816.256 333.021 815.831 333.552 815.524 334.239C815.223 334.921 815.073 335.721 815.073 336.641C815.073 337.582 815.221 338.401 815.517 339.099C815.818 339.796 816.241 340.338 816.785 340.724C817.335 341.11 817.979 341.303 818.719 341.303C819.206 341.303 819.647 341.218 820.043 341.049C820.44 340.88 820.775 340.637 821.05 340.319C821.325 340.002 821.52 339.622 821.637 339.178H823.508C823.402 339.897 823.14 340.544 822.723 341.12C822.311 341.691 821.764 342.145 821.082 342.484C820.405 342.817 819.618 342.983 818.719 342.983ZM828.114 335.404V342.729H826.243V326.494H828.114V332.455H828.272C828.558 331.826 828.986 331.327 829.556 330.957C830.133 330.582 830.899 330.394 831.855 330.394C832.685 330.394 833.412 330.561 834.036 330.893C834.659 331.221 835.143 331.726 835.486 332.408C835.835 333.084 836.01 333.946 836.01 334.992V342.729H834.139V335.119C834.139 334.152 833.888 333.404 833.386 332.875C832.889 332.342 832.199 332.075 831.316 332.075C830.703 332.075 830.154 332.204 829.667 332.463C829.187 332.722 828.806 333.1 828.526 333.597C828.251 334.094 828.114 334.696 828.114 335.404Z" fill="#566381"/>
<path d="M638.487 388.837H762.487V442.837H638.487V388.837Z" fill="#FFF3CC"/>
<path d="M638 388.54H647.568V442.756H638V388.54Z" fill="#F5A800"/>
<path d="M667.776 407.733L662.544 427.171H660.832L666.064 407.733H667.776ZM669.994 429.296V412.553H671.802V414.487H672.024C672.161 414.276 672.351 414.006 672.595 413.678C672.843 413.345 673.197 413.049 673.657 412.79C674.122 412.526 674.751 412.394 675.544 412.394C676.569 412.394 677.473 412.65 678.255 413.163C679.037 413.676 679.648 414.402 680.086 415.343C680.525 416.284 680.744 417.394 680.744 418.673C680.744 419.962 680.525 421.08 680.086 422.026C679.648 422.967 679.04 423.696 678.263 424.214C677.486 424.727 676.59 424.983 675.575 424.983C674.793 424.983 674.167 424.854 673.696 424.595C673.226 424.33 672.864 424.032 672.61 423.699C672.357 423.361 672.161 423.081 672.024 422.859H671.865V429.296H669.994ZM671.833 418.641C671.833 419.561 671.968 420.372 672.238 421.075C672.507 421.772 672.901 422.319 673.419 422.716C673.937 423.107 674.571 423.303 675.322 423.303C676.104 423.303 676.757 423.096 677.28 422.684C677.808 422.267 678.205 421.706 678.469 421.003C678.738 420.295 678.873 419.508 678.873 418.641C678.873 417.785 678.741 417.013 678.477 416.326C678.218 415.634 677.824 415.087 677.296 414.685C676.772 414.278 676.114 414.075 675.322 414.075C674.561 414.075 673.921 414.268 673.403 414.653C672.885 415.034 672.494 415.568 672.23 416.255C671.966 416.937 671.833 417.732 671.833 418.641ZM688.545 424.983C687.446 424.983 686.481 424.722 685.651 424.198C684.827 423.675 684.182 422.943 683.717 422.002C683.257 421.062 683.027 419.962 683.027 418.704C683.027 417.436 683.257 416.329 683.717 415.383C684.182 414.437 684.827 413.702 685.651 413.179C686.481 412.656 687.446 412.394 688.545 412.394C689.644 412.394 690.606 412.656 691.431 413.179C692.26 413.702 692.905 414.437 693.365 415.383C693.83 416.329 694.063 417.436 694.063 418.704C694.063 419.962 693.83 421.062 693.365 422.002C692.905 422.943 692.26 423.675 691.431 424.198C690.606 424.722 689.644 424.983 688.545 424.983ZM688.545 423.303C689.38 423.303 690.067 423.088 690.606 422.66C691.145 422.232 691.544 421.669 691.803 420.972C692.062 420.274 692.192 419.518 692.192 418.704C692.192 417.891 692.062 417.132 691.803 416.429C691.544 415.726 691.145 415.158 690.606 414.725C690.067 414.291 689.38 414.075 688.545 414.075C687.71 414.075 687.023 414.291 686.484 414.725C685.945 415.158 685.546 415.726 685.287 416.429C685.028 417.132 684.898 417.891 684.898 418.704C684.898 419.518 685.028 420.274 685.287 420.972C685.546 421.669 685.945 422.232 686.484 422.66C687.023 423.088 687.71 423.303 688.545 423.303ZM698.79 408.494V424.729H696.919V408.494H698.79ZM704.087 408.494V424.729H702.216V408.494H704.087Z" fill="#566381"/>
<path d="M638.487 471.837H762.487V525.837H638.487V471.837Z" fill="#FFF3CC"/>
<path d="M638 471.54H647.568V525.756H638V471.54Z" fill="#F5A800"/>
<path d="M667.776 490.733L662.544 510.171H660.832L666.064 490.733H667.776ZM669.994 512.296V495.553H671.802V497.487H672.024C672.161 497.276 672.351 497.006 672.595 496.678C672.843 496.345 673.197 496.049 673.657 495.79C674.122 495.526 674.751 495.394 675.544 495.394C676.569 495.394 677.473 495.65 678.255 496.163C679.037 496.676 679.648 497.402 680.086 498.343C680.525 499.284 680.744 500.394 680.744 501.673C680.744 502.962 680.525 504.08 680.086 505.026C679.648 505.967 679.04 506.696 678.263 507.214C677.486 507.727 676.59 507.983 675.575 507.983C674.793 507.983 674.167 507.854 673.696 507.595C673.226 507.33 672.864 507.032 672.61 506.699C672.357 506.361 672.161 506.081 672.024 505.859H671.865V512.296H669.994ZM671.833 501.641C671.833 502.561 671.968 503.372 672.238 504.075C672.507 504.772 672.901 505.319 673.419 505.716C673.937 506.107 674.571 506.303 675.322 506.303C676.104 506.303 676.757 506.096 677.28 505.684C677.808 505.267 678.205 504.706 678.469 504.003C678.738 503.295 678.873 502.508 678.873 501.641C678.873 500.785 678.741 500.013 678.477 499.326C678.218 498.634 677.824 498.087 677.296 497.685C676.772 497.278 676.114 497.075 675.322 497.075C674.561 497.075 673.921 497.268 673.403 497.653C672.885 498.034 672.494 498.568 672.23 499.255C671.966 499.937 671.833 500.732 671.833 501.641ZM688.545 507.983C687.446 507.983 686.481 507.722 685.651 507.198C684.827 506.675 684.182 505.943 683.717 505.002C683.257 504.062 683.027 502.962 683.027 501.704C683.027 500.436 683.257 499.329 683.717 498.383C684.182 497.437 684.827 496.702 685.651 496.179C686.481 495.656 687.446 495.394 688.545 495.394C689.644 495.394 690.606 495.656 691.431 496.179C692.26 496.702 692.905 497.437 693.365 498.383C693.83 499.329 694.063 500.436 694.063 501.704C694.063 502.962 693.83 504.062 693.365 505.002C692.905 505.943 692.26 506.675 691.431 507.198C690.606 507.722 689.644 507.983 688.545 507.983ZM688.545 506.303C689.38 506.303 690.067 506.088 690.606 505.66C691.145 505.232 691.544 504.669 691.803 503.972C692.062 503.274 692.192 502.518 692.192 501.704C692.192 500.891 692.062 500.132 691.803 499.429C691.544 498.726 691.145 498.158 690.606 497.725C690.067 497.291 689.38 497.075 688.545 497.075C687.71 497.075 687.023 497.291 686.484 497.725C685.945 498.158 685.546 498.726 685.287 499.429C685.028 500.132 684.898 500.891 684.898 501.704C684.898 502.518 685.028 503.274 685.287 503.972C685.546 504.669 685.945 505.232 686.484 505.66C687.023 506.088 687.71 506.303 688.545 506.303ZM698.79 491.494V507.729H696.919V491.494H698.79ZM704.087 491.494V507.729H702.216V491.494H704.087Z" fill="#566381"/>
<path d="M638.487 553.837H762.487V607.837H638.487V553.837Z" fill="#FFF3CC"/>
<path d="M638 553.54H647.568V607.756H638V553.54Z" fill="#F5A800"/>
<path d="M667.776 572.733L662.544 592.171H660.832L666.064 572.733H667.776ZM669.994 594.296V577.553H671.802V579.487H672.024C672.161 579.276 672.351 579.006 672.595 578.678C672.843 578.345 673.197 578.049 673.657 577.79C674.122 577.526 674.751 577.394 675.544 577.394C676.569 577.394 677.473 577.65 678.255 578.163C679.037 578.676 679.648 579.402 680.086 580.343C680.525 581.284 680.744 582.394 680.744 583.673C680.744 584.962 680.525 586.08 680.086 587.026C679.648 587.967 679.04 588.696 678.263 589.214C677.486 589.727 676.59 589.983 675.575 589.983C674.793 589.983 674.167 589.854 673.696 589.595C673.226 589.33 672.864 589.032 672.61 588.699C672.357 588.361 672.161 588.081 672.024 587.859H671.865V594.296H669.994ZM671.833 583.641C671.833 584.561 671.968 585.372 672.238 586.075C672.507 586.772 672.901 587.319 673.419 587.716C673.937 588.107 674.571 588.303 675.322 588.303C676.104 588.303 676.757 588.096 677.28 587.684C677.808 587.267 678.205 586.706 678.469 586.003C678.738 585.295 678.873 584.508 678.873 583.641C678.873 582.785 678.741 582.013 678.477 581.326C678.218 580.634 677.824 580.087 677.296 579.685C676.772 579.278 676.114 579.075 675.322 579.075C674.561 579.075 673.921 579.268 673.403 579.653C672.885 580.034 672.494 580.568 672.23 581.255C671.966 581.937 671.833 582.732 671.833 583.641ZM688.545 589.983C687.446 589.983 686.481 589.722 685.651 589.198C684.827 588.675 684.182 587.943 683.717 587.002C683.257 586.062 683.027 584.962 683.027 583.704C683.027 582.436 683.257 581.329 683.717 580.383C684.182 579.437 684.827 578.702 685.651 578.179C686.481 577.656 687.446 577.394 688.545 577.394C689.644 577.394 690.606 577.656 691.431 578.179C692.26 578.702 692.905 579.437 693.365 580.383C693.83 581.329 694.063 582.436 694.063 583.704C694.063 584.962 693.83 586.062 693.365 587.002C692.905 587.943 692.26 588.675 691.431 589.198C690.606 589.722 689.644 589.983 688.545 589.983ZM688.545 588.303C689.38 588.303 690.067 588.088 690.606 587.66C691.145 587.232 691.544 586.669 691.803 585.972C692.062 585.274 692.192 584.518 692.192 583.704C692.192 582.891 692.062 582.132 691.803 581.429C691.544 580.726 691.145 580.158 690.606 579.725C690.067 579.291 689.38 579.075 688.545 579.075C687.71 579.075 687.023 579.291 686.484 579.725C685.945 580.158 685.546 580.726 685.287 581.429C685.028 582.132 684.898 582.891 684.898 583.704C684.898 584.518 685.028 585.274 685.287 585.972C685.546 586.669 685.945 587.232 686.484 587.66C687.023 588.088 687.71 588.303 688.545 588.303ZM698.79 573.494V589.729H696.919V573.494H698.79ZM704.087 573.494V589.729H702.216V573.494H704.087Z" fill="#566381"/>
<path d="M638 635.54H823V689.54H638V635.54Z" fill="#FFF3CC"/>
<path d="M638 635.54H647.568V689.756H638V635.54Z" fill="#F5A800"/>
<path d="M667.776 654.733L662.544 674.171H660.832L666.064 654.733H667.776ZM669.994 676.296V659.553H671.802V661.487H672.024C672.161 661.276 672.351 661.006 672.595 660.678C672.843 660.345 673.197 660.049 673.657 659.79C674.122 659.526 674.751 659.394 675.544 659.394C676.569 659.394 677.473 659.65 678.255 660.163C679.037 660.676 679.648 661.402 680.086 662.343C680.525 663.284 680.744 664.394 680.744 665.673C680.744 666.962 680.525 668.08 680.086 669.026C679.648 669.967 679.04 670.696 678.263 671.214C677.486 671.727 676.59 671.983 675.575 671.983C674.793 671.983 674.167 671.854 673.696 671.595C673.226 671.33 672.864 671.032 672.61 670.699C672.357 670.361 672.161 670.081 672.024 669.859H671.865V676.296H669.994ZM671.833 665.641C671.833 666.561 671.968 667.372 672.238 668.075C672.507 668.772 672.901 669.319 673.419 669.716C673.937 670.107 674.571 670.303 675.322 670.303C676.104 670.303 676.757 670.096 677.28 669.684C677.808 669.267 678.205 668.706 678.469 668.003C678.738 667.295 678.873 666.508 678.873 665.641C678.873 664.785 678.741 664.013 678.477 663.326C678.218 662.634 677.824 662.087 677.296 661.685C676.772 661.278 676.114 661.075 675.322 661.075C674.561 661.075 673.921 661.268 673.403 661.653C672.885 662.034 672.494 662.568 672.23 663.255C671.966 663.937 671.833 664.732 671.833 665.641ZM688.545 671.983C687.446 671.983 686.481 671.722 685.651 671.198C684.827 670.675 684.182 669.943 683.717 669.002C683.257 668.062 683.027 666.962 683.027 665.704C683.027 664.436 683.257 663.329 683.717 662.383C684.182 661.437 684.827 660.702 685.651 660.179C686.481 659.656 687.446 659.394 688.545 659.394C689.644 659.394 690.606 659.656 691.431 660.179C692.26 660.702 692.905 661.437 693.365 662.383C693.83 663.329 694.063 664.436 694.063 665.704C694.063 666.962 693.83 668.062 693.365 669.002C692.905 669.943 692.26 670.675 691.431 671.198C690.606 671.722 689.644 671.983 688.545 671.983ZM688.545 670.303C689.38 670.303 690.067 670.088 690.606 669.66C691.145 669.232 691.544 668.669 691.803 667.972C692.062 667.274 692.192 666.518 692.192 665.704C692.192 664.891 692.062 664.132 691.803 663.429C691.544 662.726 691.145 662.158 690.606 661.725C690.067 661.291 689.38 661.075 688.545 661.075C687.71 661.075 687.023 661.291 686.484 661.725C685.945 662.158 685.546 662.726 685.287 663.429C685.028 664.132 684.898 664.891 684.898 665.704C684.898 666.518 685.028 667.274 685.287 667.972C685.546 668.669 685.945 669.232 686.484 669.66C687.023 670.088 687.71 670.303 688.545 670.303ZM698.79 655.494V671.729H696.919V655.494H698.79ZM704.087 655.494V671.729H702.216V655.494H704.087ZM712.778 671.729H707.768V655.494H713C714.575 655.494 715.923 655.819 717.043 656.469C718.163 657.114 719.022 658.041 719.619 659.251C720.217 660.456 720.515 661.899 720.515 663.58C720.515 665.271 720.214 666.727 719.612 667.948C719.009 669.164 718.132 670.099 716.98 670.754C715.827 671.404 714.427 671.729 712.778 671.729ZM709.734 669.985H712.651C713.993 669.985 715.106 669.726 715.989 669.208C716.871 668.691 717.529 667.953 717.963 666.997C718.396 666.04 718.613 664.901 718.613 663.58C718.613 662.269 718.399 661.141 717.971 660.195C717.542 659.243 716.903 658.514 716.052 658.007C715.201 657.494 714.141 657.238 712.873 657.238H709.734V669.985ZM723.56 671.729V659.553H725.367V661.392H725.494C725.716 660.789 726.118 660.3 726.699 659.925C727.28 659.55 727.936 659.362 728.665 659.362C728.802 659.362 728.974 659.365 729.18 659.37C729.386 659.376 729.542 659.383 729.648 659.394V661.297C729.585 661.281 729.439 661.257 729.212 661.225C728.99 661.188 728.755 661.17 728.506 661.17C727.914 661.17 727.386 661.294 726.921 661.542C726.461 661.786 726.096 662.124 725.827 662.557C725.563 662.985 725.43 663.474 725.43 664.024V671.729H723.56ZM731.866 671.729V659.553H733.737V671.729H731.866ZM732.817 657.523C732.452 657.523 732.138 657.399 731.874 657.151C731.615 656.902 731.485 656.603 731.485 656.255C731.485 655.906 731.615 655.607 731.874 655.359C732.138 655.11 732.452 654.986 732.817 654.986C733.182 654.986 733.494 655.11 733.753 655.359C734.017 655.607 734.149 655.906 734.149 656.255C734.149 656.603 734.017 656.902 733.753 657.151C733.494 657.399 733.182 657.523 732.817 657.523ZM747.121 659.553L742.618 671.729H740.715L736.212 659.553H738.242L741.603 669.256H741.73L745.091 659.553H747.121ZM754.259 671.983C753.086 671.983 752.074 671.724 751.223 671.206C750.378 670.683 749.725 669.954 749.265 669.018C748.81 668.077 748.583 666.983 748.583 665.736C748.583 664.489 748.81 663.39 749.265 662.438C749.725 661.482 750.364 660.736 751.184 660.203C752.008 659.664 752.97 659.394 754.069 659.394C754.703 659.394 755.33 659.5 755.948 659.711C756.566 659.923 757.129 660.266 757.637 660.742C758.144 661.212 758.548 661.836 758.85 662.613C759.151 663.39 759.301 664.346 759.301 665.482V666.275H749.915V664.658H757.399C757.399 663.971 757.261 663.358 756.987 662.819C756.717 662.28 756.331 661.854 755.829 661.542C755.332 661.231 754.746 661.075 754.069 661.075C753.324 661.075 752.679 661.26 752.135 661.63C751.596 661.994 751.181 662.47 750.89 663.057C750.6 663.643 750.454 664.272 750.454 664.943V666.022C750.454 666.941 750.613 667.721 750.93 668.36C751.252 668.994 751.699 669.478 752.27 669.811C752.84 670.139 753.504 670.303 754.259 670.303C754.751 670.303 755.195 670.234 755.591 670.096C755.993 669.954 756.339 669.742 756.63 669.462C756.921 669.177 757.145 668.823 757.304 668.4L759.111 668.907C758.921 669.52 758.601 670.059 758.152 670.524C757.703 670.984 757.148 671.344 756.487 671.603C755.826 671.856 755.084 671.983 754.259 671.983ZM762.147 671.729V659.553H763.955V661.392H764.082C764.304 660.789 764.705 660.3 765.287 659.925C765.868 659.55 766.524 659.362 767.253 659.362C767.39 659.362 767.562 659.365 767.768 659.37C767.974 659.376 768.13 659.383 768.236 659.394V661.297C768.173 661.281 768.027 661.257 767.8 661.225C767.578 661.188 767.343 661.17 767.094 661.17C766.502 661.17 765.974 661.294 765.509 661.542C765.049 661.786 764.684 662.124 764.415 662.557C764.151 662.985 764.018 663.474 764.018 664.024V671.729H762.147ZM775.43 654.733L770.198 674.171H768.486L773.718 654.733H775.43ZM776.76 664.912V663.929C777.643 663.929 778.258 663.744 778.607 663.374C778.961 663.004 779.138 662.385 779.138 661.519V658.982C779.138 658.252 779.207 657.621 779.345 657.087C779.487 656.553 779.717 656.112 780.034 655.763C780.351 655.414 780.774 655.155 781.303 654.986C781.831 654.817 782.484 654.733 783.261 654.733V656.286C782.648 656.286 782.164 656.382 781.81 656.572C781.461 656.762 781.213 657.058 781.065 657.46C780.922 657.856 780.851 658.363 780.851 658.982V662.153C780.851 662.565 780.795 662.94 780.684 663.279C780.579 663.617 780.38 663.908 780.09 664.151C779.799 664.394 779.384 664.581 778.845 664.714C778.311 664.846 777.616 664.912 776.76 664.912ZM783.261 675.027C782.484 675.027 781.831 674.943 781.303 674.774C780.774 674.605 780.351 674.346 780.034 673.997C779.717 673.648 779.487 673.207 779.345 672.673C779.207 672.139 779.138 671.508 779.138 670.778V668.241C779.138 667.375 778.961 666.756 778.607 666.386C778.258 666.016 777.643 665.831 776.76 665.831V664.848C777.616 664.848 778.311 664.914 778.845 665.046C779.384 665.179 779.799 665.366 780.09 665.609C780.38 665.852 780.579 666.143 780.684 666.481C780.795 666.82 780.851 667.195 780.851 667.607V670.778C780.851 671.397 780.922 671.904 781.065 672.3C781.213 672.697 781.461 672.99 781.81 673.18C782.164 673.376 782.648 673.474 783.261 673.474V675.027ZM776.76 665.831V663.929H778.631V665.831H776.76ZM785.736 671.729V659.553H787.607V671.729H785.736ZM786.688 657.523C786.323 657.523 786.008 657.399 785.744 657.151C785.485 656.902 785.356 656.603 785.356 656.255C785.356 655.906 785.485 655.607 785.744 655.359C786.008 655.11 786.323 654.986 786.688 654.986C787.052 654.986 787.364 655.11 787.623 655.359C787.887 655.607 788.019 655.906 788.019 656.255C788.019 656.603 787.887 656.902 787.623 657.151C787.364 657.399 787.052 657.523 786.688 657.523ZM795.632 671.983C794.617 671.983 793.721 671.727 792.945 671.214C792.168 670.696 791.56 669.967 791.121 669.026C790.682 668.08 790.463 666.962 790.463 665.673C790.463 664.394 790.682 663.284 791.121 662.343C791.56 661.402 792.17 660.676 792.952 660.163C793.735 659.65 794.638 659.394 795.664 659.394C796.456 659.394 797.083 659.526 797.543 659.79C798.008 660.049 798.362 660.345 798.605 660.678C798.853 661.006 799.046 661.276 799.184 661.487H799.342V655.494H801.213V671.729H799.406V669.859H799.184C799.046 670.081 798.851 670.361 798.597 670.699C798.343 671.032 797.981 671.33 797.511 671.595C797.04 671.854 796.414 671.983 795.632 671.983ZM795.886 670.303C796.636 670.303 797.27 670.107 797.788 669.716C798.306 669.319 798.7 668.772 798.97 668.075C799.239 667.372 799.374 666.561 799.374 665.641C799.374 664.732 799.242 663.937 798.977 663.255C798.713 662.568 798.322 662.034 797.804 661.653C797.286 661.268 796.647 661.075 795.886 661.075C795.093 661.075 794.432 661.278 793.904 661.685C793.381 662.087 792.987 662.634 792.723 663.326C792.464 664.013 792.334 664.785 792.334 665.641C792.334 666.508 792.466 667.295 792.73 668.003C793 668.706 793.396 669.267 793.92 669.684C794.448 670.096 795.103 670.303 795.886 670.303ZM810.449 664.848V665.831C809.566 665.831 808.948 666.016 808.594 666.386C808.245 666.756 808.071 667.375 808.071 668.241V670.778C808.071 671.508 807.999 672.139 807.856 672.673C807.719 673.207 807.492 673.648 807.175 673.997C806.858 674.346 806.435 674.605 805.906 674.774C805.378 674.943 804.725 675.027 803.948 675.027V673.474C804.561 673.474 805.042 673.376 805.391 673.18C805.745 672.99 805.993 672.697 806.136 672.3C806.284 671.904 806.358 671.397 806.358 670.778V667.607C806.358 667.195 806.411 666.82 806.517 666.481C806.628 666.143 806.829 665.852 807.119 665.609C807.41 665.366 807.822 665.179 808.356 665.046C808.895 664.914 809.593 664.848 810.449 664.848ZM803.948 654.733C804.725 654.733 805.378 654.817 805.906 654.986C806.435 655.155 806.858 655.414 807.175 655.763C807.492 656.112 807.719 656.553 807.856 657.087C807.999 657.621 808.071 658.252 808.071 658.982V661.519C808.071 662.385 808.245 663.004 808.594 663.374C808.948 663.744 809.566 663.929 810.449 663.929V664.912C809.593 664.912 808.895 664.846 808.356 664.714C807.822 664.581 807.41 664.394 807.119 664.151C806.829 663.908 806.628 663.617 806.517 663.279C806.411 662.94 806.358 662.565 806.358 662.153V658.982C806.358 658.363 806.284 657.856 806.136 657.46C805.993 657.058 805.745 656.762 805.391 656.572C805.042 656.382 804.561 656.286 803.948 656.286V654.733ZM810.449 663.929V665.831H808.578V663.929H810.449Z" fill="#566381"/>
</g>
<defs>
<clipPath id="clip0_422_717">
<rect width="1180" height="751" fill="white"/>
</clipPath>
</defs>
</svg>
