<?xml version="1.0" encoding="UTF-8"?>
<svg xmlns="http://www.w3.org/2000/svg" xmlns:xlink="http://www.w3.org/1999/xlink" width="512px" height="512px" viewBox="0 0 512 512" version="1.1">
<g id="surface1">
<path style=" stroke:none;fill-rule:nonzero;fill:rgb(0%,18.039216%,25.882354%);fill-opacity:1;" d="M 29.84375 92.210938 C 27.601562 92.703125 24.375 93.964844 22.691406 95.015625 C 18.203125 97.613281 12.871094 103.714844 10.976562 108.480469 L 9.363281 112.480469 L 9.363281 338.3125 L 10.976562 342.3125 C 13.292969 347.992188 18.550781 353.535156 24.304688 356.339844 L 29.003906 358.652344 L 195.921875 358.652344 L 200.339844 356.621094 C 205.953125 354.023438 211.492188 348.203125 213.808594 342.453125 C 215.351562 338.664062 215.492188 337.050781 215.769531 324.496094 C 216.050781 311.59375 215.910156 310.398438 214.578125 307.59375 C 211.984375 302.265625 205.953125 300.511719 201.113281 303.808594 C 197.253906 306.402344 196.976562 307.734375 196.765625 322.113281 C 196.625 334.035156 196.484375 335.226562 195.152344 337.050781 C 194.378906 338.105469 192.90625 339.4375 191.996094 339.855469 C 190.664062 340.558594 172.636719 340.769531 111.902344 340.769531 L 33.5625 340.769531 L 30.894531 338.382812 L 28.300781 336 L 28.300781 225.957031 C 28.300781 117.109375 28.300781 115.988281 29.703125 114.09375 C 32.789062 109.886719 30.6875 110.023438 87.425781 110.023438 L 139.394531 110.023438 L 139.605469 129.875 L 139.816406 149.722656 L 142.058594 154.28125 C 146.128906 162.484375 153.210938 168.027344 161.835938 169.640625 C 163.871094 169.992188 172.5 170.339844 180.914062 170.339844 L 196.273438 170.339844 L 196.273438 205.898438 C 196.273438 229.535156 196.554688 242.441406 197.046875 244.261719 C 199.21875 252.1875 209.25 253.941406 214.089844 247.277344 C 215.5625 245.316406 215.5625 244.683594 215.5625 199.585938 L 215.5625 153.859375 L 213.667969 149.933594 C 212.054688 146.777344 206.933594 141.304688 185.613281 120.125 C 169.414062 104.0625 158.402344 93.683594 156.648438 92.84375 C 153.914062 91.507812 151.878906 91.441406 93.878906 91.300781 C 44.082031 91.230469 33.210938 91.371094 29.84375 92.210938 Z M 176.636719 149.863281 C 165.414062 150.070312 162.960938 149.371094 160.503906 145.441406 C 159.242188 143.410156 159.101562 142.007812 159.101562 132.890625 L 159.101562 122.507812 L 172.847656 136.117188 L 186.523438 149.652344 Z M 176.636719 149.863281 "/>
<path style=" stroke:none;fill-rule:nonzero;fill:rgb(0%,18.039216%,25.882354%);fill-opacity:1;" d="M 56.777344 162.136719 C 55.863281 162.554688 54.390625 163.890625 53.621094 164.941406 C 52.148438 166.90625 52.148438 167.183594 51.9375 230.027344 C 51.726562 299.597656 51.585938 296.582031 56.144531 299.390625 C 60.914062 302.265625 67.71875 300.371094 69.75 295.53125 C 71.222656 291.953125 71.222656 170.0625 69.75 166.484375 C 67.855469 162.066406 61.265625 159.820312 56.777344 162.136719 Z M 56.777344 162.136719 "/>
<path style=" stroke:none;fill-rule:nonzero;fill:rgb(0%,18.039216%,25.882354%);fill-opacity:1;" d="M 100.46875 161.925781 C 99.699219 162.207031 98.15625 163.46875 97.171875 164.730469 L 95.28125 166.976562 L 95.28125 294.269531 L 96.894531 296.652344 C 98.855469 299.597656 101.101562 300.792969 104.746094 300.722656 C 108.042969 300.722656 110.007812 299.738281 112.042969 297.144531 L 113.585938 295.25 L 113.515625 231.777344 C 113.515625 195.941406 113.234375 167.535156 112.882812 166.625 C 111.761719 163.609375 108.113281 161.222656 104.886719 161.292969 C 103.273438 161.292969 101.3125 161.574219 100.46875 161.925781 Z M 100.46875 161.925781 "/>
<path style=" stroke:none;fill-rule:nonzero;fill:rgb(0%,18.039216%,25.882354%);fill-opacity:1;" d="M 322.867188 164.378906 C 316.625 165.992188 309.542969 171.8125 306.527344 177.84375 C 303.441406 183.808594 303.511719 182.964844 303.71875 299.039062 L 303.929688 409.851562 L 305.402344 413.5 C 308.417969 420.792969 313.960938 426.472656 320.972656 429.277344 L 324.972656 430.890625 L 402.46875 430.890625 C 445.113281 430.960938 481.863281 430.679688 484.175781 430.332031 C 493.855469 428.929688 501.851562 422.40625 505.289062 413.007812 C 506.339844 410.132812 506.410156 401.574219 506.269531 316.570312 C 506.199219 225.328125 506.128906 223.222656 504.796875 220.136719 C 502.902344 215.789062 453.949219 166.765625 449.8125 165.011719 C 447.285156 163.957031 441.535156 163.820312 386.410156 163.75 C 346.082031 163.679688 324.761719 163.957031 322.867188 164.378906 Z M 433.328125 199.445312 C 433.328125 215.085938 433.46875 216.910156 434.800781 220.488281 C 436.765625 225.675781 439.921875 229.746094 444.550781 232.902344 C 450.582031 237.039062 454.371094 237.671875 472.394531 237.671875 L 488.035156 237.671875 L 487.894531 322.535156 L 487.683594 407.398438 L 485.371094 409.640625 L 483.125 411.957031 L 406.117188 412.164062 C 349.238281 412.304688 328.6875 412.097656 327.214844 411.535156 C 326.164062 411.042969 324.621094 409.921875 323.917969 408.941406 C 322.515625 407.257812 322.515625 405.503906 322.515625 297.496094 C 322.515625 196.921875 322.585938 187.664062 323.636719 186.050781 C 326.234375 182.195312 324.199219 182.335938 380.9375 182.265625 L 433.328125 182.265625 Z M 467.765625 217.890625 C 453.109375 218.171875 451.566406 216.628906 451.566406 201.550781 L 451.566406 192.503906 L 464.398438 205.058594 L 477.164062 217.683594 Z M 467.765625 217.890625 "/>
<path style=" stroke:none;fill-rule:nonzero;fill:rgb(0%,18.039216%,25.882354%);fill-opacity:1;" d="M 352.953125 254.082031 C 349.589844 255.554688 347.765625 258.359375 347.765625 262.148438 C 347.765625 266.214844 348.886719 268.390625 351.902344 270.421875 L 354.289062 272.035156 L 401.347656 272.035156 C 447.285156 272.035156 448.480469 271.964844 450.722656 270.632812 C 454.71875 268.179688 456.261719 262.007812 453.878906 258.007812 C 453.246094 256.957031 451.566406 255.34375 450.160156 254.574219 C 447.566406 253.101562 446.9375 253.101562 401.347656 253.101562 C 364.246094 253.171875 354.707031 253.3125 352.953125 254.082031 Z M 352.953125 254.082031 "/>
<path style=" stroke:none;fill-rule:nonzero;fill:rgb(0%,18.039216%,25.882354%);fill-opacity:1;" d="M 352.886719 300.441406 C 346.082031 303.386719 346.222656 314.46875 353.023438 317.34375 C 356.601562 318.816406 446.234375 318.816406 449.8125 317.34375 C 456.195312 314.679688 456.824219 305.5625 451.003906 301.140625 C 449.179688 299.808594 447.917969 299.738281 402.121094 299.597656 C 362.914062 299.460938 354.777344 299.597656 352.886719 300.441406 Z M 352.886719 300.441406 "/>
<path style=" stroke:none;fill-rule:nonzero;fill:rgb(0%,18.039216%,25.882354%);fill-opacity:1;" d="M 352.953125 345.957031 C 347.90625 348.203125 346.152344 354.585938 349.167969 359.566406 C 351.832031 363.914062 351.832031 363.914062 389.847656 363.914062 C 426.386719 363.914062 427.15625 363.84375 430.03125 360.546875 C 430.804688 359.773438 431.644531 357.882812 431.996094 356.410156 C 432.488281 354.234375 432.277344 353.183594 431.015625 350.585938 C 428.210938 344.835938 429.472656 344.976562 389.847656 344.976562 C 362.351562 345.046875 354.707031 345.257812 352.953125 345.957031 Z M 352.953125 345.957031 "/>
<path style=" stroke:none;fill-rule:nonzero;fill:rgb(0%,18.039216%,25.882354%);fill-opacity:1;" d="M 143.882812 201.972656 C 138.484375 204.636719 138.691406 202.464844 138.902344 252.046875 L 139.113281 296.023438 L 141.710938 298.40625 C 143.953125 300.441406 144.863281 300.792969 147.671875 300.792969 C 151.386719 300.792969 154.964844 299.039062 156.296875 296.582031 C 156.929688 295.460938 157.070312 282.976562 157 251.207031 C 156.929688 202.113281 157.207031 204.566406 151.878906 201.972656 C 148.089844 200.148438 147.53125 200.148438 143.882812 201.972656 Z M 143.882812 201.972656 "/>
<path style=" stroke:none;fill-rule:nonzero;fill:rgb(0%,18.039216%,25.882354%);fill-opacity:1;" d="M 250.488281 239.144531 C 247.472656 240.054688 244.667969 243.492188 244.667969 246.4375 C 244.667969 250.574219 246 252.609375 253.644531 260.253906 L 261.148438 267.828125 L 220.46875 267.828125 C 180.914062 267.828125 179.722656 267.898438 177.476562 269.230469 C 172.429688 272.316406 171.796875 279.679688 176.214844 283.75 L 178.738281 286.0625 L 220.46875 286.0625 C 243.40625 286.0625 262.199219 286.273438 262.199219 286.554688 C 262.199219 286.835938 258.273438 291.042969 253.433594 295.882812 C 244.738281 304.71875 244.667969 304.789062 244.667969 308.085938 C 244.667969 309.910156 245.15625 312.292969 245.71875 313.347656 C 247.542969 316.921875 253.222656 318.605469 257.78125 316.851562 C 260.027344 316.011719 290.535156 285.992188 292.078125 283.117188 C 292.640625 282.066406 293.058594 279.402344 293.058594 277.15625 L 293.058594 273.089844 L 276.789062 257.167969 C 261.78125 242.511719 256.519531 238.230469 253.714844 238.441406 C 253.152344 238.441406 251.75 238.792969 250.488281 239.144531 Z M 250.488281 239.144531 "/>
</g>
</svg>
