<?xml version="1.0" encoding="UTF-8"?>
<svg xmlns="http://www.w3.org/2000/svg" xmlns:xlink="http://www.w3.org/1999/xlink" width="512px" height="512px" viewBox="0 0 512 512" version="1.1">
<g id="surface1">
<path style=" stroke:none;fill-rule:nonzero;fill:rgb(0%,18.039216%,25.882354%);fill-opacity:1;" d="M 217.460938 61.757812 C 213.898438 62.972656 209.878906 66.761719 207.679688 70.855469 C 206.011719 73.8125 206.011719 74.570312 205.785156 113.464844 C 205.710938 135.300781 205.328125 153.191406 205.027344 153.191406 C 204.722656 153.269531 198.734375 153.417969 191.609375 153.496094 C 175.003906 153.722656 171.515625 155.011719 167.5 162.59375 C 165.832031 165.625 165.832031 166.082031 165.832031 208.460938 C 165.832031 246.824219 165.980469 251.980469 167.195312 258.121094 C 172.351562 283.519531 186.300781 305.957031 206.390625 321.199219 C 217.761719 329.765625 235.351562 337.496094 249.832031 340.378906 L 254.15625 341.210938 L 254.15625 355.84375 C 254.15625 372.601562 253.015625 380.863281 249.605469 389.429688 C 242.632812 406.71875 228.910156 418.695312 209.574219 424.304688 C 205.9375 425.367188 199.492188 425.59375 169.621094 426.050781 C 130.878906 426.503906 131.5625 426.429688 126.179688 430.976562 C 118.292969 437.574219 118.445312 450.691406 126.40625 456.832031 C 131.636719 460.773438 132.167969 460.847656 168.484375 460.925781 C 206.542969 460.925781 211.773438 460.46875 225.195312 455.996094 C 256.65625 445.457031 280.007812 419.152344 286.90625 386.625 C 288.121094 381.015625 288.574219 375.179688 288.953125 360.167969 L 289.410156 340.984375 L 296.308594 339.242188 C 336.945312 328.929688 369.089844 294.511719 375.15625 254.707031 C 375.988281 249.097656 376.214844 238.332031 376.214844 206.945312 C 376.214844 161.53125 376.292969 162.820312 370.683594 157.890625 C 366.664062 154.40625 364.011719 153.796875 349.53125 153.570312 C 342.328125 153.417969 335.960938 153.269531 335.503906 153.191406 C 334.746094 153.117188 334.519531 144.929688 334.519531 114.753906 C 334.519531 87.914062 334.214844 75.40625 333.609375 72.902344 C 333.003906 70.402344 331.714844 68.355469 329.289062 65.929688 C 322.539062 59.179688 313.140625 58.800781 306.316406 65.019531 C 300.25 70.476562 300.402344 68.886719 300.402344 113.464844 L 300.402344 153.117188 L 240.582031 153.117188 L 240.355469 113.84375 L 240.128906 74.648438 L 238.386719 71.085938 C 234.292969 62.746094 225.574219 58.878906 217.460938 61.757812 Z M 341.722656 216.800781 C 341.722656 244.398438 341.570312 246.367188 339.976562 252.660156 C 336.488281 266.535156 331.257812 276.238281 322.085938 285.714844 C 315.414062 292.539062 309.425781 296.9375 301.085938 300.957031 C 290.320312 306.109375 284.480469 307.324219 270.453125 307.324219 C 256.429688 307.324219 250.589844 306.109375 239.824219 300.957031 C 231.257812 296.859375 225.421875 292.539062 218.445312 285.261719 C 211.699219 278.210938 207.300781 271.160156 204.117188 262.441406 C 200.175781 251.675781 199.566406 245.230469 199.566406 215.207031 C 199.566406 200.347656 199.796875 187.992188 200.097656 187.761719 C 200.328125 187.460938 232.320312 187.308594 271.136719 187.382812 L 341.722656 187.613281 Z M 341.722656 216.800781 "/>
</g>
</svg>
