<?xml version="1.0" encoding="UTF-8"?>
<svg xmlns="http://www.w3.org/2000/svg" xmlns:xlink="http://www.w3.org/1999/xlink" width="512px" height="512px" viewBox="0 0 512 512" version="1.1">
<g id="surface1">
<path style=" stroke:none;fill-rule:nonzero;fill:rgb(0%,18.039216%,25.882354%);fill-opacity:1;" d="M 20.867188 10.40625 C 16.269531 12.042969 12.0625 15.160156 8.710938 19.445312 C 2.632812 27.160156 3.179688 4.714844 3.335938 254.382812 L 3.566406 478.023438 L 5.671875 482.464844 C 8.398438 488.386719 13.308594 493.53125 18.683594 496.101562 L 23.050781 498.28125 L 137.128906 498.515625 L 251.128906 498.671875 L 245.050781 495.476562 C 236.949219 491.191406 222.609375 481.375 214.351562 474.59375 L 207.726562 469.0625 L 32.011719 469.0625 L 32.011719 38.144531 L 263.441406 38.144531 L 263.441406 82.5625 C 263.441406 125.1875 263.519531 127.132812 265 130.015625 C 266.871094 133.757812 270.457031 136.796875 274.195312 137.886719 C 275.988281 138.355469 293.054688 138.667969 320.558594 138.667969 L 363.964844 138.667969 L 363.964844 262.410156 L 368.484375 262.953125 C 373.859375 263.578125 384.144531 265.914062 388.742188 267.550781 L 392.015625 268.722656 L 391.859375 193.367188 C 391.625 121.210938 391.546875 117.9375 390.144531 115.289062 C 388.121094 111.550781 290.402344 13.289062 286.507812 11.027344 L 283.46875 9.3125 L 153.648438 9.3125 C 46.503906 9.390625 23.28125 9.546875 20.867188 10.40625 Z M 318.300781 84.664062 L 343.15625 109.835938 L 292.273438 109.835938 L 292.273438 84.433594 C 292.273438 70.484375 292.507812 59.183594 292.898438 59.339844 C 293.210938 59.417969 304.664062 70.875 318.300781 84.664062 Z M 318.300781 84.664062 "/>
<path style=" stroke:none;fill-rule:nonzero;fill:rgb(0%,18.039216%,25.882354%);fill-opacity:1;" d="M 84.84375 110.613281 C 76.269531 113.1875 72.0625 121.523438 75.179688 129.707031 C 76.816406 133.835938 80.011719 136.71875 84.21875 137.886719 C 86.246094 138.433594 107.597656 138.667969 148.660156 138.511719 C 205.390625 138.277344 210.222656 138.199219 212.558594 136.953125 C 221.988281 131.730469 222.222656 117.785156 212.949219 112.328125 L 209.285156 110.226562 L 148.117188 110.070312 C 114.453125 109.992188 86.011719 110.226562 84.84375 110.613281 Z M 84.84375 110.613281 "/>
<path style=" stroke:none;fill-rule:nonzero;fill:rgb(0%,18.039216%,25.882354%);fill-opacity:1;" d="M 84.0625 190.097656 C 75.804688 192.589844 71.671875 202.5625 75.648438 210.355469 C 76.503906 212.070312 78.6875 214.410156 80.480469 215.578125 L 83.75 217.757812 L 309.105469 217.757812 L 311.910156 215.890625 C 321.652344 209.1875 320.558594 195.785156 309.808594 190.796875 C 306.847656 189.394531 302.171875 189.316406 196.429688 189.394531 C 135.804688 189.394531 85.230469 189.707031 84.0625 190.097656 Z M 84.0625 190.097656 "/>
<path style=" stroke:none;fill-rule:nonzero;fill:rgb(0%,18.039216%,25.882354%);fill-opacity:1;" d="M 84.0625 269.578125 C 78.453125 271.292969 74.089844 277.292969 74.089844 283.292969 C 74.167969 289.292969 78.84375 295.992188 84.0625 297.472656 C 86.867188 298.175781 216.453125 298.175781 219.183594 297.398438 C 222.144531 296.617188 226.820312 292.332031 228.066406 289.292969 C 230.792969 282.902344 228.453125 275.109375 222.765625 271.371094 L 219.492188 269.1875 L 152.871094 269.03125 C 116.167969 268.953125 85.230469 269.1875 84.0625 269.578125 Z M 84.0625 269.578125 "/>
<path style=" stroke:none;fill-rule:nonzero;fill:rgb(0%,18.039216%,25.882354%);fill-opacity:1;" d="M 326.949219 282.125 C 285.105469 286.644531 240.921875 310.722656 200.636719 351.007812 C 169.777344 381.867188 167.363281 391.058594 184.273438 413.734375 C 197.910156 432.046875 220.820312 453.007812 243.804688 468.28125 C 266.402344 483.398438 290.402344 493.296875 315.652344 498.050781 C 327.417969 500.308594 350.871094 500.464844 362.792969 498.4375 C 396.769531 492.59375 429.261719 477.085938 461.445312 451.375 C 481.003906 435.710938 499.316406 415.527344 506.328125 401.8125 C 508.824219 396.984375 509.210938 395.503906 509.289062 390.75 C 509.289062 386.152344 508.902344 384.515625 506.796875 380.230469 C 503.132812 372.828125 492.769531 360.359375 479.523438 347.421875 C 442.511719 311.5 402.300781 288.902344 365.132812 283.214844 C 355.234375 281.65625 335.988281 281.109375 326.949219 282.125 Z M 354.300781 312.515625 C 389.054688 315.863281 418.976562 330.980469 454.277344 363.085938 C 463.082031 371.113281 476.71875 385.761719 478.589844 389.269531 C 479.445312 390.90625 479.210938 391.527344 476.796875 395.191406 C 467.601562 408.984375 440.25 433.683594 420.847656 445.761719 C 405.105469 455.503906 384.613281 463.839844 367.082031 467.582031 C 355.859375 469.996094 328.820312 470.230469 316.820312 467.972656 C 285.496094 462.203125 254.480469 444.046875 222.609375 412.957031 C 213.183594 403.761719 203.441406 392.695312 203.441406 391.136719 C 203.441406 389.65625 215.285156 376.332031 224.949219 366.980469 C 266.792969 326.382812 310.039062 308.148438 354.300781 312.515625 Z M 354.300781 312.515625 "/>
<path style=" stroke:none;fill-rule:nonzero;fill:rgb(0%,18.039216%,25.882354%);fill-opacity:1;" d="M 332.636719 336.59375 C 305.597656 341.5 287.132812 361.683594 285.496094 387.867188 C 284.871094 398.074219 286.585938 406.332031 291.183594 415.996094 C 294.222656 422.152344 295.859375 424.410156 301.46875 430.023438 C 308.949219 437.425781 314.328125 440.929688 322.429688 443.738281 C 342.613281 450.75 363.964844 446.464844 379.238281 432.28125 C 386.875 425.113281 391.9375 417.476562 394.820312 408.59375 C 396.925781 402.203125 397.082031 400.722656 397.082031 390.75 C 397.003906 381.007812 396.769531 379.136719 394.898438 373.527344 C 389.289062 356.617188 374.015625 342.359375 356.5625 337.761719 C 350.949219 336.28125 337.703125 335.65625 332.636719 336.59375 Z M 353.210938 367.136719 C 358.585938 369.632812 363.730469 374.617188 366.300781 379.839844 C 367.9375 383.191406 368.25 384.828125 368.25 391.527344 C 368.25 398.542969 368.015625 399.710938 366.066406 403.449219 C 361.625 411.867188 355.3125 416.699219 346.351562 418.410156 C 328.820312 421.839844 311.988281 404.464844 315.730469 386.617188 C 317.753906 376.566406 323.675781 369.554688 333.027344 366.125 C 338.714844 364.019531 347.210938 364.410156 353.210938 367.136719 Z M 353.210938 367.136719 "/>
</g>
</svg>
