<svg fill="none" stroke-linecap="square" stroke-miterlimit="10" viewBox="0 0 424.38582677 334.96850394" xmlns="http://www.w3.org/2000/svg" xmlns:xlink="http://www.w3.org/1999/xlink"><clipPath id="a"><path d="m0 0h424.38583v334.9685h-424.38583z"/></clipPath><g clip-path="url(#a)"><path d="m0 0h424.38583v334.9685h-424.38583z" fill="none"/><path d="m184.82677 1.9212599h236.31496v328.8504h-236.31496z" fill="#f4cccc" fill-rule="evenodd"/><path d="m184.82677 1.9212599h236.31496v328.8504h-236.31496z" fill-rule="evenodd" stroke="#000" stroke-linecap="butt" stroke-linejoin="round"/><path d="m204.02989 304.33228h1.765625v7.71875q0 2.015625-.453125 3.203125-.453125 1.1875-1.640625 1.9375-1.1875.734375-3.125.734375-1.875 0-3.078125-.640625-1.1875-.65625-1.703125-1.875-.5-1.234375-.5-3.359375v-7.71875h1.765625v7.71875q0 1.734375.3125 2.5625.328125.8125 1.109375 1.265625.796875.453125 1.9375.453125 1.953125 0 2.78125-.890625.828125-.890625.828125-3.390625zm3.8479462 10.46875 1.625-.25q.125.96875.75 1.5.625.515625 1.75.515625 1.125 0 1.671875-.453125.546875-.46875.546875-1.09375 0-.546875-.484375-.875-.328125-.21875-1.671875-.546875-1.8125-.46875-2.515625-.796875-.6875-.328125-1.046875-.90625-.359375-.59375-.359375-1.3125 0-.640625.296875-1.1875.296875-.5625.8125-.921875.375-.28125 1.03125-.46875.671875-.203125 1.421875-.203125 1.140625 0 2 .328125.859375.328125 1.265625.890625.421875.5625.578125 1.5l-1.609375.21875q-.109375-.75-.640625-1.171875-.515625-.421875-1.46875-.421875-1.140625 0-1.625.375-.46875.375-.46875.875 0 .3125.1875.578125.203125.265625.640625.4375.234375.09375 1.4375.421875 1.75.453125 2.4375.75.6875.296875 1.078125.859375.390625.5625.390625 1.40625 0 .828125-.484375 1.546875-.46875.71875-1.375 1.125-.90625.390625-2.046875.390625-1.875 0-2.875-.78125-.984375-.78125-1.25-2.328125zm16.609375-.21875 1.6875.203125q-.40625 1.484375-1.484375 2.3125-1.078125.8125-2.765625.8125-2.125 0-3.375-1.296875-1.234375-1.3125-1.234375-3.671875 0-2.453125 1.25-3.796875 1.265625-1.34375 3.265625-1.34375 1.9375 0 3.15625 1.328125 1.234375 1.3125 1.234375 3.703125 0 .15625 0 .4375h-7.21875q.09375 1.59375.90625 2.453125.8125.84375 2.015625.84375.90625 0 1.546875-.46875.640625-.484375 1.015625-1.515625zm-5.390625-2.65625h5.40625q-.109375-1.21875-.625-1.828125-.78125-.953125-2.03125-.953125-1.125 0-1.90625.765625-.765625.75-.84375 2.015625zm9.125717 5.765625v-9.671875h1.46875v1.46875q.5625-1.03125 1.03125-1.359375.484375-.328125 1.0625-.328125.828125 0 1.6875.53125l-.5625 1.515625q-.609375-.359375-1.203125-.359375-.546875 0-.96875.328125-.421875.328125-.609375.890625-.28125.875-.28125 1.921875v5.0625zm10.755356-2.890625 1.625-.25q.125.96875.75 1.5.625.515625 1.75.515625 1.125 0 1.671875-.453125.546875-.46875.546875-1.09375 0-.546875-.484375-.875-.328125-.21875-1.671875-.546875-1.8125-.46875-2.515625-.796875-.6875-.328125-1.046875-.90625-.359375-.59375-.359375-1.3125 0-.640625.296875-1.1875.296875-.5625.8125-.921875.375-.28125 1.03125-.46875.671875-.203125 1.421875-.203125 1.140625 0 2 .328125.859375.328125 1.265625.890625.421875.5625.578125 1.5l-1.609375.21875q-.109375-.75-.640625-1.171875-.515625-.421875-1.46875-.421875-1.140625 0-1.625.375-.46875.375-.46875.875 0 .3125.1875.578125.203125.265625.640625.4375.234375.09375 1.4375.421875 1.75.453125 2.4375.75.6875.296875 1.078125.859375.390625.5625.390625 1.40625 0 .828125-.484375 1.546875-.46875.71875-1.375 1.125-.90625.390625-2.046875.390625-1.875 0-2.875-.78125-.984375-.78125-1.25-2.328125zm9.984375 6.59375v-13.375h1.484375v1.25q.53125-.734375 1.1875-1.09375.671875-.375 1.625-.375 1.234375 0 2.171875.640625.953125.625 1.4375 1.796875.484375 1.15625.484375 2.546875 0 1.484375-.53125 2.671875-.53125 1.1875-1.546875 1.828125-1.015625.625-2.140625.625-.8125 0-1.46875-.34375-.65625-.34375-1.0625-.875v4.703125zm1.484375-8.484375q0 1.859375.75 2.765625.765625.890625 1.828125.890625 1.09375 0 1.875-.921875.78125-.9375.78125-2.875 0-1.84375-.765625-2.765625-.75-.921875-1.8125-.921875-1.046875 0-1.859375.984375-.796875.96875-.796875 2.84375zm15.203857 3.59375q-.921875.765625-1.765625 1.09375-.828125.3125-1.796875.3125-1.59375 0-2.453125-.78125-.859375-.78125-.859375-1.984375 0-.71875.328125-1.296875.328125-.59375.84375-.9375.53125-.359375 1.1875-.546875.46875-.125 1.453125-.25 1.984375-.234375 2.921875-.5625.015625-.34375.015625-.421875 0-1-.46875-1.421875-.625-.546875-1.875-.546875-1.15625 0-1.703125.40625-.546875.40625-.8125 1.421875l-1.609375-.21875q.21875-1.015625.71875-1.640625.5-.640625 1.453125-.984375.953125-.34375 2.1875-.34375 1.25 0 2.015625.296875.78125.28125 1.140625.734375.375.4375.515625 1.109375.078125.421875.078125 1.515625v2.1875q0 2.28125.109375 2.890625.109375.59375.40625 1.15625h-1.703125q-.265625-.515625-.328125-1.1875zm-.140625-3.671875q-.890625.375-2.671875.625-1.015625.140625-1.4375.328125-.421875.1875-.65625.53125-.21875.34375-.21875.78125 0 .65625.5 1.09375.5.4375 1.453125.4375.9375 0 1.671875-.40625.75-.421875 1.09375-1.140625.265625-.5625.265625-1.640625zm10.516327 1.3125 1.609375.21875q-.265625 1.65625-1.359375 2.609375-1.078125.9375-2.671875.9375-1.984375 0-3.1875-1.296875-1.203125-1.296875-1.203125-3.71875 0-1.578125.515625-2.75.515625-1.171875 1.578125-1.75 1.0625-.59375 2.3125-.59375 1.578125 0 2.578125.796875 1 .796875 1.28125 2.265625l-1.59375.234375q-.234375-.96875-.8125-1.453125-.578125-.5-1.390625-.5-1.234375 0-2.015625.890625-.78125.890625-.78125 2.8125 0 1.953125.75 2.84375.75.875 1.953125.875.96875 0 1.609375-.59375.65625-.59375.828125-1.828125zm9.640625.4375 1.6875.203125q-.40625 1.484375-1.484375 2.3125-1.078125.8125-2.765625.8125-2.125 0-3.375-1.296875-1.234375-1.3125-1.234375-3.671875 0-2.453125 1.25-3.796875 1.265625-1.34375 3.265625-1.34375 1.9375 0 3.15625 1.328125 1.234375 1.3125 1.234375 3.703125 0 .15625 0 .4375h-7.21875q.09375 1.59375.90625 2.453125.8125.84375 2.015625.84375.90625 0 1.546875-.46875.640625-.484375 1.015625-1.515625zm-5.390625-2.65625h5.40625q-.109375-1.21875-.625-1.828125-.78125-.953125-2.03125-.953125-1.125 0-1.90625.765625-.765625.75-.84375 2.015625z" fill="#000"/><path d="m5.992126 1.9343832h166.80315v328.8504h-166.80315z" fill="#ea9999" fill-rule="evenodd"/><path d="m5.992126 1.9343832h166.80315v328.8504h-166.80315z" fill-rule="evenodd" stroke="#000" stroke-linecap="butt" stroke-linejoin="round"/><path d="m16.351501 317.70477v-13.359375h1.78125v11.78125h6.5625v1.578125zm10.250717-11.46875v-1.890625h1.640625v1.890625zm0 11.46875v-9.671875h1.640625v9.671875zm4.144821 0v-9.671875h1.46875v1.375q1.0625-1.59375 3.078125-1.59375.875 0 1.609375.3125.734375.3125 1.09375.828125.375.5.515625 1.203125.09375.453125.09375 1.59375v5.953125h-1.640625v-5.890625q0-1-.203125-1.484375-.1875-.5-.671875-.796875-.484375-.296875-1.140625-.296875-1.046875 0-1.8125.671875-.75.65625-.75 2.515625v5.28125zm16.703842 0v-1.421875q-1.125 1.640625-3.0625 1.640625-.859375 0-1.609375-.328125-.734375-.328125-1.09375-.828125-.359375-.5-.5-1.21875-.109375-.46875-.109375-1.53125v-5.984375h1.640625v5.359375q0 1.28125.109375 1.734375.15625.640625.65625 1.015625.5.375 1.234375.375.734375 0 1.375-.375.65625-.390625.921875-1.03125.265625-.65625.265625-1.890625v-5.1875h1.640625v9.671875zm2.9538422 0 3.53125-5.03125-3.265625-4.640625h2.046875l1.484375 2.265625q.421875.640625.671875 1.078125.40625-.59375.734375-1.0625l1.640625-2.28125h1.953125l-3.34375 4.546875 3.59375 5.125h-2.015625l-1.984375-3-.515625-.8125-2.546875 3.8125zm15.730179 0v-13.359375h1.78125v6.625l6.625-6.625h2.390625l-5.59375 5.421875 5.84375 7.9375h-2.328125l-4.765625-6.765625-2.171875 2.140625v4.625zm18.943573-3.109375 1.6875.203125q-.40625 1.484375-1.484375 2.3125-1.078125.8125-2.765625.8125-2.125 0-3.375-1.296875-1.234375-1.3125-1.234375-3.671875 0-2.453125 1.25-3.796875 1.265625-1.34375 3.265625-1.34375 1.9375 0 3.15625 1.328125 1.234375 1.3125 1.234375 3.703125 0 .15625 0 .4375h-7.21875q.09375 1.59375.90625 2.453125.8125.84375 2.015625.84375.90625 0 1.546875-.46875.640625-.484375 1.015625-1.515625zm-5.390625-2.65625h5.40625q-.109375-1.21875-.625-1.828125-.78125-.953125-2.03125-.953125-1.125 0-1.90625.765625-.765625.75-.84375 2.015625zm9.125717 5.765625v-9.671875h1.46875v1.46875q.5625-1.03125 1.03125-1.359375.484375-.328125 1.0625-.328125.828125 0 1.6875.53125l-.5625 1.515625q-.609375-.359375-1.203125-.359375-.546875 0-.96875.328125-.421875.328125-.609375.890625-.28125.875-.28125 1.921875v5.0625zm6.228302 0v-9.671875h1.46875v1.375q1.0625-1.59375 3.078125-1.59375.875 0 1.609375.3125.734375.3125 1.09375.828125.375.5.515625 1.203125.09375.453125.09375 1.59375v5.953125h-1.640625v-5.890625q0-1-.203125-1.484375-.1875-.5-.671875-.796875-.484375-.296875-1.140625-.296875-1.046875 0-1.8125.671875-.75.65625-.75 2.515625v5.28125zm17.000717-3.109375 1.6875.203125q-.40625 1.484375-1.484375 2.3125-1.078125.8125-2.765625.8125-2.125 0-3.375-1.296875-1.234375-1.3125-1.234375-3.671875 0-2.453125 1.25-3.796875 1.265625-1.34375 3.265625-1.34375 1.9375 0 3.15625 1.328125 1.234375 1.3125 1.234375 3.703125 0 .15625 0 .4375h-7.21875q.09375 1.59375.90625 2.453125.8125.84375 2.015625.84375.90625 0 1.546875-.46875.640625-.484375 1.015625-1.515625zm-5.390625-2.65625h5.40625q-.109375-1.21875-.625-1.828125-.78125-.953125-2.03125-.953125-1.125 0-1.90625.765625-.765625.75-.84375 2.015625zm9.094467 5.765625v-13.359375h1.640625v13.359375z" fill="#000"/><path d="m288.62466 225.58005h113.03937v50.04724h-113.03937z" fill="#ccc" fill-rule="evenodd"/><path d="m288.62466 225.58005h113.03937v50.04724h-113.03937z" fill-rule="evenodd" stroke="#000" stroke-linecap="butt" stroke-linejoin="round"/><path d="m294.51733 246.52367v-13.359375h1.765625v13.359375zm4.683319 0v-9.671875h1.46875v1.375q1.0625-1.59375 3.078125-1.59375.875 0 1.609375.3125.734375.3125 1.09375.828125.375.5.515625 1.203125.09375.453125.09375 1.59375v5.953125h-1.640625v-5.890625q0-1-.203125-1.484375-.1875-.5-.671875-.796875-.484375-.296875-1.140625-.296875-1.046875 0-1.8125.671875-.75.65625-.75 2.515625v5.28125zm9.719452-2.890625 1.625-.25q.125.96875.75 1.5.625.515625 1.75.515625 1.125 0 1.671875-.453125.546875-.46875.546875-1.09375 0-.546875-.484375-.875-.328125-.21875-1.671875-.546875-1.8125-.46875-2.515625-.796875-.6875-.328125-1.046875-.90625-.359375-.59375-.359375-1.3125 0-.640625.296875-1.1875.296875-.5625.8125-.921875.375-.28125 1.03125-.46875.671875-.203125 1.421875-.203125 1.140625 0 2 .328125.859375.328125 1.265625.890625.421875.5625.578125 1.5l-1.609375.21875q-.109375-.75-.640625-1.171875-.515625-.421875-1.46875-.421875-1.140625 0-1.625.375-.46875.375-.46875.875 0 .3125.1875.578125.203125.265625.640625.4375.234375.09375 1.4375.421875 1.75.453125 2.4375.75.6875.296875 1.078125.859375.390625.5625.390625 1.40625 0 .828125-.484375 1.546875-.46875.71875-1.375 1.125-.90625.390625-2.046875.390625-1.875 0-2.875-.78125-.984375-.78125-1.25-2.328125zm13.5625 1.421875.234375 1.453125q-.6875.140625-1.234375.140625-.890625 0-1.390625-.28125-.484375-.28125-.6875-.734375-.203125-.46875-.203125-1.9375v-5.578125h-1.203125v-1.265625h1.203125v-2.390625l1.625-.984375v3.375h1.65625v1.265625h-1.65625v5.671875q0 .6875.078125.890625.09375.203125.28125.328125.203125.109375.578125.109375.265625 0 .71875-.0625zm1.5895691 1.46875v-9.671875h1.46875v1.46875q.5625-1.03125 1.03125-1.359375.484375-.328125 1.0625-.328125.828125 0 1.6875.53125l-.5625 1.515625q-.609375-.359375-1.203125-.359375-.546875 0-.96875.328125-.421875.328125-.609375.890625-.28125.875-.28125 1.921875v5.0625zm12.556427 0v-1.421875q-1.125 1.640625-3.0625 1.640625-.859375 0-1.609375-.328125-.734375-.328125-1.09375-.828125-.359375-.5-.5-1.21875-.109375-.46875-.109375-1.53125v-5.984375h1.640625v5.359375q0 1.28125.109375 1.734375.15625.640625.65625 1.015625.5.375 1.234375.375.734375 0 1.375-.375.65625-.390625.921875-1.03125.265625-.65625.265625-1.890625v-5.1875h1.640625v9.671875zm4.047577 0v-9.671875h1.46875v1.359375q.453125-.71875 1.203125-1.140625.765625-.4375 1.71875-.4375 1.078125 0 1.765625.453125.6875.4375.96875 1.234375 1.15625-1.6875 2.984375-1.6875 1.453125 0 2.21875.796875.78125.796875.78125 2.453125v6.640625h-1.640625v-6.09375q0-.984375-.15625-1.40625-.15625-.4375-.578125-.703125-.421875-.265625-.984375-.265625-1.015625 0-1.6875.6875-.671875.671875-.671875 2.15625v5.625h-1.640625v-6.28125q0-1.09375-.40625-1.640625-.40625-.546875-1.3125-.546875-.6875 0-1.28125.359375-.59375.359375-.859375 1.0625-.25.703125-.25 2.03125v5.015625zm22.165802-3.109375 1.6875.203125q-.40625 1.484375-1.484375 2.3125-1.078125.8125-2.765625.8125-2.125 0-3.375-1.296875-1.234375-1.3125-1.234375-3.671875 0-2.453125 1.25-3.796875 1.265625-1.34375 3.265625-1.34375 1.9375 0 3.15625 1.328125 1.234375 1.3125 1.234375 3.703125 0 .15625 0 .4375h-7.21875q.09375 1.59375.90625 2.453125.8125.84375 2.015625.84375.90625 0 1.546875-.46875.640625-.484375 1.015625-1.515625zm-5.390625-2.65625h5.40625q-.109375-1.21875-.625-1.828125-.78125-.953125-2.03125-.953125-1.125 0-1.90625.765625-.765625.75-.84375 2.015625zm9.141357 5.765625v-9.671875h1.46875v1.375q1.0625-1.59375 3.078125-1.59375.875 0 1.609375.3125.734375.3125 1.09375.828125.375.5.515625 1.203125.09375.453125.09375 1.59375v5.953125h-1.640625v-5.890625q0-1-.203125-1.484375-.1875-.5-.671875-.796875-.484375-.296875-1.140625-.296875-1.046875 0-1.8125.671875-.75.65625-.75 2.515625v5.28125zm13.953827-1.46875.234375 1.453125q-.6875.140625-1.234375.140625-.890625 0-1.390625-.28125-.484375-.28125-.6875-.734375-.203125-.46875-.203125-1.9375v-5.578125h-1.203125v-1.265625h1.203125v-2.390625l1.625-.984375v3.375h1.65625v1.265625h-1.65625v5.671875q0 .6875.078125.890625.09375.203125.28125.328125.203125.109375.578125.109375.265625 0 .71875-.0625zm8.230194-1.640625 1.6875.203125q-.40625 1.484375-1.484375 2.3125-1.078125.8125-2.765625.8125-2.125 0-3.375-1.296875-1.234375-1.3125-1.234375-3.671875 0-2.453125 1.25-3.796875 1.265625-1.34375 3.265625-1.34375 1.9375 0 3.15625 1.328125 1.234375 1.3125 1.234375 3.703125 0 .15625 0 .4375h-7.21875q.09375 1.59375.90625 2.453125.8125.84375 2.015625.84375.90625 0 1.546875-.46875.640625-.484375 1.015625-1.515625zm-5.390625-2.65625h5.40625q-.109375-1.21875-.625-1.828125-.78125-.953125-2.03125-.953125-1.125 0-1.90625.765625-.765625.75-.84375 2.015625zm9.125702 5.765625v-9.671875h1.46875v1.46875q.5625-1.03125 1.03125-1.359375.484375-.328125 1.0625-.328125.828125 0 1.6875.53125l-.5625 1.515625q-.609375-.359375-1.203125-.359375-.546875 0-.96875.328125-.421875.328125-.609375.890625-.28125.875-.28125 1.921875v5.0625z" fill="#000"/><path d="m313.7166 272.2268v-13.375h1.484375v1.25q.53125-.734375 1.1875-1.09375.671875-.375 1.625-.375 1.234375 0 2.171875.640625.953125.625 1.4375 1.796875.484375 1.15625.484375 2.546875 0 1.484375-.53125 2.671875-.53125 1.1875-1.546875 1.828125-1.015625.625-2.140625.625-.8125 0-1.46875-.34375-.65625-.34375-1.0625-.875v4.703125zm1.484375-8.484375q0 1.859375.75 2.765625.765625.890625 1.828125.890625 1.09375 0 1.875-.921875.78125-.9375.78125-2.875 0-1.84375-.765625-2.765625-.75-.921875-1.8125-.921875-1.046875 0-1.859375.984375-.796875.96875-.796875 2.84375zm8.875732 4.78125v-9.671875h1.46875v1.46875q.5625-1.03125 1.03125-1.359375.484375-.328125 1.0625-.328125.828125 0 1.6875.53125l-.5625 1.515625q-.609375-.359375-1.203125-.359375-.546875 0-.96875.328125-.421875.328125-.609375.890625-.28125.875-.28125 1.921875v5.0625zm5.618927-4.84375q0-2.6875 1.484375-3.96875 1.25-1.078125 3.046875-1.078125 2 0 3.265625 1.3125 1.265625 1.296875 1.265625 3.609375 0 1.859375-.5625 2.9375-.5625 1.0625-1.640625 1.65625-1.0625.59375-2.328125.59375-2.03125 0-3.28125-1.296875-1.25-1.3125-1.25-3.765625zm1.6875 0q0 1.859375.796875 2.796875.8125.921875 2.046875.921875 1.21875 0 2.03125-.921875.8125-.9375.8125-2.84375 0-1.796875-.8125-2.71875-.8125-.921875-2.03125-.921875-1.234375 0-2.046875.921875-.796875.90625-.796875 2.765625zm15.610077 1.296875 1.609375.21875q-.265625 1.65625-1.359375 2.609375-1.078125.9375-2.671875.9375-1.984375 0-3.1875-1.296875-1.203125-1.296875-1.203125-3.71875 0-1.578125.515625-2.75.515625-1.171875 1.578125-1.75 1.0625-.59375 2.3125-.59375 1.578125 0 2.578125.796875 1 .796875 1.28125 2.265625l-1.59375.234375q-.234375-.96875-.8125-1.453125-.578125-.5-1.390625-.5-1.234375 0-2.015625.890625-.78125.890625-.78125 2.8125 0 1.953125.75 2.84375.75.875 1.953125.875.96875 0 1.609375-.59375.65625-.59375.828125-1.828125zm9.640625.4375 1.6875.203125q-.40625 1.484375-1.484375 2.3125-1.078125.8125-2.765625.8125-2.125 0-3.375-1.296875-1.234375-1.3125-1.234375-3.671875 0-2.453125 1.25-3.796875 1.265625-1.34375 3.265625-1.34375 1.9375 0 3.15625 1.328125 1.234375 1.3125 1.234375 3.703125 0 .15625 0 .4375h-7.21875q.09375 1.59375.90625 2.453125.8125.84375 2.015625.84375.90625 0 1.546875-.46875.640625-.484375 1.015625-1.515625zm-5.390625-2.65625h5.40625q-.109375-1.21875-.625-1.828125-.78125-.953125-2.03125-.953125-1.125 0-1.90625.765625-.765625.75-.84375 2.015625zm8.485107 2.875 1.625-.25q.125.96875.75 1.5.625.515625 1.75.515625 1.125 0 1.671875-.453125.546875-.46875.546875-1.09375 0-.546875-.484375-.875-.328125-.21875-1.671875-.546875-1.8125-.46875-2.515625-.796875-.6875-.328125-1.046875-.90625-.359375-.59375-.359375-1.3125 0-.640625.296875-1.1875.296875-.5625.8125-.921875.375-.28125 1.03125-.46875.671875-.203125 1.421875-.203125 1.140625 0 2 .328125.859375.328125 1.265625.890625.421875.5625.578125 1.5l-1.609375.21875q-.109375-.75-.640625-1.171875-.515625-.421875-1.46875-.421875-1.140625 0-1.625.375-.46875.375-.46875.875 0 .3125.1875.578125.203125.265625.640625.4375.234375.09375 1.4375.421875 1.75.453125 2.4375.75.6875.296875 1.078125.859375.390625.5625.390625 1.40625 0 .828125-.484375 1.546875-.46875.71875-1.375 1.125-.90625.390625-2.046875.390625-1.875 0-2.875-.78125-.984375-.78125-1.25-2.328125zm9.328125 0 1.625-.25q.125.96875.75 1.5.625.515625 1.75.515625 1.125 0 1.671875-.453125.546875-.46875.546875-1.09375 0-.546875-.484375-.875-.328125-.21875-1.671875-.546875-1.8125-.46875-2.515625-.796875-.6875-.328125-1.046875-.90625-.359375-.59375-.359375-1.3125 0-.640625.296875-1.1875.296875-.5625.8125-.921875.375-.28125 1.03125-.46875.671875-.203125 1.421875-.203125 1.140625 0 2 .328125.859375.328125 1.265625.890625.421875.5625.578125 1.5l-1.609375.21875q-.109375-.75-.640625-1.171875-.515625-.421875-1.46875-.421875-1.140625 0-1.625.375-.46875.375-.46875.875 0 .3125.1875.578125.203125.265625.640625.4375.234375.09375 1.4375.421875 1.75.453125 2.4375.75.6875.296875 1.078125.859375.390625.5625.390625 1.40625 0 .828125-.484375 1.546875-.46875.71875-1.375 1.125-.90625.390625-2.046875.390625-1.875 0-2.875-.78125-.984375-.78125-1.25-2.328125z" fill="#000"/><path d="m21.065617 112.52493h113.03937v50.04724h-113.03937z" fill="#ccc" fill-rule="evenodd"/><path d="m21.065617 112.52493h113.03937v50.04724h-113.03937z" fill-rule="evenodd" stroke="#000" stroke-linecap="butt" stroke-linejoin="round"/><path d="m62.115253 130.35918 1.6875.203125q-.40625 1.484375-1.484375 2.3125-1.078125.8125-2.765625.8125-2.125 0-3.375-1.296875-1.234375-1.3125-1.234375-3.671875 0-2.453125 1.25-3.796875 1.265625-1.34375 3.265625-1.34375 1.9375 0 3.15625 1.328125 1.234375 1.3125 1.234375 3.703125 0 .15625 0 .4375h-7.21875q.09375 1.59375.90625 2.453125.8125.84375 2.015625.84375.90625 0 1.546875-.46875.640625-.484375 1.015625-1.515625zm-5.390625-2.65625h5.40625q-.109375-1.21875-.625-1.828125-.78125-.953125-2.03125-.953125-1.125 0-1.90625.765625-.765625.75-.84375 2.015625zm9.266346 5.765625v-13.359375h5.015625q1.53125 0 2.453125.40625.921875.40625 1.4375 1.25.53125.84375.53125 1.765625 0 .859375-.46875 1.625-.453125.75-1.390625 1.203125 1.203125.359375 1.859375 1.21875.65625.859375.65625 2.015625 0 .9375-.40625 1.75-.390625.796875-.984375 1.234375-.578125.4375-1.453125.671875-.875.21875-2.15625.21875zm1.78125-7.75h2.875q1.1875 0 1.6875-.140625.671875-.203125 1.015625-.671875.34375-.46875.34375-1.171875 0-.65625-.328125-1.15625-.3125-.515625-.90625-.703125-.59375-.1875-2.03125-.1875h-2.65625zm0 6.171875h3.3125q.859375 0 1.203125-.0625.609375-.109375 1.015625-.359375.421875-.265625.6875-.75.265625-.484375.265625-1.125 0-.75-.390625-1.296875-.375-.546875-1.0625-.765625-.671875-.234375-1.953125-.234375h-3.078125zm10.740448 1.578125v-13.359375h5.046875q1.328125 0 2.03125.125.96875.171875 1.640625.640625.671875.453125 1.078125 1.28125.40625.828125.40625 1.828125 0 1.703125-1.09375 2.890625-1.078125 1.171875-3.921875 1.171875h-3.421875v5.421875zm1.765625-7h3.453125q1.71875 0 2.4375-.640625.71875-.640625.71875-1.796875 0-.84375-.421875-1.4375-.421875-.59375-1.125-.78125-.4375-.125-1.640625-.125h-3.421875zm10.771698 7v-13.359375h9.015625v1.578125h-7.25v4.140625h6.265625v1.578125h-6.265625v6.0625z" fill="#000"/><path d="m44.085163 159.17168v-13.375h1.484375v1.25q.53125-.734375 1.1875-1.09375.671875-.375 1.625-.375 1.234375 0 2.171875.640625.953125.625 1.4375 1.796875.484375 1.15625.484375 2.546875 0 1.484375-.53125 2.671875-.53125 1.1875-1.546875 1.828125-1.015625.625-2.140625.625-.8125 0-1.46875-.34375-.65625-.34375-1.0625-.875v4.703125zm1.484375-8.484375q0 1.859375.75 2.765625.765625.890625 1.828125.890625 1.09375 0 1.875-.921875.78125-.9375.78125-2.875 0-1.84375-.765625-2.765625-.75-.921875-1.8125-.921875-1.046875 0-1.859375.984375-.796875.96875-.796875 2.84375zm8.875717 4.78125v-9.671875h1.46875v1.46875q.5625-1.03125 1.03125-1.359375.484375-.328125 1.0625-.328125.828125 0 1.6875.53125l-.5625 1.515625q-.609375-.359375-1.203125-.359375-.546875 0-.96875.328125-.421875.328125-.609375.890625-.28125.875-.28125 1.921875v5.0625zm5.618927-4.84375q0-2.6875 1.484375-3.96875 1.25-1.078125 3.0468788-1.078125 2 0 3.265625 1.3125 1.265625 1.296875 1.265625 3.609375 0 1.859375-.5625 2.9375-.5625 1.0625-1.640625 1.65625-1.0625.59375-2.328125.59375-2.0312538 0-3.2812538-1.296875-1.25-1.3125-1.25-3.765625zm1.6875 0q0 1.859375.796875 2.796875.8125.921875 2.0468788.921875 1.21875 0 2.03125-.921875.8125-.9375.8125-2.84375 0-1.796875-.8125-2.71875-.8125-.921875-2.03125-.921875-1.2343788 0-2.0468788.921875-.796875.90625-.796875 2.765625zm8.985096 5.640625 1.59375.234375q.109375.75.5625 1.078125.609375.453125 1.671875.453125 1.140625 0 1.75-.453125.625-.453125.84375-1.265625.125-.5.109375-2.109375-1.0625 1.265625-2.671875 1.265625-2 0-3.09375-1.4375-1.09375-1.4375-1.09375-3.453125 0-1.390625.5-2.5625.515625-1.171875 1.453125-1.796875.953125-.640625 2.25-.640625 1.703125 0 2.8125 1.375v-1.15625h1.515625v8.359375q0 2.265625-.46875 3.203125-.453125.9375-1.453125 1.484375-.984375.546875-2.453125.546875-1.71875 0-2.796875-.78125-1.0625-.765625-1.03125-2.34375zm1.359375-5.8125q0 1.90625.75 2.78125.765625.875 1.90625.875 1.125 0 1.890625-.859375.765625-.875.765625-2.734375 0-1.78125-.796875-2.671875-.78125-.90625-1.890625-.90625-1.09375 0-1.859375.890625-.765625.875-.765625 2.625zm9.313217 5.015625v-9.671875h1.46875v1.46875q.5625-1.03125 1.03125-1.359375.484375-.328125 1.0625-.328125.828125 0 1.6875.53125l-.5625 1.515625q-.609375-.359375-1.203125-.359375-.546875 0-.96875.328125-.421875.328125-.609375.890625-.28125.875-.28125 1.921875v5.0625zm12.540802-1.1875q-.921875.765625-1.765625 1.09375-.828125.3125-1.796875.3125-1.59375 0-2.453125-.78125-.859375-.78125-.859375-1.984375 0-.71875.328125-1.296875.328125-.59375.84375-.9375.53125-.359375 1.1875-.546875.46875-.125 1.453125-.25 1.984375-.234375 2.921875-.5625.015625-.34375.015625-.421875 0-1-.46875-1.421875-.625-.546875-1.875-.546875-1.15625 0-1.703125.40625-.546875.40625-.8125 1.421875l-1.609375-.21875q.21875-1.015625.71875-1.640625.5-.640625 1.453125-.984375.953125-.34375 2.1875-.34375 1.25 0 2.015625.296875.78125.28125 1.140625.734375.375.4375.515625 1.109375.078125.421875.078125 1.515625v2.1875q0 2.28125.109375 2.890625.109375.59375.40625 1.15625h-1.703125q-.265625-.515625-.328125-1.1875zm-.140625-3.671875q-.890625.375-2.671875.625-1.015625.140625-1.4375.328125-.421875.1875-.65625.53125-.21875.34375-.21875.78125 0 .65625.5 1.09375.5.4375 1.453125.4375.9375 0 1.671875-.40625.75-.421875 1.09375-1.140625.265625-.5625.265625-1.640625zm4.203842 4.859375v-9.671875h1.46875v1.359375q.453125-.71875 1.203125-1.140625.765625-.4375 1.71875-.4375 1.078125 0 1.765625.453125.6875.4375.96875 1.234375 1.15625-1.6875 2.984375-1.6875 1.453125 0 2.21875.796875.78125.796875.78125 2.453125v6.640625h-1.640625v-6.09375q0-.984375-.15625-1.40625-.15625-.4375-.578125-.703125-.421875-.265625-.984375-.265625-1.015625 0-1.6875.6875-.671875.671875-.671875 2.15625v5.625h-1.640625v-6.28125q0-1.09375-.40625-1.640625-.40625-.546875-1.3125-.546875-.6875 0-1.28125.359375-.59375.359375-.859375 1.0625-.25.703125-.25 2.03125v5.015625z" fill="#000"/><path d="m34.959053 219.24278c0-6.738312 18.25468-12.20079 40.772964-12.20079 22.518288 0 40.772972 5.4624786 40.772972 12.20079v48.803146c0 6.738312-18.254684 12.200775-40.772972 12.200775-22.518284 0-40.772964-5.4624634-40.772964-12.200775z" fill="#f3f3f3" fill-rule="evenodd"/><path d="m116.50499 219.24278c0 6.738312-18.254684 12.20079-40.772972 12.20079-22.518284 0-40.772964-5.4624786-40.772964-12.20079" fill="none"/><path d="m34.959053 219.24278c0-6.738312 18.25468-12.20079 40.772964-12.20079 22.518288 0 40.772972 5.4624786 40.772972 12.20079v48.803146c0 6.738312-18.254684 12.200775-40.772972 12.200775-22.518284 0-40.772964-5.4624634-40.772964-12.200775z" fill="none"/><path d="m116.50499 219.24278c0 6.738312-18.254684 12.20079-40.772972 12.20079-22.518284 0-40.772964-5.4624786-40.772964-12.20079" fill-rule="evenodd" stroke="#000" stroke-linecap="butt" stroke-linejoin="round"/><path d="m34.959053 219.24278c0-6.738312 18.25468-12.20079 40.772964-12.20079 22.518288 0 40.772972 5.4624786 40.772972 12.20079v48.803146c0 6.738312-18.254684 12.200775-40.772972 12.200775-22.518284 0-40.772964-5.4624634-40.772964-12.200775z" fill-rule="evenodd" stroke="#000" stroke-linecap="butt" stroke-linejoin="round"/><path d="m60.261974 242.55537 1.6875.203125q-.40625 1.484375-1.484375 2.3125-1.078125.8125-2.765625.8125-2.125 0-3.375-1.296875-1.234375-1.3125-1.234375-3.671875 0-2.453125 1.25-3.796875 1.265625-1.34375 3.265625-1.34375 1.9375 0 3.15625 1.328125 1.234375 1.3125 1.234375 3.703125 0 .15625 0 .4375h-7.21875q.09375 1.59375.90625 2.453125.8125.84375 2.015625.84375.90625 0 1.546875-.46875.640625-.484375 1.015625-1.515625zm-5.390625-2.65625h5.40625q-.109375-1.21875-.625-1.828125-.78125-.953125-2.03125-.953125-1.125 0-1.90625.765625-.765625.75-.84375 2.015625zm9.266338 5.765625v-13.359375h5.015625q1.53125 0 2.453125.40625.921875.40625 1.4375 1.25.53125.84375.53125 1.765625 0 .859375-.46875 1.625-.453125.75-1.390625 1.203125 1.203125.359375 1.859375 1.21875.65625.859375.65625 2.015625 0 .9375-.40625 1.75-.390625.796875-.984375 1.234375-.578125.4375-1.453125.671875-.875.21875-2.15625.21875zm1.78125-7.75h2.875q1.1875 0 1.6875-.140625.671875-.203125 1.015625-.671875.34375-.46875.34375-1.171875 0-.65625-.328125-1.15625-.3125-.515625-.90625-.703125-.59375-.1875-2.03125-.1875h-2.65625zm0 6.171875h3.3125q.859375 0 1.203125-.0625.609375-.109375 1.015625-.359375.421875-.265625.6875-.75.265625-.484375.265625-1.125 0-.75-.390625-1.296875-.375-.546875-1.0625-.765625-.671875-.234375-1.953125-.234375h-3.078125zm10.740448 1.578125v-13.359375h5.046875q1.328125 0 2.03125.125.96875.171875 1.640625.640625.671875.453125 1.078125 1.28125.40625.828125.40625 1.828125 0 1.703125-1.09375 2.890625-1.078125 1.171875-3.921875 1.171875h-3.421875v5.421875zm1.765625-7h3.453125q1.71875 0 2.4375-.640625.71875-.640625.71875-1.796875 0-.84375-.421875-1.4375-.421875-.59375-1.125-.78125-.4375-.125-1.640625-.125h-3.421875zm10.771698 7v-13.359375h9.015625v1.578125h-7.25v4.140625h6.265625v1.578125h-6.265625v6.0625z" fill="#000"/><path d="m58.82028 267.66476v-9.671875h1.46875v1.359375q.453125-.71875 1.203125-1.140625.765625-.4375 1.71875-.4375 1.0781212 0 1.7656212.453125.6875.4375.96875 1.234375 1.15625-1.6875 2.984375-1.6875 1.453125 0 2.21875.796875.78125.796875.78125 2.453125v6.640625h-1.640625v-6.09375q0-.984375-.15625-1.40625-.15625-.4375-.578125-.703125-.421875-.265625-.984375-.265625-1.015625 0-1.6875.6875-.671875.671875-.671875 2.15625v5.625h-1.640625v-6.28125q0-1.09375-.40625-1.640625-.4062462-.546875-1.3124962-.546875-.6875 0-1.28125.359375-.59375.359375-.859375 1.0625-.25.703125-.25 2.03125v5.015625zm21.853298-1.1875q-.921875.765625-1.765625 1.09375-.828125.3125-1.796875.3125-1.59375 0-2.453125-.78125-.859375-.78125-.859375-1.984375 0-.71875.328125-1.296875.328125-.59375.84375-.9375.53125-.359375 1.1875-.546875.46875-.125 1.453125-.25 1.984375-.234375 2.921875-.5625.015625-.34375.015625-.421875 0-1-.46875-1.421875-.625-.546875-1.875-.546875-1.15625 0-1.703125.40625-.546875.40625-.8125 1.421875l-1.609375-.21875q.21875-1.015625.71875-1.640625.5-.640625 1.453125-.984375.953125-.34375 2.1875-.34375 1.25 0 2.015625.296875.78125.28125 1.140625.734375.375.4375.515625 1.109375.078125.421875.078125 1.515625v2.1875q0 2.28125.109375 2.890625.109375.59375.40625 1.15625h-1.703125q-.265625-.515625-.328125-1.1875zm-.140625-3.671875q-.890625.375-2.671875.625-1.015625.140625-1.4375.328125-.421875.1875-.65625.53125-.21875.34375-.21875.78125 0 .65625.5 1.09375.5.4375 1.453125.4375.9375 0 1.671875-.40625.75-.421875 1.09375-1.140625.265625-.5625.265625-1.640625zm4.203842 8.5625v-13.375h1.484375v1.25q.53125-.734375 1.1875-1.09375.671875-.375 1.625-.375 1.234375 0 2.171875.640625.953125.625 1.4375 1.796875.484375 1.15625.484375 2.546875 0 1.484375-.53125 2.671875-.53125 1.1875-1.546875 1.828125-1.015625.625-2.140625.625-.8125 0-1.46875-.34375-.65625-.34375-1.0625-.875v4.703125zm1.484375-8.484375q0 1.859375.75 2.765625.765625.890625 1.828125.890625 1.09375 0 1.875-.921875.78125-.9375.78125-2.875 0-1.84375-.765625-2.765625-.75-.921875-1.8125-.921875-1.046875 0-1.859375.984375-.796875.96875-.796875 2.84375z" fill="#000"/><g fill-rule="evenodd"><path d="m59.737534 174.61145 17.133858-12.039276 17.133858 12.039276h-11.120728v20.39389h11.120728l-17.133858 12.039276-17.133858-12.039276h11.120728v-20.39389z" fill="#f3f3f3"/><path d="m59.737534 174.61145 17.133858-12.039276 17.133858 12.039276h-11.120728v20.39389h11.120728l-17.133858 12.039276-17.133858-12.039276h11.120728v-20.39389z" stroke="#000" stroke-linecap="butt" stroke-linejoin="round"/><path d="m116.50394 250.60367 14.8346405-14.8346405v7.417328h142.45671v-7.417328l14.834625 14.8346405-14.834625 14.834656v-7.417328h-142.45671v7.417328z" fill="#f3f3f3"/><path d="m116.50394 250.60367 14.8346405-14.8346405v7.417328h142.45671v-7.417328l14.834625 14.8346405-14.834625 14.834656v-7.417328h-142.45671v7.417328z" stroke="#000" stroke-linecap="butt" stroke-linejoin="round"/><path d="m351.6299 225.57217c0-48.866776-39.61435-88.48111-88.48111-88.48111h-114.82811v-8.810226l-14.202591 15.618179 14.202591 15.618179v-8.810211h114.82811c41.346893 0 74.865204 33.51828 74.865204 74.86519z" fill="#f3f3f3"/><path d="m351.6299 225.57217c0-48.866776-39.61435-88.48111-88.48111-88.48111h-114.82811v-8.810226l-14.202591 15.618179 14.202591 15.618179v-8.810211h114.82811c41.346893 0 74.865204 33.51828 74.865204 74.86519z" stroke="#000" stroke-linecap="butt" stroke-linejoin="round"/></g><path d="m286.96063 108.71916h113.03937v42.015747h-113.03937z" fill="none"/><path d="m304.72626 119.82666q4-.21875 6.671875 2.234375 2.890625 2.59375 3.046875 6.078125.21875 4.234375-2.59375 7.046875-2.453125 2.453125-5.71875 2.609375-4.234375.21875-7.046875-2.609375-2.671875-2.671875-2.671875-6.375 0-3.265625 2.078125-5.71875 2.515625-3.046875 6.234375-3.265625zm-2.53125 15.140625h7.046875v-1.03125q-1.328125.0625-1.78125-.375-.515625-.375-.515625-1.40625v-9.65625h-.734375q-1.484375 1.109375-4.015625 1.109375v1.046875h.890625q.671875 0 1.046875.296875.359375.296875.359375 1.1875v6.015625q0 .953125-.515625 1.40625-.4375.375-1.78125.375z" fill="#000"/><path d="m321.33142 135.63916v-13.359375h1.640625v13.359375zm3.5823364-4.84375q0-2.6875 1.484375-3.96875 1.25-1.078125 3.046875-1.078125 2 0 3.265625 1.3125 1.265625 1.296875 1.265625 3.609375 0 1.859375-.5625 2.9375-.5625 1.0625-1.640625 1.65625-1.0625.59375-2.328125.59375-2.03125 0-3.28125-1.296875-1.25-1.3125-1.25-3.765625zm1.6875 0q0 1.859375.796875 2.796875.8125.921875 2.046875.921875 1.21875 0 2.03125-.921875.8125-.9375.8125-2.84375 0-1.796875-.8125-2.71875-.8125-.921875-2.03125-.921875-1.234375 0-2.046875.921875-.796875.90625-.796875 2.765625zm15.610077 3.65625q-.921875.765625-1.765625 1.09375-.828125.3125-1.796875.3125-1.59375 0-2.453125-.78125-.859375-.78125-.859375-1.984375 0-.71875.328125-1.296875.328125-.59375.84375-.9375.53125-.359375 1.1875-.546875.46875-.125 1.453125-.25 1.984375-.234375 2.921875-.5625.015625-.34375.015625-.421875 0-1-.46875-1.421875-.625-.546875-1.875-.546875-1.15625 0-1.703125.40625-.546875.40625-.8125 1.421875l-1.609375-.21875q.21875-1.015625.71875-1.640625.5-.640625 1.453125-.984375.953125-.34375 2.1875-.34375 1.25 0 2.015625.296875.78125.28125 1.140625.734375.375.4375.515625 1.109375.078125.421875.078125 1.515625v2.1875q0 2.28125.109375 2.890625.109375.59375.40625 1.15625h-1.703125q-.265625-.515625-.328125-1.1875zm-.140625-3.671875q-.890625.375-2.671875.625-1.015625.140625-1.4375.328125-.421875.1875-.65625.53125-.21875.34375-.21875.78125 0 .65625.5 1.09375.5.4375 1.453125.4375.9375 0 1.671875-.40625.75-.421875 1.09375-1.140625.265625-.5625.265625-1.640625zm10.469482 4.859375v-1.21875q-.90625 1.4375-2.703125 1.4375-1.15625 0-2.125-.640625-.96875-.640625-1.5-1.78125-.53125-1.140625-.53125-2.625 0-1.453125.484375-2.625.484375-1.1875 1.4375-1.8125.96875-.625 2.171875-.625.875 0 1.546875.375.6875.359375 1.109375.953125v-4.796875h1.640625v13.359375zm-5.171875-4.828125q0 1.859375.78125 2.78125.78125.921875 1.84375.921875 1.078125 0 1.828125-.875.75-.890625.75-2.6875 0-1.984375-.765625-2.90625-.765625-.9375-1.890625-.9375-1.078125 0-1.8125.890625-.734375.890625-.734375 2.8125zm8.625702 1.9375 1.625-.25q.125.96875.75 1.5.625.515625 1.75.515625 1.125 0 1.671875-.453125.546875-.46875.546875-1.09375 0-.546875-.484375-.875-.328125-.21875-1.671875-.546875-1.8125-.46875-2.515625-.796875-.6875-.328125-1.046875-.90625-.359375-.59375-.359375-1.3125 0-.640625.296875-1.1875.296875-.5625.8125-.921875.375-.28125 1.03125-.46875.671875-.203125 1.421875-.203125 1.140625 0 2 .328125.859375.328125 1.265625.890625.421875.5625.578125 1.5l-1.609375.21875q-.109375-.75-.640625-1.171875-.515625-.421875-1.46875-.421875-1.140625 0-1.625.375-.46875.375-.46875.875 0 .3125.1875.578125.203125.265625.640625.4375.234375.09375 1.4375.421875 1.75.453125 2.4375.75.6875.296875 1.078125.859375.390625.5625.390625 1.40625 0 .828125-.484375 1.546875-.46875.71875-1.375 1.125-.90625.390625-2.046875.390625-1.875 0-2.875-.78125-.984375-.78125-1.25-2.328125z" fill="#000"/><path d="m147.80577 207.04462h146.39369v42.015747h-146.39369z" fill="none"/><path d="m165.5714 218.15211q4-.21875 6.671875 2.234375 2.890625 2.59375 3.046875 6.078125.21875 4.234375-2.59375 7.046875-2.453125 2.453125-5.71875 2.609375-4.234375.21875-7.046875-2.609375-2.671875-2.671875-2.671875-6.375 0-3.265625 2.078125-5.71875 2.515625-3.046875 6.234375-3.265625zm.515625 15.515625q2 0 3.1875-1.046875 1.265625-1.109375 1.265625-2.734375.078125-2.375-2.75-3.265625 1.1875-.296875 1.78125-1.1875.59375-.75.59375-1.640625.078125-1.265625-.890625-2.078125-1.109375-.96875-3.046875-1.03125-1.78125 0-2.8125.8125-1.109375.890625-1.046875 1.921875.078125.53125.296875.828125.375.4375.890625.4375.671875 0 .96875-.296875.375-.375.375-.8125 0-.59375-.59375-1.046875.140625-.359375.671875-.59375.515625-.21875 1.109375-.21875.8125.078125 1.265625.671875.4375.59375.4375 1.265625 0 1.25-.515625 1.84375-.453125.59375-1.5625.59375-.140625.078125-.375 0-.296875-.0625-.59375-.0625-.65625.0625-.515625.8125.078125.515625.75.4375.890625-.0625 1.109375 0 .8125.078125 1.265625.671875.515625.671875.515625 1.703125 0 1.640625-.8125 2.3125-.53125.515625-1.484375.515625-1.265625 0-1.71875-.75 1.125-.296875 1.1875-1.25.078125-.59375-.515625-1.125-.4375-.359375-.96875-.359375-.59375 0-1.03125.515625-.59375.59375-.453125 1.40625.15625.890625.890625 1.640625 1.125 1.109375 3.125 1.109375z" fill="#000"/><path d="m182.20782 233.96461v-9.671875h1.46875v1.46875q.5625-1.03125 1.03125-1.359375.484375-.328125 1.0625-.328125.828125 0 1.6875.53125l-.5625 1.515625q-.609375-.359375-1.203125-.359375-.546875 0-.96875.328125-.421875.328125-.609375.890625-.28125.875-.28125 1.921875v5.0625zm12.853302-3.109375 1.6875.203125q-.40625 1.484375-1.484375 2.3125-1.078125.8125-2.765625.8125-2.125 0-3.375-1.296875-1.234375-1.3125-1.234375-3.671875 0-2.453125 1.25-3.796875 1.265625-1.34375 3.265625-1.34375 1.9375 0 3.15625 1.328125 1.234375 1.3125 1.234375 3.703125 0 .15625 0 .4375h-7.21875q.09375 1.59375.90625 2.453125.8125.84375 2.015625.84375.90625 0 1.546875-.46875.640625-.484375 1.015625-1.515625zm-5.390625-2.65625h5.40625q-.109375-1.21875-.625-1.828125-.78125-.953125-2.03125-.953125-1.125 0-1.90625.765625-.765625.75-.84375 2.015625zm15.453842 4.578125q-.921875.765625-1.765625 1.09375-.828125.3125-1.796875.3125-1.59375 0-2.453125-.78125-.859375-.78125-.859375-1.984375 0-.71875.328125-1.296875.328125-.59375.84375-.9375.53125-.359375 1.1875-.546875.46875-.125 1.453125-.25 1.984375-.234375 2.921875-.5625.015625-.34375.015625-.421875 0-1-.46875-1.421875-.625-.546875-1.875-.546875-1.15625 0-1.703125.40625-.546875.40625-.8125 1.421875l-1.609375-.21875q.21875-1.015625.71875-1.640625.5-.640625 1.453125-.984375.953125-.34375 2.1875-.34375 1.25 0 2.015625.296875.78125.28125 1.140625.734375.375.4375.515625 1.109375.078125.421875.078125 1.515625v2.1875q0 2.28125.109375 2.890625.109375.59375.40625 1.15625h-1.703125q-.265625-.515625-.328125-1.1875zm-.140625-3.671875q-.890625.375-2.671875.625-1.015625.140625-1.4375.328125-.421875.1875-.65625.53125-.21875.34375-.21875.78125 0 .65625.5 1.09375.5.4375 1.453125.4375.9375 0 1.671875-.40625.75-.421875 1.09375-1.140625.265625-.5625.265625-1.640625zm10.469467 4.859375v-1.21875q-.90625 1.4375-2.703125 1.4375-1.15625 0-2.125-.640625-.96875-.640625-1.5-1.78125-.53125-1.140625-.53125-2.625 0-1.453125.484375-2.625.484375-1.1875 1.4375-1.8125.96875-.625 2.171875-.625.875 0 1.546875.375.6875.359375 1.109375.953125v-4.796875h1.640625v13.359375zm-5.171875-4.828125q0 1.859375.78125 2.78125.78125.921875 1.84375.921875 1.078125 0 1.828125-.875.75-.890625.75-2.6875 0-1.984375-.765625-2.90625-.765625-.9375-1.890625-.9375-1.078125 0-1.8125.890625-.734375.890625-.734375 2.8125zm8.625717 1.9375 1.625-.25q.125.96875.75 1.5.625.515625 1.75.515625 1.125 0 1.671875-.453125.546875-.46875.546875-1.09375 0-.546875-.484375-.875-.328125-.21875-1.671875-.546875-1.8125-.46875-2.515625-.796875-.6875-.328125-1.046875-.90625-.359375-.59375-.359375-1.3125 0-.640625.296875-1.1875.296875-.5625.8125-.921875.375-.28125 1.03125-.46875.671875-.203125 1.421875-.203125 1.140625 0 2 .328125.859375.328125 1.265625.890625.421875.5625.578125 1.5l-1.609375.21875q-.109375-.75-.640625-1.171875-.515625-.421875-1.46875-.421875-1.140625 0-1.625.375-.46875.375-.46875.875 0 .3125.1875.578125.203125.265625.640625.4375.234375.09375 1.4375.421875 1.75.453125 2.4375.75.6875.296875 1.078125.859375.390625.5625.390625 1.40625 0 .828125-.484375 1.546875-.46875.71875-1.375 1.125-.90625.390625-2.046875.390625-1.875 0-2.875-.78125-.984375-.78125-1.25-2.328125zm8.75 3.125 3.875-13.8125h1.3125l-3.859375 13.8125zm8.198929-.234375-2.96875-9.671875h1.703125l1.53125 5.578125.578125 2.078125q.046875-.15625.5-2l1.546875-5.65625h1.6875l1.4375 5.609375.484375 1.84375.5625-1.859375 1.65625-5.59375h1.59375l-3.03125 9.671875h-1.703125l-1.53125-5.796875-.375-1.640625-1.953125 7.4375zm11.676071 0v-9.671875h1.46875v1.46875q.5625-1.03125 1.03125-1.359375.484375-.328125 1.0625-.328125.828125 0 1.6875.53125l-.5625 1.515625q-.609375-.359375-1.203125-.359375-.546875 0-.96875.328125-.421875.328125-.609375.890625-.28125.875-.28125 1.921875v5.0625zm6.228302-11.46875v-1.890625h1.640625v1.890625zm0 11.46875v-9.671875h1.640625v9.671875zm7.722946-1.46875.234375 1.453125q-.6875.140625-1.234375.140625-.890625 0-1.390625-.28125-.484375-.28125-.6875-.734375-.203125-.46875-.203125-1.9375v-5.578125h-1.203125v-1.265625h1.203125v-2.390625l1.625-.984375v3.375h1.65625v1.265625h-1.65625v5.671875q0 .6875.078125.890625.09375.203125.28125.328125.203125.109375.578125.109375.265625 0 .71875-.0625zm8.230194-1.640625 1.6875.203125q-.40625 1.484375-1.484375 2.3125-1.078125.8125-2.765625.8125-2.125 0-3.375-1.296875-1.234375-1.3125-1.234375-3.671875 0-2.453125 1.25-3.796875 1.265625-1.34375 3.265625-1.34375 1.9375 0 3.15625 1.328125 1.234375 1.3125 1.234375 3.703125 0 .15625 0 .4375h-7.21875q.09375 1.59375.90625 2.453125.8125.84375 2.015625.84375.90625 0 1.546875-.46875.640625-.484375 1.015625-1.515625zm-5.390625-2.65625h5.40625q-.109375-1.21875-.625-1.828125-.78125-.953125-2.03125-.953125-1.125 0-1.90625.765625-.765625.75-.84375 2.015625zm8.485077 2.875 1.625-.25q.125.96875.75 1.5.625.515625 1.75.515625 1.125 0 1.671875-.453125.546875-.46875.546875-1.09375 0-.546875-.484375-.875-.328125-.21875-1.671875-.546875-1.8125-.46875-2.515625-.796875-.6875-.328125-1.046875-.90625-.359375-.59375-.359375-1.3125 0-.640625.296875-1.1875.296875-.5625.8125-.921875.375-.28125 1.03125-.46875.671875-.203125 1.421875-.203125 1.140625 0 2 .328125.859375.328125 1.265625.890625.421875.5625.578125 1.5l-1.609375.21875q-.109375-.75-.640625-1.171875-.515625-.421875-1.46875-.421875-1.140625 0-1.625.375-.46875.375-.46875.875 0 .3125.1875.578125.203125.265625.640625.4375.234375.09375 1.4375.421875 1.75.453125 2.4375.75.6875.296875 1.078125.859375.390625.5625.390625 1.40625 0 .828125-.484375 1.546875-.46875.71875-1.375 1.125-.90625.390625-2.046875.390625-1.875 0-2.875-.78125-.984375-.78125-1.25-2.328125z" fill="#000"/><path d="m259.91602 18.031496h113.03937v50.04725h-113.03937z" fill="#ccc" fill-rule="evenodd"/><path d="m259.91602 18.031496h113.03937v50.04725h-113.03937z" fill-rule="evenodd" stroke="#000" stroke-linecap="butt" stroke-linejoin="round"/><path d="m263.72717 38.975117v-13.359375h1.765625v13.359375zm4.6832886 0v-9.671875h1.46875v1.375q1.0625-1.59375 3.078125-1.59375.875 0 1.609375.3125.734375.3125 1.09375.828125.375.5.515625 1.203125.09375.453125.09375 1.59375v5.953125h-1.640625v-5.890625q0-1-.203125-1.484375-.1875-.5-.671875-.796875-.484375-.296875-1.140625-.296875-1.046875 0-1.8125.671875-.75.65625-.75 2.515625v5.28125zm9.719482-2.890625 1.625-.25q.125.96875.75 1.5.625.515625 1.75.515625 1.125 0 1.671875-.453125.546875-.46875.546875-1.09375 0-.546875-.484375-.875-.328125-.21875-1.671875-.546875-1.8125-.46875-2.515625-.796875-.6875-.328125-1.046875-.90625-.359375-.59375-.359375-1.3125 0-.640625.296875-1.1875.296875-.5625.8125-.921875.375-.28125 1.03125-.46875.671875-.203125 1.421875-.203125 1.140625 0 2 .328125.859375.328125 1.265625.890625.421875.5625.578125 1.5l-1.609375.21875q-.109375-.75-.640625-1.171875-.515625-.421875-1.46875-.421875-1.140625 0-1.625.375-.46875.375-.46875.875 0 .3125.1875.578125.203125.265625.640625.4375.234375.09375 1.4375.421875 1.75.453125 2.4375.75.6875.296875 1.078125.859375.390625.5625.390625 1.40625 0 .828125-.484375 1.546875-.46875.71875-1.375 1.125-.90625.390625-2.046875.390625-1.875 0-2.875-.78125-.984375-.78125-1.25-2.328125zm13.5625 1.421875.234375 1.453125q-.6875.140625-1.234375.140625-.890625 0-1.390625-.28125-.484375-.28125-.6875-.734375-.203125-.46875-.203125-1.9375v-5.578125h-1.203125v-1.265625h1.203125v-2.390625l1.625-.984375v3.375h1.65625v1.265625h-1.65625v5.671875q0 .6875.078125.890625.09375.203125.28125.328125.203125.109375.578125.109375.265625 0 .71875-.0625zm1.5895386 1.46875v-9.671875h1.46875v1.46875q.5625-1.03125 1.03125-1.359375.484375-.328125 1.0625-.328125.828125 0 1.6875.53125l-.5625 1.515625q-.609375-.359375-1.203125-.359375-.546875 0-.96875.328125-.421875.328125-.609375.890625-.28125.875-.28125 1.921875v5.0625zm12.556427 0v-1.421875q-1.125 1.640625-3.0625 1.640625-.859375 0-1.609375-.328125-.734375-.328125-1.09375-.828125-.359375-.5-.5-1.21875-.109375-.46875-.109375-1.53125v-5.984375h1.640625v5.359375q0 1.28125.109375 1.734375.15625.640625.65625 1.015625.5.375 1.234375.375.734375 0 1.375-.375.65625-.390625.921875-1.03125.265625-.65625.265625-1.890625v-5.1875h1.640625v9.671875zm4.0476074 0v-9.671875h1.46875v1.359375q.453125-.71875 1.203125-1.140625.765625-.4375 1.71875-.4375 1.078125 0 1.765625.453125.6875.4375.96875 1.234375 1.15625-1.6875 2.984375-1.6875 1.453125 0 2.21875.796875.78125.796875.78125 2.453125v6.640625h-1.640625v-6.09375q0-.984375-.15625-1.40625-.15625-.4375-.578125-.703125-.421875-.265625-.984375-.265625-1.015625 0-1.6875.6875-.671875.671875-.671875 2.15625v5.625h-1.640625v-6.28125q0-1.09375-.40625-1.640625-.40625-.546875-1.3125-.546875-.6875 0-1.28125.359375-.59375.359375-.859375 1.0625-.25.703125-.25 2.03125v5.015625zm22.165802-3.109375 1.6875.203125q-.40625 1.484375-1.484375 2.3125-1.078125.8125-2.765625.8125-2.125 0-3.375-1.296875-1.234375-1.3125-1.234375-3.671875 0-2.453125 1.25-3.796875 1.265625-1.34375 3.265625-1.34375 1.9375 0 3.15625 1.328125 1.234375 1.3125 1.234375 3.703125 0 .15625 0 .4375h-7.21875q.09375 1.59375.90625 2.453125.8125.84375 2.015625.84375.90625 0 1.546875-.46875.640625-.484375 1.015625-1.515625zm-5.390625-2.65625h5.40625q-.109375-1.21875-.625-1.828125-.78125-.953125-2.03125-.953125-1.125 0-1.90625.765625-.765625.75-.84375 2.015625zm9.141327 5.765625v-9.671875h1.46875v1.375q1.0625-1.59375 3.078125-1.59375.875 0 1.609375.3125.734375.3125 1.09375.828125.375.5.515625 1.203125.09375.453125.09375 1.59375v5.953125h-1.640625v-5.890625q0-1-.203125-1.484375-.1875-.5-.671875-.796875-.484375-.296875-1.140625-.296875-1.046875 0-1.8125.671875-.75.65625-.75 2.515625v5.28125zm13.953857-1.46875.234375 1.453125q-.6875.140625-1.234375.140625-.890625 0-1.390625-.28125-.484375-.28125-.6875-.734375-.203125-.46875-.203125-1.9375v-5.578125h-1.203125v-1.265625h1.203125v-2.390625l1.625-.984375v3.375h1.65625v1.265625h-1.65625v5.671875q0 .6875.078125.890625.09375.203125.28125.328125.203125.109375.578125.109375.265625 0 .71875-.0625zm8.230164-1.640625 1.6875.203125q-.40625 1.484375-1.484375 2.3125-1.078125.8125-2.765625.8125-2.125 0-3.375-1.296875-1.234375-1.3125-1.234375-3.671875 0-2.453125 1.25-3.796875 1.265625-1.34375 3.265625-1.34375 1.9375 0 3.15625 1.328125 1.234375 1.3125 1.234375 3.703125 0 .15625 0 .4375h-7.21875q.09375 1.59375.90625 2.453125.8125.84375 2.015625.84375.90625 0 1.546875-.46875.640625-.484375 1.015625-1.515625zm-5.390625-2.65625h5.40625q-.109375-1.21875-.625-1.828125-.78125-.953125-2.03125-.953125-1.125 0-1.90625.765625-.765625.75-.84375 2.015625zm15.406982 5.765625v-1.21875q-.90625 1.4375-2.703125 1.4375-1.15625 0-2.125-.640625-.96875-.640625-1.5-1.78125-.53125-1.140625-.53125-2.625 0-1.453125.484375-2.625.484375-1.1875 1.4375-1.8125.96875-.625 2.171875-.625.875 0 1.546875.375.6875.359375 1.109375.953125v-4.796875h1.640625v13.359375zm-5.171875-4.828125q0 1.859375.78125 2.78125.78125.921875 1.84375.921875 1.078125 0 1.828125-.875.75-.890625.75-2.6875 0-1.984375-.765625-2.90625-.765625-.9375-1.890625-.9375-1.078125 0-1.8125.890625-.734375.890625-.734375 2.8125z" fill="#000"/><path d="m285.00797 64.67824v-13.374996h1.484375v1.25q.53125-.734375 1.1875-1.09375.671875-.375 1.625-.375 1.234375 0 2.171875.640625.953125.625 1.4375 1.796875.484375 1.15625.484375 2.546875 0 1.484375-.53125 2.671875-.53125 1.1875-1.546875 1.828125-1.015625.625-2.140625.625-.8125 0-1.46875-.34375-.65625-.34375-1.0625-.875v4.703121zm1.484375-8.484371q0 1.859375.75 2.765625.765625.890625 1.828125.890625 1.09375 0 1.875-.921875.78125-.9375.78125-2.875 0-1.84375-.765625-2.765625-.75-.921875-1.8125-.921875-1.046875 0-1.859375.984375-.796875.96875-.796875 2.84375zm8.875732 4.78125v-9.671875h1.46875v1.46875q.5625-1.03125 1.03125-1.359375.484375-.328125 1.0625-.328125.828125 0 1.6875.53125l-.5625 1.515625q-.609375-.359375-1.203125-.359375-.546875 0-.96875.328125-.421875.328125-.609375.890625-.28125.875-.28125 1.921875v5.0625zm5.618927-4.84375q0-2.6875 1.484375-3.96875 1.25-1.078125 3.046875-1.078125 2 0 3.265625 1.3125 1.265625 1.296875 1.265625 3.609375 0 1.859375-.5625 2.9375-.5625 1.0625-1.640625 1.65625-1.0625.59375-2.328125.59375-2.03125 0-3.28125-1.296875-1.25-1.3125-1.25-3.765625zm1.6875 0q0 1.859375.796875 2.796875.8125.921875 2.046875.921875 1.21875 0 2.03125-.921875.8125-.9375.8125-2.84375 0-1.796875-.8125-2.71875-.8125-.921875-2.03125-.921875-1.234375 0-2.046875.921875-.796875.90625-.796875 2.765625zm15.610077 1.296875 1.609375.21875q-.265625 1.65625-1.359375 2.609375-1.078125.9375-2.671875.9375-1.984375 0-3.1875-1.296875-1.203125-1.296875-1.203125-3.71875 0-1.578125.515625-2.75.515625-1.171875 1.578125-1.75 1.0625-.59375 2.3125-.59375 1.578125 0 2.578125.796875 1 .796875 1.28125 2.265625l-1.59375.234375q-.234375-.96875-.8125-1.453125-.578125-.5-1.390625-.5-1.234375 0-2.015625.890625-.78125.890625-.78125 2.8125 0 1.953125.75 2.84375.75.875 1.953125.875.96875 0 1.609375-.59375.65625-.59375.828125-1.828125zm9.640625.4375 1.6875.203125q-.40625 1.484375-1.484375 2.3125-1.078125.8125-2.765625.8125-2.125 0-3.375-1.296875-1.234375-1.3125-1.234375-3.671875 0-2.453125 1.25-3.796875 1.265625-1.34375 3.265625-1.34375 1.9375 0 3.15625 1.328125 1.234375 1.3125 1.234375 3.703125 0 .15625 0 .4375h-7.21875q.09375 1.59375.90625 2.453125.8125.84375 2.015625.84375.90625 0 1.546875-.46875.640625-.484375 1.015625-1.515625zm-5.390625-2.65625h5.40625q-.109375-1.21875-.625-1.828125-.78125-.953125-2.03125-.953125-1.125 0-1.90625.765625-.765625.75-.84375 2.015625zm8.485107 2.875 1.625-.25q.125.96875.75 1.5.625.515625 1.75.515625 1.125 0 1.671875-.453125.546875-.46875.546875-1.09375 0-.546875-.484375-.875-.328125-.21875-1.671875-.546875-1.8125-.46875-2.515625-.796875-.6875-.328125-1.046875-.90625-.359375-.59375-.359375-1.3125 0-.640625.296875-1.1875.296875-.5625.8125-.921875.375-.28125 1.03125-.46875.671875-.203125 1.421875-.203125 1.140625 0 2 .328125.859375.328125 1.265625.890625.421875.5625.578125 1.5l-1.609375.21875q-.109375-.75-.640625-1.171875-.515625-.421875-1.46875-.421875-1.140625 0-1.625.375-.46875.375-.46875.875 0 .3125.1875.578125.203125.265625.640625.4375.234375.09375 1.4375.421875 1.75.453125 2.4375.75.6875.296875 1.078125.859375.390625.5625.390625 1.40625 0 .828125-.484375 1.546875-.46875.71875-1.375 1.125-.90625.390625-2.046875.390625-1.875 0-2.875-.78125-.984375-.78125-1.25-2.328125zm9.328125 0 1.625-.25q.125.96875.75 1.5.625.515625 1.75.515625 1.125 0 1.671875-.453125.546875-.46875.546875-1.09375 0-.546875-.484375-.875-.328125-.21875-1.671875-.546875-1.8125-.46875-2.515625-.796875-.6875-.328125-1.046875-.90625-.359375-.59375-.359375-1.3125 0-.640625.296875-1.1875.296875-.5625.8125-.921875.375-.28125 1.03125-.46875.671875-.203125 1.421875-.203125 1.140625 0 2 .328125.859375.328125 1.265625.890625.421875.5625.578125 1.5l-1.609375.21875q-.109375-.75-.640625-1.171875-.515625-.421875-1.46875-.421875-1.140625 0-1.625.375-.46875.375-.46875.875 0 .3125.1875.578125.203125.265625.640625.4375.234375.09375 1.4375.421875 1.75.453125 2.4375.75.6875.296875 1.078125.859375.390625.5625.390625 1.40625 0 .828125-.484375 1.546875-.46875.71875-1.375 1.125-.90625.390625-2.046875.390625-1.875 0-2.875-.78125-.984375-.78125-1.25-2.328125z" fill="#000"/><path d="m158.45145 24.251968h37.606293v37.6063h-37.606293z" fill="#cfe2f3" fill-rule="evenodd"/><path d="m158.45145 24.251968h37.606293v37.6063h-37.606293z" fill-rule="evenodd" stroke="#000" stroke-linecap="butt" stroke-linejoin="round"/><path d="m168.81416 31.981367h1.140625v4.968752q0 1.296875-.296875 2.0625-.296875.75-1.0625 1.234375-.765625.46875-2 .46875-1.203125 0-1.984375-.40625-.765625-.421875-1.09375-1.203125-.328125-.796875-.328125-2.15625v-4.968752h1.140625v4.953127q0 1.125.203125 1.65625.21875.53125.71875.828125.515625.28125 1.25.28125 1.25 0 1.78125-.5625.53125-.578125.53125-2.203125zm2.9003906 10.984377v-8.609375h.953125v.796875q.34375-.46875.765625-.703125.4375-.234375 1.046875-.234375.796875 0 1.40625.40625.609375.40625.90625 1.15625.3125.75.3125 1.640625 0 .953125-.34375 1.71875-.328125.765625-.984375 1.171875-.65625.40625-1.375.40625-.53125 0-.953125-.21875-.421875-.234375-.6875-.5625v3.03125zm.953125-5.46875q0 1.203125.484375 1.78125.484375.5625 1.171875.5625.703125 0 1.203125-.59375.5-.59375.5-1.84375 0-1.1875-.484375-1.765625-.484375-.59375-1.171875-.59375-.671875 0-1.1875.625-.515625.625-.515625 1.828125zm5.705078 3.078125v-6.21875h.953125v.9375q.359375-.65625.65625-.859375.3125-.21875.6875-.21875.53125 0 1.078125.328125l-.359375.984375q-.390625-.234375-.765625-.234375-.359375 0-.640625.21875-.265625.203125-.375.578125-.1875.5625-.1875 1.21875v3.265625zm3.6210938-3.109375q0-1.734375.953125-2.5625.796875-.6875 1.953125-.6875 1.28125 0 2.09375.84375.828125.828125.828125 2.3125 0 1.203125-.359375 1.890625-.359375.6875-1.0625 1.078125-.6875.375-1.5.375-1.296875 0-2.109375-.828125-.796875-.84375-.796875-2.421875zm1.078125 0q0 1.1875.515625 1.78125.53125.59375 1.3125.59375.796875 0 1.3125-.59375.515625-.59375.515625-1.8125 0-1.15625-.53125-1.75-.515625-.59375-1.296875-.59375-.78125 0-1.3125.59375-.515625.578125-.515625 1.78125zm5.564453.53125v-1.0625h3.25v1.0625z" fill="#000"/><path d="m169.34639 54.57512h-.984375v-8.59375h1.0625v3.0625q.671875-.828125 1.703125-.828125.578125 0 1.078125.234375.515625.21875.84375.640625.34375.421875.53125 1.015625.1875.59375.1875 1.265625 0 1.59375-.796875 2.46875-.796875.875-1.890625.875-1.109375 0-1.734375-.921875zm-.015625-3.15625q0 1.109375.3125 1.609375.5.8125 1.34375.8125.6875 0 1.1875-.59375.515625-.59375.515625-1.796875 0-1.21875-.484375-1.796875-.484375-.578125-1.171875-.578125-.6875 0-1.203125.609375-.5.59375-.5 1.734375zm9.970703 1.15625 1.09375.125q-.25.953125-.953125 1.484375-.703125.53125-1.78125.53125-1.359375 0-2.171875-.84375-.796875-.84375-.796875-2.359375 0-1.5625.8125-2.421875.8125-.875 2.09375-.875 1.25 0 2.03125.84375.796875.84375.796875 2.390625 0 .09375 0 .28125h-4.640625q.0625 1.03125.578125 1.578125.515625.53125 1.296875.53125.578125 0 .984375-.296875.421875-.3125.65625-.96875zm-3.453125-1.703125h3.46875q-.0625-.796875-.390625-1.1875-.515625-.609375-1.3125-.609375-.734375 0-1.234375.484375-.484375.484375-.53125 1.3125zm5.455078 1.84375 1.03125-.15625q.09375.625.484375.953125.40625.328125 1.140625.328125.71875 0 1.0625-.28125.359375-.296875.359375-.703125 0-.359375-.3125-.5625-.21875-.140625-1.078125-.359375-1.15625-.296875-1.609375-.5-.4375-.21875-.671875-.59375-.234375-.375-.234375-.84375 0-.40625.1875-.765625.1875-.359375.515625-.59375.25-.171875.671875-.296875.421875-.125.921875-.125.71875 0 1.265625.21875.5625.203125.828125.5625.265625.359375.359375.953125l-1.03125.140625q-.0625-.46875-.40625-.734375-.328125-.28125-.953125-.28125-.71875 0-1.03125.25-.3125.234375-.3125.5625 0 .203125.125.359375.140625.171875.40625.28125.15625.0625.9375.265625 1.125.3125 1.5625.5.4375.1875.6875.546875.25.359375.25.90625 0 .53125-.3125 1-.296875.453125-.875.71875-.578125.25-1.3125.25-1.21875 0-1.859375-.5-.625-.515625-.796875-1.5z" fill="#000"/><path d="m196.05774 43.05512 11.653549-11.653543v5.8267727h40.53543v-5.8267727l11.653549 11.653543-11.653549 11.653542v-5.826771h-40.53543v5.826771z" fill="#f3f3f3" fill-rule="evenodd"/><path d="m196.05774 43.05512 11.653549-11.653543v5.8267727h40.53543v-5.8267727l11.653549 11.653543-11.653549 11.653542v-5.826771h-40.53543v5.826771z" fill-rule="evenodd" stroke="#000" stroke-linecap="butt" stroke-linejoin="round"/><path d="m27.603506 5.257218h37.606293v37.6063h-37.606293z" fill="#cfe2f3" fill-rule="evenodd"/><path d="m27.603506 5.257218h37.606293v37.6063h-37.606293z" fill-rule="evenodd" stroke="#000" stroke-linecap="butt" stroke-linejoin="round"/><path d="m32.60978 21.580366v-8.59375h1.140625v4.265625l4.265625-4.265625h1.546875l-3.609375 3.484375 3.765625 5.109375h-1.5l-3.0625-4.34375-1.40625 1.359375v2.984375zm7.9257812 2.390625v-8.609375h.953125v.796875q.34375-.46875.765625-.703125.4375-.234375 1.046875-.234375.796875 0 1.40625.40625.609375.40625.90625 1.15625.3125.75.3125 1.640625 0 .953125-.34375 1.71875-.328125.765625-.984375 1.171875-.65625.40625-1.375.40625-.53125 0-.953125-.21875-.421875-.234375-.6875-.5625v3.03125zm.953125-5.46875q0 1.203125.484375 1.78125.484375.5625 1.171875.5625.703125 0 1.203125-.59375.5-.59375.5-1.84375 0-1.1875-.484375-1.765625-.484375-.59375-1.171875-.59375-.671875 0-1.1875.625-.515625.625-.515625 1.828125zm5.705078 3.078125v-6.21875h.953125v.9375q.359375-.65625.65625-.859375.3125-.21875.6875-.21875.53125 0 1.078125.328125l-.359375.984375q-.390625-.234375-.765625-.234375-.359375 0-.640625.21875-.265625.203125-.375.578125-.1875.5625-.1875 1.21875v3.265625zm3.6210938-3.109375q0-1.734375.953125-2.5625.796875-.6875 1.953125-.6875 1.28125 0 2.09375.84375.828125.828125.828125 2.3125 0 1.203125-.359375 1.890625-.359375.6875-1.0625 1.078125-.6875.375-1.5.375-1.296875 0-2.109375-.828125-.796875-.84375-.796875-2.421875zm1.078125 0q0 1.1875.515625 1.78125.53125.59375 1.3125.59375.796875 0 1.3125-.59375.515625-.59375.515625-1.8125 0-1.15625-.53125-1.75-.515625-.59375-1.296875-.59375-.78125 0-1.3125.59375-.515625.578125-.515625 1.78125zm5.564453.53125v-1.0625h3.25v1.0625z" fill="#000"/><path d="m38.49845 35.580368h-.984375v-8.59375h1.0625v3.0625q.671875-.828125 1.703125-.828125.578125 0 1.078125.234375.515625.21875.84375.640625.34375.421875.53125 1.015625.1875.59375.1875 1.265625 0 1.59375-.796875 2.46875-.796875.875-1.890625.875-1.109375 0-1.734375-.921875zm-.015625-3.15625q0 1.109375.3125 1.609375.5.8125 1.34375.8125.6875 0 1.1875-.59375.515625-.59375.515625-1.796875 0-1.21875-.484375-1.796875-.484375-.578125-1.171875-.578125-.6875 0-1.203125.609375-.5.59375-.5 1.734375zm9.970703 1.15625 1.09375.125q-.25.953125-.953125 1.484375-.703125.53125-1.78125.53125-1.359375 0-2.171875-.84375-.796875-.84375-.796875-2.359375 0-1.5625.8125-2.421875.8125-.875 2.09375-.875 1.25 0 2.03125.84375.796875.84375.796875 2.390625 0 .09375 0 .28125h-4.640625q.0625 1.03125.578125 1.578125.515625.53125 1.296875.53125.578125 0 .984375-.296875.421875-.3125.65625-.96875zm-3.453125-1.703125h3.46875q-.0625-.796875-.390625-1.1875-.515625-.609375-1.3125-.609375-.734375 0-1.234375.484375-.484375.484375-.53125 1.3125zm5.455078 1.84375 1.03125-.15625q.09375.625.484375.953125.40625.328125 1.140625.328125.71875 0 1.0625-.28125.359375-.296875.359375-.703125 0-.359375-.3125-.5625-.21875-.140625-1.078125-.359375-1.15625-.296875-1.609375-.5-.4375-.21875-.671875-.59375-.234375-.375-.234375-.84375 0-.40625.1875-.765625.1875-.359375.515625-.59375.25-.171875.671875-.296875.421875-.125.921875-.125.71875 0 1.265625.21875.5625.203125.828125.5625.265625.359375.359375.953125l-1.03125.140625q-.0625-.46875-.40625-.734375-.328125-.28125-.953125-.28125-.71875 0-1.03125.25-.3125.234375-.3125.5625 0 .203125.125.359375.140625.171875.40625.28125.15625.0625.9375.265625 1.125.3125 1.5625.5.4375.1875.6875.546875.25.359375.25.90625 0 .53125-.3125 1-.296875.453125-.875.71875-.578125.25-1.3125.25-1.21875 0-1.859375-.5-.625-.515625-.796875-1.5z" fill="#000"/><path d="m72.580055 53.572178 10.708656-10.70866 10.708664 10.70866h-5.354332v56.94488h-10.708664v-56.94488z" fill="#fff" fill-rule="evenodd"/><path d="m72.580055 53.572178 10.708656-10.70866 10.708664 10.70866h-5.354332v56.94488h-10.708664v-56.94488z" fill-rule="evenodd" stroke="#000" stroke-linecap="butt" stroke-linejoin="round"/><path d="m76.91863 110.50394c0-36.76477 29.803741-66.56851 66.56852-66.56851h4.2895203v-6.6283417l10.685272 11.75029-10.685272 11.75029v-6.6283417h-4.2895203c-31.107231 0-56.324615 25.217388-56.324615 56.32461z" fill="#f3f3f3" fill-rule="evenodd"/><path d="m76.91863 110.50394c0-36.76477 29.803741-66.56851 66.56852-66.56851h4.2895203v-6.6283417l10.685272 11.75029-10.685272 11.75029v-6.6283417h-4.2895203c-31.107231 0-56.324615 25.217388-56.324615 56.32461z" fill-rule="evenodd" stroke="#000" stroke-linecap="butt" stroke-linejoin="round"/><path d="m5.992126 47.89501h63.84252v64.62992h-63.84252z" fill="none"/><path d="m59.60027 59.00251q4-.21875 6.671871 2.234375 2.890625 2.59375 3.046875 6.078125.21875 4.234375-2.59375 7.046875-2.453125 2.453125-5.718746 2.609375-4.234375.21875-7.046875-2.609375-2.671875-2.671875-2.671875-6.375 0-3.265625 2.078125-5.71875 2.515625-3.046875 6.234375-3.265625zm4.15625 15.140625.9531212-4.375h-.9531212q-.671875 2.21875-2.75 2.21875h-2.375q.515625-1.03125 4-3.40625.59375-.453125 1.1875-1.265625.7499962-1.03125.7499962-2 .078125-1.5625-.9687462-2.59375-1.109375-1.1875-2.96875-1.1875-1.859375 0-3.265625 1.109375-1.1875 1.03125-1.1875 2.21875 0 1.78125 1.484375 1.78125.75 0 1.109375-.359375.375-.296875.375-1.046875 0-.4375-.296875-.8125-.296875-.296875-.96875-.375 0-.375.59375-.8125.59375-.296875 1.421875-.296875 1.03125.078125 1.625.890625.453125.671875.453125 1.625-.078125 1.78125-1.5625 3.125-1.40625 1.328125-2.453125 2.21875-1.1875 1.1875-2.21875 2.453125v.890625z" fill="#000"/><path d="m18.141514 97.21501v-13.359375h1.640625v13.359375zm4.191696-11.46875v-1.890625h1.640625v1.890625zm0 11.46875v-9.671875h1.640625v9.671875zm3.4885712-2.890625 1.625-.25q.125.96875.75 1.5.625.515625 1.75.515625 1.125 0 1.671875-.453125.546875-.46875.546875-1.09375 0-.546875-.484375-.875-.328125-.21875-1.671875-.546875-1.8125-.46875-2.515625-.796875-.6875-.328125-1.046875-.90625-.359375-.59375-.359375-1.3125 0-.640625.296875-1.1875.296875-.5625.8125-.921875.375-.28125 1.03125-.46875.671875-.203125 1.421875-.203125 1.140625 0 2 .328125.859375.328125 1.265625.890625.421875.5625.578125 1.5l-1.609375.21875q-.109375-.75-.640625-1.171875-.515625-.421875-1.46875-.421875-1.140625 0-1.625.375-.46875.375-.46875.875 0 .3125.1875.578125.203125.265625.640625.4375.234375.09375 1.4375.421875 1.75.453125 2.4375.75.6875.296875 1.078125.859375.390625.5625.390625 1.40625 0 .828125-.484375 1.546875-.46875.71875-1.375 1.125-.90625.390625-2.046875.390625-1.875 0-2.875-.78125-.984375-.78125-1.25-2.328125zm13.5625 1.421875.234375 1.453125q-.6875.140625-1.234375.140625-.890625 0-1.390625-.28125-.484375-.28125-.6875-.734375-.203125-.46875-.203125-1.9375v-5.578125h-1.203125v-1.265625h1.203125v-2.390625l1.625-.984375v3.375h1.65625v1.265625h-1.65625v5.671875q0 .6875.078125.890625.09375.203125.28125.328125.203125.109375.578125.109375.265625 0 .71875-.0625zm8.230179-1.640625 1.6875.203125q-.40625 1.484375-1.484375 2.3125-1.078125.8125-2.765625.8125-2.125 0-3.375-1.296875-1.234375-1.3125-1.234375-3.671875 0-2.453125 1.25-3.796875 1.265625-1.34375 3.265625-1.34375 1.9375 0 3.15625 1.328125 1.234375 1.3125 1.234375 3.703125 0 .15625 0 .4375h-7.21875q.09375 1.59375.90625 2.453125.8125.84375 2.015625.84375.90625 0 1.546875-.46875.640625-.484375 1.015625-1.515625zm-5.390625-2.65625h5.40625q-.109375-1.21875-.625-1.828125-.78125-.953125-2.03125-.953125-1.125 0-1.90625.765625-.765625.75-.84375 2.015625zm9.141342 5.765625v-9.671875h1.46875v1.375q1.0625-1.59375 3.078125-1.59375.875 0 1.609375.3125.734375.3125 1.09375.828125.375.5.515625 1.203125.09375.453125.09375 1.59375v5.953125h-1.640625v-5.890625q0-1-.203125-1.484375-.1875-.5-.671875-.796875-.484375-.296875-1.140625-.296875-1.046875 0-1.8125.671875-.75.65625-.75 2.515625v5.28125zm9.719467-2.890625 1.625-.25q.125.96875.75 1.5.6249962.515625 1.7499962.515625 1.125 0 1.671875-.453125.546875-.46875.546875-1.09375 0-.546875-.484375-.875-.328125-.21875-1.671875-.546875-1.8124962-.46875-2.5156212-.796875-.6875-.328125-1.046875-.90625-.359375-.59375-.359375-1.3125 0-.640625.296875-1.1875.296875-.5625.8125-.921875.375-.28125 1.03125-.46875.6718712-.203125 1.4218712-.203125 1.140625 0 2 .328125.859375.328125 1.265625.890625.421875.5625.578125 1.5l-1.609375.21875q-.109375-.75-.640625-1.171875-.515625-.421875-1.46875-.421875-1.1406212 0-1.6249962.375-.46875.375-.46875.875 0 .3125.1875.578125.203125.265625.640625.4375.23437119.09375 1.4374962.421875 1.75.453125 2.4375.75.6875.296875 1.078125.859375.390625.5625.390625 1.40625 0 .828125-.484375 1.546875-.46875.71875-1.375 1.125-.90625.390625-2.046875.390625-1.8749962 0-2.8749962-.78125-.984375-.78125-1.25-2.328125z" fill="#000"/><path d="m65.2098 5.257218h37.6063v37.6063h-37.6063z" fill="#cfe2f3" fill-rule="evenodd"/><path d="m65.2098 5.257218h37.6063v37.6063h-37.6063z" fill-rule="evenodd" stroke="#000" stroke-linecap="butt" stroke-linejoin="round"/><path d="m73.93092 28.580366v-8.59375h3.25q.84375 0 1.296875.078125.640625.109375 1.0625.40625.4375.296875.6875.828125.265625.53125.265625 1.171875 0 1.09375-.703125 1.859375-.6875.75-2.515625.75h-2.203125v3.5zm1.140625-4.5h2.21875q1.109375 0 1.5625-.40625.46875-.421875.46875-1.171875 0-.53125-.28125-.90625-.265625-.390625-.703125-.515625-.296875-.078125-1.0625-.078125h-2.203125zm10.988281 2.5 1.09375.125q-.25.953125-.953125 1.484375-.703125.53125-1.78125.53125-1.359375 0-2.171875-.84375-.796875-.84375-.796875-2.359375 0-1.5625.8125-2.421875.8125-.875 2.09375-.875 1.25 0 2.03125.84375.796875.84375.796875 2.390625 0 .09375 0 .28125h-4.640625q.0625 1.03125.578125 1.578125.515625.53125 1.296875.53125.578125 0 .984375-.296875.421875-.3125.65625-.96875zm-3.453125-1.703125h3.46875q-.0625-.796875-.390625-1.1875-.515625-.609375-1.3125-.609375-.734375 0-1.234375.484375-.484375.484375-.53125 1.3125zm5.861328 3.703125v-6.21875h.953125v.9375q.359375-.65625.65625-.859375.3125-.21875.6875-.21875.53125 0 1.078125.328125l-.359375.984375q-.390625-.234375-.765625-.234375-.359375 0-.640625.21875-.265625.203125-.375.578125-.1875.5625-.1875 1.21875v3.265625zm4.2617188 0v-5.40625h-.9375v-.8125h.9375v-.671875q0-.625.109375-.921875.15625-.421875.53125-.671875.390625-.25 1.078125-.25.453125 0 .984375.109375l-.15625.90625q-.328125-.046875-.625-.046875-.484375 0-.6875.203125-.1875.203125-.1875.765625v.578125h1.21875v.8125h-1.21875v5.40625z" fill="#000"/><path d="m101.367455 5.257218h37.6063v37.6063h-37.6063z" fill="#cfe2f3" fill-rule="evenodd"/><path d="m101.367455 5.257218h37.6063v37.6063h-37.6063z" fill-rule="evenodd" stroke="#000" stroke-linecap="butt" stroke-linejoin="round"/><path d="m111.21357 26.580366 1.09375.125q-.25.953125-.953125 1.484375-.703125.53125-1.78125.53125-1.359375 0-2.171875-.84375-.796875-.84375-.796875-2.359375 0-1.5625.8125-2.421875.8125-.875 2.09375-.875 1.25 0 2.03125.84375.796875.84375.796875 2.390625 0 .09375 0 .28125h-4.640625q.0625 1.03125.578125 1.578125.515625.53125 1.296875.53125.578125 0 .984375-.296875.421875-.3125.65625-.96875zm-3.453125-1.703125h3.46875q-.0625-.796875-.390625-1.1875-.515625-.609375-1.3125-.609375-.734375 0-1.234375.484375-.484375.484375-.53125 1.3125zm8.173828 2.765625.15625.921875q-.453125.09375-.796875.09375-.578125 0-.890625-.171875-.3125-.1875-.453125-.484375-.125-.296875-.125-1.25v-3.578125h-.765625v-.8125h.765625v-1.546875l1.046875-.625v2.171875h1.0625v.8125h-1.0625v3.640625q0 .453125.046875.578125.0625.125.1875.203125.125.078125.359375.078125.1875 0 .46875-.03125zm5.0996094-1.34375 1.03125.140625q-.171875 1.0625-.875 1.671875-.703125.609375-1.71875.609375-1.28125 0-2.0625-.828125-.765625-.84375-.765625-2.40625 0-1 .328125-1.75.34375-.765625 1.015625-1.140625.6875-.375 1.5-.375 1 0 1.640625.515625.65625.5.84375 1.453125l-1.03125.15625q-.140625-.625-.515625-.9375-.375-.328125-.90625-.328125-.796875 0-1.296875.578125-.5.5625-.5 1.796875 0 1.265625.484375 1.828125.484375.5625 1.25.5625.625 0 1.03125-.375.421875-.375.546875-1.171875zm2.546875 2.28125v-1.203125h1.203125v1.203125zm4 0v-1.203125h1.2031326v1.203125zm4.0000076 0v-1.203125h1.203125v1.203125z" fill="#000"/></g></svg>