<svg width="956" height="264" fill="none" xmlns="http://www.w3.org/2000/svg"><path fill="#fff" d="M0 0h956v264H0z"/><g filter="url(#a)" shape-rendering="crispEdges"><path d="M23 17a4 4 0 0 1 4-4h901a4 4 0 0 1 4 4v46a4 4 0 0 1-4 4H27a4 4 0 0 1-4-4V17Z" fill="#D9D9D9" fill-opacity=".51"/><path d="M27 13.5h901a3.5 3.5 0 0 1 3.5 3.5v46a3.5 3.5 0 0 1-3.5 3.5H27a3.5 3.5 0 0 1-3.5-3.5V17a3.5 3.5 0 0 1 3.5-3.5Z" stroke="#000"/></g><path d="M422.598 38.441v.899c0 1.068-.134 2.025-.401 2.87-.267.847-.651 1.567-1.152 2.16a4.997 4.997 0 0 1-1.807 1.357c-.696.312-1.478.468-2.343.468-.84 0-1.612-.156-2.315-.468a5.195 5.195 0 0 1-1.816-1.358c-.508-.592-.902-1.312-1.182-2.158-.28-.846-.42-1.803-.42-2.871v-.899c0-1.067.137-2.021.41-2.86.28-.847.674-1.567 1.182-2.16a5.06 5.06 0 0 1 1.807-1.366 5.632 5.632 0 0 1 2.314-.47c.866 0 1.647.157 2.344.47a4.947 4.947 0 0 1 1.806 1.367c.508.592.896 1.312 1.163 2.158.273.84.41 1.794.41 2.861Zm-1.866.899v-.918c0-.846-.087-1.595-.263-2.246-.17-.651-.42-1.198-.752-1.64a3.242 3.242 0 0 0-1.221-1.007c-.475-.228-1.016-.342-1.621-.342-.586 0-1.117.114-1.592.342a3.372 3.372 0 0 0-1.211 1.006c-.332.443-.589.99-.771 1.64-.183.652-.274 1.4-.274 2.247v.918c0 .853.091 1.608.274 2.265.182.652.442 1.202.781 1.65.345.444.752.779 1.221 1.007a3.634 3.634 0 0 0 1.592.341c.612 0 1.155-.113 1.63-.341a3.185 3.185 0 0 0 1.202-1.006c.332-.45.582-1 .752-1.65.169-.658.253-1.413.253-2.266Zm6.221-1.875v12.597h-1.816V35.434h1.66l.156 2.03Zm7.119 3.164v.205a8 8 0 0 1-.273 2.139 5.244 5.244 0 0 1-.801 1.699 3.64 3.64 0 0 1-1.279 1.123c-.508.267-1.091.4-1.748.4-.671 0-1.263-.11-1.778-.332a3.506 3.506 0 0 1-1.308-.966 4.944 4.944 0 0 1-.86-1.524 8.828 8.828 0 0 1-.429-2.002v-1.094a9.174 9.174 0 0 1 .439-2.1 5.225 5.225 0 0 1 .85-1.581 3.487 3.487 0 0 1 1.299-1.006c.507-.235 1.093-.352 1.757-.352.664 0 1.254.13 1.768.39.514.255.947.62 1.299 1.095.351.475.615 1.045.791 1.709.182.657.273 1.39.273 2.197Zm-1.816.205v-.205c0-.527-.055-1.022-.166-1.484a3.744 3.744 0 0 0-.518-1.23 2.467 2.467 0 0 0-.879-.84c-.358-.21-.784-.313-1.279-.313-.456 0-.853.078-1.191.234a2.572 2.572 0 0 0-.85.635c-.234.26-.426.56-.576.898a5.135 5.135 0 0 0-.322 1.035v2.53c.13.456.312.885.546 1.289.235.397.547.72.938.967.391.24.882.36 1.475.36.488 0 .908-.1 1.259-.302.358-.208.651-.491.879-.85.235-.358.407-.768.518-1.23.111-.469.166-.967.166-1.494Zm9.658-7.793L437.207 46h-1.924l5.42-14.219h1.24l-.029 1.26ZM445.859 46l-4.716-12.959-.03-1.26h1.241L447.793 46h-1.934Zm-.244-5.264v1.543h-7.988v-1.543h7.988Zm4.678-8.955h1.826l4.658 11.592 4.649-11.592h1.836L457.48 46h-1.425l-5.762-14.219Zm-.596 0h1.612l.263 8.672V46h-1.875V31.781Zm12.539 0h1.612V46h-1.875v-5.547l.263-8.672Zm10.166 8.643h-3.798V38.89h3.798c.736 0 1.332-.118 1.787-.352.456-.234.788-.56.997-.977.214-.416.322-.891.322-1.425 0-.489-.108-.947-.322-1.377-.209-.43-.541-.775-.997-1.035-.455-.267-1.051-.4-1.787-.4h-3.359V46h-1.885V31.781h5.244c1.075 0 1.983.186 2.725.557.742.371 1.305.885 1.689 1.543.385.65.577 1.396.577 2.236 0 .912-.192 1.69-.577 2.334-.384.645-.947 1.136-1.689 1.475-.742.332-1.65.498-2.725.498Zm16.289 4.287c.43 0 .827-.088 1.192-.264.364-.175.664-.416.898-.722.235-.313.368-.668.401-1.065h1.718a3.222 3.222 0 0 1-.634 1.748 4.333 4.333 0 0 1-1.514 1.299 4.393 4.393 0 0 1-2.061.488c-.794 0-1.487-.14-2.08-.42a4.127 4.127 0 0 1-1.465-1.152 5.162 5.162 0 0 1-.869-1.68 7.117 7.117 0 0 1-.283-2.021v-.41c0-.71.095-1.38.283-2.012a5.148 5.148 0 0 1 .869-1.69 4.128 4.128 0 0 1 1.465-1.152c.593-.28 1.286-.42 2.08-.42.827 0 1.55.17 2.168.508a3.72 3.72 0 0 1 1.455 1.367c.359.573.554 1.224.586 1.953h-1.718a2.618 2.618 0 0 0-.371-1.181 2.318 2.318 0 0 0-.86-.84c-.358-.215-.778-.322-1.26-.322-.553 0-1.018.11-1.396.332a2.453 2.453 0 0 0-.889.879 4.08 4.08 0 0 0-.468 1.22 6.653 6.653 0 0 0-.137 1.358v.41c0 .462.045.918.137 1.367.091.45.244.856.458 1.22.222.365.518.658.889.88.378.214.847.322 1.406.322Zm5.762-3.877v-.225c0-.761.111-1.468.332-2.119a5.058 5.058 0 0 1 .957-1.709 4.271 4.271 0 0 1 1.514-1.133c.592-.273 1.256-.41 1.992-.41.742 0 1.41.137 2.002.41a4.242 4.242 0 0 1 1.523 1.133 4.93 4.93 0 0 1 .967 1.71c.222.65.332 1.357.332 2.118v.225c0 .762-.11 1.468-.332 2.12a5.05 5.05 0 0 1-.967 1.708c-.416.482-.921.86-1.513 1.133-.586.267-1.25.4-1.992.4-.743 0-1.41-.133-2.002-.4a4.524 4.524 0 0 1-1.524-1.133 5.185 5.185 0 0 1-.957-1.709 6.553 6.553 0 0 1-.332-2.119Zm1.807-.225v.225c0 .527.062 1.025.185 1.494.124.462.31.872.557 1.23.254.359.57.642.947.85.378.202.817.303 1.319.303.494 0 .927-.101 1.298-.303a2.72 2.72 0 0 0 .938-.85 3.95 3.95 0 0 0 .557-1.23 5.57 5.57 0 0 0 .195-1.494v-.225c0-.52-.065-1.012-.195-1.474a3.803 3.803 0 0 0-.567-1.24 2.691 2.691 0 0 0-.937-.86c-.371-.208-.808-.312-1.309-.312-.495 0-.931.104-1.309.312a2.81 2.81 0 0 0-.937.86 3.938 3.938 0 0 0-.557 1.24 5.713 5.713 0 0 0-.185 1.474Zm11.885-2.92V46h-1.807V35.434h1.709l.098 2.256Zm-.43 2.627-.752-.029a6.35 6.35 0 0 1 .322-2.002 4.984 4.984 0 0 1 .879-1.611 3.92 3.92 0 0 1 3.096-1.436c.521 0 .989.072 1.406.215.417.137.772.358 1.064.664.3.306.528.703.684 1.192.156.481.234 1.07.234 1.767V46h-1.816v-6.943c0-.554-.081-.997-.244-1.329a1.5 1.5 0 0 0-.713-.732c-.313-.156-.697-.234-1.152-.234-.45 0-.86.094-1.231.283-.364.189-.68.45-.947.781a3.92 3.92 0 0 0-.615 1.143 4.154 4.154 0 0 0-.215 1.347Zm14.101-4.882v1.386h-5.712v-1.386h5.712Zm-3.779-2.569h1.807v10.518c0 .358.055.628.166.81.11.183.254.303.429.362a1.8 1.8 0 0 0 .567.088c.15 0 .306-.013.469-.04.169-.032.296-.058.38-.078l.01 1.475a4.22 4.22 0 0 1-.566.127 4.317 4.317 0 0 1-.83.068c-.443 0-.85-.088-1.221-.263-.371-.176-.667-.47-.889-.88-.214-.416-.322-.976-.322-1.679V32.865Zm7.705 4.229V46h-1.806V35.434h1.757l.049 1.66Zm3.301-1.719-.01 1.68a2.61 2.61 0 0 0-.429-.059 4.592 4.592 0 0 0-.45-.02c-.416 0-.784.066-1.103.196-.319.13-.589.312-.811.547a2.632 2.632 0 0 0-.527.84c-.124.319-.205.67-.244 1.054l-.508.293c0-.638.062-1.237.185-1.797.131-.56.329-1.054.596-1.484a2.92 2.92 0 0 1 1.016-1.016c.416-.247.911-.37 1.484-.37.13 0 .28.016.449.048.17.026.287.055.352.088Zm.996 5.459v-.225c0-.761.111-1.468.332-2.119.221-.657.54-1.227.957-1.709a4.271 4.271 0 0 1 1.514-1.133c.592-.273 1.256-.41 1.992-.41.742 0 1.409.137 2.002.41a4.242 4.242 0 0 1 1.523 1.133 4.93 4.93 0 0 1 .967 1.71c.222.65.332 1.357.332 2.118v.225c0 .762-.11 1.468-.332 2.12a5.05 5.05 0 0 1-.967 1.708c-.416.482-.921.86-1.513 1.133-.586.267-1.25.4-1.992.4-.743 0-1.41-.133-2.002-.4a4.524 4.524 0 0 1-1.524-1.133 5.15 5.15 0 0 1-.957-1.709 6.553 6.553 0 0 1-.332-2.119Zm1.807-.225v.225c0 .527.062 1.025.185 1.494.124.462.309.872.557 1.23.254.359.57.642.947.85.378.202.817.303 1.319.303.494 0 .927-.101 1.298-.303a2.73 2.73 0 0 0 .938-.85c.247-.358.433-.768.556-1.23a5.53 5.53 0 0 0 .196-1.494v-.225c0-.52-.065-1.012-.196-1.474a3.78 3.78 0 0 0-.566-1.24 2.691 2.691 0 0 0-.937-.86c-.372-.208-.808-.312-1.309-.312-.495 0-.931.104-1.309.312a2.81 2.81 0 0 0-.937.86 3.915 3.915 0 0 0-.557 1.24 5.713 5.713 0 0 0-.185 1.474ZM543.887 31v15h-1.817V31h1.817Zm9.668 6.465v12.597h-1.817V35.434h1.66l.157 2.03Zm7.119 3.164v.205c0 .768-.091 1.481-.274 2.139a5.263 5.263 0 0 1-.8 1.699 3.644 3.644 0 0 1-1.28 1.123c-.508.267-1.09.4-1.748.4-.67 0-1.263-.11-1.777-.332a3.51 3.51 0 0 1-1.309-.966 4.943 4.943 0 0 1-.859-1.524 8.827 8.827 0 0 1-.43-2.002v-1.094a9.173 9.173 0 0 1 .44-2.1 5.245 5.245 0 0 1 .849-1.581 3.487 3.487 0 0 1 1.299-1.006c.508-.235 1.094-.352 1.758-.352.664 0 1.253.13 1.768.39.514.255.947.62 1.298 1.095.352.475.616 1.045.791 1.709.183.657.274 1.39.274 2.197Zm-1.817.205v-.205c0-.527-.055-1.022-.166-1.484a3.743 3.743 0 0 0-.517-1.23 2.467 2.467 0 0 0-.879-.84c-.358-.21-.785-.313-1.279-.313-.456 0-.853.078-1.192.234a2.568 2.568 0 0 0-.849.635c-.235.26-.427.56-.577.898a5.2 5.2 0 0 0-.322 1.035v2.53c.13.456.313.885.547 1.289.234.397.547.72.938.967.39.24.882.36 1.474.36.488 0 .908-.1 1.26-.302.358-.208.651-.491.879-.85.234-.358.407-.768.517-1.23.111-.469.166-.967.166-1.494ZM564.941 31v15h-1.816V31h1.816Zm9.131 13.193v-5.44c0-.416-.084-.777-.254-1.083a1.657 1.657 0 0 0-.742-.723c-.332-.169-.742-.254-1.23-.254-.456 0-.856.079-1.201.235a2.087 2.087 0 0 0-.801.615 1.347 1.347 0 0 0-.283.82h-1.807c0-.377.098-.752.293-1.123.195-.37.475-.706.84-1.006a4.2 4.2 0 0 1 1.328-.722 5.234 5.234 0 0 1 1.738-.274c.768 0 1.445.13 2.031.39a3.047 3.047 0 0 1 1.387 1.182c.339.521.508 1.176.508 1.963v4.922c0 .352.029.726.088 1.123.065.398.159.74.283 1.026V46h-1.885a3.376 3.376 0 0 1-.215-.83 6.705 6.705 0 0 1-.078-.977Zm.313-4.6.019 1.27h-1.826c-.514 0-.973.043-1.377.127a3.148 3.148 0 0 0-1.015.362 1.71 1.71 0 0 0-.625.615c-.144.24-.215.524-.215.85 0 .331.075.634.224.908.15.273.375.491.674.654.306.156.68.234 1.123.234.554 0 1.042-.117 1.465-.351a3.061 3.061 0 0 0 1.006-.86c.254-.338.391-.667.41-.986l.772.87c-.046.273-.17.575-.372.907a4.365 4.365 0 0 1-2.002 1.709c-.455.196-.97.293-1.542.293-.717 0-1.345-.14-1.885-.42a3.218 3.218 0 0 1-1.25-1.123 2.973 2.973 0 0 1-.44-1.592c0-.566.111-1.064.332-1.494.222-.436.541-.797.957-1.084a4.575 4.575 0 0 1 1.504-.664 7.93 7.93 0 0 1 1.963-.224h2.1Zm6.142-1.904V46h-1.806V35.434h1.709l.097 2.256Zm-.429 2.627-.752-.029a6.35 6.35 0 0 1 .322-2.002 4.984 4.984 0 0 1 .879-1.611 3.91 3.91 0 0 1 1.348-1.055 3.975 3.975 0 0 1 1.748-.38c.52 0 .989.07 1.406.214.416.137.771.358 1.064.664.3.306.528.703.684 1.192.156.481.234 1.07.234 1.767V46h-1.816v-6.943c0-.554-.082-.997-.244-1.329a1.504 1.504 0 0 0-.713-.732c-.313-.156-.697-.234-1.153-.234a2.67 2.67 0 0 0-1.23.283c-.365.189-.68.45-.947.781a3.924 3.924 0 0 0-.616 1.143 4.18 4.18 0 0 0-.214 1.347Zm14.062 5.88c-.736 0-1.403-.124-2.002-.372a4.546 4.546 0 0 1-1.533-1.064 4.741 4.741 0 0 1-.977-1.621 5.966 5.966 0 0 1-.341-2.051v-.41c0-.86.127-1.625.381-2.295a5.11 5.11 0 0 1 1.035-1.719 4.434 4.434 0 0 1 1.484-1.064 4.261 4.261 0 0 1 1.719-.362c.755 0 1.406.13 1.953.39a3.564 3.564 0 0 1 1.357 1.095c.352.462.612 1.009.782 1.64.169.625.253 1.309.253 2.051v.81h-7.89V39.75h6.084v-.137a4.513 4.513 0 0 0-.293-1.367 2.46 2.46 0 0 0-.781-1.094c-.358-.286-.847-.43-1.465-.43a2.46 2.46 0 0 0-2.022 1.026 3.85 3.85 0 0 0-.576 1.24c-.137.489-.205 1.052-.205 1.69v.41c0 .501.068.973.205 1.416.143.436.348.82.615 1.152.274.332.603.593.987.782.39.188.833.283 1.328.283.638 0 1.178-.13 1.621-.39a4.01 4.01 0 0 0 1.162-1.046l1.094.87a5.079 5.079 0 0 1-.869.986 4.157 4.157 0 0 1-1.299.761c-.508.196-1.11.293-1.807.293Z" fill="#000"/><g filter="url(#b)" shape-rendering="crispEdges"><ellipse cx="152.5" cy="194.274" rx="63.5" ry="33.711" fill="#000" fill-opacity=".42"/><path d="M215.5 194.274c0 9.034-6.905 17.329-18.333 23.396-11.406 6.055-27.197 9.815-44.667 9.815-17.47 0-33.261-3.76-44.667-9.815-11.427-6.067-18.333-14.362-18.333-23.396 0-9.033 6.906-17.328 18.333-23.395 11.406-6.055 27.197-9.815 44.667-9.815 17.47 0 33.261 3.76 44.667 9.815 11.428 6.067 18.333 14.362 18.333 23.395Z" stroke="#000"/></g><path d="M118.818 191.664v.629c0 .747-.093 1.417-.28 2.01a4.313 4.313 0 0 1-.807 1.51c-.35.415-.772.732-1.264.95a3.965 3.965 0 0 1-1.641.329 3.94 3.94 0 0 1-1.62-.329 3.624 3.624 0 0 1-1.271-.95 4.414 4.414 0 0 1-.828-1.51c-.196-.593-.294-1.263-.294-2.01v-.629c0-.748.096-1.415.288-2.003a4.426 4.426 0 0 1 .827-1.511 3.548 3.548 0 0 1 1.264-.957 3.945 3.945 0 0 1 1.62-.328c.607 0 1.153.109 1.641.328.492.219.914.538 1.265.957.355.415.626.919.813 1.511.192.588.287 1.255.287 2.003Zm-1.305.629v-.643c0-.592-.062-1.116-.185-1.572a3.247 3.247 0 0 0-.526-1.148 2.277 2.277 0 0 0-.855-.705 2.599 2.599 0 0 0-1.135-.239c-.41 0-.781.08-1.114.239-.328.16-.61.395-.847.705a3.406 3.406 0 0 0-.54 1.148c-.128.456-.192.98-.192 1.572v.643c0 .597.064 1.125.192 1.586.127.455.309.841.546 1.155.242.31.527.545.855.704.333.16.704.239 1.114.239.429 0 .809-.079 1.142-.239a2.23 2.23 0 0 0 .841-.704c.232-.314.407-.7.526-1.155.118-.461.178-.989.178-1.586Zm6.767-5.291v9.953h-1.299v-9.953h1.299Zm3.199 0v1.08h-7.69v-1.08h7.69Zm3.671 10.09c-.515 0-.982-.087-1.401-.26a3.179 3.179 0 0 1-1.073-.745 3.332 3.332 0 0 1-.684-1.135 4.177 4.177 0 0 1-.239-1.436v-.287c0-.601.089-1.137.267-1.606.177-.474.419-.875.724-1.203a3.097 3.097 0 0 1 1.039-.745 2.982 2.982 0 0 1 1.203-.253c.529 0 .985.091 1.368.273.387.182.704.438.95.766.246.323.428.706.547 1.148.118.438.177.916.177 1.436v.567h-5.523v-1.032h4.259v-.096a3.194 3.194 0 0 0-.205-.957 1.721 1.721 0 0 0-.547-.765c-.251-.201-.593-.301-1.026-.301a1.723 1.723 0 0 0-1.415.718 2.692 2.692 0 0 0-.403.868 4.382 4.382 0 0 0-.144 1.182v.287c0 .351.048.682.144.992.1.305.244.574.431.806.191.233.421.415.69.547.273.132.583.198.93.198.446 0 .825-.091 1.135-.273.309-.182.581-.426.813-.731l.766.608c-.16.241-.363.472-.609.69a2.904 2.904 0 0 1-.909.534c-.355.136-.777.205-1.265.205Zm5.729-10.637v10.5h-1.272v-10.5h1.272Zm8.463 9.598c.301 0 .579-.062.834-.185s.465-.292.629-.506a1.41 1.41 0 0 0 .28-.745h1.203a2.262 2.262 0 0 1-.444 1.224 3.044 3.044 0 0 1-2.502 1.251c-.556 0-1.042-.098-1.456-.294a2.894 2.894 0 0 1-1.026-.807 3.61 3.61 0 0 1-.608-1.176 4.963 4.963 0 0 1-.198-1.415v-.287c0-.497.066-.966.198-1.408.137-.447.339-.841.608-1.183.274-.342.616-.61 1.026-.806.414-.196.9-.294 1.456-.294.579 0 1.084.118 1.517.355.433.233.773.552 1.019.957.251.401.387.857.41 1.367h-1.203a1.818 1.818 0 0 0-.26-.827 1.687 1.687 0 0 0-1.483-.813c-.388 0-.713.077-.978.232-.26.151-.467.356-.622.615-.15.256-.26.54-.328.855-.064.31-.096.627-.096.95v.287c0 .324.032.643.096.957.064.315.171.6.321.855.155.255.363.46.622.615.265.15.593.226.985.226Zm4.033-2.714v-.158c0-.533.077-1.027.232-1.483.155-.46.379-.859.67-1.196a2.99 2.99 0 0 1 1.06-.793 3.279 3.279 0 0 1 1.394-.287 3.3 3.3 0 0 1 1.402.287c.419.187.775.451 1.066.793.296.337.522.736.677 1.196.155.456.232.95.232 1.483v.158c0 .533-.077 1.027-.232 1.483a3.543 3.543 0 0 1-.677 1.196 3.084 3.084 0 0 1-1.059.793 3.33 3.33 0 0 1-1.395.281 3.37 3.37 0 0 1-1.401-.281 3.163 3.163 0 0 1-1.067-.793 3.614 3.614 0 0 1-.67-1.196 4.579 4.579 0 0 1-.232-1.483Zm1.265-.158v.158c0 .369.043.717.13 1.046.086.323.216.61.389.861.178.251.399.449.663.595.265.141.572.212.923.212.346 0 .65-.071.909-.212.265-.146.483-.344.657-.595a2.75 2.75 0 0 0 .389-.861c.091-.329.137-.677.137-1.046v-.158a3.8 3.8 0 0 0-.137-1.032 2.664 2.664 0 0 0-.396-.868 1.872 1.872 0 0 0-.657-.601 1.837 1.837 0 0 0-.916-.219c-.346 0-.651.073-.916.219a1.968 1.968 0 0 0-.656.601c-.173.251-.303.54-.389.868-.087.324-.13.668-.13 1.032Zm8.428-6.726v10.5h-1.271v-10.5h1.271Zm3.405 0v10.5h-1.272v-10.5h1.272Zm5.099 10.637c-.515 0-.982-.087-1.401-.26a3.17 3.17 0 0 1-1.073-.745 3.316 3.316 0 0 1-.684-1.135 4.177 4.177 0 0 1-.239-1.436v-.287c0-.601.089-1.137.266-1.606.178-.474.42-.875.725-1.203a3.097 3.097 0 0 1 1.039-.745 2.975 2.975 0 0 1 1.203-.253c.529 0 .985.091 1.367.273.388.182.704.438.951.766.246.323.428.706.546 1.148.119.438.178.916.178 1.436v.567h-5.523v-1.032h4.259v-.096a3.165 3.165 0 0 0-.206-.957 1.711 1.711 0 0 0-.546-.765c-.251-.201-.593-.301-1.026-.301a1.723 1.723 0 0 0-1.415.718 2.692 2.692 0 0 0-.403.868 4.382 4.382 0 0 0-.144 1.182v.287c0 .351.048.682.144.992.1.305.244.574.431.806.191.233.421.415.69.547.273.132.583.198.93.198.446 0 .824-.091 1.134-.273.31-.182.581-.426.814-.731l.765.608a3.514 3.514 0 0 1-.608.69 2.904 2.904 0 0 1-.909.534c-.356.136-.777.205-1.265.205Zm7.315-1.039c.301 0 .578-.062.834-.185.255-.123.465-.292.629-.506a1.41 1.41 0 0 0 .28-.745h1.203a2.262 2.262 0 0 1-.444 1.224 3.044 3.044 0 0 1-2.502 1.251c-.556 0-1.042-.098-1.456-.294a2.894 2.894 0 0 1-1.026-.807 3.61 3.61 0 0 1-.608-1.176 4.963 4.963 0 0 1-.198-1.415v-.287c0-.497.066-.966.198-1.408.137-.447.339-.841.608-1.183.274-.342.616-.61 1.026-.806.414-.196.9-.294 1.456-.294.578 0 1.084.118 1.517.355.433.233.773.552 1.019.957.251.401.387.857.41 1.367h-1.203a1.818 1.818 0 0 0-.26-.827 1.687 1.687 0 0 0-1.483-.813c-.388 0-.713.077-.978.232-.26.151-.467.356-.622.615-.15.256-.26.54-.328.855-.064.31-.096.627-.096.95v.287c0 .324.032.643.096.957.064.315.171.6.321.855.155.255.363.46.622.615.265.15.593.226.985.226Zm7.465-6.495v.971h-3.999v-.971h3.999Zm-2.646-1.797h1.265v7.362c0 .251.038.44.116.567a.553.553 0 0 0 .301.253c.123.041.255.062.396.062.105 0 .214-.009.328-.028.119-.022.208-.041.267-.054l.007 1.032a3.085 3.085 0 0 1-.397.089 3 3 0 0 1-.581.048c-.31 0-.595-.062-.854-.185a1.373 1.373 0 0 1-.622-.615c-.151-.292-.226-.684-.226-1.176v-7.355Zm3.657 5.578v-.158c0-.533.078-1.027.233-1.483a3.52 3.52 0 0 1 .67-1.196 2.978 2.978 0 0 1 1.059-.793c.415-.192.88-.287 1.395-.287.519 0 .986.095 1.401.287a2.98 2.98 0 0 1 1.067.793c.296.337.521.736.676 1.196.155.456.233.95.233 1.483v.158c0 .533-.078 1.027-.233 1.483a3.54 3.54 0 0 1-.676 1.196 3.088 3.088 0 0 1-1.06.793c-.41.187-.875.281-1.395.281-.519 0-.986-.094-1.401-.281a3.15 3.15 0 0 1-1.066-.793 3.597 3.597 0 0 1-.67-1.196 4.579 4.579 0 0 1-.233-1.483Zm1.265-.158v.158c0 .369.043.717.13 1.046.086.323.216.61.389.861.178.251.399.449.664.595.264.141.571.212.922.212.347 0 .65-.071.91-.212.264-.146.483-.344.656-.595a2.75 2.75 0 0 0 .389-.861c.092-.329.137-.677.137-1.046v-.158c0-.364-.045-.708-.137-1.032a2.643 2.643 0 0 0-.396-.868 1.877 1.877 0 0 0-.656-.601 1.84 1.84 0 0 0-.916-.219 1.86 1.86 0 0 0-.916.219c-.26.145-.479.346-.657.601-.173.251-.303.54-.389.868-.087.324-.13.668-.13 1.032Zm8.319-2.46v6.234h-1.264v-7.397h1.23l.034 1.163Zm2.311-1.204-.007 1.176a1.852 1.852 0 0 0-.301-.041 3.22 3.22 0 0 0-.314-.014c-.292 0-.549.046-.773.137a1.602 1.602 0 0 0-.567.383c-.155.164-.278.36-.369.588a2.79 2.79 0 0 0-.171.738l-.356.205c0-.446.044-.866.13-1.258.091-.391.23-.738.417-1.039a2.05 2.05 0 0 1 .711-.711c.292-.173.638-.259 1.039-.259.091 0 .196.011.315.034.118.018.2.039.246.061Z" fill="#F3F3F3"/><path d="M38.438 216.656V222h-1.085v-6.34h1.055l.03.996Zm1.98-1.031-.006 1.008a1.525 1.525 0 0 0-.258-.035 2.676 2.676 0 0 0-.27-.012c-.25 0-.47.039-.661.117a1.377 1.377 0 0 0-.487.328 1.586 1.586 0 0 0-.316.504 2.436 2.436 0 0 0-.147.633l-.304.176c0-.383.037-.742.111-1.078.078-.336.197-.633.358-.891a1.74 1.74 0 0 1 .609-.609 1.708 1.708 0 0 1 1.16-.194.795.795 0 0 1 .211.053Zm3.516 6.492c-.442 0-.842-.074-1.202-.222a2.74 2.74 0 0 1-.92-.639 2.847 2.847 0 0 1-.585-.973 3.564 3.564 0 0 1-.205-1.23v-.246c0-.516.076-.975.228-1.377.152-.407.36-.75.621-1.032.262-.281.559-.494.89-.638a2.55 2.55 0 0 1 1.032-.217c.453 0 .844.078 1.172.234.332.157.603.375.814.657a2.8 2.8 0 0 1 .469.984c.102.375.152.785.152 1.23v.487h-4.734v-.885h3.65v-.082a2.697 2.697 0 0 0-.175-.82 1.475 1.475 0 0 0-.47-.657c-.214-.171-.507-.257-.878-.257a1.469 1.469 0 0 0-1.213.615 2.297 2.297 0 0 0-.346.744 3.77 3.77 0 0 0-.123 1.014v.246c0 .301.041.584.123.849.086.262.21.493.37.692.164.199.36.355.591.468.235.114.5.17.797.17.383 0 .707-.078.973-.234a2.4 2.4 0 0 0 .697-.627l.656.522a3.02 3.02 0 0 1-.521.591c-.211.188-.47.34-.78.457-.304.118-.665.176-1.083.176Zm6.27-.89c.257 0 .495-.053.714-.159.219-.105.398-.25.539-.433.14-.188.22-.401.24-.639h1.031a1.93 1.93 0 0 1-.38 1.049 2.6 2.6 0 0 1-.908.779 2.628 2.628 0 0 1-1.237.293c-.476 0-.893-.084-1.248-.252a2.472 2.472 0 0 1-.879-.691 3.089 3.089 0 0 1-.521-1.008 4.253 4.253 0 0 1-.17-1.213v-.246c0-.426.056-.828.17-1.207a3.08 3.08 0 0 1 .521-1.014 2.46 2.46 0 0 1 .88-.691c.354-.168.77-.252 1.247-.252.496 0 .93.102 1.3.305.372.199.663.472.874.82.215.344.332.734.351 1.172h-1.03a1.562 1.562 0 0 0-.223-.709 1.388 1.388 0 0 0-.516-.504 1.44 1.44 0 0 0-.756-.193c-.332 0-.611.066-.838.199a1.48 1.48 0 0 0-.533.527 2.463 2.463 0 0 0-.281.733 4.021 4.021 0 0 0-.082.814v.246c0 .277.027.551.082.82.054.27.146.514.275.733.133.219.31.394.533.527.227.129.508.194.844.194Zm6.374.89c-.441 0-.842-.074-1.201-.222a2.74 2.74 0 0 1-.92-.639 2.847 2.847 0 0 1-.586-.973 3.566 3.566 0 0 1-.205-1.23v-.246c0-.516.076-.975.229-1.377.152-.407.359-.75.62-1.032.262-.281.56-.494.891-.638a2.55 2.55 0 0 1 1.032-.217c.453 0 .843.078 1.171.234.332.157.604.375.815.657a2.8 2.8 0 0 1 .469.984c.101.375.152.785.152 1.23v.487H54.31v-.885h3.65v-.082a2.7 2.7 0 0 0-.175-.82 1.476 1.476 0 0 0-.469-.657c-.214-.171-.507-.257-.879-.257a1.469 1.469 0 0 0-1.212.615 2.299 2.299 0 0 0-.346.744 3.775 3.775 0 0 0-.123 1.014v.246c0 .301.04.584.123.849.086.262.209.493.369.692.164.199.361.355.592.468.234.114.5.17.797.17.383 0 .707-.078.972-.234a2.4 2.4 0 0 0 .698-.627l.656.522c-.137.207-.31.404-.522.591-.21.188-.47.34-.779.457-.305.118-.666.176-1.084.176Zm4.91-6.457V222h-1.09v-6.34h1.09Zm-1.172-1.681c0-.176.053-.325.159-.446.109-.121.27-.181.48-.181.207 0 .365.06.475.181a.63.63 0 0 1 .17.446.613.613 0 0 1-.17.433c-.11.117-.268.176-.475.176-.21 0-.371-.059-.48-.176a.638.638 0 0 1-.159-.433Zm4.84 7.042 1.735-5.361h1.107l-2.28 6.34h-.726l.164-.979Zm-1.447-5.361 1.787 5.391.123.949h-.726l-2.297-6.34h1.113Zm7.88 6.457c-.44 0-.841-.074-1.2-.222a2.739 2.739 0 0 1-.92-.639 2.846 2.846 0 0 1-.586-.973 3.566 3.566 0 0 1-.205-1.23v-.246c0-.516.076-.975.228-1.377.153-.407.36-.75.621-1.032a2.66 2.66 0 0 1 .891-.638 2.55 2.55 0 0 1 1.031-.217c.453 0 .844.078 1.172.234.332.157.604.375.815.657a2.8 2.8 0 0 1 .468.984c.102.375.153.785.153 1.23v.487h-4.735v-.885h3.65v-.082a2.703 2.703 0 0 0-.175-.82 1.476 1.476 0 0 0-.469-.657c-.215-.171-.508-.257-.879-.257a1.469 1.469 0 0 0-1.213.615 2.301 2.301 0 0 0-.345.744 3.775 3.775 0 0 0-.123 1.014v.246c0 .301.04.584.123.849.086.262.209.493.369.692.164.199.361.355.592.468.234.114.5.17.796.17.383 0 .708-.078.973-.234.266-.156.498-.365.697-.627l.657.522c-.137.207-.31.404-.522.591-.21.188-.47.34-.78.457-.304.118-.665.176-1.083.176Zm-36.228 7.543v.832h-3.427v-.832h3.427Zm-2.267-1.541h1.084v6.311c0 .215.033.377.1.486a.478.478 0 0 0 .257.217c.106.035.219.053.34.053.09 0 .184-.008.281-.024.102-.019.178-.035.229-.047l.006.885a2.55 2.55 0 0 1-.34.076 2.533 2.533 0 0 1-.498.041c-.266 0-.51-.053-.733-.158a1.176 1.176 0 0 1-.533-.527c-.129-.25-.193-.586-.193-1.008v-6.305Zm6.17 7.998c-.442 0-.842-.074-1.202-.222a2.739 2.739 0 0 1-.92-.639 2.85 2.85 0 0 1-.585-.973 3.566 3.566 0 0 1-.205-1.23v-.246c0-.516.076-.975.228-1.377.152-.407.36-.75.621-1.032.262-.281.559-.494.89-.638a2.55 2.55 0 0 1 1.032-.217c.453 0 .844.078 1.172.234.332.157.603.375.814.657a2.8 2.8 0 0 1 .47.984c.1.375.151.785.151 1.23v.487h-4.734v-.885h3.65v-.082a2.697 2.697 0 0 0-.175-.82 1.476 1.476 0 0 0-.469-.657c-.215-.171-.508-.257-.879-.257a1.469 1.469 0 0 0-1.213.615 2.297 2.297 0 0 0-.345.744 3.77 3.77 0 0 0-.124 1.014v.246c0 .301.041.584.123.849.086.262.21.493.37.692.164.199.36.355.591.468.235.114.5.17.797.17.383 0 .707-.078.973-.234.265-.156.498-.365.697-.627l.656.522c-.136.207-.31.404-.521.591-.211.188-.47.34-.78.457-.304.118-.665.176-1.083.176Zm4.91-9.117v9h-1.09v-9h1.09Zm4.37 9.117c-.44 0-.84-.074-1.2-.222a2.74 2.74 0 0 1-.92-.639 2.847 2.847 0 0 1-.586-.973 3.566 3.566 0 0 1-.205-1.23v-.246c0-.516.076-.975.228-1.377.153-.407.36-.75.621-1.032a2.66 2.66 0 0 1 .891-.638 2.55 2.55 0 0 1 1.031-.217c.453 0 .844.078 1.172.234.332.157.604.375.815.657a2.8 2.8 0 0 1 .468.984c.102.375.153.785.153 1.23v.487h-4.735v-.885h3.65v-.082a2.7 2.7 0 0 0-.175-.82 1.476 1.476 0 0 0-.469-.657c-.215-.171-.508-.257-.879-.257a1.469 1.469 0 0 0-1.213.615 2.299 2.299 0 0 0-.345.744 3.775 3.775 0 0 0-.123 1.014v.246c0 .301.04.584.123.849.086.262.209.493.369.692.164.199.361.355.592.468.234.114.5.17.796.17.383 0 .707-.078.973-.234a2.4 2.4 0 0 0 .697-.627l.657.522c-.137.207-.31.404-.522.591-.21.188-.47.34-.78.457-.304.118-.665.176-1.083.176Zm4.812-5.197V236h-1.09v-6.34h1.03l.06 1.26Zm-.223 1.67-.504-.018c.004-.433.06-.834.17-1.201.11-.371.271-.693.486-.967.215-.273.483-.484.803-.633a2.57 2.57 0 0 1 1.113-.228c.297 0 .57.043.82.129.25.082.467.213.65.392.184.18.327.411.429.692.101.281.152.621.152 1.019V236h-1.084v-4.172c0-.332-.057-.598-.17-.797a.971.971 0 0 0-.469-.433 1.687 1.687 0 0 0-.715-.141c-.32 0-.587.057-.802.17a1.348 1.348 0 0 0-.516.469 2.105 2.105 0 0 0-.281.685 3.845 3.845 0 0 0-.082.809Zm4.107-.598-.726.223c.004-.348.06-.682.17-1.002.113-.32.275-.606.486-.856.215-.25.478-.447.79-.591.313-.149.67-.223 1.073-.223.34 0 .64.045.902.135.266.09.489.228.668.416.184.183.323.42.416.709.094.289.141.633.141 1.031V236h-1.09v-4.178c0-.355-.056-.631-.17-.826a.886.886 0 0 0-.468-.416 1.874 1.874 0 0 0-.715-.123c-.239 0-.45.041-.633.123a1.302 1.302 0 0 0-.463.34c-.125.141-.22.303-.287.486a1.808 1.808 0 0 0-.094.586Zm8.192 4.125c-.442 0-.842-.074-1.201-.222a2.74 2.74 0 0 1-.92-.639 2.847 2.847 0 0 1-.586-.973 3.566 3.566 0 0 1-.206-1.23v-.246c0-.516.077-.975.229-1.377.152-.407.36-.75.621-1.032.262-.281.559-.494.89-.638a2.55 2.55 0 0 1 1.032-.217c.453 0 .844.078 1.172.234.332.157.603.375.814.657a2.8 2.8 0 0 1 .47.984c.1.375.151.785.151 1.23v.487h-4.734v-.885h3.65v-.082a2.703 2.703 0 0 0-.175-.82 1.476 1.476 0 0 0-.47-.657c-.214-.171-.507-.257-.878-.257a1.469 1.469 0 0 0-1.213.615 2.301 2.301 0 0 0-.346.744 3.775 3.775 0 0 0-.123 1.014v.246c0 .301.041.584.123.849.086.262.21.493.37.692.164.199.36.355.591.468.235.114.5.17.797.17.383 0 .707-.078.973-.234.266-.156.498-.365.697-.627l.656.522c-.136.207-.31.404-.521.591-.211.188-.47.34-.78.457-.304.118-.665.176-1.083.176Zm6.386-6.457v.832h-3.427v-.832h3.427Zm-2.267-1.541h1.084v6.311c0 .215.033.377.1.486a.477.477 0 0 0 .257.217c.106.035.219.053.34.053.09 0 .184-.008.281-.024.102-.019.178-.035.229-.047l.006.885a2.55 2.55 0 0 1-.34.076 2.532 2.532 0 0 1-.498.041c-.266 0-.51-.053-.733-.158a1.176 1.176 0 0 1-.533-.527c-.129-.25-.193-.586-.193-1.008v-6.305Zm4.623 2.537V236H73.09v-6.34h1.054l.03.996Zm1.98-1.031-.006 1.008a1.524 1.524 0 0 0-.257-.035 2.675 2.675 0 0 0-.27-.012c-.25 0-.47.039-.662.117a1.378 1.378 0 0 0-.486.328 1.587 1.587 0 0 0-.317.504 2.432 2.432 0 0 0-.146.633l-.305.176c0-.383.037-.742.111-1.078a2.94 2.94 0 0 1 .358-.891c.16-.262.363-.465.61-.609a1.708 1.708 0 0 1 1.16-.194.795.795 0 0 1 .21.053Zm2.889 5.719 1.764-5.684h1.16l-2.543 7.319a3.997 3.997 0 0 1-.235.503 2.407 2.407 0 0 1-.363.522 1.722 1.722 0 0 1-.539.398 1.615 1.615 0 0 1-.744.159c-.086 0-.195-.012-.328-.036a3.318 3.318 0 0 1-.281-.058l-.006-.879c.031.004.08.008.146.012a1.754 1.754 0 0 0 .773-.088.949.949 0 0 0 .434-.323 1.91 1.91 0 0 0 .31-.615l.452-1.23Zm-1.295-5.684 1.646 4.922.282 1.143-.78.398-2.332-6.463h1.184Zm-35.297 18.658c0-.156-.035-.3-.105-.433-.067-.137-.205-.26-.416-.369-.207-.114-.52-.211-.938-.293a7.482 7.482 0 0 1-.955-.264 2.93 2.93 0 0 1-.72-.369 1.558 1.558 0 0 1-.452-.51 1.421 1.421 0 0 1-.158-.685c0-.25.055-.487.164-.709a1.9 1.9 0 0 1 .475-.592c.207-.172.455-.307.744-.405.289-.097.611-.146.967-.146.508 0 .941.09 1.3.269.36.18.635.42.827.721.191.297.287.627.287.99h-1.084a.93.93 0 0 0-.159-.509 1.164 1.164 0 0 0-.45-.416c-.196-.11-.436-.164-.721-.164-.301 0-.545.046-.733.14a.94.94 0 0 0-.404.346.871.871 0 0 0-.065.762.711.711 0 0 0 .223.252c.106.074.254.144.445.211.192.066.436.132.733.199.52.117.947.258 1.283.422.336.164.586.365.75.603.164.238.246.527.246.867a1.686 1.686 0 0 1-.674 1.36 2.459 2.459 0 0 1-.773.386 3.45 3.45 0 0 1-1.002.135c-.559 0-1.031-.099-1.418-.299-.387-.199-.68-.457-.879-.773-.2-.316-.299-.65-.299-1.002h1.09c.016.297.102.533.258.709.156.172.347.295.574.369.227.07.451.106.674.106.297 0 .545-.039.744-.118.203-.078.358-.185.463-.322a.748.748 0 0 0 .158-.469Zm3.686-4.658V250h-1.09v-6.34h1.09Zm-1.172-1.681c0-.176.053-.325.158-.446.11-.121.27-.181.48-.181.207 0 .366.06.475.181a.63.63 0 0 1 .17.446.613.613 0 0 1-.17.433c-.11.117-.268.176-.475.176-.21 0-.37-.059-.48-.176a.639.639 0 0 1-.158-.433Zm7.02 1.681h.984v6.205c0 .559-.114 1.035-.34 1.43a2.215 2.215 0 0 1-.95.896c-.402.207-.867.311-1.394.311-.219 0-.476-.035-.773-.106a3.108 3.108 0 0 1-.867-.345 2.162 2.162 0 0 1-.71-.651l.569-.644c.266.32.543.543.832.668.293.125.582.187.867.187.344 0 .64-.064.89-.193s.444-.32.58-.574c.142-.25.212-.559.212-.926v-4.863l.1-1.395Zm-4.366 3.24v-.123c0-.484.057-.923.17-1.318.117-.398.283-.74.498-1.025a2.237 2.237 0 0 1 1.834-.891c.398 0 .746.07 1.043.211.3.137.555.338.762.603.21.262.377.579.498.95.12.371.205.791.252 1.259v.539a5.521 5.521 0 0 1-.252 1.254 2.967 2.967 0 0 1-.498.95 2.095 2.095 0 0 1-.762.603 2.52 2.52 0 0 1-1.055.205 2.2 2.2 0 0 1-1.03-.24 2.347 2.347 0 0 1-.786-.674 3.192 3.192 0 0 1-.504-1.019 4.64 4.64 0 0 1-.17-1.284Zm1.084-.123v.123c0 .317.031.614.094.891.066.277.166.521.299.732.136.211.31.377.521.498.211.118.463.176.756.176.36 0 .656-.076.89-.228.235-.153.42-.354.557-.604.14-.25.25-.521.328-.814v-1.412a2.865 2.865 0 0 0-.199-.621 1.896 1.896 0 0 0-.34-.539 1.45 1.45 0 0 0-.51-.381 1.687 1.687 0 0 0-.714-.141 1.5 1.5 0 0 0-.768.188 1.499 1.499 0 0 0-.521.503 2.415 2.415 0 0 0-.3.739 4.04 4.04 0 0 0-.093.89Zm6.996-1.763V250h-1.084v-6.34h1.026l.058 1.354Zm-.258 1.576-.45-.018c.003-.433.068-.834.193-1.201.125-.371.3-.693.527-.967.227-.273.496-.484.809-.633a2.39 2.39 0 0 1 1.048-.228c.313 0 .594.043.844.129.25.082.463.215.639.398.18.184.316.422.41.715.094.289.14.643.14 1.061V250h-1.09v-4.166c0-.332-.048-.598-.146-.797a.9.9 0 0 0-.428-.439 1.532 1.532 0 0 0-.69-.141c-.27 0-.517.057-.74.17a1.753 1.753 0 0 0-.567.469 2.35 2.35 0 0 0-.37.685 2.51 2.51 0 0 0-.129.809Zm9.545 2.326v-3.264c0-.25-.05-.466-.152-.65a.998.998 0 0 0-.445-.434 1.621 1.621 0 0 0-.739-.152c-.273 0-.513.047-.72.141a1.242 1.242 0 0 0-.48.369.807.807 0 0 0-.17.492h-1.085c0-.227.059-.451.176-.674.117-.223.285-.424.504-.603.223-.184.488-.329.797-.434a3.15 3.15 0 0 1 1.043-.164c.46 0 .867.078 1.219.234.355.157.632.393.832.709.203.313.304.705.304 1.178v2.953c0 .211.018.436.053.674.04.238.096.443.17.615V250h-1.13a2.027 2.027 0 0 1-.13-.498 4.022 4.022 0 0 1-.047-.586Zm.188-2.76.011.762H64.09c-.309 0-.584.025-.826.076a1.885 1.885 0 0 0-.61.217 1.037 1.037 0 0 0-.375.369.982.982 0 0 0-.129.51c0 .199.045.381.135.545.09.164.225.295.405.392.183.094.408.141.673.141a1.824 1.824 0 0 0 1.482-.727c.153-.203.235-.4.247-.591l.463.521a1.574 1.574 0 0 1-.223.545 2.615 2.615 0 0 1-1.201 1.025 2.315 2.315 0 0 1-.926.176c-.43 0-.807-.084-1.13-.252a1.929 1.929 0 0 1-.75-.674 1.782 1.782 0 0 1-.265-.955c0-.34.067-.638.2-.896.133-.262.324-.479.574-.651.25-.175.55-.308.902-.398a4.76 4.76 0 0 1 1.178-.135h1.26Zm3.78-5.156v9h-1.09v-9h1.09Zm5.43 7.318c0-.156-.034-.3-.105-.433-.066-.137-.205-.26-.416-.369-.207-.114-.52-.211-.937-.293a7.482 7.482 0 0 1-.955-.264 2.93 2.93 0 0 1-.721-.369 1.558 1.558 0 0 1-.451-.51 1.421 1.421 0 0 1-.158-.685c0-.25.054-.487.164-.709a1.9 1.9 0 0 1 .474-.592c.207-.172.455-.307.744-.405.29-.097.612-.146.967-.146.508 0 .942.09 1.301.269.36.18.635.42.826.721.192.297.287.627.287.99H74.32a.93.93 0 0 0-.158-.509 1.164 1.164 0 0 0-.451-.416c-.195-.11-.436-.164-.72-.164-.302 0-.546.046-.733.14a.94.94 0 0 0-.404.346.871.871 0 0 0-.065.762.71.71 0 0 0 .223.252c.105.074.254.144.445.211.191.066.436.132.733.199.519.117.947.258 1.283.422.336.164.586.365.75.603.164.238.246.527.246.867a1.686 1.686 0 0 1-.674 1.36 2.459 2.459 0 0 1-.773.386 3.45 3.45 0 0 1-1.003.135c-.558 0-1.03-.099-1.417-.299-.387-.199-.68-.457-.88-.773a1.85 1.85 0 0 1-.298-1.002h1.09c.015.297.101.533.258.709.156.172.347.295.574.369.226.07.45.106.673.106.297 0 .545-.039.745-.118.203-.078.357-.185.463-.322a.748.748 0 0 0 .158-.469Zm152.731-32.658V222h-1.09v-6.34h1.09Zm-1.172-1.681c0-.176.053-.325.159-.446.109-.121.269-.181.48-.181.207 0 .365.06.475.181a.63.63 0 0 1 .17.446.614.614 0 0 1-.17.433c-.11.117-.268.176-.475.176-.211 0-.371-.059-.48-.176a.636.636 0 0 1-.159-.433Zm3.996 3.035V222h-1.084v-6.34h1.026l.058 1.354Zm-.257 1.576-.452-.018c.004-.433.069-.834.194-1.201.125-.371.301-.693.527-.967.227-.273.496-.484.809-.633a2.39 2.39 0 0 1 1.049-.228c.312 0 .593.043.843.129.25.082.463.215.639.398.18.184.316.422.41.715.094.289.141.643.141 1.061V222h-1.09v-4.166c0-.332-.049-.598-.147-.797a.899.899 0 0 0-.427-.439 1.535 1.535 0 0 0-.692-.141 1.61 1.61 0 0 0-.738.17 1.748 1.748 0 0 0-.568.469c-.157.199-.28.427-.369.685a2.507 2.507 0 0 0-.129.809Zm9.914-2.93h.984v6.205c0 .559-.113 1.035-.34 1.43a2.213 2.213 0 0 1-.949.896c-.402.207-.867.311-1.395.311-.218 0-.476-.035-.773-.106a3.103 3.103 0 0 1-.867-.345 2.16 2.16 0 0 1-.709-.651l.568-.644c.266.32.543.543.832.668.293.125.582.187.867.187.344 0 .641-.064.891-.193s.443-.32.58-.574c.141-.25.211-.559.211-.926v-4.863l.1-1.395Zm-4.366 3.24v-.123c0-.484.057-.923.17-1.318a3.21 3.21 0 0 1 .498-1.025c.219-.286.483-.504.791-.657a2.283 2.283 0 0 1 1.043-.234c.399 0 .747.07 1.043.211.301.137.555.338.762.603.211.262.377.579.498.95s.205.791.252 1.259v.539a5.521 5.521 0 0 1-.252 1.254 2.963 2.963 0 0 1-.498.95 2.093 2.093 0 0 1-.762.603c-.3.137-.652.205-1.054.205a2.21 2.21 0 0 1-1.032-.24 2.357 2.357 0 0 1-.785-.674 3.227 3.227 0 0 1-.504-1.019 4.652 4.652 0 0 1-.17-1.284Zm1.084-.123v.123c0 .317.032.614.094.891.067.277.166.521.299.732.137.211.311.377.522.498.21.118.462.176.755.176.36 0 .657-.076.891-.228.234-.153.42-.354.557-.604.14-.25.25-.521.328-.814v-1.412a2.92 2.92 0 0 0-.199-.621 1.912 1.912 0 0 0-.34-.539 1.455 1.455 0 0 0-.51-.381 1.686 1.686 0 0 0-.715-.141c-.297 0-.553.063-.767.188a1.502 1.502 0 0 0-.522.503 2.425 2.425 0 0 0-.299.739 4.07 4.07 0 0 0-.094.89Zm8.543 3.34a3.13 3.13 0 0 1-1.201-.222 2.746 2.746 0 0 1-.92-.639 2.85 2.85 0 0 1-.586-.973 3.583 3.583 0 0 1-.205-1.23v-.246c0-.516.076-.975.229-1.377.152-.407.359-.75.621-1.032a2.66 2.66 0 0 1 .891-.638 2.547 2.547 0 0 1 1.031-.217c.453 0 .844.078 1.172.234.332.157.603.375.814.657.211.277.367.605.469.984.101.375.152.785.152 1.23v.487h-4.734v-.885h3.65v-.082a2.668 2.668 0 0 0-.176-.82 1.468 1.468 0 0 0-.468-.657c-.215-.171-.508-.257-.879-.257a1.47 1.47 0 0 0-1.213.615 2.287 2.287 0 0 0-.346.744 3.775 3.775 0 0 0-.123 1.014v.246c0 .301.041.584.123.849.086.262.209.493.369.692.164.199.362.355.592.468.235.114.5.17.797.17.383 0 .707-.078.973-.234.265-.156.498-.365.697-.627l.656.522a3.02 3.02 0 0 1-.521.591c-.211.188-.471.34-.78.457-.304.118-.666.176-1.084.176Zm7.424-1.799c0-.156-.035-.3-.105-.433-.067-.137-.205-.26-.416-.369-.207-.114-.52-.211-.938-.293a7.498 7.498 0 0 1-.955-.264 2.95 2.95 0 0 1-.721-.369 1.566 1.566 0 0 1-.451-.51 1.426 1.426 0 0 1-.158-.685c0-.25.055-.487.164-.709a1.9 1.9 0 0 1 .475-.592c.207-.172.455-.307.744-.405.289-.097.611-.146.967-.146.508 0 .941.09 1.301.269.359.18.634.42.826.721.191.297.287.627.287.99h-1.084a.933.933 0 0 0-.158-.509 1.165 1.165 0 0 0-.452-.416c-.195-.11-.435-.164-.72-.164-.301 0-.545.046-.733.14a.942.942 0 0 0-.404.346.871.871 0 0 0-.064.762.714.714 0 0 0 .222.252c.106.074.254.144.446.211.191.066.435.132.732.199.519.117.947.258 1.283.422.336.164.586.365.75.603.164.238.246.527.246.867a1.68 1.68 0 0 1-.674 1.36 2.446 2.446 0 0 1-.773.386 3.45 3.45 0 0 1-1.002.135c-.559 0-1.031-.099-1.418-.299-.387-.199-.68-.457-.879-.773a1.85 1.85 0 0 1-.299-1.002h1.09c.016.297.102.533.258.709.156.172.348.295.574.369.227.07.451.106.674.106.297 0 .545-.039.744-.118.203-.078.358-.185.463-.322a.744.744 0 0 0 .158-.469Zm5.162-4.658v.832h-3.427v-.832h3.427Zm-2.267-1.541h1.084v6.311c0 .215.033.377.099.486a.482.482 0 0 0 .258.217c.106.035.219.053.34.053.09 0 .184-.008.281-.024.102-.019.178-.035.229-.047l.006.885a2.55 2.55 0 0 1-.34.076 2.536 2.536 0 0 1-.498.041c-.266 0-.51-.053-.733-.158a1.18 1.18 0 0 1-.533-.527c-.129-.25-.193-.586-.193-1.008v-6.305Zm-35.315 15.541v.832h-3.427v-.832h3.427Zm-2.267-1.541h1.084v6.311c0 .215.033.377.099.486a.482.482 0 0 0 .258.217c.106.035.219.053.34.053.09 0 .184-.008.281-.024.102-.019.178-.035.229-.047l.006.885a2.55 2.55 0 0 1-.34.076 2.536 2.536 0 0 1-.498.041c-.266 0-.51-.053-.733-.158a1.18 1.18 0 0 1-.533-.527c-.129-.25-.193-.586-.193-1.008v-6.305Zm6.17 7.998c-.442 0-.842-.074-1.202-.222a2.732 2.732 0 0 1-.919-.639 2.835 2.835 0 0 1-.586-.973 3.56 3.56 0 0 1-.205-1.23v-.246c0-.516.076-.975.228-1.377.152-.407.359-.75.621-1.032a2.66 2.66 0 0 1 .891-.638 2.55 2.55 0 0 1 1.031-.217c.453 0 .844.078 1.172.234.332.157.603.375.814.657.211.277.368.605.469.984.102.375.152.785.152 1.23v.487h-4.734v-.885h3.65v-.082a2.696 2.696 0 0 0-.175-.82 1.478 1.478 0 0 0-.469-.657c-.215-.171-.508-.257-.879-.257a1.47 1.47 0 0 0-1.213.615 2.308 2.308 0 0 0-.346.744 3.775 3.775 0 0 0-.123 1.014v.246c0 .301.041.584.123.849.086.262.209.493.37.692.164.199.361.355.591.468.235.114.5.17.797.17.383 0 .707-.078.973-.234.266-.156.498-.365.697-.627l.656.522c-.136.207-.31.404-.521.591-.211.188-.471.34-.779.457-.305.118-.666.176-1.084.176Zm4.91-9.117v9h-1.09v-9h1.09Zm4.371 9.117c-.441 0-.842-.074-1.201-.222a2.736 2.736 0 0 1-.92-.639 2.85 2.85 0 0 1-.586-.973 3.56 3.56 0 0 1-.205-1.23v-.246c0-.516.076-.975.228-1.377.153-.407.36-.75.621-1.032a2.66 2.66 0 0 1 .891-.638 2.55 2.55 0 0 1 1.031-.217c.453 0 .844.078 1.172.234.332.157.604.375.815.657.211.277.367.605.468.984.102.375.153.785.153 1.23v.487h-4.735v-.885h3.651v-.082a2.698 2.698 0 0 0-.176-.82 1.478 1.478 0 0 0-.469-.657c-.215-.171-.508-.257-.879-.257a1.466 1.466 0 0 0-1.213.615 2.307 2.307 0 0 0-.345.744 3.775 3.775 0 0 0-.123 1.014v.246c0 .301.041.584.123.849.086.262.209.493.369.692.164.199.361.355.592.468.234.114.5.17.797.17.382 0 .707-.078.972-.234.266-.156.498-.365.697-.627l.657.522a3.026 3.026 0 0 1-.522.591 2.47 2.47 0 0 1-.779.457c-.305.118-.666.176-1.084.176Zm4.81-5.197V236h-1.089v-6.34h1.031l.058 1.26Zm-.222 1.67-.504-.018c.004-.433.06-.834.17-1.201.109-.371.271-.693.486-.967.215-.273.483-.484.803-.633.32-.152.691-.228 1.113-.228.297 0 .57.043.82.129.25.082.467.213.651.392.183.18.326.411.428.692.101.281.152.621.152 1.019V236h-1.084v-4.172c0-.332-.057-.598-.17-.797a.971.971 0 0 0-.469-.433 1.686 1.686 0 0 0-.715-.141c-.32 0-.587.057-.802.17a1.349 1.349 0 0 0-.516.469 2.09 2.09 0 0 0-.281.685 3.819 3.819 0 0 0-.082.809Zm4.107-.598-.726.223c.004-.348.06-.682.17-1.002.113-.32.275-.606.486-.856a2.29 2.29 0 0 1 .791-.591 2.46 2.46 0 0 1 1.072-.223c.34 0 .641.045.903.135.265.09.488.228.668.416.183.183.322.42.416.709.093.289.14.633.14 1.031V236h-1.09v-4.178c0-.355-.056-.631-.17-.826a.883.883 0 0 0-.468-.416 1.88 1.88 0 0 0-.715-.123 1.54 1.54 0 0 0-.633.123 1.3 1.3 0 0 0-.463.34 1.485 1.485 0 0 0-.287.486 1.795 1.795 0 0 0-.094.586Zm8.192 4.125c-.442 0-.842-.074-1.202-.222a2.732 2.732 0 0 1-.919-.639 2.835 2.835 0 0 1-.586-.973 3.56 3.56 0 0 1-.205-1.23v-.246c0-.516.076-.975.228-1.377.152-.407.359-.75.621-1.032a2.66 2.66 0 0 1 .891-.638 2.55 2.55 0 0 1 1.031-.217c.453 0 .844.078 1.172.234.332.157.603.375.814.657.211.277.368.605.469.984.102.375.152.785.152 1.23v.487h-4.734v-.885h3.65v-.082a2.696 2.696 0 0 0-.175-.82 1.478 1.478 0 0 0-.469-.657c-.215-.171-.508-.257-.879-.257a1.47 1.47 0 0 0-1.213.615 2.308 2.308 0 0 0-.346.744 3.775 3.775 0 0 0-.123 1.014v.246c0 .301.041.584.123.849.086.262.209.493.37.692.164.199.361.355.591.468.235.114.5.17.797.17.383 0 .707-.078.973-.234.266-.156.498-.365.697-.627l.656.522c-.136.207-.31.404-.521.591-.211.188-.471.34-.779.457-.305.118-.666.176-1.084.176Zm6.386-6.457v.832h-3.427v-.832h3.427Zm-2.267-1.541h1.084v6.311c0 .215.033.377.099.486a.482.482 0 0 0 .258.217c.106.035.219.053.34.053.09 0 .184-.008.281-.024.102-.019.178-.035.229-.047l.006.885a2.55 2.55 0 0 1-.34.076 2.536 2.536 0 0 1-.498.041c-.266 0-.51-.053-.733-.158a1.18 1.18 0 0 1-.533-.527c-.129-.25-.193-.586-.193-1.008v-6.305Zm4.623 2.537V236h-1.084v-6.34h1.055l.029.996Zm1.98-1.031-.006 1.008a1.506 1.506 0 0 0-.257-.035 2.692 2.692 0 0 0-.27-.012c-.25 0-.471.039-.662.117a1.373 1.373 0 0 0-.486.328 1.583 1.583 0 0 0-.317.504 2.424 2.424 0 0 0-.146.633l-.305.176c0-.383.037-.742.111-1.078.079-.336.198-.633.358-.891a1.74 1.74 0 0 1 .609-.609 1.708 1.708 0 0 1 1.16-.194.79.79 0 0 1 .211.053Zm2.889 5.719 1.764-5.684h1.16l-2.543 7.319a4.008 4.008 0 0 1-.235.503 2.358 2.358 0 0 1-.363.522 1.715 1.715 0 0 1-.539.398 1.615 1.615 0 0 1-.744.159c-.086 0-.195-.012-.328-.036a3.231 3.231 0 0 1-.281-.058l-.006-.879c.031.004.08.008.146.012a1.755 1.755 0 0 0 .774-.088.946.946 0 0 0 .433-.323c.121-.148.225-.353.311-.615l.451-1.23Zm-1.295-5.684 1.647 4.922.281 1.143-.78.398-2.332-6.463h1.184Zm-35.297 18.658c0-.156-.035-.3-.105-.433-.067-.137-.205-.26-.416-.369-.207-.114-.52-.211-.938-.293a7.498 7.498 0 0 1-.955-.264 2.95 2.95 0 0 1-.721-.369 1.566 1.566 0 0 1-.451-.51 1.426 1.426 0 0 1-.158-.685c0-.25.055-.487.164-.709a1.9 1.9 0 0 1 .475-.592c.207-.172.455-.307.744-.405.289-.097.611-.146.967-.146.507 0 .941.09 1.3.269.36.18.635.42.827.721.191.297.287.627.287.99h-1.084a.933.933 0 0 0-.158-.509 1.165 1.165 0 0 0-.452-.416c-.195-.11-.435-.164-.72-.164-.301 0-.545.046-.733.14a.942.942 0 0 0-.404.346.871.871 0 0 0-.065.762.717.717 0 0 0 .223.252c.106.074.254.144.445.211.192.066.436.132.733.199.519.117.947.258 1.283.422.336.164.586.365.75.603.164.238.246.527.246.867a1.68 1.68 0 0 1-.674 1.36 2.456 2.456 0 0 1-.773.386 3.45 3.45 0 0 1-1.002.135c-.559 0-1.031-.099-1.418-.299-.387-.199-.68-.457-.879-.773a1.85 1.85 0 0 1-.299-1.002h1.09c.016.297.102.533.258.709.156.172.348.295.574.369.227.07.451.106.674.106.297 0 .545-.039.744-.118.203-.078.358-.185.463-.322a.75.75 0 0 0 .158-.469Zm3.686-4.658V250h-1.09v-6.34h1.09Zm-1.172-1.681c0-.176.053-.325.158-.446.109-.121.27-.181.481-.181.207 0 .365.06.474.181a.63.63 0 0 1 .17.446.614.614 0 0 1-.17.433c-.109.117-.267.176-.474.176-.211 0-.372-.059-.481-.176a.64.64 0 0 1-.158-.433Zm7.019 1.681h.985v6.205c0 .559-.114 1.035-.34 1.43a2.218 2.218 0 0 1-.949.896c-.403.207-.868.311-1.395.311-.219 0-.476-.035-.773-.106a3.103 3.103 0 0 1-.867-.345 2.15 2.15 0 0 1-.709-.651l.568-.644c.266.32.543.543.832.668.293.125.582.187.867.187.344 0 .641-.064.891-.193s.443-.32.58-.574c.14-.25.211-.559.211-.926v-4.863l.099-1.395Zm-4.365 3.24v-.123c0-.484.057-.923.17-1.318.117-.398.283-.74.498-1.025.219-.286.483-.504.791-.657a2.28 2.28 0 0 1 1.043-.234c.399 0 .746.07 1.043.211.301.137.555.338.762.603.211.262.377.579.498.95s.205.791.252 1.259v.539a5.521 5.521 0 0 1-.252 1.254 2.963 2.963 0 0 1-.498.95 2.093 2.093 0 0 1-.762.603 2.523 2.523 0 0 1-1.055.205c-.379 0-.722-.08-1.031-.24a2.347 2.347 0 0 1-.785-.674 3.186 3.186 0 0 1-.504-1.019 4.652 4.652 0 0 1-.17-1.284Zm1.084-.123v.123c0 .317.031.614.094.891.066.277.166.521.299.732.136.211.31.377.521.498.211.118.463.176.756.176.359 0 .656-.076.891-.228.234-.153.42-.354.556-.604.141-.25.25-.521.328-.814v-1.412a2.865 2.865 0 0 0-.199-.621 1.89 1.89 0 0 0-.34-.539 1.442 1.442 0 0 0-.509-.381 1.692 1.692 0 0 0-.715-.141c-.297 0-.553.063-.768.188a1.491 1.491 0 0 0-.521.503 2.4 2.4 0 0 0-.299.739 4.01 4.01 0 0 0-.094.89Zm6.996-1.763V250h-1.084v-6.34h1.026l.058 1.354Zm-.258 1.576-.451-.018c.004-.433.069-.834.194-1.201.125-.371.3-.693.527-.967.227-.273.496-.484.809-.633a2.388 2.388 0 0 1 1.048-.228c.313 0 .594.043.844.129.25.082.463.215.639.398.179.184.316.422.41.715.094.289.141.643.141 1.061V250h-1.09v-4.166c0-.332-.049-.598-.147-.797a.899.899 0 0 0-.427-.439 1.535 1.535 0 0 0-.692-.141c-.269 0-.516.057-.738.17a1.762 1.762 0 0 0-.569.469 2.36 2.36 0 0 0-.369.685 2.507 2.507 0 0 0-.129.809Zm9.545 2.326v-3.264c0-.25-.05-.466-.152-.65a1 1 0 0 0-.445-.434 1.627 1.627 0 0 0-.739-.152c-.273 0-.513.047-.72.141a1.243 1.243 0 0 0-.481.369.809.809 0 0 0-.17.492h-1.084c0-.227.059-.451.176-.674.117-.223.285-.424.504-.603.223-.184.488-.329.797-.434.312-.109.66-.164 1.043-.164.461 0 .867.078 1.219.234.355.157.632.393.832.709.203.313.304.705.304 1.178v2.953c0 .211.018.436.053.674.039.238.096.443.17.615V250h-1.131a2 2 0 0 1-.129-.498 4.051 4.051 0 0 1-.047-.586Zm.188-2.76.012.762h-1.096c-.309 0-.584.025-.826.076a1.88 1.88 0 0 0-.61.217 1.037 1.037 0 0 0-.375.369.981.981 0 0 0-.129.51c0 .199.045.381.135.545a.98.98 0 0 0 .404.392c.184.094.409.141.674.141.332 0 .625-.07.879-.211s.455-.312.604-.516c.152-.203.234-.4.246-.591l.463.521a1.59 1.59 0 0 1-.223.545 2.633 2.633 0 0 1-1.201 1.025 2.317 2.317 0 0 1-.926.176c-.43 0-.807-.084-1.131-.252a1.933 1.933 0 0 1-.75-.674 1.78 1.78 0 0 1-.263-.955c0-.34.066-.638.199-.896.133-.262.324-.479.574-.651a2.75 2.75 0 0 1 .902-.398c.352-.09.744-.135 1.178-.135h1.26Zm3.779-5.156v9h-1.09v-9h1.09Zm5.432 7.318c0-.156-.035-.3-.106-.433-.066-.137-.205-.26-.416-.369-.207-.114-.519-.211-.937-.293a7.453 7.453 0 0 1-.955-.264 2.914 2.914 0 0 1-.721-.369 1.555 1.555 0 0 1-.451-.51 1.414 1.414 0 0 1-.158-.685c0-.25.054-.487.164-.709.113-.223.271-.42.474-.592.207-.172.455-.307.744-.405a3.03 3.03 0 0 1 .967-.146c.508 0 .942.09 1.301.269.359.18.635.42.826.721.192.297.287.627.287.99h-1.084a.925.925 0 0 0-.158-.509 1.162 1.162 0 0 0-.451-.416c-.195-.11-.436-.164-.721-.164-.301 0-.545.046-.732.14a.93.93 0 0 0-.404.346.863.863 0 0 0-.065.762.708.708 0 0 0 .223.252c.105.074.254.144.445.211.191.066.436.132.732.199.52.117.948.258 1.284.422.336.164.586.365.75.603.164.238.246.527.246.867a1.68 1.68 0 0 1-.674 1.36 2.462 2.462 0 0 1-.774.386c-.296.09-.63.135-1.001.135-.559 0-1.032-.099-1.418-.299-.387-.199-.68-.457-.879-.773-.2-.316-.299-.65-.299-1.002h1.09c.015.297.101.533.257.709.157.172.348.295.575.369.226.07.451.106.674.106.296 0 .544-.039.744-.118.203-.078.357-.185.463-.322a.75.75 0 0 0 .158-.469ZM89 194.962l-10-5.773v11.547l10-5.774Zm-57 1h48v-2H32v2Zm241-1-10-5.773v11.547l10-5.774Zm-57 1h48v-2h-48v2ZM170 72l-2.887 5h5.774L170 72Zm-.5 3.002v2.001h1v-2h-1Zm0 4.003v2.001h1v-2.001h-1Zm0 4.002v2.002h1v-2.002h-1Zm0 4.003v2.002h1V87.01h-1Zm0 4.003v2.001h1v-2.001h-1Zm0 4.003v2.001h1v-2.001h-1Zm0 4.002v2.002h1v-2.001h-1Zm0 4.003v2.002h1v-2.002h-1Zm0 4.003v2.001h1v-2.001h-1Zm0 4.003v2.001h1v-2.001h-1Zm0 4.002v2.002h1v-2.002h-1Zm0 4.003v2.001h1v-2.001h-1Zm0 4.003v2.001h1v-2.001h-1Zm0 4.003v2.001h1v-2.001h-1Zm0 4.002v2.002h1v-2.002h-1Zm0 4.003v2.001h1v-2.001h-1Zm0 4.003v2.001h1v-2.001h-1Zm0 4.003v2.001h1v-2.001h-1Zm0 4.002v2.002h1v-2.002h-1Zm0 4.003v2.001h1v-2.001h-1Zm0 4.003v2.001h1v-2.001h-1Zm0 4.002v1.001h1v-1.001h-1ZM170 72l-5.774 10h11.548L170 72Zm-1 3.002v2.001h2v-2h-2Zm0 4.003v2.001h2v-2.001h-2Zm0 4.002v2.002h2v-2.002h-2Zm0 4.003v2.002h2V87.01h-2Zm0 4.003v2.001h2v-2.001h-2Zm0 4.003v2.001h2v-2.001h-2Zm0 4.002v2.002h2v-2.001h-2Zm0 4.003v2.002h2v-2.002h-2Zm0 4.003v2.001h2v-2.001h-2Zm0 4.003v2.001h2v-2.001h-2Zm0 4.002v2.002h2v-2.002h-2Zm0 4.003v2.001h2v-2.001h-2Zm0 4.003v2.001h2v-2.001h-2Zm0 4.003v2.001h2v-2.001h-2Zm0 4.002v2.002h2v-2.002h-2Zm0 4.003v2.001h2v-2.001h-2Zm0 4.003v2.001h2v-2.001h-2Zm0 4.003v2.001h2v-2.001h-2Zm0 4.002v2.002h2v-2.002h-2Zm0 4.003v2.001h2v-2.001h-2Zm0 4.003v2.001h2v-2.001h-2Zm0 4.002v1.001h2v-1.001h-2Z" fill="#000"/><path d="M158.285 112.225 155.461 120h-1.154l3.252-8.531h.744l-.018.756Zm2.367 7.775-2.83-7.775-.017-.756h.744l3.263 8.531h-1.16Zm-.146-3.158v.926h-4.793v-.926h4.793Zm6.392-3.182h.985v6.205c0 .559-.113 1.035-.34 1.43a2.218 2.218 0 0 1-.949.896c-.403.207-.867.311-1.395.311-.219 0-.476-.035-.773-.106a3.103 3.103 0 0 1-.867-.345 2.15 2.15 0 0 1-.709-.651l.568-.644c.266.32.543.543.832.668.293.125.582.187.867.187.344 0 .641-.064.891-.193s.443-.32.58-.574c.141-.25.211-.559.211-.926v-4.863l.099-1.395Zm-4.365 3.24v-.123c0-.484.057-.923.17-1.318.117-.398.283-.74.498-1.025.219-.286.483-.504.791-.657a2.28 2.28 0 0 1 1.043-.234c.399 0 .746.07 1.043.211.301.137.555.338.762.603.211.262.377.579.498.95s.205.791.252 1.259v.539a5.521 5.521 0 0 1-.252 1.254 2.963 2.963 0 0 1-.498.95 2.093 2.093 0 0 1-.762.603 2.523 2.523 0 0 1-1.055.205 2.21 2.21 0 0 1-1.031-.24 2.357 2.357 0 0 1-.785-.674 3.186 3.186 0 0 1-.504-1.019 4.652 4.652 0 0 1-.17-1.284Zm1.084-.123v.123c0 .317.031.614.094.891.066.277.166.521.299.732.136.211.31.377.521.498.211.118.463.176.756.176.359 0 .656-.076.891-.228.234-.153.42-.354.556-.604.141-.25.25-.521.328-.814v-1.412a2.811 2.811 0 0 0-.199-.621 1.89 1.89 0 0 0-.34-.539 1.442 1.442 0 0 0-.509-.381 1.69 1.69 0 0 0-.715-.141c-.297 0-.553.063-.768.188a1.491 1.491 0 0 0-.521.503 2.4 2.4 0 0 0-.299.739 4.01 4.01 0 0 0-.094.89Zm8.543 3.34c-.441 0-.842-.074-1.201-.222a2.746 2.746 0 0 1-.92-.639 2.85 2.85 0 0 1-.586-.973 3.56 3.56 0 0 1-.205-1.23v-.246c0-.516.076-.975.229-1.377.152-.407.359-.75.621-1.032.261-.281.558-.494.89-.638a2.552 2.552 0 0 1 1.032-.217c.453 0 .843.078 1.171.234.332.157.604.375.815.657.211.277.367.605.469.984.101.375.152.785.152 1.23v.487h-4.734v-.885h3.65v-.082a2.698 2.698 0 0 0-.176-.82 1.47 1.47 0 0 0-.469-.657c-.214-.171-.507-.257-.878-.257a1.467 1.467 0 0 0-1.213.615 2.287 2.287 0 0 0-.346.744 3.775 3.775 0 0 0-.123 1.014v.246c0 .301.041.584.123.849.086.262.209.493.369.692.164.199.361.355.592.468.234.114.5.17.797.17.383 0 .707-.078.972-.234.266-.156.498-.365.698-.627l.656.522a3.026 3.026 0 0 1-.522.591 2.47 2.47 0 0 1-.779.457c-.305.118-.666.176-1.084.176Zm4.817-5.103V120h-1.084v-6.34h1.025l.059 1.354Zm-.258 1.576-.451-.018c.003-.433.068-.834.193-1.201.125-.371.301-.693.527-.967.227-.273.496-.484.809-.633a2.39 2.39 0 0 1 1.049-.228c.312 0 .593.043.843.129.25.082.463.215.639.398.18.184.317.422.41.715.094.289.141.643.141 1.061V120h-1.09v-4.166c0-.332-.049-.598-.146-.797a.905.905 0 0 0-.428-.439 1.535 1.535 0 0 0-.692-.141 1.61 1.61 0 0 0-.738.17 1.748 1.748 0 0 0-.568.469 2.36 2.36 0 0 0-.369.685 2.507 2.507 0 0 0-.129.809Zm8.461-2.93v.832h-3.428v-.832h3.428Zm-2.268-1.541h1.084v6.311c0 .215.033.377.1.486a.475.475 0 0 0 .258.217c.105.035.218.053.339.053.09 0 .184-.008.282-.024.101-.019.177-.035.228-.047l.006.885a2.514 2.514 0 0 1-.34.076 2.536 2.536 0 0 1-.498.041 1.69 1.69 0 0 1-.732-.158 1.176 1.176 0 0 1-.534-.527c-.128-.25-.193-.586-.193-1.008v-6.305Zm6.856-.65V120h-1.114v-8.531h1.114Zm2.742 0v.926h-6.592v-.926h6.592Zm.228 5.431v-.134c0-.457.067-.881.2-1.272a3.01 3.01 0 0 1 .574-1.025c.25-.293.552-.52.908-.68a2.819 2.819 0 0 1 1.195-.246c.446 0 .846.082 1.201.246.36.16.664.387.914.68.254.289.448.631.581 1.025.132.391.199.815.199 1.272v.134c0 .457-.067.881-.199 1.272a3.05 3.05 0 0 1-.581 1.025c-.25.289-.552.516-.908.68-.351.16-.75.24-1.195.24-.445 0-.846-.08-1.201-.24a2.714 2.714 0 0 1-.914-.68 3.087 3.087 0 0 1-.574-1.025 3.926 3.926 0 0 1-.2-1.272Zm1.084-.134v.134c0 .317.037.616.112.897.074.277.185.523.334.738.152.215.341.385.568.51.226.121.49.182.791.182.297 0 .557-.061.779-.182.227-.125.414-.295.563-.51.148-.215.26-.461.334-.738a3.34 3.34 0 0 0 .117-.897v-.134c0-.313-.039-.608-.117-.885a2.284 2.284 0 0 0-.34-.744 1.616 1.616 0 0 0-.563-.516 1.575 1.575 0 0 0-.785-.187c-.297 0-.558.062-.785.187-.223.125-.41.297-.562.516-.149.215-.26.463-.334.744a3.374 3.374 0 0 0-.112.885Zm10.758 1.078c0-.199-.031-.375-.094-.528a1 1 0 0 0-.316-.421 2.495 2.495 0 0 0-.621-.358 8.917 8.917 0 0 0-.996-.346 9.067 9.067 0 0 1-1.143-.416 3.982 3.982 0 0 1-.873-.533 2.113 2.113 0 0 1-.557-.685 1.966 1.966 0 0 1-.193-.885 2.072 2.072 0 0 1 .791-1.652c.258-.211.565-.375.92-.493a3.795 3.795 0 0 1 1.19-.175c.64 0 1.183.123 1.628.369.45.242.791.56 1.026.955.234.39.351.808.351 1.254h-1.125c0-.321-.068-.604-.205-.85a1.407 1.407 0 0 0-.621-.586c-.277-.144-.629-.217-1.054-.217-.403 0-.735.061-.997.182a1.32 1.32 0 0 0-.586.492 1.346 1.346 0 0 0-.187.709c0 .18.037.344.111.492.078.145.198.28.358.405.164.125.371.24.621.345.254.106.556.207.908.305a7.97 7.97 0 0 1 1.254.457c.351.168.641.357.867.568.231.207.401.444.51.709.113.262.17.559.17.891 0 .348-.071.662-.211.943a2.046 2.046 0 0 1-.604.721 2.905 2.905 0 0 1-.943.463c-.363.105-.77.158-1.219.158-.394 0-.783-.055-1.166-.164a3.463 3.463 0 0 1-1.037-.492 2.576 2.576 0 0 1-.744-.809 2.238 2.238 0 0 1-.275-1.125h1.125c0 .293.056.545.169.756.114.207.268.379.463.516.2.137.424.238.674.305.254.062.518.093.791.093.395 0 .729-.054 1.002-.164.274-.109.481-.265.621-.469.145-.203.217-.443.217-.72Zm5.045 2.273c-.441 0-.842-.074-1.201-.222a2.736 2.736 0 0 1-.92-.639 2.85 2.85 0 0 1-.586-.973 3.56 3.56 0 0 1-.205-1.23v-.246c0-.516.076-.975.228-1.377.153-.407.36-.75.621-1.032a2.66 2.66 0 0 1 .891-.638 2.55 2.55 0 0 1 1.031-.217c.454 0 .844.078 1.172.234.332.157.604.375.815.657.211.277.367.605.468.984.102.375.153.785.153 1.23v.487h-4.735v-.885h3.651v-.082a2.698 2.698 0 0 0-.176-.82 1.478 1.478 0 0 0-.469-.657c-.215-.171-.508-.257-.879-.257a1.466 1.466 0 0 0-1.213.615 2.307 2.307 0 0 0-.345.744 3.775 3.775 0 0 0-.123 1.014v.246c0 .301.041.584.123.849.086.262.209.493.369.692.164.199.361.355.592.468.234.114.5.17.797.17.382 0 .707-.078.972-.234.266-.156.498-.365.698-.627l.656.522a3.026 3.026 0 0 1-.522.591 2.47 2.47 0 0 1-.779.457c-.305.118-.666.176-1.084.176Zm4.816-5.461V120h-1.084v-6.34h1.055l.029.996Zm1.981-1.031-.006 1.008a1.53 1.53 0 0 0-.258-.035 2.671 2.671 0 0 0-.269-.012c-.25 0-.471.039-.662.117a1.377 1.377 0 0 0-.487.328 1.58 1.58 0 0 0-.316.504 2.465 2.465 0 0 0-.147.633l-.304.176c0-.383.037-.742.111-1.078.078-.336.197-.633.357-.891.161-.262.364-.465.61-.609a1.707 1.707 0 0 1 1.16-.194.8.8 0 0 1 .211.053Zm3.035 5.396 1.734-5.361h1.108L220.02 120h-.727l.164-.979Zm-1.447-5.361 1.787 5.391.123.949h-.727l-2.297-6.34h1.114Zm7.881 6.457c-.442 0-.842-.074-1.202-.222a2.732 2.732 0 0 1-.919-.639 2.835 2.835 0 0 1-.586-.973 3.56 3.56 0 0 1-.205-1.23v-.246c0-.516.076-.975.228-1.377.152-.407.359-.75.621-1.032a2.66 2.66 0 0 1 .891-.638 2.55 2.55 0 0 1 1.031-.217c.453 0 .844.078 1.172.234.332.157.603.375.814.657.211.277.368.605.469.984.102.375.152.785.152 1.23v.487h-4.734v-.885h3.65v-.082a2.696 2.696 0 0 0-.175-.82 1.478 1.478 0 0 0-.469-.657c-.215-.171-.508-.257-.879-.257a1.47 1.47 0 0 0-1.213.615 2.308 2.308 0 0 0-.346.744 3.775 3.775 0 0 0-.123 1.014v.246c0 .301.041.584.123.849.086.262.209.493.37.692.164.199.361.355.591.468.235.114.5.17.797.17.383 0 .707-.078.973-.234.266-.156.498-.365.697-.627l.656.522c-.136.207-.31.404-.521.591-.211.188-.471.34-.779.457-.305.118-.666.176-1.084.176Zm4.816-5.461V120h-1.084v-6.34h1.055l.029.996Zm1.981-1.031-.006 1.008a1.53 1.53 0 0 0-.258-.035 2.678 2.678 0 0 0-.27-.012c-.25 0-.47.039-.662.117a1.382 1.382 0 0 0-.486.328 1.6 1.6 0 0 0-.317.504 2.424 2.424 0 0 0-.146.633l-.305.176c0-.383.037-.742.112-1.078.078-.336.197-.633.357-.891a1.74 1.74 0 0 1 .609-.609 1.708 1.708 0 0 1 1.161-.194.812.812 0 0 1 .211.053ZM135 160.06l2.887-5h-5.774l2.887 5ZM134.5 72v1h1v-1h-1Zm0 3.002v2.001h1v-2h-1Zm0 4.003v2.001h1v-2.001h-1Zm0 4.002v2.002h1v-2.002h-1Zm0 4.003v2.002h1V87.01h-1Zm0 4.003v2.001h1v-2.001h-1Zm0 4.003v2.001h1v-2.001h-1Zm0 4.002v2.002h1v-2.001h-1Zm0 4.003v2.002h1v-2.002h-1Zm0 4.003v2.001h1v-2.001h-1Zm0 4.003v2.001h1v-2.001h-1Zm0 4.002v2.002h1v-2.002h-1Zm0 4.003v2.001h1v-2.001h-1Zm0 4.003v2.001h1v-2.001h-1Zm0 4.003v2.001h1v-2.001h-1Zm0 4.002v2.002h1v-2.002h-1Zm0 4.003v2.001h1v-2.001h-1Zm0 4.003v2.001h1v-2.001h-1Zm0 4.003v2.001h1v-2.001h-1Zm0 4.002v2.002h1v-2.002h-1Zm0 4.003v2.001h1v-2.001h-1Zm0 4.003v2.001h1v-2.001h-1Zm.5 5.003 5.774-10h-11.547l5.773 10ZM134 72v1h2v-1h-2Zm0 3.002v2.001h2v-2h-2Zm0 4.003v2.001h2v-2.001h-2Zm0 4.002v2.002h2v-2.002h-2Zm0 4.003v2.002h2V87.01h-2Zm0 4.003v2.001h2v-2.001h-2Zm0 4.003v2.001h2v-2.001h-2Zm0 4.002v2.002h2v-2.001h-2Zm0 4.003v2.002h2v-2.002h-2Zm0 4.003v2.001h2v-2.001h-2Zm0 4.003v2.001h2v-2.001h-2Zm0 4.002v2.002h2v-2.002h-2Zm0 4.003v2.001h2v-2.001h-2Zm0 4.003v2.001h2v-2.001h-2Zm0 4.003v2.001h2v-2.001h-2Zm0 4.002v2.002h2v-2.002h-2Zm0 4.003v2.001h2v-2.001h-2Zm0 4.003v2.001h2v-2.001h-2Zm0 4.003v2.001h2v-2.001h-2Zm0 4.002v2.002h2v-2.002h-2Zm0 4.003v2.001h2v-2.001h-2Zm0 4.003v2.001h2v-2.001h-2ZM31.674 117.844c0-.199-.031-.375-.094-.528a1.004 1.004 0 0 0-.316-.421 2.476 2.476 0 0 0-.621-.358 8.876 8.876 0 0 0-.997-.346 9.06 9.06 0 0 1-1.142-.416 3.99 3.99 0 0 1-.873-.533 2.108 2.108 0 0 1-.557-.685 1.954 1.954 0 0 1-.193-.885 2.076 2.076 0 0 1 .79-1.652c.259-.211.565-.375.92-.493a3.791 3.791 0 0 1 1.19-.175c.64 0 1.184.123 1.63.369.448.242.79.56 1.024.955.235.39.352.808.352 1.254h-1.125c0-.321-.068-.604-.205-.85a1.414 1.414 0 0 0-.621-.586c-.277-.144-.629-.217-1.055-.217-.402 0-.734.061-.996.182a1.315 1.315 0 0 0-.586.492 1.346 1.346 0 0 0-.187.709c0 .18.037.344.111.492.078.145.197.28.357.405.165.125.372.24.622.345.253.106.556.207.908.305a7.97 7.97 0 0 1 1.254.457c.351.168.64.357.867.568.23.207.4.444.51.709.113.262.17.559.17.891 0 .348-.07.662-.211.943a2.046 2.046 0 0 1-.604.721 2.912 2.912 0 0 1-.943.463 4.39 4.39 0 0 1-1.219.158c-.395 0-.783-.055-1.166-.164a3.46 3.46 0 0 1-1.037-.492 2.576 2.576 0 0 1-.744-.809 2.242 2.242 0 0 1-.276-1.125h1.125c0 .293.057.545.17.756.114.207.268.379.463.516.2.137.424.238.674.305.254.062.518.093.791.093.395 0 .729-.054 1.002-.164.273-.109.48-.265.621-.469.145-.203.217-.443.217-.72Zm5.045 2.273c-.442 0-.842-.074-1.201-.222a2.739 2.739 0 0 1-.92-.639 2.848 2.848 0 0 1-.586-.973 3.566 3.566 0 0 1-.205-1.23v-.246c0-.516.076-.975.228-1.377.153-.407.36-.75.621-1.032.262-.281.559-.494.89-.638a2.55 2.55 0 0 1 1.032-.217c.453 0 .844.078 1.172.234.332.157.603.375.815.657.21.277.367.605.468.984.102.375.152.785.152 1.23v.487h-4.734v-.885h3.65v-.082a2.703 2.703 0 0 0-.175-.82 1.476 1.476 0 0 0-.469-.657c-.215-.171-.508-.257-.879-.257a1.469 1.469 0 0 0-1.213.615 2.301 2.301 0 0 0-.346.744 3.775 3.775 0 0 0-.122 1.014v.246c0 .301.04.584.123.849.085.262.208.493.369.692.164.199.361.355.591.468.235.114.5.17.797.17.383 0 .707-.078.973-.234.266-.156.498-.365.697-.627l.656.522c-.136.207-.31.404-.521.591-.21.188-.47.34-.78.457-.304.118-.665.176-1.083.176Zm4.816-5.461V120h-1.084v-6.34h1.055l.03.996Zm1.98-1.031-.005 1.008a1.527 1.527 0 0 0-.258-.035 2.678 2.678 0 0 0-.27-.012c-.25 0-.47.039-.662.117a1.378 1.378 0 0 0-.486.328 1.586 1.586 0 0 0-.316.504 2.432 2.432 0 0 0-.147.633l-.305.176c0-.383.037-.742.112-1.078.078-.336.197-.633.357-.891.16-.262.363-.465.61-.609a1.708 1.708 0 0 1 1.16-.194.794.794 0 0 1 .21.053Zm3.036 5.396 1.734-5.361h1.108l-2.28 6.34h-.726l.164-.979Zm-1.448-5.361 1.788 5.391.123.949h-.727l-2.297-6.34h1.113Zm7.881 6.457a3.12 3.12 0 0 1-1.2-.222 2.739 2.739 0 0 1-.92-.639 2.85 2.85 0 0 1-.587-.973 3.566 3.566 0 0 1-.205-1.23v-.246c0-.516.076-.975.229-1.377.152-.407.36-.75.62-1.032.263-.281.56-.494.892-.638a2.55 2.55 0 0 1 1.03-.217c.454 0 .844.078 1.173.234.332.157.603.375.814.657a2.8 2.8 0 0 1 .469.984c.101.375.152.785.152 1.23v.487h-4.734v-.885h3.65v-.082a2.697 2.697 0 0 0-.176-.82 1.475 1.475 0 0 0-.468-.657c-.215-.171-.508-.257-.88-.257a1.469 1.469 0 0 0-1.212.615 2.297 2.297 0 0 0-.346.744 3.77 3.77 0 0 0-.123 1.014v.246c0 .301.041.584.123.849.086.262.21.493.37.692.163.199.36.355.591.468.234.114.5.17.797.17.383 0 .707-.078.973-.234.265-.156.498-.365.697-.627l.656.522a3.02 3.02 0 0 1-.521.591c-.211.188-.471.34-.78.457-.304.118-.666.176-1.084.176Zm4.817-5.461V120h-1.084v-6.34h1.055l.029.996Zm1.98-1.031-.006 1.008a1.527 1.527 0 0 0-.257-.035 2.677 2.677 0 0 0-.27-.012c-.25 0-.47.039-.662.117a1.378 1.378 0 0 0-.486.328 1.586 1.586 0 0 0-.317.504 2.436 2.436 0 0 0-.146.633l-.305.176c0-.383.037-.742.111-1.078.079-.336.198-.633.358-.891.16-.262.363-.465.61-.609a1.707 1.707 0 0 1 1.16-.194.793.793 0 0 1 .21.053Zm4.319-2.156V120h-1.114v-8.531H64.1Zm2.742 0v.926H60.25v-.926h6.592Zm.228 5.431v-.134c0-.457.067-.881.2-1.272a3.01 3.01 0 0 1 .574-1.025c.25-.293.553-.52.908-.68a2.82 2.82 0 0 1 1.195-.246c.446 0 .846.082 1.201.246.36.16.665.387.915.68.253.289.447.631.58 1.025.132.391.199.815.199 1.272v.134c0 .457-.067.881-.2 1.272-.132.39-.326.732-.58 1.025-.25.289-.552.516-.908.68-.351.16-.75.24-1.195.24-.445 0-.846-.08-1.201-.24a2.718 2.718 0 0 1-.914-.68 3.102 3.102 0 0 1-.575-1.025 3.931 3.931 0 0 1-.199-1.272Zm1.084-.134v.134c0 .317.037.616.112.897.074.277.185.523.334.738.152.215.341.385.568.51.226.121.49.182.791.182.297 0 .557-.061.78-.182.226-.125.413-.295.562-.51.148-.215.26-.461.334-.738a3.34 3.34 0 0 0 .117-.897v-.134c0-.313-.04-.608-.117-.885a2.282 2.282 0 0 0-.34-.744 1.613 1.613 0 0 0-.563-.516 1.578 1.578 0 0 0-.785-.187c-.297 0-.558.062-.785.187-.223.125-.41.297-.562.516-.149.215-.26.463-.334.744a3.408 3.408 0 0 0-.112.885Zm9.37-4.541L74.698 120h-1.154l3.252-8.531h.744l-.018.756ZM79.89 120l-2.83-7.775-.018-.756h.744L81.051 120h-1.16Zm-.147-3.158v.926H74.95v-.926h4.793Zm6.393-3.182h.984v6.205c0 .559-.113 1.035-.34 1.43a2.214 2.214 0 0 1-.949.896c-.402.207-.867.311-1.394.311-.22 0-.477-.035-.774-.106a3.106 3.106 0 0 1-.867-.345 2.16 2.16 0 0 1-.71-.651l.57-.644c.265.32.542.543.831.668.293.125.582.187.868.187.343 0 .64-.064.89-.193s.444-.32.58-.574c.14-.25.211-.559.211-.926v-4.863l.1-1.395Zm-4.365 3.24v-.123c0-.484.056-.923.17-1.318.117-.398.283-.74.498-1.025a2.236 2.236 0 0 1 1.833-.891c.399 0 .746.07 1.043.211.301.137.555.338.762.603.211.262.377.579.498.95s.205.791.252 1.259v.539a5.516 5.516 0 0 1-.252 1.254 2.965 2.965 0 0 1-.498.95c-.207.261-.46.462-.762.603-.3.137-.652.205-1.054.205a2.2 2.2 0 0 1-1.031-.24 2.349 2.349 0 0 1-.786-.674 3.196 3.196 0 0 1-.504-1.019 4.64 4.64 0 0 1-.17-1.284Zm1.084-.123v.123c0 .317.03.614.093.891.067.277.166.521.299.732.137.211.31.377.521.498.212.118.463.176.756.176.36 0 .657-.076.891-.228.234-.153.42-.354.557-.604.14-.25.25-.521.328-.814v-1.412a2.876 2.876 0 0 0-.2-.621 1.899 1.899 0 0 0-.34-.539 1.45 1.45 0 0 0-.509-.381 1.688 1.688 0 0 0-.715-.141 1.5 1.5 0 0 0-.768.188 1.5 1.5 0 0 0-.521.503 2.415 2.415 0 0 0-.299.739 4.04 4.04 0 0 0-.093.89Zm8.542 3.34a3.12 3.12 0 0 1-1.2-.222 2.74 2.74 0 0 1-.92-.639 2.847 2.847 0 0 1-.587-.973 3.566 3.566 0 0 1-.205-1.23v-.246c0-.516.076-.975.229-1.377.152-.407.36-.75.62-1.032.263-.281.56-.494.892-.638a2.55 2.55 0 0 1 1.03-.217c.454 0 .845.078 1.173.234.332.157.603.375.814.657a2.8 2.8 0 0 1 .469.984c.102.375.152.785.152 1.23v.487H89.13v-.885h3.65v-.082a2.7 2.7 0 0 0-.175-.82 1.476 1.476 0 0 0-.47-.657c-.214-.171-.507-.257-.878-.257a1.469 1.469 0 0 0-1.213.615 2.299 2.299 0 0 0-.346.744 3.775 3.775 0 0 0-.123 1.014v.246c0 .301.041.584.123.849.086.262.21.493.37.692.163.199.36.355.591.468.234.114.5.17.797.17.383 0 .707-.078.973-.234.265-.156.498-.365.697-.627l.656.522c-.136.207-.31.404-.521.591-.211.188-.471.34-.78.457-.304.118-.666.176-1.084.176Zm4.817-5.103V120H95.13v-6.34h1.025l.059 1.354Zm-.258 1.576-.451-.018c.004-.433.068-.834.193-1.201.125-.371.301-.693.528-.967a2.36 2.36 0 0 1 .808-.633 2.39 2.39 0 0 1 1.049-.228c.313 0 .594.043.844.129.25.082.463.215.638.398.18.184.317.422.41.715.094.289.141.643.141 1.061V120h-1.09v-4.166c0-.332-.049-.598-.146-.797a.901.901 0 0 0-.428-.439 1.532 1.532 0 0 0-.691-.141c-.27 0-.516.057-.739.17a1.753 1.753 0 0 0-.568.469 2.35 2.35 0 0 0-.37.685 2.51 2.51 0 0 0-.128.809Zm8.461-2.93v.832h-3.428v-.832h3.428Zm-2.268-1.541h1.084v6.311c0 .215.034.377.1.486a.475.475 0 0 0 .258.217c.105.035.219.053.34.053.089 0 .183-.008.281-.024.101-.019.178-.035.228-.047l.006.885a2.514 2.514 0 0 1-.34.076 2.523 2.523 0 0 1-.498.041c-.265 0-.509-.053-.732-.158a1.174 1.174 0 0 1-.533-.527c-.129-.25-.194-.586-.194-1.008v-6.305Z" fill="#000"/><g filter="url(#c)" shape-rendering="crispEdges"><ellipse cx="450.5" cy="194.274" rx="63.5" ry="33.711" fill="#000" fill-opacity=".42"/><path d="M513.5 194.274c0 9.034-6.905 17.329-18.333 23.396-11.406 6.055-27.197 9.815-44.667 9.815-17.47 0-33.261-3.76-44.667-9.815-11.428-6.067-18.333-14.362-18.333-23.396 0-9.033 6.905-17.328 18.333-23.395 11.406-6.055 27.197-9.815 44.667-9.815 17.47 0 33.261 3.76 44.667 9.815 11.428 6.067 18.333 14.362 18.333 23.395Z" stroke="#000"/></g><path d="M416.818 191.664v.629c0 .747-.093 1.417-.28 2.01a4.313 4.313 0 0 1-.807 1.51c-.35.415-.772.732-1.264.95a3.965 3.965 0 0 1-1.641.329 3.94 3.94 0 0 1-1.62-.329 3.624 3.624 0 0 1-1.271-.95 4.414 4.414 0 0 1-.828-1.51c-.196-.593-.294-1.263-.294-2.01v-.629c0-.748.096-1.415.288-2.003a4.426 4.426 0 0 1 .827-1.511 3.548 3.548 0 0 1 1.264-.957 3.945 3.945 0 0 1 1.62-.328c.607 0 1.153.109 1.641.328.492.219.914.538 1.265.957.355.415.626.919.813 1.511.192.588.287 1.255.287 2.003Zm-1.305.629v-.643c0-.592-.062-1.116-.185-1.572a3.247 3.247 0 0 0-.526-1.148 2.277 2.277 0 0 0-.855-.705 2.599 2.599 0 0 0-1.135-.239c-.41 0-.781.08-1.114.239-.328.16-.61.395-.847.705a3.406 3.406 0 0 0-.54 1.148c-.128.456-.192.98-.192 1.572v.643c0 .597.064 1.125.192 1.586.127.455.309.841.546 1.155.242.31.527.545.855.704.333.16.704.239 1.114.239.429 0 .809-.079 1.142-.239a2.23 2.23 0 0 0 .841-.704c.232-.314.407-.7.526-1.155.118-.461.178-.989.178-1.586Zm6.767-5.291v9.953h-1.299v-9.953h1.299Zm3.199 0v1.08h-7.69v-1.08h7.69Zm3.671 10.09c-.515 0-.982-.087-1.401-.26a3.179 3.179 0 0 1-1.073-.745 3.332 3.332 0 0 1-.684-1.135 4.177 4.177 0 0 1-.239-1.436v-.287c0-.601.089-1.137.267-1.606.177-.474.419-.875.724-1.203a3.097 3.097 0 0 1 1.039-.745 2.982 2.982 0 0 1 1.203-.253c.529 0 .985.091 1.368.273.387.182.704.438.95.766.246.323.428.706.547 1.148.118.438.177.916.177 1.436v.567h-5.523v-1.032h4.259v-.096a3.194 3.194 0 0 0-.205-.957 1.721 1.721 0 0 0-.547-.765c-.251-.201-.593-.301-1.026-.301a1.723 1.723 0 0 0-1.415.718 2.692 2.692 0 0 0-.403.868 4.382 4.382 0 0 0-.144 1.182v.287c0 .351.048.682.144.992.1.305.244.574.431.806.191.233.421.415.69.547.273.132.583.198.93.198.446 0 .825-.091 1.135-.273.309-.182.581-.426.813-.731l.766.608c-.16.241-.363.472-.609.69a2.904 2.904 0 0 1-.909.534c-.355.136-.777.205-1.265.205Zm5.729-10.637v10.5h-1.272v-10.5h1.272Zm8.463 9.598c.301 0 .579-.062.834-.185s.465-.292.629-.506a1.41 1.41 0 0 0 .28-.745h1.203a2.262 2.262 0 0 1-.444 1.224 3.044 3.044 0 0 1-2.502 1.251c-.556 0-1.042-.098-1.456-.294a2.894 2.894 0 0 1-1.026-.807 3.61 3.61 0 0 1-.608-1.176 4.963 4.963 0 0 1-.198-1.415v-.287c0-.497.066-.966.198-1.408.137-.447.339-.841.608-1.183.274-.342.616-.61 1.026-.806.414-.196.9-.294 1.456-.294.579 0 1.084.118 1.517.355.433.233.773.552 1.019.957.251.401.387.857.41 1.367h-1.203a1.818 1.818 0 0 0-.26-.827 1.687 1.687 0 0 0-1.483-.813c-.388 0-.713.077-.978.232-.26.151-.467.356-.622.615-.15.256-.26.54-.328.855-.064.31-.096.627-.096.95v.287c0 .324.032.643.096.957.064.315.171.6.321.855.155.255.363.46.622.615.265.15.593.226.985.226Zm4.033-2.714v-.158c0-.533.077-1.027.232-1.483.155-.46.379-.859.67-1.196a2.99 2.99 0 0 1 1.06-.793 3.279 3.279 0 0 1 1.394-.287 3.3 3.3 0 0 1 1.402.287c.419.187.775.451 1.066.793.296.337.522.736.677 1.196.155.456.232.95.232 1.483v.158c0 .533-.077 1.027-.232 1.483a3.543 3.543 0 0 1-.677 1.196 3.084 3.084 0 0 1-1.059.793 3.33 3.33 0 0 1-1.395.281 3.37 3.37 0 0 1-1.401-.281 3.163 3.163 0 0 1-1.067-.793 3.614 3.614 0 0 1-.67-1.196 4.579 4.579 0 0 1-.232-1.483Zm1.265-.158v.158c0 .369.043.717.13 1.046.086.323.216.61.389.861.178.251.399.449.663.595.265.141.572.212.923.212.346 0 .65-.071.909-.212.265-.146.483-.344.657-.595a2.75 2.75 0 0 0 .389-.861c.091-.329.137-.677.137-1.046v-.158a3.8 3.8 0 0 0-.137-1.032 2.664 2.664 0 0 0-.396-.868 1.872 1.872 0 0 0-.657-.601 1.837 1.837 0 0 0-.916-.219c-.346 0-.651.073-.916.219a1.968 1.968 0 0 0-.656.601c-.173.251-.303.54-.389.868-.087.324-.13.668-.13 1.032Zm8.428-6.726v10.5h-1.271v-10.5h1.271Zm3.405 0v10.5h-1.272v-10.5h1.272Zm5.099 10.637c-.515 0-.982-.087-1.401-.26a3.17 3.17 0 0 1-1.073-.745 3.316 3.316 0 0 1-.684-1.135 4.177 4.177 0 0 1-.239-1.436v-.287c0-.601.089-1.137.266-1.606.178-.474.42-.875.725-1.203a3.097 3.097 0 0 1 1.039-.745 2.975 2.975 0 0 1 1.203-.253c.529 0 .985.091 1.367.273.388.182.704.438.951.766.246.323.428.706.546 1.148.119.438.178.916.178 1.436v.567h-5.523v-1.032h4.259v-.096a3.165 3.165 0 0 0-.206-.957 1.711 1.711 0 0 0-.546-.765c-.251-.201-.593-.301-1.026-.301a1.723 1.723 0 0 0-1.415.718 2.692 2.692 0 0 0-.403.868 4.382 4.382 0 0 0-.144 1.182v.287c0 .351.048.682.144.992.1.305.244.574.431.806.191.233.421.415.69.547.273.132.583.198.93.198.446 0 .824-.091 1.134-.273.31-.182.581-.426.814-.731l.765.608a3.514 3.514 0 0 1-.608.69 2.904 2.904 0 0 1-.909.534c-.356.136-.777.205-1.265.205Zm7.315-1.039c.301 0 .578-.062.834-.185.255-.123.465-.292.629-.506a1.41 1.41 0 0 0 .28-.745h1.203a2.262 2.262 0 0 1-.444 1.224 3.044 3.044 0 0 1-2.502 1.251c-.556 0-1.042-.098-1.456-.294a2.894 2.894 0 0 1-1.026-.807 3.61 3.61 0 0 1-.608-1.176 4.963 4.963 0 0 1-.198-1.415v-.287c0-.497.066-.966.198-1.408.137-.447.339-.841.608-1.183.274-.342.616-.61 1.026-.806.414-.196.9-.294 1.456-.294.578 0 1.084.118 1.517.355.433.233.773.552 1.019.957.251.401.387.857.41 1.367h-1.203a1.818 1.818 0 0 0-.26-.827 1.687 1.687 0 0 0-1.483-.813c-.388 0-.713.077-.978.232-.26.151-.467.356-.622.615-.15.256-.26.54-.328.855-.064.31-.096.627-.096.95v.287c0 .324.032.643.096.957.064.315.171.6.321.855.155.255.363.46.622.615.265.15.593.226.985.226Zm7.465-6.495v.971h-3.999v-.971h3.999Zm-2.646-1.797h1.265v7.362c0 .251.038.44.116.567a.553.553 0 0 0 .301.253c.123.041.255.062.396.062.105 0 .214-.009.328-.028.119-.022.208-.041.267-.054l.007 1.032a3.085 3.085 0 0 1-.397.089 3 3 0 0 1-.581.048c-.31 0-.595-.062-.854-.185a1.373 1.373 0 0 1-.622-.615c-.151-.292-.226-.684-.226-1.176v-7.355Zm3.657 5.578v-.158c0-.533.078-1.027.233-1.483a3.52 3.52 0 0 1 .67-1.196 2.978 2.978 0 0 1 1.059-.793c.415-.192.88-.287 1.395-.287.519 0 .986.095 1.401.287a2.98 2.98 0 0 1 1.067.793c.296.337.521.736.676 1.196.155.456.233.95.233 1.483v.158c0 .533-.078 1.027-.233 1.483a3.54 3.54 0 0 1-.676 1.196 3.088 3.088 0 0 1-1.06.793c-.41.187-.875.281-1.395.281-.519 0-.986-.094-1.401-.281a3.15 3.15 0 0 1-1.066-.793 3.597 3.597 0 0 1-.67-1.196 4.579 4.579 0 0 1-.233-1.483Zm1.265-.158v.158c0 .369.043.717.13 1.046.086.323.216.61.389.861.178.251.399.449.664.595.264.141.571.212.922.212.347 0 .65-.071.91-.212.264-.146.483-.344.656-.595a2.75 2.75 0 0 0 .389-.861c.092-.329.137-.677.137-1.046v-.158c0-.364-.045-.708-.137-1.032a2.643 2.643 0 0 0-.396-.868 1.877 1.877 0 0 0-.656-.601 1.84 1.84 0 0 0-.916-.219 1.86 1.86 0 0 0-.916.219c-.26.145-.479.346-.657.601-.173.251-.303.54-.389.868-.087.324-.13.668-.13 1.032Zm8.319-2.46v6.234h-1.264v-7.397h1.23l.034 1.163Zm2.311-1.204-.007 1.176a1.852 1.852 0 0 0-.301-.041 3.22 3.22 0 0 0-.314-.014c-.292 0-.549.046-.773.137a1.602 1.602 0 0 0-.567.383c-.155.164-.278.36-.369.588a2.79 2.79 0 0 0-.171.738l-.356.205c0-.446.044-.866.13-1.258.091-.391.23-.738.417-1.039a2.05 2.05 0 0 1 .711-.711c.292-.173.638-.259 1.039-.259.091 0 .196.011.315.034.118.018.2.039.246.061Z" fill="#F3F3F3"/><path d="m387 194.962-10-5.773v11.547l10-5.774Zm-57 1h48v-2h-48v2Zm241-1-10-5.773v11.547l10-5.774Zm-57 1h48v-2h-48v2ZM468 72l-2.887 5h5.774L468 72Zm-.5 3.002v2.001h1v-2h-1Zm0 4.003v2.001h1v-2.001h-1Zm0 4.002v2.002h1v-2.002h-1Zm0 4.003v2.002h1V87.01h-1Zm0 4.003v2.001h1v-2.001h-1Zm0 4.003v2.001h1v-2.001h-1Zm0 4.002v2.002h1v-2.001h-1Zm0 4.003v2.002h1v-2.002h-1Zm0 4.003v2.001h1v-2.001h-1Zm0 4.003v2.001h1v-2.001h-1Zm0 4.002v2.002h1v-2.002h-1Zm0 4.003v2.001h1v-2.001h-1Zm0 4.003v2.001h1v-2.001h-1Zm0 4.003v2.001h1v-2.001h-1Zm0 4.002v2.002h1v-2.002h-1Zm0 4.003v2.001h1v-2.001h-1Zm0 4.003v2.001h1v-2.001h-1Zm0 4.003v2.001h1v-2.001h-1Zm0 4.002v2.002h1v-2.002h-1Zm0 4.003v2.001h1v-2.001h-1Zm0 4.003v2.001h1v-2.001h-1Zm0 4.002v1.001h1v-1.001h-1ZM468 72l-5.774 10h11.548L468 72Zm-1 3.002v2.001h2v-2h-2Zm0 4.003v2.001h2v-2.001h-2Zm0 4.002v2.002h2v-2.002h-2Zm0 4.003v2.002h2V87.01h-2Zm0 4.003v2.001h2v-2.001h-2Zm0 4.003v2.001h2v-2.001h-2Zm0 4.002v2.002h2v-2.001h-2Zm0 4.003v2.002h2v-2.002h-2Zm0 4.003v2.001h2v-2.001h-2Zm0 4.003v2.001h2v-2.001h-2Zm0 4.002v2.002h2v-2.002h-2Zm0 4.003v2.001h2v-2.001h-2Zm0 4.003v2.001h2v-2.001h-2Zm0 4.003v2.001h2v-2.001h-2Zm0 4.002v2.002h2v-2.002h-2Zm0 4.003v2.001h2v-2.001h-2Zm0 4.003v2.001h2v-2.001h-2Zm0 4.003v2.001h2v-2.001h-2Zm0 4.002v2.002h2v-2.002h-2Zm0 4.003v2.001h2v-2.001h-2Zm0 4.003v2.001h2v-2.001h-2Zm0 4.002v1.001h2v-1.001h-2Zm-34 1.001 2.887-5h-5.774l2.887 5ZM432.5 72v1h1v-1h-1Zm0 3.002v2.001h1v-2h-1Zm0 4.003v2.001h1v-2.001h-1Zm0 4.002v2.002h1v-2.002h-1Zm0 4.003v2.002h1V87.01h-1Zm0 4.003v2.001h1v-2.001h-1Zm0 4.003v2.001h1v-2.001h-1Zm0 4.002v2.002h1v-2.001h-1Zm0 4.003v2.002h1v-2.002h-1Zm0 4.003v2.001h1v-2.001h-1Zm0 4.003v2.001h1v-2.001h-1Zm0 4.002v2.002h1v-2.002h-1Zm0 4.003v2.001h1v-2.001h-1Zm0 4.003v2.001h1v-2.001h-1Zm0 4.003v2.001h1v-2.001h-1Zm0 4.002v2.002h1v-2.002h-1Zm0 4.003v2.001h1v-2.001h-1Zm0 4.003v2.001h1v-2.001h-1Zm0 4.003v2.001h1v-2.001h-1Zm0 4.002v2.002h1v-2.002h-1Zm0 4.003v2.001h1v-2.001h-1Zm0 4.003v2.001h1v-2.001h-1Zm.5 5.003 5.774-10h-11.547l5.773 10ZM432 72v1h2v-1h-2Zm0 3.002v2.001h2v-2h-2Zm0 4.003v2.001h2v-2.001h-2Zm0 4.002v2.002h2v-2.002h-2Zm0 4.003v2.002h2V87.01h-2Zm0 4.003v2.001h2v-2.001h-2Zm0 4.003v2.001h2v-2.001h-2Zm0 4.002v2.002h2v-2.001h-2Zm0 4.003v2.002h2v-2.002h-2Zm0 4.003v2.001h2v-2.001h-2Zm0 4.003v2.001h2v-2.001h-2Zm0 4.002v2.002h2v-2.002h-2Zm0 4.003v2.001h2v-2.001h-2Zm0 4.003v2.001h2v-2.001h-2Zm0 4.003v2.001h2v-2.001h-2Zm0 4.002v2.002h2v-2.002h-2Zm0 4.003v2.001h2v-2.001h-2Zm0 4.003v2.001h2v-2.001h-2Zm0 4.003v2.001h2v-2.001h-2Zm0 4.002v2.002h2v-2.002h-2Zm0 4.003v2.001h2v-2.001h-2Zm0 4.003v2.001h2v-2.001h-2Z" fill="#000"/><g filter="url(#d)" shape-rendering="crispEdges"><ellipse cx="763.5" cy="193.274" rx="63.5" ry="33.711" fill="#000" fill-opacity=".42"/><path d="M826.5 193.274c0 9.034-6.905 17.329-18.333 23.396-11.406 6.055-27.197 9.815-44.667 9.815-17.47 0-33.261-3.76-44.667-9.815-11.428-6.067-18.333-14.362-18.333-23.396 0-9.033 6.905-17.328 18.333-23.395 11.406-6.055 27.197-9.815 44.667-9.815 17.47 0 33.261 3.76 44.667 9.815 11.428 6.067 18.333 14.362 18.333 23.395Z" stroke="#000"/></g><path d="M729.818 190.664v.629c0 .747-.093 1.417-.28 2.01a4.313 4.313 0 0 1-.807 1.51c-.35.415-.772.732-1.264.95a3.965 3.965 0 0 1-1.641.329 3.94 3.94 0 0 1-1.62-.329 3.624 3.624 0 0 1-1.271-.95 4.414 4.414 0 0 1-.828-1.51c-.196-.593-.294-1.263-.294-2.01v-.629c0-.748.096-1.415.288-2.003a4.426 4.426 0 0 1 .827-1.511 3.548 3.548 0 0 1 1.264-.957 3.945 3.945 0 0 1 1.62-.328c.607 0 1.153.109 1.641.328.492.219.914.538 1.265.957.355.415.626.919.813 1.511.192.588.287 1.255.287 2.003Zm-1.305.629v-.643c0-.592-.062-1.116-.185-1.572a3.247 3.247 0 0 0-.526-1.148 2.277 2.277 0 0 0-.855-.705 2.599 2.599 0 0 0-1.135-.239c-.41 0-.781.08-1.114.239-.328.16-.61.395-.847.705a3.406 3.406 0 0 0-.54 1.148c-.128.456-.192.98-.192 1.572v.643c0 .597.064 1.125.192 1.586.127.455.309.841.546 1.155.242.31.527.545.855.704.333.16.704.239 1.114.239.429 0 .809-.079 1.142-.239a2.23 2.23 0 0 0 .841-.704c.232-.314.407-.7.526-1.155.118-.461.178-.989.178-1.586Zm6.767-5.291v9.953h-1.299v-9.953h1.299Zm3.199 0v1.08h-7.69v-1.08h7.69Zm3.671 10.09c-.515 0-.982-.087-1.401-.26a3.179 3.179 0 0 1-1.073-.745 3.332 3.332 0 0 1-.684-1.135 4.177 4.177 0 0 1-.239-1.436v-.287c0-.601.089-1.137.267-1.606.177-.474.419-.875.724-1.203a3.097 3.097 0 0 1 1.039-.745 2.982 2.982 0 0 1 1.203-.253c.529 0 .985.091 1.368.273.387.182.704.438.95.766.246.323.428.706.547 1.148.118.438.177.916.177 1.436v.567h-5.523v-1.032h4.259v-.096a3.194 3.194 0 0 0-.205-.957 1.721 1.721 0 0 0-.547-.765c-.251-.201-.593-.301-1.026-.301a1.723 1.723 0 0 0-1.415.718 2.692 2.692 0 0 0-.403.868 4.382 4.382 0 0 0-.144 1.182v.287c0 .351.048.682.144.992.1.305.244.574.431.806.191.233.421.415.69.547.273.132.583.198.93.198.446 0 .825-.091 1.135-.273.309-.182.581-.426.813-.731l.766.608c-.16.241-.363.472-.609.69a2.904 2.904 0 0 1-.909.534c-.355.136-.777.205-1.265.205Zm5.729-10.637v10.5h-1.272v-10.5h1.272Zm8.463 9.598c.301 0 .579-.062.834-.185s.465-.292.629-.506a1.41 1.41 0 0 0 .28-.745h1.203a2.262 2.262 0 0 1-.444 1.224 3.044 3.044 0 0 1-2.502 1.251c-.556 0-1.042-.098-1.456-.294a2.894 2.894 0 0 1-1.026-.807 3.61 3.61 0 0 1-.608-1.176 4.963 4.963 0 0 1-.198-1.415v-.287c0-.497.066-.966.198-1.408.137-.447.339-.841.608-1.183.274-.342.616-.61 1.026-.806.414-.196.9-.294 1.456-.294.579 0 1.084.118 1.517.355.433.233.773.552 1.019.957.251.401.387.857.41 1.367h-1.203a1.818 1.818 0 0 0-.26-.827 1.687 1.687 0 0 0-1.483-.813c-.388 0-.713.077-.978.232-.26.151-.467.356-.622.615-.15.256-.26.54-.328.855-.064.31-.096.627-.096.95v.287c0 .324.032.643.096.957.064.315.171.6.321.855.155.255.363.46.622.615.265.15.593.226.985.226Zm4.033-2.714v-.158c0-.533.077-1.027.232-1.483.155-.46.379-.859.67-1.196a2.99 2.99 0 0 1 1.06-.793 3.279 3.279 0 0 1 1.394-.287 3.3 3.3 0 0 1 1.402.287c.419.187.775.451 1.066.793.296.337.522.736.677 1.196.155.456.232.95.232 1.483v.158c0 .533-.077 1.027-.232 1.483a3.543 3.543 0 0 1-.677 1.196 3.084 3.084 0 0 1-1.059.793 3.33 3.33 0 0 1-1.395.281 3.37 3.37 0 0 1-1.401-.281 3.163 3.163 0 0 1-1.067-.793 3.614 3.614 0 0 1-.67-1.196 4.579 4.579 0 0 1-.232-1.483Zm1.265-.158v.158c0 .369.043.717.13 1.046.086.323.216.61.389.861.178.251.399.449.663.595.265.141.572.212.923.212.346 0 .65-.071.909-.212.265-.146.483-.344.657-.595a2.75 2.75 0 0 0 .389-.861c.091-.329.137-.677.137-1.046v-.158a3.8 3.8 0 0 0-.137-1.032 2.664 2.664 0 0 0-.396-.868 1.872 1.872 0 0 0-.657-.601 1.837 1.837 0 0 0-.916-.219c-.346 0-.651.073-.916.219a1.968 1.968 0 0 0-.656.601c-.173.251-.303.54-.389.868-.087.324-.13.668-.13 1.032Zm8.428-6.726v10.5h-1.271v-10.5h1.271Zm3.405 0v10.5h-1.272v-10.5h1.272Zm5.099 10.637c-.515 0-.982-.087-1.401-.26a3.17 3.17 0 0 1-1.073-.745 3.316 3.316 0 0 1-.684-1.135 4.177 4.177 0 0 1-.239-1.436v-.287c0-.601.089-1.137.266-1.606.178-.474.42-.875.725-1.203a3.097 3.097 0 0 1 1.039-.745 2.975 2.975 0 0 1 1.203-.253c.529 0 .985.091 1.367.273.388.182.704.438.951.766.246.323.428.706.546 1.148.119.438.178.916.178 1.436v.567h-5.523v-1.032h4.259v-.096a3.165 3.165 0 0 0-.206-.957 1.711 1.711 0 0 0-.546-.765c-.251-.201-.593-.301-1.026-.301a1.723 1.723 0 0 0-1.415.718 2.692 2.692 0 0 0-.403.868 4.382 4.382 0 0 0-.144 1.182v.287c0 .351.048.682.144.992.1.305.244.574.431.806.191.233.421.415.69.547.273.132.583.198.93.198.446 0 .824-.091 1.134-.273.31-.182.581-.426.814-.731l.765.608a3.514 3.514 0 0 1-.608.69 2.904 2.904 0 0 1-.909.534c-.356.136-.777.205-1.265.205Zm7.315-1.039c.301 0 .578-.062.834-.185.255-.123.465-.292.629-.506a1.41 1.41 0 0 0 .28-.745h1.203a2.262 2.262 0 0 1-.444 1.224 3.044 3.044 0 0 1-2.502 1.251c-.556 0-1.042-.098-1.456-.294a2.894 2.894 0 0 1-1.026-.807 3.61 3.61 0 0 1-.608-1.176 4.963 4.963 0 0 1-.198-1.415v-.287c0-.497.066-.966.198-1.408.137-.447.339-.841.608-1.183.274-.342.616-.61 1.026-.806.414-.196.9-.294 1.456-.294.578 0 1.084.118 1.517.355.433.233.773.552 1.019.957.251.401.387.857.41 1.367h-1.203a1.818 1.818 0 0 0-.26-.827 1.687 1.687 0 0 0-1.483-.813c-.388 0-.713.077-.978.232-.26.151-.467.356-.622.615-.15.256-.26.54-.328.855-.064.31-.096.627-.096.95v.287c0 .324.032.643.096.957.064.315.171.6.321.855.155.255.363.46.622.615.265.15.593.226.985.226Zm7.465-6.495v.971h-3.999v-.971h3.999Zm-2.646-1.797h1.265v7.362c0 .251.038.44.116.567a.553.553 0 0 0 .301.253c.123.041.255.062.396.062.105 0 .214-.009.328-.028.119-.022.208-.041.267-.054l.007 1.032a3.085 3.085 0 0 1-.397.089 3 3 0 0 1-.581.048c-.31 0-.595-.062-.854-.185a1.373 1.373 0 0 1-.622-.615c-.151-.292-.226-.684-.226-1.176v-7.355Zm3.657 5.578v-.158c0-.533.078-1.027.233-1.483a3.52 3.52 0 0 1 .67-1.196 2.978 2.978 0 0 1 1.059-.793c.415-.192.88-.287 1.395-.287.519 0 .986.095 1.401.287a2.98 2.98 0 0 1 1.067.793c.296.337.521.736.676 1.196.155.456.233.95.233 1.483v.158c0 .533-.078 1.027-.233 1.483a3.54 3.54 0 0 1-.676 1.196 3.088 3.088 0 0 1-1.06.793c-.41.187-.875.281-1.395.281-.519 0-.986-.094-1.401-.281a3.15 3.15 0 0 1-1.066-.793 3.597 3.597 0 0 1-.67-1.196 4.579 4.579 0 0 1-.233-1.483Zm1.265-.158v.158c0 .369.043.717.13 1.046.086.323.216.61.389.861.178.251.399.449.664.595.264.141.571.212.922.212.347 0 .65-.071.91-.212.264-.146.483-.344.656-.595a2.75 2.75 0 0 0 .389-.861c.092-.329.137-.677.137-1.046v-.158c0-.364-.045-.708-.137-1.032a2.643 2.643 0 0 0-.396-.868 1.877 1.877 0 0 0-.656-.601 1.84 1.84 0 0 0-.916-.219 1.86 1.86 0 0 0-.916.219c-.26.145-.479.346-.657.601-.173.251-.303.54-.389.868-.087.324-.13.668-.13 1.032Zm8.319-2.46v6.234h-1.264v-7.397h1.23l.034 1.163Zm2.311-1.204-.007 1.176a1.852 1.852 0 0 0-.301-.041 3.22 3.22 0 0 0-.314-.014c-.292 0-.549.046-.773.137a1.602 1.602 0 0 0-.567.383c-.155.164-.278.36-.369.588a2.79 2.79 0 0 0-.171.738l-.356.205c0-.446.044-.866.13-1.258.091-.391.23-.738.417-1.039a2.05 2.05 0 0 1 .711-.711c.292-.173.638-.259 1.039-.259.091 0 .196.011.315.034.118.018.2.039.246.061Z" fill="#F3F3F3"/><path d="m700 193.962-10-5.773v11.547l10-5.774Zm-57 1h48v-2h-48v2Zm241-1-10-5.773v11.547l10-5.774Zm-57 1h48v-2h-48v2ZM781 71l-2.887 5h5.774L781 71Zm-.5 3.002v2.001h1v-2h-1Zm0 4.003v2.001h1v-2.001h-1Zm0 4.002v2.002h1v-2.002h-1Zm0 4.003v2.002h1V86.01h-1Zm0 4.003v2.001h1v-2.001h-1Zm0 4.003v2.001h1v-2.001h-1Zm0 4.002v2.002h1v-2.001h-1Zm0 4.003v2.002h1v-2.002h-1Zm0 4.003v2.001h1v-2.001h-1Zm0 4.003v2.001h1v-2.001h-1Zm0 4.002v2.002h1v-2.002h-1Zm0 4.003v2.001h1v-2.001h-1Zm0 4.003v2.001h1v-2.001h-1Zm0 4.003v2.001h1v-2.001h-1Zm0 4.002v2.002h1v-2.002h-1Zm0 4.003v2.001h1v-2.001h-1Zm0 4.003v2.001h1v-2.001h-1Zm0 4.003v2.001h1v-2.001h-1Zm0 4.002v2.002h1v-2.002h-1Zm0 4.003v2.001h1v-2.001h-1Zm0 4.003v2.001h1v-2.001h-1Zm0 4.002v1.001h1v-1.001h-1ZM781 71l-5.774 10h11.548L781 71Zm-1 3.002v2.001h2v-2h-2Zm0 4.003v2.001h2v-2.001h-2Zm0 4.002v2.002h2v-2.002h-2Zm0 4.003v2.002h2V86.01h-2Zm0 4.003v2.001h2v-2.001h-2Zm0 4.003v2.001h2v-2.001h-2Zm0 4.002v2.002h2v-2.001h-2Zm0 4.003v2.002h2v-2.002h-2Zm0 4.003v2.001h2v-2.001h-2Zm0 4.003v2.001h2v-2.001h-2Zm0 4.002v2.002h2v-2.002h-2Zm0 4.003v2.001h2v-2.001h-2Zm0 4.003v2.001h2v-2.001h-2Zm0 4.003v2.001h2v-2.001h-2Zm0 4.002v2.002h2v-2.002h-2Zm0 4.003v2.001h2v-2.001h-2Zm0 4.003v2.001h2v-2.001h-2Zm0 4.003v2.001h2v-2.001h-2Zm0 4.002v2.002h2v-2.002h-2Zm0 4.003v2.001h2v-2.001h-2Zm0 4.003v2.001h2v-2.001h-2Zm0 4.002v1.001h2v-1.001h-2Zm-34 1.001 2.887-5h-5.774l2.887 5ZM745.5 71v1h1v-1h-1Zm0 3.002v2.001h1v-2h-1Zm0 4.003v2.001h1v-2.001h-1Zm0 4.002v2.002h1v-2.002h-1Zm0 4.003v2.002h1V86.01h-1Zm0 4.003v2.001h1v-2.001h-1Zm0 4.003v2.001h1v-2.001h-1Zm0 4.002v2.002h1v-2.001h-1Zm0 4.003v2.002h1v-2.002h-1Zm0 4.003v2.001h1v-2.001h-1Zm0 4.003v2.001h1v-2.001h-1Zm0 4.002v2.002h1v-2.002h-1Zm0 4.003v2.001h1v-2.001h-1Zm0 4.003v2.001h1v-2.001h-1Zm0 4.003v2.001h1v-2.001h-1Zm0 4.002v2.002h1v-2.002h-1Zm0 4.003v2.001h1v-2.001h-1Zm0 4.003v2.001h1v-2.001h-1Zm0 4.003v2.001h1v-2.001h-1Zm0 4.002v2.002h1v-2.002h-1Zm0 4.003v2.001h1v-2.001h-1Zm0 4.003v2.001h1v-2.001h-1Zm.5 5.003 5.774-10h-11.547l5.773 10ZM745 71v1h2v-1h-2Zm0 3.002v2.001h2v-2h-2Zm0 4.003v2.001h2v-2.001h-2Zm0 4.002v2.002h2v-2.002h-2Zm0 4.003v2.002h2V86.01h-2Zm0 4.003v2.001h2v-2.001h-2Zm0 4.003v2.001h2v-2.001h-2Zm0 4.002v2.002h2v-2.001h-2Zm0 4.003v2.002h2v-2.002h-2Zm0 4.003v2.001h2v-2.001h-2Zm0 4.003v2.001h2v-2.001h-2Zm0 4.002v2.002h2v-2.002h-2Zm0 4.003v2.001h2v-2.001h-2Zm0 4.003v2.001h2v-2.001h-2Zm0 4.003v2.001h2v-2.001h-2Zm0 4.002v2.002h2v-2.002h-2Zm0 4.003v2.001h2v-2.001h-2Zm0 4.003v2.001h2v-2.001h-2Zm0 4.003v2.001h2v-2.001h-2Zm0 4.002v2.002h2v-2.002h-2Zm0 4.003v2.001h2v-2.001h-2Zm0 4.003v2.001h2v-2.001h-2Z" fill="#000"/><defs><filter id="a" x="21" y="11" width="917" height="62" filterUnits="userSpaceOnUse" color-interpolation-filters="sRGB"><feFlood flood-opacity="0" result="BackgroundImageFix"/><feColorMatrix in="SourceAlpha" values="0 0 0 0 0 0 0 0 0 0 0 0 0 0 0 0 0 0 127 0" result="hardAlpha"/><feOffset dx="2" dy="2"/><feGaussianBlur stdDeviation="2"/><feComposite in2="hardAlpha" operator="out"/><feColorMatrix values="0 0 0 0 0 0 0 0 0 0 0 0 0 0 0 0 0 0 0.25 0"/><feBlend in2="BackgroundImageFix" result="effect1_dropShadow_101_2"/><feBlend in="SourceGraphic" in2="effect1_dropShadow_101_2" result="shape"/></filter><filter id="b" x="87" y="158.564" width="135" height="75.421" filterUnits="userSpaceOnUse" color-interpolation-filters="sRGB"><feFlood flood-opacity="0" result="BackgroundImageFix"/><feColorMatrix in="SourceAlpha" values="0 0 0 0 0 0 0 0 0 0 0 0 0 0 0 0 0 0 127 0" result="hardAlpha"/><feOffset dx="2" dy="2"/><feGaussianBlur stdDeviation="2"/><feComposite in2="hardAlpha" operator="out"/><feColorMatrix values="0 0 0 0 0 0 0 0 0 0 0 0 0 0 0 0 0 0 0.25 0"/><feBlend in2="BackgroundImageFix" result="effect1_dropShadow_101_2"/><feBlend in="SourceGraphic" in2="effect1_dropShadow_101_2" result="shape"/></filter><filter id="c" x="385" y="158.564" width="135" height="75.421" filterUnits="userSpaceOnUse" color-interpolation-filters="sRGB"><feFlood flood-opacity="0" result="BackgroundImageFix"/><feColorMatrix in="SourceAlpha" values="0 0 0 0 0 0 0 0 0 0 0 0 0 0 0 0 0 0 127 0" result="hardAlpha"/><feOffset dx="2" dy="2"/><feGaussianBlur stdDeviation="2"/><feComposite in2="hardAlpha" operator="out"/><feColorMatrix values="0 0 0 0 0 0 0 0 0 0 0 0 0 0 0 0 0 0 0.25 0"/><feBlend in2="BackgroundImageFix" result="effect1_dropShadow_101_2"/><feBlend in="SourceGraphic" in2="effect1_dropShadow_101_2" result="shape"/></filter><filter id="d" x="698" y="157.564" width="135" height="75.421" filterUnits="userSpaceOnUse" color-interpolation-filters="sRGB"><feFlood flood-opacity="0" result="BackgroundImageFix"/><feColorMatrix in="SourceAlpha" values="0 0 0 0 0 0 0 0 0 0 0 0 0 0 0 0 0 0 127 0" result="hardAlpha"/><feOffset dx="2" dy="2"/><feGaussianBlur stdDeviation="2"/><feComposite in2="hardAlpha" operator="out"/><feColorMatrix values="0 0 0 0 0 0 0 0 0 0 0 0 0 0 0 0 0 0 0.25 0"/><feBlend in2="BackgroundImageFix" result="effect1_dropShadow_101_2"/><feBlend in="SourceGraphic" in2="effect1_dropShadow_101_2" result="shape"/></filter></defs></svg>