<svg width="1225" height="796" fill="none" xmlns="http://www.w3.org/2000/svg"><rect width="1225" height="796" rx="27" fill="#fff"/><rect x="826.29" y="81.71" width="637.58" height="744.58" rx="25.652" transform="rotate(90 826.29 81.71)" stroke="#90A8EC" stroke-width="3.42"/><rect x="129" y="52" width="416.725" height="55" rx="10.223" fill="#fff"/><path d="M157.455 72.515v-3.902h18.387v3.902h-6.854V91h-4.679V72.515h-6.854Zm23.831 18.802c-1.072 0-2.026-.186-2.864-.557a4.61 4.61 0 0 1-1.99-1.673c-.481-.743-.721-1.669-.721-2.776 0-.933.171-1.717.514-2.35a4.15 4.15 0 0 1 1.399-1.531 6.779 6.779 0 0 1 2.011-.875 15.34 15.34 0 0 1 2.383-.415 59.91 59.91 0 0 0 2.361-.284c.598-.095 1.031-.233 1.301-.416.27-.182.405-.451.405-.809v-.065c0-.692-.219-1.228-.656-1.607-.43-.379-1.042-.569-1.837-.569-.838 0-1.505.186-2 .558-.496.364-.824.824-.984 1.377l-4.307-.35c.219-1.02.649-1.901 1.29-2.645.641-.75 1.468-1.326 2.481-1.727 1.021-.408 2.201-.612 3.542-.612.933 0 1.826.11 2.678.328.86.218 1.622.557 2.285 1.016.67.46 1.199 1.05 1.585 1.771.386.715.579 1.57.579 2.57V91h-4.416v-2.328h-.131c-.27.524-.63.987-1.082 1.388a5.013 5.013 0 0 1-1.629.93c-.634.218-1.366.327-2.197.327Zm1.333-3.214c.685 0 1.29-.135 1.815-.404a3.213 3.213 0 0 0 1.235-1.115c.299-.467.448-.995.448-1.585v-1.782a2.48 2.48 0 0 1-.601.262c-.248.073-.528.142-.842.208a41.22 41.22 0 0 1-.94.164l-.852.12a5.752 5.752 0 0 0-1.432.383c-.408.175-.725.412-.951.71-.226.292-.339.656-.339 1.093 0 .634.229 1.12.688 1.454.467.328 1.057.492 1.771.492ZM194.354 91V74.21h4.657V91h-4.657Zm2.35-18.955c-.692 0-1.286-.23-1.781-.689-.496-.466-.744-1.023-.744-1.672 0-.641.248-1.192.744-1.65a2.492 2.492 0 0 1 1.77-.7c.7 0 1.294.233 1.782.7.496.458.744 1.009.744 1.65 0 .648-.248 1.206-.744 1.672-.488.46-1.078.69-1.771.69Zm10.694-3.432V91h-4.657V68.613h4.657Zm23.087 6.438c-.088-.882-.463-1.567-1.126-2.055-.663-.488-1.563-.732-2.7-.732-.773 0-1.425.109-1.957.328-.532.211-.94.506-1.224.885a2.13 2.13 0 0 0-.415 1.29c-.015.4.069.75.251 1.05.189.298.448.557.776.776.328.21.707.397 1.137.557.43.153.889.284 1.377.393l2.012.481c.976.22 1.873.51 2.689.875a8.159 8.159 0 0 1 2.12 1.345 5.585 5.585 0 0 1 1.389 1.88c.335.721.506 1.548.513 2.481-.007 1.37-.357 2.558-1.049 3.564-.685.998-1.676 1.774-2.973 2.328-1.29.547-2.846.82-4.668.82-1.807 0-3.381-.277-4.722-.83-1.334-.555-2.376-1.374-3.127-2.46-.743-1.094-1.133-2.445-1.169-4.056h4.58c.051.75.266 1.377.645 1.88.386.496.9.871 1.541 1.126.649.248 1.381.372 2.197.372.802 0 1.498-.117 2.088-.35.598-.233 1.061-.557 1.389-.973a2.25 2.25 0 0 0 .491-1.432c0-.503-.149-.925-.448-1.268-.291-.342-.721-.634-1.29-.874-.561-.24-1.249-.46-2.066-.656l-2.437-.612c-1.888-.46-3.378-1.177-4.471-2.154-1.093-.976-1.636-2.292-1.629-3.946-.007-1.356.353-2.54 1.082-3.553.736-1.013 1.746-1.803 3.028-2.372 1.283-.568 2.74-.852 4.373-.852 1.661 0 3.111.284 4.35.852 1.247.569 2.216 1.36 2.908 2.372.692 1.013 1.05 2.187 1.071 3.52h-4.536Zm12.727 16.266c-1.072 0-2.026-.186-2.864-.557a4.61 4.61 0 0 1-1.99-1.673c-.481-.743-.721-1.669-.721-2.776 0-.933.171-1.717.513-2.35a4.16 4.16 0 0 1 1.4-1.531 6.779 6.779 0 0 1 2.011-.875 15.34 15.34 0 0 1 2.383-.415 59.91 59.91 0 0 0 2.361-.284c.598-.095 1.031-.233 1.301-.416.27-.182.405-.451.405-.809v-.065c0-.692-.219-1.228-.656-1.607-.43-.379-1.042-.569-1.837-.569-.838 0-1.505.186-2 .558-.496.364-.824.824-.984 1.377l-4.307-.35c.219-1.02.649-1.901 1.29-2.645.641-.75 1.468-1.326 2.481-1.727 1.021-.408 2.201-.612 3.542-.612.933 0 1.826.11 2.678.328.86.218 1.622.557 2.285 1.016.67.46 1.199 1.05 1.585 1.771.386.715.579 1.57.579 2.57V91h-4.416v-2.328h-.131c-.27.524-.631.987-1.082 1.388a5.013 5.013 0 0 1-1.629.93c-.634.218-1.367.327-2.197.327Zm1.333-3.214c.685 0 1.29-.135 1.815-.404a3.213 3.213 0 0 0 1.235-1.115c.299-.467.448-.995.448-1.585v-1.782a2.48 2.48 0 0 1-.601.262c-.248.073-.528.142-.842.208a41.22 41.22 0 0 1-.94.164l-.852.12a5.752 5.752 0 0 0-1.432.383c-.408.175-.725.412-.951.71-.226.292-.339.656-.339 1.093 0 .634.229 1.12.688 1.454.467.328 1.057.492 1.771.492ZM256.28 91V74.21h4.438v2.962h.197c.35-.984.933-1.76 1.749-2.328.816-.569 1.793-.853 2.93-.853 1.151 0 2.131.288 2.94.863.809.569 1.348 1.341 1.618 2.318h.175c.342-.962.962-1.73 1.858-2.307.904-.583 1.971-.874 3.203-.874 1.567 0 2.839.5 3.815 1.498.984.99 1.476 2.397 1.476 4.219V91h-4.646V80.626c0-.933-.248-1.632-.743-2.099-.496-.466-1.115-.7-1.859-.7-.845 0-1.505.27-1.978.81-.474.532-.711 1.235-.711 2.11V91h-4.514V80.528c0-.824-.237-1.48-.711-1.968-.466-.488-1.082-.732-1.847-.732-.518 0-.984.13-1.4.393a2.698 2.698 0 0 0-.972 1.082c-.241.46-.361.999-.361 1.618V91h-4.657Zm28.077 6.296V74.21h4.591v2.82h.208c.204-.451.499-.91.885-1.377.394-.473.904-.867 1.531-1.18.634-.32 1.421-.481 2.361-.481 1.224 0 2.354.32 3.389.962 1.035.634 1.862 1.592 2.481 2.875.62 1.275.929 2.875.929 4.799 0 1.873-.302 3.454-.907 4.744-.598 1.282-1.414 2.255-2.449 2.919-1.027.655-2.179.983-3.454.983-.904 0-1.672-.15-2.306-.448-.627-.299-1.141-.674-1.542-1.126a5.701 5.701 0 0 1-.918-1.388h-.142v8.985h-4.657Zm4.559-14.691c0 .998.138 1.869.415 2.612.277.744.678 1.323 1.202 1.738.525.409 1.163.613 1.913.613.758 0 1.4-.208 1.924-.623.525-.423.922-1.006 1.192-1.75.277-.75.415-1.614.415-2.59 0-.97-.135-1.822-.404-2.558-.27-.736-.667-1.312-1.192-1.727-.525-.416-1.169-.623-1.935-.623-.758 0-1.399.2-1.924.6-.517.402-.914.97-1.191 1.706s-.415 1.603-.415 2.602Zm19.578-13.992V91h-4.657V68.613h4.657ZM312.224 91V74.21h4.657V91h-4.657Zm2.35-18.955c-.692 0-1.286-.23-1.782-.689-.495-.466-.743-1.023-.743-1.672 0-.641.248-1.192.743-1.65a2.496 2.496 0 0 1 1.771-.7c.7 0 1.294.233 1.782.7.495.458.743 1.009.743 1.65 0 .648-.248 1.206-.743 1.672-.488.46-1.079.69-1.771.69Zm10.694 9.248V91h-4.657V74.21h4.438v2.962h.197a4.683 4.683 0 0 1 1.869-2.318c.875-.575 1.935-.863 3.181-.863 1.166 0 2.183.255 3.05.765s1.541 1.239 2.022 2.186c.481.94.722 2.063.722 3.367V91h-4.657v-9.86c.007-1.028-.255-1.83-.787-2.405-.532-.583-1.265-.874-2.197-.874-.627 0-1.181.134-1.662.404-.474.27-.845.663-1.115 1.18-.262.51-.397 1.127-.404 1.848Zm22.056 16.244c-1.508 0-2.802-.204-3.88-.612-1.072-.408-1.924-.959-2.558-1.65-.634-.693-1.046-1.462-1.235-2.307l4.306-.58c.132.306.339.594.624.864.284.277.659.503 1.125.678.474.174 1.05.262 1.728.262 1.013 0 1.847-.24 2.503-.721.663-.481.995-1.272.995-2.373v-3.071h-.197c-.204.466-.51.907-.918 1.322-.408.416-.933.755-1.574 1.017-.642.262-1.407.394-2.296.394-1.261 0-2.409-.292-3.443-.875-1.028-.59-1.848-1.49-2.46-2.7-.605-1.217-.907-2.755-.907-4.613 0-1.902.309-3.49.929-4.766.619-1.275 1.443-2.23 2.47-2.864a6.385 6.385 0 0 1 3.4-.951c.94 0 1.727.16 2.361.48.634.314 1.144.708 1.531 1.181.393.467.696.926.907 1.378h.175v-2.82h4.624v16.954c0 1.4-.35 2.569-1.05 3.509-.699.947-1.669 1.662-2.907 2.142-1.232.481-2.649.722-4.253.722Zm.099-10.276c.75 0 1.384-.185 1.902-.557.524-.379.925-.918 1.202-1.618.284-.707.427-1.552.427-2.536s-.139-1.836-.416-2.558c-.277-.729-.678-1.293-1.202-1.694-.525-.401-1.163-.601-1.913-.601-.765 0-1.41.207-1.935.623-.525.408-.922.976-1.192 1.705-.269.729-.404 1.57-.404 2.525 0 .97.135 1.807.404 2.514.277.7.674 1.243 1.192 1.63.525.378 1.17.567 1.935.567ZM366.451 91V68.613h8.833c1.698 0 3.144.324 4.34.972 1.195.642 2.106 1.535 2.732 2.679.634 1.137.952 2.448.952 3.935s-.321 2.798-.962 3.935c-.642 1.137-1.571 2.023-2.788 2.657-1.21.634-2.674.95-4.394.95h-5.63v-3.793h4.864c.911 0 1.662-.156 2.252-.47.598-.32 1.042-.761 1.334-1.322.299-.569.448-1.221.448-1.957 0-.743-.149-1.392-.448-1.946a2.994 2.994 0 0 0-1.334-1.3c-.597-.314-1.355-.47-2.273-.47h-3.192V91h-4.734Zm19.843 0V74.21h4.515v2.93h.175c.306-1.043.82-1.83 1.541-2.362.722-.54 1.553-.809 2.493-.809.233 0 .484.015.754.044.27.029.506.069.71.12v4.132a6.065 6.065 0 0 0-.907-.175 8.153 8.153 0 0 0-1.06-.076c-.685 0-1.297.149-1.837.448-.532.291-.954.7-1.268 1.224-.306.525-.459 1.13-.459 1.815V91h-4.657Zm19.401.328c-1.698 0-3.167-.36-4.405-1.082a7.408 7.408 0 0 1-2.854-3.04c-.67-1.304-1.005-2.816-1.005-4.536 0-1.734.335-3.25 1.005-4.547.671-1.305 1.622-2.318 2.854-3.039 1.238-.729 2.707-1.093 4.405-1.093 1.698 0 3.163.364 4.394 1.093 1.239.721 2.194 1.734 2.864 3.039.671 1.297 1.006 2.813 1.006 4.547 0 1.72-.335 3.232-1.006 4.537a7.38 7.38 0 0 1-2.864 3.039c-1.231.721-2.696 1.082-4.394 1.082Zm.022-3.607c.772 0 1.417-.219 1.935-.656.517-.445.907-1.05 1.169-1.815.27-.765.405-1.636.405-2.612 0-.977-.135-1.848-.405-2.613-.262-.765-.652-1.37-1.169-1.815-.518-.444-1.163-.666-1.935-.666-.78 0-1.436.222-1.968.666-.525.445-.922 1.05-1.191 1.815-.263.765-.394 1.636-.394 2.612 0 .977.131 1.848.394 2.613.269.765.666 1.37 1.191 1.815.532.437 1.188.656 1.968.656Zm18.856 3.607c-1.72 0-3.199-.364-4.438-1.093a7.392 7.392 0 0 1-2.842-3.061c-.656-1.304-.984-2.806-.984-4.504 0-1.72.332-3.228.995-4.525.67-1.305 1.621-2.321 2.853-3.05 1.232-.736 2.696-1.104 4.394-1.104 1.465 0 2.748.266 3.848.798 1.101.532 1.971 1.279 2.613 2.24.641.963.995 2.092 1.06 3.39h-4.394c-.124-.839-.452-1.513-.984-2.023-.525-.517-1.213-.776-2.066-.776-.722 0-1.352.197-1.891.59-.532.387-.948.951-1.246 1.695-.299.743-.449 1.643-.449 2.7 0 1.071.146 1.982.438 2.733.298.75.717 1.322 1.257 1.716.539.393 1.169.59 1.891.59a3.07 3.07 0 0 0 1.432-.328c.43-.219.783-.535 1.06-.95.284-.424.47-.93.558-1.52h4.394c-.073 1.282-.423 2.412-1.049 3.388-.62.97-1.476 1.728-2.569 2.274-1.093.547-2.387.82-3.881.82Zm18.133 0c-1.728 0-3.214-.35-4.46-1.05a7.184 7.184 0 0 1-2.864-2.995c-.671-1.297-1.006-2.83-1.006-4.602 0-1.727.335-3.243 1.006-4.547.67-1.305 1.614-2.321 2.831-3.05 1.224-.729 2.66-1.093 4.307-1.093 1.107 0 2.139.178 3.093.535.962.35 1.8.879 2.515 1.586.721.706 1.282 1.596 1.683 2.667.401 1.064.601 2.31.601 3.738v1.28h-14.178V80.91h9.795c0-.67-.146-1.264-.438-1.781a3.13 3.13 0 0 0-1.213-1.214c-.51-.299-1.104-.448-1.782-.448-.707 0-1.333.164-1.88.492a3.45 3.45 0 0 0-1.268 1.3 3.671 3.671 0 0 0-.47 1.804v2.744c0 .831.153 1.549.459 2.154a3.356 3.356 0 0 0 1.323 1.399c.568.328 1.242.492 2.022.492.517 0 .991-.073 1.421-.219.43-.146.798-.364 1.104-.656.306-.291.539-.648.7-1.071l4.307.284a5.883 5.883 0 0 1-1.345 2.711c-.67.765-1.537 1.363-2.601 1.793-1.057.423-2.278.634-3.662.634Zm24.715-12.33-4.263.262a2.2 2.2 0 0 0-.47-.984 2.488 2.488 0 0 0-.951-.71c-.386-.183-.849-.274-1.388-.274-.722 0-1.33.153-1.826.46-.495.298-.743.699-.743 1.202 0 .4.16.74.481 1.016.321.277.871.5 1.65.667l3.039.612c1.633.336 2.85.875 3.651 1.618.802.743 1.203 1.72 1.203 2.93 0 1.1-.324 2.066-.973 2.897-.641.83-1.523 1.479-2.645 1.945-1.115.46-2.402.689-3.859.689-2.223 0-3.994-.463-5.313-1.388-1.312-.933-2.08-2.201-2.306-3.804l4.58-.24c.138.677.474 1.194 1.006 1.551.532.35 1.213.525 2.044.525.816 0 1.472-.157 1.967-.47.503-.32.758-.732.766-1.235-.008-.423-.186-.77-.536-1.039-.35-.277-.889-.488-1.618-.634l-2.908-.58c-1.639-.327-2.86-.895-3.662-1.704-.794-.81-1.191-1.84-1.191-3.094 0-1.078.291-2.008.874-2.787.591-.78 1.418-1.381 2.482-1.804 1.071-.423 2.325-.634 3.76-.634 2.121 0 3.79.448 5.007 1.344 1.224.897 1.938 2.117 2.142 3.662Zm17.285 0-4.263.262a2.2 2.2 0 0 0-.47-.984 2.488 2.488 0 0 0-.951-.71c-.386-.183-.849-.274-1.388-.274-.722 0-1.33.153-1.826.46-.495.298-.743.699-.743 1.202 0 .4.16.74.481 1.016.321.277.871.5 1.651.667l3.039.612c1.632.336 2.849.875 3.651 1.618.801.743 1.202 1.72 1.202 2.93 0 1.1-.324 2.066-.973 2.897-.641.83-1.523 1.479-2.645 1.945-1.115.46-2.401.689-3.859.689-2.223 0-3.994-.463-5.313-1.388-1.311-.933-2.08-2.201-2.306-3.804l4.58-.24c.139.677.474 1.194 1.006 1.551.532.35 1.213.525 2.044.525.816 0 1.472-.157 1.968-.47.502-.32.758-.732.765-1.235-.007-.423-.186-.77-.536-1.039-.35-.277-.889-.488-1.618-.634l-2.907-.58c-1.64-.327-2.861-.895-3.662-1.704-.795-.81-1.192-1.84-1.192-3.094 0-1.078.292-2.008.875-2.787.59-.78 1.417-1.381 2.481-1.804 1.071-.423 2.325-.634 3.76-.634 2.121 0 3.79.448 5.007 1.344 1.224.897 1.938 2.117 2.142 3.662Zm10.902 12.33c-1.698 0-3.167-.36-4.406-1.082a7.412 7.412 0 0 1-2.853-3.04c-.67-1.304-1.005-2.816-1.005-4.536 0-1.734.335-3.25 1.005-4.547.671-1.305 1.622-2.318 2.853-3.039 1.239-.729 2.708-1.093 4.406-1.093 1.698 0 3.163.364 4.394 1.093 1.239.721 2.194 1.734 2.864 3.039.671 1.297 1.006 2.813 1.006 4.547 0 1.72-.335 3.232-1.006 4.537a7.38 7.38 0 0 1-2.864 3.039c-1.231.721-2.696 1.082-4.394 1.082Zm.022-3.607c.772 0 1.417-.219 1.934-.656.518-.445.908-1.05 1.17-1.815.27-.765.405-1.636.405-2.612 0-.977-.135-1.848-.405-2.613-.262-.765-.652-1.37-1.17-1.815-.517-.444-1.162-.666-1.934-.666-.78 0-1.436.222-1.968.666-.525.445-.922 1.05-1.192 1.815-.262.765-.393 1.636-.393 2.612 0 .977.131 1.848.393 2.613.27.765.667 1.37 1.192 1.815.532.437 1.188.656 1.968.656ZM506.9 91V74.21h4.514v2.93h.175c.306-1.043.82-1.83 1.542-2.362.721-.54 1.552-.809 2.492-.809.233 0 .485.015.754.044.27.029.507.069.711.12v4.132a6.083 6.083 0 0 0-.908-.175 8.14 8.14 0 0 0-1.06-.076c-.685 0-1.297.149-1.836.448-.532.291-.955.7-1.268 1.224-.306.525-.459 1.13-.459 1.815V91H506.9Z" fill="#90A8EC"/><rect x="785" y="122" width="558" height="663" rx="8" transform="rotate(90 785 122)" fill="#E7ECF8"/><path d="M157.093 162.515v-3.902h18.387v3.902h-6.854V181h-4.679v-18.485h-6.854ZM176.677 181v-16.791h4.514v2.93h.175c.306-1.042.82-1.829 1.541-2.361.722-.539 1.553-.809 2.493-.809.233 0 .484.015.754.044.27.029.507.069.711.12v4.132a6.03 6.03 0 0 0-.908-.175 8.134 8.134 0 0 0-1.06-.076c-.685 0-1.297.149-1.837.448a3.305 3.305 0 0 0-1.268 1.224c-.306.525-.459 1.13-.459 1.815V181h-4.656Zm16.902.317c-1.071 0-2.026-.186-2.864-.557a4.61 4.61 0 0 1-1.989-1.673c-.481-.743-.722-1.669-.722-2.777 0-.932.171-1.716.514-2.35a4.155 4.155 0 0 1 1.399-1.53 6.796 6.796 0 0 1 2.012-.875 15.38 15.38 0 0 1 2.383-.415 61.437 61.437 0 0 0 2.361-.284c.597-.095 1.031-.233 1.301-.416.269-.182.404-.451.404-.809v-.065c0-.692-.219-1.228-.656-1.607-.43-.379-1.042-.568-1.836-.568-.838 0-1.505.185-2.001.557-.495.364-.823.823-.984 1.377l-4.307-.349c.219-1.021.649-1.903 1.29-2.646.642-.75 1.469-1.326 2.482-1.727 1.02-.408 2.201-.612 3.542-.612.932 0 1.825.109 2.678.328a6.99 6.99 0 0 1 2.284 1.016 4.945 4.945 0 0 1 1.585 1.771c.387.714.58 1.571.58 2.569V181h-4.417v-2.328h-.131c-.269.524-.63.987-1.082 1.388a5.023 5.023 0 0 1-1.629.929c-.634.219-1.366.328-2.197.328Zm1.334-3.214c.685 0 1.29-.135 1.814-.404a3.22 3.22 0 0 0 1.236-1.115c.298-.467.448-.995.448-1.585v-1.782a2.482 2.482 0 0 1-.601.262c-.248.073-.529.142-.842.208-.313.058-.627.113-.94.164l-.853.12a5.754 5.754 0 0 0-1.432.383c-.408.175-.725.412-.951.71-.226.292-.339.656-.339 1.093 0 .634.23 1.119.689 1.454.466.328 1.057.492 1.771.492Zm19.321 3.225c-1.72 0-3.199-.364-4.438-1.093a7.383 7.383 0 0 1-2.842-3.061c-.656-1.304-.984-2.806-.984-4.504 0-1.72.331-3.228.995-4.525.67-1.305 1.621-2.321 2.853-3.05 1.231-.736 2.696-1.104 4.394-1.104 1.465 0 2.747.266 3.848.798 1.1.532 1.971 1.279 2.612 2.241.642.962.995 2.091 1.061 3.388h-4.395c-.123-.838-.451-1.512-.983-2.022-.525-.517-1.214-.776-2.066-.776-.722 0-1.352.197-1.892.59-.532.387-.947.951-1.246 1.695-.299.743-.448 1.643-.448 2.7 0 1.071.146 1.982.437 2.733.299.75.718 1.322 1.257 1.716.54.393 1.17.59 1.892.59.532 0 1.009-.109 1.432-.328.43-.218.783-.535 1.06-.951.284-.423.47-.929.557-1.519h4.395c-.073 1.282-.423 2.412-1.05 3.388-.619.97-1.475 1.728-2.568 2.274-1.094.547-2.387.82-3.881.82Zm18.132 0c-1.727 0-3.214-.35-4.46-1.049a7.192 7.192 0 0 1-2.864-2.996c-.67-1.297-1.005-2.831-1.005-4.602 0-1.727.335-3.243 1.005-4.547.671-1.305 1.614-2.321 2.831-3.05 1.225-.729 2.66-1.093 4.307-1.093 1.108 0 2.139.178 3.094.535.962.35 1.8.879 2.514 1.586.722.706 1.283 1.596 1.684 2.667.4 1.064.601 2.31.601 3.738v1.279h-14.178v-2.886h9.794c0-.67-.145-1.264-.437-1.781a3.132 3.132 0 0 0-1.213-1.214c-.51-.299-1.104-.448-1.782-.448-.707 0-1.334.164-1.88.492-.54.321-.962.754-1.268 1.301a3.668 3.668 0 0 0-.47 1.803v2.744c0 .831.153 1.549.459 2.154a3.358 3.358 0 0 0 1.322 1.399c.569.328 1.243.492 2.023.492.517 0 .991-.073 1.421-.219.43-.146.798-.364 1.104-.656a2.84 2.84 0 0 0 .699-1.071l4.307.284a5.869 5.869 0 0 1-1.344 2.711c-.671.765-1.538 1.363-2.602 1.793-1.056.423-2.277.634-3.662.634Z" fill="#90A8EC"/><g filter="url(#a)"><path d="M387 398c0-5.523 4.477-10 10-10h116c5.523 0 10 4.477 10 10v62c0 5.523-4.477 10-10 10H397c-5.523 0-10-4.477-10-10v-62Z" fill="#fff"/><path d="M433.641 425.636c-.128-1.079-.646-1.917-1.555-2.514-.909-.596-2.024-.895-3.345-.895-.966 0-1.811.157-2.536.469-.717.313-1.278.742-1.683 1.289a3.088 3.088 0 0 0-.597 1.864c0 .583.139 1.084.416 1.503.284.411.646.756 1.086 1.033.441.27.902.494 1.385.671.483.171.927.309 1.332.416l2.216.596c.568.149 1.2.355 1.896.618a8.786 8.786 0 0 1 2.014 1.076 5.49 5.49 0 0 1 1.598 1.726c.419.703.628 1.566.628 2.589 0 1.179-.309 2.244-.926 3.196-.611.951-1.506 1.708-2.685 2.269-1.172.561-2.596.842-4.272.842-1.563 0-2.916-.253-4.059-.757-1.136-.504-2.031-1.207-2.685-2.109-.646-.902-1.012-1.95-1.097-3.143h2.727c.071.824.348 1.506.831 2.045.49.533 1.108.931 1.854 1.194a7.522 7.522 0 0 0 2.429.383c1.008 0 1.914-.163 2.716-.49.803-.334 1.439-.795 1.907-1.385.469-.596.704-1.292.704-2.088 0-.724-.203-1.314-.608-1.768-.405-.455-.937-.824-1.598-1.108a16.765 16.765 0 0 0-2.141-.746l-2.685-.767c-1.704-.49-3.054-1.19-4.048-2.099-.994-.909-1.491-2.099-1.491-3.569 0-1.221.33-2.287.99-3.196.668-.916 1.563-1.626 2.685-2.13 1.129-.512 2.39-.767 3.782-.767 1.406 0 2.656.252 3.75.756 1.094.497 1.96 1.179 2.599 2.045a5.09 5.09 0 0 1 1.023 2.951h-2.557Zm6.858 22.5v-22.5h2.429v2.6h.299c.184-.284.44-.647.767-1.087.334-.447.809-.845 1.427-1.193.625-.355 1.47-.533 2.536-.533 1.378 0 2.592.345 3.643 1.034 1.051.689 1.872 1.665 2.461 2.929.59 1.265.884 2.756.884 4.475 0 1.733-.294 3.235-.884 4.506-.589 1.264-1.406 2.245-2.45 2.941-1.044.688-2.248 1.033-3.612 1.033-1.051 0-1.892-.174-2.524-.522-.633-.355-1.119-.757-1.46-1.204a15.796 15.796 0 0 1-.788-1.129h-.213v8.65h-2.515Zm2.472-14.318c0 1.236.181 2.326.543 3.271.363.937.892 1.672 1.588 2.205.696.526 1.548.788 2.556.788 1.052 0 1.929-.277 2.632-.831.71-.561 1.243-1.314 1.598-2.258.362-.952.543-2.01.543-3.175 0-1.15-.177-2.187-.532-3.111-.348-.93-.878-1.665-1.588-2.205-.703-.547-1.587-.82-2.653-.82-1.022 0-1.882.259-2.578.778-.696.511-1.221 1.228-1.576 2.152-.355.916-.533 1.985-.533 3.206Zm20.625 8.566c-1.037 0-1.978-.196-2.823-.586a4.848 4.848 0 0 1-2.014-1.716c-.497-.752-.745-1.662-.745-2.727 0-.937.184-1.697.554-2.28a3.91 3.91 0 0 1 1.48-1.385 7.8 7.8 0 0 1 2.046-.745 24.57 24.57 0 0 1 2.269-.405c.994-.128 1.8-.224 2.418-.288.625-.071 1.08-.188 1.364-.351.291-.164.437-.448.437-.853v-.085c0-1.051-.288-1.868-.863-2.45-.568-.583-1.431-.874-2.589-.874-1.2 0-2.141.263-2.823.789-.682.525-1.161 1.086-1.438 1.683l-2.387-.852c.426-.995.995-1.769 1.705-2.323a6.38 6.38 0 0 1 2.344-1.172 9.739 9.739 0 0 1 2.514-.341c.525 0 1.129.064 1.811.192a5.808 5.808 0 0 1 1.992.756c.646.384 1.183.963 1.609 1.737.426.774.639 1.811.639 3.111V442h-2.514v-2.216h-.128c-.171.355-.455.735-.852 1.14-.398.405-.927.749-1.588 1.033-.66.284-1.466.427-2.418.427Zm.383-2.259c.995 0 1.833-.195 2.515-.586.689-.391 1.207-.895 1.555-1.513a3.854 3.854 0 0 0 .533-1.949v-2.301c-.107.127-.341.245-.703.351-.355.1-.767.188-1.236.266a57.79 57.79 0 0 1-1.353.192c-.433.05-.785.093-1.055.128a9.57 9.57 0 0 0-1.832.416c-.561.184-1.016.465-1.364.841-.341.369-.511.874-.511 1.513 0 .874.323 1.534.969 1.981.654.441 1.481.661 2.482.661Zm14.22-7.969V442h-2.514v-16.364h2.429v2.557h.213a4.675 4.675 0 0 1 1.747-2.003c.781-.511 1.79-.767 3.026-.767 1.108 0 2.077.228 2.908.682.831.448 1.477 1.129 1.939 2.046.462.909.692 2.059.692 3.451V442h-2.514v-10.227c0-1.286-.334-2.287-1.001-3.005-.668-.724-1.584-1.086-2.749-1.086-.802 0-1.52.174-2.152.522-.625.348-1.118.856-1.481 1.523-.362.668-.543 1.478-.543 2.429Z" fill="#7D88A1"/></g><g filter="url(#b)"><path d="M387 560c0-5.523 4.477-10 10-10h116c5.523 0 10 4.477 10 10v62c0 5.523-4.477 10-10 10H397c-5.523 0-10-4.477-10-10v-62Z" fill="#fff"/><path d="M433.641 587.636c-.128-1.079-.646-1.917-1.555-2.514-.909-.596-2.024-.895-3.345-.895-.966 0-1.811.157-2.536.469-.717.313-1.278.742-1.683 1.289a3.088 3.088 0 0 0-.597 1.864c0 .583.139 1.084.416 1.503.284.411.646.756 1.086 1.033.441.27.902.494 1.385.671.483.171.927.309 1.332.416l2.216.596c.568.149 1.2.355 1.896.618a8.786 8.786 0 0 1 2.014 1.076 5.49 5.49 0 0 1 1.598 1.726c.419.703.628 1.566.628 2.589 0 1.179-.309 2.244-.926 3.196-.611.951-1.506 1.708-2.685 2.269-1.172.561-2.596.842-4.272.842-1.563 0-2.916-.253-4.059-.757-1.136-.504-2.031-1.207-2.685-2.109-.646-.902-1.012-1.95-1.097-3.143h2.727c.071.824.348 1.506.831 2.045.49.533 1.108.931 1.854 1.194a7.522 7.522 0 0 0 2.429.383c1.008 0 1.914-.163 2.716-.49.803-.334 1.439-.795 1.907-1.385.469-.596.704-1.292.704-2.088 0-.724-.203-1.314-.608-1.768-.405-.455-.937-.824-1.598-1.108a16.765 16.765 0 0 0-2.141-.746l-2.685-.767c-1.704-.49-3.054-1.19-4.048-2.099-.994-.909-1.491-2.099-1.491-3.569 0-1.221.33-2.287.99-3.196.668-.916 1.563-1.626 2.685-2.13 1.129-.512 2.39-.767 3.782-.767 1.406 0 2.656.252 3.75.756 1.094.497 1.96 1.179 2.599 2.045a5.09 5.09 0 0 1 1.023 2.951h-2.557Zm6.858 22.5v-22.5h2.429v2.6h.299c.184-.284.44-.647.767-1.087.334-.447.809-.845 1.427-1.193.625-.355 1.47-.533 2.536-.533 1.378 0 2.592.345 3.643 1.034 1.051.689 1.872 1.665 2.461 2.929.59 1.265.884 2.756.884 4.475 0 1.733-.294 3.235-.884 4.506-.589 1.264-1.406 2.245-2.45 2.941-1.044.688-2.248 1.033-3.612 1.033-1.051 0-1.892-.174-2.524-.522-.633-.355-1.119-.757-1.46-1.204a15.796 15.796 0 0 1-.788-1.129h-.213v8.65h-2.515Zm2.472-14.318c0 1.236.181 2.326.543 3.271.363.937.892 1.672 1.588 2.205.696.526 1.548.788 2.556.788 1.052 0 1.929-.277 2.632-.831.71-.561 1.243-1.314 1.598-2.258.362-.952.543-2.01.543-3.175 0-1.15-.177-2.187-.532-3.111-.348-.93-.878-1.665-1.588-2.205-.703-.547-1.587-.82-2.653-.82-1.022 0-1.882.259-2.578.778-.696.511-1.221 1.228-1.576 2.152-.355.916-.533 1.985-.533 3.206Zm20.625 8.566c-1.037 0-1.978-.196-2.823-.586a4.848 4.848 0 0 1-2.014-1.716c-.497-.752-.745-1.662-.745-2.727 0-.937.184-1.697.554-2.28a3.91 3.91 0 0 1 1.48-1.385 7.8 7.8 0 0 1 2.046-.745 24.57 24.57 0 0 1 2.269-.405c.994-.128 1.8-.224 2.418-.288.625-.071 1.08-.188 1.364-.351.291-.164.437-.448.437-.853v-.085c0-1.051-.288-1.868-.863-2.45-.568-.583-1.431-.874-2.589-.874-1.2 0-2.141.263-2.823.789-.682.525-1.161 1.086-1.438 1.683l-2.387-.852c.426-.995.995-1.769 1.705-2.323a6.38 6.38 0 0 1 2.344-1.172 9.739 9.739 0 0 1 2.514-.341c.525 0 1.129.064 1.811.192a5.808 5.808 0 0 1 1.992.756c.646.384 1.183.963 1.609 1.737.426.774.639 1.811.639 3.111V604h-2.514v-2.216h-.128c-.171.355-.455.735-.852 1.14-.398.405-.927.749-1.588 1.033-.66.284-1.466.427-2.418.427Zm.383-2.259c.995 0 1.833-.195 2.515-.586.689-.391 1.207-.895 1.555-1.513a3.854 3.854 0 0 0 .533-1.949v-2.301c-.107.127-.341.245-.703.351-.355.1-.767.188-1.236.266a57.79 57.79 0 0 1-1.353.192c-.433.05-.785.093-1.055.128a9.57 9.57 0 0 0-1.832.416c-.561.184-1.016.465-1.364.841-.341.369-.511.874-.511 1.513 0 .874.323 1.534.969 1.981.654.441 1.481.661 2.482.661Zm14.22-7.969V604h-2.514v-16.364h2.429v2.557h.213a4.675 4.675 0 0 1 1.747-2.003c.781-.511 1.79-.767 3.026-.767 1.108 0 2.077.228 2.908.682.831.448 1.477 1.129 1.939 2.046.462.909.692 2.059.692 3.451V604h-2.514v-10.227c0-1.286-.334-2.287-1.001-3.005-.668-.724-1.584-1.086-2.749-1.086-.802 0-1.52.174-2.152.522-.625.348-1.118.856-1.481 1.523-.362.668-.543 1.478-.543 2.429Z" fill="#7D88A1"/></g><g filter="url(#c)"><path d="M350 236c0-5.523 4.477-10 10-10h191c5.523 0 10 4.477 10 10v62c0 5.523-4.477 10-10 10H360c-5.523 0-10-4.477-10-10v-62Z" fill="#fff"/><path d="M385.134 280v-21.818h7.372c1.705 0 3.104.291 4.198.873 1.094.576 1.903 1.368 2.429 2.376.525 1.009.788 2.156.788 3.441 0 1.286-.263 2.426-.788 3.42-.526.994-1.332 1.775-2.419 2.344-1.086.561-2.475.841-4.165.841h-5.966v-2.386h5.881c1.165 0 2.102-.171 2.812-.511.718-.341 1.236-.824 1.556-1.449.326-.632.49-1.385.49-2.259 0-.873-.164-1.637-.49-2.29-.327-.654-.849-1.158-1.566-1.513-.718-.362-1.666-.543-2.845-.543h-4.645V280h-2.642Zm10.27-9.801 5.369 9.801h-3.068l-5.284-9.801h2.983Zm15.051 10.142c-1.478 0-2.774-.352-3.889-1.055-1.108-.703-1.974-1.687-2.599-2.951-.618-1.264-.927-2.741-.927-4.432 0-1.704.309-3.192.927-4.463.625-1.272 1.491-2.259 2.599-2.962 1.115-.703 2.411-1.055 3.889-1.055 1.477 0 2.77.352 3.878 1.055 1.115.703 1.981 1.69 2.599 2.962.625 1.271.937 2.759.937 4.463 0 1.691-.312 3.168-.937 4.432-.618 1.264-1.484 2.248-2.599 2.951-1.108.703-2.401 1.055-3.878 1.055Zm0-2.259c1.122 0 2.045-.287 2.77-.863.724-.575 1.26-1.331 1.608-2.269.348-.937.522-1.953.522-3.047a8.774 8.774 0 0 0-.522-3.057c-.348-.945-.884-1.708-1.608-2.291-.725-.582-1.648-.873-2.77-.873s-2.046.291-2.77.873c-.725.583-1.261 1.346-1.609 2.291a8.774 8.774 0 0 0-.522 3.057c0 1.094.174 2.11.522 3.047.348.938.884 1.694 1.609 2.269.724.576 1.648.863 2.77.863Zm17.9 2.259c-1.477 0-2.773-.352-3.888-1.055-1.108-.703-1.975-1.687-2.6-2.951-.618-1.264-.927-2.741-.927-4.432 0-1.704.309-3.192.927-4.463.625-1.272 1.492-2.259 2.6-2.962 1.115-.703 2.411-1.055 3.888-1.055 1.477 0 2.77.352 3.878 1.055 1.115.703 1.981 1.69 2.599 2.962.625 1.271.938 2.759.938 4.463 0 1.691-.313 3.168-.938 4.432-.618 1.264-1.484 2.248-2.599 2.951-1.108.703-2.401 1.055-3.878 1.055Zm0-2.259c1.122 0 2.046-.287 2.77-.863.724-.575 1.261-1.331 1.609-2.269.348-.937.522-1.953.522-3.047a8.774 8.774 0 0 0-.522-3.057c-.348-.945-.885-1.708-1.609-2.291-.724-.582-1.648-.873-2.77-.873s-2.045.291-2.77.873c-.724.583-1.26 1.346-1.608 2.291a8.774 8.774 0 0 0-.522 3.057c0 1.094.174 2.11.522 3.047.348.938.884 1.694 1.608 2.269.725.576 1.648.863 2.77.863Zm18.369-14.446v2.131h-8.48v-2.131h8.48Zm-6.008-3.92h2.514v15.596c0 .711.103 1.243.309 1.599.213.348.483.582.81.703.333.113.685.17 1.054.17.277 0 .504-.014.682-.043a46.2 46.2 0 0 0 .426-.085l.512 2.259a5.153 5.153 0 0 1-.714.192c-.306.071-.693.106-1.161.106a5.069 5.069 0 0 1-2.089-.458 4.153 4.153 0 0 1-1.683-1.396c-.44-.625-.66-1.413-.66-2.365v-16.278Zm30.5 3.92c-.127-1.079-.646-1.917-1.555-2.514-.909-.596-2.024-.895-3.345-.895-.966 0-1.811.157-2.536.469-.717.313-1.278.742-1.683 1.289a3.087 3.087 0 0 0-.596 1.864c0 .583.138 1.084.415 1.503a3.69 3.69 0 0 0 1.087 1.033c.44.27.902.494 1.385.671.483.171.926.309 1.331.416l2.216.596c.568.149 1.2.355 1.896.618a8.766 8.766 0 0 1 2.014 1.076 5.49 5.49 0 0 1 1.598 1.726c.419.703.629 1.566.629 2.589 0 1.179-.309 2.244-.927 3.196-.611.951-1.506 1.708-2.685 2.269-1.172.561-2.596.842-4.272.842-1.562 0-2.915-.253-4.059-.757-1.136-.504-2.031-1.207-2.685-2.109-.646-.902-1.012-1.95-1.097-3.143h2.727c.071.824.348 1.506.831 2.045.49.533 1.108.931 1.854 1.194a7.526 7.526 0 0 0 2.429.383c1.009 0 1.914-.163 2.717-.49.802-.334 1.438-.795 1.907-1.385.468-.596.703-1.292.703-2.088 0-.724-.203-1.314-.608-1.768-.404-.455-.937-.824-1.598-1.108a16.765 16.765 0 0 0-2.141-.746l-2.685-.767c-1.704-.49-3.053-1.19-4.048-2.099-.994-.909-1.491-2.099-1.491-3.569 0-1.221.33-2.287.99-3.196.668-.916 1.563-1.626 2.685-2.13 1.129-.512 2.39-.767 3.782-.767 1.406 0 2.656.252 3.75.756 1.094.497 1.96 1.179 2.6 2.045a5.096 5.096 0 0 1 1.022 2.951h-2.557Zm6.859 22.5v-22.5h2.429v2.6h.298c.185-.284.44-.647.767-1.087.334-.447.81-.845 1.427-1.193.625-.355 1.471-.533 2.536-.533 1.378 0 2.592.345 3.643 1.034 1.052.689 1.872 1.665 2.461 2.929.59 1.265.885 2.756.885 4.475 0 1.733-.295 3.235-.885 4.506-.589 1.264-1.406 2.245-2.45 2.941-1.044.688-2.248 1.033-3.611 1.033-1.052 0-1.893-.174-2.525-.522-.632-.355-1.119-.757-1.46-1.204a16.132 16.132 0 0 1-.788-1.129h-.213v8.65h-2.514Zm2.471-14.318c0 1.236.181 2.326.543 3.271.363.937.892 1.672 1.588 2.205.696.526 1.548.788 2.557.788 1.051 0 1.928-.277 2.631-.831.71-.561 1.243-1.314 1.598-2.258.362-.952.543-2.01.543-3.175 0-1.15-.177-2.187-.532-3.111-.348-.93-.877-1.665-1.588-2.205-.703-.547-1.587-.82-2.652-.82-1.023 0-1.882.259-2.578.778-.696.511-1.222 1.228-1.577 2.152-.355.916-.533 1.985-.533 3.206Zm20.625 8.566c-1.037 0-1.978-.196-2.823-.586a4.845 4.845 0 0 1-2.013-1.716c-.498-.752-.746-1.662-.746-2.727 0-.937.184-1.697.554-2.28a3.913 3.913 0 0 1 1.481-1.385 7.78 7.78 0 0 1 2.045-.745 24.57 24.57 0 0 1 2.269-.405 102.78 102.78 0 0 1 2.419-.288c.625-.071 1.079-.188 1.363-.351.291-.164.437-.448.437-.853v-.085c0-1.051-.288-1.868-.863-2.45-.568-.583-1.431-.874-2.589-.874-1.2 0-2.141.263-2.823.789-.682.525-1.161 1.086-1.438 1.683l-2.386-.852c.426-.995.994-1.769 1.704-2.323a6.387 6.387 0 0 1 2.344-1.172 9.739 9.739 0 0 1 2.514-.341c.526 0 1.129.064 1.811.192a5.808 5.808 0 0 1 1.992.756c.647.384 1.183.963 1.609 1.737.426.774.639 1.811.639 3.111V280h-2.514v-2.216h-.128c-.17.355-.454.735-.852 1.14-.398.405-.927.749-1.588 1.033-.66.284-1.466.427-2.418.427Zm.384-2.259c.994 0 1.832-.195 2.514-.586.689-.391 1.207-.895 1.555-1.513a3.854 3.854 0 0 0 .533-1.949v-2.301c-.107.127-.341.245-.703.351-.355.1-.767.188-1.236.266a57.79 57.79 0 0 1-1.353.192c-.433.05-.785.093-1.055.128a9.57 9.57 0 0 0-1.832.416c-.561.184-1.016.465-1.364.841-.341.369-.511.874-.511 1.513 0 .874.323 1.534.969 1.981.654.441 1.481.661 2.483.661Zm14.219-7.969V280h-2.514v-16.364h2.429v2.557h.213a4.682 4.682 0 0 1 1.747-2.003c.782-.511 1.79-.767 3.026-.767 1.108 0 2.077.228 2.908.682.831.448 1.478 1.129 1.939 2.046.462.909.693 2.059.693 3.451V280H523.7v-10.227c0-1.286-.333-2.287-1.001-3.005-.668-.724-1.584-1.086-2.749-1.086-.802 0-1.519.174-2.152.522a3.734 3.734 0 0 0-1.48 1.523c-.363.668-.544 1.478-.544 2.429Z" fill="#7D88A1"/></g><path d="M453.791 375.209a1.71 1.71 0 0 0 2.418 0l10.884-10.883a1.712 1.712 0 0 0 0-2.419 1.712 1.712 0 0 0-2.419 0L455 371.581l-9.674-9.674a1.712 1.712 0 0 0-2.419 0 1.712 1.712 0 0 0 0 2.419l10.884 10.883ZM453.29 308v66h3.42v-66h-3.42Zm.501 229.209a1.71 1.71 0 0 0 2.418 0l10.884-10.883a1.712 1.712 0 0 0 0-2.419 1.712 1.712 0 0 0-2.419 0L455 533.581l-9.674-9.674a1.712 1.712 0 0 0-2.419 0 1.712 1.712 0 0 0 0 2.419l10.884 10.883ZM453.29 470v66h3.42v-66h-3.42Z" fill="#7D88A1"/><path d="M895.805 331h-5.073l7.729-22.387h6.1L912.278 331h-5.072l-5.608-17.271h-.175L895.805 331Zm-.317-8.8h11.98v3.695h-11.98V322.2Zm24.054-13.587V331h-4.657v-22.387h4.657Zm8.387 0V331h-4.657v-22.387h4.657Zm19.786 5.596v3.499h-10.112v-3.499h10.112Zm-7.816-4.022h4.657v15.653c0 .43.065.766.196 1.006.131.233.314.397.547.492.24.095.517.142.831.142.218 0 .437-.018.655-.055l.503-.098.733 3.465c-.233.073-.561.157-.984.252a7.908 7.908 0 0 1-1.541.186c-1.123.043-2.107-.106-2.952-.449-.838-.342-1.49-.874-1.957-1.596-.466-.721-.696-1.632-.688-2.732v-16.266Zm15.867 11.106V331h-4.657v-22.387h4.525v8.559h.197c.379-.991.991-1.767 1.837-2.328.845-.569 1.905-.853 3.181-.853 1.166 0 2.182.255 3.049.765.875.503 1.553 1.228 2.034 2.175.488.94.728 2.066.721 3.378V331h-4.657v-9.86c.008-1.035-.255-1.84-.787-2.416-.524-.576-1.26-.863-2.208-.863-.634 0-1.195.134-1.683.404-.481.27-.86.663-1.137 1.181-.27.51-.408 1.126-.415 1.847Zm22.204 10.035c-1.727 0-3.214-.35-4.46-1.049a7.186 7.186 0 0 1-2.864-2.996c-.671-1.297-1.006-2.831-1.006-4.602 0-1.727.335-3.243 1.006-4.547.67-1.305 1.614-2.321 2.831-3.05 1.224-.729 2.66-1.093 4.307-1.093 1.108 0 2.139.178 3.094.535.962.35 1.8.879 2.514 1.586.721.706 1.282 1.596 1.683 2.667.401 1.064.601 2.31.601 3.738v1.279h-14.178v-2.886h9.795c0-.67-.146-1.264-.437-1.781a3.134 3.134 0 0 0-1.214-1.214c-.51-.299-1.104-.448-1.781-.448-.707 0-1.334.164-1.881.492a3.45 3.45 0 0 0-1.268 1.301 3.68 3.68 0 0 0-.47 1.803v2.744c0 .831.153 1.549.459 2.154a3.367 3.367 0 0 0 1.323 1.399c.568.328 1.243.492 2.022.492.518 0 .991-.073 1.421-.219a2.83 2.83 0 0 0 1.804-1.727l4.307.284a5.88 5.88 0 0 1-1.345 2.711c-.67.765-1.537 1.363-2.601 1.793-1.057.423-2.278.634-3.662.634Zm31.84-12.331-4.26.263a2.282 2.282 0 0 0-.47-.984 2.515 2.515 0 0 0-.95-.711c-.39-.182-.85-.273-1.39-.273-.72 0-1.33.153-1.83.459-.49.299-.74.7-.74 1.203 0 .4.16.739.48 1.016.32.277.87.499 1.65.667l3.04.612c1.63.335 2.85.875 3.65 1.618.8.743 1.2 1.72 1.2 2.93 0 1.1-.32 2.066-.97 2.896-.64.831-1.52 1.48-2.65 1.946-1.11.459-2.4.689-3.85.689-2.23 0-3.998-.463-5.317-1.388-1.312-.933-2.081-2.201-2.307-3.804l4.581-.241c.138.678.473 1.195 1.003 1.552.53.35 1.22.525 2.05.525.81 0 1.47-.157 1.96-.47.51-.321.76-.732.77-1.235-.01-.423-.19-.769-.54-1.039-.35-.277-.89-.488-1.61-.634l-2.91-.579c-1.642-.328-2.862-.896-3.664-1.705-.794-.809-1.191-1.841-1.191-3.094 0-1.079.291-2.008.874-2.787.59-.78 1.418-1.381 2.482-1.804 1.071-.423 2.329-.634 3.759-.634 2.12 0 3.79.448 5.01 1.344 1.22.897 1.94 2.117 2.14 3.662Zm3.31 18.299v-23.087h4.6v2.821h.2c.21-.452.5-.911.89-1.378.39-.473.9-.867 1.53-1.18.63-.321 1.42-.481 2.36-.481 1.23 0 2.35.321 3.39.962 1.03.634 1.86 1.592 2.48 2.875.62 1.275.93 2.875.93 4.799 0 1.873-.3 3.454-.91 4.744-.59 1.282-1.41 2.255-2.45 2.918-1.02.656-2.17.984-3.45.984-.9 0-1.67-.149-2.31-.448-.62-.299-1.14-.674-1.54-1.126-.4-.459-.7-.922-.92-1.388h-.14v8.985h-4.66Zm4.56-14.691c0 .998.14 1.869.42 2.612.28.744.68 1.323 1.2 1.738.53.409 1.16.613 1.91.613.76 0 1.4-.208 1.93-.624.52-.422.92-1.005 1.19-1.749.28-.75.41-1.614.41-2.59 0-.97-.13-1.822-.4-2.558-.27-.736-.67-1.312-1.19-1.727-.53-.416-1.17-.623-1.94-.623-.75 0-1.4.2-1.92.601-.52.401-.91.969-1.19 1.705-.28.736-.42 1.603-.42 2.602Zm19.71 8.712c-1.07 0-2.02-.186-2.86-.557a4.613 4.613 0 0 1-1.99-1.673c-.48-.743-.72-1.669-.72-2.777 0-.932.17-1.716.51-2.35a4.14 4.14 0 0 1 1.4-1.53 6.795 6.795 0 0 1 2.01-.875c.76-.196 1.55-.335 2.38-.415.98-.102 1.77-.197 2.37-.284.59-.095 1.03-.233 1.3-.416.27-.182.4-.451.4-.809v-.065c0-.692-.22-1.228-.65-1.607-.43-.379-1.05-.568-1.84-.568-.84 0-1.51.185-2 .557-.5.364-.82.823-.99 1.377l-4.3-.349c.22-1.021.65-1.903 1.29-2.646.64-.75 1.47-1.326 2.48-1.727 1.02-.408 2.2-.612 3.54-.612.93 0 1.83.109 2.68.328a6.94 6.94 0 0 1 2.28 1.016c.67.46 1.2 1.05 1.59 1.771.38.714.58 1.571.58 2.569V331h-4.42v-2.328h-.13c-.27.524-.63.987-1.08 1.388-.45.393-1 .703-1.63.929-.63.219-1.37.328-2.2.328Zm1.34-3.214c.68 0 1.29-.135 1.81-.404.53-.277.94-.649 1.24-1.115.29-.467.44-.995.44-1.585v-1.782c-.14.095-.34.182-.6.262-.24.073-.53.142-.84.208-.31.058-.63.113-.94.164l-.85.12c-.55.08-1.03.208-1.43.383-.41.175-.73.412-.95.71-.23.292-.34.656-.34 1.093 0 .634.23 1.119.69 1.454.46.328 1.05.492 1.77.492Zm16.39-6.81V331h-4.66v-16.791h4.44v2.963h.2a4.65 4.65 0 0 1 1.87-2.318c.87-.575 1.93-.863 3.18-.863 1.16 0 2.18.255 3.05.765.86.51 1.54 1.239 2.02 2.186.48.94.72 2.063.72 3.367V331h-4.66v-9.86c.01-1.028-.25-1.829-.78-2.405-.54-.583-1.27-.874-2.2-.874-.63 0-1.18.134-1.66.404s-.85.663-1.12 1.181c-.26.51-.4 1.126-.4 1.847Zm28.46-2.296-4.26.263a2.282 2.282 0 0 0-.47-.984 2.515 2.515 0 0 0-.95-.711c-.39-.182-.85-.273-1.39-.273-.72 0-1.33.153-1.83.459-.49.299-.74.7-.74 1.203 0 .4.16.739.48 1.016.32.277.87.499 1.65.667l3.04.612c1.63.335 2.85.875 3.65 1.618.8.743 1.2 1.72 1.2 2.93 0 1.1-.32 2.066-.97 2.896-.64.831-1.52 1.48-2.65 1.946-1.11.459-2.4.689-3.85.689-2.23 0-4-.463-5.32-1.388-1.31-.933-2.08-2.201-2.3-3.804l4.58-.241c.14.678.47 1.195 1 1.552.53.35 1.22.525 2.05.525.81 0 1.47-.157 1.96-.47.51-.321.76-.732.77-1.235-.01-.423-.19-.769-.54-1.039-.35-.277-.89-.488-1.61-.634l-2.91-.579c-1.64-.328-2.86-.896-3.66-1.705-.8-.809-1.2-1.841-1.2-3.094 0-1.079.3-2.008.88-2.787.59-.78 1.42-1.381 2.48-1.804 1.07-.423 2.33-.634 3.76-.634 2.12 0 3.79.448 5.01 1.344 1.22.897 1.94 2.117 2.14 3.662Zm15.23 12.32c-1.07 0-2.03-.186-2.87-.557a4.67 4.67 0 0 1-1.99-1.673c-.48-.743-.72-1.669-.72-2.777 0-.932.17-1.716.52-2.35a4.14 4.14 0 0 1 1.4-1.53 6.795 6.795 0 0 1 2.01-.875c.75-.196 1.55-.335 2.38-.415.98-.102 1.76-.197 2.36-.284.6-.095 1.03-.233 1.3-.416.27-.182.41-.451.41-.809v-.065c0-.692-.22-1.228-.66-1.607-.43-.379-1.04-.568-1.84-.568-.83 0-1.5.185-2 .557-.49.364-.82.823-.98 1.377l-4.31-.349c.22-1.021.65-1.903 1.29-2.646.64-.75 1.47-1.326 2.48-1.727 1.02-.408 2.2-.612 3.55-.612.93 0 1.82.109 2.67.328.86.218 1.63.557 2.29 1.016.67.46 1.2 1.05 1.58 1.771.39.714.58 1.571.58 2.569V331h-4.41v-2.328h-.13c-.27.524-.63.987-1.09 1.388-.45.393-.99.703-1.63.929-.63.219-1.36.328-2.19.328Zm1.33-3.214c.69 0 1.29-.135 1.82-.404.52-.277.93-.649 1.23-1.115.3-.467.45-.995.45-1.585v-1.782c-.15.095-.35.182-.6.262-.25.073-.53.142-.84.208-.32.058-.63.113-.94.164l-.86.12c-.54.08-1.02.208-1.43.383-.41.175-.72.412-.95.71-.23.292-.34.656-.34 1.093 0 .634.23 1.119.69 1.454.47.328 1.06.492 1.77.492Zm11.74 2.897v-16.791h4.51v2.93h.18c.3-1.042.82-1.829 1.54-2.361.72-.539 1.55-.809 2.49-.809.23 0 .48.015.75.044.27.029.51.069.71.12v4.132a5.842 5.842 0 0 0-.9-.175 8.195 8.195 0 0 0-1.06-.076c-.69 0-1.3.149-1.84.448a3.36 3.36 0 0 0-1.27 1.224c-.3.525-.46 1.13-.46 1.815V331h-4.65Zm19.46.328c-1.73 0-3.21-.35-4.46-1.049-1.24-.707-2.19-1.706-2.86-2.996-.67-1.297-1.01-2.831-1.01-4.602 0-1.727.34-3.243 1.01-4.547.67-1.305 1.61-2.321 2.83-3.05 1.22-.729 2.66-1.093 4.31-1.093 1.1 0 2.13.178 3.09.535.96.35 1.8.879 2.51 1.586.73.706 1.29 1.596 1.69 2.667.4 1.064.6 2.31.6 3.738v1.279h-14.18v-2.886h9.79c0-.67-.14-1.264-.43-1.781-.29-.518-.7-.922-1.22-1.214-.51-.299-1.1-.448-1.78-.448-.7 0-1.33.164-1.88.492-.54.321-.96.754-1.27 1.301-.3.539-.46 1.14-.47 1.803v2.744c0 .831.16 1.549.46 2.154.32.605.76 1.071 1.33 1.399.56.328 1.24.492 2.02.492.52 0 .99-.073 1.42-.219.43-.146.8-.364 1.1-.656.31-.291.54-.648.7-1.071l4.31.284a5.96 5.96 0 0 1-1.34 2.711c-.68.765-1.54 1.363-2.61 1.793-1.05.423-2.27.634-3.66.634Zm-233.295 53.945c-1.275 0-2.43-.328-3.465-.984-1.027-.663-1.844-1.636-2.448-2.918-.598-1.29-.897-2.871-.897-4.744 0-1.924.31-3.524.929-4.799.62-1.283 1.443-2.241 2.471-2.875a6.333 6.333 0 0 1 3.4-.962c.94 0 1.723.16 2.35.481.634.313 1.144.707 1.53 1.18.394.467.692.926.897 1.378h.142v-8.417h4.645V385h-4.591v-2.689h-.196a6.018 6.018 0 0 1-.93 1.388c-.393.452-.907.827-1.541 1.126-.627.299-1.392.448-2.296.448Zm1.476-3.705c.751 0 1.385-.204 1.902-.613.525-.415.926-.994 1.203-1.738.284-.743.426-1.614.426-2.612 0-.999-.138-1.866-.415-2.602-.277-.736-.678-1.304-1.203-1.705s-1.162-.601-1.913-.601c-.765 0-1.41.207-1.935.623-.524.415-.922.991-1.191 1.727-.27.736-.405 1.588-.405 2.558 0 .976.135 1.84.405 2.59.277.744.674 1.327 1.191 1.749.525.416 1.17.624 1.935.624Zm19.493 3.76c-1.698 0-3.166-.361-4.405-1.082a7.416 7.416 0 0 1-2.853-3.039c-.67-1.305-1.006-2.817-1.006-4.537 0-1.734.336-3.25 1.006-4.547.671-1.305 1.622-2.318 2.853-3.039 1.239-.729 2.707-1.093 4.405-1.093 1.698 0 3.163.364 4.395 1.093 1.239.721 2.193 1.734 2.864 3.039.67 1.297 1.006 2.813 1.006 4.547 0 1.72-.336 3.232-1.006 4.537a7.39 7.39 0 0 1-2.864 3.039c-1.232.721-2.697 1.082-4.395 1.082Zm.022-3.607c.773 0 1.418-.219 1.935-.656.518-.445.907-1.05 1.17-1.815.269-.765.404-1.636.404-2.612 0-.977-.135-1.848-.404-2.613-.263-.765-.652-1.37-1.17-1.815-.517-.444-1.162-.666-1.935-.666-.779 0-1.435.222-1.967.666-.525.445-.922 1.05-1.192 1.815-.262.765-.393 1.636-.393 2.613 0 .976.131 1.847.393 2.612.27.765.667 1.37 1.192 1.815.532.437 1.188.656 1.967.656Zm15.927-6.428V385h-4.656v-16.791h4.438v2.963h.196a4.687 4.687 0 0 1 1.87-2.318c.874-.575 1.935-.863 3.181-.863 1.166 0 2.182.255 3.05.765.867.51 1.541 1.239 2.022 2.186.481.94.721 2.063.721 3.367V385h-4.656v-9.86c.007-1.028-.256-1.829-.788-2.405-.532-.583-1.264-.874-2.197-.874-.626 0-1.18.134-1.661.404-.474.27-.846.663-1.115 1.181-.263.51-.397 1.126-.405 1.847Zm22.144 10.035c-1.727 0-3.213-.35-4.46-1.049a7.198 7.198 0 0 1-2.864-2.996c-.67-1.297-1.005-2.831-1.005-4.602 0-1.727.335-3.243 1.005-4.547.671-1.305 1.615-2.321 2.832-3.05 1.224-.729 2.66-1.093 4.307-1.093 1.107 0 2.138.178 3.093.535.962.35 1.8.879 2.514 1.586.722.706 1.283 1.596 1.684 2.667.401 1.064.601 2.31.601 3.738v1.279h-14.178v-2.886h9.795c0-.67-.146-1.264-.438-1.781a3.132 3.132 0 0 0-1.213-1.214c-.51-.299-1.104-.448-1.782-.448-.707 0-1.334.164-1.88.492a3.45 3.45 0 0 0-1.268 1.301 3.668 3.668 0 0 0-.47 1.803v2.744c0 .831.153 1.549.459 2.154a3.354 3.354 0 0 0 1.323 1.399c.568.328 1.242.492 2.022.492.517 0 .991-.073 1.421-.219.43-.146.798-.364 1.104-.656.306-.291.539-.648.7-1.071l4.307.284a5.88 5.88 0 0 1-1.345 2.711c-.67.765-1.538 1.363-2.602 1.793-1.056.423-2.277.634-3.662.634Zm14.747-7.04v-.371c.007-1.276.12-2.292.339-3.05.226-.758.553-1.37.983-1.837.43-.466.948-.889 1.553-1.268.452-.291.856-.594 1.213-.907a3.94 3.94 0 0 0 .853-1.039c.211-.386.317-.816.317-1.29 0-.502-.121-.943-.361-1.322a2.406 2.406 0 0 0-.973-.875 2.897 2.897 0 0 0-1.334-.306c-.473 0-.921.106-1.344.317-.423.204-.769.51-1.039.918-.269.401-.415.9-.437 1.498h-4.46c.037-1.457.386-2.66 1.05-3.607a6.012 6.012 0 0 1 2.634-2.132c1.093-.474 2.299-.71 3.618-.71 1.451 0 2.733.24 3.848.721 1.115.474 1.99 1.162 2.624 2.066.634.904.951 1.993.951 3.269 0 .852-.142 1.61-.427 2.273a5.534 5.534 0 0 1-1.169 1.749 9.06 9.06 0 0 1-1.782 1.367c-.576.342-1.049.699-1.421 1.071a3.635 3.635 0 0 0-.82 1.29c-.175.488-.266 1.089-.273 1.804v.371h-4.143Zm2.164 6.996a2.565 2.565 0 0 1-1.869-.765 2.512 2.512 0 0 1-.754-1.858 2.465 2.465 0 0 1 .754-1.837 2.565 2.565 0 0 1 1.869-.765c.692 0 1.301.255 1.826.765.524.51.79 1.123.798 1.837a2.543 2.543 0 0 1-.383 1.322 2.81 2.81 0 0 1-.951.951c-.393.234-.823.35-1.29.35Zm38.932-11.478c0 2.442-.46 4.519-1.39 6.231-.91 1.713-2.17 3.021-3.76 3.925-1.58.896-3.36 1.344-5.33 1.344-1.99 0-3.775-.452-5.357-1.355-1.581-.904-2.831-2.212-3.749-3.925-.918-1.712-1.377-3.786-1.377-6.22 0-2.441.459-4.518 1.377-6.231.918-1.712 2.168-3.017 3.749-3.913 1.582-.904 3.367-1.355 5.357-1.355 1.97 0 3.75.451 5.33 1.355 1.59.896 2.85 2.201 3.76 3.913.93 1.713 1.39 3.79 1.39 6.231Zm-4.8 0c0-1.581-.23-2.915-.71-4.001-.46-1.085-1.12-1.909-1.98-2.47-.85-.561-1.85-.842-2.99-.842-1.14 0-2.14.281-2.996.842-.852.561-1.515 1.385-1.989 2.47-.466 1.086-.7 2.42-.7 4.001 0 1.582.234 2.915.7 4.001.474 1.086 1.137 1.91 1.989 2.471.856.561 1.856.841 2.996.841s2.14-.28 2.99-.841c.86-.561 1.52-1.385 1.98-2.471.48-1.086.71-2.419.71-4.001Zm12.44 6.362.01-5.586h.68l5.38-6.373h5.34l-7.22 8.439h-1.11l-3.08 3.52Zm-4.22 4.832v-22.387h4.66V385h-4.66Zm10.5 0-4.95-7.313 3.11-3.29 7.29 10.603h-5.45Zm12.48-3.061-.12 1.203c-.1.962-.28 1.92-.55 2.875-.26.962-.54 1.832-.83 2.612-.28.78-.51 1.392-.69 1.837h-3.01c.11-.43.25-1.032.44-1.804.19-.765.37-1.625.54-2.58.17-.954.27-1.927.32-2.918l.05-1.225h3.85Zm29.14-19.326V385h-4.09l-9.74-14.09h-.16V385h-4.73v-22.387h4.15l9.66 14.079h.2v-14.079h4.71Zm24.49 11.193c0 2.442-.47 4.519-1.39 6.231-.92 1.713-2.17 3.021-3.76 3.925-1.58.896-3.36 1.344-5.34 1.344-1.99 0-3.77-.452-5.35-1.355-1.59-.904-2.84-2.212-3.75-3.925-.92-1.712-1.38-3.786-1.38-6.22 0-2.441.46-4.518 1.38-6.231.91-1.712 2.16-3.017 3.75-3.913 1.58-.904 3.36-1.355 5.35-1.355 1.98 0 3.76.451 5.34 1.355 1.59.896 2.84 2.201 3.76 3.913.92 1.713 1.39 3.79 1.39 6.231Zm-4.8 0c0-1.581-.24-2.915-.71-4.001-.47-1.085-1.13-1.909-1.98-2.47-.86-.561-1.85-.842-3-.842-1.14 0-2.14.281-2.99.842-.86.561-1.52 1.385-1.99 2.47-.47 1.086-.7 2.42-.7 4.001 0 1.582.23 2.915.7 4.001.47 1.086 1.13 1.91 1.99 2.471.85.561 1.85.841 2.99.841 1.15 0 2.14-.28 3-.841.85-.561 1.51-1.385 1.98-2.471s.71-2.419.71-4.001Zm12.5 11.194-6.41-22.387h5.17l3.71 15.555h.19l4.08-15.555h4.43l4.08 15.588h.2l3.7-15.588h5.17L1118.6 385h-4.62l-4.26-14.637h-.18L1105.29 385h-4.61Zm38.71-22.387V385h-4.73v-22.387h4.73Zm7.71 0v2.361c0 .67-.13 1.355-.39 2.055-.26.692-.6 1.348-1.03 1.968-.43.612-.9 1.133-1.41 1.563l-2.05-1.214c.36-.575.68-1.213.96-1.913.28-.699.42-1.512.42-2.437v-2.383h3.5Zm2.44 22.387v-16.791h4.44v2.963h.2c.35-.984.93-1.76 1.75-2.328.81-.569 1.79-.853 2.93-.853 1.15 0 2.13.288 2.94.863.81.569 1.34 1.341 1.61 2.318h.18c.34-.962.96-1.731 1.86-2.307.9-.583 1.97-.874 3.2-.874 1.57 0 2.84.499 3.82 1.497.98.992 1.47 2.398 1.47 4.22V385h-4.64v-10.374c0-.933-.25-1.632-.75-2.099-.49-.466-1.11-.699-1.86-.699-.84 0-1.5.269-1.97.809-.48.532-.72 1.235-.72 2.109V385h-4.51v-10.472c0-.824-.24-1.48-.71-1.968s-1.08-.732-1.85-.732c-.52 0-.98.131-1.4.393a2.68 2.68 0 0 0-.97 1.082c-.24.46-.36.999-.36 1.618V385h-4.66Zm-257.682 55v-16.791h4.515v2.93h.175c.306-1.042.82-1.829 1.541-2.361.722-.539 1.552-.809 2.493-.809.233 0 .484.015.754.044.269.029.506.069.71.12v4.132a6.013 6.013 0 0 0-.907-.175 8.146 8.146 0 0 0-1.06-.076c-.685 0-1.298.149-1.837.448a3.298 3.298 0 0 0-1.268 1.224c-.306.525-.459 1.13-.459 1.815V440h-4.657Zm19.466.328c-1.727 0-3.214-.35-4.46-1.049a7.192 7.192 0 0 1-2.864-2.996c-.67-1.297-1.005-2.831-1.005-4.602 0-1.727.335-3.243 1.005-4.547.671-1.305 1.614-2.321 2.832-3.05 1.224-.729 2.659-1.093 4.306-1.093 1.108 0 2.139.178 3.094.535.962.35 1.8.879 2.514 1.586.722.706 1.283 1.596 1.684 2.667.4 1.064.601 2.31.601 3.738v1.279h-14.178v-2.886h9.794c0-.67-.145-1.264-.437-1.781a3.132 3.132 0 0 0-1.213-1.214c-.51-.299-1.104-.448-1.782-.448-.707 0-1.334.164-1.88.492-.54.321-.962.754-1.268 1.301a3.668 3.668 0 0 0-.47 1.803v2.744c0 .831.153 1.549.459 2.154a3.354 3.354 0 0 0 1.323 1.399c.568.328 1.242.492 2.022.492.517 0 .991-.073 1.421-.219.43-.146.798-.364 1.104-.656.306-.291.539-.648.7-1.071l4.306.284a5.869 5.869 0 0 1-1.344 2.711c-.671.765-1.538 1.363-2.602 1.793-1.056.423-2.277.634-3.662.634Zm15.534-.011c-1.072 0-2.026-.186-2.864-.557a4.613 4.613 0 0 1-1.99-1.673c-.481-.743-.721-1.669-.721-2.777 0-.932.171-1.716.513-2.35a4.157 4.157 0 0 1 1.4-1.53 6.79 6.79 0 0 1 2.011-.875 15.4 15.4 0 0 1 2.383-.415 60.946 60.946 0 0 0 2.361-.284c.598-.095 1.031-.233 1.301-.416.27-.182.405-.451.405-.809v-.065c0-.692-.219-1.228-.656-1.607-.43-.379-1.042-.568-1.837-.568-.838 0-1.505.185-2 .557-.496.364-.824.823-.984 1.377l-4.307-.349c.219-1.021.649-1.903 1.29-2.646.641-.75 1.468-1.326 2.481-1.727 1.021-.408 2.201-.612 3.542-.612.933 0 1.826.109 2.678.328.86.218 1.622.557 2.285 1.016.67.46 1.199 1.05 1.585 1.771.386.714.579 1.571.579 2.569V440h-4.416v-2.328h-.131c-.27.524-.631.987-1.082 1.388a5.023 5.023 0 0 1-1.629.929c-.634.219-1.367.328-2.197.328Zm1.333-3.214c.685 0 1.29-.135 1.815-.404a3.217 3.217 0 0 0 1.235-1.115c.299-.467.448-.995.448-1.585v-1.782a2.465 2.465 0 0 1-.601.262c-.248.073-.528.142-.842.208-.313.058-.626.113-.94.164l-.852.12a5.743 5.743 0 0 0-1.432.383c-.408.175-.725.412-.951.71-.226.292-.339.656-.339 1.093 0 .634.229 1.119.688 1.454.467.328 1.057.492 1.771.492Zm17.922 3.17c-1.275 0-2.43-.328-3.465-.984-1.028-.663-1.844-1.636-2.449-2.918-.597-1.29-.896-2.871-.896-4.744 0-1.924.31-3.524.929-4.799.62-1.283 1.443-2.241 2.471-2.875a6.33 6.33 0 0 1 3.399-.962c.94 0 1.724.16 2.351.481.634.313 1.144.707 1.53 1.18.393.467.692.926.896 1.378h.142v-8.417h4.646V440h-4.591v-2.689h-.197a5.98 5.98 0 0 1-.929 1.388c-.393.452-.907.827-1.541 1.126-.627.299-1.392.448-2.296.448Zm1.476-3.705c.751 0 1.385-.204 1.902-.613.525-.415.926-.994 1.202-1.738.285-.743.427-1.614.427-2.612 0-.999-.139-1.866-.416-2.602-.277-.736-.677-1.304-1.202-1.705-.525-.401-1.162-.601-1.913-.601-.765 0-1.41.207-1.935.623-.525.415-.922.991-1.191 1.727-.27.736-.405 1.588-.405 2.558 0 .976.135 1.84.405 2.59.277.744.674 1.327 1.191 1.749.525.416 1.17.624 1.935.624Zm14.782 9.696c-.59 0-1.144-.048-1.662-.142a6.652 6.652 0 0 1-1.268-.328l1.05-3.487c.823.255 1.515.32 2.077.196.568-.116 1.016-.554 1.344-1.311l.273-.711-6.023-17.272h4.897l3.477 12.331h.175l3.509-12.331 4.93.022-6.526 18.584c-.314.896-.74 1.676-1.279 2.339a5.291 5.291 0 0 1-2.023 1.552c-.816.372-1.8.558-2.951.558Zm31.217-23.055v3.499h-10.112v-3.499h10.112Zm-7.816-4.022h4.657v15.653c0 .43.065.766.197 1.006.131.233.313.397.546.492.241.095.518.142.831.142.219 0 .437-.018.656-.055l.503-.098.732 3.465c-.233.073-.561.157-.984.252a7.888 7.888 0 0 1-1.541.186c-1.122.043-2.106-.106-2.952-.449-.838-.342-1.49-.874-1.956-1.596-.467-.721-.696-1.632-.689-2.732v-16.266Zm18.258 21.141c-1.7 0-3.17-.361-4.408-1.082a7.403 7.403 0 0 1-2.853-3.039c-.67-1.305-1.006-2.817-1.006-4.537 0-1.734.336-3.25 1.006-4.547.67-1.305 1.621-2.318 2.853-3.039 1.238-.729 2.708-1.093 4.408-1.093 1.7 0 3.16.364 4.39 1.093a7.295 7.295 0 0 1 2.87 3.039c.67 1.297 1 2.813 1 4.547 0 1.72-.33 3.232-1 4.537a7.391 7.391 0 0 1-2.87 3.039c-1.23.721-2.69 1.082-4.39 1.082Zm.02-3.607c.77 0 1.42-.219 1.93-.656.52-.445.91-1.05 1.17-1.815.27-.765.41-1.636.41-2.612 0-.977-.14-1.848-.41-2.613-.26-.765-.65-1.37-1.17-1.815-.51-.444-1.16-.666-1.93-.666-.78 0-1.44.222-1.97.666-.52.445-.92 1.05-1.19 1.815-.26.765-.39 1.636-.39 2.613 0 .976.13 1.847.39 2.612.27.765.67 1.37 1.19 1.815.53.437 1.19.656 1.97.656Zm18.39 3.279v-16.791h4.44v2.963h.2c.35-.984.93-1.76 1.75-2.328.81-.569 1.79-.853 2.93-.853 1.15 0 2.13.288 2.94.863.81.569 1.35 1.341 1.62 2.318h.17c.34-.962.96-1.731 1.86-2.307.9-.583 1.97-.874 3.2-.874 1.57 0 2.84.499 3.82 1.497.98.992 1.47 2.398 1.47 4.22V440h-4.64v-10.374c0-.933-.25-1.632-.75-2.099-.49-.466-1.11-.699-1.85-.699-.85 0-1.51.269-1.98.809-.48.532-.71 1.235-.71 2.109V440h-4.52v-10.472c0-.824-.24-1.48-.71-1.968s-1.08-.732-1.85-.732a2.6 2.6 0 0 0-1.4.393c-.4.255-.73.616-.97 1.082-.24.46-.36.999-.36 1.618V440h-4.66Zm32.87.317c-1.07 0-2.03-.186-2.87-.557-.83-.379-1.5-.937-1.98-1.673-.49-.743-.73-1.669-.73-2.777 0-.932.18-1.716.52-2.35a4.14 4.14 0 0 1 1.4-1.53 6.795 6.795 0 0 1 2.01-.875c.76-.196 1.55-.335 2.38-.415.98-.102 1.76-.197 2.36-.284.6-.095 1.03-.233 1.3-.416.27-.182.41-.451.41-.809v-.065c0-.692-.22-1.228-.66-1.607-.43-.379-1.04-.568-1.83-.568-.84 0-1.51.185-2 .557-.5.364-.83.823-.99 1.377l-4.31-.349c.22-1.021.65-1.903 1.29-2.646.65-.75 1.47-1.326 2.49-1.727 1.02-.408 2.2-.612 3.54-.612.93 0 1.82.109 2.68.328a6.94 6.94 0 0 1 2.28 1.016c.67.46 1.2 1.05 1.59 1.771.38.714.57 1.571.57 2.569V440h-4.41v-2.328h-.13c-.27.524-.63.987-1.09 1.388-.45.393-.99.703-1.62.929-.64.219-1.37.328-2.2.328Zm1.33-3.214c.69 0 1.29-.135 1.82-.404.52-.277.93-.649 1.23-1.115.3-.467.45-.995.45-1.585v-1.782c-.15.095-.35.182-.6.262-.25.073-.53.142-.84.208-.32.058-.63.113-.94.164l-.86.12c-.54.08-1.02.208-1.43.383-.41.175-.72.412-.95.71-.22.292-.34.656-.34 1.093 0 .634.23 1.119.69 1.454.47.328 1.06.492 1.77.492Zm15.96-1.935.01-5.586h.68l5.37-6.373h5.35l-7.23 8.439h-1.1l-3.08 3.52Zm-4.22 4.832v-22.387h4.65V440h-4.65Zm10.49 0-4.94-7.313 3.1-3.29 7.3 10.603h-5.46Zm14.38.328c-1.72 0-3.21-.35-4.46-1.049a7.232 7.232 0 0 1-2.86-2.996c-.67-1.297-1.01-2.831-1.01-4.602 0-1.727.34-3.243 1.01-4.547.67-1.305 1.61-2.321 2.83-3.05 1.23-.729 2.66-1.093 4.31-1.093 1.11 0 2.14.178 3.09.535.96.35 1.8.879 2.52 1.586.72.706 1.28 1.596 1.68 2.667.4 1.064.6 2.31.6 3.738v1.279h-14.18v-2.886h9.8c0-.67-.15-1.264-.44-1.781-.29-.518-.7-.922-1.21-1.214-.51-.299-1.11-.448-1.79-.448-.7 0-1.33.164-1.88.492-.53.321-.96.754-1.26 1.301-.31.539-.47 1.14-.47 1.803v2.744c0 .831.15 1.549.46 2.154.31.605.75 1.071 1.32 1.399.57.328 1.24.492 2.02.492.52 0 .99-.073 1.42-.219.43-.146.8-.364 1.11-.656.3-.291.54-.648.7-1.071l4.3.284c-.22 1.035-.66 1.939-1.34 2.711-.67.765-1.54 1.363-2.6 1.793-1.06.423-2.28.634-3.67.634Zm17.87-.328v-16.791h4.44v2.963h.2c.35-.984.93-1.76 1.75-2.328.81-.569 1.79-.853 2.93-.853 1.15 0 2.13.288 2.94.863.81.569 1.35 1.341 1.62 2.318h.17c.34-.962.96-1.731 1.86-2.307.9-.583 1.97-.874 3.2-.874 1.57 0 2.84.499 3.82 1.497.98.992 1.47 2.398 1.47 4.22V440h-4.64v-10.374c0-.933-.25-1.632-.75-2.099-.49-.466-1.11-.699-1.85-.699-.85 0-1.51.269-1.98.809-.48.532-.71 1.235-.71 2.109V440h-4.52v-10.472c0-.824-.24-1.48-.71-1.968s-1.08-.732-1.85-.732a2.6 2.6 0 0 0-1.4.393c-.4.255-.73.616-.97 1.082-.24.46-.36.999-.36 1.618V440h-4.66Zm30.36 6.264c-.6 0-1.15-.048-1.67-.142a6.457 6.457 0 0 1-1.26-.328l1.04-3.487c.83.255 1.52.32 2.08.196.57-.116 1.02-.554 1.35-1.311l.27-.711-6.02-17.272h4.89l3.48 12.331h.17l3.51-12.331 4.93.022-6.52 18.584c-.32.896-.74 1.676-1.28 2.339a5.311 5.311 0 0 1-2.02 1.552c-.82.372-1.8.558-2.95.558Zm-235.651 36.733-4.264.263a2.195 2.195 0 0 0-.47-.984 2.487 2.487 0 0 0-.951-.711c-.386-.182-.849-.273-1.388-.273-.721 0-1.33.153-1.826.459-.495.299-.743.7-.743 1.203 0 .4.16.739.481 1.016.321.277.871.499 1.651.667l3.039.612c1.632.335 2.849.875 3.651 1.618.801.743 1.202 1.72 1.202 2.93 0 1.1-.324 2.066-.973 2.896-.641.831-1.523 1.48-2.645 1.946-1.115.459-2.401.689-3.859.689-2.223 0-3.993-.463-5.312-1.388-1.312-.933-2.081-2.201-2.307-3.804l4.58-.241c.139.678.474 1.195 1.006 1.552.532.35 1.213.525 2.044.525.816 0 1.472-.157 1.968-.47.503-.321.758-.732.765-1.235-.007-.423-.186-.769-.536-1.039-.35-.277-.889-.488-1.618-.634l-2.907-.579c-1.64-.328-2.861-.896-3.662-1.705-.795-.809-1.192-1.841-1.192-3.094 0-1.079.292-2.008.875-2.787.59-.78 1.417-1.381 2.481-1.804 1.071-.423 2.325-.634 3.76-.634 2.121 0 3.79.448 5.007 1.344 1.224.897 1.939 2.117 2.143 3.662Zm8.102 12.32c-1.071 0-2.026-.186-2.864-.557a4.61 4.61 0 0 1-1.989-1.673c-.481-.743-.722-1.669-.722-2.777 0-.932.172-1.716.514-2.35a4.163 4.163 0 0 1 1.399-1.53 6.807 6.807 0 0 1 2.012-.875 15.4 15.4 0 0 1 2.383-.415 61.437 61.437 0 0 0 2.361-.284c.598-.095 1.031-.233 1.301-.416.269-.182.404-.451.404-.809v-.065c0-.692-.218-1.228-.656-1.607-.43-.379-1.042-.568-1.836-.568-.838 0-1.505.185-2.001.557-.495.364-.823.823-.983 1.377l-4.307-.349c.218-1.021.648-1.903 1.29-2.646.641-.75 1.468-1.326 2.481-1.727 1.02-.408 2.201-.612 3.542-.612.933 0 1.825.109 2.678.328.86.218 1.621.557 2.285 1.016.67.46 1.198 1.05 1.585 1.771.386.714.579 1.571.579 2.569V495h-4.416v-2.328h-.131c-.27.524-.631.987-1.083 1.388a5.008 5.008 0 0 1-1.628.929c-.634.219-1.367.328-2.198.328Zm1.334-3.214c.685 0 1.29-.135 1.815-.404a3.224 3.224 0 0 0 1.235-1.115c.299-.467.448-.995.448-1.585v-1.782a2.482 2.482 0 0 1-.601.262c-.248.073-.529.142-.842.208-.313.058-.627.113-.94.164l-.853.12a5.754 5.754 0 0 0-1.432.383c-.408.175-.725.412-.951.71-.226.292-.339.656-.339 1.093 0 .634.23 1.119.689 1.454.467.328 1.057.492 1.771.492ZM927 495v-16.791h4.438v2.963h.197c.349-.984.932-1.76 1.749-2.328.816-.569 1.792-.853 2.929-.853 1.152 0 2.132.288 2.941.863.809.569 1.348 1.341 1.618 2.318h.175c.342-.962.962-1.731 1.858-2.307.904-.583 1.971-.874 3.203-.874 1.567 0 2.838.499 3.815 1.497.984.992 1.476 2.398 1.476 4.22V495h-4.646v-10.374c0-.933-.248-1.632-.744-2.099-.495-.466-1.115-.699-1.858-.699-.845 0-1.505.269-1.979.809-.473.532-.71 1.235-.71 2.109V495h-4.515v-10.472c0-.824-.237-1.48-.71-1.968-.467-.488-1.082-.732-1.848-.732a2.57 2.57 0 0 0-1.399.393 2.71 2.71 0 0 0-.973 1.082c-.24.46-.36.999-.36 1.618V495H927Zm28.077 6.296v-23.087h4.591v2.821h.208c.204-.452.499-.911.885-1.378.394-.473.904-.867 1.531-1.18.634-.321 1.421-.481 2.361-.481a6.31 6.31 0 0 1 3.388.962c1.035.634 1.862 1.592 2.482 2.875.619 1.275.929 2.875.929 4.799 0 1.873-.302 3.454-.907 4.744-.598 1.282-1.414 2.255-2.449 2.918-1.027.656-2.179.984-3.454.984-.904 0-1.673-.149-2.307-.448-.626-.299-1.14-.674-1.541-1.126a5.706 5.706 0 0 1-.918-1.388h-.142v8.985h-4.657Zm4.558-14.691c0 .998.139 1.869.416 2.612.277.744.677 1.323 1.202 1.738.525.409 1.162.613 1.913.613.758 0 1.399-.208 1.924-.624.525-.422.922-1.005 1.192-1.749.276-.75.415-1.614.415-2.59 0-.97-.135-1.822-.405-2.558-.269-.736-.666-1.312-1.191-1.727-.525-.416-1.17-.623-1.935-.623-.758 0-1.399.2-1.924.601-.517.401-.914.969-1.191 1.705-.277.736-.416 1.603-.416 2.602Zm19.578-13.992V495h-4.656v-22.387h4.656ZM982.944 495v-16.791h4.656V495h-4.656Zm2.35-18.955a2.527 2.527 0 0 1-1.782-.689c-.496-.466-.743-1.023-.743-1.672 0-.641.247-1.192.743-1.651a2.497 2.497 0 0 1 1.771-.699c.699 0 1.293.233 1.782.699.495.459.743 1.01.743 1.651 0 .649-.248 1.206-.743 1.672-.489.46-1.079.689-1.771.689Zm10.693 9.248V495h-4.656v-16.791h4.438v2.963h.197a4.68 4.68 0 0 1 1.869-2.318c.874-.575 1.935-.863 3.185-.863 1.16 0 2.18.255 3.05.765.86.51 1.54 1.239 2.02 2.186.48.94.72 2.063.72 3.367V495h-4.66v-9.86c.01-1.028-.25-1.829-.78-2.405-.54-.583-1.27-.874-2.202-.874-.626 0-1.18.134-1.661.404-.474.27-.846.663-1.115 1.181-.263.51-.397 1.126-.405 1.847Zm22.053 16.244c-1.5 0-2.8-.204-3.88-.612-1.07-.408-1.92-.959-2.55-1.651-.64-.692-1.05-1.461-1.24-2.306l4.31-.58c.13.306.34.594.62.864.28.277.66.503 1.13.678.47.174 1.05.262 1.72.262 1.02 0 1.85-.241 2.51-.722.66-.48.99-1.271.99-2.372v-3.071h-.2c-.2.466-.51.907-.91 1.322-.41.416-.94.755-1.58 1.017-.64.262-1.4.394-2.29.394-1.26 0-2.41-.292-3.45-.875-1.02-.59-1.84-1.49-2.46-2.7-.6-1.217-.9-2.755-.9-4.613 0-1.902.31-3.491.93-4.766.62-1.275 1.44-2.23 2.47-2.864a6.353 6.353 0 0 1 3.4-.951c.94 0 1.72.16 2.36.481.63.313 1.14.707 1.53 1.18.39.467.69.926.9 1.378h.18v-2.821h4.62v16.955c0 1.399-.35 2.569-1.05 3.509-.7.947-1.66 1.661-2.9 2.142-1.24.481-2.65.722-4.26.722Zm.1-10.276c.75 0 1.39-.185 1.9-.557.53-.379.93-.918 1.21-1.618.28-.707.42-1.552.42-2.536s-.14-1.836-.41-2.558c-.28-.729-.68-1.293-1.2-1.694-.53-.401-1.17-.601-1.92-.601-.76 0-1.41.207-1.93.623-.53.408-.92.976-1.19 1.705-.27.729-.41 1.57-.41 2.525 0 .969.14 1.807.41 2.514.27.7.67 1.243 1.19 1.629.52.379 1.17.568 1.93.568Zm25.13 4.012c-1.27 0-2.43-.328-3.46-.984-1.03-.663-1.85-1.636-2.45-2.918-.6-1.29-.9-2.871-.9-4.744 0-1.924.31-3.524.93-4.799.62-1.283 1.44-2.241 2.47-2.875a6.35 6.35 0 0 1 3.4-.962c.94 0 1.72.16 2.35.481.63.313 1.14.707 1.53 1.18.39.467.69.926.9 1.378h.14v-8.417h4.64V495h-4.59v-2.689h-.19c-.22.466-.53.929-.93 1.388-.4.452-.91.827-1.54 1.126-.63.299-1.4.448-2.3.448Zm1.48-3.705c.75 0 1.38-.204 1.9-.613.52-.415.92-.994 1.2-1.738.29-.743.43-1.614.43-2.612 0-.999-.14-1.866-.42-2.602-.27-.736-.68-1.304-1.2-1.705-.53-.401-1.16-.601-1.91-.601-.77 0-1.41.207-1.94.623-.52.415-.92.991-1.19 1.727-.27.736-.4 1.588-.4 2.558 0 .976.13 1.84.4 2.59.28.744.67 1.327 1.19 1.749.53.416 1.17.624 1.94.624Zm19.56 3.76c-1.73 0-3.22-.35-4.46-1.049a7.193 7.193 0 0 1-2.87-2.996c-.67-1.297-1-2.831-1-4.602 0-1.727.33-3.243 1-4.547a7.473 7.473 0 0 1 2.83-3.05c1.23-.729 2.66-1.093 4.31-1.093 1.11 0 2.14.178 3.09.535.97.35 1.8.879 2.52 1.586.72.706 1.28 1.596 1.68 2.667.4 1.064.6 2.31.6 3.738v1.279h-14.18v-2.886h9.8c0-.67-.15-1.264-.44-1.781a3.098 3.098 0 0 0-1.21-1.214c-.51-.299-1.11-.448-1.78-.448-.71 0-1.34.164-1.88.492-.54.321-.97.754-1.27 1.301-.31.539-.46 1.14-.47 1.803v2.744c0 .831.15 1.549.46 2.154.31.605.75 1.071 1.32 1.399.57.328 1.24.492 2.02.492.52 0 .99-.073 1.42-.219.43-.146.8-.364 1.11-.656.3-.291.54-.648.7-1.071l4.3.284c-.22 1.035-.66 1.939-1.34 2.711-.67.765-1.54 1.363-2.6 1.793-1.06.423-2.28.634-3.66.634Zm18.33 0c-1.72 0-3.2-.364-4.44-1.093a7.372 7.372 0 0 1-2.84-3.061c-.66-1.304-.99-2.806-.99-4.504 0-1.72.33-3.228 1-4.525.67-1.305 1.62-2.321 2.85-3.05 1.23-.736 2.7-1.104 4.4-1.104 1.46 0 2.74.266 3.84.798 1.1.532 1.97 1.279 2.62 2.241.64.962.99 2.091 1.06 3.388h-4.4c-.12-.838-.45-1.512-.98-2.022-.53-.517-1.22-.776-2.07-.776-.72 0-1.35.197-1.89.59-.53.387-.95.951-1.25 1.695-.29.743-.44 1.643-.44 2.7 0 1.071.14 1.982.43 2.733.3.75.72 1.322 1.26 1.716.54.393 1.17.59 1.89.59.53 0 1.01-.109 1.43-.328.43-.218.79-.535 1.06-.951.29-.423.47-.929.56-1.519h4.4c-.08 1.282-.43 2.412-1.05 3.388-.62.97-1.48 1.728-2.57 2.274-1.1.547-2.39.82-3.88.82Zm10.48-.328v-16.791h4.65V495h-4.65Zm2.35-18.955c-.69 0-1.29-.229-1.78-.689-.5-.466-.75-1.023-.75-1.672 0-.641.25-1.192.75-1.651a2.476 2.476 0 0 1 1.77-.699c.7 0 1.29.233 1.78.699.49.459.74 1.01.74 1.651 0 .649-.25 1.206-.74 1.672-.49.46-1.08.689-1.77.689Zm20 6.952-4.26.263a2.174 2.174 0 0 0-.47-.984 2.515 2.515 0 0 0-.95-.711c-.39-.182-.85-.273-1.39-.273-.72 0-1.33.153-1.82.459-.5.299-.75.7-.75 1.203 0 .4.16.739.48 1.016.33.277.88.499 1.66.667l3.03.612c1.64.335 2.85.875 3.66 1.618.8.743 1.2 1.72 1.2 2.93 0 1.1-.33 2.066-.98 2.896-.64.831-1.52 1.48-2.64 1.946-1.12.459-2.4.689-3.86.689-2.22 0-3.99-.463-5.31-1.388-1.31-.933-2.08-2.201-2.31-3.804l4.58-.241c.14.678.48 1.195 1.01 1.552.53.35 1.21.525 2.04.525.82 0 1.47-.157 1.97-.47.5-.321.76-.732.76-1.235 0-.423-.18-.769-.53-1.039-.35-.277-.89-.488-1.62-.634l-2.91-.579c-1.64-.328-2.86-.896-3.66-1.705-.79-.809-1.19-1.841-1.19-3.094 0-1.079.29-2.008.87-2.787.59-.78 1.42-1.381 2.49-1.804 1.07-.423 2.32-.634 3.76-.634 2.12 0 3.79.448 5 1.344 1.23.897 1.94 2.117 2.14 3.662Zm3.32 12.003v-16.791h4.66V495h-4.66Zm2.35-18.955c-.69 0-1.29-.229-1.78-.689-.5-.466-.75-1.023-.75-1.672 0-.641.25-1.192.75-1.651a2.476 2.476 0 0 1 1.77-.699c.7 0 1.29.233 1.78.699.5.459.74 1.01.74 1.651 0 .649-.24 1.206-.74 1.672-.49.46-1.08.689-1.77.689Zm13.62 19.283c-1.69 0-3.16-.361-4.4-1.082-1.23-.729-2.18-1.742-2.86-3.039-.67-1.305-1-2.817-1-4.537 0-1.734.33-3.25 1-4.547.68-1.305 1.63-2.318 2.86-3.039 1.24-.729 2.71-1.093 4.4-1.093 1.7 0 3.17.364 4.4 1.093 1.24.721 2.19 1.734 2.86 3.039.67 1.297 1.01 2.813 1.01 4.547 0 1.72-.34 3.232-1.01 4.537a7.368 7.368 0 0 1-2.86 3.039c-1.23.721-2.7 1.082-4.4 1.082Zm.03-3.607c.77 0 1.41-.219 1.93-.656.52-.445.91-1.05 1.17-1.815.27-.765.4-1.636.4-2.612 0-.977-.13-1.848-.4-2.613-.26-.765-.65-1.37-1.17-1.815-.52-.444-1.16-.666-1.93-.666-.78 0-1.44.222-1.97.666-.53.445-.92 1.05-1.19 1.815-.27.765-.4 1.636-.4 2.613 0 .976.13 1.847.4 2.612.27.765.66 1.37 1.19 1.815.53.437 1.19.656 1.97.656Zm15.92-6.428V495h-4.65v-16.791h4.43v2.963h.2a4.65 4.65 0 0 1 1.87-2.318c.87-.575 1.93-.863 3.18-.863 1.17 0 2.18.255 3.05.765.87.51 1.54 1.239 2.02 2.186.48.94.72 2.063.72 3.367V495h-4.65v-9.86c0-1.028-.26-1.829-.79-2.405-.53-.583-1.26-.874-2.2-.874-.62 0-1.18.134-1.66.404-.47.27-.84.663-1.11 1.181-.27.51-.4 1.126-.41 1.847Zm17.22 9.991c-.73 0-1.34-.255-1.86-.765a2.558 2.558 0 0 1-.77-1.858c0-.714.26-1.327.77-1.837.52-.51 1.13-.765 1.86-.765.7 0 1.31.255 1.83.765.53.51.79 1.123.79 1.837 0 .481-.12.922-.37 1.322-.24.394-.56.711-.95.951-.4.234-.83.35-1.3.35Z" fill="#90A8EC"/><defs><filter id="a" x="371" y="380" width="168" height="114" filterUnits="userSpaceOnUse" color-interpolation-filters="sRGB"><feFlood flood-opacity="0" result="BackgroundImageFix"/><feColorMatrix in="SourceAlpha" values="0 0 0 0 0 0 0 0 0 0 0 0 0 0 0 0 0 0 127 0" result="hardAlpha"/><feOffset dy="8"/><feGaussianBlur stdDeviation="8"/><feColorMatrix values="0 0 0 0 0.337255 0 0 0 0 0.388235 0 0 0 0 0.505882 0 0 0 0.24 0"/><feBlend in2="BackgroundImageFix" result="effect1_dropShadow_429_714"/><feBlend in="SourceGraphic" in2="effect1_dropShadow_429_714" result="shape"/></filter><filter id="b" x="371" y="542" width="168" height="114" filterUnits="userSpaceOnUse" color-interpolation-filters="sRGB"><feFlood flood-opacity="0" result="BackgroundImageFix"/><feColorMatrix in="SourceAlpha" values="0 0 0 0 0 0 0 0 0 0 0 0 0 0 0 0 0 0 127 0" result="hardAlpha"/><feOffset dy="8"/><feGaussianBlur stdDeviation="8"/><feColorMatrix values="0 0 0 0 0.337255 0 0 0 0 0.388235 0 0 0 0 0.505882 0 0 0 0.24 0"/><feBlend in2="BackgroundImageFix" result="effect1_dropShadow_429_714"/><feBlend in="SourceGraphic" in2="effect1_dropShadow_429_714" result="shape"/></filter><filter id="c" x="334" y="218" width="243" height="114" filterUnits="userSpaceOnUse" color-interpolation-filters="sRGB"><feFlood flood-opacity="0" result="BackgroundImageFix"/><feColorMatrix in="SourceAlpha" values="0 0 0 0 0 0 0 0 0 0 0 0 0 0 0 0 0 0 127 0" result="hardAlpha"/><feOffset dy="8"/><feGaussianBlur stdDeviation="8"/><feColorMatrix values="0 0 0 0 0.337255 0 0 0 0 0.388235 0 0 0 0 0.505882 0 0 0 0.24 0"/><feBlend in2="BackgroundImageFix" result="effect1_dropShadow_429_714"/><feBlend in="SourceGraphic" in2="effect1_dropShadow_429_714" result="shape"/></filter></defs></svg>