<svg xmlns="http://www.w3.org/2000/svg" width="960" height="300"><g stroke-linecap="round"><path d="M10 10h940v40H10" fill="#e7ecf8"/><path d="M10 10h940M10 10h940m0 0v40m0-40v40m0 0H10m940 0H10m0 0V10m0 40V10" stroke="#8fa5ed" fill="none"/></g><text x="68.097" font-family="Helvetica, Segoe UI Emoji" font-size="20.023" fill="#8fa5ed" text-anchor="middle" style="white-space:pre" dominant-baseline="text-before-edge" transform="translate(411.903 18.487)">/api/placeOrder</text><g stroke-linecap="round" fill="none"><path d="M10 70s0 0 0 0m0 0s0 0 0 0m-.26 6.4c1.2-1.39 2.41-2.77 5.25-6.04M9.74 76.4c2.01-2.32 4.03-4.63 5.25-6.04m-4.86 11.68c3.37-3.87 6.74-7.74 10.5-12.07m-10.5 12.07c3.36-3.86 6.71-7.72 10.5-12.07M9.87 88.44c4.93-5.67 9.86-11.35 15.75-18.11M9.87 88.44c5.78-6.65 11.55-13.29 15.75-18.11M10.27 94.08l20.99-24.15M10.27 94.08c6.61-7.6 13.21-15.2 20.99-24.15M10 100.48c8.06-9.26 16.11-18.52 26.25-30.19M10 100.48c9.31-10.7 18.61-21.4 26.25-30.19M9.74 106.88C20.33 94.7 30.91 82.52 41.89 69.9M9.74 106.88c8.54-9.82 17.07-19.64 32.15-36.98m-30.44 41.11c11.36-13.07 22.72-26.13 35.43-40.75m-35.43 40.75c7.21-8.3 14.43-16.59 35.43-40.75m-30.44 41.11c7.82-9 15.64-18 36.08-41.51m-36.08 41.51c10.39-11.96 20.79-23.92 36.08-41.51m-30.44 41.12c12.26-14.11 24.53-28.22 35.43-40.76m-35.43 40.76C35.89 95.09 49.7 79.21 57.51 70.22m-30.44 41.12c8.74-10.06 17.48-20.12 36.08-41.51m-36.08 41.51C38.53 98.15 50 84.96 63.15 69.83m-30.44 41.11c9.08-10.44 18.15-20.88 35.43-40.75m-35.43 40.75c7.35-8.46 14.7-16.91 35.43-40.75M37.7 111.3c13.31-15.32 26.63-30.64 36.08-41.51M37.7 111.3c11.12-12.79 22.24-25.58 36.08-41.51m-30.44 41.12 35.43-40.76m-35.43 40.76c13.11-15.08 26.21-30.16 35.43-40.76m-30.44 41.12c8.72-10.04 17.44-20.07 36.08-41.51m-36.08 41.51c8.36-9.63 16.73-19.25 36.08-41.51m-30.44 41.11c8.04-9.24 16.07-18.48 35.43-40.75m-35.43 40.75c7.41-8.52 14.81-17.04 35.43-40.75m-30.44 41.11C72.9 95.2 86.83 79.17 95.04 69.72m-36.08 41.51C69.07 99.6 79.18 87.97 95.04 69.72M64.6 110.84c8.47-9.75 16.95-19.5 35.43-40.76M64.6 110.84c9.76-11.23 19.52-22.46 35.43-40.76M69.59 111.2c7.56-8.71 15.13-17.41 36.08-41.51M69.59 111.2c9.5-10.93 19-21.87 36.08-41.51M75.23 110.8c8.49-9.76 16.97-19.52 35.43-40.75M75.23 110.8c12-13.8 24-27.6 35.43-40.75m-30.44 41.11c7.23-8.32 14.47-16.64 36.08-41.5m-36.08 41.5c7.57-8.71 15.15-17.43 36.08-41.5m-31.1 41.86c11.08-12.73 22.15-25.47 36.09-41.5m-36.09 41.5c13.96-16.05 27.92-32.11 36.09-41.5m-30.44 41.11c11.62-13.38 23.25-26.75 35.42-40.75m-35.42 40.75 35.42-40.75m-30.44 41.11c7.27-8.36 14.54-16.72 36.09-41.51m-36.09 41.51 36.09-41.51m-30.44 41.12c8.63-9.94 17.27-19.87 35.43-40.76m-35.43 40.76c7.18-8.27 14.36-16.53 35.43-40.76m-30.45 41.12c13.17-15.14 26.33-30.28 36.09-41.51m-36.09 41.51c10.27-11.82 20.54-23.63 36.09-41.51m-30.44 41.11c9.89-11.38 19.78-22.76 35.43-40.75m-35.43 40.75c7.09-8.16 14.19-16.32 35.43-40.75m-30.45 41.11c11.53-13.26 23.06-26.53 36.09-41.51m-36.09 41.51c7.37-8.47 14.74-16.95 36.09-41.51m-30.44 41.12c8.79-10.11 17.57-20.22 35.43-40.76m-35.43 40.76c9.35-10.76 18.71-21.52 35.43-40.76m-30.44 41.12c9.73-11.2 19.47-22.4 36.08-41.51m-36.08 41.51c8.98-10.34 17.96-20.67 36.08-41.51m-30.44 41.11c8.67-9.98 17.35-19.95 35.43-40.75m-35.43 40.75c11.21-12.9 22.43-25.8 35.43-40.75m-30.44 41.11c10.85-12.48 21.7-24.97 36.08-41.51m-36.08 41.51c10.85-12.49 21.71-24.98 36.08-41.51M144 110.96c8.69-10.01 17.39-20.01 35.43-40.76M144 110.96c10.6-12.2 21.21-24.4 35.43-40.76m-30.44 41.12c13.67-15.74 27.35-31.47 36.08-41.51m-36.08 41.51c9.4-10.82 18.8-21.64 36.08-41.51m-30.44 41.11c10.88-12.51 21.75-25.03 35.43-40.75m-35.43 40.75c13.18-15.17 26.37-30.33 35.43-40.75m-30.44 41.11c12.71-14.62 25.42-29.25 36.08-41.51m-36.08 41.51c8.93-10.27 17.86-20.55 36.08-41.51m-30.44 41.12c13.04-15 26.07-30 35.43-40.76m-35.43 40.76c11.12-12.8 22.25-25.6 35.43-40.76m-30.44 41.12c12.61-14.51 25.23-29.03 36.08-41.51m-36.08 41.51c14.43-16.6 28.86-33.21 36.08-41.51m-30.44 41.11c8.78-10.1 17.57-20.2 35.43-40.75m-35.43 40.75c11.42-13.14 22.85-26.28 35.43-40.75m-30.44 41.11 36.08-41.51m-36.08 41.51c9.91-11.4 19.82-22.8 36.08-41.51m-30.44 41.12c8.77-10.1 17.55-20.19 35.43-40.76m-35.43 40.76c7.57-8.71 15.14-17.42 35.43-40.76m-30.44 41.12c12.21-14.05 24.42-28.1 36.08-41.51m-36.08 41.51c8.93-10.28 17.86-20.55 36.08-41.51m-30.44 41.11c12.38-14.24 24.76-28.48 35.43-40.75m-35.43 40.75c7.9-9.08 15.79-18.16 35.43-40.75m-30.44 41.11c14.22-16.36 28.45-32.73 36.08-41.5m-36.08 41.5c11.28-12.98 22.57-25.96 36.08-41.5m-31.1 41.86c7.82-8.99 15.63-17.98 36.09-41.5m-36.09 41.5c7.36-8.45 14.71-16.91 36.09-41.5m-30.44 41.11c7.17-8.26 14.35-16.52 35.42-40.75m-35.42 40.75c10.05-11.56 20.1-23.12 35.42-40.75m-30.44 41.11c14.21-16.34 28.42-32.69 36.09-41.51m-36.09 41.51c8.26-9.5 16.53-19.01 36.09-41.51m-30.44 41.12c10.58-12.18 21.16-24.35 35.42-40.76m-35.42 40.76c13.89-15.99 27.79-31.97 35.42-40.76m-30.44 41.12c11.07-12.74 22.14-25.47 36.09-41.51m-36.09 41.51c14.07-16.18 28.13-32.36 36.09-41.51m-30.44 41.11c10.59-12.19 21.19-24.38 35.42-40.75m-35.42 40.75c10.23-11.78 20.47-23.55 35.42-40.75m-30.44 41.11c9.48-10.9 18.96-21.81 36.09-41.51m-36.09 41.51c14.3-16.44 28.59-32.89 36.09-41.51m-30.44 41.12 35.42-40.76m-35.42 40.76c8.62-9.93 17.25-19.85 35.42-40.76m-30.44 41.12c9.03-10.38 18.05-20.76 36.09-41.51m-36.09 41.51c13.61-15.65 27.21-31.3 36.09-41.51m-30.44 41.11c10.09-11.61 20.19-23.23 35.42-40.75m-35.42 40.75c12.18-14.01 24.36-28.03 35.42-40.75m-30.44 41.11c12.22-14.05 24.43-28.1 36.09-41.51m-36.09 41.51c10.1-11.62 20.2-23.23 36.09-41.51m-30.44 41.12c10.97-12.63 21.95-25.25 35.42-40.76m-35.42 40.76c10.52-12.11 21.05-24.22 35.42-40.76M270.9 111.3c10.06-11.57 20.12-23.14 36.09-41.51M270.9 111.3c9.79-11.25 19.57-22.51 36.09-41.51m-30.44 41.11c11.24-12.93 22.48-25.87 35.42-40.75m-35.42 40.75c8.1-9.32 16.21-18.64 35.42-40.75m-30.44 41.11c10.94-12.57 21.87-25.15 36.09-41.51m-36.09 41.51c12.12-13.93 24.23-27.86 36.09-41.51m-30.44 41.12c11.7-13.47 23.41-26.94 35.42-40.76m-35.42 40.76c10.04-11.55 20.08-23.1 35.42-40.76m-30.44 41.12 36.09-41.51m-36.09 41.51c10.01-11.52 20.03-23.03 36.09-41.51m-30.44 41.11c8.96-10.31 17.93-20.63 35.42-40.75m-35.42 40.75c7.94-9.13 15.88-18.27 35.42-40.75m-30.44 41.11c12.21-14.04 24.42-28.09 36.09-41.5m-36.09 41.5c11.51-13.24 23.02-26.48 36.09-41.5m-30.44 41.11c9.58-11.03 19.17-22.06 35.42-40.75m-35.42 40.75c8.25-9.5 16.51-19 35.42-40.75m-30.44 41.11c7.94-9.13 15.88-18.26 36.09-41.51m-36.09 41.51c10.88-12.52 21.76-25.03 36.09-41.51m-31.1 41.87c9-10.35 18-20.7 36.08-41.51m-36.08 41.51c11.21-12.89 22.42-25.79 36.08-41.51m-30.44 41.12c11.58-13.32 23.15-26.63 35.43-40.76m-35.43 40.76 35.43-40.76m-30.44 41.12c12.17-14 24.34-28 36.08-41.51m-36.08 41.51c9.97-11.48 19.95-22.95 36.08-41.51m-30.44 41.11c10.51-12.09 21.03-24.18 35.43-40.75m-35.43 40.75c12.36-14.22 24.72-28.43 35.43-40.75m-30.44 41.11c13.1-15.07 26.21-30.15 36.08-41.51m-36.08 41.51c13.3-15.3 26.6-30.59 36.08-41.51m-30.44 41.12c8.85-10.18 17.7-20.36 35.43-40.76m-35.43 40.76c13.82-15.9 27.63-31.79 35.43-40.76m-30.44 41.12c8.57-9.86 17.13-19.71 36.08-41.51m-36.08 41.51c8.8-10.13 17.6-20.25 36.08-41.51m-30.44 41.11c13.71-15.76 27.41-31.53 35.43-40.75m-35.43 40.75c11.51-13.24 23.02-26.48 35.43-40.75m-30.44 41.11c12.68-14.59 25.36-29.17 36.08-41.51m-36.08 41.51c13.65-15.7 27.3-31.4 36.08-41.51m-30.44 41.12C380.39 95.1 394.2 79.21 402 70.23m-35.43 40.76C376.8 99.23 387.02 87.47 402 70.23m-30.44 41.12c13.64-15.7 27.29-31.39 36.08-41.51m-36.08 41.51c9.6-11.05 19.21-22.09 36.08-41.51m-30.44 41.11c7.88-9.06 15.76-18.12 35.43-40.75m-35.43 40.75c8.33-9.57 16.65-19.15 35.43-40.75m-30.44 41.11c9.79-11.26 19.58-22.52 36.08-41.51m-36.08 41.51c7.96-9.15 15.91-18.3 36.08-41.51m-30.44 41.12c11.66-13.4 23.31-26.81 35.43-40.76m-35.43 40.76c11.93-13.72 23.85-27.44 35.43-40.76m-30.44 41.12c9.61-11.06 19.23-22.12 36.08-41.51m-36.08 41.51c13.48-15.5 26.95-31 36.08-41.51m-30.44 41.11c8.34-9.59 16.68-19.18 35.43-40.75m-35.43 40.75c13.63-15.68 27.26-31.36 35.43-40.75m-30.44 41.11c10.1-11.61 20.19-23.22 36.08-41.5m-36.08 41.5c9.94-11.43 19.89-22.87 36.08-41.5m-30.44 41.11c12.36-14.22 24.72-28.44 35.43-40.75m-35.43 40.75c13.8-15.87 27.6-31.75 35.43-40.75m-30.44 41.11 36.08-41.51m-36.08 41.51c10.69-12.3 21.39-24.6 36.08-41.51m-30.44 41.11c12.68-14.58 25.36-29.16 35.43-40.75m-35.43 40.75c13.45-15.46 26.9-30.93 35.43-40.75m-30.44 41.12 36.08-41.51m-36.08 41.51c8.08-9.3 16.16-18.59 36.08-41.51m-30.44 41.11c8.22-9.45 16.44-18.9 35.43-40.75m-35.43 40.75c7.18-8.26 14.36-16.52 35.43-40.75m-30.44 41.11c7.72-8.88 15.44-17.76 36.08-41.51m-36.08 41.51c9.57-11.01 19.15-22.02 36.08-41.51m-31.09 41.87c8.01-9.21 16.01-18.42 36.08-41.51m-36.08 41.51c11.73-13.49 23.45-26.98 36.08-41.51m-30.44 41.12 35.43-40.76m-35.43 40.76c8.72-10.03 17.44-20.06 35.43-40.76m-30.44 41.12c9.38-10.8 18.76-21.59 36.08-41.51m-36.08 41.51c8.36-9.62 16.71-19.23 36.08-41.51m-30.44 41.11 35.43-40.75m-35.43 40.75c7.47-8.59 14.94-17.18 35.43-40.75m-30.44 41.11c12.97-14.92 25.95-29.85 36.08-41.51m-36.08 41.51c8.17-9.4 16.34-18.79 36.08-41.51m-30.44 41.12C478.11 98.52 489 86 502.66 70.28m-35.43 40.76c7.89-9.07 15.77-18.14 35.43-40.76m-30.44 41.12c7.76-8.93 15.53-17.87 36.08-41.51m-36.08 41.51c8.37-9.63 16.73-19.25 36.08-41.51M477.86 111c11.91-13.7 23.82-27.39 35.43-40.75M477.86 111c12.87-14.8 25.74-29.61 35.43-40.75m-30.44 41.11c7.31-8.41 14.63-16.83 36.08-41.51m-36.08 41.51c14.05-16.16 28.1-32.32 36.08-41.51m-30.44 41.12c8.52-9.8 17.04-19.6 35.43-40.76m-35.43 40.76c11.82-13.6 23.65-27.2 35.43-40.76m-30.44 41.12 36.08-41.51m-36.08 41.51c9.34-10.75 18.68-21.49 36.08-41.51m-30.44 41.11c9.49-10.91 18.98-21.83 35.43-40.75m-35.43 40.75c8.97-10.32 17.95-20.64 35.43-40.75m-30.44 41.11c10.23-11.77 20.47-23.54 36.08-41.51m-36.08 41.51c7.91-9.1 15.82-18.19 36.08-41.51m-30.44 41.12c12.31-14.16 24.62-28.31 35.43-40.76m-35.43 40.76c9.22-10.6 18.43-21.2 35.43-40.76m-30.44 41.12c12.08-13.9 24.16-27.8 36.08-41.51m-36.08 41.51c9.67-11.12 19.34-22.25 36.08-41.51m-30.44 41.11c10.25-11.79 20.5-23.58 35.43-40.75m-35.43 40.75c11.03-12.68 22.05-25.36 35.43-40.75m-30.44 41.11c8.45-9.71 16.89-19.43 36.08-41.5m-36.08 41.5c7.99-9.19 15.99-18.38 36.08-41.5m-30.44 41.11c13.65-15.7 27.29-31.39 35.43-40.75m-35.43 40.75c13.54-15.57 27.08-31.15 35.43-40.75M536 111.19c13.11-15.09 26.23-30.17 36.08-41.51M536 111.19l36.08-41.51m-30.44 41.12c7.36-8.47 14.71-16.93 35.43-40.76m-35.43 40.76c9.48-10.91 18.95-21.81 35.43-40.76m-30.44 41.12c13.94-16.04 27.88-32.07 36.08-41.51m-36.08 41.51c7.28-8.38 14.56-16.75 36.08-41.51m-31.09 41.87c7.6-8.75 15.2-17.5 36.08-41.51m-36.08 41.51c13.72-15.79 27.44-31.58 36.08-41.51m-30.44 41.11c8.76-10.08 17.52-20.15 35.43-40.75m-35.43 40.75c12.57-14.46 25.14-28.92 35.43-40.75m-30.44 41.11c11.89-13.69 23.79-27.37 36.08-41.51m-36.08 41.51c12.72-14.64 25.45-29.28 36.08-41.51m-30.44 41.12c13.19-15.17 26.37-30.34 35.43-40.76m-35.43 40.76c9.4-10.82 18.8-21.63 35.43-40.76m-30.44 41.12c13.75-15.83 27.5-31.65 36.08-41.51m-36.08 41.51c8.48-9.76 16.97-19.52 36.08-41.51m-30.44 41.11c9.5-10.93 19.01-21.86 35.43-40.75m-35.43 40.75c8.62-9.91 17.24-19.83 35.43-40.75m-30.44 41.11c9.48-10.9 18.96-21.81 36.08-41.51m-36.08 41.51c10.72-12.33 21.44-24.67 36.08-41.51m-30.44 41.12c11.47-13.2 22.95-26.4 35.43-40.76m-35.43 40.76 35.43-40.76m-30.44 41.12c12.75-14.68 25.51-29.35 36.08-41.51m-36.08 41.51c8.19-9.43 16.38-18.85 36.08-41.51m-30.44 41.11 35.43-40.75m-35.43 40.75c11.9-13.69 23.8-27.38 35.43-40.75m-30.44 41.11c11.31-13.02 22.63-26.04 36.08-41.51m-36.08 41.51 36.08-41.51m-30.44 41.12c9.68-11.14 19.37-22.28 35.43-40.76m-35.43 40.76c12.91-14.85 25.82-29.71 35.43-40.76m-30.44 41.12c10.27-11.82 20.55-23.64 36.08-41.51m-36.08 41.51c12.14-13.97 24.28-27.93 36.08-41.51m-30.44 41.11c12.41-14.27 24.81-28.54 35.43-40.75m-35.43 40.75c10.21-11.74 20.42-23.48 35.43-40.75m-30.44 41.11c10.44-12.01 20.89-24.03 36.08-41.5m-36.08 41.5c13.93-16.03 27.87-32.06 36.08-41.5m-30.44 41.11c12.49-14.37 24.98-28.74 35.43-40.75m-35.43 40.75c11.02-12.67 22.03-25.34 35.43-40.75m-30.44 41.11 36.08-41.51m-36.08 41.51c8.8-10.12 17.6-20.25 36.08-41.51m-30.44 41.12c9.75-11.22 19.49-22.43 35.43-40.76m-35.43 40.76c9.05-10.41 18.09-20.82 35.43-40.76m-30.44 41.12c10.73-12.35 21.45-24.69 36.08-41.51m-36.08 41.51C657.81 99.1 668.33 87 683.37 69.7m-30.44 41.11c13.95-16.04 27.9-32.09 35.43-40.75m-35.43 40.75 35.43-40.75m-30.44 41.11c12.7-14.61 25.41-29.23 36.08-41.51m-36.08 41.51c11.9-13.69 23.8-27.38 36.08-41.51m-30.44 41.12c9.4-10.82 18.81-21.64 35.43-40.76m-35.43 40.76c10.38-11.94 20.76-23.88 35.43-40.76m-30.44 41.12c12.41-14.29 24.83-28.57 36.08-41.51m-36.08 41.51c13.64-15.7 27.29-31.4 36.08-41.51m-31.1 41.87c11.86-13.65 23.73-27.29 36.09-41.51m-36.09 41.51C685.27 98 697 84.51 709.62 69.99m-30.44 41.11c10.71-12.32 21.42-24.64 35.42-40.75m-35.42 40.75c9.73-11.19 19.46-22.39 35.42-40.75m-30.44 41.11c10.94-12.58 21.88-25.16 36.09-41.51m-36.09 41.51c12.87-14.8 25.74-29.6 36.09-41.51m-30.44 41.12 35.42-40.76m-35.42 40.76c9.79-11.27 19.58-22.54 35.42-40.76m-30.44 41.12c14.06-16.17 28.12-32.35 36.09-41.51m-36.09 41.51c10.96-12.61 21.92-25.22 36.09-41.51m-30.44 41.11c8.48-9.76 16.97-19.52 35.42-40.75m-35.42 40.75 35.42-40.75m-30.44 41.11c9.76-11.21 19.51-22.43 36.09-41.51m-36.09 41.51c10.89-12.52 21.77-25.03 36.09-41.51M711.07 111c10.02-11.53 20.04-23.05 35.43-40.76M711.07 111c11.22-12.92 22.45-25.83 35.43-40.76m-30.45 41.12c11.13-12.8 22.26-25.61 36.09-41.51m-36.09 41.51c10.97-12.62 21.94-25.24 36.09-41.51m-30.44 41.11c7.82-9 15.64-18 35.43-40.75m-35.43 40.75c12.87-14.8 25.73-29.6 35.43-40.75m-30.45 41.11c12.59-14.47 25.18-28.95 36.09-41.51m-36.09 41.51c10.23-11.76 20.46-23.53 36.09-41.51m-30.44 41.12c10.23-11.77 20.46-23.54 35.43-40.75m-35.43 40.75c11.69-13.45 23.38-26.89 35.43-40.75m-30.44 41.11c11.44-13.17 22.89-26.34 36.08-41.51m-36.08 41.51c8.34-9.61 16.69-19.21 36.08-41.51m-30.44 41.11c7.2-8.28 14.4-16.56 35.43-40.75m-35.43 40.75c13.03-14.98 26.06-29.97 35.43-40.75m-30.44 41.12c7.97-9.17 15.93-18.34 36.08-41.51m-36.08 41.51c12.9-14.85 25.81-29.7 36.08-41.51m-30.44 41.11c12.82-14.75 25.64-29.5 35.43-40.75m-35.43 40.75 35.43-40.75m-30.44 41.11c12.55-14.45 25.11-28.9 36.08-41.51m-36.08 41.51c10.51-12.09 21.02-24.19 36.08-41.51m-30.44 41.12c8.63-9.94 17.27-19.87 35.43-40.76m-35.43 40.76c12.51-14.4 25.02-28.79 35.43-40.76m-30.44 41.12c9.68-11.15 19.37-22.29 36.08-41.51m-36.08 41.51c10.09-11.62 20.19-23.23 36.08-41.51m-30.44 41.11c7.41-8.52 14.82-17.05 35.43-40.75m-35.43 40.75c10.48-12.06 20.96-24.11 35.43-40.75m-30.44 41.11c8.4-9.67 16.8-19.33 36.08-41.51m-36.08 41.51c14.05-16.16 28.1-32.33 36.08-41.51m-31.1 41.87c10.81-12.43 21.62-24.86 36.09-41.51m-36.09 41.51c10.82-12.44 21.64-24.89 36.09-41.51m-30.44 41.12c13.23-15.23 26.47-30.45 35.42-40.76m-35.42 40.76 35.42-40.76m-30.44 41.12c8.57-9.86 17.15-19.73 36.09-41.51m-36.09 41.51c7.57-8.7 15.13-17.4 36.09-41.51m-30.44 41.11c10.76-12.38 21.52-24.76 35.42-40.75m-35.42 40.75c11.72-13.49 23.45-26.97 35.42-40.75m-30.44 41.11c8.21-9.44 16.41-18.87 36.09-41.51m-36.09 41.51c10.41-11.96 20.81-23.93 36.09-41.51m-30.44 41.12 35.42-40.76m-35.42 40.76c13.79-15.87 27.58-31.73 35.42-40.76m-30.44 41.12C829.49 96.71 842.27 82 852.8 69.9m-36.09 41.51c7.86-9.05 15.73-18.09 36.09-41.51m-30.44 41.11c13.91-16.01 27.83-32.02 35.42-40.75m-35.42 40.75 35.42-40.75m-30.44 41.11c13.88-15.96 27.75-31.92 36.09-41.51m-36.09 41.51 36.09-41.51m-30.44 41.12c13.62-15.68 27.25-31.35 35.42-40.76m-35.42 40.76 35.42-40.76m-30.44 41.12c13.21-15.2 26.42-30.39 36.09-41.51m-36.09 41.51c9.06-10.42 18.12-20.85 36.09-41.51m-30.44 41.11c8.21-9.45 16.43-18.9 35.42-40.75m-35.42 40.75 35.42-40.75M848.6 111.3c8.23-9.46 16.45-18.92 36.09-41.5m-36.09 41.5c7.67-8.81 15.33-17.63 36.09-41.5m-30.44 41.11 35.42-40.75m-35.42 40.75c9.06-10.42 18.11-20.84 35.42-40.75m-30.44 41.11c13.72-15.78 27.45-31.57 36.09-41.51m-36.09 41.51c12.26-14.1 24.52-28.21 36.09-41.51m-30.44 41.12c8.97-10.33 17.94-20.65 35.42-40.76m-35.42 40.76c13.16-15.14 26.32-30.28 35.42-40.76m-30.44 41.12c11.36-13.06 22.71-26.12 36.09-41.51m-36.09 41.51c7.54-8.68 15.08-17.35 36.09-41.51m-30.44 41.11c10.99-12.64 21.98-25.29 35.42-40.75m-35.42 40.75c8.81-10.14 17.63-20.29 35.42-40.75m-30.44 41.11c7.35-8.46 14.71-16.91 36.09-41.51m-36.09 41.51c7.74-8.9 15.47-17.79 36.09-41.51m-30.44 41.12c13.77-15.85 27.54-31.69 35.42-40.76m-35.42 40.76c12.11-13.93 24.22-27.87 35.42-40.76m-30.44 41.12c10.89-12.52 21.77-25.04 36.09-41.51m-36.09 41.51c13.32-15.33 26.64-30.65 36.09-41.51m-31.1 41.87c8.43-9.7 16.86-19.4 36.08-41.51m-36.08 41.51c11.65-13.4 23.29-26.8 36.08-41.51m-30.44 41.11c12.4-14.26 24.8-28.52 36.09-41.51m-36.09 41.51c11.02-12.67 22.04-25.34 36.09-41.51m-31.1 41.87c9.76-11.23 19.52-22.45 36.08-41.51m-36.08 41.51c10.21-11.75 20.43-23.5 36.08-41.51m-30.44 41.12c12.26-14.1 24.52-28.2 35.43-40.76m-35.43 40.76c9.69-11.15 19.38-22.29 35.43-40.76m-30.44 41.12c7.19-8.27 14.37-16.54 34.77-40m-34.77 40 34.77-40m-29.13 39.6c5.97-6.86 11.94-13.73 28.87-33.2m-28.87 33.2c9.91-11.39 19.81-22.78 28.87-33.2M928 111.42c5.44-6.26 10.89-12.52 23.62-27.17M928 111.42c4.74-5.45 9.48-10.9 23.62-27.17m-17.98 26.78c5.6-6.44 11.2-12.88 18.37-21.13m-18.37 21.13c3.72-4.28 7.44-8.55 18.37-21.13m-13.38 21.49c2.78-3.19 5.55-6.39 13.12-15.1m-13.12 15.1c3.07-3.54 6.15-7.07 13.12-15.1m-7.48 14.7c2.37-2.72 4.73-5.44 7.88-9.05m-7.88 9.05c2.82-3.24 5.64-6.48 7.88-9.05" stroke="#e8f7eb" stroke-width=".5"/><path d="M10 70h940M10 70h940m0 0v40m0-40v40m0 0H10m940 0H10m0 0V70m0 40V70" stroke="#a9c265"/></g><text x="130.082" font-family="Helvetica, Segoe UI Emoji" font-size="20" fill="#a9c265" text-anchor="middle" style="white-space:pre" dominant-baseline="text-before-edge" transform="translate(349.918 78.5)">CheckoutService::placeOrder</text><g stroke-linecap="round" fill="none"><path d="M10 130s0 0 0 0m0 0s0 0 0 0m-.26 6.4c2-2.3 4-4.6 5.25-6.04m-5.25 6.04 5.25-6.04m-4.86 11.68c2.4-2.76 4.8-5.52 10.5-12.07m-10.5 12.07c3.47-3.99 6.94-7.98 10.5-12.07M9.87 148.44c4.23-4.87 8.46-9.74 15.75-18.11M9.87 148.44c3.96-4.55 7.91-9.1 15.75-18.11m-15.35 23.75c6.34-7.29 12.68-14.59 20.99-24.15m-20.99 24.15c4.33-4.99 8.67-9.97 20.99-24.15M10 160.48l26.25-30.19M10 160.48l26.25-30.19M9.74 166.88c6.48-7.45 12.96-14.91 32.15-36.98M9.74 166.88c11.54-13.28 23.09-26.56 32.15-36.98m-30.44 41.11c12.65-14.55 25.29-29.09 35.43-40.75m-35.43 40.75c11.38-13.09 22.75-26.17 35.43-40.75m-30.44 41.11c11.15-12.83 22.31-25.67 36.08-41.51m-36.08 41.51c8.05-9.26 16.1-18.53 36.08-41.51m-30.44 41.12c7.86-9.05 15.72-18.09 35.43-40.76m-35.43 40.76 35.43-40.76m-30.44 41.12c10.41-11.98 20.82-23.96 36.08-41.51m-36.08 41.51c9.12-10.5 18.24-20.99 36.08-41.51m-30.44 41.11c12.24-14.08 24.48-28.16 35.43-40.75m-35.43 40.75c12.57-14.46 25.13-28.91 35.43-40.75M37.7 171.3c10.25-11.79 20.5-23.59 36.08-41.51M37.7 171.3l36.08-41.51m-30.44 41.12c9.33-10.73 18.65-21.46 35.43-40.76m-35.43 40.76c8.95-10.3 17.9-20.59 35.43-40.76m-30.44 41.12c11.61-13.36 23.22-26.72 36.08-41.51m-36.08 41.51c11.45-13.18 22.91-26.36 36.08-41.51m-30.44 41.11c13.87-15.95 27.74-31.91 35.43-40.75m-35.43 40.75c11.78-13.55 23.56-27.1 35.43-40.75m-30.44 41.11c11.14-12.81 22.28-25.63 36.08-41.51m-36.08 41.51c12.77-14.68 25.53-29.37 36.08-41.51M64.6 170.84c8.08-9.29 16.15-18.58 35.43-40.76M64.6 170.84c9.35-10.75 18.69-21.51 35.43-40.76M69.59 171.2c8.42-9.69 16.84-19.37 36.08-41.51M69.59 171.2c12.93-14.88 25.87-29.76 36.08-41.51M75.23 170.8c12.46-14.33 24.93-28.67 35.43-40.75M75.23 170.8c11.86-13.64 23.72-27.29 35.43-40.75m-30.44 41.11c13.18-15.16 26.35-30.31 36.08-41.5m-36.08 41.5c10.06-11.57 20.12-23.14 36.08-41.5m-31.1 41.86c8.06-9.26 16.11-18.52 36.09-41.5m-36.09 41.5c9.11-10.47 18.22-20.95 36.09-41.5m-30.44 41.11 35.42-40.75m-35.42 40.75c9.96-11.46 19.92-22.92 35.42-40.75m-30.44 41.11c13.84-15.92 27.68-31.84 36.09-41.51m-36.09 41.51c12.35-14.2 24.7-28.41 36.09-41.51m-30.44 41.12c11.88-13.67 23.76-27.34 35.43-40.76m-35.43 40.76c12.43-14.3 24.85-28.6 35.43-40.76m-30.45 41.12c9.23-10.62 18.46-21.23 36.09-41.51m-36.09 41.51 36.09-41.51m-30.44 41.11c11.31-13.01 22.62-26.03 35.43-40.75m-35.43 40.75 35.43-40.75m-30.45 41.11c12.41-14.27 24.81-28.53 36.09-41.51m-36.09 41.51c8.49-9.76 16.97-19.52 36.09-41.51m-30.44 41.12c7.14-8.21 14.27-16.43 35.43-40.76m-35.43 40.76c11.52-13.26 23.05-26.52 35.43-40.76m-30.44 41.12c8.39-9.67 16.79-19.33 36.08-41.51m-36.08 41.51c13.83-15.91 27.66-31.82 36.08-41.51m-30.44 41.11c9.13-10.5 18.26-21.01 35.43-40.75m-35.43 40.75c10.42-11.98 20.84-23.97 35.43-40.75m-30.44 41.11c14.04-16.16 28.09-32.32 36.08-41.51m-36.08 41.51 36.08-41.51M144 170.96c8.69-10 17.38-20 35.43-40.76M144 170.96c9.13-10.51 18.26-21.01 35.43-40.76m-30.44 41.12c13.03-15 26.07-30 36.08-41.51m-36.08 41.51c10.34-11.9 20.68-23.79 36.08-41.51m-30.44 41.11c7.18-8.26 14.36-16.51 35.43-40.75m-35.43 40.75c10.45-12.03 20.91-24.05 35.43-40.75m-30.44 41.11 36.08-41.51m-36.08 41.51c10.8-12.42 21.6-24.85 36.08-41.51m-30.44 41.12c8.83-10.16 17.65-20.31 35.43-40.76m-35.43 40.76c10.76-12.38 21.52-24.76 35.43-40.76m-30.44 41.12c12.57-14.46 25.14-28.92 36.08-41.51m-36.08 41.51 36.08-41.51m-30.44 41.11c13.67-15.72 27.34-31.45 35.43-40.75m-35.43 40.75c14.16-16.29 28.33-32.59 35.43-40.75m-30.44 41.11 36.08-41.51m-36.08 41.51 36.08-41.51m-30.44 41.12c10.45-12.02 20.9-24.04 35.43-40.76m-35.43 40.76c11.28-12.98 22.57-25.97 35.43-40.76m-30.44 41.12c7.25-8.34 14.5-16.69 36.08-41.51m-36.08 41.51c11.59-13.33 23.18-26.67 36.08-41.51m-30.44 41.11c12.03-13.84 24.06-27.68 35.43-40.75m-35.43 40.75c7.57-8.7 15.14-17.41 35.43-40.75m-30.44 41.11c11.17-12.84 22.33-25.69 36.08-41.5m-36.08 41.5c13.39-15.4 26.79-30.81 36.08-41.5m-31.1 41.86c13.16-15.13 26.32-30.26 36.09-41.5m-36.09 41.5c9.3-10.7 18.61-21.4 36.09-41.5m-30.44 41.11c8.01-9.22 16.02-18.44 35.42-40.75m-35.42 40.75c7.56-8.7 15.12-17.4 35.42-40.75m-30.44 41.11c10.68-12.28 21.35-24.56 36.09-41.51m-36.09 41.51c8.74-10.05 17.48-20.1 36.09-41.51m-30.44 41.12c9.47-10.9 18.95-21.8 35.42-40.76m-35.42 40.76c14.12-16.25 28.25-32.5 35.42-40.76m-30.44 41.12c12.28-14.13 24.56-28.25 36.09-41.51m-36.09 41.51c13.6-15.65 27.2-31.29 36.09-41.51m-30.44 41.11c8.18-9.41 16.37-18.83 35.42-40.75m-35.42 40.75c10.49-12.08 20.99-24.15 35.42-40.75m-30.44 41.11c13.95-16.04 27.89-32.08 36.09-41.51m-36.09 41.51c10.49-12.07 20.98-24.13 36.09-41.51m-30.44 41.12c14.02-16.14 28.05-32.28 35.42-40.76m-35.42 40.76c10.43-12.01 20.87-24.01 35.42-40.76m-30.44 41.12c7.36-8.47 14.72-16.94 36.09-41.51m-36.09 41.51c8.35-9.6 16.69-19.2 36.09-41.51m-30.44 41.11c11.42-13.14 22.85-26.29 35.42-40.75m-35.42 40.75c7.09-8.16 14.19-16.32 35.42-40.75m-30.44 41.11c8.8-10.11 17.59-20.23 36.09-41.51m-36.09 41.51c9.56-10.99 19.11-21.98 36.09-41.51m-30.44 41.12c8.93-10.28 17.86-20.56 35.42-40.76m-35.42 40.76c8.47-9.75 16.94-19.5 35.42-40.76M270.9 171.3c8.58-9.87 17.16-19.74 36.09-41.51M270.9 171.3c9.98-11.48 19.95-22.95 36.09-41.51m-30.44 41.11 35.42-40.75m-35.42 40.75c9.06-10.42 18.12-20.84 35.42-40.75m-30.44 41.11c14.42-16.58 28.83-33.16 36.09-41.51m-36.09 41.51c13.35-15.35 26.7-30.71 36.09-41.51m-30.44 41.12c10.38-11.94 20.76-23.89 35.42-40.76m-35.42 40.76c11.09-12.76 22.18-25.52 35.42-40.76m-30.44 41.12c8.07-9.28 16.14-18.56 36.09-41.51m-36.09 41.51c9.67-11.12 19.34-22.24 36.09-41.51m-30.44 41.11c10.4-11.96 20.8-23.92 35.42-40.75m-35.42 40.75c10.38-11.94 20.77-23.89 35.42-40.75m-30.44 41.11c10.32-11.86 20.63-23.73 36.09-41.5m-36.09 41.5c11.25-12.93 22.49-25.86 36.09-41.5m-30.44 41.11c9.76-11.24 19.53-22.47 35.42-40.75m-35.42 40.75c10.51-12.09 21.02-24.19 35.42-40.75m-30.44 41.11c8.79-10.11 17.58-20.21 36.09-41.51m-36.09 41.51c9.42-10.84 18.84-21.67 36.09-41.51m-31.1 41.87c10.36-11.92 20.73-23.84 36.08-41.51m-36.08 41.51c8.77-10.09 17.55-20.18 36.08-41.51m-30.44 41.12c8.32-9.58 16.64-19.15 35.43-40.76m-35.43 40.76c10.46-12.03 20.92-24.06 35.43-40.76m-30.44 41.12c9.28-10.68 18.55-21.35 36.08-41.51m-36.08 41.51c9.76-11.24 19.53-22.47 36.08-41.51m-30.44 41.11c9.91-11.39 19.81-22.79 35.43-40.75m-35.43 40.75c7.49-8.62 14.98-17.23 35.43-40.75m-30.44 41.11c14.28-16.42 28.55-32.84 36.08-41.51m-36.08 41.51c12.12-13.95 24.25-27.89 36.08-41.51m-30.44 41.12c9.87-11.35 19.74-22.71 35.43-40.76m-35.43 40.76c8.02-9.22 16.03-18.44 35.43-40.76m-30.44 41.12c14.23-16.37 28.45-32.73 36.08-41.51m-36.08 41.51c7.76-8.93 15.52-17.86 36.08-41.51m-30.44 41.11c7.58-8.71 15.15-17.43 35.43-40.75m-35.43 40.75c13.27-15.26 26.54-30.52 35.43-40.75m-30.44 41.11c8.15-9.37 16.3-18.74 36.08-41.51m-36.08 41.51c10.91-12.55 21.81-25.09 36.08-41.51m-30.44 41.12L402 130.23m-35.43 40.76c10.99-12.64 21.98-25.28 35.43-40.76m-30.44 41.12c12.42-14.29 24.85-28.58 36.08-41.51m-36.08 41.51c7.61-8.75 15.21-17.5 36.08-41.51m-30.44 41.11c8.09-9.3 16.18-18.6 35.43-40.75m-35.43 40.75c10.83-12.45 21.66-24.91 35.43-40.75m-30.44 41.11c10.28-11.82 20.56-23.65 36.08-41.51m-36.08 41.51c13.44-15.46 26.88-30.91 36.08-41.51m-30.44 41.12c9.85-11.33 19.7-22.66 35.43-40.76m-35.43 40.76c8.95-10.29 17.89-20.57 35.43-40.76m-30.44 41.12c9.53-10.96 19.06-21.93 36.08-41.51m-36.08 41.51c8.59-9.88 17.18-19.76 36.08-41.51m-30.44 41.11c7.27-8.35 14.53-16.7 35.43-40.75m-35.43 40.75c9.23-10.61 18.46-21.22 35.43-40.75m-30.44 41.11c13.71-15.76 27.41-31.52 36.08-41.5m-36.08 41.5c9.99-11.49 19.99-22.99 36.08-41.5m-30.44 41.11c14.1-16.21 28.19-32.42 35.43-40.75m-35.43 40.75c9.16-10.54 18.32-21.07 35.43-40.75m-30.44 41.11c7.61-8.75 15.22-17.51 36.08-41.51m-36.08 41.51c13.62-15.66 27.23-31.33 36.08-41.51m-30.44 41.11c11.55-13.28 23.1-26.56 35.43-40.75m-35.43 40.75c13.97-16.06 27.94-32.13 35.43-40.75m-30.44 41.12c7.85-9.04 15.71-18.07 36.08-41.51m-36.08 41.51c8.89-10.23 17.77-20.45 36.08-41.51m-30.44 41.11c12.06-13.87 24.12-27.74 35.43-40.75m-35.43 40.75c8.29-9.53 16.58-19.07 35.43-40.75m-30.44 41.11c12.32-14.18 24.65-28.35 36.08-41.51m-36.08 41.51c7.55-8.68 15.1-17.37 36.08-41.51m-31.09 41.87c9.86-11.34 19.72-22.68 36.08-41.51m-36.08 41.51c13.08-15.05 26.17-30.1 36.08-41.51m-30.44 41.12c7.28-8.37 14.55-16.74 35.43-40.76m-35.43 40.76c7.47-8.6 14.94-17.19 35.43-40.76m-30.44 41.12c8.58-9.88 17.16-19.75 36.08-41.51m-36.08 41.51c13.86-15.95 27.72-31.89 36.08-41.51m-30.44 41.11c11.1-12.76 22.19-25.52 35.43-40.75m-35.43 40.75c7.59-8.73 15.18-17.45 35.43-40.75m-30.44 41.11c8.26-9.5 16.51-19 36.08-41.51m-36.08 41.51c11.58-13.32 23.17-26.65 36.08-41.51m-30.44 41.12c8.86-10.19 17.72-20.39 35.43-40.76m-35.43 40.76c7.13-8.2 14.25-16.4 35.43-40.76m-30.44 41.12c11.62-13.37 23.24-26.74 36.08-41.51m-36.08 41.51c7.74-8.91 15.49-17.82 36.08-41.51M477.86 171c10.02-11.52 20.03-23.04 35.43-40.75M477.86 171c13.2-15.18 26.4-30.36 35.43-40.75m-30.44 41.11c9.91-11.4 19.83-22.81 36.08-41.51m-36.08 41.51c11.72-13.48 23.45-26.97 36.08-41.51m-30.44 41.12c12.71-14.62 25.42-29.25 35.43-40.76m-35.43 40.76c12.32-14.17 24.64-28.34 35.43-40.76m-30.44 41.12c11.74-13.5 23.47-27 36.08-41.51m-36.08 41.51c11.93-13.73 23.87-27.46 36.08-41.51m-30.44 41.11c10.89-12.52 21.78-25.05 35.43-40.75m-35.43 40.75c12.93-14.87 25.86-29.74 35.43-40.75m-30.44 41.11c14.19-16.32 28.37-32.63 36.08-41.51m-36.08 41.51c11.9-13.68 23.79-27.37 36.08-41.51m-30.44 41.12c8.45-9.72 16.9-19.44 35.43-40.76m-35.43 40.76c9.96-11.45 19.91-22.9 35.43-40.76m-30.44 41.12c10.08-11.6 20.16-23.19 36.08-41.51m-36.08 41.51c8.59-9.88 17.18-19.77 36.08-41.51m-30.44 41.11c12.19-14.01 24.37-28.03 35.43-40.75m-35.43 40.75c13.17-15.14 26.34-30.29 35.43-40.75m-30.44 41.11c9.59-11.03 19.19-22.07 36.08-41.5m-36.08 41.5c14.11-16.22 28.21-32.45 36.08-41.5m-30.44 41.11c10.5-12.08 21-24.15 35.43-40.75m-35.43 40.75c11.74-13.5 23.48-27.01 35.43-40.75M536 171.19c11.41-13.13 22.83-26.26 36.08-41.51M536 171.19c12.34-14.2 24.69-28.4 36.08-41.51m-30.44 41.12 35.43-40.76m-35.43 40.76c9.69-11.14 19.37-22.28 35.43-40.76m-30.44 41.12c9.93-11.43 19.86-22.85 36.08-41.51m-36.08 41.51c9.53-10.96 19.06-21.93 36.08-41.51m-31.09 41.87c8.63-9.93 17.26-19.86 36.08-41.51m-36.08 41.51c11.88-13.68 23.77-27.35 36.08-41.51m-30.44 41.11c9.51-10.93 19.01-21.87 35.43-40.75m-35.43 40.75c12.33-14.19 24.67-28.38 35.43-40.75m-30.44 41.11c13.76-15.83 27.53-31.67 36.08-41.51m-36.08 41.51c9.03-10.39 18.06-20.78 36.08-41.51m-30.44 41.12c10.73-12.35 21.46-24.69 35.43-40.76m-35.43 40.76 35.43-40.76m-30.44 41.12c9.89-11.39 19.79-22.77 36.08-41.51m-36.08 41.51c7.41-8.53 14.83-17.07 36.08-41.51m-30.44 41.11c9.47-10.89 18.94-21.78 35.43-40.75m-35.43 40.75c9.28-10.67 18.55-21.34 35.43-40.75m-30.44 41.11c14.3-16.45 28.61-32.91 36.08-41.51m-36.08 41.51 36.08-41.51m-30.44 41.12c11.73-13.5 23.46-26.99 35.43-40.76m-35.43 40.76 35.43-40.76m-30.44 41.12c11.12-12.8 22.25-25.6 36.08-41.51m-36.08 41.51c14.08-16.2 28.16-32.4 36.08-41.51m-30.44 41.11c12.23-14.07 24.47-28.14 35.43-40.75m-35.43 40.75c13.77-15.83 27.54-31.67 35.43-40.75m-30.44 41.11c9.07-10.44 18.15-20.88 36.08-41.51m-36.08 41.51c9.1-10.47 18.21-20.94 36.08-41.51m-30.44 41.12 35.43-40.76m-35.43 40.76c7.42-8.53 14.84-17.07 35.43-40.76m-30.44 41.12c12.58-14.48 25.16-28.95 36.08-41.51m-36.08 41.51c7.72-8.88 15.44-17.76 36.08-41.51m-30.44 41.11c8.3-9.55 16.61-19.1 35.43-40.75m-35.43 40.75c11.83-13.6 23.66-27.21 35.43-40.75m-30.44 41.11c7.35-8.46 14.71-16.92 36.08-41.5m-36.08 41.5c12.2-14.04 24.41-28.08 36.08-41.5m-30.44 41.11c7.7-8.86 15.4-17.71 35.43-40.75m-35.43 40.75c10.09-11.6 20.17-23.21 35.43-40.75m-30.44 41.11c10.51-12.09 21.02-24.18 34.77-40m-34.77 40c10.68-12.29 21.36-24.57 34.77-40m-29.13 39.61c10.58-12.18 21.16-24.35 28.87-33.21m-28.87 33.21c5.86-6.75 11.73-13.5 28.87-33.21m-23.88 33.57c5.11-5.88 10.21-11.76 24.27-27.93m-24.27 27.93c5.37-6.19 10.75-12.37 24.27-27.93m-18.63 27.53c6.23-7.17 12.47-14.34 18.37-21.13m-18.37 21.13c4.58-5.27 9.16-10.53 18.37-21.13m-13.38 21.49c5.18-5.96 10.36-11.92 13.77-15.85m-13.77 15.85c2.76-3.17 5.52-6.35 13.77-15.85m-8.13 15.46c2.16-2.48 4.31-4.96 7.87-9.06m-7.87 9.06 7.87-9.06m-2.88 9.42c.86-.99 1.72-1.99 2.62-3.02m-2.62 3.02c1-1.16 2-2.31 2.62-3.02" stroke="#e8f7eb" stroke-width=".5"/><path d="M10 130h660m-660 0h660m0 0v40m0-40v40m0 0H10m660 0H10m0 0v-40m0 40v-40" stroke="#a9c265"/></g><text x="84.142" font-family="Helvetica, Segoe UI Emoji" font-size="20" fill="#a9c265" text-anchor="middle" style="white-space:pre" dominant-baseline="text-before-edge" transform="translate(255.858 138.5)">prepareOrderItems</text><g stroke-linecap="round" fill="none"><path d="M10 190s0 0 0 0m0 0s0 0 0 0m-.26 6.4c1.55-1.78 3.09-3.56 5.25-6.04m-5.25 6.04c1.67-1.93 3.34-3.85 5.25-6.04m-4.86 11.68c2.11-2.43 4.22-4.85 10.5-12.07m-10.5 12.07c3.37-3.88 6.75-7.76 10.5-12.07M9.87 208.44c5.35-6.15 10.7-12.3 15.75-18.11M9.87 208.44c3.37-3.87 6.73-7.74 15.75-18.11m-15.35 23.75c6.49-7.47 12.99-14.95 20.99-24.15m-20.99 24.15c7.79-8.96 15.58-17.93 20.99-24.15M10 220.48c9.57-11.01 19.14-22.01 26.25-30.19M10 220.48c6.77-7.78 13.53-15.56 26.25-30.19M9.74 226.88c7.27-8.37 14.55-16.73 32.15-36.98M9.74 226.88c6.87-7.9 13.73-15.79 32.15-36.98m-30.44 41.11c10.48-12.05 20.96-24.11 35.43-40.75m-35.43 40.75c8.58-9.87 17.16-19.74 35.43-40.75m-30.44 41.11c9.65-11.1 19.3-22.2 36.08-41.51m-36.08 41.51c14.38-16.55 28.77-33.1 36.08-41.51m-30.44 41.12c12.06-13.87 24.11-27.74 35.43-40.76m-35.43 40.76c13.35-15.36 26.7-30.72 35.43-40.76m-30.44 41.12c8.33-9.59 16.67-19.18 36.08-41.51m-36.08 41.51c10.69-12.3 21.38-24.61 36.08-41.51m-30.44 41.11c13.69-15.75 27.38-31.5 35.43-40.75m-35.43 40.75c10.3-11.85 20.6-23.69 35.43-40.75M37.7 231.3c14.29-16.43 28.57-32.87 36.08-41.51M37.7 231.3c10.63-12.22 21.25-24.45 36.08-41.51m-30.44 41.12c7.23-8.32 14.45-16.63 35.43-40.76m-35.43 40.76c8.19-9.43 16.39-18.85 35.43-40.76m-30.44 41.12c11.63-13.39 23.27-26.78 36.08-41.51m-36.08 41.51c7.22-8.32 14.45-16.63 36.08-41.51m-30.44 41.11c8.63-9.93 17.27-19.86 35.43-40.75m-35.43 40.75c9.38-10.79 18.76-21.58 35.43-40.75m-30.44 41.11c9.1-10.46 18.2-20.93 36.08-41.51m-36.08 41.51c8.63-9.93 17.26-19.85 36.08-41.51M64.6 230.84c8.42-9.69 16.84-19.38 35.43-40.76M64.6 230.84c9.79-11.27 19.59-22.53 35.43-40.76M69.59 231.2l36.08-41.51M69.59 231.2c9.23-10.62 18.45-21.23 36.08-41.51M75.23 230.8c14.15-16.28 28.3-32.56 35.43-40.75M75.23 230.8c13.11-15.07 26.21-30.15 35.43-40.75m-30.44 41.11c10.57-12.16 21.15-24.33 36.08-41.5m-36.08 41.5c11.3-12.99 22.59-25.99 36.08-41.5m-31.1 41.86c8.07-9.28 16.14-18.55 36.09-41.5m-36.09 41.5 36.09-41.5m-30.44 41.11c10.4-11.96 20.8-23.93 35.42-40.75m-35.42 40.75c10.39-11.95 20.77-23.9 35.42-40.75m-30.44 41.11c10.32-11.87 20.63-23.73 36.09-41.51m-36.09 41.51c11.25-12.93 22.49-25.87 36.09-41.51m-30.44 41.12c9.76-11.24 19.53-22.48 35.43-40.76m-35.43 40.76c10.51-12.1 21.02-24.19 35.43-40.76m-30.45 41.12 36.09-41.51m-36.09 41.51c9.42-10.84 18.85-21.68 36.09-41.51m-30.44 41.11c10.17-11.7 20.35-23.41 35.43-40.75m-35.43 40.75c8.61-9.91 17.22-19.82 35.43-40.75m-30.45 41.11c8.48-9.75 16.95-19.5 36.09-41.51m-36.09 41.51c10.66-12.25 21.31-24.5 36.09-41.51m-30.44 41.12c9.11-10.48 18.21-20.96 35.43-40.76m-35.43 40.76c9.58-11.03 19.17-22.06 35.43-40.76m-30.44 41.12c10.08-11.61 20.17-23.21 36.08-41.51m-36.08 41.51c7.62-8.78 15.25-17.56 36.08-41.51m-30.44 41.11c14.01-16.12 28.03-32.24 35.43-40.75m-35.43 40.75c11.9-13.69 23.81-27.39 35.43-40.75m-30.44 41.11c10.04-11.56 20.09-23.12 36.08-41.51m-36.08 41.51c8.16-9.39 16.32-18.78 36.08-41.51M144 230.96c13.97-16.07 27.93-32.14 35.43-40.76M144 230.96c7.62-8.77 15.24-17.53 35.43-40.76m-30.44 41.12c7.71-8.88 15.43-17.75 36.08-41.51m-36.08 41.51c13.51-15.55 27.02-31.09 36.08-41.51m-30.44 41.11c8-9.2 16-18.4 35.43-40.75m-35.43 40.75c10.71-12.32 21.42-24.64 35.43-40.75m-30.44 41.11c12.58-14.48 25.17-28.96 36.08-41.51m-36.08 41.51c11.18-12.87 22.37-25.74 36.08-41.51m-30.44 41.12c12.19-14.03 24.39-28.06 35.43-40.76m-35.43 40.76c7.46-8.59 14.93-17.18 35.43-40.76m-30.44 41.12c8.23-9.48 16.47-18.95 36.08-41.51m-36.08 41.51c11.02-12.69 22.05-25.38 36.08-41.51m-30.44 41.11c10.09-11.61 20.18-23.21 35.43-40.75m-35.43 40.75c13.19-15.17 26.39-30.35 35.43-40.75m-30.44 41.11c10.02-11.53 20.05-23.07 36.08-41.51m-36.08 41.51 36.08-41.51m-30.44 41.12c9.36-10.76 18.71-21.53 35.43-40.76m-35.43 40.76c8.43-9.7 16.86-19.4 35.43-40.76m-30.44 41.12c7.39-8.51 14.79-17.02 36.08-41.51m-36.08 41.51c9.39-10.81 18.79-21.62 36.08-41.51m-30.44 41.11 35.43-40.75m-35.43 40.75c9.81-11.28 19.62-22.57 35.43-40.75m-30.44 41.11c14.35-16.51 28.7-33.02 36.08-41.5m-36.08 41.5c9.32-10.73 18.65-21.46 36.08-41.5m-31.1 41.86c7.61-8.75 15.22-17.5 36.09-41.5m-36.09 41.5c13.62-15.66 27.23-31.32 36.09-41.5m-30.44 41.11c11.54-13.28 23.09-26.57 35.42-40.75m-35.42 40.75c13.96-16.07 27.93-32.13 35.42-40.75m-30.44 41.11c7.85-9.03 15.71-18.06 36.09-41.51m-36.09 41.51c8.89-10.22 17.77-20.44 36.09-41.51m-30.44 41.12c12.06-13.88 24.11-27.75 35.42-40.76m-35.42 40.76c8.28-9.54 16.57-19.07 35.42-40.76m-30.44 41.12c12.33-14.18 24.65-28.36 36.09-41.51m-36.09 41.51c7.55-8.69 15.1-17.37 36.09-41.51m-30.44 41.11c9.68-11.13 19.36-22.27 35.42-40.75m-35.42 40.75c12.84-14.78 25.69-29.56 35.42-40.75m-30.44 41.11c7.01-8.06 14.01-16.12 34.12-39.24m-34.12 39.24c7.2-8.27 14.39-16.55 34.12-39.24m-28.47 38.85c6.71-7.72 13.41-15.44 28.21-32.46m-28.21 32.46c10.83-12.47 21.67-24.94 28.21-32.46m-23.23 32.82c7.19-8.27 14.38-16.55 22.97-26.42m-22.97 26.42c4.92-5.66 9.84-11.32 22.97-26.42m-17.32 26.02c4.05-4.66 8.1-9.32 17.71-20.37m-17.71 20.37c5.68-6.54 11.37-13.08 17.71-20.37m-12.73 20.73c3.12-3.58 6.24-7.17 12.47-14.34m-12.47 14.34c2.51-2.88 5.02-5.77 12.47-14.34m-6.82 13.95c2.32-2.68 4.65-5.35 7.21-8.3m-7.21 8.3c1.54-1.78 3.09-3.57 7.21-8.3" stroke="#e7e9ee" stroke-width=".5"/><path d="M10 190h260m-260 0h260m0 0v40m0-40v40m0 0H10m260 0H10m0 0v-40m0 40v-40" stroke="#566381"/></g><text x="90.231" font-family="Helvetica, Segoe UI Emoji" font-size="20" fill="#566381" text-anchor="middle" style="white-space:pre" dominant-baseline="text-before-edge" transform="translate(49.769 198.5)">CartService::getCart</text><g stroke-linecap="round" fill="none"><path d="M10 250s0 0 0 0m0 0s0 0 0 0m-.26 6.4c1.07-1.24 2.15-2.47 5.25-6.04m-5.25 6.04c1.83-2.11 3.66-4.22 5.25-6.04m-4.86 11.68c3.86-4.44 7.72-8.87 10.5-12.07m-10.5 12.07c3.92-4.5 7.83-9 10.5-12.07M9.87 268.44c4.4-5.07 8.81-10.13 15.75-18.11M9.87 268.44c5.48-6.3 10.95-12.6 15.75-18.11m-15.35 23.75c4.68-5.39 9.36-10.77 20.99-24.15m-20.99 24.15c5.03-5.79 10.07-11.59 20.99-24.15M10 280.48l26.25-30.19M10 280.48c5.79-6.65 11.57-13.3 26.25-30.19M9.74 286.88c8.83-10.16 17.66-20.32 32.15-36.98M9.74 286.88c8.93-10.27 17.85-20.53 32.15-36.98m-30.44 41.11c8.95-10.29 17.89-20.58 35.43-40.75m-35.43 40.75c8.15-9.38 16.31-18.76 35.43-40.75m-30.44 41.11c13.57-15.61 27.14-31.22 36.08-41.51m-36.08 41.51c12.25-14.09 24.5-28.19 36.08-41.51m-30.44 41.12c12.69-14.6 25.37-29.19 35.43-40.76m-35.43 40.76c11.4-13.12 22.81-26.24 35.43-40.76m-30.44 41.12c14.43-16.61 28.86-33.21 36.08-41.51m-36.08 41.51c13.03-15 26.06-29.99 36.08-41.51m-30.44 41.11c13.44-15.46 26.88-30.92 35.43-40.75m-35.43 40.75 35.43-40.75M37.7 291.3l36.08-41.51M37.7 291.3c12.95-14.9 25.9-29.8 36.08-41.51m-30.44 41.12c13-14.96 26-29.92 35.43-40.76m-35.43 40.76 35.43-40.76m-30.44 41.12c14.39-16.56 28.78-33.12 36.08-41.51m-36.08 41.51c8.32-9.58 16.65-19.16 36.08-41.51m-30.44 41.11c13.83-15.91 27.67-31.82 35.43-40.75m-35.43 40.75c12.52-14.4 25.03-28.79 35.43-40.75m-30.44 41.11c7.68-8.83 15.35-17.66 36.08-41.51m-36.08 41.51 36.08-41.51M64.6 290.84c11.97-13.78 23.95-27.55 35.43-40.76M64.6 290.84c8.64-9.94 17.27-19.87 35.43-40.76M69.59 291.2c8.18-9.42 16.37-18.84 36.08-41.51M69.59 291.2c14.18-16.32 28.37-32.64 36.08-41.51M75.23 290.8c11.21-12.89 22.42-25.79 35.43-40.75M75.23 290.8c12.68-14.59 25.37-29.18 35.43-40.75m-30.44 41.11c7.48-8.6 14.96-17.21 36.08-41.5m-36.08 41.5c10.3-11.85 20.61-23.71 36.08-41.5m-31.1 41.86c9.08-10.44 18.16-20.88 36.09-41.5m-36.09 41.5c11.85-13.62 23.69-27.24 36.09-41.5m-30.44 41.11c12.02-13.83 24.04-27.66 35.42-40.75m-35.42 40.75c9.05-10.41 18.1-20.83 35.42-40.75m-30.44 41.11c10.2-11.72 20.39-23.45 35.43-40.75m-35.43 40.75c9.48-10.91 18.96-21.81 35.43-40.75m-29.78 40.36c6.69-7.7 13.38-15.4 29.52-33.97m-29.52 33.97c6.1-7.03 12.21-14.05 29.52-33.97m-24.54 34.33c9.68-11.13 19.35-22.26 24.94-28.68m-24.94 28.68c9.25-10.64 18.5-21.28 24.94-28.68m-19.29 28.28c5.55-6.39 11.11-12.78 19.02-21.89m-19.02 21.89c6.18-7.11 12.36-14.22 19.02-21.89m-14.04 22.25c4.62-5.3 9.23-10.61 13.78-15.85m-13.78 15.85c4.33-4.98 8.66-9.95 13.78-15.85m-8.13 15.46c3.21-3.7 6.42-7.39 8.53-9.82m-8.53 9.82c2.35-2.71 4.71-5.42 8.53-9.82m-3.54 10.18c1.07-1.24 2.15-2.48 3.28-3.78m-3.28 3.78c.83-.96 1.66-1.92 3.28-3.78M9.82 289.84s0 0 0 0m0 0s0 0 0 0m6.39.26c-2.34-2.03-4.68-4.07-6.03-5.25m6.03 5.25c-1.38-1.2-2.76-2.4-6.03-5.25m11.68 4.86c-3.16-2.75-6.32-5.49-12.08-10.5m12.08 10.5c-4.23-3.68-8.46-7.36-12.08-10.5m18.48 10.76c-6.38-5.54-12.76-11.09-18.12-15.75m18.12 15.75c-6.51-5.66-13.02-11.32-18.12-15.75m24.51 16.01c-5.95-5.17-11.9-10.34-24.9-21.65m24.9 21.65-24.9-21.65m30.55 21.26c-8.39-7.29-16.77-14.58-30.19-26.25m30.19 26.25c-7.41-6.44-14.82-12.88-30.19-26.25m36.58 26.51c-14.35-12.48-28.7-24.95-36.98-32.15m36.98 32.15c-14.29-12.43-28.58-24.85-36.98-32.15m42.63 31.75c-10.17-8.83-20.33-17.67-42.27-36.74m42.27 36.74c-15.61-13.57-31.22-27.13-42.27-36.74m48.67 37c-11.62-10.09-23.23-20.19-47.55-41.33m47.55 41.33a81297.39 81297.39 0 0 1-47.55-41.33m53.94 41.6c-15.91-13.84-31.83-27.68-47.54-41.34m47.54 41.34c-14-12.18-28-24.35-47.54-41.34m53.19 40.94C53.6 274.9 36.43 259.97 23.23 248.5m47.55 41.33c-11.5-9.99-23-19.99-47.55-41.33m53.94 41.59-47.54-41.33m47.54 41.33-47.54-41.33m53.19 40.94c-14.81-12.88-29.62-25.75-47.55-41.33m47.55 41.33c-14.86-12.91-29.71-25.83-47.55-41.33m53.94 41.59c-18.51-16.1-37.03-32.19-47.54-41.33m47.54 41.33c-9.91-8.62-19.83-17.24-47.54-41.33m53.94 41.59c-13.62-11.84-27.24-23.68-47.54-41.33m47.54 41.33c-12.99-11.29-25.98-22.59-47.54-41.33m53.19 40.94c-11.06-9.61-22.11-19.22-47.55-41.34m47.55 41.34c-15.72-13.66-31.43-27.32-47.55-41.34m53.94 41.6c-14.08-12.24-28.15-24.48-47.54-41.33m47.54 41.33-47.54-41.33m53.19 40.93c-17.7-15.38-35.4-30.77-47.55-41.33m47.55 41.33c-15.2-13.21-30.4-26.42-47.55-41.33m53.94 41.59c-17.55-15.26-35.11-30.52-47.54-41.33m47.54 41.33c-16.06-13.96-32.12-27.92-47.54-41.33m53.94 41.6c-18.87-16.41-37.74-32.82-47.54-41.34m47.54 41.34c-16.44-14.3-32.89-28.59-47.54-41.34m52.43 40.29-46.79-40.68m46.79 40.68c-13.14-11.43-26.28-22.85-46.79-40.68m46.4 35.03c-12.55-10.9-25.09-21.8-40-34.77m40 34.77c-10.4-9.03-20.79-18.07-40-34.77m40.36 29.79c-10.95-9.52-21.89-19.03-34.72-30.18m34.72 30.18c-13.63-11.85-27.26-23.7-34.72-30.18m34.32 24.53-27.92-24.27m27.92 24.27c-10.99-9.56-21.99-19.11-27.92-24.27m28.28 19.29c-7.42-6.46-14.85-12.91-21.89-19.03m21.89 19.03c-8.66-7.53-17.32-15.06-21.89-19.03m21.5 13.38c-5.45-4.74-10.9-9.47-15.85-13.77m15.85 13.77c-5.72-4.97-11.45-9.95-15.85-13.77m16.21 8.79c-3.24-2.82-6.47-5.63-9.81-8.53m9.81 8.53c-2.89-2.52-5.78-5.03-9.81-8.53m9.41 2.88c-1.38-1.2-2.75-2.39-3.77-3.28m3.77 3.28c-.96-.84-1.93-1.68-3.77-3.28" stroke="#fff3cc" stroke-width=".5"/><path d="M10 250h120m-120 0h120m0 0v40m0-40v40m0 0H10m120 0H10m0 0v-40m0 40v-40" stroke="#f5a800"/></g><text x="50.373" font-family="Helvetica, Segoe UI Emoji" font-size="20" fill="#f5a800" text-anchor="middle" style="white-space:pre" dominant-baseline="text-before-edge" transform="translate(19.627 258.5)">Cache::find</text><g stroke-linecap="round" fill="none"><path d="M150 250s0 0 0 0m0 0s0 0 0 0m-.26 6.4c1.51-1.74 3.02-3.48 5.25-6.04m-5.25 6.04c2.04-2.35 4.07-4.69 5.25-6.04m-4.86 11.68c3.74-4.3 7.48-8.6 10.5-12.07m-10.5 12.07 10.5-12.07m-10.76 18.47c6.02-6.92 12.03-13.84 15.75-18.11m-15.75 18.11 15.75-18.11m-15.35 23.75c8.24-9.49 16.49-18.98 20.99-24.15m-20.99 24.15c4.48-5.15 8.96-10.31 20.99-24.15M150 280.48c5.7-6.55 11.39-13.1 26.25-30.19M150 280.48c6.61-7.6 13.22-15.2 26.25-30.19m-26.51 36.59 32.15-36.98m-32.15 36.98c7.44-8.56 14.88-17.11 32.15-36.98m-30.44 41.11c12.37-14.23 24.73-28.45 35.43-40.75m-35.43 40.75c8.87-10.2 17.74-20.41 35.43-40.75m-30.44 41.11c7.48-8.61 14.97-17.22 36.08-41.51m-36.08 41.51c14.43-16.6 28.86-33.2 36.08-41.51m-30.44 41.12c12.55-14.44 25.1-28.88 35.43-40.76m-35.43 40.76c13.32-15.33 26.64-30.65 35.43-40.76m-30.44 41.12c8.53-9.82 17.07-19.64 36.08-41.51m-36.08 41.51c10.54-12.13 21.08-24.25 36.08-41.51m-30.44 41.11c8.04-9.25 16.08-18.5 35.43-40.75m-35.43 40.75c10.34-11.9 20.69-23.79 35.43-40.75M177.7 291.3c7.66-8.81 15.32-17.63 36.08-41.51M177.7 291.3c13.05-15.01 26.1-30.03 36.08-41.51m-30.44 41.12c13.47-15.5 26.95-31 35.43-40.76m-35.43 40.76c12.15-13.98 24.3-27.95 35.43-40.76m-30.44 41.12c7.48-8.61 14.97-17.22 36.08-41.51m-36.08 41.51c12.42-14.29 24.84-28.58 36.08-41.51m-30.44 41.11 35.43-40.75m-35.43 40.75c12.57-14.45 25.13-28.91 35.43-40.75m-30.44 41.11c11.3-12.99 22.59-25.99 36.08-41.51m-36.08 41.51c9.23-10.62 18.47-21.24 36.08-41.51m-30.44 41.12c9.76-11.23 19.52-22.45 35.43-40.76m-35.43 40.76 35.43-40.76m-30.44 41.12 36.08-41.51m-36.08 41.51c14.24-16.39 28.48-32.77 36.08-41.51m-30.44 41.11c11.95-13.75 23.91-27.5 35.43-40.75m-35.43 40.75c13.13-15.11 26.27-30.21 35.43-40.75m-30.44 41.11c11.37-13.08 22.75-26.17 36.08-41.5m-36.08 41.5 36.08-41.5m-31.1 41.86c11.56-13.29 23.11-26.58 36.09-41.5m-36.09 41.5c8.41-9.67 16.82-19.33 36.09-41.5m-30.44 41.11c10.2-11.74 20.41-23.48 35.42-40.75m-35.42 40.75c12.42-14.29 24.84-28.58 35.42-40.75m-30.44 41.11 35.43-40.75m-35.43 40.75c13.19-15.16 26.37-30.32 35.43-40.75m-29.78 40.36c9.57-11.01 19.14-22.02 29.52-33.97m-29.52 33.97c10.91-12.55 21.81-25.1 29.52-33.97m-24.54 34.33c7.36-8.46 14.71-16.92 24.94-28.68m-24.94 28.68c5.49-6.32 10.98-12.63 24.94-28.68m-19.29 28.28c3.97-4.57 7.94-9.13 19.02-21.89m-19.02 21.89c4.16-4.79 8.33-9.58 19.02-21.89m-14.04 22.25c4.92-5.66 9.84-11.32 13.78-15.85m-13.78 15.85c4.01-4.61 8.01-9.21 13.78-15.85m-8.13 15.46c2.94-3.39 5.89-6.78 8.53-9.82m-8.53 9.82c1.73-1.99 3.46-3.99 8.53-9.82m-3.54 10.18c.91-1.06 1.83-2.12 3.28-3.78m-3.28 3.78c1.24-1.43 2.48-2.86 3.28-3.78m-121.19 2.23s0 0 0 0m0 0s0 0 0 0m6.39.26c-1.48-1.29-2.97-2.58-6.03-5.25m6.03 5.25c-2.16-1.88-4.33-3.76-6.03-5.25m11.68 4.86c-3.44-2.99-6.87-5.97-12.08-10.5m12.08 10.5c-4.79-4.17-9.59-8.33-12.08-10.5m18.48 10.76c-4.65-4.04-9.3-8.08-18.12-15.75m18.12 15.75c-7.05-6.13-14.1-12.25-18.12-15.75m24.51 16.01c-9.66-8.4-19.32-16.8-24.9-21.65m24.9 21.65c-5.5-4.78-11-9.57-24.9-21.65m30.55 21.26c-9.96-8.65-19.91-17.31-30.19-26.25m30.19 26.25c-9.3-8.09-18.6-16.17-30.19-26.25m36.58 26.51c-12.81-11.14-25.62-22.28-36.98-32.15m36.98 32.15c-7.7-6.7-15.4-13.39-36.98-32.15m42.63 31.75a108209.1 108209.1 0 0 1-42.27-36.74m42.27 36.74c-9.93-8.63-19.86-17.26-42.27-36.74m48.67 37c-12.25-10.64-24.49-21.28-47.55-41.33m47.55 41.33c-12.78-11.11-25.56-22.21-47.55-41.33m53.94 41.6-47.54-41.34m47.54 41.34c-17.62-15.33-35.25-30.65-47.54-41.34m53.19 40.94c-11.29-9.81-22.57-19.61-47.55-41.33m47.55 41.33c-18.75-16.29-37.49-32.58-47.55-41.33m53.94 41.59c-9.69-8.42-19.38-16.85-47.54-41.33m47.54 41.33-47.54-41.33m53.19 40.94c-10.51-9.13-21.01-18.27-47.55-41.33m47.55 41.33-47.55-41.33m53.94 41.59c-14.21-12.36-28.43-24.72-47.54-41.33m47.54 41.33c-13.26-11.53-26.52-23.06-47.54-41.33m53.94 41.59-47.54-41.33m47.54 41.33c-10.06-8.75-20.13-17.5-47.54-41.33m53.19 40.94c-11.22-9.75-22.43-19.5-47.55-41.34m47.55 41.34-47.55-41.34m53.94 41.6c-11.11-9.67-22.23-19.33-47.54-41.33m47.54 41.33c-13.93-12.12-27.87-24.23-47.54-41.33m53.19 40.93c-16.46-14.31-32.93-28.62-47.55-41.33m47.55 41.33c-12.58-10.93-25.17-21.87-47.55-41.33m53.94 41.59c-10.78-9.37-21.57-18.75-47.54-41.33m47.54 41.33c-10.35-9-20.71-18-47.54-41.33m53.94 41.6c-18.1-15.74-36.21-31.48-47.54-41.34m47.54 41.34c-14.36-12.48-28.71-24.97-47.54-41.34m52.43 40.29c-16.45-14.3-32.9-28.6-46.79-40.68m46.79 40.68c-17.95-15.61-35.91-31.22-46.79-40.68m46.4 35.03c-12.36-10.74-24.72-21.48-40-34.77m40 34.77c-10.4-9.03-20.79-18.06-40-34.77m40.36 29.79c-8.22-7.14-16.43-14.28-34.72-30.18m34.72 30.18c-9.36-8.14-18.72-16.28-34.72-30.18m34.32 24.53c-8.91-7.74-17.81-15.48-27.92-24.27m27.92 24.27c-8.59-7.47-17.18-14.93-27.92-24.27m28.28 19.29c-7.21-6.27-14.42-12.54-21.89-19.03m21.89 19.03c-5.16-4.49-10.33-8.98-21.89-19.03m21.5 13.38c-3.45-3-6.91-6-15.85-13.77m15.85 13.77c-4.7-4.08-9.4-8.17-15.85-13.77m16.21 8.79-9.81-8.53m9.81 8.53c-3.18-2.77-6.36-5.53-9.81-8.53m9.41 2.88c-.87-.76-1.74-1.51-3.77-3.28m3.77 3.28c-1.35-1.17-2.7-2.35-3.77-3.28" stroke="#fff3cc" stroke-width=".5"/><path d="M150 250h120m-120 0h120m0 0v40m0-40v40m0 0H150m120 0H150m0 0v-40m0 40v-40" stroke="#f5a800"/></g><text x="50.373" font-family="Helvetica, Segoe UI Emoji" font-size="20" fill="#f5a800" text-anchor="middle" style="white-space:pre" dominant-baseline="text-before-edge" transform="translate(159.627 258.5)">Cache::find</text><g stroke-linecap="round" fill="none"><path d="M290 190s0 0 0 0m0 0s0 0 0 0m-.26 6.4c2.09-2.4 4.17-4.8 5.25-6.04m-5.25 6.04c1.23-1.41 2.45-2.82 5.25-6.04m-4.86 11.68c3.32-3.81 6.63-7.62 10.5-12.07m-10.5 12.07c2.28-2.61 4.55-5.23 10.5-12.07m-10.76 18.47c3.92-4.51 7.83-9.01 15.75-18.11m-15.75 18.11c4.97-5.72 9.94-11.43 15.75-18.11m-15.35 23.75c5.87-6.76 11.75-13.52 20.99-24.15m-20.99 24.15 20.99-24.15M290 220.48c7.72-8.88 15.44-17.75 26.25-30.19M290 220.48c9.84-11.32 19.68-22.64 26.25-30.19m-26.51 36.59 32.15-36.98m-32.15 36.98c9.38-10.79 18.76-21.58 32.15-36.98m-30.44 41.11c12.07-13.88 24.14-27.77 35.43-40.75m-35.43 40.75c9.31-10.71 18.62-21.42 35.43-40.75m-30.44 41.11 36.08-41.51m-36.08 41.51 36.08-41.51m-30.44 41.12c7.59-8.74 15.18-17.47 35.43-40.76m-35.43 40.76c11.03-12.69 22.05-25.37 35.43-40.76m-30.44 41.12c13.67-15.74 27.35-31.47 36.08-41.51m-36.08 41.51c10.31-11.86 20.62-23.72 36.08-41.51m-30.44 41.11c12.73-14.64 25.45-29.28 35.43-40.75m-35.43 40.75c11.82-13.59 23.64-27.19 35.43-40.75M317.7 231.3c10.74-12.36 21.49-24.72 36.08-41.51M317.7 231.3c10.28-11.82 20.56-23.65 36.08-41.51m-30.44 41.12c8.46-9.73 16.92-19.46 35.43-40.76m-35.43 40.76c7.96-9.16 15.91-18.31 35.43-40.76m-30.44 41.12c11.36-13.07 22.71-26.13 36.08-41.51m-36.08 41.51c11.02-12.68 22.04-25.36 36.08-41.51m-30.44 41.11c11.86-13.64 23.72-27.28 35.43-40.75m-35.43 40.75c12.76-14.67 25.51-29.34 35.43-40.75m-30.44 41.11c13.39-15.41 26.79-30.82 36.08-41.51m-36.08 41.51c11.32-13.02 22.64-26.05 36.08-41.51m-30.44 41.12c12.33-14.18 24.66-28.36 35.43-40.76m-35.43 40.76c14.07-16.18 28.13-32.37 35.43-40.76m-30.44 41.12c8.2-9.44 16.4-18.87 36.08-41.51m-36.08 41.51c12.91-14.85 25.82-29.71 36.08-41.51m-30.44 41.11c14.09-16.21 28.19-32.42 35.43-40.75m-35.43 40.75c9.71-11.17 19.42-22.34 35.43-40.75m-30.44 41.11c9.44-10.86 18.88-21.72 36.08-41.5m-36.08 41.5c13.22-15.21 26.44-30.42 36.08-41.5m-31.1 41.86c8.03-9.23 16.05-18.46 36.09-41.5m-36.09 41.5c7.61-8.74 15.21-17.49 36.09-41.5m-30.44 41.11c9.63-11.09 19.27-22.17 35.42-40.75m-35.42 40.75c12.4-14.26 24.8-28.53 35.42-40.75m-30.44 41.11c13.67-15.72 27.34-31.44 36.09-41.51m-36.09 41.51c11.11-12.78 22.22-25.55 36.09-41.51m-30.44 41.12c9.72-11.19 19.45-22.38 35.43-40.76m-35.43 40.76c14.17-16.3 28.33-32.6 35.43-40.76m-30.45 41.12c8.75-10.07 17.5-20.14 36.09-41.51m-36.09 41.51c12.54-14.43 25.08-28.85 36.09-41.51m-30.44 41.11c10.78-12.4 21.56-24.81 35.43-40.75m-35.43 40.75c10.24-11.78 20.48-23.56 35.43-40.75m-30.45 41.11c7.51-8.64 15.02-17.27 36.09-41.51m-36.09 41.51c14.19-16.32 28.38-32.64 36.09-41.51m-30.44 41.12c7.63-8.78 15.25-17.55 35.43-40.76m-35.43 40.76c9.61-11.06 19.22-22.11 35.43-40.76m-30.44 41.12c10.41-11.99 20.83-23.97 36.08-41.51m-36.08 41.51c14.05-16.17 28.1-32.34 36.08-41.51m-30.44 41.11c9.91-11.4 19.83-22.81 35.43-40.75m-35.43 40.75 35.43-40.75m-30.44 41.11c11.41-13.13 22.82-26.26 36.08-41.51m-36.08 41.51c13.07-15.04 26.14-30.07 36.08-41.51M424 230.96c13.79-15.87 27.59-31.74 35.43-40.76M424 230.96c11.95-13.75 23.9-27.5 35.43-40.76m-30.44 41.12c12.32-14.18 24.65-28.36 36.08-41.51m-36.08 41.51c7.89-9.08 15.78-18.16 36.08-41.51m-30.44 41.11c9-10.35 17.99-20.7 35.43-40.75m-35.43 40.75c11.89-13.67 23.77-27.35 35.43-40.75m-30.44 41.11 36.08-41.51m-36.08 41.51c12.52-14.41 25.05-28.82 36.08-41.51m-30.44 41.12c7.17-8.25 14.34-16.5 35.43-40.76m-35.43 40.76c9.05-10.41 18.09-20.82 35.43-40.76m-30.44 41.12c10.15-11.69 20.31-23.37 36.08-41.51m-36.08 41.51c7.83-9.02 15.67-18.04 36.08-41.51m-30.44 41.11c13.54-15.57 27.08-31.15 35.43-40.75m-35.43 40.75 35.43-40.75m-30.44 41.11c14.12-16.24 28.23-32.48 36.08-41.51m-36.08 41.51c13.7-15.76 27.41-31.53 36.08-41.51m-30.44 41.12c12.74-14.66 25.48-29.31 35.43-40.76m-35.43 40.76c13.54-15.58 27.09-31.17 35.43-40.76m-30.44 41.12c10.42-12 20.85-23.99 36.08-41.51m-36.08 41.51c9.63-11.09 19.27-22.17 36.08-41.51m-30.44 41.11c11.33-13.03 22.66-26.07 35.43-40.75m-35.43 40.75c12.53-14.41 25.06-28.83 35.43-40.75m-30.44 41.11c11.51-13.24 23.02-26.48 36.08-41.5m-36.08 41.5c14.15-16.28 28.31-32.56 36.08-41.5m-31.1 41.86c9.63-11.06 19.25-22.13 36.09-41.5m-36.09 41.5c13.54-15.57 27.08-31.15 36.09-41.5m-30.44 41.11c8.66-9.96 17.32-19.93 35.42-40.75m-35.42 40.75c12.4-14.27 24.81-28.54 35.42-40.75m-30.44 41.11c8.03-9.24 16.07-18.48 36.09-41.51m-36.09 41.51c8.38-9.64 16.76-19.28 36.09-41.51m-30.44 41.12c8.76-10.09 17.53-20.17 35.42-40.76m-35.42 40.76c7.67-8.83 15.34-17.66 35.42-40.76m-30.44 41.12c8.26-9.51 16.53-19.01 36.09-41.51m-36.09 41.51 36.09-41.51m-30.44 41.11c11.63-13.38 23.27-26.77 35.42-40.75m-35.42 40.75c12.35-14.21 24.7-28.42 35.42-40.75m-30.44 41.11c12.48-14.35 24.96-28.71 36.09-41.51m-36.09 41.51c14.43-16.59 28.85-33.18 36.09-41.51m-30.44 41.12c10.87-12.52 21.75-25.03 35.42-40.76m-35.42 40.76c13.63-15.69 27.26-31.37 35.42-40.76m-30.44 41.12c9.09-10.46 18.19-20.92 36.09-41.51m-36.09 41.51c10.36-11.92 20.72-23.83 36.09-41.51m-30.44 41.11 35.42-40.75m-35.42 40.75c8.66-9.97 17.33-19.93 35.42-40.75m-30.44 41.11c8.84-10.17 17.68-20.33 36.09-41.51m-36.09 41.51c13.11-15.08 26.22-30.15 36.09-41.51m-30.44 41.12c11.63-13.39 23.26-26.77 35.42-40.76m-35.42 40.76c11.65-13.41 23.3-26.81 35.42-40.76M550.9 231.3c8.7-10.01 17.4-20.02 36.09-41.51M550.9 231.3c7.94-9.13 15.88-18.26 36.09-41.51m-30.44 41.11c10.76-12.38 21.52-24.75 35.42-40.75m-35.42 40.75c11.33-13.03 22.66-26.07 35.42-40.75m-30.44 41.11c13.55-15.58 27.1-31.17 36.09-41.51m-36.09 41.51c11.91-13.69 23.81-27.38 36.09-41.51m-30.44 41.12c8.57-9.86 17.13-19.72 35.42-40.76m-35.42 40.76c13.49-15.53 26.99-31.05 35.42-40.76m-30.44 41.12c7.29-8.38 14.58-16.77 36.09-41.51m-36.09 41.51c8.91-10.25 17.83-20.5 36.09-41.51m-30.44 41.11c9.07-10.43 18.13-20.86 35.42-40.75m-35.42 40.75c12.63-14.53 25.27-29.07 35.42-40.75m-30.44 41.11c10.57-12.16 21.15-24.32 36.09-41.5m-36.09 41.5c7.46-8.57 14.91-17.14 36.09-41.5m-30.44 41.11c9.85-11.33 19.69-22.66 35.42-40.75m-35.42 40.75c13.21-15.2 26.42-30.4 35.42-40.75m-30.44 41.11 36.09-41.51m-36.09 41.51c11.73-13.49 23.46-26.99 36.09-41.51m-31.1 41.87c9.33-10.73 18.66-21.47 36.08-41.51m-36.08 41.51c8.55-9.84 17.1-19.67 36.08-41.51m-30.44 41.12c8.96-10.31 17.91-20.61 35.43-40.76m-35.43 40.76c7.1-8.17 14.2-16.33 35.43-40.76m-30.44 41.12c13.25-15.25 26.5-30.49 36.08-41.51m-36.08 41.51c8.55-9.84 17.1-19.68 36.08-41.51m-30.44 41.11c12.77-14.69 25.54-29.38 35.43-40.75m-35.43 40.75c11.03-12.69 22.06-25.37 35.43-40.75m-30.44 41.11c14.15-16.27 28.29-32.54 36.08-41.51m-36.08 41.51c12.37-14.23 24.73-28.45 36.08-41.51m-30.44 41.12c7.46-8.58 14.91-17.15 35.43-40.76m-35.43 40.76c7.74-8.9 15.47-17.79 35.43-40.76m-30.44 41.12c12.27-14.12 24.54-28.23 36.08-41.51m-36.08 41.51c7.4-8.51 14.8-17.03 36.08-41.51m-30.44 41.11c9.36-10.76 18.71-21.52 34.78-40m-34.78 40c12.62-14.51 25.23-29.02 34.78-40m-29.79 40.36c7.15-8.22 14.29-16.44 30.18-34.71m-30.18 34.71c10.75-12.36 21.49-24.72 30.18-34.71m-24.54 34.32c5.38-6.18 10.75-12.36 24.28-27.93m-24.28 27.93c6.5-7.47 12.99-14.94 24.28-27.93m-19.29 28.29c6.22-7.15 12.44-14.31 19.03-21.89m-19.03 21.89c3.98-4.58 7.96-9.16 19.03-21.89m-13.39 21.49c5.12-5.88 10.23-11.76 13.78-15.85m-13.78 15.85c4.64-5.33 9.27-10.66 13.78-15.85m-8.79 16.21 8.53-9.81m-8.53 9.81c2.21-2.54 4.42-5.08 8.53-9.81m-2.89 9.42c.79-.91 1.59-1.82 3.28-3.78m-3.28 3.78c.84-.96 1.68-1.92 3.28-3.78" stroke="#f6f7f9" stroke-width=".5"/><path d="M290 190h380m-380 0h380m0 0v40m0-40v40m0 0H290m380 0H290m0 0v-40m0 40v-40" stroke="#d6d9e1"/></g><text x="121.231" font-family="Helvetica, Segoe UI Emoji" font-size="20" fill="#d6d9e1" text-anchor="middle" style="white-space:pre" dominant-baseline="text-before-edge" transform="translate(358.769 198.5)">ProductService::getProduct</text><g stroke-linecap="round" fill="none"><path d="M290 250s0 0 0 0m0 0s0 0 0 0m-.26 6.4c1.45-1.67 2.91-3.35 5.25-6.04m-5.25 6.04c1.28-1.48 2.57-2.96 5.25-6.04m-4.86 11.68c3.95-4.54 7.89-9.08 10.5-12.07m-10.5 12.07c2.75-3.15 5.49-6.31 10.5-12.07m-10.76 18.47 15.75-18.11m-15.75 18.11c4.96-5.71 9.92-11.41 15.75-18.11m-15.35 23.75c5.11-5.88 10.22-11.75 20.99-24.15m-20.99 24.15c7.98-9.18 15.97-18.37 20.99-24.15M290 280.48c9.63-11.08 19.26-22.15 26.25-30.19M290 280.48c8.74-10.05 17.47-20.09 26.25-30.19m-26.51 36.59c6.55-7.54 13.1-15.07 32.15-36.98m-32.15 36.98c10.8-12.43 21.61-24.85 32.15-36.98m-30.44 41.11c13.29-15.29 26.58-30.58 35.43-40.75m-35.43 40.75c8.16-9.38 16.32-18.77 35.43-40.75m-30.44 41.11c13.81-15.89 27.62-31.77 36.08-41.51m-36.08 41.51c11.52-13.26 23.05-26.51 36.08-41.51m-30.44 41.12c7.81-8.99 15.63-17.98 35.43-40.76m-35.43 40.76c12.69-14.61 25.39-29.21 35.43-40.76m-30.44 41.12c13.98-16.09 27.97-32.18 36.08-41.51m-36.08 41.51 36.08-41.51m-30.44 41.11 35.43-40.75m-35.43 40.75c10.14-11.66 20.28-23.33 35.43-40.75M317.7 291.3c11.06-12.73 22.13-25.45 36.08-41.51M317.7 291.3c8.24-9.48 16.49-18.97 36.08-41.51m-30.44 41.12c10.44-12.02 20.89-24.03 35.43-40.76m-35.43 40.76c7.16-8.24 14.33-16.48 35.43-40.76m-30.44 41.12c11.17-12.85 22.33-25.7 36.08-41.51m-36.08 41.51c8.32-9.57 16.64-19.14 36.08-41.51m-30.44 41.11c12.86-14.79 25.71-29.58 35.43-40.75m-35.43 40.75c11.1-12.76 22.19-25.52 35.43-40.75m-30.44 41.11c8.91-10.25 17.83-20.51 36.08-41.51m-36.08 41.51c7.69-8.84 15.38-17.69 36.08-41.51m-30.44 41.12c12.28-14.13 24.56-28.26 35.43-40.76m-35.43 40.76c8.68-9.98 17.35-19.96 35.43-40.76m-30.44 41.12c9.07-10.44 18.14-20.88 36.08-41.51m-36.08 41.51c9.43-10.85 18.85-21.69 36.08-41.51m-30.44 41.11c13.07-15.03 26.13-30.05 35.43-40.75m-35.43 40.75c8.56-9.85 17.12-19.69 35.43-40.75m-30.44 41.11c12.12-13.94 24.25-27.89 36.08-41.5m-36.08 41.5c10.06-11.57 20.12-23.14 36.08-41.5m-31.1 41.86c8.42-9.68 16.84-19.36 36.09-41.5m-36.09 41.5c13.24-15.22 26.48-30.45 36.09-41.5m-30.44 41.11c14.01-16.12 28.02-32.24 35.42-40.75m-35.42 40.75c13.75-15.83 27.51-31.65 35.42-40.75m-30.44 41.11c7.99-9.18 15.97-18.37 35.43-40.75m-35.43 40.75c10.71-12.32 21.42-24.63 35.43-40.75m-29.78 40.36c6.07-6.99 12.14-13.97 29.52-33.97m-29.52 33.97c9.77-11.25 19.54-22.49 29.52-33.97m-24.54 34.33c7.77-8.94 15.54-17.88 24.94-28.68m-24.94 28.68c8.69-10 17.38-19.99 24.94-28.68m-19.29 28.28c4.25-4.89 8.51-9.79 19.02-21.89m-19.02 21.89c5.08-5.84 10.16-11.69 19.02-21.89m-14.04 22.25c4.68-5.38 9.36-10.77 13.78-15.85m-13.78 15.85c3.11-3.57 6.21-7.14 13.78-15.85m-8.13 15.46 8.53-9.82m-8.53 9.82c3.2-3.68 6.4-7.37 8.53-9.82m-3.54 10.18c.78-.9 1.56-1.81 3.28-3.78m-3.28 3.78c.88-1.02 1.77-2.04 3.28-3.78m-121.19 2.23s0 0 0 0m0 0s0 0 0 0m6.39.26c-1.32-1.15-2.64-2.29-6.03-5.25m6.03 5.25c-1.45-1.26-2.91-2.53-6.03-5.25m11.68 4.86c-3.8-3.31-7.6-6.61-12.08-10.5m12.08 10.5-12.08-10.5m18.48 10.76-18.12-15.75m18.12 15.75c-5.67-4.93-11.34-9.86-18.12-15.75m24.51 16.01c-8.97-7.8-17.95-15.6-24.9-21.65m24.9 21.65c-5.02-4.36-10.03-8.72-24.9-21.65m30.55 21.26c-8.15-7.08-16.29-14.16-30.19-26.25m30.19 26.25c-8.47-7.36-16.93-14.72-30.19-26.25m36.58 26.51c-11.77-10.23-23.53-20.46-36.98-32.15m36.98 32.15c-13.35-11.61-26.71-23.22-36.98-32.15m42.63 31.75c-15.52-13.49-31.05-26.98-42.27-36.74m42.27 36.74c-15.08-13.1-30.15-26.2-42.27-36.74m48.67 37c-15.84-13.76-31.67-27.52-47.55-41.33m47.55 41.33c-12.76-11.08-25.51-22.17-47.55-41.33m53.94 41.6c-18.99-16.51-37.98-33.03-47.54-41.34m47.54 41.34c-17.76-15.45-35.52-30.89-47.54-41.34m53.19 40.94c-10.97-9.53-21.93-19.06-47.55-41.33m47.55 41.33c-10.18-8.84-20.35-17.69-47.55-41.33m53.94 41.59c-18.2-15.82-36.4-31.64-47.54-41.33m47.54 41.33c-18.16-15.78-36.32-31.57-47.54-41.33m53.19 40.94c-15.12-13.14-30.24-26.28-47.55-41.33m47.55 41.33c-14.67-12.75-29.34-25.51-47.55-41.33m53.94 41.59c-10.22-8.89-20.45-17.78-47.54-41.33m47.54 41.33-47.54-41.33m53.94 41.59c-18.24-15.85-36.47-31.71-47.54-41.33m47.54 41.33c-13.34-11.6-26.69-23.2-47.54-41.33m53.19 40.94-47.55-41.34m47.55 41.34c-12.81-11.14-25.62-22.27-47.55-41.34m53.94 41.6c-14.12-12.28-28.25-24.56-47.54-41.33m47.54 41.33c-13.21-11.49-26.43-22.98-47.54-41.33m53.19 40.93c-10.64-9.24-21.27-18.48-47.55-41.33m47.55 41.33c-16.34-14.19-32.67-28.39-47.55-41.33m53.94 41.59c-9.95-8.65-19.91-17.3-47.54-41.33m47.54 41.33c-12.67-11.02-25.35-22.04-47.54-41.33m53.94 41.6c-9.58-8.34-19.17-16.67-47.54-41.34m47.54 41.34c-18.98-16.51-37.97-33.01-47.54-41.34m52.43 40.29c-16.5-14.35-33-28.69-46.79-40.68m46.79 40.68c-10.85-9.44-21.7-18.87-46.79-40.68m46.4 35.03c-9.29-8.07-18.57-16.14-40-34.77m40 34.77c-15.25-13.25-30.49-26.5-40-34.77m40.36 29.79-34.72-30.18m34.72 30.18c-13.11-11.39-26.21-22.78-34.72-30.18m34.32 24.53-27.92-24.27m27.92 24.27c-7.04-6.12-14.09-12.24-27.92-24.27m28.28 19.29c-5.83-5.07-11.66-10.14-21.89-19.03m21.89 19.03c-7.13-6.2-14.26-12.4-21.89-19.03m21.5 13.38c-5.51-4.79-11.02-9.57-15.85-13.77m15.85 13.77c-6.26-5.43-12.51-10.87-15.85-13.77m16.21 8.79c-3.02-2.63-6.04-5.25-9.81-8.53m9.81 8.53c-3.13-2.72-6.25-5.44-9.81-8.53m9.41 2.88c-1.07-.93-2.14-1.86-3.77-3.28m3.77 3.28c-.79-.68-1.57-1.37-3.77-3.28" stroke="#fff3cc" stroke-width=".5"/><path d="M290 250h120m-120 0h120m0 0v40m0-40v40m0 0H290m120 0H290m0 0v-40m0 40v-40" stroke="#f5a800"/></g><text x="50.373" font-family="Helvetica, Segoe UI Emoji" font-size="20" fill="#f5a800" text-anchor="middle" style="white-space:pre" dominant-baseline="text-before-edge" transform="translate(299.627 258.5)">Cache::find</text><g stroke-linecap="round" fill="none"><path d="M430 250s0 0 0 0m0 0s0 0 0 0m-.26 6.4c1.87-2.15 3.74-4.31 5.25-6.04m-5.25 6.04c1.83-2.11 3.66-4.21 5.25-6.04m-4.86 11.68c2.36-2.72 4.73-5.43 10.5-12.07m-10.5 12.07c3.72-4.27 7.43-8.54 10.5-12.07m-10.76 18.47 15.75-18.11m-15.75 18.11c6.29-7.24 12.58-14.47 15.75-18.11m-15.35 23.75c4.8-5.52 9.59-11.04 20.99-24.15m-20.99 24.15c5.34-6.15 10.69-12.29 20.99-24.15M430 280.48c6.01-6.9 12.01-13.81 26.25-30.19M430 280.48c9.89-11.38 19.78-22.75 26.25-30.19m-26.51 36.59c12.07-13.89 24.14-27.77 32.15-36.98m-32.15 36.98 32.15-36.98m-30.44 41.11c13.34-15.34 26.67-30.68 35.43-40.75m-35.43 40.75 35.43-40.75m-30.44 41.11 36.08-41.51m-36.08 41.51c14.1-16.22 28.2-32.45 36.08-41.51m-30.44 41.12 35.43-40.76m-35.43 40.76c10.43-12.01 20.87-24.01 35.43-40.76m-30.44 41.12c8.88-10.22 17.76-20.43 36.08-41.51m-36.08 41.51c8.89-10.23 17.78-20.46 36.08-41.51m-30.44 41.11c13.48-15.51 26.97-31.02 35.43-40.75m-35.43 40.75c13.24-15.23 26.48-30.46 35.43-40.75M457.7 291.3c12.51-14.39 25.02-28.78 36.08-41.51M457.7 291.3c7.39-8.5 14.78-17 36.08-41.51m-30.44 41.12c14-16.1 27.99-32.21 35.43-40.76m-35.43 40.76c9.1-10.47 18.2-20.94 35.43-40.76m-30.44 41.12c12.41-14.28 24.83-28.56 36.08-41.51m-36.08 41.51c8.05-9.26 16.1-18.53 36.08-41.51m-30.44 41.11c13.89-15.97 27.77-31.94 35.43-40.75m-35.43 40.75c12.77-14.69 25.54-29.38 35.43-40.75m-30.44 41.11 36.08-41.51m-36.08 41.51c9.99-11.49 19.99-22.99 36.08-41.51m-30.44 41.12c12.52-14.4 25.03-28.8 35.43-40.76m-35.43 40.76c11.32-13.02 22.63-26.04 35.43-40.76m-30.44 41.12 36.08-41.51m-36.08 41.51c13.02-14.98 26.03-29.95 36.08-41.51m-30.44 41.11c12.13-13.95 24.27-27.91 35.43-40.75m-35.43 40.75c13.73-15.79 27.47-31.59 35.43-40.75m-30.44 41.11 36.08-41.5m-36.08 41.5c10.38-11.94 20.76-23.89 36.08-41.5m-31.1 41.86c10.98-12.62 21.95-25.25 36.09-41.5m-36.09 41.5c8.58-9.86 17.15-19.72 36.09-41.5m-30.44 41.11c12.39-14.26 24.79-28.52 35.42-40.75m-35.42 40.75c10.27-11.81 20.53-23.62 35.42-40.75m-30.44 41.11c9.37-10.77 18.73-21.54 35.43-40.75m-35.43 40.75c12.78-14.7 25.56-29.4 35.43-40.75m-29.78 40.36c6.75-7.77 13.5-15.53 29.52-33.97m-29.52 33.97c6.42-7.4 12.85-14.79 29.52-33.97m-24.54 34.33c8.23-9.46 16.45-18.92 24.94-28.68m-24.94 28.68c6.66-7.66 13.31-15.31 24.94-28.68m-19.29 28.28c7.07-8.14 14.15-16.28 19.02-21.89m-19.02 21.89c6.48-7.46 12.96-14.91 19.02-21.89m-14.04 22.25c3.99-4.58 7.97-9.17 13.78-15.85m-13.78 15.85 13.78-15.85m-8.13 15.46c3.06-3.52 6.12-7.04 8.53-9.82m-8.53 9.82c2.96-3.41 5.92-6.82 8.53-9.82m-3.54 10.18c.69-.8 1.39-1.61 3.28-3.78m-3.28 3.78c1.18-1.37 2.37-2.74 3.28-3.78m-121.19 2.23s0 0 0 0m0 0s0 0 0 0m6.39.26c-1.5-1.31-3.01-2.62-6.03-5.25m6.03 5.25c-1.6-1.4-3.21-2.79-6.03-5.25m11.68 4.86c-4.65-4.04-9.3-8.09-12.08-10.5m12.08 10.5c-3.1-2.7-6.2-5.39-12.08-10.5m18.48 10.76c-4.23-3.68-8.46-7.35-18.12-15.75m18.12 15.75c-6.9-5.99-13.79-11.99-18.12-15.75m24.51 16.01c-9.69-8.42-19.38-16.85-24.9-21.65m24.9 21.65c-5.72-4.98-11.45-9.95-24.9-21.65m30.55 21.26c-8.37-7.28-16.74-14.55-30.19-26.25m30.19 26.25-30.19-26.25m36.58 26.51c-13.5-11.74-26.99-23.47-36.98-32.15m36.98 32.15c-8.38-7.29-16.76-14.58-36.98-32.15m42.63 31.75c-15.87-13.79-31.73-27.58-42.27-36.74m42.27 36.74c-11.67-10.14-23.34-20.28-42.27-36.74m48.67 37c-14.19-12.33-28.37-24.66-47.55-41.33m47.55 41.33c-10.9-9.47-21.79-18.93-47.55-41.33m53.94 41.6c-9.7-8.44-19.4-16.87-47.54-41.34m47.54 41.34c-15.26-13.27-30.52-26.53-47.54-41.34m53.19 40.94c-12.15-10.56-24.29-21.11-47.55-41.33m47.55 41.33c-11.31-9.83-22.61-19.65-47.55-41.33m53.94 41.59c-15.22-13.24-30.45-26.47-47.54-41.33m47.54 41.33c-14.47-12.58-28.95-25.16-47.54-41.33m53.19 40.94c-18.27-15.88-36.53-31.75-47.55-41.33m47.55 41.33c-12.94-11.25-25.87-22.49-47.55-41.33m53.94 41.59c-17.23-14.98-34.46-29.96-47.54-41.33m47.54 41.33c-14.51-12.62-29.03-25.24-47.54-41.33m53.94 41.59c-14.9-12.95-29.79-25.9-47.54-41.33m47.54 41.33c-17.6-15.3-35.2-30.6-47.54-41.33m53.19 40.94c-11.89-10.34-23.78-20.68-47.55-41.34m47.55 41.34c-10.52-9.15-21.04-18.29-47.55-41.34m53.94 41.6c-16.8-14.61-33.6-29.21-47.54-41.33m47.54 41.33c-18.5-16.09-37.01-32.17-47.54-41.33m53.19 40.93c-18.27-15.87-36.53-31.75-47.55-41.33m47.55 41.33c-17.52-15.23-35.04-30.45-47.55-41.33m53.94 41.59c-14.06-12.22-28.12-24.45-47.54-41.33m47.54 41.33c-9.73-8.45-19.46-16.91-47.54-41.33m53.94 41.6c-11.73-10.2-23.47-20.4-47.54-41.34m47.54 41.34c-13.41-11.66-26.81-23.32-47.54-41.34m52.43 40.29c-9.98-8.68-19.96-17.35-46.79-40.68m46.79 40.68-46.79-40.68m46.4 35.03c-8.06-7-16.11-14-40-34.77m40 34.77c-12.63-10.97-25.26-21.95-40-34.77m40.36 29.79-34.72-30.18m34.72 30.18c-7.69-6.69-15.38-13.37-34.72-30.18m34.32 24.53c-8.16-7.1-16.33-14.2-27.92-24.27m27.92 24.27c-6.76-5.87-13.52-11.75-27.92-24.27m28.28 19.29c-5.92-5.15-11.85-10.3-21.89-19.03m21.89 19.03c-5.86-5.1-11.73-10.2-21.89-19.03m21.5 13.38c-3.9-3.39-7.8-6.78-15.85-13.77m15.85 13.77c-4.01-3.48-8.01-6.96-15.85-13.77m16.21 8.79c-3.56-3.1-7.11-6.19-9.81-8.53m9.81 8.53c-1.98-1.72-3.95-3.43-9.81-8.53m9.41 2.88c-1.01-.88-2.03-1.76-3.77-3.28m3.77 3.28c-1.35-1.17-2.69-2.34-3.77-3.28" stroke="#fff3cc" stroke-width=".5"/><path d="M430 250h120m-120 0h120m0 0v40m0-40v40m0 0H430m120 0H430m0 0v-40m0 40v-40" stroke="#f5a800"/></g><text x="50.373" font-family="Helvetica, Segoe UI Emoji" font-size="20" fill="#f5a800" text-anchor="middle" style="white-space:pre" dominant-baseline="text-before-edge" transform="translate(439.627 258.5)">Cache::find</text><g stroke-linecap="round" fill="none"><path d="M570 250s0 0 0 0m0 0s0 0 0 0m-.26 6.4c1.48-1.7 2.95-3.4 5.25-6.04m-5.25 6.04c1.4-1.62 2.81-3.23 5.25-6.04m-4.86 11.68c3.16-3.63 6.32-7.26 10.5-12.07m-10.5 12.07c2.6-2.98 5.19-5.97 10.5-12.07m-10.76 18.47c4.52-5.19 9.03-10.39 15.75-18.11m-15.75 18.11c4.18-4.8 8.35-9.61 15.75-18.11m-15.35 23.75c7.06-8.13 14.13-16.26 20.99-24.15m-20.99 24.15c4.66-5.36 9.33-10.73 20.99-24.15M570 280.48c10.49-12.06 20.97-24.12 26.25-30.19M570 280.48c8.5-9.77 16.99-19.54 26.25-30.19m-26.51 36.59c8.45-9.72 16.89-19.43 32.15-36.98m-32.15 36.98c9.4-10.81 18.8-21.62 32.15-36.98m-30.44 41.11c12.03-13.84 24.06-27.68 35.43-40.75m-35.43 40.75 35.43-40.75m-30.44 41.11c9.29-10.69 18.59-21.39 36.08-41.51m-36.08 41.51c13.94-16.04 27.89-32.08 36.08-41.51m-30.44 41.12c8.69-9.99 17.37-19.99 35.43-40.76m-35.43 40.76c9.15-10.53 18.3-21.05 35.43-40.76m-30.44 41.12c11.51-13.25 23.03-26.5 36.08-41.51m-36.08 41.51c11.36-13.07 22.72-26.15 36.08-41.51m-30.44 41.11c9.67-11.13 19.35-22.25 35.43-40.75m-35.43 40.75c9.03-10.39 18.06-20.77 35.43-40.75M597.7 291.3c9.51-10.94 19.02-21.88 36.08-41.51M597.7 291.3c13.32-15.32 26.63-30.64 36.08-41.51m-30.44 41.12c14.13-16.26 28.27-32.52 35.43-40.76m-35.43 40.76c12.52-14.41 25.05-28.82 35.43-40.76m-30.44 41.12c11.76-13.53 23.51-27.06 36.08-41.51m-36.08 41.51c11.61-13.36 23.22-26.72 36.08-41.51m-30.44 41.11c7.7-8.85 15.4-17.71 35.43-40.75m-35.43 40.75c7.71-8.86 15.41-17.73 35.43-40.75m-30.44 41.11c12.98-14.94 25.97-29.88 36.08-41.51m-36.08 41.51c8.19-9.42 16.38-18.84 36.08-41.51m-30.44 41.12 35.43-40.76m-35.43 40.76c13.87-15.96 27.74-31.91 35.43-40.76m-30.44 41.12c8.59-9.89 17.19-19.78 36.08-41.51m-36.08 41.51c7.94-9.13 15.87-18.26 36.08-41.51m-30.44 41.11 35.43-40.75m-35.43 40.75c10.68-12.28 21.36-24.56 35.43-40.75m-30.44 41.11c7.61-8.75 15.21-17.5 30.18-34.71m-30.18 34.71c9.57-11.01 19.15-22.02 30.18-34.71m-25.2 35.07c6.31-7.25 12.62-14.5 24.93-28.67m-24.93 28.67c6.34-7.29 12.68-14.58 24.93-28.67m-19.28 28.28c6.13-7.06 12.26-14.11 19.68-22.64m-19.68 22.64c4.26-4.9 8.52-9.81 19.68-22.64m-14.7 23c5.21-5.99 10.41-11.97 14.44-16.6m-14.44 16.6c3.45-3.96 6.89-7.92 14.44-16.6m-8.79 16.21c3.17-3.66 6.35-7.31 9.18-10.57m-9.18 10.57c2.72-3.14 5.45-6.28 9.18-10.57m-4.2 10.93c.85-.97 1.69-1.94 3.94-4.53m-3.94 4.53c1.28-1.47 2.55-2.94 3.94-4.53m-100.58 2.91s0 0 0 0m0 0s0 0 0 0m6.39.26-6.03-5.25m6.03 5.25c-1.57-1.37-3.15-2.74-6.03-5.25m11.68 4.86c-4.18-3.63-8.36-7.26-12.08-10.5m12.08 10.5-12.08-10.5m18.48 10.76c-3.72-3.23-7.44-6.46-18.12-15.75m18.12 15.75c-5.11-4.44-10.22-8.88-18.12-15.75m24.51 16.01c-6.56-5.71-13.13-11.42-24.9-21.65m24.9 21.65c-5.8-5.04-11.6-10.09-24.9-21.65m30.55 21.26c-6.43-5.59-12.86-11.18-30.19-26.25m30.19 26.25c-9.08-7.89-18.15-15.78-30.19-26.25m36.58 26.51c-9.56-8.31-19.12-16.63-36.98-32.15m36.98 32.15c-9.33-8.12-18.67-16.24-36.98-32.15m42.63 31.75c-12.97-11.27-25.94-22.55-42.27-36.74m42.27 36.74a84712.93 84712.93 0 0 1-42.27-36.74m48.67 37c-16.8-14.59-33.59-29.19-47.55-41.33m47.55 41.33c-17.45-15.16-34.89-30.32-47.55-41.33m53.94 41.6c-12.78-11.12-25.56-22.23-47.54-41.34m47.54 41.34c-18.53-16.11-37.05-32.22-47.54-41.34m53.19 40.94c-18.49-16.07-36.99-32.15-47.55-41.33m47.55 41.33c-11.53-10.02-23.06-20.04-47.55-41.33m53.94 41.59-47.54-41.33m47.54 41.33c-13.94-12.12-27.88-24.23-47.54-41.33m53.19 40.94c-10.74-9.33-21.47-18.66-47.55-41.33m47.55 41.33c-10.81-9.39-21.61-18.78-47.55-41.33m53.94 41.59c-10.38-9.03-20.77-18.06-47.54-41.33m47.54 41.33c-12.36-10.75-24.73-21.5-47.54-41.33m53.94 41.59c-16.28-14.15-32.56-28.31-47.54-41.33m47.54 41.33c-16.64-14.47-33.28-28.93-47.54-41.33m53.19 40.94c-12.54-10.9-25.08-21.8-47.55-41.34m47.55 41.34c-9.99-8.69-19.98-17.37-47.55-41.34m53.94 41.6c-11.25-9.78-22.5-19.57-47.54-41.33m47.54 41.33c-15.27-13.27-30.53-26.55-47.54-41.33m51.68 39.62c-13.46-11.69-26.91-23.39-46.04-40.02m46.04 40.02c-15.84-13.76-31.67-27.53-46.04-40.02m45.64 34.38-39.24-34.12m39.24 34.12-39.24-34.12m39.6 29.13c-12.61-10.96-25.22-21.92-33.2-28.87m33.2 28.87c-11.42-9.93-22.84-19.85-33.2-28.87m32.81 23.23c-6.57-5.71-13.13-11.41-27.17-23.62m27.17 23.62c-6.95-6.04-13.89-12.07-27.17-23.62m27.53 18.63-21.13-18.37m21.13 18.37c-7.89-6.86-15.78-13.71-21.13-18.37m20.73 12.73c-3.64-3.17-7.27-6.33-15.09-13.12m15.09 13.12c-3.71-3.23-7.41-6.45-15.09-13.12m15.45 8.13c-2.97-2.58-5.94-5.17-9.05-7.87m9.05 7.87c-2.5-2.18-5.01-4.36-9.05-7.87" stroke="#e8f6fc" stroke-width=".5"/><path d="M570 250h100m-100 0h100m0 0v40m0-40v40m0 0H570m100 0H570m0 0v-40m0 40v-40" stroke="#97dbfc"/></g><text x="44.284" font-family="Helvetica, Segoe UI Emoji" font-size="20" fill="#97dbfc" text-anchor="middle" style="white-space:pre" dominant-baseline="text-before-edge" transform="translate(575.716 258.5)">DB::query</text><g stroke-linecap="round" fill="none"><path d="M690 130s0 0 0 0m0 0s0 0 0 0m-.26 6.4c2.02-2.33 4.04-4.65 5.25-6.04m-5.25 6.04c1.56-1.8 3.12-3.6 5.25-6.04m-4.86 11.68c3.29-3.78 6.58-7.57 10.5-12.07m-10.5 12.07c3.31-3.8 6.61-7.6 10.5-12.07m-10.76 18.47c4.42-5.08 8.83-10.16 15.75-18.11m-15.75 18.11c4.39-5.05 8.78-10.09 15.75-18.11m-15.35 23.75 20.99-24.15m-20.99 24.15 20.99-24.15M690 160.48c9.29-10.68 18.57-21.35 26.25-30.19M690 160.48c9.1-10.46 18.2-20.93 26.25-30.19m-26.51 36.59 32.15-36.98m-32.15 36.98c11.05-12.72 22.11-25.43 32.15-36.98m-30.44 41.11c7.61-8.75 15.21-17.5 35.43-40.75m-35.43 40.75c10.61-12.2 21.22-24.41 35.43-40.75m-30.44 41.11 36.08-41.51m-36.08 41.51c13-14.96 26.01-29.92 36.08-41.51m-30.44 41.12c10.36-11.92 20.72-23.84 35.43-40.76m-35.43 40.76c7.66-8.81 15.32-17.62 35.43-40.76m-30.44 41.12c12.35-14.21 24.7-28.42 36.08-41.51m-36.08 41.51c11.22-12.91 22.44-25.82 36.08-41.51m-30.44 41.11c8.3-9.55 16.61-19.1 35.43-40.75m-35.43 40.75c9.1-10.47 18.21-20.94 35.43-40.75M717.7 171.3c13.28-15.28 26.56-30.56 36.08-41.51M717.7 171.3c8.88-10.22 17.76-20.44 36.08-41.51m-30.44 41.12c10.87-12.51 21.74-25.01 35.43-40.76m-35.43 40.76c9.33-10.74 18.66-21.47 35.43-40.76m-30.44 41.12c13.16-15.14 26.31-30.28 36.08-41.51m-36.08 41.51 36.08-41.51m-30.44 41.11c13.99-16.09 27.97-32.18 35.43-40.75m-35.43 40.75c12.69-14.59 25.38-29.19 35.43-40.75m-30.44 41.11c13.58-15.62 27.16-31.24 36.08-41.51m-36.08 41.51c10.12-11.64 20.24-23.28 36.08-41.51m-30.44 41.12c7.16-8.24 14.32-16.48 35.43-40.76m-35.43 40.76c12.23-14.07 24.47-28.14 35.43-40.76m-30.44 41.12c9.61-11.06 19.22-22.11 36.08-41.51m-36.08 41.51c10.37-11.94 20.75-23.88 36.08-41.51m-30.44 41.11c8.91-10.24 17.82-20.49 35.43-40.75m-35.43 40.75 35.43-40.75m-30.44 41.11c11.42-13.13 22.84-26.27 36.08-41.5m-36.08 41.5c10.66-12.26 21.31-24.52 36.08-41.5m-31.1 41.86c10.25-11.79 20.5-23.57 36.09-41.5m-36.09 41.5c7.9-9.08 15.8-18.17 36.09-41.5m-30.44 41.11c8.06-9.28 16.13-18.56 35.42-40.75m-35.42 40.75c12.79-14.71 25.58-29.43 35.42-40.75m-30.44 41.11c9.38-10.79 18.76-21.57 36.09-41.51m-36.09 41.51c11.54-13.27 23.07-26.54 36.09-41.51m-30.44 41.12c11.31-13.01 22.61-26.02 35.43-40.76m-35.43 40.76c7.89-9.09 15.79-18.17 35.43-40.76m-30.45 41.12 36.09-41.51m-36.09 41.51 36.09-41.51m-30.44 41.11c11.66-13.42 23.33-26.84 35.43-40.75m-35.43 40.75c10.65-12.25 21.3-24.5 35.43-40.75m-30.45 41.11c13.55-15.59 27.1-31.17 36.09-41.51m-36.09 41.51c10.62-12.21 21.23-24.41 36.09-41.51m-30.44 41.12c7.61-8.76 15.22-17.51 35.43-40.76m-35.43 40.76c10.45-12.03 20.91-24.06 35.43-40.76m-30.44 41.12c11.87-13.66 23.74-27.32 36.08-41.51m-36.08 41.51c9.72-11.19 19.45-22.38 36.08-41.51m-30.44 41.11c12.45-14.32 24.9-28.65 35.43-40.75m-35.43 40.75c13.76-15.83 27.52-31.66 35.43-40.75m-30.44 41.11c9.15-10.53 18.31-21.06 36.08-41.51m-36.08 41.51c8.67-9.97 17.34-19.95 36.08-41.51M824 170.96c11.82-13.61 23.65-27.21 35.43-40.76M824 170.96c8.64-9.95 17.28-19.89 35.43-40.76m-30.44 41.12c7.33-8.44 14.66-16.88 36.08-41.51m-36.08 41.51c9.4-10.82 18.8-21.63 36.08-41.51m-30.44 41.11c13.28-15.28 26.56-30.55 35.43-40.75m-35.43 40.75c7.31-8.41 14.62-16.82 35.43-40.75m-30.44 41.11c9.02-10.38 18.05-20.76 36.08-41.51m-36.08 41.51c9.57-11.01 19.15-22.03 36.08-41.51m-30.44 41.12c10.86-12.5 21.73-25 35.43-40.76m-35.43 40.76c10.68-12.29 21.36-24.58 35.43-40.76m-30.44 41.12c10.31-11.86 20.62-23.73 36.08-41.51m-36.08 41.51c9.79-11.27 19.58-22.53 36.08-41.51m-30.44 41.11c13.46-15.48 26.92-30.96 35.43-40.75m-35.43 40.75c8.38-9.64 16.76-19.28 35.43-40.75m-30.44 41.11c7.94-9.13 15.88-18.27 36.08-41.51m-36.08 41.51c13.57-15.62 27.15-31.24 36.08-41.51m-30.44 41.12c9.35-10.76 18.7-21.51 35.43-40.76m-35.43 40.76c14.17-16.3 28.33-32.6 35.43-40.76m-30.44 41.12c13.78-15.86 27.57-31.72 36.08-41.51m-36.08 41.51 36.08-41.51m-30.44 41.11c8.75-10.06 17.5-20.12 35.43-40.75m-35.43 40.75c9.25-10.64 18.5-21.28 35.43-40.75m-30.44 41.11c11.51-13.25 23.03-26.5 36.08-41.5m-36.08 41.5c10.11-11.62 20.21-23.25 36.08-41.5m-31.1 41.86c8.52-9.79 17.03-19.58 36.09-41.5m-36.09 41.5c13.39-15.4 26.78-30.8 36.09-41.5m-30.44 41.11 35.42-40.75m-35.42 40.75c9.95-11.45 19.89-22.89 35.42-40.75m-30.44 41.11c12.87-14.8 25.74-29.6 36.09-41.51m-36.09 41.51c13.06-15.02 26.12-30.04 36.09-41.51m-30.44 41.12c7.18-8.27 14.37-16.54 35.42-40.76m-35.42 40.76 35.42-40.76m-30.44 41.12c12.75-14.67 25.5-29.33 36.09-41.51m-36.09 41.51c12.52-14.41 25.04-28.81 36.09-41.51m-30.44 41.11c11.98-13.78 23.96-27.57 35.42-40.75m-35.42 40.75c10.39-11.96 20.79-23.92 35.42-40.75m-30.44 41.11c13.28-15.27 26.56-30.55 34.12-39.24m-34.12 39.24c10.95-12.6 21.9-25.19 34.12-39.24m-28.47 38.85c6.39-7.35 12.77-14.7 28.21-32.46m-28.21 32.46c11.13-12.81 22.26-25.62 28.21-32.46m-23.23 32.82 22.97-26.42m-22.97 26.42c8.26-9.51 16.53-19.01 22.97-26.42m-17.32 26.02c5.47-6.29 10.94-12.59 17.71-20.37m-17.71 20.37c6.27-7.21 12.54-14.43 17.71-20.37m-12.73 20.73c4.06-4.66 8.11-9.33 12.47-14.34m-12.47 14.34c2.75-3.16 5.5-6.32 12.47-14.34m-6.82 13.95c1.77-2.04 3.54-4.08 7.21-8.3m-7.21 8.3c2.3-2.65 4.61-5.31 7.21-8.3" stroke="#e8f7eb" stroke-width=".5"/><path d="M690 130h260m-260 0h260m0 0v40m0-40v40m0 0H690m260 0H690m0 0v-40m0 40v-40" stroke="#a9c265"/></g><text x="39.851" font-family="Helvetica, Segoe UI Emoji" font-size="20" fill="#a9c265" text-anchor="middle" style="white-space:pre" dominant-baseline="text-before-edge" transform="translate(780.15 138.5)">checkout</text><g stroke-linecap="round" fill="none"><path d="M690 190s0 0 0 0m0 0s0 0 0 0m-.26 6.4c1.95-2.24 3.9-4.49 5.25-6.04m-5.25 6.04c1.98-2.28 3.95-4.55 5.25-6.04m-4.86 11.68c3.3-3.8 6.61-7.6 10.5-12.07m-10.5 12.07c3.89-4.47 7.78-8.94 10.5-12.07m-10.76 18.47c5.36-6.17 10.73-12.34 15.75-18.11m-15.75 18.11c3.97-4.57 7.94-9.14 15.75-18.11m-15.35 23.75c7.41-8.53 14.83-17.06 20.99-24.15m-20.99 24.15c4.96-5.71 9.93-11.42 20.99-24.15M690 220.48c8.51-9.78 17.02-19.57 26.25-30.19M690 220.48c5.61-6.45 11.21-12.89 26.25-30.19m-26.51 36.59c9.79-11.26 19.58-22.52 32.15-36.98m-32.15 36.98c10.83-12.46 21.66-24.92 32.15-36.98m-30.44 41.11c8.45-9.72 16.9-19.44 35.43-40.75m-35.43 40.75c7.49-8.62 14.99-17.24 35.43-40.75m-30.44 41.11c13.54-15.58 27.08-31.15 36.08-41.51m-36.08 41.51c10.14-11.67 20.29-23.34 36.08-41.51m-30.44 41.12c9.97-11.48 19.94-22.95 35.43-40.76m-35.43 40.76c7.64-8.79 15.28-17.59 35.43-40.76m-30.44 41.12c9.16-10.55 18.33-21.09 36.08-41.51m-36.08 41.51c10.77-12.39 21.54-24.78 36.08-41.51m-30.44 41.11c11.76-13.53 23.53-27.06 35.43-40.75m-35.43 40.75 35.43-40.75M717.7 231.3c11.19-12.88 22.39-25.75 36.08-41.51M717.7 231.3c8.52-9.8 17.04-19.61 36.08-41.51m-30.44 41.12c12.42-14.29 24.84-28.57 35.43-40.76m-35.43 40.76 35.43-40.76m-30.44 41.12c14.25-16.4 28.5-32.79 36.08-41.51m-36.08 41.51c13.01-14.97 26.03-29.94 36.08-41.51m-30.44 41.11c13.4-15.41 26.81-30.83 35.43-40.75m-35.43 40.75 35.43-40.75m-30.44 41.11c8.67-9.97 17.34-19.94 36.08-41.51m-36.08 41.51c12.88-14.81 25.76-29.63 36.08-41.51m-30.44 41.12c11.98-13.79 23.96-27.57 35.43-40.76m-35.43 40.76c12-13.81 24-27.61 35.43-40.76m-30.44 41.12 36.08-41.51m-36.08 41.51c11.87-13.65 23.73-27.31 36.08-41.51m-30.44 41.11c8.3-9.54 16.6-19.09 35.43-40.75m-35.43 40.75c13.16-15.13 26.32-30.27 35.43-40.75m-30.44 41.11c12.53-14.42 25.07-28.84 36.08-41.5m-36.08 41.5c14.4-16.56 28.79-33.12 36.08-41.5m-31.1 41.86c12.69-14.59 25.38-29.19 36.09-41.5m-36.09 41.5c7.96-9.15 15.92-18.31 36.09-41.5m-30.44 41.11c9.91-11.4 19.82-22.8 35.42-40.75m-35.42 40.75c10.93-12.58 21.86-25.15 35.42-40.75m-30.44 41.11c9.11-10.47 18.21-20.94 35.43-40.75m-35.43 40.75c13.71-15.77 27.42-31.53 35.43-40.75m-29.78 40.36c9.26-10.66 18.52-21.31 29.52-33.97m-29.52 33.97L811 197.13m-24.54 34.33c9.92-11.41 19.84-22.82 24.94-28.68m-24.94 28.68c9.72-11.18 19.44-22.36 24.94-28.68m-19.29 28.28c7.37-8.48 14.74-16.96 19.02-21.89m-19.02 21.89c5.81-6.68 11.61-13.36 19.02-21.89m-14.04 22.25c4.18-4.81 8.36-9.61 13.78-15.85m-13.78 15.85c5.07-5.82 10.13-11.65 13.78-15.85m-8.13 15.46c2.74-3.15 5.47-6.3 8.53-9.82m-8.53 9.82c3.14-3.62 6.29-7.24 8.53-9.82m-3.54 10.18c1.25-1.45 2.51-2.9 3.28-3.78m-3.28 3.78c.9-1.05 1.81-2.09 3.28-3.78m-121.19 2.23s0 0 0 0m0 0s0 0 0 0m6.39.26c-1.99-1.73-3.99-3.47-6.03-5.25m6.03 5.25c-1.77-1.54-3.54-3.08-6.03-5.25m11.68 4.86c-3.04-2.64-6.08-5.28-12.08-10.5m12.08 10.5c-3.71-3.23-7.42-6.45-12.08-10.5m18.48 10.76c-5.74-4.98-11.47-9.97-18.12-15.75m18.12 15.75c-3.86-3.35-7.71-6.7-18.12-15.75m24.51 16.01c-7.32-6.37-14.65-12.73-24.9-21.65m24.9 21.65c-6.76-5.87-13.51-11.75-24.9-21.65m30.55 21.26c-11.95-10.39-23.89-20.77-30.19-26.25m30.19 26.25c-7.44-6.47-14.88-12.94-30.19-26.25m36.58 26.51c-10.62-9.24-21.24-18.47-36.98-32.15m36.98 32.15a65776.34 65776.34 0 0 0-36.98-32.15m42.63 31.75c-12.81-11.13-25.62-22.27-42.27-36.74m42.27 36.74c-9.6-8.34-19.2-16.69-42.27-36.74m48.67 37c-12.22-10.62-24.44-21.24-47.55-41.33m47.55 41.33c-16.73-14.53-33.46-29.07-47.55-41.33m53.94 41.6c-12.14-10.56-24.29-21.12-47.54-41.34m47.54 41.34c-9.77-8.5-19.54-16.99-47.54-41.34m53.19 40.94c-14.76-12.82-29.51-25.65-47.55-41.33m47.55 41.33c-12.82-11.14-25.63-22.27-47.55-41.33m53.94 41.59c-16.66-14.49-33.33-28.97-47.54-41.33m47.54 41.33c-11.93-10.37-23.86-20.74-47.54-41.33m53.19 40.94c-11.2-9.74-22.41-19.48-47.55-41.33m47.55 41.33c-12.89-11.2-25.77-22.4-47.55-41.33m53.94 41.59c-17.46-15.18-34.92-30.36-47.54-41.33m47.54 41.33c-11.96-10.4-23.93-20.8-47.54-41.33m53.94 41.59c-14.38-12.5-28.77-25.01-47.54-41.33m47.54 41.33c-14.45-12.56-28.89-25.12-47.54-41.33m53.19 40.94c-17.4-15.13-34.8-30.25-47.55-41.34m47.55 41.34c-14.96-13.01-29.92-26.01-47.55-41.34m53.94 41.6c-12.45-10.83-24.91-21.66-47.54-41.33m47.54 41.33c-15.9-13.83-31.8-27.65-47.54-41.33m53.19 40.93c-13.7-11.9-27.39-23.8-47.55-41.33m47.55 41.33c-17.38-15.1-34.75-30.2-47.55-41.33m53.94 41.59c-16.45-14.3-32.91-28.6-47.54-41.33m47.54 41.33c-16.54-14.37-33.07-28.75-47.54-41.33m53.94 41.6c-16.93-14.73-33.87-29.45-47.54-41.34m47.54 41.34c-16.57-14.41-33.14-28.81-47.54-41.34m52.43 40.29c-12.55-10.91-25.1-21.82-46.79-40.68m46.79 40.68c-16.27-14.15-32.55-28.3-46.79-40.68m46.4 35.03c-10.99-9.55-21.97-19.09-40-34.77m40 34.77c-9.09-7.9-18.18-15.79-40-34.77m40.36 29.79c-7.75-6.73-15.49-13.46-34.72-30.18m34.72 30.18-34.72-30.18m34.32 24.53c-6.38-5.54-12.76-11.09-27.92-24.27m27.92 24.27c-10.7-9.3-21.4-18.6-27.92-24.27m28.28 19.29c-6.26-5.45-12.53-10.9-21.89-19.03m21.89 19.03c-4.73-4.12-9.47-8.24-21.89-19.03m21.5 13.38c-4.51-3.91-9.01-7.83-15.85-13.77m15.85 13.77c-3.45-2.99-6.89-5.99-15.85-13.77m16.21 8.79c-2.11-1.84-4.23-3.68-9.81-8.53m9.81 8.53c-3.79-3.3-7.58-6.59-9.81-8.53m9.41 2.88c-1.47-1.28-2.94-2.55-3.77-3.28m3.77 3.28c-1.32-1.14-2.63-2.29-3.77-3.28" stroke="#fff3cc" stroke-width=".5"/><path d="M690 190h120m-120 0h120m0 0v40m0-40v40m0 0H690m120 0H690m0 0v-40m0 40v-40" stroke="#f5a800"/></g><text x="50.373" font-family="Helvetica, Segoe UI Emoji" font-size="20" fill="#f5a800" text-anchor="middle" style="white-space:pre" dominant-baseline="text-before-edge" transform="translate(699.627 198.5)">Cache::find</text><g stroke-linecap="round" fill="none"><path d="M830 190s0 0 0 0m0 0s0 0 0 0m-.26 6.4 5.25-6.04m-5.25 6.04c1.33-1.53 2.66-3.07 5.25-6.04m-4.86 11.68 10.5-12.07m-10.5 12.07c3.85-4.42 7.69-8.84 10.5-12.07m-10.76 18.47c4.68-5.38 9.35-10.76 15.75-18.11m-15.75 18.11c5-5.75 10-11.51 15.75-18.11m-15.35 23.75c8.12-9.35 16.25-18.7 20.99-24.15m-20.99 24.15c5.89-6.77 11.78-13.55 20.99-24.15M830 220.48c10.39-11.94 20.77-23.88 26.25-30.19M830 220.48c7.75-8.91 15.5-17.82 26.25-30.19m-26.51 36.59c7.84-9.01 15.67-18.03 32.15-36.98m-32.15 36.98 32.15-36.98m-30.44 41.11c11.21-12.9 22.43-25.8 35.43-40.75m-35.43 40.75c8.95-10.3 17.91-20.6 35.43-40.75m-30.44 41.11c9.03-10.39 18.06-20.78 36.08-41.51m-36.08 41.51c11.78-13.55 23.56-27.1 36.08-41.51m-30.44 41.12c11.33-13.04 22.66-26.07 35.43-40.76m-35.43 40.76c11.98-13.78 23.96-27.57 35.43-40.76m-30.44 41.12c8.16-9.4 16.33-18.79 36.08-41.51m-36.08 41.51c9.14-10.52 18.29-21.04 36.08-41.51m-30.44 41.11c10.07-11.59 20.15-23.17 35.43-40.75m-35.43 40.75c13.48-15.5 26.95-31 35.43-40.75M857.7 231.3c7.57-8.71 15.15-17.42 36.08-41.51M857.7 231.3c13.79-15.86 27.58-31.73 36.08-41.51m-30.44 41.12c10.9-12.54 21.79-25.07 35.43-40.76m-35.43 40.76c10.26-11.81 20.53-23.61 35.43-40.76m-30.44 41.12c9.31-10.71 18.62-21.43 36.08-41.51m-36.08 41.51c11.31-13.02 22.63-26.04 36.08-41.51m-30.44 41.11c10.84-12.46 21.67-24.93 35.43-40.75m-35.43 40.75 35.43-40.75m-30.44 41.11c8.89-10.23 17.78-20.46 36.08-41.51m-36.08 41.51c11.9-13.69 23.8-27.38 36.08-41.51m-30.44 41.12c7.59-8.73 15.18-17.46 35.43-40.76m-35.43 40.76c12.64-14.54 25.28-29.08 35.43-40.76m-30.44 41.12c9.72-11.19 19.45-22.38 36.08-41.51m-36.08 41.51c14.23-16.37 28.45-32.74 36.08-41.51m-30.44 41.11c13.69-15.75 27.38-31.5 35.43-40.75m-35.43 40.75c12.09-13.91 24.18-27.81 35.43-40.75m-30.44 41.11c8.67-9.97 17.35-19.95 36.08-41.5m-36.08 41.5c12.68-14.59 25.37-29.18 36.08-41.5m-31.1 41.86c14.27-16.4 28.53-32.81 36.09-41.5m-36.09 41.5c8.9-10.22 17.79-20.45 36.09-41.5m-30.44 41.11c10.31-11.86 20.62-23.73 35.42-40.75m-35.42 40.75c11.6-13.34 23.2-26.69 35.42-40.75m-30.44 41.11c8.21-9.44 16.42-18.89 35.43-40.75m-35.43 40.75c13.77-15.84 27.54-31.68 35.43-40.75m-29.78 40.36c10.99-12.65 21.97-25.29 29.52-33.97m-29.52 33.97c9.72-11.18 19.43-22.36 29.52-33.97m-24.54 34.33c7.64-8.78 15.27-17.56 24.94-28.68m-24.94 28.68c9.12-10.49 18.24-20.98 24.94-28.68m-19.29 28.28c4.82-5.54 9.63-11.08 19.02-21.89m-19.02 21.89c4.66-5.36 9.32-10.73 19.02-21.89m-14.04 22.25c3.41-3.92 6.81-7.83 13.78-15.85m-13.78 15.85c3.54-4.07 7.08-8.13 13.78-15.85m-8.13 15.46c2.75-3.17 5.5-6.33 8.53-9.82m-8.53 9.82c2.09-2.41 4.17-4.81 8.53-9.82m-3.54 10.18c.99-1.14 1.98-2.29 3.28-3.78m-3.28 3.78c.72-.84 1.45-1.68 3.28-3.78m-121.19 2.23s0 0 0 0m0 0s0 0 0 0m6.39.26c-2.04-1.77-4.08-3.55-6.03-5.25m6.03 5.25c-1.82-1.58-3.65-3.17-6.03-5.25m11.68 4.86c-3.28-2.85-6.55-5.7-12.08-10.5m12.08 10.5c-4.6-4-9.19-7.99-12.08-10.5m18.48 10.76c-4.34-3.77-8.67-7.54-18.12-15.75m18.12 15.75c-4.01-3.48-8.02-6.97-18.12-15.75m24.51 16.01c-5.51-4.79-11.02-9.58-24.9-21.65m24.9 21.65c-6.52-5.67-13.05-11.34-24.9-21.65m30.55 21.26c-9.36-8.14-18.72-16.27-30.19-26.25m30.19 26.25c-11.55-10.04-23.1-20.09-30.19-26.25m36.58 26.51c-11.07-9.63-22.15-19.26-36.98-32.15m36.98 32.15c-11.77-10.23-23.54-20.47-36.98-32.15m42.63 31.75c-11.52-10.01-23.04-20.02-42.27-36.74m42.27 36.74c-11.48-9.98-22.96-19.95-42.27-36.74m48.67 37c-18.45-16.03-36.9-32.07-47.55-41.33m47.55 41.33c-15.47-13.44-30.94-26.89-47.55-41.33m53.94 41.6c-12.76-11.1-25.52-22.19-47.54-41.34m47.54 41.34-47.54-41.34m53.19 40.94-47.55-41.33m47.55 41.33c-16.18-14.06-32.35-28.12-47.55-41.33m53.94 41.59c-12.24-10.64-24.48-21.28-47.54-41.33m47.54 41.33c-18.05-15.69-36.1-31.38-47.54-41.33m53.19 40.94c-10.33-8.98-20.66-17.96-47.55-41.33m47.55 41.33c-14.33-12.45-28.65-24.91-47.55-41.33m53.94 41.59c-10.4-9.04-20.8-18.08-47.54-41.33m47.54 41.33c-17.85-15.52-35.71-31.04-47.54-41.33m53.94 41.59c-10.25-8.91-20.49-17.82-47.54-41.33m47.54 41.33c-10.85-9.43-21.7-18.86-47.54-41.33m53.19 40.94c-16.63-14.46-33.26-28.91-47.55-41.34m47.55 41.34c-12.01-10.44-24.02-20.88-47.55-41.34m53.94 41.6c-16.13-14.03-32.27-28.06-47.54-41.33m47.54 41.33c-10.55-9.17-21.1-18.34-47.54-41.33m53.19 40.93c-12.68-11.01-25.35-22.03-47.55-41.33m47.55 41.33-47.55-41.33m53.94 41.59c-17.32-15.05-34.64-30.11-47.54-41.33m47.54 41.33c-12.57-10.92-25.14-21.85-47.54-41.33m53.94 41.6c-9.72-8.46-19.44-16.91-47.54-41.34m47.54 41.34c-14.13-12.29-28.26-24.57-47.54-41.34m52.43 40.29c-13.33-11.59-26.67-23.18-46.79-40.68m46.79 40.68c-10.26-8.92-20.51-17.84-46.79-40.68m46.4 35.03c-8.7-7.55-17.39-15.11-40-34.77m40 34.77c-11.67-10.14-23.33-20.28-40-34.77m40.36 29.79c-10.92-9.49-21.83-18.98-34.72-30.18m34.72 30.18c-8.02-6.97-16.03-13.94-34.72-30.18m34.32 24.53c-10.54-9.16-21.08-18.32-27.92-24.27m27.92 24.27c-6.16-5.35-12.32-10.71-27.92-24.27m28.28 19.29c-6.22-5.42-12.45-10.83-21.89-19.03m21.89 19.03c-7.12-6.19-14.23-12.38-21.89-19.03m21.5 13.38c-5.97-5.18-11.93-10.37-15.85-13.77m15.85 13.77c-4.77-4.14-9.54-8.29-15.85-13.77m16.21 8.79c-2.42-2.1-4.83-4.2-9.81-8.53m9.81 8.53c-2.06-1.79-4.11-3.58-9.81-8.53m9.41 2.88c-1.22-1.06-2.44-2.12-3.77-3.28m3.77 3.28c-.87-.75-1.73-1.51-3.77-3.28" stroke="#e8f6fc" stroke-width=".5"/><path d="M830 190h120m-120 0h120m0 0v40m0-40v40m0 0H830m120 0H830m0 0v-40m0 40v-40" stroke="#97dbfc"/></g><text x="44.284" font-family="Helvetica, Segoe UI Emoji" font-size="20" fill="#97dbfc" text-anchor="middle" style="white-space:pre" dominant-baseline="text-before-edge" transform="translate(845.716 198.5)">DB::query</text></svg>