<svg width="654" height="350" viewBox="0 0 654 350" fill="none" xmlns="http://www.w3.org/2000/svg">
<g clip-path="url(#clip0_8472_504)">
<rect width="654" height="350" fill="#425CC7"/>
<path d="M91 175L556 175" stroke="#202C5F" stroke-width="5"/>
<rect x="27" y="245" width="85" height="80" fill="#202C5F"/>
<path d="M90.1801 282.627L79.2383 272L75.0042 276.101L75.0375 276.138L59.9331 290.783L51.4508 282.544V282.506H35V288.312H48.9294L59.9331 299L64.1718 294.899L64.1623 294.894L79.2668 280.244L87.6967 288.433L87.73 288.401V288.433H104V282.627H90.1801Z" fill="white"/>
<rect x="27" y="135" width="85" height="80" fill="#202C5F"/>
<path d="M42.2667 146H38V204.994H42.2667V146Z" fill="#F5A800"/>
<path d="M50.7999 159.646H46.5332V205H50.7999V159.646Z" fill="#F5A800"/>
<path d="M59.3311 170.384H55.0645V204.994H59.3311V170.384Z" fill="#F5A800"/>
<path d="M67.8663 165.183H63.5996V204.994H67.8663V165.183Z" fill="#F5A800"/>
<path d="M76.4014 154.015H72.1348V205H76.4014V154.015Z" fill="#F5A800"/>
<path d="M84.9346 147.136H80.668V204.999H84.9346V147.136Z" fill="#F5A800"/>
<path d="M93.4659 164.301H89.1992V204.994H93.4659V164.301Z" fill="#F5A800"/>
<path d="M101.999 170.384H97.7324V204.994H101.999V170.384Z" fill="#F5A800"/>
<rect x="541" y="245" width="85" height="80" fill="#202C5F"/>
<path d="M563.307 284.781L571.376 276.712C572.491 275.597 572.491 273.793 571.376 272.678C570.261 271.563 568.456 271.563 567.341 272.678L555.238 284.781L567.341 296.884C568.456 297.999 570.261 297.999 571.376 296.884C572.491 295.769 572.491 293.965 571.376 292.85L563.307 284.781Z" fill="#F5A800"/>
<path d="M596.864 272.683C595.749 273.798 595.749 275.603 596.864 276.718L604.932 284.786L596.864 292.855C595.749 293.97 595.749 295.775 596.864 296.889C597.979 298.004 599.783 298.004 600.898 296.889L613.001 284.786L600.898 272.683C599.783 271.568 597.979 271.568 596.864 272.683Z" fill="#F5A800"/>
<path d="M589.108 262.604L573.67 305.019C573.132 306.498 573.894 308.133 575.373 308.671C576.852 309.21 578.487 308.447 579.025 306.968L594.463 264.553C595.001 263.074 594.239 261.439 592.76 260.901C591.281 260.363 589.646 261.125 589.108 262.604Z" fill="#F5A800"/>
<rect x="541" y="135" width="85" height="80" fill="#202C5F"/>
<rect x="541" y="25" width="85" height="80" fill="#202C5F"/>
<path d="M398 215H436.181C455.511 215 471.181 230.67 471.181 250C471.181 269.33 486.851 285 506.181 285H541" stroke="#202C5F" stroke-width="5"/>
<path d="M258 215H218.283C198.953 215 183.283 230.67 183.283 250C183.283 269.33 167.613 285 148.283 285H112" stroke="#202C5F" stroke-width="5"/>
<path d="M258 135L218.283 135C198.953 135 183.283 119.33 183.283 100C183.283 80.67 167.613 65 148.283 65L112 65" stroke="#202C5F" stroke-width="5"/>
<path d="M398 135L436.181 135C455.511 135 471.181 119.33 471.181 100C471.181 80.67 486.851 65 506.181 65L541 65" stroke="#202C5F" stroke-width="5"/>
<rect x="257" y="104" width="141" height="141" fill="#202C5F"/>
<g filter="url(#filter0_d_8472_504)">
<path d="M331.97 178.462C328.35 182.084 328.35 187.955 331.97 191.578C335.593 195.197 341.463 195.197 345.083 191.578C348.706 187.955 348.706 182.084 345.083 178.462C341.463 174.842 335.593 174.842 331.97 178.462ZM341.773 188.273C341.347 188.7 340.841 189.038 340.284 189.269C339.727 189.5 339.13 189.619 338.527 189.619C337.924 189.619 337.326 189.5 336.769 189.269C336.212 189.038 335.706 188.7 335.28 188.273C334.854 187.847 334.515 187.341 334.285 186.784C334.054 186.227 333.935 185.63 333.935 185.027C333.935 184.425 334.054 183.828 334.285 183.271C334.515 182.714 334.854 182.208 335.28 181.782C335.706 181.355 336.212 181.017 336.769 180.786C337.326 180.555 337.924 180.436 338.527 180.436C339.13 180.436 339.727 180.555 340.284 180.786C340.841 181.017 341.347 181.355 341.773 181.782C343.566 183.566 343.566 186.48 341.773 188.273ZM344.93 132.834L339.248 138.515C338.713 139.054 338.413 139.783 338.413 140.542C338.413 141.302 338.713 142.03 339.248 142.569L361.431 164.753C361.97 165.288 362.699 165.588 363.458 165.588C364.218 165.588 364.946 165.288 365.485 164.753L371.167 159.071C372.278 157.96 372.278 156.13 371.167 155.02L348.974 132.833C348.436 132.299 347.709 132 346.952 132C346.194 132 345.468 132.3 344.93 132.834ZM305.121 205.44C305.606 204.953 305.878 204.295 305.878 203.608C305.878 202.921 305.606 202.263 305.121 201.776L302.235 198.887C301.748 198.403 301.089 198.131 300.402 198.131C299.715 198.131 299.056 198.403 298.569 198.887L292.604 204.855L292.593 204.863L290.957 203.224C290.051 202.318 288.577 202.318 287.68 203.224C286.773 204.13 286.773 205.604 287.68 206.502L297.51 216.329C297.724 216.545 297.98 216.715 298.261 216.832C298.542 216.948 298.843 217.008 299.147 217.008C299.451 217.008 299.752 216.948 300.033 216.832C300.314 216.715 300.57 216.545 300.784 216.329C301.681 215.423 301.69 213.949 300.784 213.054L299.146 211.416L299.157 211.407L305.121 205.44Z" fill="#F5A800"/>
<path d="M335.182 149.144L322.56 161.766C321.438 162.887 321.438 164.734 322.56 165.855L330.354 173.647C335.863 169.682 343.589 170.173 348.545 175.133L354.858 168.82C355.977 167.699 355.977 165.855 354.858 164.734L339.269 149.144C339.001 148.875 338.683 148.662 338.332 148.517C337.981 148.372 337.606 148.297 337.226 148.297C336.847 148.297 336.471 148.372 336.12 148.517C335.77 148.662 335.45 148.875 335.182 149.144ZM327.077 176.933L322.473 172.329C321.394 171.251 319.626 171.251 318.551 172.329L302.314 188.572C301.797 189.093 301.506 189.799 301.506 190.534C301.506 191.269 301.797 191.974 302.314 192.496L311.513 201.695C312.035 202.213 312.74 202.504 313.476 202.504C314.211 202.504 314.916 202.213 315.438 201.695L325.879 191.237C323.672 186.676 324.068 181.167 327.077 176.933Z" fill="#425CC7"/>
</g>
<rect x="27" y="25" width="85" height="80" fill="#202C5F"/>
<path d="M50.8219 46.9432C43.0594 54.8676 43.0594 67.715 50.8219 75.6427C57.7238 82.6873 68.4394 83.4688 76.1884 77.9841L86.7083 88.7235C88.3756 90.4255 91.0823 90.4255 92.7496 88.7235C94.4168 87.0216 94.4168 84.2606 92.7496 82.5587L82.0103 71.5959C86.5092 63.8137 85.4832 53.6292 78.9357 46.9432C71.1732 39.0189 58.5844 39.0189 50.8219 46.9432ZM72.8944 53.1081C77.3224 57.6285 77.3224 64.954 72.8944 69.4744C68.4664 73.9949 61.2878 73.9949 56.8632 69.4744C52.4351 64.954 52.4351 57.6285 56.8632 53.1081C61.2912 48.5876 68.4698 48.5876 72.8944 53.1081Z" fill="white"/>
<path d="M592.784 41H564L564.063 86H605.103L605.04 53.2557L592.784 41Z" fill="#F5A800"/>
<path d="M592.762 41V53.278H605.04L592.762 41Z" fill="#425CC7"/>
<path d="M588.607 49.1167H572.203V53.2153H588.607V49.1167Z" fill="white"/>
<path d="M596.866 57.3096H572.203V61.4082H596.866V57.3096Z" fill="white"/>
<path d="M596.866 65.5068H572.203V69.6055H596.866V65.5068Z" fill="white"/>
<path d="M596.866 73.6997H572.203V77.7983H596.866V73.6997Z" fill="white"/>
<path d="M579.835 162.88C572.955 164.124 569.684 167.629 570.248 173.396H576V189H561V175.77C561 163.219 566.977 157.905 578.368 157L579.835 162.88Z" fill="white"/>
<path d="M606 162.88C599.12 164.124 595.85 167.629 596.301 173.396H602.165V189H587.165V175.77C587.166 163.219 593.143 157.905 604.534 157L606 162.88Z" fill="white"/>
</g>
<defs>
<filter id="filter0_d_8472_504" x="277" y="122" width="125" height="125.008" filterUnits="userSpaceOnUse" color-interpolation-filters="sRGB">
<feFlood flood-opacity="0" result="BackgroundImageFix"/>
<feColorMatrix in="SourceAlpha" type="matrix" values="0 0 0 0 0 0 0 0 0 0 0 0 0 0 0 0 0 0 127 0" result="hardAlpha"/>
<feOffset dx="10" dy="10"/>
<feGaussianBlur stdDeviation="10"/>
<feComposite in2="hardAlpha" operator="out"/>
<feColorMatrix type="matrix" values="0 0 0 0 0 0 0 0 0 0 0 0 0 0 0 0 0 0 0.1 0"/>
<feBlend mode="normal" in2="BackgroundImageFix" result="effect1_dropShadow_8472_504"/>
<feBlend mode="normal" in="SourceGraphic" in2="effect1_dropShadow_8472_504" result="shape"/>
</filter>
<clipPath id="clip0_8472_504">
<rect width="654" height="350" fill="white"/>
</clipPath>
</defs>
</svg>
