<svg width="654" height="350" viewBox="0 0 654 350" fill="none" xmlns="http://www.w3.org/2000/svg">
<g clip-path="url(#clip0_8472_548)">
<rect width="654" height="350" fill="#202C5F"/>
<rect x="524" width="130" height="350" fill="#F57B00"/>
<rect x="509" width="106" height="350" fill="#E34800"/>
<rect x="540" y="66" width="40" height="218" rx="4" fill="#E37900"/>
<rect x="536" y="66" width="40" height="218" rx="4" fill="#F5A800"/>
<rect x="537" y="183" width="26" height="6" rx="3" fill="#D9D9D9"/>
<rect x="537" y="161" width="26" height="6" rx="3" fill="#D9D9D9"/>
<path d="M508.04 102H423C406.431 102 393 115.431 393 132V217.04C393 233.609 406.431 247.04 423 247.04H508.04C524.609 247.04 538.04 233.609 538.04 217.04V132C538.04 115.431 524.609 102 508.04 102Z" fill="#D1D1D1"/>
<path d="M528.04 102H443C426.431 102 413 115.431 413 132V217.04C413 233.609 426.431 247.04 443 247.04H528.04C544.609 247.04 558.04 233.609 558.04 217.04V132C558.04 115.431 544.609 102 528.04 102Z" fill="white"/>
<g filter="url(#filter0_d_8472_548)">
<path d="M487.738 178.089C484.458 181.37 484.458 186.689 487.738 189.97C491.019 193.249 496.337 193.249 499.617 189.97C502.898 186.689 502.898 181.37 499.617 178.089C496.337 174.81 491.019 174.81 487.738 178.089ZM496.618 186.977C496.232 187.363 495.774 187.67 495.269 187.879C494.764 188.088 494.223 188.196 493.677 188.196C493.131 188.196 492.59 188.088 492.085 187.879C491.581 187.67 491.122 187.363 490.736 186.977C490.35 186.591 490.043 186.132 489.834 185.628C489.625 185.123 489.518 184.583 489.518 184.037C489.518 183.491 489.625 182.95 489.834 182.445C490.043 181.941 490.35 181.483 490.736 181.097C491.122 180.71 491.581 180.403 492.085 180.194C492.59 179.985 493.131 179.877 493.677 179.877C494.223 179.877 494.764 179.985 495.269 180.194C495.774 180.403 496.232 180.71 496.618 181.097C498.242 182.713 498.242 185.353 496.618 186.977ZM499.478 136.755L494.33 141.902C493.846 142.39 493.574 143.05 493.574 143.738C493.574 144.426 493.846 145.086 494.33 145.575L514.426 165.67C514.914 166.155 515.574 166.427 516.262 166.427C516.95 166.427 517.61 166.155 518.098 165.67L523.245 160.523C524.252 159.516 524.252 157.859 523.245 156.853L503.141 136.755C502.654 136.271 501.995 136 501.309 136C500.623 136 499.965 136.272 499.478 136.755ZM463.416 202.528C463.855 202.087 464.101 201.491 464.101 200.868C464.101 200.246 463.855 199.65 463.416 199.209L460.801 196.592C460.36 196.153 459.763 195.907 459.14 195.907C458.518 195.907 457.921 196.153 457.48 196.592L452.077 201.998L452.067 202.006L450.585 200.521C449.764 199.7 448.428 199.7 447.616 200.521C446.795 201.341 446.795 202.677 447.616 203.49L456.52 212.392C456.715 212.587 456.946 212.742 457.201 212.848C457.455 212.953 457.728 213.008 458.004 213.008C458.279 213.008 458.552 212.953 458.807 212.848C459.061 212.742 459.292 212.587 459.487 212.392C460.3 211.572 460.308 210.236 459.487 209.426L458.003 207.941L458.013 207.934L463.416 202.528Z" fill="#F5A800"/>
<path d="M490.647 151.53L479.213 162.964C478.197 163.98 478.197 165.653 479.213 166.669L486.274 173.728C491.264 170.136 498.263 170.58 502.753 175.073L508.471 169.355C509.485 168.339 509.485 166.669 508.471 165.653L494.35 151.53C494.107 151.287 493.818 151.094 493.501 150.963C493.183 150.831 492.843 150.763 492.499 150.763C492.155 150.763 491.815 150.831 491.497 150.963C491.18 151.094 490.89 151.287 490.647 151.53ZM483.305 176.704L479.134 172.533C478.157 171.557 476.556 171.557 475.581 172.533L460.873 187.248C460.404 187.72 460.141 188.359 460.141 189.025C460.141 189.691 460.404 190.33 460.873 190.802L469.206 199.136C469.679 199.605 470.318 199.869 470.984 199.869C471.65 199.869 472.289 199.605 472.761 199.136L482.22 189.662C480.221 185.53 480.579 180.54 483.305 176.704Z" fill="#425CC7"/>
</g>
<rect x="332" y="89" width="26" height="6" rx="3" fill="#D9D9D9"/>
<rect x="332" y="67" width="26" height="6" rx="3" fill="#D9D9D9"/>
<path d="M286 81.5C286 65.7599 298.76 53 314.5 53H329C334.523 53 339 57.4772 339 63V100C339 105.523 334.523 110 329 110H314.5C298.76 110 286 97.2401 286 81.5V81.5Z" fill="#E34800"/>
<path d="M304 81.5C304 68.5213 314.521 58 327.5 58H328.8C332.224 58 335 60.7758 335 64.2V98.8C335 102.224 332.224 105 328.8 105H327.5C314.521 105 304 94.4787 304 81.5V81.5Z" fill="#F57B00"/>
<rect x="281" y="72" width="19" height="19" rx="4" fill="#F57B00"/>
<rect x="312" y="269" width="26" height="6" rx="3" fill="#D9D9D9"/>
<rect x="312" y="247" width="26" height="6" rx="3" fill="#D9D9D9"/>
<path d="M266 261.5C266 245.76 278.76 233 294.5 233H309C314.523 233 319 237.477 319 243V280C319 285.523 314.523 290 309 290H294.5C278.76 290 266 277.24 266 261.5V261.5Z" fill="#233CA7"/>
<path d="M284 261.5C284 248.521 294.521 238 307.5 238H308.8C312.224 238 315 240.776 315 244.2V278.8C315 282.224 312.224 285 308.8 285H307.5C294.521 285 284 274.479 284 261.5V261.5Z" fill="#5777FF"/>
<rect x="261" y="252" width="19" height="19" rx="4" fill="#5777FF"/>
<rect x="381" y="185" width="26" height="6" rx="3" fill="white"/>
<rect x="381" y="163" width="26" height="6" rx="3" fill="white"/>
<path d="M352 177.5C352 161.76 364.76 149 380.5 149H395C400.523 149 405 153.477 405 159V196C405 201.523 400.523 206 395 206H380.5C364.76 206 352 193.24 352 177.5V177.5Z" fill="#E37900"/>
<path d="M370 177.5C370 164.521 380.521 154 393.5 154H394.8C398.224 154 401 156.776 401 160.2V194.8C401 198.224 398.224 201 394.8 201H393.5C380.521 201 370 190.479 370 177.5V177.5Z" fill="#F5A800"/>
<rect x="347" y="168" width="19" height="19" rx="4" fill="#F5A800"/>
<path d="M-35 311H89C100.046 311 109 302.046 109 291V281.5C109 270.454 117.954 261.5 129 261.5H269.5" stroke="#4F62AE" stroke-width="7" stroke-linecap="round"/>
<path d="M-55 21H140.27C151.316 21 160.27 29.9543 160.27 41V62C160.27 73.0457 169.224 82 180.27 82H289" stroke="#4F62AE" stroke-width="7" stroke-linecap="round"/>
<path d="M-28 117H207.27C218.316 117 227.27 125.954 227.27 137V158C227.27 169.046 236.224 178 247.27 178H356" stroke="#4F62AE" stroke-width="7" stroke-linecap="round"/>
</g>
<defs>
<filter id="filter0_d_8472_548" x="437" y="126" width="117" height="117.008" filterUnits="userSpaceOnUse" color-interpolation-filters="sRGB">
<feFlood flood-opacity="0" result="BackgroundImageFix"/>
<feColorMatrix in="SourceAlpha" type="matrix" values="0 0 0 0 0 0 0 0 0 0 0 0 0 0 0 0 0 0 127 0" result="hardAlpha"/>
<feOffset dx="10" dy="10"/>
<feGaussianBlur stdDeviation="10"/>
<feComposite in2="hardAlpha" operator="out"/>
<feColorMatrix type="matrix" values="0 0 0 0 0 0 0 0 0 0 0 0 0 0 0 0 0 0 0.1 0"/>
<feBlend mode="normal" in2="BackgroundImageFix" result="effect1_dropShadow_8472_548"/>
<feBlend mode="normal" in="SourceGraphic" in2="effect1_dropShadow_8472_548" result="shape"/>
</filter>
<clipPath id="clip0_8472_548">
<rect width="654" height="350" fill="white"/>
</clipPath>
</defs>
</svg>
