<svg width="131" height="131" viewBox="0 0 131 131" fill="none" xmlns="http://www.w3.org/2000/svg">
<path d="M78.1172 21.9133H41C39.067 21.9133 37.5 23.4803 37.5 25.4133V55.4133C37.5 57.3463 39.067 58.9133 41 58.9133H90.1172C99.2299 58.9133 106.617 66.3006 106.617 75.4133V105.413C106.617 114.526 99.2299 121.913 90.1172 121.913H53V108.913H90.1172C92.0502 108.913 93.6172 107.346 93.6172 105.413V75.4133C93.6172 73.4803 92.0502 71.9133 90.1172 71.9133H41C31.8873 71.9133 24.5 64.526 24.5 55.4133V25.4133C24.5 16.3006 31.8873 8.91333 41 8.91333H78.1172V21.9133Z" fill="#F5A800"/>
<path fill-rule="evenodd" clip-rule="evenodd" d="M16.6172 110.413C17.3109 110.413 17.9399 110.543 18.5029 110.801C19.0657 111.058 19.5435 111.412 19.9355 111.863C20.3378 112.314 20.6498 112.845 20.8711 113.453C21.0921 114.051 21.2021 114.696 21.2021 115.386V115.414C21.2021 116.104 21.0923 116.754 20.8711 117.361C20.6498 117.969 20.3378 118.499 19.9355 118.95C19.5333 119.401 19.0448 119.76 18.4717 120.027C17.9087 120.285 17.2796 120.413 16.5859 120.413C15.8923 120.413 15.2632 120.285 14.7002 120.027C14.1371 119.77 13.6542 119.414 13.252 118.963C12.8498 118.512 12.5376 117.987 12.3164 117.389C12.1053 116.781 12 116.132 12 115.441V115.414C12 114.724 12.11 114.074 12.3311 113.467C12.5522 112.859 12.8647 112.33 13.2666 111.879C13.6689 111.428 14.1536 111.072 14.7168 110.814C15.2898 110.548 15.9236 110.413 16.6172 110.413ZM16.5859 111.947C16.1739 111.947 15.8014 112.039 15.4697 112.223C15.1479 112.398 14.872 112.643 14.6406 112.956C14.4094 113.26 14.2284 113.623 14.0977 114.047C13.9771 114.461 13.9151 114.907 13.915 115.386V115.414C13.9151 115.893 13.977 116.345 14.0977 116.769C14.2284 117.182 14.4095 117.547 14.6406 117.859C14.8817 118.172 15.1677 118.421 15.499 118.604C15.8309 118.789 16.2049 118.881 16.6172 118.881C17.029 118.881 17.3963 118.793 17.7178 118.618C18.0493 118.434 18.3304 118.189 18.5615 117.886C18.7928 117.573 18.9692 117.209 19.0898 116.795C19.2206 116.371 19.2871 115.92 19.2871 115.441V115.414C19.2871 114.935 19.2205 114.488 19.0898 114.074C18.9591 113.651 18.7781 113.283 18.5469 112.97C18.3155 112.657 18.0285 112.407 17.6865 112.223C17.355 112.039 16.9877 111.947 16.5859 111.947Z" fill="white"/>
<path fill-rule="evenodd" clip-rule="evenodd" d="M33.5156 110.413C34.2093 110.413 34.8383 110.543 35.4014 110.801C35.9641 111.058 36.442 111.413 36.834 111.863C37.2362 112.314 37.5483 112.845 37.7695 113.453C37.9905 114.051 38.1015 114.696 38.1016 115.386V115.414C38.1015 116.104 37.9907 116.754 37.7695 117.361C37.5483 117.969 37.2363 118.499 36.834 118.95C36.4317 119.401 35.9433 119.76 35.3701 120.027C34.807 120.285 34.1781 120.413 33.4844 120.413C32.7907 120.413 32.1617 120.285 31.5986 120.027C31.0356 119.77 30.5536 119.414 30.1514 118.963C29.7492 118.512 29.4371 117.987 29.2158 117.389C29.0047 116.781 28.8985 116.132 28.8984 115.441V115.414C28.8984 114.724 29.0093 114.074 29.2305 113.467C29.4517 112.859 29.7639 112.33 30.166 111.879C30.5683 111.428 31.052 111.072 31.6152 110.814C32.1883 110.548 32.822 110.413 33.5156 110.413ZM33.4844 111.947C33.0723 111.947 32.6999 112.039 32.3682 112.223C32.0464 112.398 31.7713 112.643 31.54 112.956C31.3087 113.26 31.1268 113.623 30.9961 114.047C30.8755 114.461 30.8145 114.907 30.8145 115.386V115.414C30.8145 115.893 30.8754 116.345 30.9961 116.769C31.1268 117.182 31.3089 117.547 31.54 117.859C31.781 118.172 32.0663 118.421 32.3975 118.604C32.7294 118.789 33.1033 118.881 33.5156 118.881C33.9278 118.881 34.2955 118.793 34.6172 118.618C34.9487 118.434 35.2288 118.189 35.46 117.886C35.6913 117.573 35.8686 117.209 35.9893 116.795C36.1199 116.371 36.1855 115.92 36.1855 115.441V115.414C36.1855 114.935 36.1199 114.488 35.9893 114.074C35.8585 113.651 35.6766 113.283 35.4453 112.97C35.2141 112.657 34.9278 112.407 34.5859 112.223C34.2543 112.039 33.8863 111.947 33.4844 111.947Z" fill="white"/>
<path fill-rule="evenodd" clip-rule="evenodd" d="M50.4141 110.413C51.1076 110.413 51.7368 110.543 52.2998 110.801C52.8626 111.059 53.3414 111.412 53.7334 111.863C54.1356 112.314 54.4477 112.845 54.6689 113.453C54.8899 114.051 54.9999 114.696 55 115.386V115.414C55 116.104 54.8901 116.754 54.6689 117.361C54.4477 117.969 54.1357 118.499 53.7334 118.95C53.3311 119.401 52.8418 119.76 52.2686 120.027C51.7055 120.285 51.0765 120.413 50.3828 120.413C49.6892 120.413 49.0601 120.285 48.4971 120.027C47.9341 119.77 47.452 119.414 47.0498 118.963C46.6476 118.512 46.3355 117.987 46.1143 117.389C45.9032 116.781 45.7979 116.132 45.7979 115.441V115.414C45.7979 114.724 45.9078 114.074 46.1289 113.467C46.3501 112.859 46.6624 112.33 47.0645 111.879C47.4667 111.428 47.9505 111.072 48.5137 110.814C49.0867 110.548 49.7205 110.413 50.4141 110.413ZM50.3828 111.947C49.9709 111.947 49.5982 112.039 49.2666 112.223C48.9449 112.398 48.6697 112.643 48.4385 112.956C48.2072 113.26 48.0262 113.623 47.8955 114.047C47.7749 114.461 47.7129 114.907 47.7129 115.386V115.414C47.7129 115.893 47.7748 116.345 47.8955 116.769C48.0262 117.182 48.2074 117.547 48.4385 117.859C48.6795 118.172 48.9656 118.421 49.2969 118.604C49.6286 118.788 50.002 118.881 50.4141 118.881C50.8261 118.881 51.194 118.793 51.5156 118.618C51.8472 118.434 52.1282 118.189 52.3594 117.886C52.5906 117.573 52.767 117.209 52.8877 116.795C53.0184 116.371 53.0849 115.92 53.085 115.441V115.414C53.085 114.935 53.0183 114.488 52.8877 114.074C52.757 113.651 52.5759 113.283 52.3447 112.97C52.1134 112.657 51.8263 112.407 51.4844 112.223C51.1527 112.039 50.7848 111.947 50.3828 111.947Z" fill="white"/>
<path d="M26.584 120.248H24.7422V112.237L22.8418 112.72L22.4492 111.339L25.2852 110.511H26.584V120.248Z" fill="white"/>
<path d="M43.4824 120.248H41.6406V112.237L39.7402 112.72L39.3477 111.339L42.1846 110.511H43.4824V120.248Z" fill="white"/>
<path fill-rule="evenodd" clip-rule="evenodd" d="M80.6172 10.4131C81.3109 10.4132 81.9399 10.5431 82.5029 10.8008C83.0657 11.0585 83.5435 11.4125 83.9355 11.8633C84.3378 12.3144 84.6498 12.8454 84.8711 13.4531C85.0921 14.0512 85.2021 14.6957 85.2021 15.3857V15.4141C85.2021 16.1045 85.0923 16.7538 84.8711 17.3613C84.6498 17.969 84.3378 18.499 83.9355 18.9502C83.5333 19.4013 83.0448 19.7604 82.4717 20.0273C81.9087 20.285 81.2796 20.413 80.5859 20.4131C79.8923 20.413 79.2632 20.285 78.7002 20.0273C78.1371 19.7695 77.6542 19.414 77.252 18.9629C76.8498 18.5118 76.5376 17.987 76.3164 17.3887C76.1053 16.7811 76 16.1318 76 15.4414V15.4141C76 14.7237 76.11 14.0743 76.3311 13.4668C76.5522 12.8594 76.8647 12.3299 77.2666 11.8789C77.6689 11.4277 78.1536 11.0723 78.7168 10.8145C79.2898 10.5477 79.9236 10.4131 80.6172 10.4131ZM80.5859 11.9473C80.1739 11.9474 79.8014 12.0387 79.4697 12.2227C79.1479 12.3976 78.872 12.643 78.6406 12.9561C78.4094 13.2599 78.2284 13.6234 78.0977 14.0469C77.9771 14.461 77.9151 14.9073 77.915 15.3857V15.4141C77.9151 15.8928 77.977 16.3451 78.0977 16.7686C78.2284 17.1824 78.4095 17.5466 78.6406 17.8594C78.8817 18.1719 79.1677 18.4205 79.499 18.6045C79.8309 18.7886 80.2049 18.8809 80.6172 18.8809C81.029 18.8807 81.3963 18.7928 81.7178 18.6182C82.0493 18.4341 82.3304 18.1893 82.5615 17.8857C82.7928 17.5727 82.9692 17.2092 83.0898 16.7949C83.2206 16.3714 83.2871 15.9201 83.2871 15.4414V15.4141C83.2871 14.9354 83.2205 14.4885 83.0898 14.0742C82.9591 13.6509 82.7781 13.2827 82.5469 12.9697C82.3155 12.6567 82.0285 12.4068 81.6865 12.2227C81.355 12.0389 80.9877 11.9473 80.5859 11.9473Z" fill="white"/>
<path fill-rule="evenodd" clip-rule="evenodd" d="M97.5156 10.4131C98.2093 10.4132 98.8383 10.5431 99.4014 10.8008C99.9641 11.0585 100.442 11.4125 100.834 11.8633C101.236 12.3144 101.548 12.8455 101.77 13.4531C101.991 14.0512 102.101 14.6957 102.102 15.3857V15.4141C102.102 16.1045 101.991 16.7537 101.77 17.3613C101.548 17.969 101.236 18.499 100.834 18.9502C100.432 19.4012 99.9433 19.7604 99.3701 20.0273C98.807 20.285 98.1781 20.4131 97.4844 20.4131C96.7907 20.413 96.1617 20.2851 95.5986 20.0273C95.0356 19.7695 94.5536 19.414 94.1514 18.9629C93.7492 18.5118 93.4371 17.9871 93.2158 17.3887C93.0047 16.7811 92.8985 16.1318 92.8984 15.4414V15.4141C92.8984 14.7237 93.0093 14.0744 93.2305 13.4668C93.4517 12.8593 93.7639 12.33 94.166 11.8789C94.5683 11.4277 95.052 11.0723 95.6152 10.8145C96.1883 10.5477 96.822 10.4131 97.5156 10.4131ZM97.4844 11.9473C97.0723 11.9474 96.6999 12.0387 96.3682 12.2227C96.0464 12.3976 95.7713 12.6431 95.54 12.9561C95.3087 13.2599 95.1268 13.6233 94.9961 14.0469C94.8755 14.4609 94.8145 14.9073 94.8145 15.3857V15.4141C94.8145 15.8928 94.8754 16.3451 94.9961 16.7686C95.1268 17.1824 95.3089 17.5466 95.54 17.8594C95.781 18.1717 96.0663 18.4206 96.3975 18.6045C96.7294 18.7887 97.1033 18.8809 97.5156 18.8809C97.9278 18.8808 98.2955 18.793 98.6172 18.6182C98.9487 18.4341 99.2288 18.1893 99.46 17.8857C99.6913 17.5727 99.8686 17.2093 99.9893 16.7949C100.12 16.3715 100.186 15.9201 100.186 15.4414V15.4141C100.186 14.9355 100.12 14.4884 99.9893 14.0742C99.8585 13.6508 99.6766 13.2827 99.4453 12.9697C99.2141 12.6567 98.9278 12.4068 98.5859 12.2227C98.2543 12.0388 97.8863 11.9473 97.4844 11.9473Z" fill="white"/>
<path fill-rule="evenodd" clip-rule="evenodd" d="M114.414 10.4131C115.108 10.4132 115.737 10.5432 116.3 10.8008C116.863 11.0585 117.341 11.4125 117.733 11.8633C118.136 12.3144 118.448 12.8455 118.669 13.4531C118.89 14.0512 119 14.6957 119 15.3857V15.4141C119 16.1044 118.89 16.7538 118.669 17.3613C118.448 17.969 118.136 18.499 117.733 18.9502C117.331 19.4014 116.842 19.7603 116.269 20.0273C115.706 20.2849 115.076 20.4131 114.383 20.4131C113.689 20.413 113.06 20.2851 112.497 20.0273C111.934 19.7695 111.452 19.414 111.05 18.9629C110.648 18.5118 110.335 17.987 110.114 17.3887C109.903 16.7811 109.798 16.1318 109.798 15.4414V15.4141C109.798 14.7237 109.908 14.0744 110.129 13.4668C110.35 12.8593 110.662 12.33 111.064 11.8789C111.467 11.4277 111.95 11.0723 112.514 10.8145C113.087 10.5477 113.72 10.4131 114.414 10.4131ZM114.383 11.9473C113.971 11.9474 113.598 12.0387 113.267 12.2227C112.945 12.3976 112.67 12.6431 112.438 12.9561C112.207 13.2599 112.026 13.6234 111.896 14.0469C111.775 14.461 111.713 14.9073 111.713 15.3857V15.4141C111.713 15.8928 111.775 16.3451 111.896 16.7686C112.026 17.1824 112.207 17.5466 112.438 17.8594C112.68 18.1718 112.966 18.4206 113.297 18.6045C113.629 18.7885 114.002 18.8808 114.414 18.8809C114.826 18.8808 115.194 18.793 115.516 18.6182C115.847 18.4341 116.128 18.1893 116.359 17.8857C116.591 17.5727 116.767 17.2091 116.888 16.7949C117.018 16.3715 117.085 15.9201 117.085 15.4414V15.4141C117.085 14.9354 117.018 14.4884 116.888 14.0742C116.757 13.651 116.576 13.2826 116.345 12.9697C116.113 12.6567 115.826 12.4068 115.484 12.2227C115.153 12.0388 114.785 11.9473 114.383 11.9473Z" fill="white"/>
<path d="M90.584 20.248H88.7422V12.2373L86.8418 12.7197L86.4492 11.3389L89.2852 10.5107H90.584V20.248Z" fill="white"/>
<path d="M107.482 20.248H105.641V12.2373L103.74 12.7197L103.348 11.3389L106.185 10.5107H107.482V20.248Z" fill="white"/>
<path d="M56.7109 123.342H51.1699V107H56.7109V123.342Z" fill="#E34800"/>
<path d="M80 123.342H74.459V107H80V123.342Z" fill="#E34800"/>
<path d="M108 105.586H91.6582V100.045H108V105.586Z" fill="#E34800"/>
<path d="M108 82.2969H91.6582V76.7559H108V82.2969Z" fill="#E34800"/>
<path d="M56.7109 73.3418H51.1699V57H56.7109V73.3418Z" fill="#E34800"/>
<path d="M80 73.3418H74.459V57H80V73.3418Z" fill="#E34800"/>
<path d="M39 55.5859H22.6582V50.0449H39V55.5859Z" fill="#E34800"/>
<path d="M39 32.2969H22.6582V26.7559H39V32.2969Z" fill="#E34800"/>
<path d="M56.7109 23.3418H51.1699V7H56.7109V23.3418Z" fill="#E34800"/>
<path d="M80 23.3418H74.459V7H80V23.3418Z" fill="#E34800"/>
</svg>
