<svg width="131" height="131" viewBox="0 0 131 131" fill="none" xmlns="http://www.w3.org/2000/svg">
<path d="M12.1465 108.02V84.5957H5C2.23858 84.5957 0 82.3571 0 79.5957V43.6162C0 40.8548 2.23858 38.6162 5 38.6162H66.1387C68.9001 38.6162 71.1387 40.8548 71.1387 43.6162V79.5957C71.1387 82.3571 68.9001 84.5957 66.1387 84.5957H35.5703L12.1465 108.02Z" fill="#425CC7"/>
<path d="M95.4297 68.9805H64.8613C62.1 68.9805 59.8615 66.7418 59.8613 63.9805V28C59.8614 25.2386 62.0999 23 64.8613 23H126C128.761 23 131 25.2386 131 28V63.9805C131 66.7418 128.761 68.9805 126 68.9805H118.854V92.4043L95.4297 68.9805Z" fill="#F5A800"/>
<path fill-rule="evenodd" clip-rule="evenodd" d="M47.9834 73.084H41.6338L40.2891 68.6768H31.917L30.6064 73.084H24.291L32.3076 48.8701H39.9678L47.9834 73.084ZM33.3398 63.6191H38.8662L36.124 53.7031L33.3398 63.6191Z" fill="white"/>
<path d="M97.4346 29.9404C97.5126 29.9405 97.5901 29.9562 97.6621 29.9863C97.7342 30.0165 97.7997 30.0606 97.8545 30.1162C97.9093 30.1719 97.9523 30.238 97.9814 30.3105C98.0106 30.3831 98.0256 30.4609 98.0244 30.5391V32.4824H106.491C106.569 32.4824 106.647 32.4982 106.719 32.5283C106.791 32.5585 106.856 32.6026 106.911 32.6582C106.966 32.7139 107.01 32.78 107.039 32.8525C107.068 32.9251 107.082 33.0029 107.081 33.0811V36.9502C107.081 37.1067 107.019 37.2566 106.908 37.3672C106.798 37.4778 106.648 37.54 106.491 37.54H105.146C104.969 38.6804 104.705 39.8058 104.357 40.9062V40.958C103.959 42.1994 103.454 43.4043 102.848 44.5586C102.292 45.5882 101.671 46.582 100.991 47.5342C100.41 48.4017 99.7674 49.1824 99.082 49.9893C100.062 51.1744 101.13 52.2856 102.275 53.3125C103.662 54.5046 105.138 55.5892 106.69 56.5566C106.756 56.5981 106.814 56.6523 106.858 56.7158C106.903 56.7792 106.934 56.8511 106.951 56.9268C106.968 57.0024 106.97 57.0808 106.957 57.1572C106.944 57.2336 106.915 57.3067 106.873 57.3721L104.8 60.6084C104.757 60.6797 104.699 60.7411 104.631 60.7891C104.563 60.8369 104.486 60.8704 104.404 60.8867C104.323 60.903 104.238 60.9018 104.157 60.8838C104.076 60.8657 103.999 60.8316 103.932 60.7822C102.231 59.7258 100.613 58.5421 99.0908 57.2422C97.8535 56.1382 96.6942 54.9497 95.6211 53.6855C94.5106 54.6745 93.5123 55.6022 92.5146 56.4697C91.3348 57.4414 90.0942 58.3784 88.6367 59.3848C88.5713 59.4352 88.4962 59.4722 88.416 59.4922C88.3359 59.5121 88.2523 59.5148 88.1709 59.501C88.0895 59.4871 88.0114 59.4565 87.9424 59.4111C87.8735 59.3658 87.8145 59.3065 87.7695 59.2373L85.5752 56.0625C85.5247 55.9971 85.4878 55.9219 85.4678 55.8418C85.4478 55.7617 85.4442 55.678 85.458 55.5967C85.4718 55.5153 85.5026 55.4372 85.5479 55.3682C85.5932 55.2991 85.6534 55.2404 85.7227 55.1953C87.1627 54.2063 88.3251 53.2952 89.5049 52.3496C90.5112 51.4821 91.4825 50.6138 92.5322 49.6074C91.6567 48.3687 90.8539 47.0796 90.1289 45.7471C89.3023 44.1618 88.6486 42.4923 88.1777 40.7676C88.1566 40.6931 88.1502 40.615 88.1592 40.5381C88.1682 40.4611 88.1926 40.386 88.2305 40.3184C88.2683 40.2508 88.3191 40.1915 88.3799 40.1436C88.4407 40.0956 88.5104 40.0601 88.585 40.0391L92.29 39.0068C92.3646 38.9858 92.4426 38.9792 92.5195 38.9883C92.5965 38.9974 92.6707 39.0217 92.7383 39.0596C92.806 39.0974 92.8661 39.1481 92.9141 39.209C92.962 39.2698 92.9976 39.3395 93.0186 39.4141C93.6145 41.7038 94.6196 43.8668 95.9854 45.7988L97.0869 44.3242C97.5625 43.6345 98.0004 42.9194 98.3975 42.1816C98.818 41.3703 99.1713 40.5259 99.4551 39.6572C99.683 38.9622 99.8748 38.2552 100.028 37.54H85.2793C85.1222 37.5399 84.9713 37.4784 84.8594 37.3682C84.7474 37.2578 84.6829 37.1074 84.6807 36.9502V33.0459C84.6808 32.8873 84.7443 32.7352 84.8564 32.623C84.9686 32.5109 85.1207 32.4474 85.2793 32.4473L85.2539 32.4824H92.8018V30.5391C92.8018 30.3804 92.8645 30.2284 92.9766 30.1162C93.0888 30.0039 93.2416 29.9404 93.4004 29.9404H97.4346Z" fill="white"/>
</svg>
