<svg width="150" height="150" viewBox="0 0 150 150" fill="none" xmlns="http://www.w3.org/2000/svg">
<path d="M130.25 86.8865L124.928 92.6648L118.152 86.5142C114.133 105.851 95.6583 119.805 74.5112 118.964C61.5725 118.449 50.1799 112.523 42.7368 103.536L48.8403 98.551C54.8732 105.835 64.1802 110.718 74.8632 111.143C92.1061 111.829 106.679 100.724 110.24 85.7734L102.647 92.6648L97.3257 86.8865L113.788 71.9461L130.25 86.8865Z" fill="#425CC7"/>
<path d="M31.3831 63.3191C35.4724 44.0693 53.9025 30.1971 74.9887 31.0361C87.9274 31.5509 99.32 37.476 106.763 46.4628L100.66 51.449C94.6268 44.165 85.3198 39.2823 74.6368 38.8572C57.4932 38.1753 42.9907 49.1488 39.3242 63.969L46.8525 57.1371L52.1743 62.9155L35.7122 77.8559L19.25 62.9155L24.5718 57.1371L31.3831 63.3191Z" fill="#425CC7"/>
<path fill-rule="evenodd" clip-rule="evenodd" d="M79.3095 58.2615C80.9649 58.6608 82.5214 59.3132 83.9347 60.1775L86.949 57.1641L92.3369 62.5519L89.3225 65.5653C90.1868 66.9786 90.8392 68.5351 91.2385 70.1905H95.5V77.8095H91.2385C90.8392 79.4648 90.1858 81.0205 89.3216 82.4338L92.3359 85.4481L86.9481 90.8359L83.9338 87.8216C82.5206 88.6858 80.9647 89.3383 79.3095 89.7375V94H71.6905V89.7375C70.0348 89.3382 68.4779 88.6862 67.0644 87.8216L64.051 90.8359L58.6631 85.4481L61.6765 82.4338C60.8126 81.0207 60.1607 79.4645 59.7615 77.8095H55.5V70.1905H59.7615C60.1608 68.5351 60.8132 66.9786 61.6775 65.5653L58.6641 62.5519L64.0519 57.1641L67.0653 60.1775C68.4786 59.3132 70.0351 58.6608 71.6905 58.2615V54H79.3095V58.2615ZM75.5 65.4286C70.7661 65.4286 66.9286 69.2661 66.9286 74C66.9286 78.7339 70.7661 82.5714 75.5 82.5714C80.2339 82.5714 84.0714 78.7339 84.0714 74C84.0714 69.2661 80.2339 65.4286 75.5 65.4286Z" fill="#F5A800"/>
</svg>
