<svg width="150" height="150" viewBox="0 0 150 150" fill="none" xmlns="http://www.w3.org/2000/svg">
<rect width="150" height="150" fill="#F6F6F6"/>
<rect x="10" y="47.616" width="71.1391" height="45.9801" rx="5" fill="#425CC7"/>
<rect width="71.1391" height="45.9801" rx="5" transform="matrix(-1 0 0 1 141 32.0001)" fill="#F5A800"/>
<path d="M22.1465 117.02V93.5961H45.5703L22.1465 117.02Z" fill="#425CC7"/>
<path d="M128.854 101.404V77.9802H105.43L128.854 101.404Z" fill="#F5A800"/>
<path d="M34.291 82.0837L42.3072 57.8704H49.9676L57.9838 82.0837H51.6333L50.2886 77.6765H41.9168L40.6068 82.0837H34.291ZM43.3396 72.6187H48.8658L46.1244 62.7026L43.3396 72.6187ZM95.2537 41.4824H102.801V39.539C102.801 39.3803 102.864 39.228 102.977 39.1158C103.089 39.0035 103.241 38.9404 103.4 38.9404H107.434C107.512 38.9404 107.59 38.956 107.662 38.9862C107.734 39.0163 107.799 39.0606 107.854 39.1163C107.909 39.172 107.953 39.238 107.982 39.3106C108.011 39.3832 108.025 39.4608 108.024 39.539V41.4824H116.491C116.57 41.4823 116.647 41.4979 116.719 41.5281C116.791 41.5583 116.857 41.6025 116.912 41.6582C116.966 41.7139 117.01 41.78 117.039 41.8525C117.068 41.9251 117.082 42.0028 117.081 42.081V45.9502C117.081 46.1067 117.019 46.2567 116.908 46.3674C116.798 46.478 116.648 46.5402 116.491 46.5402H115.147C114.969 47.6805 114.705 48.8058 114.357 49.9063V49.9583C113.959 51.1997 113.454 52.4043 112.848 53.5586C112.291 54.5883 111.671 55.5821 110.991 56.5343C110.41 57.4019 109.768 58.1827 109.082 58.9895C110.063 60.1746 111.13 61.2853 112.275 62.3122C113.662 63.5046 115.139 64.5893 116.691 65.5569C116.756 65.5984 116.813 65.6524 116.858 65.7159C116.903 65.7794 116.934 65.851 116.951 65.9268C116.968 66.0026 116.97 66.0809 116.957 66.1574C116.943 66.2338 116.915 66.3069 116.873 66.3724L114.8 69.6083C114.757 69.6797 114.699 69.7412 114.631 69.7892C114.563 69.8371 114.486 69.8703 114.404 69.8866C114.323 69.9029 114.238 69.902 114.157 69.884C114.076 69.866 113.999 69.8312 113.932 69.7818C112.232 68.7254 110.613 67.5421 109.091 66.2422C107.854 65.1381 106.694 63.9496 105.621 62.6853C104.51 63.6743 103.513 64.6026 102.515 65.4701C101.335 66.4418 100.095 67.3787 98.6372 68.3851C98.5717 68.4356 98.4965 68.472 98.4163 68.492C98.3361 68.512 98.2526 68.5152 98.1711 68.5013C98.0896 68.4875 98.0118 68.4569 97.9427 68.4115C97.8736 68.3661 97.8147 68.3069 97.7696 68.2376L95.5747 65.0624C95.5242 64.9969 95.4878 64.9217 95.4678 64.8415C95.4478 64.7613 95.4446 64.6778 95.4585 64.5963C95.4723 64.5148 95.5029 64.437 95.5483 64.3679C95.5937 64.2988 95.6529 64.2399 95.7222 64.1948C97.1623 63.2058 98.3249 62.2949 99.5047 61.3492C100.511 60.4817 101.483 59.6141 102.532 58.6078C101.657 57.3689 100.854 56.0798 100.129 54.7472C99.3026 53.1618 98.6482 51.4923 98.1774 49.7674C98.1562 49.6928 98.15 49.6148 98.159 49.5377C98.1681 49.4607 98.1923 49.3862 98.2301 49.3185C98.268 49.2508 98.3188 49.1913 98.3798 49.1433C98.4407 49.0953 98.5105 49.0597 98.5851 49.0387L102.29 48.0063C102.364 47.9852 102.442 47.9789 102.519 47.988C102.596 47.997 102.671 48.0212 102.738 48.0591C102.806 48.0969 102.866 48.1478 102.914 48.2087C102.962 48.2696 102.997 48.3394 103.018 48.4141C103.614 50.7039 104.619 52.8671 105.985 54.7992L107.087 53.3244C107.563 52.6347 108 51.9193 108.397 51.1816C108.818 50.3701 109.172 49.5258 109.456 48.657C109.683 47.9619 109.875 47.2553 110.028 46.5402H95.2798C95.1225 46.5402 94.9715 46.4783 94.8595 46.3679C94.7475 46.2575 94.6834 46.1075 94.6811 45.9502V42.0463C94.6811 41.8875 94.7442 41.7352 94.8565 41.623C94.9687 41.5107 95.121 41.4476 95.2798 41.4476L95.2537 41.4824Z" fill="white"/>
</svg>
