<svg width="131" height="131" viewBox="0 0 131 131" fill="none" xmlns="http://www.w3.org/2000/svg">
<path d="M121 76.8865L115.678 82.6648L108.902 76.5142C104.883 95.8505 86.4083 109.805 65.2612 108.964C52.3225 108.449 40.9299 102.523 33.4868 93.5365L39.5903 88.551C45.6232 95.835 54.9302 100.718 65.6132 101.143C82.8561 101.829 97.4286 90.724 100.99 75.7734L93.3975 82.6648L88.0757 76.8865L104.538 61.9461L121 76.8865Z" fill="#425CC7"/>
<path d="M22.1331 53.3191C26.2224 34.0693 44.6525 20.1971 65.7387 21.0361C78.6774 21.5509 90.07 27.476 97.5132 36.4628L91.4097 41.449C85.3768 34.165 76.0698 29.2823 65.3868 28.8572C48.2432 28.1753 33.7407 39.1488 30.0742 53.969L37.6025 47.1371L42.9243 52.9155L26.4622 67.8559L10 52.9155L15.3218 47.1371L22.1331 53.3191Z" fill="#425CC7"/>
<path fill-rule="evenodd" clip-rule="evenodd" d="M70.0595 48.2615C71.7149 48.6608 73.2714 49.3132 74.6847 50.1775L77.699 47.1641L83.0869 52.5519L80.0725 55.5653C80.9368 56.9786 81.5892 58.5351 81.9885 60.1905H86.25V67.8095H81.9885C81.5892 69.4648 80.9358 71.0205 80.0716 72.4338L83.0859 75.4481L77.6981 80.8359L74.6838 77.8216C73.2706 78.6858 71.7147 79.3383 70.0595 79.7375V84H62.4405V79.7375C60.7848 79.3382 59.2279 78.6862 57.8144 77.8216L54.801 80.8359L49.4131 75.4481L52.4265 72.4338C51.5626 71.0207 50.9107 69.4645 50.5115 67.8095H46.25V60.1905H50.5115C50.9108 58.5351 51.5632 56.9786 52.4275 55.5653L49.4141 52.5519L54.8019 47.1641L57.8153 50.1775C59.2286 49.3132 60.7851 48.6608 62.4405 48.2615V44H70.0595V48.2615ZM66.25 55.4286C61.5161 55.4286 57.6786 59.2661 57.6786 64C57.6786 68.7339 61.5161 72.5714 66.25 72.5714C70.9839 72.5714 74.8214 68.7339 74.8214 64C74.8214 59.2661 70.9839 55.4286 66.25 55.4286Z" fill="#F5A800"/>
</svg>
