<svg width="150" height="150" viewBox="0 0 150 150" fill="none" xmlns="http://www.w3.org/2000/svg">
<rect x="71.4219" y="31.3657" width="5.66595" height="23.2304" fill="#425CC7"/>
<rect x="76.9961" y="118.055" width="5.66595" height="23.2304" transform="rotate(-180 76.9961 118.055)" fill="#425CC7"/>
<rect x="86.6289" y="36.4199" width="5.66595" height="17.5644" transform="rotate(135 86.6289 36.4199)" fill="#425CC7"/>
<rect x="61.7891" y="113" width="5.66595" height="17.5644" transform="rotate(-45 61.7891 113)" fill="#425CC7"/>
<rect x="65.7969" y="40.4265" width="5.66595" height="17.5644" transform="rotate(-135 65.7969 40.4265)" fill="#425CC7"/>
<rect x="82.623" y="108.994" width="5.66595" height="17.5644" transform="rotate(45 82.623 108.994)" fill="#425CC7"/>
<rect x="117.555" y="71.9226" width="5.66595" height="23.2304" transform="rotate(90 117.555 71.9226)" fill="#425CC7"/>
<rect x="30.8652" y="77.4978" width="5.66595" height="23.2304" transform="rotate(-90 30.8652 77.4978)" fill="#425CC7"/>
<rect x="112.5" y="87.1299" width="5.66595" height="17.5644" transform="rotate(-135 112.5 87.1299)" fill="#425CC7"/>
<rect x="35.9199" y="62.2905" width="5.66595" height="17.5644" transform="rotate(45 35.9199 62.2905)" fill="#425CC7"/>
<rect x="108.494" y="66.2964" width="5.66595" height="17.5644" transform="rotate(-45 108.494 66.2964)" fill="#425CC7"/>
<rect x="39.9277" y="83.124" width="5.66595" height="17.5644" transform="rotate(135 39.9277 83.124)" fill="#425CC7"/>
<rect x="102.887" y="42.0898" width="5.66595" height="23.2304" transform="rotate(45 102.887 42.0898)" fill="#425CC7"/>
<rect x="45.5312" y="107.331" width="5.66595" height="23.2304" transform="rotate(-135 45.5312 107.331)" fill="#425CC7"/>
<rect x="110.066" y="56.417" width="5.66595" height="17.5644" transform="rotate(-180 110.066 56.417)" fill="#425CC7"/>
<rect x="38.3535" y="93.0034" width="5.66595" height="17.5644" fill="#425CC7"/>
<rect x="92.502" y="44.5183" width="5.66595" height="17.5644" transform="rotate(-90 92.502 44.5183)" fill="#425CC7"/>
<rect x="55.916" y="104.902" width="5.66595" height="17.5644" transform="rotate(90 55.916 104.902)" fill="#425CC7"/>
<rect x="106.83" y="103.388" width="5.66595" height="23.2304" transform="rotate(135 106.83 103.388)" fill="#425CC7"/>
<rect x="41.5898" y="46.0322" width="5.66595" height="23.2304" transform="rotate(-45 41.5898 46.0322)" fill="#425CC7"/>
<rect x="92.5039" y="110.568" width="5.66595" height="17.5644" transform="rotate(-90 92.5039 110.568)" fill="#425CC7"/>
<rect x="55.916" y="38.8525" width="5.66595" height="17.5644" transform="rotate(90 55.916 38.8525)" fill="#425CC7"/>
<rect x="104.4" y="93.0027" width="5.66595" height="17.5644" fill="#425CC7"/>
<rect x="44.0195" y="56.4177" width="5.66595" height="17.5644" transform="rotate(-180 44.0195 56.4177)" fill="#425CC7"/>
<path fill-rule="evenodd" clip-rule="evenodd" d="M74.0444 62.6501C80.7966 62.6501 86.2704 68.1247 86.2704 74.8769C86.2702 81.629 80.7965 87.103 74.0444 87.103C67.2923 87.103 61.8186 81.629 61.8184 74.8769C61.8184 68.1247 67.2921 62.6501 74.0444 62.6501ZM74.0444 69.7499C71.2128 69.7499 68.9173 72.0454 68.9173 74.8769C68.9176 77.7084 71.2129 80.004 74.0444 80.004C76.8758 80.004 79.1712 77.7084 79.1714 74.8769C79.1714 72.0454 76.876 69.7499 74.0444 69.7499Z" fill="#F5A800"/>
</svg>
