<svg width="131" height="131" viewBox="0 0 131 131" fill="none" xmlns="http://www.w3.org/2000/svg">
<path d="M68.4961 105.621L74.123 99.9941L78.1299 104.001L65.71 116.421L53.2891 104.001L57.2959 99.9941L62.8301 105.528V85.8242H68.4961V105.621Z" fill="#425CC7"/>
<path d="M53.458 81.9043L39.46 95.9014L47.416 95.9023V101.567H29.8516V95.9014H29.8535V84.0039H35.5195V91.8291L49.4512 77.8975L53.458 81.9043Z" fill="#425CC7"/>
<path d="M95.9004 91.959V84.0029H101.566V95.9023H101.568V101.567H84.0039V95.9023H91.8311L77.8975 81.9688L81.9033 77.9619L95.9004 91.959Z" fill="#425CC7"/>
<path d="M31.4268 57.2969L25.8916 62.832H45.5957V68.498H25.8018L31.4277 74.124L27.4209 78.1309L15 65.7109L27.4199 53.291L31.4268 57.2969Z" fill="#425CC7"/>
<path d="M116.421 65.71L112.414 69.7168L112.413 69.7158L104 78.1299L99.9932 74.123L105.527 68.5889H85.8242V62.9229H105.62L99.9941 57.2969L104.001 53.29L116.421 65.71Z" fill="#425CC7"/>
<path d="M101.566 47.417H95.9004V39.5889L81.9668 53.5225L77.96 49.5166L91.958 35.5186H84.002V29.8525H101.566V47.417Z" fill="#425CC7"/>
<path d="M47.416 35.5186H39.5898L53.5225 49.4521L49.5166 53.459L35.5195 39.4619V47.418H29.8535V35.5186H29.8516V29.8525H47.416V35.5186Z" fill="#425CC7"/>
<path d="M78.1289 27.4199L74.1221 31.4268L68.5879 25.8926V45.5957H62.9219V25.8018L57.2969 31.4268L53.29 27.4199L65.71 15L78.1289 27.4199Z" fill="#425CC7"/>
<path fill-rule="evenodd" clip-rule="evenodd" d="M65.5444 53.6501C72.2966 53.6501 77.7704 59.1247 77.7704 65.8769C77.7702 72.629 72.2965 78.103 65.5444 78.103C58.7923 78.103 53.3186 72.629 53.3184 65.8769C53.3184 59.1247 58.7921 53.6501 65.5444 53.6501ZM65.5444 60.7499C62.7128 60.7499 60.4173 63.0454 60.4173 65.8769C60.4176 68.7084 62.7129 71.004 65.5444 71.004C68.3758 71.004 70.6712 68.7084 70.6714 65.8769C70.6714 63.0454 68.376 60.7499 65.5444 60.7499Z" fill="#F5A800"/>
</svg>
