<svg width="150" height="150" viewBox="0 0 150 150" fill="none" xmlns="http://www.w3.org/2000/svg">
<rect width="150" height="150" fill="#F6F6F6"/>
<path d="M88.1172 31.5H51C49.067 31.5 47.5 33.067 47.5 35V65C47.5 66.933 49.067 68.5 51 68.5H100.117C109.23 68.5 116.617 75.8873 116.617 85V115C116.617 124.113 109.23 131.5 100.117 131.5H63V118.5H100.117C102.05 118.5 103.617 116.933 103.617 115V85C103.617 83.067 102.05 81.5 100.117 81.5H51C41.8873 81.5 34.5 74.1127 34.5 65V35C34.5 25.8873 41.8873 18.5 51 18.5H88.1172V31.5Z" fill="#F5A800"/>
<path fill-rule="evenodd" clip-rule="evenodd" d="M90.6169 20C91.3107 20.0001 91.9397 20.13 92.5028 20.3878C93.0655 20.6455 93.5435 20.9992 93.9355 21.45C94.3379 21.9012 94.6498 22.4322 94.8711 23.04C95.0921 23.6381 95.2025 24.2821 95.2026 24.9722V25.0008C95.2025 25.6913 95.0923 26.3406 94.8711 26.9482C94.6498 27.5559 94.3378 28.0853 93.9355 28.5365C93.5332 28.9877 93.0447 29.3469 92.4715 29.6139C91.9084 29.8716 91.2794 30 90.5856 30C89.8919 29.9999 89.2629 29.8716 88.6998 29.6139C88.1368 29.3561 87.6545 29.0011 87.2523 28.55C86.85 28.0988 86.538 27.5737 86.3168 26.9752C86.1056 26.3676 86 25.7183 86 25.0278V25.0008C86 24.3104 86.1103 23.661 86.3315 23.0534C86.5527 22.4459 86.8649 21.9163 87.267 21.4652C87.6693 21.014 88.1532 20.6591 88.7164 20.4013C89.2895 20.1344 89.9232 20 90.6169 20ZM90.5856 21.5343C90.1736 21.5344 89.8013 21.6251 89.4696 21.8091C89.1478 21.9841 88.8722 22.2295 88.6409 22.5426C88.4096 22.8464 88.2283 23.2099 88.0976 23.6335C87.977 24.0476 87.9153 24.4937 87.9153 24.9722V25.0008C87.9153 25.4795 87.9769 25.9313 88.0976 26.3547C88.2283 26.7688 88.4097 27.1327 88.6409 27.4456C88.882 27.7582 89.1677 28.0069 89.4991 28.1909C89.831 28.375 90.2046 28.4674 90.6169 28.4674C91.0291 28.4673 91.3965 28.3792 91.7182 28.2043C92.0498 28.0203 92.3305 27.7762 92.5617 27.4726C92.793 27.1595 92.9695 26.7961 93.0902 26.3817C93.221 25.9581 93.2873 25.5066 93.2873 25.0278V25.0008C93.2873 24.522 93.221 24.0748 93.0902 23.6604C92.9595 23.237 92.7782 22.869 92.547 22.5561C92.3156 22.243 92.0289 21.9933 91.6869 21.8091C91.3552 21.6253 90.9876 21.5343 90.5856 21.5343Z" fill="#425CC7"/>
<path fill-rule="evenodd" clip-rule="evenodd" d="M107.516 20C108.209 20.0001 108.838 20.13 109.401 20.3878C109.964 20.6455 110.442 20.9992 110.834 21.45C111.237 21.9012 111.549 22.4322 111.77 23.04C111.991 23.6381 112.101 24.2821 112.101 24.9722V25.0008C112.101 25.6913 111.991 26.3406 111.77 26.9482C111.549 27.5559 111.237 28.0853 110.834 28.5365C110.432 28.9877 109.943 29.3469 109.37 29.6139C108.807 29.8716 108.178 30 107.484 30C106.791 29.9999 106.162 29.8716 105.599 29.6139C105.035 29.3561 104.553 29.0011 104.151 28.55C103.749 28.0988 103.437 27.5737 103.215 26.9752C103.004 26.3676 102.899 25.7183 102.899 25.0278V25.0008C102.899 24.3104 103.009 23.661 103.23 23.0534C103.451 22.4459 103.764 21.9163 104.166 21.4652C104.568 21.014 105.052 20.6591 105.615 20.4013C106.188 20.1344 106.822 20 107.516 20ZM107.484 21.5343C107.072 21.5344 106.7 21.6251 106.368 21.8091C106.046 21.9841 105.771 22.2295 105.54 22.5426C105.308 22.8464 105.127 23.2099 104.996 23.6335C104.876 24.0476 104.814 24.4937 104.814 24.9722V25.0008C104.814 25.4795 104.876 25.9313 104.996 26.3547C105.127 26.7688 105.308 27.1327 105.54 27.4456C105.781 27.7582 106.066 28.0069 106.398 28.1909C106.73 28.375 107.103 28.4674 107.516 28.4674C107.928 28.4673 108.295 28.3792 108.617 28.2043C108.948 28.0203 109.229 27.7762 109.46 27.4726C109.692 27.1595 109.868 26.7961 109.989 26.3817C110.12 25.9581 110.186 25.5066 110.186 25.0278V25.0008C110.186 24.522 110.12 24.0748 109.989 23.6604C109.858 23.237 109.677 22.869 109.446 22.5561C109.214 22.243 108.928 21.9933 108.586 21.8091C108.254 21.6253 107.886 21.5343 107.484 21.5343Z" fill="#425CC7"/>
<path fill-rule="evenodd" clip-rule="evenodd" d="M124.414 20C125.108 20.0001 125.737 20.13 126.3 20.3878C126.863 20.6455 127.341 20.9992 127.733 21.45C128.135 21.9012 128.447 22.4322 128.669 23.04C128.89 23.6381 129 24.2821 129 24.9722V25.0008C129 25.6913 128.89 26.3406 128.669 26.9482C128.447 27.5559 128.135 28.0853 127.733 28.5365C127.331 28.9877 126.842 29.3469 126.269 29.6139C125.706 29.8716 125.077 30 124.383 30C123.689 29.9999 123.06 29.8716 122.497 29.6139C121.934 29.3561 121.452 29.0011 121.05 28.55C120.647 28.0988 120.335 27.5737 120.114 26.9752C119.903 26.3676 119.797 25.7183 119.797 25.0278V25.0008C119.797 24.3104 119.908 23.661 120.129 23.0534C120.35 22.4459 120.662 21.9163 121.064 21.4652C121.467 21.014 121.951 20.6591 122.514 20.4013C123.087 20.1344 123.721 20 124.414 20ZM124.383 21.5343C123.971 21.5344 123.599 21.6251 123.267 21.8091C122.945 21.9841 122.67 22.2295 122.438 22.5426C122.207 22.8464 122.026 23.2099 121.895 23.6335C121.774 24.0476 121.713 24.4937 121.713 24.9722V25.0008C121.713 25.4795 121.774 25.9313 121.895 26.3547C122.026 26.7688 122.207 27.1327 122.438 27.4456C122.679 27.7582 122.965 28.0069 123.297 28.1909C123.628 28.375 124.002 28.4674 124.414 28.4674C124.827 28.4673 125.194 28.3792 125.516 28.2043C125.847 28.0203 126.128 27.7762 126.359 27.4726C126.59 27.1595 126.767 26.7961 126.888 26.3817C127.018 25.9581 127.085 25.5066 127.085 25.0278V25.0008C127.085 24.522 127.018 24.0748 126.888 23.6604C126.757 23.237 126.576 22.869 126.344 22.5561C126.113 22.243 125.826 21.9933 125.484 21.8091C125.153 21.6253 124.785 21.5343 124.383 21.5343Z" fill="#425CC7"/>
<path d="M100.584 29.8348H98.7422V21.8243L96.8416 22.3065L96.4494 20.9256L99.2855 20.0978H100.584V29.8348Z" fill="#425CC7"/>
<path d="M117.483 29.8348H115.641V21.8243L113.74 22.3065L113.348 20.9256L116.184 20.0978H117.483V29.8348Z" fill="#425CC7"/>
<path fill-rule="evenodd" clip-rule="evenodd" d="M26.6169 120C27.3107 120 27.9397 120.13 28.5028 120.388C29.0655 120.646 29.5435 120.999 29.9355 121.45C30.3379 121.901 30.6498 122.432 30.8711 123.04C31.0921 123.638 31.2025 124.282 31.2026 124.972V125.001C31.2025 125.691 31.0923 126.341 30.8711 126.948C30.6498 127.556 30.3378 128.085 29.9355 128.537C29.5332 128.988 29.0447 129.347 28.4715 129.614C27.9084 129.872 27.2794 130 26.5856 130C25.8919 130 25.2629 129.872 24.6998 129.614C24.1368 129.356 23.6545 129.001 23.2523 128.55C22.85 128.099 22.538 127.574 22.3168 126.975C22.1056 126.368 22 125.718 22 125.028V125.001C22 124.31 22.1103 123.661 22.3315 123.053C22.5527 122.446 22.8649 121.916 23.267 121.465C23.6693 121.014 24.1532 120.659 24.7164 120.401C25.2895 120.134 25.9232 120 26.6169 120ZM26.5856 121.534C26.1736 121.534 25.8013 121.625 25.4696 121.809C25.1478 121.984 24.8722 122.229 24.6409 122.543C24.4096 122.846 24.2283 123.21 24.0976 123.633C23.977 124.048 23.9153 124.494 23.9153 124.972V125.001C23.9153 125.48 23.9769 125.931 24.0976 126.355C24.2283 126.769 24.4097 127.133 24.6409 127.446C24.882 127.758 25.1677 128.007 25.4991 128.191C25.831 128.375 26.2046 128.467 26.6169 128.467C27.0291 128.467 27.3965 128.379 27.7182 128.204C28.0498 128.02 28.3305 127.776 28.5617 127.473C28.793 127.16 28.9695 126.796 29.0902 126.382C29.221 125.958 29.2873 125.507 29.2873 125.028V125.001C29.2873 124.522 29.221 124.075 29.0902 123.66C28.9595 123.237 28.7782 122.869 28.547 122.556C28.3156 122.243 28.0289 121.993 27.6869 121.809C27.3552 121.625 26.9876 121.534 26.5856 121.534Z" fill="#425CC7"/>
<path fill-rule="evenodd" clip-rule="evenodd" d="M43.5157 120C44.2094 120 44.8384 120.13 45.4015 120.388C45.9642 120.646 46.4422 120.999 46.8343 121.45C47.2366 121.901 47.5485 122.432 47.7698 123.04C47.9908 123.638 48.1012 124.282 48.1013 124.972V125.001C48.1013 125.691 47.991 126.341 47.7698 126.948C47.5485 127.556 47.2365 128.085 46.8343 128.537C46.4319 128.988 45.9435 129.347 45.3702 129.614C44.8071 129.872 44.1781 130 43.4843 130C42.7906 130 42.1616 129.872 41.5985 129.614C41.0355 129.356 40.5532 129.001 40.151 128.55C39.7487 128.099 39.4367 127.574 39.2155 126.975C39.0043 126.368 38.8987 125.718 38.8987 125.028V125.001C38.8987 124.31 39.0091 123.661 39.2302 123.053C39.4514 122.446 39.7636 121.916 40.1657 121.465C40.5681 121.014 41.0519 120.659 41.6151 120.401C42.1882 120.134 42.8219 120 43.5157 120ZM43.4843 121.534C43.0723 121.534 42.7 121.625 42.3683 121.809C42.0465 121.984 41.7709 122.229 41.5396 122.543C41.3083 122.846 41.1271 123.21 40.9963 123.633C40.8757 124.048 40.8141 124.494 40.814 124.972V125.001C40.814 125.48 40.8757 125.931 40.9963 126.355C41.127 126.769 41.3084 127.133 41.5396 127.446C41.7807 127.758 42.0664 128.007 42.3978 128.191C42.7297 128.375 43.1033 128.467 43.5157 128.467C43.9278 128.467 44.2952 128.379 44.6169 128.204C44.9485 128.02 45.2293 127.776 45.4604 127.473C45.6917 127.16 45.8683 126.796 45.989 126.382C46.1197 125.958 46.186 125.507 46.186 125.028V125.001C46.186 124.522 46.1197 124.075 45.989 123.66C45.8582 123.237 45.6769 122.869 45.4457 122.556C45.2143 122.243 44.9276 121.993 44.5856 121.809C44.2539 121.625 43.8863 121.534 43.4843 121.534Z" fill="#425CC7"/>
<path fill-rule="evenodd" clip-rule="evenodd" d="M60.4144 120C61.1081 120 61.7371 120.13 62.3002 120.388C62.8629 120.646 63.3409 120.999 63.733 121.45C64.1353 121.901 64.4472 122.432 64.6685 123.04C64.8895 123.638 64.9999 124.282 65 124.972V125.001C65 125.691 64.8897 126.341 64.6685 126.948C64.4472 127.556 64.1352 128.085 63.733 128.537C63.3307 128.988 62.8422 129.347 62.2689 129.614C61.7058 129.872 61.0768 130 60.3831 130C59.6893 130 59.0603 129.872 58.4972 129.614C57.9342 129.356 57.4519 129.001 57.0497 128.55C56.6474 128.099 56.3354 127.574 56.1142 126.975C55.9031 126.368 55.7974 125.718 55.7974 125.028V125.001C55.7974 124.31 55.9078 123.661 56.1289 123.053C56.3501 122.446 56.6623 121.916 57.0645 121.465C57.4668 121.014 57.9506 120.659 58.5138 120.401C59.0869 120.134 59.7206 120 60.4144 120ZM60.3831 121.534C59.971 121.534 59.5987 121.625 59.267 121.809C58.9452 121.984 58.6696 122.229 58.4383 122.543C58.207 122.846 58.0258 123.21 57.895 123.633C57.7744 124.048 57.7128 124.494 57.7127 124.972V125.001C57.7127 125.48 57.7744 125.931 57.895 126.355C58.0258 126.769 58.2071 127.133 58.4383 127.446C58.6794 127.758 58.9651 128.007 59.2965 128.191C59.6284 128.375 60.002 128.467 60.4144 128.467C60.8265 128.467 61.194 128.379 61.5157 128.204C61.8472 128.02 62.128 127.776 62.3591 127.473C62.5904 127.16 62.767 126.796 62.8877 126.382C63.0184 125.958 63.0847 125.507 63.0847 125.028V125.001C63.0847 124.522 63.0184 124.075 62.8877 123.66C62.7569 123.237 62.5756 122.869 62.3444 122.556C62.1131 122.243 61.8263 121.993 61.4843 121.809C61.1527 121.625 60.785 121.534 60.3831 121.534Z" fill="#425CC7"/>
<path d="M36.5838 129.835H34.7422V121.824L32.8416 122.307L32.4494 120.926L35.2855 120.098H36.5838V129.835Z" fill="#425CC7"/>
<path d="M53.4825 129.835H51.6409V121.824L49.7403 122.307L49.3481 120.926L52.1842 120.098H53.4825V129.835Z" fill="#425CC7"/>
<rect x="32.6582" y="41.8835" width="5.54097" height="16.3418" transform="rotate(-90 32.6582 41.8835)" fill="#E34800"/>
<rect x="32.6582" y="65.1724" width="5.54097" height="16.3418" transform="rotate(-90 32.6582 65.1724)" fill="#E34800"/>
<rect x="101.658" y="91.8835" width="5.54097" height="16.3418" transform="rotate(-90 101.658 91.8835)" fill="#E34800"/>
<rect x="101.658" y="115.172" width="5.54097" height="16.3418" transform="rotate(-90 101.658 115.172)" fill="#E34800"/>
<rect x="66.7109" y="132.928" width="5.54097" height="16.3418" transform="rotate(180 66.7109 132.928)" fill="#E34800"/>
<rect x="90" y="132.928" width="5.54097" height="16.3418" transform="rotate(180 90 132.928)" fill="#E34800"/>
<rect x="66.7109" y="82.9285" width="5.54097" height="16.3418" transform="rotate(180 66.7109 82.9285)" fill="#E34800"/>
<rect x="90" y="82.9285" width="5.54097" height="16.3418" transform="rotate(180 90 82.9285)" fill="#E34800"/>
<rect x="66.7109" y="32.9285" width="5.54097" height="16.3418" transform="rotate(180 66.7109 32.9285)" fill="#E34800"/>
<rect x="90" y="32.9285" width="5.54097" height="16.3418" transform="rotate(180 90 32.9285)" fill="#E34800"/>
</svg>
