<svg width="654" height="350" viewBox="0 0 654 350" fill="none" xmlns="http://www.w3.org/2000/svg">
<g clip-path="url(#clip0_8472_603)">
<rect width="654" height="350" fill="#202C5F"/>
<circle cx="327" cy="175" r="245" fill="#425CC7"/>
<path d="M216.847 -25.1796L240.694 -10.7207L235.584 2.03714L206.627 -4.76705L213.44 -10.7207L204.923 -17.5249L193.852 -12.4218L197.258 -4.76705L192.148 2.03714L180.225 -4.76705L155.526 8.84133L170.856 18.1971L176.818 30.1044L190.445 19.8981L192.148 8.84133L209.182 2.03714L216.847 13.0939H231.325L233.029 24.1508L245.804 30.1044V42.0117L253.469 50.517L234.732 47.9654V39.4602L211.737 35.2076L209.182 42.0117L217.698 42.8623V50.517H227.067V57.3212L213.44 61.5738L207.478 56.4706L197.258 67.5275L178.521 72.6306L173.411 92.1926L162.34 99.8474V121.11H157.23L150.416 110.904L142.751 105.801L137.641 110.904L120.608 109.203V116.858L117.201 130.466L123.163 143.224L140.196 133.018L144.454 138.121L137.641 154.281L152.12 160.235V172.992L169.153 177.245L178.521 168.74L182.78 177.245V168.74L195.555 177.245L206.627 172.992L227.067 190.853L237.287 193.405L246.655 212.967L261.134 222.323L276.464 226.575L286.684 236.782L284.129 252.942L276.464 263.148V288.664L269.651 296.318L254.32 302.272L248.359 314.179L246.655 322.685L233.88 338.844L227.919 337.994V348.2L216.847 356.705V369.463L214.292 371.164V383.072L210.506 390C202.115 385.441 194.022 380.406 186.26 374.934L191.297 356.705L184.483 353.303V279.308L172.56 265.699L164.043 243.586L154.675 229.127V220.622L153.823 213.818L164.043 201.06V190.853L160.636 181.498L150.416 186.601L142.751 168.74L123.163 163.637L117.201 152.58L95.0573 148.327L93.354 133.018L86.998 126.67C99.0144 66.3017 133.242 13.923 180.822 -21.6064L186.186 -17.5249V-25.4952C187.139 -26.1676 188.096 -26.8346 189.059 -27.4936L216.847 -25.1796Z" fill="#F5A800"/>
<path d="M422.628 -16.9402C423.36 -17.8348 424.498 -18.2964 425.648 -18.1661L459.92 -14.2773C460.791 -14.1784 461.591 -13.7473 462.152 -13.0746L464.514 -10.244C465.161 -9.4684 466.12 -9.01978 467.131 -9.01967H489.803C531.109 27.3873 560.043 77.4684 569.498 134.132L569.059 134.704C568.252 135.751 566.91 136.236 565.619 135.95L545.307 131.443C544.933 131.36 544.575 131.213 544.249 131.011L528.767 121.416C526.046 119.73 522.76 122.522 523.992 125.474C524.194 125.96 524.513 126.39 524.917 126.729L547.083 145.296C548.864 146.787 548.659 149.582 546.679 150.799L520.41 166.944C518.8 167.934 516.69 167.423 515.711 165.808L498.14 136.817C497.981 136.553 497.785 136.312 497.56 136.101L492.129 130.996C489.632 128.649 485.618 131.041 486.501 134.35L490.163 148.06C490.21 148.238 490.272 148.412 490.347 148.58L497.322 164.055C497.692 164.876 498.373 165.517 499.215 165.838L531.475 178.112C532.796 178.615 533.669 179.879 533.67 181.29V212.714C533.669 213.924 533.026 215.044 531.979 215.653L504.699 231.544C503.653 232.154 503.009 233.273 503.009 234.483V268.037C503.009 268.73 502.797 269.407 502.4 269.977L482.133 299.122C481.859 299.517 481.671 299.965 481.583 300.436L476.902 325.374C476.716 326.365 476.098 327.222 475.217 327.715L438.061 348.494C436.057 349.615 433.54 348.475 433.064 346.232L428.158 323.135C428.095 322.836 427.99 322.547 427.849 322.276L416.521 300.456C416.27 299.973 416.139 299.436 416.138 298.891V265.427C416.139 265.044 416.203 264.664 416.33 264.302L421.54 249.438C421.893 248.431 421.751 247.316 421.159 246.428L412.622 233.64C412.145 232.927 411.956 232.059 412.093 231.212L415.501 210.106C415.835 208.038 414.236 206.163 412.138 206.163H402.631C401.492 206.163 400.429 205.594 399.797 204.648L395.261 197.852C394.495 196.705 393.111 196.133 391.758 196.403L366.533 201.442C365.125 201.723 363.691 201.091 362.949 199.864L337.691 158.088C337.207 157.287 337.074 156.321 337.325 155.419L341.066 141.97C341.149 141.673 341.191 141.367 341.191 141.06V127.262C341.191 126.579 341.397 125.911 341.782 125.346L367.43 87.7257C368.064 86.7954 369.119 86.2391 370.246 86.239H410.418C411.352 86.2391 412.245 86.6212 412.888 87.2971L427.054 102.191C427.697 102.867 428.59 103.249 429.524 103.249H437.479C438.007 103.249 438.528 103.126 439.001 102.891L442.284 101.251C443 100.894 443.818 100.799 444.596 100.984L460.888 104.857C461.146 104.919 461.411 104.95 461.676 104.95H480.761C482.324 104.95 483.687 103.888 484.066 102.374L486.621 92.1677C487.159 90.0205 485.532 87.9401 483.316 87.94H466.831C465.997 87.94 465.191 87.6346 464.567 87.0812L458.321 81.5362C458.023 81.2716 457.773 80.9565 457.584 80.6059L456.004 77.6756C454.539 74.9574 450.497 75.4361 449.71 78.4215L448.758 82.0379C448.195 84.1743 445.773 85.217 443.831 84.1592L439.626 81.8684C438.771 81.4028 438.157 80.5932 437.938 79.6458L436.01 71.3066C435.827 70.5149 435.367 69.8135 434.712 69.3315L430.484 66.2201C427.631 64.1207 423.864 67.226 425.387 70.4212L426.731 73.2419C427.486 74.8242 426.913 76.7207 425.409 77.6224L421.393 80.0278C420.265 80.704 418.847 80.6704 417.752 79.9414L413.397 77.0427C412.449 76.4117 411.88 75.3495 411.88 74.212V71.2718C411.88 70.4995 411.616 69.7502 411.133 69.1471L406.529 63.3994C405.648 62.2997 404.18 61.8561 402.836 62.2831L387.523 67.1487C386.753 67.3934 386.094 67.9031 385.666 68.5873L379.212 78.9015C378.389 80.217 376.778 80.8089 375.296 80.3418L363.571 76.644C362.376 76.2671 361.485 75.2664 361.25 74.0376L358.872 61.5671C358.516 59.7008 359.76 57.9044 361.635 57.5787L374.004 55.4308C376.025 55.0795 377.279 53.0368 376.675 51.0785L375.24 46.4155C374.757 44.8492 375.461 43.1609 376.915 42.4005L392.292 34.357L399.476 30.0529C400.322 29.5459 400.906 28.6961 401.078 27.7256L402.226 21.2304C402.705 18.5202 406.04 17.4694 407.989 19.4147L410.752 22.174C411.467 22.8875 412.462 23.2469 413.469 23.1557L427.518 21.8799C429.273 21.7206 430.617 20.2522 430.617 18.4928V15.6887C430.617 13.4949 428.568 11.874 426.43 12.3763L416.897 14.6172C416.398 14.7345 415.879 14.7366 415.378 14.6256L403.476 11.9843C401.918 11.6384 400.808 10.2581 400.808 8.66358V-0.73869C400.808 -2.14176 401.671 -3.40134 402.981 -3.90988L415.303 -8.69574C415.851 -8.90825 416.334 -9.25859 416.706 -9.71238L422.628 -16.9402Z" fill="#F5A800"/>
<path d="M380.368 18.1971L388.885 26.7023L372.703 38.6097V25.0013L368.445 12.2434L377.813 8.84133L380.368 18.1971Z" fill="#F5A800"/>
<path d="M368.445 27.5528L366.741 33.5065L359.076 35.2076L357.373 24.1508L366.741 19.8981L368.445 27.5528Z" fill="#F5A800"/>
<path d="M337.784 -47.2932L349.708 -51.5458L352.263 -49.8448L342.895 -43.0406V-36.2364L335.229 -26.0301V-17.5249L307.976 -10.7207L301.162 -6.4681L286.684 -4.76705L279.019 10.5424L270.502 12.2434L264.54 2.88766L257.727 -0.514431L254.32 -10.7207L264.54 -20.0765L259.43 -32.8343H235.584V-40.489L262.837 -49.8448L281.574 -47.2932L294.349 -51.5458L321.603 -57.4995L337.784 -47.2932Z" fill="#F5A800"/>
<path d="M353.966 -4.76705L342.895 2.88766L329.268 -4.76705V-10.7207H349.708L353.966 -4.76705Z" fill="#F5A800"/>
<circle cx="530.414" cy="226.116" r="19.6638" fill="#F6F6F6"/>
<g filter="url(#filter0_d_8472_603)">
<path d="M530.536 227.732C529.559 228.709 529.559 230.294 530.536 231.272C531.513 232.249 533.098 232.249 534.075 231.272C535.053 230.294 535.053 228.709 534.075 227.732C533.098 226.755 531.513 226.755 530.536 227.732ZM533.181 230.38C533.066 230.495 532.93 230.586 532.78 230.649C532.629 230.711 532.468 230.743 532.305 230.743C532.142 230.743 531.981 230.711 531.831 230.649C531.681 230.586 531.544 230.495 531.429 230.38C531.314 230.265 531.223 230.128 531.16 229.978C531.098 229.828 531.066 229.666 531.066 229.504C531.066 229.341 531.098 229.18 531.16 229.03C531.223 228.879 531.314 228.743 531.429 228.628C531.544 228.513 531.681 228.421 531.831 228.359C531.981 228.297 532.142 228.264 532.305 228.264C532.468 228.264 532.629 228.297 532.78 228.359C532.93 228.421 533.066 228.513 533.181 228.628C533.665 229.109 533.665 229.896 533.181 230.38ZM534.033 215.417L532.5 216.95C532.355 217.096 532.274 217.292 532.274 217.497C532.274 217.702 532.355 217.899 532.5 218.045L538.487 224.032C538.633 224.176 538.829 224.257 539.034 224.257C539.239 224.257 539.436 224.176 539.581 224.032L541.115 222.498C541.415 222.198 541.415 221.705 541.115 221.405L535.125 215.417C534.98 215.273 534.784 215.192 534.579 215.192C534.375 215.192 534.179 215.273 534.033 215.417ZM523.289 235.013C523.42 234.882 523.493 234.704 523.493 234.519C523.493 234.333 523.42 234.155 523.289 234.024L522.51 233.244C522.379 233.114 522.201 233.04 522.016 233.04C521.83 233.04 521.652 233.114 521.521 233.244L519.911 234.855L519.908 234.857L519.466 234.415C519.222 234.171 518.824 234.171 518.582 234.415C518.337 234.659 518.337 235.057 518.582 235.3L521.235 237.952C521.293 238.01 521.362 238.056 521.438 238.088C521.513 238.119 521.595 238.135 521.677 238.135C521.759 238.135 521.84 238.119 521.916 238.088C521.992 238.056 522.061 238.01 522.119 237.952C522.361 237.707 522.363 237.309 522.119 237.068L521.676 236.626L521.679 236.624L523.289 235.013Z" fill="#F5A800"/>
<path d="M531.4 219.819L527.993 223.226C527.69 223.528 527.69 224.027 527.993 224.329L530.097 226.432C531.583 225.362 533.669 225.495 535.006 226.833L536.71 225.129C537.012 224.827 537.012 224.329 536.71 224.027L532.503 219.819C532.43 219.746 532.344 219.689 532.25 219.65C532.155 219.611 532.054 219.59 531.951 219.59C531.849 219.59 531.747 219.611 531.653 219.65C531.558 219.689 531.472 219.746 531.4 219.819ZM529.212 227.319L527.969 226.076C527.678 225.786 527.201 225.786 526.911 226.076L522.529 230.46C522.389 230.601 522.311 230.792 522.311 230.99C522.311 231.188 522.389 231.379 522.529 231.519L525.011 234.002C525.152 234.142 525.343 234.221 525.541 234.221C525.74 234.221 525.93 234.142 526.071 234.002L528.889 231.18C528.293 229.949 528.4 228.462 529.212 227.319Z" fill="#425CC7"/>
</g>
<circle cx="487.373" cy="305.576" r="19.6638" fill="#F6F6F6"/>
<g filter="url(#filter1_d_8472_603)">
<path d="M487.495 307.191C486.518 308.169 486.518 309.754 487.495 310.731C488.472 311.708 490.057 311.708 491.034 310.731C492.012 309.754 492.012 308.169 491.034 307.191C490.057 306.214 488.472 306.214 487.495 307.191ZM490.14 309.839C490.025 309.955 489.889 310.046 489.739 310.108C489.588 310.171 489.427 310.203 489.264 310.203C489.101 310.203 488.94 310.171 488.79 310.108C488.64 310.046 488.503 309.955 488.388 309.839C488.273 309.724 488.182 309.588 488.119 309.438C488.057 309.287 488.025 309.126 488.025 308.963C488.025 308.801 488.057 308.64 488.119 308.489C488.182 308.339 488.273 308.203 488.388 308.088C488.503 307.972 488.64 307.881 488.79 307.819C488.94 307.756 489.101 307.724 489.264 307.724C489.427 307.724 489.588 307.756 489.739 307.819C489.889 307.881 490.025 307.972 490.14 308.088C490.624 308.569 490.624 309.356 490.14 309.839ZM490.992 294.877L489.459 296.41C489.314 296.556 489.233 296.752 489.233 296.957C489.233 297.162 489.314 297.359 489.459 297.504L495.446 303.491C495.592 303.636 495.788 303.717 495.993 303.717C496.198 303.717 496.395 303.636 496.54 303.491L498.074 301.958C498.373 301.658 498.373 301.164 498.074 300.865L492.084 294.876C491.939 294.732 491.743 294.652 491.538 294.652C491.334 294.652 491.138 294.733 490.992 294.877ZM480.248 314.473C480.379 314.341 480.452 314.164 480.452 313.978C480.452 313.793 480.379 313.615 480.248 313.484L479.469 312.704C479.338 312.573 479.16 312.5 478.975 312.5C478.789 312.5 478.611 312.573 478.48 312.704L476.87 314.315L476.867 314.317L476.425 313.875C476.181 313.63 475.783 313.63 475.541 313.875C475.296 314.119 475.296 314.517 475.541 314.759L478.194 317.412C478.252 317.47 478.321 317.516 478.397 317.547C478.472 317.579 478.554 317.595 478.636 317.595C478.718 317.595 478.799 317.579 478.875 317.547C478.951 317.516 479.02 317.47 479.078 317.412C479.32 317.167 479.322 316.769 479.078 316.528L478.635 316.086L478.638 316.083L480.248 314.473Z" fill="#F5A800"/>
<path d="M488.361 299.279L484.954 302.685C484.651 302.988 484.651 303.486 484.954 303.789L487.058 305.892C488.544 304.822 490.629 304.955 491.967 306.293L493.671 304.589C493.973 304.287 493.973 303.789 493.671 303.486L489.464 299.279C489.391 299.206 489.305 299.149 489.211 299.11C489.116 299.07 489.015 299.05 488.912 299.05C488.81 299.05 488.708 299.07 488.614 299.11C488.519 299.149 488.433 299.206 488.361 299.279ZM486.173 306.779L484.93 305.536C484.639 305.245 484.162 305.245 483.872 305.536L479.49 309.92C479.35 310.061 479.271 310.251 479.271 310.45C479.271 310.648 479.35 310.839 479.49 310.979L481.972 313.462C482.113 313.602 482.304 313.681 482.502 313.681C482.7 313.681 482.891 313.602 483.032 313.462L485.85 310.64C485.254 309.409 485.361 307.922 486.173 306.779Z" fill="#425CC7"/>
</g>
<circle cx="527.64" cy="41.0735" r="19.6638" fill="#F6F6F6"/>
<g filter="url(#filter2_d_8472_603)">
<path d="M527.758 42.6882C526.781 43.6659 526.781 45.2504 527.758 46.2281C528.736 47.2051 530.321 47.2051 531.297 46.2281C532.275 45.2504 532.275 43.6659 531.297 42.6882C530.321 41.7112 528.736 41.7112 527.758 42.6882ZM530.404 45.3363C530.289 45.4514 530.153 45.5428 530.002 45.6052C529.852 45.6675 529.691 45.6996 529.528 45.6996C529.365 45.6996 529.204 45.6675 529.054 45.6052C528.903 45.5428 528.767 45.4514 528.652 45.3363C528.537 45.2212 528.445 45.0847 528.383 44.9344C528.321 44.7841 528.289 44.623 528.289 44.4603C528.289 44.2976 528.321 44.1365 528.383 43.9862C528.445 43.8359 528.537 43.6994 528.652 43.5844C528.767 43.4692 528.903 43.3778 529.054 43.3155C529.204 43.2531 529.365 43.221 529.528 43.221C529.691 43.221 529.852 43.2531 530.002 43.3155C530.153 43.3778 530.289 43.4692 530.404 43.5844C530.888 44.066 530.888 44.8524 530.404 45.3363ZM531.256 30.3735L529.723 31.9069C529.578 32.0524 529.497 32.249 529.497 32.454C529.497 32.6589 529.578 32.8556 529.723 33.001L535.71 38.9883C535.855 39.1327 536.052 39.2137 536.257 39.2137C536.462 39.2137 536.658 39.1327 536.804 38.9883L538.337 37.4546C538.637 37.1548 538.637 36.6611 538.337 36.3615L532.347 30.3733C532.202 30.2293 532.006 30.1484 531.802 30.1484C531.597 30.1484 531.401 30.2294 531.256 30.3735ZM520.512 49.9696C520.643 49.8382 520.716 49.6605 520.716 49.4751C520.716 49.2898 520.643 49.112 520.512 48.9807L519.733 48.2009C519.601 48.0702 519.424 47.9968 519.238 47.9968C519.053 47.9968 518.875 48.0702 518.743 48.2009L517.134 49.8116L517.131 49.8139L516.689 49.3716C516.445 49.1271 516.047 49.1271 515.804 49.3716C515.56 49.6159 515.56 50.0139 515.804 50.2562L518.458 52.9085C518.516 52.9666 518.584 53.0127 518.66 53.0442C518.736 53.0756 518.817 53.0918 518.9 53.0918C518.982 53.0918 519.063 53.0756 519.139 53.0442C519.215 53.0127 519.283 52.9666 519.341 52.9085C519.584 52.664 519.586 52.266 519.341 52.0247L518.899 51.5824L518.902 51.5801L520.512 49.9696Z" fill="#F5A800"/>
<path d="M528.626 34.776L525.219 38.1826C524.917 38.4852 524.917 38.9836 525.219 39.2862L527.323 41.3893C528.81 40.3192 530.895 40.4516 532.233 41.7903L533.936 40.0864C534.239 39.7838 534.239 39.2862 533.936 38.9836L529.729 34.776C529.657 34.7035 529.571 34.646 529.476 34.6068C529.382 34.5676 529.28 34.5474 529.178 34.5474C529.075 34.5474 528.974 34.5676 528.879 34.6068C528.785 34.646 528.699 34.7035 528.626 34.776ZM526.439 42.276L525.196 41.0334C524.905 40.7425 524.428 40.7425 524.137 41.0334L519.755 45.4174C519.616 45.5582 519.537 45.7485 519.537 45.9469C519.537 46.1453 519.616 46.3357 519.755 46.4765L522.238 48.9594C522.379 49.0992 522.569 49.1777 522.768 49.1777C522.966 49.1777 523.157 49.0992 523.297 48.9594L526.115 46.1366C525.52 44.9058 525.627 43.4189 526.439 42.276Z" fill="#425CC7"/>
</g>
<circle cx="440.248" cy="78.2153" r="19.6638" fill="#F6F6F6"/>
<g filter="url(#filter3_d_8472_603)">
<path d="M440.368 79.8313C439.391 80.809 439.391 82.3935 440.368 83.3712C441.345 84.3482 442.93 84.3482 443.907 83.3712C444.885 82.3935 444.885 80.809 443.907 79.8313C442.93 78.8543 441.345 78.8543 440.368 79.8313ZM443.013 82.4793C442.898 82.5945 442.762 82.6859 442.612 82.7482C442.461 82.8106 442.3 82.8426 442.137 82.8426C441.975 82.8426 441.813 82.8106 441.663 82.7482C441.513 82.6859 441.376 82.5945 441.261 82.4793C441.146 82.3643 441.055 82.2278 440.992 82.0775C440.93 81.9272 440.898 81.7661 440.898 81.6034C440.898 81.4407 440.93 81.2796 440.992 81.1293C441.055 80.979 441.146 80.8424 441.261 80.7274C441.376 80.6122 441.513 80.5209 441.663 80.4585C441.813 80.3962 441.975 80.3641 442.137 80.3641C442.3 80.3641 442.461 80.3962 442.612 80.4585C442.762 80.5209 442.898 80.6122 443.013 80.7274C443.497 81.209 443.497 81.9955 443.013 82.4793ZM443.866 67.5165L442.332 69.05C442.188 69.1955 442.106 69.3921 442.106 69.597C442.106 69.802 442.188 69.9986 442.332 70.1441L448.319 76.1314C448.465 76.2757 448.661 76.3567 448.866 76.3567C449.071 76.3567 449.268 76.2757 449.413 76.1314L450.947 74.5977C451.247 74.2979 451.247 73.8042 450.947 73.5045L444.957 67.5163C444.812 67.3723 444.616 67.2915 444.411 67.2915C444.207 67.2915 444.011 67.3725 443.866 67.5165ZM433.121 87.1126C433.252 86.9813 433.325 86.8035 433.325 86.6182C433.325 86.4329 433.252 86.2551 433.121 86.1237L432.342 85.344C432.211 85.2133 432.033 85.1399 431.848 85.1399C431.662 85.1399 431.484 85.2133 431.353 85.344L429.743 86.9547L429.74 86.9569L429.298 86.5146C429.054 86.2701 428.656 86.2701 428.414 86.5146C428.169 86.759 428.169 87.157 428.414 87.3993L431.067 90.0516C431.125 90.1097 431.194 90.1558 431.27 90.1872C431.346 90.2187 431.427 90.2349 431.509 90.2349C431.591 90.2349 431.672 90.2187 431.748 90.1872C431.824 90.1558 431.893 90.1097 431.951 90.0516C432.193 89.8071 432.195 89.4091 431.951 89.1677L431.509 88.7254L431.511 88.7232L433.121 87.1126Z" fill="#F5A800"/>
<path d="M441.234 71.919L437.827 75.3256C437.524 75.6283 437.524 76.1266 437.827 76.4293L439.931 78.5324C441.417 77.4623 443.503 77.5947 444.84 78.9334L446.544 77.2295C446.846 76.9269 446.846 76.4293 446.544 76.1266L442.337 71.919C442.264 71.8466 442.178 71.7891 442.084 71.7498C441.989 71.7106 441.888 71.6904 441.785 71.6904C441.683 71.6904 441.581 71.7106 441.487 71.7498C441.392 71.7891 441.306 71.8466 441.234 71.919ZM439.046 79.4191L437.803 78.1765C437.512 77.8856 437.035 77.8856 436.745 78.1765L432.363 82.5604C432.223 82.7012 432.145 82.8916 432.145 83.09C432.145 83.2884 432.223 83.4788 432.363 83.6196L434.845 86.1024C434.986 86.2423 435.177 86.3208 435.375 86.3208C435.574 86.3208 435.764 86.2423 435.905 86.1024L438.723 83.2797C438.127 82.0489 438.234 80.562 439.046 79.4191Z" fill="#425CC7"/>
</g>
<circle cx="389.994" cy="22.5017" r="19.6638" fill="#F6F6F6"/>
<g filter="url(#filter4_d_8472_603)">
<path d="M390.112 24.1169C389.135 25.0946 389.135 26.6791 390.112 27.6568C391.09 28.6338 392.674 28.6338 393.651 27.6568C394.629 26.6791 394.629 25.0946 393.651 24.1169C392.674 23.1399 391.09 23.1399 390.112 24.1169ZM392.758 26.765C392.643 26.8801 392.506 26.9715 392.356 27.0339C392.205 27.0962 392.044 27.1283 391.881 27.1283C391.719 27.1283 391.557 27.0962 391.407 27.0339C391.257 26.9715 391.12 26.8801 391.005 26.765C390.89 26.65 390.799 26.5134 390.737 26.3631C390.674 26.2128 390.642 26.0517 390.642 25.889C390.642 25.7263 390.674 25.5652 390.737 25.4149C390.799 25.2646 390.89 25.1281 391.005 25.0131C391.12 24.8979 391.257 24.8065 391.407 24.7442C391.557 24.6818 391.719 24.6497 391.881 24.6497C392.044 24.6497 392.205 24.6818 392.356 24.7442C392.506 24.8065 392.643 24.8979 392.758 25.0131C393.241 25.4947 393.241 26.2811 392.758 26.765ZM393.61 11.8022L392.076 13.3356C391.932 13.4811 391.851 13.6777 391.851 13.8827C391.851 14.0876 391.932 14.2843 392.076 14.4298L398.063 20.417C398.209 20.5614 398.405 20.6424 398.61 20.6424C398.815 20.6424 399.012 20.5614 399.157 20.417L400.691 18.8834C400.991 18.5835 400.991 18.0898 400.691 17.7902L394.701 11.802C394.556 11.658 394.36 11.5771 394.155 11.5771C393.951 11.5771 393.755 11.6582 393.61 11.8022ZM382.865 31.3983C382.996 31.2669 383.07 31.0892 383.07 30.9038C383.07 30.7185 382.996 30.5407 382.865 30.4094L382.086 29.6296C381.955 29.4989 381.777 29.4256 381.592 29.4256C381.406 29.4256 381.228 29.4989 381.097 29.6296L379.487 31.2404L379.484 31.2426L379.043 30.8003C378.798 30.5558 378.4 30.5558 378.158 30.8003C377.913 31.0446 377.913 31.4426 378.158 31.6849L380.811 34.3372C380.869 34.3953 380.938 34.4414 381.014 34.4729C381.09 34.5043 381.171 34.5205 381.253 34.5205C381.335 34.5205 381.416 34.5043 381.492 34.4729C381.568 34.4414 381.637 34.3953 381.695 34.3372C381.937 34.0927 381.939 33.6947 381.695 33.4534L381.253 33.0111L381.256 33.0088L382.865 31.3983Z" fill="#F5A800"/>
<path d="M390.98 16.2047L387.573 19.6113C387.27 19.9139 387.27 20.4123 387.573 20.7149L389.677 22.818C391.164 21.7479 393.249 21.8803 394.586 23.219L396.29 21.5151C396.592 21.2125 396.592 20.7149 396.29 20.4123L392.083 16.2047C392.01 16.1322 391.924 16.0747 391.83 16.0355C391.735 15.9963 391.634 15.9761 391.531 15.9761C391.429 15.9761 391.328 15.9963 391.233 16.0355C391.138 16.0747 391.052 16.1322 390.98 16.2047ZM388.792 23.7047L387.549 22.4621C387.258 22.1712 386.781 22.1712 386.491 22.4621L382.109 26.8461C381.969 26.9869 381.891 27.1772 381.891 27.3757C381.891 27.5741 381.969 27.7644 382.109 27.9052L384.592 30.3881C384.732 30.5279 384.923 30.6064 385.121 30.6064C385.32 30.6064 385.51 30.5279 385.651 30.3881L388.469 27.5653C387.873 26.3345 387.98 24.8476 388.792 23.7047Z" fill="#425CC7"/>
</g>
<circle cx="493.554" cy="136.083" r="19.6638" fill="#F6F6F6"/>
<g filter="url(#filter5_d_8472_603)">
<path d="M493.676 137.698C492.699 138.676 492.699 140.261 493.676 141.238C494.654 142.215 496.238 142.215 497.215 141.238C498.193 140.261 498.193 138.676 497.215 137.698C496.238 136.721 494.654 136.721 493.676 137.698ZM496.322 140.347C496.207 140.462 496.07 140.553 495.92 140.615C495.77 140.678 495.609 140.71 495.446 140.71C495.283 140.71 495.122 140.678 494.972 140.615C494.821 140.553 494.685 140.462 494.57 140.347C494.455 140.232 494.363 140.095 494.301 139.945C494.239 139.794 494.207 139.633 494.207 139.471C494.207 139.308 494.239 139.147 494.301 138.996C494.363 138.846 494.455 138.71 494.57 138.595C494.685 138.479 494.821 138.388 494.972 138.326C495.122 138.263 495.283 138.231 495.446 138.231C495.609 138.231 495.77 138.263 495.92 138.326C496.07 138.388 496.207 138.479 496.322 138.595C496.806 139.076 496.806 139.863 496.322 140.347ZM497.174 125.384L495.64 126.917C495.496 127.063 495.415 127.259 495.415 127.464C495.415 127.669 495.496 127.866 495.64 128.011L501.628 133.999C501.773 134.143 501.97 134.224 502.175 134.224C502.38 134.224 502.576 134.143 502.722 133.999L504.255 132.465C504.555 132.165 504.555 131.671 504.255 131.372L498.265 125.384C498.12 125.24 497.924 125.159 497.72 125.159C497.515 125.159 497.319 125.24 497.174 125.384ZM486.43 144.98C486.561 144.848 486.634 144.671 486.634 144.485C486.634 144.3 486.561 144.122 486.43 143.991L485.651 143.211C485.519 143.08 485.342 143.007 485.156 143.007C484.971 143.007 484.793 143.08 484.661 143.211L483.052 144.822L483.049 144.824L482.607 144.382C482.363 144.137 481.965 144.137 481.722 144.382C481.478 144.626 481.478 145.024 481.722 145.266L484.376 147.919C484.434 147.977 484.502 148.023 484.578 148.054C484.654 148.086 484.735 148.102 484.817 148.102C484.9 148.102 484.981 148.086 485.057 148.054C485.133 148.023 485.201 147.977 485.259 147.919C485.502 147.674 485.504 147.276 485.259 147.035L484.817 146.593L484.82 146.59L486.43 144.98Z" fill="#F5A800"/>
<path d="M494.544 129.786L491.137 133.193C490.835 133.495 490.835 133.994 491.137 134.296L493.241 136.4C494.728 135.329 496.813 135.462 498.151 136.801L499.854 135.097C500.157 134.794 500.157 134.296 499.854 133.994L495.647 129.786C495.575 129.714 495.489 129.656 495.394 129.617C495.3 129.578 495.198 129.558 495.096 129.558C494.993 129.558 494.892 129.578 494.797 129.617C494.703 129.656 494.617 129.714 494.544 129.786ZM492.356 137.286L491.114 136.044C490.823 135.753 490.346 135.753 490.055 136.044L485.673 140.428C485.534 140.568 485.455 140.759 485.455 140.957C485.455 141.156 485.534 141.346 485.673 141.487L488.156 143.97C488.297 144.109 488.487 144.188 488.686 144.188C488.884 144.188 489.074 144.109 489.215 143.97L492.033 141.147C491.438 139.916 491.545 138.429 492.356 137.286Z" fill="#425CC7"/>
</g>
<circle cx="235.752" cy="52.2991" r="19.6638" fill="#F6F6F6"/>
<g filter="url(#filter6_d_8472_603)">
<path d="M235.872 53.9143C234.895 54.892 234.895 56.4765 235.872 57.4542C236.849 58.4312 238.434 58.4312 239.411 57.4542C240.388 56.4765 240.388 54.892 239.411 53.9143C238.434 52.9373 236.849 52.9373 235.872 53.9143ZM238.517 56.5623C238.402 56.6775 238.266 56.7689 238.115 56.8312C237.965 56.8936 237.804 56.9257 237.641 56.9257C237.478 56.9257 237.317 56.8936 237.167 56.8312C237.017 56.7689 236.88 56.6775 236.765 56.5623C236.65 56.4473 236.559 56.3108 236.496 56.1605C236.434 56.0102 236.402 55.8491 236.402 55.6864C236.402 55.5237 236.434 55.3626 236.496 55.2123C236.559 55.062 236.65 54.9254 236.765 54.8104C236.88 54.6953 237.017 54.6039 237.167 54.5415C237.317 54.4792 237.478 54.4471 237.641 54.4471C237.804 54.4471 237.965 54.4792 238.115 54.5415C238.266 54.6039 238.402 54.6953 238.517 54.8104C239.001 55.292 239.001 56.0785 238.517 56.5623ZM239.369 41.5995L237.836 43.133C237.691 43.2785 237.61 43.4751 237.61 43.6801C237.61 43.885 237.691 44.0817 237.836 44.2271L243.823 50.2144C243.968 50.3587 244.165 50.4398 244.37 50.4398C244.575 50.4398 244.772 50.3587 244.917 50.2144L246.451 48.6807C246.75 48.3809 246.75 47.8872 246.451 47.5875L240.461 41.5994C240.316 41.4553 240.12 41.3745 239.915 41.3745C239.711 41.3745 239.515 41.4555 239.369 41.5995ZM228.625 61.1956C228.756 61.0643 228.829 60.8865 228.829 60.7012C228.829 60.5159 228.756 60.3381 228.625 60.2067L227.846 59.427C227.715 59.2963 227.537 59.2229 227.351 59.2229C227.166 59.2229 226.988 59.2963 226.857 59.427L225.247 61.0377L225.244 61.04L224.802 60.5977C224.558 60.3531 224.16 60.3531 223.918 60.5977C223.673 60.842 223.673 61.24 223.918 61.4823L226.571 64.1346C226.629 64.1927 226.698 64.2388 226.774 64.2703C226.849 64.3017 226.931 64.3179 227.013 64.3179C227.095 64.3179 227.176 64.3017 227.252 64.2703C227.328 64.2388 227.397 64.1927 227.455 64.1346C227.697 63.8901 227.699 63.4921 227.455 63.2507L227.012 62.8084L227.015 62.8062L228.625 61.1956Z" fill="#F5A800"/>
<path d="M236.739 46.002L233.333 49.4086C233.03 49.7113 233.03 50.2096 233.333 50.5123L235.436 52.6154C236.923 51.5453 239.008 51.6777 240.346 53.0164L242.05 51.3125C242.352 51.0099 242.352 50.5123 242.05 50.2096L237.843 46.002C237.77 45.9296 237.684 45.8721 237.59 45.8329C237.495 45.7936 237.394 45.7734 237.291 45.7734C237.189 45.7734 237.087 45.7936 236.993 45.8329C236.898 45.8721 236.812 45.9296 236.739 46.002ZM234.552 53.5021L233.309 52.2595C233.018 51.9686 232.541 51.9686 232.251 52.2595L227.869 56.6435C227.729 56.7843 227.65 56.9746 227.65 57.173C227.65 57.3714 227.729 57.5618 227.869 57.7026L230.351 60.1854C230.492 60.3253 230.683 60.4038 230.881 60.4038C231.079 60.4038 231.27 60.3253 231.411 60.1854L234.229 57.3627C233.633 56.1319 233.74 54.645 234.552 53.5021Z" fill="#425CC7"/>
</g>
<circle cx="114.906" cy="48.988" r="19.6638" fill="#F6F6F6"/>
<g filter="url(#filter7_d_8472_603)">
<path d="M115.026 50.6037C114.049 51.5815 114.049 53.1659 115.026 54.1437C116.004 55.1206 117.588 55.1206 118.565 54.1437C119.543 53.1659 119.543 51.5815 118.565 50.6037C117.588 49.6267 116.004 49.6267 115.026 50.6037ZM117.672 53.2518C117.557 53.367 117.42 53.4583 117.27 53.5207C117.119 53.583 116.958 53.6151 116.795 53.6151C116.633 53.6151 116.472 53.583 116.321 53.5207C116.171 53.4583 116.034 53.367 115.919 53.2518C115.804 53.1368 115.713 53.0002 115.651 52.8499C115.588 52.6996 115.556 52.5385 115.556 52.3758C115.556 52.2131 115.588 52.052 115.651 51.9017C115.713 51.7514 115.804 51.6149 115.919 51.4999C116.034 51.3847 116.171 51.2933 116.321 51.231C116.472 51.1686 116.633 51.1366 116.795 51.1366C116.958 51.1366 117.119 51.1686 117.27 51.231C117.42 51.2933 117.557 51.3847 117.672 51.4999C118.156 51.9815 118.156 52.7679 117.672 53.2518ZM118.524 38.289L116.99 39.8224C116.846 39.9679 116.765 40.1646 116.765 40.3695C116.765 40.5745 116.846 40.7711 116.99 40.9166L122.977 46.9038C123.123 47.0482 123.319 47.1292 123.524 47.1292C123.729 47.1292 123.926 47.0482 124.071 46.9038L125.605 45.3702C125.905 45.0703 125.905 44.5766 125.605 44.277L119.615 38.2888C119.47 38.1448 119.274 38.064 119.069 38.064C118.865 38.064 118.669 38.145 118.524 38.289ZM107.78 57.8851C107.91 57.7538 107.984 57.576 107.984 57.3907C107.984 57.2053 107.91 57.0275 107.78 56.8962L107 56.1164C106.869 55.9857 106.691 55.9124 106.506 55.9124C106.32 55.9124 106.143 55.9857 106.011 56.1164L104.401 57.7272L104.398 57.7294L103.957 57.2871C103.712 57.0426 103.314 57.0426 103.072 57.2871C102.828 57.5314 102.828 57.9294 103.072 58.1717L105.725 60.8241C105.783 60.8822 105.852 60.9283 105.928 60.9597C106.004 60.9912 106.085 61.0073 106.167 61.0073C106.249 61.0073 106.33 60.9912 106.406 60.9597C106.482 60.9283 106.551 60.8822 106.609 60.8241C106.851 60.5795 106.854 60.1816 106.609 59.9402L106.167 59.4979L106.17 59.4957L107.78 57.8851Z" fill="#F5A800"/>
<path d="M115.896 42.691L112.489 46.0976C112.186 46.4002 112.186 46.8986 112.489 47.2012L114.593 49.3044C116.08 48.2343 118.165 48.3667 119.502 49.7053L121.206 48.0015C121.508 47.6988 121.508 47.2012 121.206 46.8986L116.999 42.691C116.926 42.6185 116.84 42.561 116.746 42.5218C116.651 42.4826 116.55 42.4624 116.447 42.4624C116.345 42.4624 116.244 42.4826 116.149 42.5218C116.054 42.561 115.968 42.6185 115.896 42.691ZM113.708 50.191L112.466 48.9485C112.174 48.6576 111.697 48.6576 111.407 48.9485L107.025 53.3324C106.885 53.4732 106.807 53.6636 106.807 53.862C106.807 54.0604 106.885 54.2507 107.025 54.3915L109.508 56.8744C109.648 57.0142 109.839 57.0927 110.037 57.0927C110.236 57.0927 110.426 57.0142 110.567 56.8744L113.385 54.0517C112.789 52.8208 112.896 51.3339 113.708 50.191Z" fill="#425CC7"/>
</g>
<circle cx="184.435" cy="15.8801" r="19.6638" fill="#F6F6F6"/>
<g filter="url(#filter8_d_8472_603)">
<path d="M184.555 17.4958C183.578 18.4735 183.578 20.058 184.555 21.0358C185.533 22.0127 187.117 22.0127 188.094 21.0358C189.072 20.058 189.072 18.4735 188.094 17.4958C187.117 16.5188 185.533 16.5188 184.555 17.4958ZM187.201 20.1439C187.086 20.2591 186.949 20.3504 186.799 20.4128C186.649 20.4751 186.488 20.5072 186.325 20.5072C186.162 20.5072 186.001 20.4751 185.85 20.4128C185.7 20.3504 185.564 20.2591 185.449 20.1439C185.333 20.0289 185.242 19.8923 185.18 19.742C185.118 19.5917 185.086 19.4306 185.086 19.2679C185.086 19.1052 185.118 18.9441 185.18 18.7938C185.242 18.6435 185.333 18.507 185.449 18.392C185.564 18.2768 185.7 18.1854 185.85 18.1231C186.001 18.0607 186.162 18.0286 186.325 18.0286C186.488 18.0286 186.649 18.0607 186.799 18.1231C186.949 18.1854 187.086 18.2768 187.201 18.392C187.685 18.8736 187.685 19.66 187.201 20.1439ZM188.053 5.18109L186.519 6.71454C186.375 6.86001 186.294 7.05665 186.294 7.2616C186.294 7.46655 186.375 7.66319 186.519 7.80866L192.507 13.7959C192.652 13.9403 192.849 14.0213 193.054 14.0213C193.259 14.0213 193.455 13.9403 193.601 13.7959L195.134 12.2623C195.434 11.9624 195.434 11.4687 195.134 11.1691L189.144 5.1809C188.999 5.03688 188.803 4.95605 188.599 4.95605C188.394 4.95605 188.198 5.03706 188.053 5.18109ZM177.309 24.7772C177.44 24.6459 177.513 24.4681 177.513 24.2827C177.513 24.0974 177.44 23.9196 177.309 23.7883L176.53 23.0085C176.398 22.8778 176.22 22.8045 176.035 22.8045C175.85 22.8045 175.672 22.8778 175.54 23.0085L173.931 24.6193L173.928 24.6215L173.486 24.1792C173.241 23.9347 172.843 23.9347 172.601 24.1792C172.357 24.4235 172.357 24.8215 172.601 25.0638L175.254 27.7162C175.312 27.7743 175.381 27.8203 175.457 27.8518C175.533 27.8832 175.614 27.8994 175.696 27.8994C175.778 27.8994 175.86 27.8832 175.936 27.8518C176.011 27.8203 176.08 27.7743 176.138 27.7162C176.38 27.4716 176.383 27.0736 176.138 26.8323L175.696 26.39L175.699 26.3877L177.309 24.7772Z" fill="#F5A800"/>
<path d="M185.421 9.5831L182.014 12.9897C181.712 13.2923 181.712 13.7907 182.014 14.0933L184.118 16.1965C185.605 15.1264 187.69 15.2588 189.028 16.5974L190.731 14.8936C191.033 14.5909 191.033 14.0933 190.731 13.7907L186.524 9.5831C186.452 9.51063 186.366 9.45313 186.271 9.41391C186.177 9.37468 186.075 9.35449 185.973 9.35449C185.87 9.35449 185.769 9.37468 185.674 9.41391C185.58 9.45313 185.494 9.51063 185.421 9.5831ZM183.233 17.0831L181.991 15.8406C181.7 15.5497 181.223 15.5497 180.932 15.8406L176.55 20.2245C176.41 20.3653 176.332 20.5557 176.332 20.7541C176.332 20.9525 176.41 21.1428 176.55 21.2836L179.033 23.7665C179.174 23.9063 179.364 23.9848 179.563 23.9848C179.761 23.9848 179.951 23.9063 180.092 23.7665L182.91 20.9437C182.315 19.7129 182.421 18.226 183.233 17.0831Z" fill="#425CC7"/>
</g>
<circle cx="166.224" cy="96.9951" r="19.6638" fill="#F6F6F6"/>
<g filter="url(#filter9_d_8472_603)">
<path d="M166.344 98.6106C165.367 99.5883 165.367 101.173 166.344 102.15C167.322 103.127 168.906 103.127 169.883 102.15C170.861 101.173 170.861 99.5883 169.883 98.6106C168.906 97.6336 167.322 97.6336 166.344 98.6106ZM168.99 101.259C168.875 101.374 168.738 101.465 168.588 101.528C168.438 101.59 168.277 101.622 168.114 101.622C167.951 101.622 167.79 101.59 167.64 101.528C167.489 101.465 167.353 101.374 167.238 101.259C167.123 101.144 167.031 101.007 166.969 100.857C166.907 100.706 166.875 100.545 166.875 100.383C166.875 100.22 166.907 100.059 166.969 99.9086C167.031 99.7583 167.123 99.6217 167.238 99.5067C167.353 99.3915 167.489 99.3002 167.64 99.2378C167.79 99.1755 167.951 99.1434 168.114 99.1434C168.277 99.1434 168.438 99.1755 168.588 99.2378C168.738 99.3002 168.875 99.3915 168.99 99.5067C169.474 99.9883 169.474 100.775 168.99 101.259ZM169.842 86.2958L168.308 87.8293C168.164 87.9748 168.083 88.1714 168.083 88.3763C168.083 88.5813 168.164 88.7779 168.308 88.9234L174.296 94.9106C174.441 95.055 174.638 95.136 174.843 95.136C175.048 95.136 175.244 95.055 175.39 94.9106L176.923 93.377C177.223 93.0772 177.223 92.5835 176.923 92.2838L170.933 86.2956C170.788 86.1516 170.592 86.0708 170.388 86.0708C170.183 86.0708 169.987 86.1518 169.842 86.2958ZM159.098 105.892C159.229 105.761 159.302 105.583 159.302 105.397C159.302 105.212 159.229 105.034 159.098 104.903L158.319 104.123C158.187 103.993 158.01 103.919 157.824 103.919C157.639 103.919 157.461 103.993 157.329 104.123L155.72 105.734L155.717 105.736L155.275 105.294C155.031 105.049 154.633 105.049 154.39 105.294C154.146 105.538 154.146 105.936 154.39 106.179L157.044 108.831C157.102 108.889 157.17 108.935 157.246 108.967C157.322 108.998 157.403 109.014 157.485 109.014C157.568 109.014 157.649 108.998 157.725 108.967C157.8 108.935 157.869 108.889 157.927 108.831C158.169 108.586 158.172 108.188 157.927 107.947L157.485 107.505L157.488 107.502L159.098 105.892Z" fill="#F5A800"/>
<path d="M167.212 90.6983L163.805 94.1049C163.503 94.4076 163.503 94.9059 163.805 95.2085L165.909 97.3117C167.396 96.2416 169.481 96.374 170.819 97.7127L172.522 96.0088C172.824 95.7062 172.824 95.2085 172.522 94.9059L168.315 90.6983C168.243 90.6259 168.157 90.5684 168.062 90.5291C167.968 90.4899 167.866 90.4697 167.764 90.4697C167.661 90.4697 167.56 90.4899 167.465 90.5291C167.371 90.5684 167.285 90.6259 167.212 90.6983ZM165.024 98.1983L163.782 96.9558C163.491 96.6649 163.014 96.6649 162.723 96.9558L158.341 101.34C158.201 101.481 158.123 101.671 158.123 101.869C158.123 102.068 158.201 102.258 158.341 102.399L160.824 104.882C160.965 105.022 161.155 105.1 161.354 105.1C161.552 105.1 161.742 105.022 161.883 104.882L164.701 102.059C164.106 100.828 164.212 99.3413 165.024 98.1983Z" fill="#425CC7"/>
</g>
<circle cx="247.338" cy="214.528" r="19.6638" fill="#F6F6F6"/>
<g filter="url(#filter10_d_8472_603)">
<path d="M247.461 216.144C246.484 217.121 246.484 218.706 247.461 219.684C248.439 220.661 250.024 220.661 251.001 219.684C251.978 218.706 251.978 217.121 251.001 216.144C250.024 215.167 248.439 215.167 247.461 216.144ZM250.107 218.792C249.992 218.907 249.856 218.998 249.705 219.061C249.555 219.123 249.394 219.155 249.231 219.155C249.068 219.155 248.907 219.123 248.757 219.061C248.606 218.998 248.47 218.907 248.355 218.792C248.24 218.677 248.148 218.54 248.086 218.39C248.024 218.24 247.992 218.079 247.992 217.916C247.992 217.753 248.024 217.592 248.086 217.442C248.148 217.291 248.24 217.155 248.355 217.04C248.47 216.925 248.606 216.833 248.757 216.771C248.907 216.709 249.068 216.677 249.231 216.677C249.394 216.677 249.555 216.709 249.705 216.771C249.856 216.833 249.992 216.925 250.107 217.04C250.591 217.522 250.591 218.308 250.107 218.792ZM250.959 203.829L249.426 205.362C249.281 205.508 249.2 205.705 249.2 205.91C249.2 206.115 249.281 206.311 249.426 206.457L255.413 212.444C255.558 212.588 255.755 212.669 255.96 212.669C256.165 212.669 256.362 212.588 256.507 212.444L258.04 210.91C258.34 210.61 258.34 210.117 258.04 209.817L252.051 203.829C251.906 203.685 251.709 203.604 251.505 203.604C251.301 203.604 251.104 203.685 250.959 203.829ZM240.215 223.425C240.346 223.294 240.419 223.116 240.419 222.931C240.419 222.745 240.346 222.568 240.215 222.436L239.436 221.656C239.305 221.526 239.127 221.452 238.941 221.452C238.756 221.452 238.578 221.526 238.447 221.656L236.837 223.267L236.834 223.269L236.392 222.827C236.148 222.583 235.75 222.583 235.508 222.827C235.263 223.071 235.263 223.469 235.508 223.712L238.161 226.364C238.219 226.422 238.288 226.468 238.363 226.5C238.439 226.531 238.521 226.547 238.603 226.547C238.685 226.547 238.766 226.531 238.842 226.5C238.918 226.468 238.987 226.422 239.045 226.364C239.287 226.12 239.289 225.722 239.045 225.48L238.602 225.038L238.605 225.036L240.215 223.425Z" fill="#F5A800"/>
<path d="M248.327 208.232L244.921 211.638C244.618 211.941 244.618 212.439 244.921 212.742L247.024 214.845C248.511 213.775 250.596 213.907 251.934 215.246L253.638 213.542C253.94 213.24 253.94 212.742 253.638 212.439L249.43 208.232C249.358 208.159 249.272 208.102 249.177 208.063C249.083 208.023 248.981 208.003 248.879 208.003C248.777 208.003 248.675 208.023 248.581 208.063C248.486 208.102 248.4 208.159 248.327 208.232ZM246.14 215.732L244.897 214.489C244.606 214.198 244.129 214.198 243.839 214.489L239.457 218.873C239.317 219.014 239.238 219.204 239.238 219.403C239.238 219.601 239.317 219.792 239.457 219.932L241.939 222.415C242.08 222.555 242.27 222.633 242.469 222.633C242.667 222.633 242.858 222.555 242.998 222.415L245.817 219.592C245.221 218.362 245.328 216.875 246.14 215.732Z" fill="#425CC7"/>
</g>
<circle cx="258.927" cy="305.576" r="19.6638" fill="#F6F6F6"/>
<g filter="url(#filter11_d_8472_603)">
<path d="M259.047 307.192C258.07 308.169 258.07 309.754 259.047 310.732C260.025 311.709 261.61 311.709 262.587 310.732C263.564 309.754 263.564 308.169 262.587 307.192C261.61 306.215 260.025 306.215 259.047 307.192ZM261.693 309.84C261.578 309.955 261.442 310.046 261.291 310.109C261.141 310.171 260.98 310.203 260.817 310.203C260.654 310.203 260.493 310.171 260.343 310.109C260.192 310.046 260.056 309.955 259.941 309.84C259.826 309.725 259.734 309.588 259.672 309.438C259.61 309.288 259.578 309.126 259.578 308.964C259.578 308.801 259.61 308.64 259.672 308.49C259.734 308.339 259.826 308.203 259.941 308.088C260.056 307.973 260.192 307.881 260.343 307.819C260.493 307.757 260.654 307.724 260.817 307.724C260.98 307.724 261.141 307.757 261.291 307.819C261.442 307.881 261.578 307.973 261.693 308.088C262.177 308.569 262.177 309.356 261.693 309.84ZM262.545 294.877L261.012 296.41C260.867 296.556 260.786 296.752 260.786 296.957C260.786 297.162 260.867 297.359 261.012 297.504L266.999 303.492C267.144 303.636 267.341 303.717 267.546 303.717C267.751 303.717 267.947 303.636 268.093 303.492L269.626 301.958C269.926 301.658 269.926 301.165 269.626 300.865L263.637 294.877C263.491 294.733 263.295 294.652 263.091 294.652C262.886 294.652 262.69 294.733 262.545 294.877ZM251.801 314.473C251.932 314.342 252.005 314.164 252.005 313.979C252.005 313.793 251.932 313.615 251.801 313.484L251.022 312.704C250.89 312.574 250.713 312.5 250.527 312.5C250.342 312.5 250.164 312.574 250.033 312.704L248.423 314.315L248.42 314.317L247.978 313.875C247.734 313.63 247.336 313.63 247.094 313.875C246.849 314.119 246.849 314.517 247.094 314.76L249.747 317.412C249.805 317.47 249.874 317.516 249.949 317.548C250.025 317.579 250.106 317.595 250.189 317.595C250.271 317.595 250.352 317.579 250.428 317.548C250.504 317.516 250.573 317.47 250.631 317.412C250.873 317.167 250.875 316.769 250.631 316.528L250.188 316.086L250.191 316.084L251.801 314.473Z" fill="#F5A800"/>
<path d="M259.913 299.279L256.507 302.685C256.204 302.988 256.204 303.486 256.507 303.789L258.61 305.892C260.097 304.822 262.182 304.955 263.52 306.293L265.224 304.589C265.526 304.287 265.526 303.789 265.224 303.486L261.016 299.279C260.944 299.206 260.858 299.149 260.763 299.11C260.669 299.07 260.567 299.05 260.465 299.05C260.363 299.05 260.261 299.07 260.166 299.11C260.072 299.149 259.986 299.206 259.913 299.279ZM257.726 306.779L256.483 305.536C256.192 305.245 255.715 305.245 255.425 305.536L251.042 309.92C250.903 310.061 250.824 310.251 250.824 310.45C250.824 310.648 250.903 310.839 251.042 310.979L253.525 313.462C253.666 313.602 253.856 313.681 254.055 313.681C254.253 313.681 254.444 313.602 254.584 313.462L257.403 310.64C256.807 309.409 256.914 307.922 257.726 306.779Z" fill="#425CC7"/>
</g>
<circle cx="186.088" cy="337.028" r="19.6638" fill="#F6F6F6"/>
<g filter="url(#filter12_d_8472_603)">
<path d="M186.211 338.644C185.234 339.622 185.234 341.206 186.211 342.184C187.189 343.161 188.774 343.161 189.751 342.184C190.728 341.206 190.728 339.622 189.751 338.644C188.774 337.667 187.189 337.667 186.211 338.644ZM188.857 341.292C188.742 341.407 188.606 341.499 188.455 341.561C188.305 341.623 188.144 341.655 187.981 341.655C187.818 341.655 187.657 341.623 187.507 341.561C187.356 341.499 187.22 341.407 187.105 341.292C186.99 341.177 186.898 341.041 186.836 340.89C186.774 340.74 186.742 340.579 186.742 340.416C186.742 340.253 186.774 340.092 186.836 339.942C186.898 339.792 186.99 339.655 187.105 339.54C187.22 339.425 187.356 339.334 187.507 339.271C187.657 339.209 187.818 339.177 187.981 339.177C188.144 339.177 188.305 339.209 188.455 339.271C188.606 339.334 188.742 339.425 188.857 339.54C189.341 340.022 189.341 340.808 188.857 341.292ZM189.709 326.329L188.176 327.863C188.031 328.008 187.95 328.205 187.95 328.41C187.95 328.615 188.031 328.811 188.176 328.957L194.163 334.944C194.308 335.088 194.505 335.169 194.71 335.169C194.915 335.169 195.112 335.088 195.257 334.944L196.79 333.41C197.09 333.111 197.09 332.617 196.79 332.317L190.801 326.329C190.656 326.185 190.459 326.104 190.255 326.104C190.051 326.104 189.854 326.185 189.709 326.329ZM178.965 345.925C179.096 345.794 179.169 345.616 179.169 345.431C179.169 345.246 179.096 345.068 178.965 344.936L178.186 344.157C178.055 344.026 177.877 343.953 177.691 343.953C177.506 343.953 177.328 344.026 177.197 344.157L175.587 345.767L175.584 345.77L175.142 345.327C174.898 345.083 174.5 345.083 174.258 345.327C174.013 345.572 174.013 345.97 174.258 346.212L176.911 348.864C176.969 348.922 177.038 348.969 177.113 349C177.189 349.031 177.271 349.048 177.353 349.048C177.435 349.048 177.516 349.031 177.592 349C177.668 348.969 177.737 348.922 177.795 348.864C178.037 348.62 178.039 348.222 177.795 347.98L177.352 347.538L177.355 347.536L178.965 345.925Z" fill="#F5A800"/>
<path d="M187.077 330.732L183.671 334.139C183.368 334.441 183.368 334.94 183.671 335.242L185.774 337.345C187.261 336.275 189.346 336.408 190.684 337.746L192.388 336.042C192.69 335.74 192.69 335.242 192.388 334.94L188.18 330.732C188.108 330.66 188.022 330.602 187.927 330.563C187.833 330.524 187.731 330.503 187.629 330.503C187.527 330.503 187.425 330.524 187.331 330.563C187.236 330.602 187.15 330.66 187.077 330.732ZM184.89 338.232L183.647 336.989C183.356 336.699 182.879 336.699 182.589 336.989L178.207 341.373C178.067 341.514 177.988 341.705 177.988 341.903C177.988 342.101 178.067 342.292 178.207 342.433L180.689 344.915C180.83 345.055 181.02 345.134 181.219 345.134C181.417 345.134 181.608 345.055 181.748 344.915L184.567 342.093C183.971 340.862 184.078 339.375 184.89 338.232Z" fill="#425CC7"/>
</g>
<circle cx="166.224" cy="250.948" r="19.6638" fill="#F6F6F6"/>
<g filter="url(#filter13_d_8472_603)">
<path d="M166.344 252.563C165.367 253.54 165.367 255.125 166.344 256.103C167.322 257.08 168.906 257.08 169.883 256.103C170.861 255.125 170.861 253.54 169.883 252.563C168.906 251.586 167.322 251.586 166.344 252.563ZM168.99 255.211C168.875 255.326 168.738 255.417 168.588 255.48C168.438 255.542 168.277 255.574 168.114 255.574C167.951 255.574 167.79 255.542 167.64 255.48C167.489 255.417 167.353 255.326 167.238 255.211C167.123 255.096 167.031 254.959 166.969 254.809C166.907 254.659 166.875 254.498 166.875 254.335C166.875 254.172 166.907 254.011 166.969 253.861C167.031 253.71 167.123 253.574 167.238 253.459C167.353 253.344 167.489 253.252 167.64 253.19C167.79 253.128 167.951 253.096 168.114 253.096C168.277 253.096 168.438 253.128 168.588 253.19C168.738 253.252 168.875 253.344 168.99 253.459C169.474 253.94 169.474 254.727 168.99 255.211ZM169.842 240.248L168.308 241.781C168.164 241.927 168.083 242.124 168.083 242.328C168.083 242.533 168.164 242.73 168.308 242.876L174.296 248.863C174.441 249.007 174.638 249.088 174.843 249.088C175.048 249.088 175.244 249.007 175.39 248.863L176.923 247.329C177.223 247.029 177.223 246.536 176.923 246.236L170.933 240.248C170.788 240.104 170.592 240.023 170.388 240.023C170.183 240.023 169.987 240.104 169.842 240.248ZM159.098 259.844C159.229 259.713 159.302 259.535 159.302 259.35C159.302 259.164 159.229 258.987 159.098 258.855L158.319 258.075C158.187 257.945 158.01 257.871 157.824 257.871C157.639 257.871 157.461 257.945 157.329 258.075L155.72 259.686L155.717 259.688L155.275 259.246C155.031 259.002 154.633 259.002 154.39 259.246C154.146 259.49 154.146 259.888 154.39 260.131L157.044 262.783C157.102 262.841 157.17 262.887 157.246 262.919C157.322 262.95 157.403 262.966 157.485 262.966C157.568 262.966 157.649 262.95 157.725 262.919C157.8 262.887 157.869 262.841 157.927 262.783C158.169 262.539 158.172 262.141 157.927 261.899L157.485 261.457L157.488 261.455L159.098 259.844Z" fill="#F5A800"/>
<path d="M167.212 244.65L163.805 248.057C163.503 248.36 163.503 248.858 163.805 249.161L165.909 251.264C167.396 250.194 169.481 250.326 170.819 251.665L172.522 249.961C172.824 249.658 172.824 249.161 172.522 248.858L168.315 244.65C168.243 244.578 168.157 244.521 168.062 244.481C167.968 244.442 167.866 244.422 167.764 244.422C167.661 244.422 167.56 244.442 167.465 244.481C167.371 244.521 167.285 244.578 167.212 244.65ZM165.024 252.15L163.782 250.908C163.491 250.617 163.014 250.617 162.723 250.908L158.341 255.292C158.201 255.433 158.123 255.623 158.123 255.821C158.123 256.02 158.201 256.21 158.341 256.351L160.824 258.834C160.965 258.974 161.155 259.052 161.354 259.052C161.552 259.052 161.742 258.974 161.883 258.834L164.701 256.011C164.106 254.78 164.212 253.293 165.024 252.15Z" fill="#425CC7"/>
</g>
<circle cx="131.461" cy="179.765" r="19.6638" fill="#F6F6F6"/>
<g filter="url(#filter14_d_8472_603)">
<path d="M131.581 181.38C130.604 182.358 130.604 183.942 131.581 184.92C132.558 185.897 134.143 185.897 135.12 184.92C136.097 183.942 136.097 182.358 135.12 181.38C134.143 180.403 132.558 180.403 131.581 181.38ZM134.226 184.028C134.111 184.143 133.975 184.235 133.824 184.297C133.674 184.359 133.513 184.391 133.35 184.391C133.187 184.391 133.026 184.359 132.876 184.297C132.726 184.235 132.589 184.143 132.474 184.028C132.359 183.913 132.268 183.777 132.205 183.626C132.143 183.476 132.111 183.315 132.111 183.152C132.111 182.99 132.143 182.828 132.205 182.678C132.268 182.528 132.359 182.391 132.474 182.276C132.589 182.161 132.726 182.07 132.876 182.007C133.026 181.945 133.187 181.913 133.35 181.913C133.513 181.913 133.674 181.945 133.824 182.007C133.975 182.07 134.111 182.161 134.226 182.276C134.71 182.758 134.71 183.544 134.226 184.028ZM135.078 169.065L133.545 170.599C133.4 170.744 133.319 170.941 133.319 171.146C133.319 171.351 133.4 171.547 133.545 171.693L139.532 177.68C139.677 177.825 139.874 177.906 140.079 177.906C140.284 177.906 140.481 177.825 140.626 177.68L142.16 176.147C142.459 175.847 142.459 175.353 142.16 175.053L136.17 169.065C136.025 168.921 135.829 168.84 135.624 168.84C135.42 168.84 135.223 168.921 135.078 169.065ZM124.334 188.661C124.465 188.53 124.538 188.352 124.538 188.167C124.538 187.982 124.465 187.804 124.334 187.673L123.555 186.893C123.424 186.762 123.246 186.689 123.06 186.689C122.875 186.689 122.697 186.762 122.566 186.893L120.956 188.504L120.953 188.506L120.511 188.063C120.267 187.819 119.869 187.819 119.627 188.063C119.382 188.308 119.382 188.706 119.627 188.948L122.28 191.6C122.338 191.659 122.407 191.705 122.483 191.736C122.558 191.768 122.64 191.784 122.722 191.784C122.804 191.784 122.885 191.768 122.961 191.736C123.037 191.705 123.106 191.659 123.164 191.6C123.406 191.356 123.408 190.958 123.164 190.717L122.721 190.274L122.724 190.272L124.334 188.661Z" fill="#F5A800"/>
<path d="M132.447 173.468L129.04 176.875C128.737 177.177 128.737 177.676 129.04 177.978L131.143 180.081C132.63 179.011 134.715 179.144 136.053 180.482L137.757 178.779C138.059 178.476 138.059 177.978 137.757 177.676L133.55 173.468C133.477 173.396 133.391 173.338 133.297 173.299C133.202 173.26 133.101 173.24 132.998 173.24C132.896 173.24 132.794 173.26 132.7 173.299C132.605 173.338 132.519 173.396 132.447 173.468ZM130.259 180.968L129.016 179.726C128.725 179.435 128.248 179.435 127.958 179.726L123.576 184.11C123.436 184.25 123.357 184.441 123.357 184.639C123.357 184.837 123.436 185.028 123.576 185.169L126.058 187.652C126.199 187.791 126.39 187.87 126.588 187.87C126.786 187.87 126.977 187.791 127.118 187.652L129.936 184.829C129.34 183.598 129.447 182.111 130.259 180.968Z" fill="#425CC7"/>
</g>
<circle cx="349.574" cy="160.149" r="19.6638" fill="#F6F6F6"/>
<g filter="url(#filter15_d_8472_603)">
<path d="M349.694 161.764C348.717 162.742 348.717 164.326 349.694 165.304C350.672 166.281 352.256 166.281 353.233 165.304C354.211 164.326 354.211 162.742 353.233 161.764C352.256 160.787 350.672 160.787 349.694 161.764ZM352.34 164.412C352.225 164.527 352.088 164.618 351.938 164.681C351.787 164.743 351.626 164.775 351.463 164.775C351.301 164.775 351.14 164.743 350.989 164.681C350.839 164.618 350.702 164.527 350.587 164.412C350.472 164.297 350.381 164.16 350.319 164.01C350.256 163.86 350.224 163.699 350.224 163.536C350.224 163.373 350.256 163.212 350.319 163.062C350.381 162.912 350.472 162.775 350.587 162.66C350.702 162.545 350.839 162.453 350.989 162.391C351.14 162.329 351.301 162.297 351.463 162.297C351.626 162.297 351.787 162.329 351.938 162.391C352.088 162.453 352.225 162.545 352.34 162.66C352.824 163.142 352.824 163.928 352.34 164.412ZM353.192 149.449L351.658 150.983C351.514 151.128 351.433 151.325 351.433 151.53C351.433 151.735 351.514 151.931 351.658 152.077L357.645 158.064C357.791 158.208 357.987 158.289 358.192 158.289C358.397 158.289 358.594 158.208 358.739 158.064L360.273 156.53C360.573 156.23 360.573 155.737 360.273 155.437L354.283 149.449C354.138 149.305 353.942 149.224 353.737 149.224C353.533 149.224 353.337 149.305 353.192 149.449ZM342.447 169.045C342.578 168.914 342.652 168.736 342.652 168.551C342.652 168.365 342.578 168.188 342.447 168.056L341.668 167.277C341.537 167.146 341.359 167.073 341.174 167.073C340.988 167.073 340.81 167.146 340.679 167.277L339.069 168.887L339.066 168.89L338.625 168.447C338.38 168.203 337.982 168.203 337.74 168.447C337.496 168.692 337.496 169.09 337.74 169.332L340.393 171.984C340.451 172.042 340.52 172.088 340.596 172.12C340.672 172.151 340.753 172.167 340.835 172.167C340.917 172.167 340.998 172.151 341.074 172.12C341.15 172.088 341.219 172.042 341.277 171.984C341.519 171.74 341.522 171.342 341.277 171.1L340.835 170.658L340.838 170.656L342.447 169.045Z" fill="#F5A800"/>
<path d="M350.562 153.852L347.155 157.258C346.852 157.561 346.852 158.059 347.155 158.362L349.259 160.465C350.746 159.395 352.831 159.527 354.168 160.866L355.872 159.162C356.174 158.859 356.174 158.362 355.872 158.059L351.665 153.852C351.592 153.779 351.506 153.722 351.412 153.682C351.317 153.643 351.216 153.623 351.113 153.623C351.011 153.623 350.91 153.643 350.815 153.682C350.72 153.722 350.634 153.779 350.562 153.852ZM348.374 161.352L347.132 160.109C346.84 159.818 346.363 159.818 346.073 160.109L341.691 164.493C341.551 164.634 341.473 164.824 341.473 165.023C341.473 165.221 341.551 165.411 341.691 165.552L344.174 168.035C344.314 168.175 344.505 168.253 344.703 168.253C344.902 168.253 345.092 168.175 345.233 168.035L348.051 165.212C347.455 163.981 347.562 162.495 348.374 161.352Z" fill="#425CC7"/>
</g>
<circle cx="427.779" cy="219.495" r="19.6638" fill="#F6F6F6"/>
<g filter="url(#filter16_d_8472_603)">
<path d="M427.899 221.111C426.922 222.088 426.922 223.673 427.899 224.65C428.877 225.627 430.461 225.627 431.438 224.65C432.416 223.673 432.416 222.088 431.438 221.111C430.461 220.134 428.877 220.134 427.899 221.111ZM430.545 223.759C430.43 223.874 430.293 223.965 430.143 224.028C429.992 224.09 429.831 224.122 429.669 224.122C429.506 224.122 429.345 224.09 429.194 224.028C429.044 223.965 428.907 223.874 428.792 223.759C428.677 223.644 428.586 223.507 428.524 223.357C428.461 223.206 428.429 223.045 428.429 222.883C428.429 222.72 428.461 222.559 428.524 222.409C428.586 222.258 428.677 222.122 428.792 222.007C428.907 221.892 429.044 221.8 429.194 221.738C429.345 221.675 429.506 221.643 429.669 221.643C429.831 221.643 429.992 221.675 430.143 221.738C430.293 221.8 430.43 221.892 430.545 222.007C431.029 222.488 431.029 223.275 430.545 223.759ZM431.397 208.796L429.863 210.329C429.719 210.475 429.638 210.671 429.638 210.876C429.638 211.081 429.719 211.278 429.863 211.423L435.85 217.411C435.996 217.555 436.192 217.636 436.397 217.636C436.602 217.636 436.799 217.555 436.944 217.411L438.478 215.877C438.778 215.577 438.778 215.083 438.478 214.784L432.488 208.796C432.343 208.652 432.147 208.571 431.942 208.571C431.738 208.571 431.542 208.652 431.397 208.796ZM420.653 228.392C420.783 228.261 420.857 228.083 420.857 227.897C420.857 227.712 420.783 227.534 420.653 227.403L419.874 226.623C419.742 226.493 419.564 226.419 419.379 226.419C419.193 226.419 419.016 226.493 418.884 226.623L417.274 228.234L417.271 228.236L416.83 227.794C416.585 227.549 416.187 227.549 415.945 227.794C415.701 228.038 415.701 228.436 415.945 228.679L418.598 231.331C418.656 231.389 418.725 231.435 418.801 231.467C418.877 231.498 418.958 231.514 419.04 231.514C419.122 231.514 419.204 231.498 419.279 231.467C419.355 231.435 419.424 231.389 419.482 231.331C419.724 231.086 419.727 230.688 419.482 230.447L419.04 230.005L419.043 230.002L420.653 228.392Z" fill="#F5A800"/>
<path d="M428.765 213.198L425.358 216.605C425.055 216.908 425.055 217.406 425.358 217.709L427.462 219.812C428.949 218.742 431.034 218.874 432.371 220.213L434.075 218.509C434.377 218.206 434.377 217.709 434.075 217.406L429.868 213.198C429.796 213.126 429.71 213.068 429.615 213.029C429.52 212.99 429.419 212.97 429.317 212.97C429.214 212.97 429.113 212.99 429.018 213.029C428.923 213.068 428.837 213.126 428.765 213.198ZM426.577 220.698L425.335 219.456C425.044 219.165 424.566 219.165 424.276 219.456L419.894 223.84C419.754 223.981 419.676 224.171 419.676 224.369C419.676 224.568 419.754 224.758 419.894 224.899L422.377 227.382C422.517 227.522 422.708 227.6 422.906 227.6C423.105 227.6 423.295 227.522 423.436 227.382L426.254 224.559C425.658 223.328 425.765 221.841 426.577 220.698Z" fill="#425CC7"/>
</g>
</g>
<defs>
<filter id="filter0_d_8472_603" x="508.398" y="205.192" width="62.9414" height="62.9434" filterUnits="userSpaceOnUse" color-interpolation-filters="sRGB">
<feFlood flood-opacity="0" result="BackgroundImageFix"/>
<feColorMatrix in="SourceAlpha" type="matrix" values="0 0 0 0 0 0 0 0 0 0 0 0 0 0 0 0 0 0 127 0" result="hardAlpha"/>
<feOffset dx="10" dy="10"/>
<feGaussianBlur stdDeviation="10"/>
<feComposite in2="hardAlpha" operator="out"/>
<feColorMatrix type="matrix" values="0 0 0 0 0 0 0 0 0 0 0 0 0 0 0 0 0 0 0.1 0"/>
<feBlend mode="normal" in2="BackgroundImageFix" result="effect1_dropShadow_8472_603"/>
<feBlend mode="normal" in="SourceGraphic" in2="effect1_dropShadow_8472_603" result="shape"/>
</filter>
<filter id="filter1_d_8472_603" x="465.357" y="284.652" width="62.9414" height="62.9434" filterUnits="userSpaceOnUse" color-interpolation-filters="sRGB">
<feFlood flood-opacity="0" result="BackgroundImageFix"/>
<feColorMatrix in="SourceAlpha" type="matrix" values="0 0 0 0 0 0 0 0 0 0 0 0 0 0 0 0 0 0 127 0" result="hardAlpha"/>
<feOffset dx="10" dy="10"/>
<feGaussianBlur stdDeviation="10"/>
<feComposite in2="hardAlpha" operator="out"/>
<feColorMatrix type="matrix" values="0 0 0 0 0 0 0 0 0 0 0 0 0 0 0 0 0 0 0.1 0"/>
<feBlend mode="normal" in2="BackgroundImageFix" result="effect1_dropShadow_8472_603"/>
<feBlend mode="normal" in="SourceGraphic" in2="effect1_dropShadow_8472_603" result="shape"/>
</filter>
<filter id="filter2_d_8472_603" x="505.621" y="20.1484" width="62.9414" height="62.9434" filterUnits="userSpaceOnUse" color-interpolation-filters="sRGB">
<feFlood flood-opacity="0" result="BackgroundImageFix"/>
<feColorMatrix in="SourceAlpha" type="matrix" values="0 0 0 0 0 0 0 0 0 0 0 0 0 0 0 0 0 0 127 0" result="hardAlpha"/>
<feOffset dx="10" dy="10"/>
<feGaussianBlur stdDeviation="10"/>
<feComposite in2="hardAlpha" operator="out"/>
<feColorMatrix type="matrix" values="0 0 0 0 0 0 0 0 0 0 0 0 0 0 0 0 0 0 0.1 0"/>
<feBlend mode="normal" in2="BackgroundImageFix" result="effect1_dropShadow_8472_603"/>
<feBlend mode="normal" in="SourceGraphic" in2="effect1_dropShadow_8472_603" result="shape"/>
</filter>
<filter id="filter3_d_8472_603" x="418.23" y="57.2915" width="62.9414" height="62.9434" filterUnits="userSpaceOnUse" color-interpolation-filters="sRGB">
<feFlood flood-opacity="0" result="BackgroundImageFix"/>
<feColorMatrix in="SourceAlpha" type="matrix" values="0 0 0 0 0 0 0 0 0 0 0 0 0 0 0 0 0 0 127 0" result="hardAlpha"/>
<feOffset dx="10" dy="10"/>
<feGaussianBlur stdDeviation="10"/>
<feComposite in2="hardAlpha" operator="out"/>
<feColorMatrix type="matrix" values="0 0 0 0 0 0 0 0 0 0 0 0 0 0 0 0 0 0 0.1 0"/>
<feBlend mode="normal" in2="BackgroundImageFix" result="effect1_dropShadow_8472_603"/>
<feBlend mode="normal" in="SourceGraphic" in2="effect1_dropShadow_8472_603" result="shape"/>
</filter>
<filter id="filter4_d_8472_603" x="367.975" y="1.57715" width="62.9414" height="62.9434" filterUnits="userSpaceOnUse" color-interpolation-filters="sRGB">
<feFlood flood-opacity="0" result="BackgroundImageFix"/>
<feColorMatrix in="SourceAlpha" type="matrix" values="0 0 0 0 0 0 0 0 0 0 0 0 0 0 0 0 0 0 127 0" result="hardAlpha"/>
<feOffset dx="10" dy="10"/>
<feGaussianBlur stdDeviation="10"/>
<feComposite in2="hardAlpha" operator="out"/>
<feColorMatrix type="matrix" values="0 0 0 0 0 0 0 0 0 0 0 0 0 0 0 0 0 0 0.1 0"/>
<feBlend mode="normal" in2="BackgroundImageFix" result="effect1_dropShadow_8472_603"/>
<feBlend mode="normal" in="SourceGraphic" in2="effect1_dropShadow_8472_603" result="shape"/>
</filter>
<filter id="filter5_d_8472_603" x="471.539" y="115.159" width="62.9414" height="62.9434" filterUnits="userSpaceOnUse" color-interpolation-filters="sRGB">
<feFlood flood-opacity="0" result="BackgroundImageFix"/>
<feColorMatrix in="SourceAlpha" type="matrix" values="0 0 0 0 0 0 0 0 0 0 0 0 0 0 0 0 0 0 127 0" result="hardAlpha"/>
<feOffset dx="10" dy="10"/>
<feGaussianBlur stdDeviation="10"/>
<feComposite in2="hardAlpha" operator="out"/>
<feColorMatrix type="matrix" values="0 0 0 0 0 0 0 0 0 0 0 0 0 0 0 0 0 0 0.1 0"/>
<feBlend mode="normal" in2="BackgroundImageFix" result="effect1_dropShadow_8472_603"/>
<feBlend mode="normal" in="SourceGraphic" in2="effect1_dropShadow_8472_603" result="shape"/>
</filter>
<filter id="filter6_d_8472_603" x="213.734" y="31.3745" width="62.9414" height="62.9434" filterUnits="userSpaceOnUse" color-interpolation-filters="sRGB">
<feFlood flood-opacity="0" result="BackgroundImageFix"/>
<feColorMatrix in="SourceAlpha" type="matrix" values="0 0 0 0 0 0 0 0 0 0 0 0 0 0 0 0 0 0 127 0" result="hardAlpha"/>
<feOffset dx="10" dy="10"/>
<feGaussianBlur stdDeviation="10"/>
<feComposite in2="hardAlpha" operator="out"/>
<feColorMatrix type="matrix" values="0 0 0 0 0 0 0 0 0 0 0 0 0 0 0 0 0 0 0.1 0"/>
<feBlend mode="normal" in2="BackgroundImageFix" result="effect1_dropShadow_8472_603"/>
<feBlend mode="normal" in="SourceGraphic" in2="effect1_dropShadow_8472_603" result="shape"/>
</filter>
<filter id="filter7_d_8472_603" x="92.8887" y="28.064" width="62.9414" height="62.9434" filterUnits="userSpaceOnUse" color-interpolation-filters="sRGB">
<feFlood flood-opacity="0" result="BackgroundImageFix"/>
<feColorMatrix in="SourceAlpha" type="matrix" values="0 0 0 0 0 0 0 0 0 0 0 0 0 0 0 0 0 0 127 0" result="hardAlpha"/>
<feOffset dx="10" dy="10"/>
<feGaussianBlur stdDeviation="10"/>
<feComposite in2="hardAlpha" operator="out"/>
<feColorMatrix type="matrix" values="0 0 0 0 0 0 0 0 0 0 0 0 0 0 0 0 0 0 0.1 0"/>
<feBlend mode="normal" in2="BackgroundImageFix" result="effect1_dropShadow_8472_603"/>
<feBlend mode="normal" in="SourceGraphic" in2="effect1_dropShadow_8472_603" result="shape"/>
</filter>
<filter id="filter8_d_8472_603" x="162.418" y="-5.04395" width="62.9414" height="62.9434" filterUnits="userSpaceOnUse" color-interpolation-filters="sRGB">
<feFlood flood-opacity="0" result="BackgroundImageFix"/>
<feColorMatrix in="SourceAlpha" type="matrix" values="0 0 0 0 0 0 0 0 0 0 0 0 0 0 0 0 0 0 127 0" result="hardAlpha"/>
<feOffset dx="10" dy="10"/>
<feGaussianBlur stdDeviation="10"/>
<feComposite in2="hardAlpha" operator="out"/>
<feColorMatrix type="matrix" values="0 0 0 0 0 0 0 0 0 0 0 0 0 0 0 0 0 0 0.1 0"/>
<feBlend mode="normal" in2="BackgroundImageFix" result="effect1_dropShadow_8472_603"/>
<feBlend mode="normal" in="SourceGraphic" in2="effect1_dropShadow_8472_603" result="shape"/>
</filter>
<filter id="filter9_d_8472_603" x="144.207" y="76.0708" width="62.9414" height="62.9434" filterUnits="userSpaceOnUse" color-interpolation-filters="sRGB">
<feFlood flood-opacity="0" result="BackgroundImageFix"/>
<feColorMatrix in="SourceAlpha" type="matrix" values="0 0 0 0 0 0 0 0 0 0 0 0 0 0 0 0 0 0 127 0" result="hardAlpha"/>
<feOffset dx="10" dy="10"/>
<feGaussianBlur stdDeviation="10"/>
<feComposite in2="hardAlpha" operator="out"/>
<feColorMatrix type="matrix" values="0 0 0 0 0 0 0 0 0 0 0 0 0 0 0 0 0 0 0.1 0"/>
<feBlend mode="normal" in2="BackgroundImageFix" result="effect1_dropShadow_8472_603"/>
<feBlend mode="normal" in="SourceGraphic" in2="effect1_dropShadow_8472_603" result="shape"/>
</filter>
<filter id="filter10_d_8472_603" x="225.324" y="193.604" width="62.9414" height="62.9434" filterUnits="userSpaceOnUse" color-interpolation-filters="sRGB">
<feFlood flood-opacity="0" result="BackgroundImageFix"/>
<feColorMatrix in="SourceAlpha" type="matrix" values="0 0 0 0 0 0 0 0 0 0 0 0 0 0 0 0 0 0 127 0" result="hardAlpha"/>
<feOffset dx="10" dy="10"/>
<feGaussianBlur stdDeviation="10"/>
<feComposite in2="hardAlpha" operator="out"/>
<feColorMatrix type="matrix" values="0 0 0 0 0 0 0 0 0 0 0 0 0 0 0 0 0 0 0.1 0"/>
<feBlend mode="normal" in2="BackgroundImageFix" result="effect1_dropShadow_8472_603"/>
<feBlend mode="normal" in="SourceGraphic" in2="effect1_dropShadow_8472_603" result="shape"/>
</filter>
<filter id="filter11_d_8472_603" x="236.91" y="284.652" width="62.9414" height="62.9434" filterUnits="userSpaceOnUse" color-interpolation-filters="sRGB">
<feFlood flood-opacity="0" result="BackgroundImageFix"/>
<feColorMatrix in="SourceAlpha" type="matrix" values="0 0 0 0 0 0 0 0 0 0 0 0 0 0 0 0 0 0 127 0" result="hardAlpha"/>
<feOffset dx="10" dy="10"/>
<feGaussianBlur stdDeviation="10"/>
<feComposite in2="hardAlpha" operator="out"/>
<feColorMatrix type="matrix" values="0 0 0 0 0 0 0 0 0 0 0 0 0 0 0 0 0 0 0.1 0"/>
<feBlend mode="normal" in2="BackgroundImageFix" result="effect1_dropShadow_8472_603"/>
<feBlend mode="normal" in="SourceGraphic" in2="effect1_dropShadow_8472_603" result="shape"/>
</filter>
<filter id="filter12_d_8472_603" x="164.074" y="316.104" width="62.9414" height="62.9434" filterUnits="userSpaceOnUse" color-interpolation-filters="sRGB">
<feFlood flood-opacity="0" result="BackgroundImageFix"/>
<feColorMatrix in="SourceAlpha" type="matrix" values="0 0 0 0 0 0 0 0 0 0 0 0 0 0 0 0 0 0 127 0" result="hardAlpha"/>
<feOffset dx="10" dy="10"/>
<feGaussianBlur stdDeviation="10"/>
<feComposite in2="hardAlpha" operator="out"/>
<feColorMatrix type="matrix" values="0 0 0 0 0 0 0 0 0 0 0 0 0 0 0 0 0 0 0.1 0"/>
<feBlend mode="normal" in2="BackgroundImageFix" result="effect1_dropShadow_8472_603"/>
<feBlend mode="normal" in="SourceGraphic" in2="effect1_dropShadow_8472_603" result="shape"/>
</filter>
<filter id="filter13_d_8472_603" x="144.207" y="230.023" width="62.9414" height="62.9434" filterUnits="userSpaceOnUse" color-interpolation-filters="sRGB">
<feFlood flood-opacity="0" result="BackgroundImageFix"/>
<feColorMatrix in="SourceAlpha" type="matrix" values="0 0 0 0 0 0 0 0 0 0 0 0 0 0 0 0 0 0 127 0" result="hardAlpha"/>
<feOffset dx="10" dy="10"/>
<feGaussianBlur stdDeviation="10"/>
<feComposite in2="hardAlpha" operator="out"/>
<feColorMatrix type="matrix" values="0 0 0 0 0 0 0 0 0 0 0 0 0 0 0 0 0 0 0.1 0"/>
<feBlend mode="normal" in2="BackgroundImageFix" result="effect1_dropShadow_8472_603"/>
<feBlend mode="normal" in="SourceGraphic" in2="effect1_dropShadow_8472_603" result="shape"/>
</filter>
<filter id="filter14_d_8472_603" x="109.443" y="158.84" width="62.9414" height="62.9434" filterUnits="userSpaceOnUse" color-interpolation-filters="sRGB">
<feFlood flood-opacity="0" result="BackgroundImageFix"/>
<feColorMatrix in="SourceAlpha" type="matrix" values="0 0 0 0 0 0 0 0 0 0 0 0 0 0 0 0 0 0 127 0" result="hardAlpha"/>
<feOffset dx="10" dy="10"/>
<feGaussianBlur stdDeviation="10"/>
<feComposite in2="hardAlpha" operator="out"/>
<feColorMatrix type="matrix" values="0 0 0 0 0 0 0 0 0 0 0 0 0 0 0 0 0 0 0.1 0"/>
<feBlend mode="normal" in2="BackgroundImageFix" result="effect1_dropShadow_8472_603"/>
<feBlend mode="normal" in="SourceGraphic" in2="effect1_dropShadow_8472_603" result="shape"/>
</filter>
<filter id="filter15_d_8472_603" x="327.557" y="139.224" width="62.9414" height="62.9434" filterUnits="userSpaceOnUse" color-interpolation-filters="sRGB">
<feFlood flood-opacity="0" result="BackgroundImageFix"/>
<feColorMatrix in="SourceAlpha" type="matrix" values="0 0 0 0 0 0 0 0 0 0 0 0 0 0 0 0 0 0 127 0" result="hardAlpha"/>
<feOffset dx="10" dy="10"/>
<feGaussianBlur stdDeviation="10"/>
<feComposite in2="hardAlpha" operator="out"/>
<feColorMatrix type="matrix" values="0 0 0 0 0 0 0 0 0 0 0 0 0 0 0 0 0 0 0.1 0"/>
<feBlend mode="normal" in2="BackgroundImageFix" result="effect1_dropShadow_8472_603"/>
<feBlend mode="normal" in="SourceGraphic" in2="effect1_dropShadow_8472_603" result="shape"/>
</filter>
<filter id="filter16_d_8472_603" x="405.762" y="198.571" width="62.9414" height="62.9434" filterUnits="userSpaceOnUse" color-interpolation-filters="sRGB">
<feFlood flood-opacity="0" result="BackgroundImageFix"/>
<feColorMatrix in="SourceAlpha" type="matrix" values="0 0 0 0 0 0 0 0 0 0 0 0 0 0 0 0 0 0 127 0" result="hardAlpha"/>
<feOffset dx="10" dy="10"/>
<feGaussianBlur stdDeviation="10"/>
<feComposite in2="hardAlpha" operator="out"/>
<feColorMatrix type="matrix" values="0 0 0 0 0 0 0 0 0 0 0 0 0 0 0 0 0 0 0.1 0"/>
<feBlend mode="normal" in2="BackgroundImageFix" result="effect1_dropShadow_8472_603"/>
<feBlend mode="normal" in="SourceGraphic" in2="effect1_dropShadow_8472_603" result="shape"/>
</filter>
<clipPath id="clip0_8472_603">
<rect width="654" height="350" fill="white"/>
</clipPath>
</defs>
</svg>
