<svg width="1018" height="581" viewBox="0 0 1018 581" fill="none" xmlns="http://www.w3.org/2000/svg">
<rect width="1017.04" height="581" fill="#32407D"/>
<path d="M1017.04 0H872V145.04H1017.04V0Z" fill="#F5A800"/>
<path d="M1016.86 289.79H871.82V434.83H1016.86V289.79Z" fill="#425CC7"/>
<path d="M871.54 144.99H726.5V290.03H871.54V144.99Z" fill="white"/>
<path d="M872.039 435H727.039V581H872.039V435Z" fill="#F6F6F6"/>
<path d="M726.499 0H581.459V145.04H726.499V0Z" fill="#202C5F"/>
<path d="M726.36 289.79H581.32V434.83H726.36V289.79Z" fill="#425CC7"/>
<path d="M581.179 145.18H436.139V290.22H581.179V145.18Z" fill="#425CC7"/>
<path d="M581.179 434.97H436.139V580.01H581.179V434.97Z" fill="#F5A800"/>
<path d="M436.039 0H290.039V145H436.039V0Z" fill="#202C5F"/>
<g filter="url(#filter0_d_8471_199)">
<path d="M366.881 77.8598C361.983 82.7609 361.983 90.7037 366.881 95.6049C371.782 100.502 379.725 100.502 384.622 95.6049C389.523 90.7037 389.523 82.7609 384.622 77.8598C379.725 72.9623 371.782 72.9623 366.881 77.8598ZM380.144 91.1341C379.567 91.7114 378.883 92.1695 378.129 92.482C377.375 92.7945 376.567 92.9553 375.752 92.9553C374.936 92.9553 374.128 92.7945 373.374 92.482C372.62 92.1695 371.936 91.7114 371.359 91.1341C370.782 90.5575 370.325 89.873 370.013 89.1196C369.7 88.3661 369.54 87.5586 369.54 86.7431C369.54 85.9275 369.7 85.12 370.013 84.3665C370.325 83.6131 370.782 82.9286 371.359 82.3521C371.936 81.7747 372.62 81.3167 373.374 81.0041C374.128 80.6916 374.936 80.5308 375.752 80.5308C376.567 80.5308 377.375 80.6916 378.129 81.0041C378.883 81.3167 379.567 81.7747 380.144 82.3521C382.569 84.7662 382.569 88.7087 380.144 91.1341ZM384.415 16.128L376.727 23.815C376.003 24.5442 375.597 25.5299 375.597 26.5573C375.597 27.5847 376.003 28.5704 376.727 29.2997L406.74 59.3127C407.469 60.0364 408.455 60.4426 409.483 60.4426C410.51 60.4426 411.496 60.0364 412.225 59.3127L419.912 51.6248C421.415 50.1218 421.415 47.6469 419.912 46.1448L389.886 16.1271C389.158 15.4051 388.175 15 387.15 15C386.126 15 385.142 15.4061 384.415 16.128ZM330.556 114.36C331.211 113.702 331.579 112.811 331.579 111.882C331.579 110.952 331.211 110.061 330.556 109.403L326.651 105.494C325.992 104.839 325.1 104.471 324.171 104.471C323.242 104.471 322.35 104.839 321.691 105.494L313.621 113.568L313.606 113.58L311.393 111.362C310.167 110.137 308.172 110.137 306.958 111.362C305.733 112.587 305.733 114.582 306.958 115.797L320.258 129.093C320.549 129.384 320.894 129.615 321.274 129.773C321.654 129.93 322.062 130.011 322.473 130.011C322.885 130.011 323.292 129.93 323.672 129.773C324.053 129.615 324.398 129.384 324.689 129.093C325.902 127.867 325.914 125.872 324.689 124.662L322.471 122.445L322.486 122.434L330.556 114.36Z" fill="#F5A800"/>
<path d="M371.226 38.1948L354.149 55.2715C352.632 56.7885 352.632 59.2867 354.149 60.8038L364.694 71.3465C372.148 65.9822 382.6 66.646 389.306 73.3564L397.846 64.8153C399.36 63.2982 399.36 60.8038 397.846 59.2867L376.756 38.1948C376.393 37.8315 375.962 37.5433 375.488 37.3467C375.013 37.15 374.505 37.0488 373.991 37.0488C373.478 37.0488 372.97 37.15 372.495 37.3467C372.021 37.5433 371.589 37.8315 371.226 38.1948ZM360.26 75.7911L354.031 69.5624C352.572 68.1042 350.18 68.1042 348.725 69.5624L326.758 91.5385C326.057 92.2443 325.664 93.1985 325.664 94.193C325.664 95.1876 326.057 96.1418 326.758 96.8476L339.203 109.294C339.909 109.995 340.864 110.388 341.858 110.388C342.853 110.388 343.808 109.995 344.513 109.294L358.64 95.1439C355.654 88.974 356.189 81.5204 360.26 75.7911Z" fill="#425CC7"/>
</g>
<path d="M436.039 290H291.039V435H436.039V290Z" fill="#202C5F"/>
<path d="M290.04 145H145V290.04H290.04V145Z" fill="#202C5F"/>
<path d="M145.04 145H0V290.04H145.04V145Z" fill="#32407D"/>
<path d="M291.039 435H145.039V580H291.039V435Z" fill="#425CC7"/>
<path d="M145.29 0H0.25V145.04H145.29V0Z" fill="#425CC7"/>
<path d="M145.21 289.79H0.169922V434.83H145.21V289.79Z" fill="#425CC7"/>
<path d="M581.039 0.139648H436.27V144.91H581.039V0.139648Z" fill="#425CC7"/>
<path d="M581.039 144.91V30.5205L508.76 102.8L479.88 73.9105L436.27 117.521V144.91H581.039Z" fill="#32407D"/>
<path d="M307.811 307.57C284.811 330.99 284.811 368.96 307.811 392.39C328.261 413.21 360.011 415.52 382.971 399.31L414.141 431.05C419.081 436.08 427.101 436.08 432.041 431.05C436.981 426.02 436.981 417.86 432.041 412.83L400.221 380.43C413.551 357.43 410.511 327.33 391.111 307.57C368.111 284.15 330.811 284.15 307.811 307.57ZM373.211 325.79C386.331 339.15 386.331 360.8 373.211 374.16C360.091 387.52 338.821 387.52 325.711 374.16C312.591 360.8 312.591 339.15 325.711 325.79C338.831 312.43 360.101 312.43 373.211 325.79Z" fill="#F5A800"/>
<path d="M871.75 507.41C871.75 467.32 839.25 434.82 799.16 434.82C759.07 434.82 726.57 467.32 726.57 507.41C726.57 547.5 759.07 580 799.16 580H871.75V507.41Z" fill="#F5A800"/>
<path d="M318.216 507.5H309.162V580H300.106V507.5H309.16V435H318.216V507.5Z" fill="white"/>
<path d="M327.284 580H318.227V507.5H327.284V580Z" fill="white"/>
<path d="M354.461 507.5H345.407V580H336.35V507.5H345.405V435H354.461V507.5Z" fill="white"/>
<path d="M363.528 580H354.472V507.5H363.528V580Z" fill="white"/>
<path d="M390.705 507.5H381.652V580H372.595V507.5H381.65V435H390.705V507.5Z" fill="white"/>
<path d="M399.773 580H390.716V507.5H399.773V580Z" fill="white"/>
<path d="M417.886 580H408.83V507.5H417.886V580Z" fill="white"/>
<path d="M436.039 507.5V580H426.982V507.5H436.039Z" fill="white"/>
<path d="M300.095 507.5H291.039V435H300.095V507.5Z" fill="white"/>
<path d="M336.339 507.5H327.284V435H336.339V507.5Z" fill="white"/>
<path d="M372.584 507.5H363.528V435H372.584V507.5Z" fill="white"/>
<path d="M408.83 507.5H399.773V435H408.829L408.83 507.5Z" fill="white"/>
<path d="M426.952 507.5H417.896V435H426.952V507.5Z" fill="white"/>
<path d="M653.54 288.73C693.503 288.73 725.9 256.553 725.9 216.86C725.9 177.168 693.503 144.99 653.54 144.99C613.576 144.99 581.18 177.168 581.18 216.86C581.18 256.553 613.576 288.73 653.54 288.73Z" fill="#425CC7"/>
<path d="M653.539 259.98C677.519 259.98 696.959 240.675 696.959 216.86C696.959 193.046 677.519 173.74 653.539 173.74C629.559 173.74 610.119 193.046 610.119 216.86C610.119 240.675 629.559 259.98 653.539 259.98Z" fill="#F5A800"/>
<path d="M653.54 231.23C661.532 231.23 668.01 224.797 668.01 216.86C668.01 208.924 661.532 202.49 653.54 202.49C645.549 202.49 639.07 208.924 639.07 216.86C639.07 224.797 645.549 231.23 653.54 231.23Z" fill="#425CC7"/>
<path d="M237.599 167.36H173.199L173.339 268.04H265.159L265.019 194.78L237.599 167.36Z" fill="#F5A800"/>
<path d="M237.549 167.36V194.83H265.019L237.549 167.36Z" fill="#425CC7"/>
<path d="M228.249 185.521H191.549V194.69H228.249V185.521Z" fill="white"/>
<path d="M246.729 203.851H191.549V213.021H246.729V203.851Z" fill="white"/>
<path d="M246.729 222.19H191.549V231.36H246.729V222.19Z" fill="white"/>
<path d="M246.729 240.521H191.549V249.69H246.729V240.521Z" fill="white"/>
<path d="M251.33 370.14L186.5 434.97H213.2L264.68 383.49L251.33 370.14Z" fill="#202C5F"/>
<path d="M216.919 364.48L146.439 434.97H173.14L230.28 377.83L216.919 364.48Z" fill="#202C5F"/>
<path d="M183.97 317.31L145.5 355.79V382.5L197.33 330.67L183.97 317.31Z" fill="#202C5F"/>
<path d="M218.38 322.97L145.5 395.85V422.56L231.73 336.32L218.38 322.97Z" fill="#202C5F"/>
<path d="M184 317.29C180.31 320.98 180.31 326.96 184 330.64C187.69 334.33 193.67 334.33 197.35 330.64C201.03 326.95 201.04 320.97 197.35 317.29C193.66 313.6 187.68 313.6 184 317.29Z" fill="#F5A800"/>
<path d="M218.4 322.94C214.71 326.63 214.71 332.61 218.4 336.29C222.09 339.98 228.07 339.98 231.75 336.29C235.44 332.6 235.44 326.62 231.75 322.94C228.06 319.25 222.08 319.25 218.4 322.94Z" fill="#F5A800"/>
<path d="M216.91 364.5C213.22 368.19 213.22 374.17 216.91 377.85C220.6 381.54 226.58 381.54 230.26 377.85C233.94 374.16 233.95 368.18 230.26 364.5C226.57 360.81 220.59 360.81 216.91 364.5Z" fill="#F5A800"/>
<path d="M264.661 370.15C260.971 366.46 254.99 366.46 251.31 370.15C247.62 373.84 247.62 379.82 251.31 383.5C255 387.19 260.981 387.19 264.661 383.5C268.351 379.81 268.351 373.83 264.661 370.15Z" fill="#F5A800"/>
<path d="M116.16 501.3L93.16 478.42L84.26 487.25L84.33 487.33L52.58 518.86L34.75 501.12V501.04H0.169922V513.54H29.45L52.58 536.55L61.49 527.72L61.47 527.71L93.22 496.17L110.94 513.8L111.01 513.73V513.8H145.21V501.3H116.16Z" fill="#425CC7"/>
<path d="M871.959 372.5V351.72H799.229V372.5H871.959Z" fill="#425CC7"/>
<path d="M799.229 393.27V372.49H726.499V393.27H799.229Z" fill="#425CC7"/>
<path d="M969.877 356.101L984.57 341.407L933.142 289.979L918.449 304.673L969.877 356.101Z" fill="#F5A800"/>
<path d="M918.299 377.979L932.992 392.673L984.42 341.245L969.727 326.551L918.299 377.979Z" fill="#F5A800"/>
<path d="M965.389 351.71V330.93H871.949V351.71H965.389Z" fill="#F5A800"/>
<path d="M472.399 289.69H436.139V325.95H472.399V289.69Z" fill="#425CC7"/>
<path d="M508.66 325.95H472.4V362.21H508.66V325.95Z" fill="#425CC7"/>
<path d="M544.92 289.69H508.66V325.95H544.92V289.69Z" fill="#425CC7"/>
<path d="M581.18 325.95H544.92V362.21H581.18V325.95Z" fill="#425CC7"/>
<path d="M472.399 362.21H436.139V398.47H472.399V362.21Z" fill="#425CC7"/>
<path d="M508.66 398.47H472.4V434.73H508.66V398.47Z" fill="#425CC7"/>
<path d="M544.92 362.21H508.66V398.47H544.92V362.21Z" fill="#425CC7"/>
<path d="M581.18 398.47H544.92V434.73H581.18V398.47Z" fill="#425CC7"/>
<path d="M872.411 145.18H871.971C871.971 225.04 936.711 289.79 1016.58 289.79V289.35C1016.58 209.73 952.041 145.19 872.421 145.19L872.411 145.18Z" fill="#425CC7"/>
<path d="M775.837 48.8232H768.734V88.7883H775.837V48.8232Z" fill="white"/>
<path d="M790.052 38.4512H782.949V88.7883H790.052V38.4512Z" fill="white"/>
<path d="M804.267 31.9385H797.164V88.7881H804.267V31.9385Z" fill="white"/>
<path d="M818.482 40.6934H811.379V88.7883H818.482V40.6934Z" fill="white"/>
<path d="M832.697 44.7241H825.594V88.7884H832.697V44.7241Z" fill="white"/>
<path d="M846.912 52.4517H839.809V88.7882H846.912V52.4517Z" fill="white"/>
<path d="M861.117 57.5864H854.014V88.7968H861.117V57.5864Z" fill="white"/>
<path d="M875.33 54.9336H868.227V88.7883H875.33V54.9336Z" fill="white"/>
<path d="M889.546 49.8159H882.443V88.7883H889.546V49.8159Z" fill="white"/>
<path d="M903.759 40.6934H896.656V88.7883H903.759V40.6934Z" fill="white"/>
<path d="M917.976 34.7969H910.873V88.7882H917.976V34.7969Z" fill="white"/>
<path d="M932.189 31.9385H925.086V88.7881H932.189V31.9385Z" fill="white"/>
<path d="M946.396 34.7969H939.293V88.7882H946.396V34.7969Z" fill="white"/>
<path d="M960.609 38.4512H953.506V88.7883H960.609V38.4512Z" fill="white"/>
<path d="M974.826 31.9385H967.723V88.7881H974.826V31.9385Z" fill="white"/>
<path d="M989.038 95.8996V88.7881H981.935V88.9592V95.8825H761.648V88.7966H754.537V88.9592H754.528V95.8825H754.52V102.994H754.528V110.251H761.631V110.106H761.648V102.994H761.631H981.935V110.106V110.251H989.038V110.106V102.994V95.8996Z" fill="white"/>
<rect x="145.039" width="145" height="145" fill="#F5A800"/>
<path d="M289.999 70.0185C288.938 31.1717 256.903 0 217.534 0C178.165 0 146.12 31.1717 145.069 70.0185H145.039V72.0051V145H290.039V72.0051V70.0185H290.009H289.999Z" fill="#32407D"/>
<path d="M453.86 435.09H435.75V453.2H453.86V435.09Z" fill="#425CC7"/>
<path d="M471.969 453.21H453.859V471.32H471.969V453.21Z" fill="#425CC7"/>
<path d="M490.081 435.09H471.971V453.2H490.081V435.09Z" fill="#425CC7"/>
<path d="M508.2 453.21H490.09V471.32H508.2V453.21Z" fill="#425CC7"/>
<path d="M453.86 471.32H435.75V489.43H453.86V471.32Z" fill="#425CC7"/>
<path d="M471.969 489.44H453.859V507.55H471.969V489.44Z" fill="#425CC7"/>
<path d="M490.081 471.32H471.971V489.43H490.081V471.32Z" fill="#425CC7"/>
<path d="M508.2 489.44H490.09V507.55H508.2V489.44Z" fill="#425CC7"/>
<path d="M453.86 507.55H435.75V525.66H453.86V507.55Z" fill="#425CC7"/>
<path d="M471.969 525.66H453.859V543.77H471.969V525.66Z" fill="#425CC7"/>
<path d="M490.081 507.55H471.971V525.66H490.081V507.55Z" fill="#425CC7"/>
<path d="M508.2 525.66H490.09V543.77H508.2V525.66Z" fill="#425CC7"/>
<path d="M453.86 543.78H435.75V561.89H453.86V543.78Z" fill="#425CC7"/>
<path d="M471.969 561.89H453.859V580H471.969V561.89Z" fill="#425CC7"/>
<path d="M490.081 543.78H471.971V561.89H490.081V543.78Z" fill="#425CC7"/>
<path d="M508.2 561.89H490.09V580H508.2V561.89Z" fill="#425CC7"/>
<path d="M526.309 435.09H508.199V453.2H526.309V435.09Z" fill="#425CC7"/>
<path d="M544.43 453.21H526.32V471.32H544.43V453.21Z" fill="#425CC7"/>
<path d="M562.54 435.09H544.43V453.2H562.54V435.09Z" fill="#425CC7"/>
<path d="M580.649 453.21H562.539V471.32H580.649V453.21Z" fill="#425CC7"/>
<path d="M526.309 471.32H508.199V489.43H526.309V471.32Z" fill="#425CC7"/>
<path d="M544.43 489.44H526.32V507.55H544.43V489.44Z" fill="#425CC7"/>
<path d="M562.54 471.32H544.43V489.43H562.54V471.32Z" fill="#425CC7"/>
<path d="M580.649 489.44H562.539V507.55H580.649V489.44Z" fill="#425CC7"/>
<path d="M526.309 507.55H508.199V525.66H526.309V507.55Z" fill="#425CC7"/>
<path d="M544.43 525.66H526.32V543.77H544.43V525.66Z" fill="#425CC7"/>
<path d="M562.54 507.55H544.43V525.66H562.54V507.55Z" fill="#425CC7"/>
<path d="M580.649 525.66H562.539V543.77H580.649V525.66Z" fill="#425CC7"/>
<path d="M526.309 543.78H508.199V561.89H526.309V543.78Z" fill="#425CC7"/>
<path d="M544.43 561.89H526.32V580H544.43V561.89Z" fill="#425CC7"/>
<path d="M562.54 543.78H544.43V561.89H562.54V543.78Z" fill="#425CC7"/>
<path d="M580.649 561.89H562.539V580H580.649V561.89Z" fill="#425CC7"/>
<path d="M17.3994 328.55H8.85938V435.51H17.3994V328.55Z" fill="#F5A800"/>
<path d="M34.4795 353.29H25.9395V435.52H34.4795V353.29Z" fill="#F5A800"/>
<path d="M51.5594 372.76H43.0195V435.51H51.5594V372.76Z" fill="#F5A800"/>
<path d="M68.6396 363.33H60.0996V435.51H68.6396V363.33Z" fill="#F5A800"/>
<path d="M85.7197 343.08H77.1797V435.52H85.7197V343.08Z" fill="#F5A800"/>
<path d="M102.8 330.61H94.2598V435.52H102.8V330.61Z" fill="#F5A800"/>
<path d="M119.88 361.73H111.34V435.51H119.88V361.73Z" fill="#F5A800"/>
<path d="M136.96 372.76H128.42V435.51H136.96V372.76Z" fill="#F5A800"/>
<path d="M905.63 507.41L920.61 492.43C922.68 490.36 922.68 487.01 920.61 484.94C918.54 482.87 915.19 482.87 913.12 484.94L890.65 507.41L913.12 529.88C915.19 531.95 918.54 531.95 920.61 529.88C922.68 527.81 922.68 524.46 920.61 522.39L905.63 507.41Z" fill="#F5A800"/>
<path d="M967.931 484.95C965.861 487.02 965.861 490.37 967.931 492.44L982.911 507.42L967.931 522.4C965.861 524.47 965.861 527.82 967.931 529.89C970.001 531.96 973.351 531.96 975.421 529.89L997.891 507.42L975.421 484.95C973.351 482.88 970.001 482.88 967.931 484.95Z" fill="#F5A800"/>
<path d="M953.533 466.237L924.872 544.983C923.873 547.728 925.288 550.764 928.034 551.763C930.779 552.763 933.814 551.347 934.814 548.602L963.475 469.855C964.474 467.11 963.059 464.074 960.313 463.075C957.568 462.076 954.532 463.491 953.533 466.237Z" fill="#F5A800"/>
<path d="M290.08 145H290.039V290H436.039V289.959C436.039 209.906 370.695 145 290.08 145Z" fill="#425CC7"/>
<path d="M653.94 362.49L581.43 289.97V435.01H726.46L653.94 362.49Z" fill="#F5A800"/>
<path d="M568.48 167.33V156.16H435.85V167.33H568.48Z" fill="#F5A800"/>
<path d="M548.9 189.67V178.5H435.85V189.67H548.9Z" fill="#F5A800"/>
<path d="M535.17 212.021V200.851H435.86V212.021H535.17Z" fill="#F5A800"/>
<path d="M521.07 234.37V223.2H435.86V234.37H521.07Z" fill="#F5A800"/>
<path d="M510.889 256.71V245.54H435.849V256.71H510.889Z" fill="#F5A800"/>
<path d="M493.779 279.05V267.88H435.859V279.05H493.779Z" fill="#F5A800"/>
<path d="M842.721 214.14H816.23L840.791 204.22L838.281 198.01L813.01 208.22L832.281 188.95L827.551 184.22L808.821 202.95L819.171 178.56L813.01 175.95L802.361 201.04V173.78H795.671V200.27L785.75 175.71L779.541 178.22L789.75 203.49L770.48 184.22L765.75 188.95L784.48 207.68L760.091 197.33L757.48 203.49L782.571 214.14H755.311V220.83H781.801L757.24 230.76L759.75 236.96L785.021 226.75L765.75 246.02L770.48 250.76L789.211 232.02L778.861 256.41L785.021 259.02L795.671 233.93V261.19H802.361V234.7L812.291 259.26L818.49 256.75L808.281 231.48L827.551 250.76L832.281 246.02L813.551 227.29L837.941 237.64L840.551 231.48L815.461 220.83H842.721V214.14Z" fill="#202C5F"/>
<path d="M654.03 580.23C694.131 580.23 726.64 547.721 726.64 507.62C726.64 467.518 694.131 435.01 654.03 435.01C613.929 435.01 581.42 467.518 581.42 507.62C581.42 547.721 613.929 580.23 654.03 580.23Z" fill="#425CC7"/>
<path d="M26.7899 88.9497H0.25V115.49H26.7899V88.9497Z" fill="#F5A800"/>
<path d="M56.3701 88.9497H29.8301V115.49H56.3701V88.9497Z" fill="#F5A800"/>
<path d="M115.55 29.5498H89.0098V56.0898H115.55V29.5498Z" fill="#F5A800"/>
<path d="M145.14 29.5498H118.6V56.0898H145.14V29.5498Z" fill="#F5A800"/>
<path d="M59.4199 115.49C74.0799 115.49 85.96 103.61 85.96 88.9497H59.4199V115.49Z" fill="#F5A800"/>
<path d="M85.96 59.1396H59.4199V85.6796H85.96V59.1396Z" fill="#F5A800"/>
<path d="M59.4199 56.0898H85.96V29.5498C71.3 29.5498 59.4199 41.4298 59.4199 56.0898Z" fill="#F5A800"/>
<path d="M696.949 87.0505V57.9805L609.309 57.9805V87.0505H696.949Z" fill="#F5A800"/>
<path d="M638.59 116.33H667.66V28.6901H638.59V116.33Z" fill="#F5A800"/>
<path d="M291.089 507.32C291.089 467.09 258.469 434.47 218.239 434.47H218.019V507.32C218.019 467.09 185.399 434.47 145.169 434.47H144.949C144.949 474.83 177.669 507.54 218.019 507.55H180.479C160.769 508.1 144.949 524.25 144.949 544.09C144.949 563.93 160.769 580.08 180.479 580.61L181.489 580.62H218.029V551.55C221.479 568.15 236.179 580.62 253.799 580.62H290.339V544.08C290.339 523.9 273.979 507.54 253.799 507.54H291.099V507.32H291.089ZM218.009 536.62V507.55H253.779C236.159 507.55 221.449 520.02 218.009 536.62Z" fill="#F5A800"/>
<path d="M64.1101 195.23C48.3633 198.028 40.8771 205.915 42.1679 218.891H55.3333V254H21V224.233C21.0001 195.993 34.6818 184.035 60.7545 182L64.1101 195.23Z" fill="white"/>
<path d="M124 195.23C108.253 198.028 100.767 205.915 101.8 218.891H115.223V254H80.8899V224.233C80.89 195.993 94.5716 184.035 120.644 182L124 195.23Z" fill="white"/>
<defs>
<filter id="filter0_d_8471_199" x="296.039" y="5" width="155" height="155.011" filterUnits="userSpaceOnUse" color-interpolation-filters="sRGB">
<feFlood flood-opacity="0" result="BackgroundImageFix"/>
<feColorMatrix in="SourceAlpha" type="matrix" values="0 0 0 0 0 0 0 0 0 0 0 0 0 0 0 0 0 0 127 0" result="hardAlpha"/>
<feOffset dx="10" dy="10"/>
<feGaussianBlur stdDeviation="10"/>
<feComposite in2="hardAlpha" operator="out"/>
<feColorMatrix type="matrix" values="0 0 0 0 0 0 0 0 0 0 0 0 0 0 0 0 0 0 0.1 0"/>
<feBlend mode="normal" in2="BackgroundImageFix" result="effect1_dropShadow_8471_199"/>
<feBlend mode="normal" in="SourceGraphic" in2="effect1_dropShadow_8471_199" result="shape"/>
</filter>
</defs>
</svg>
