<svg width="150" height="150" viewBox="0 0 150 150" fill="none" xmlns="http://www.w3.org/2000/svg">
<rect width="150" height="150" fill="white"/>
<path d="M112.702 72.7176L94.4358 54.3601L87.3676 61.4447L87.4232 61.5089L62.2083 86.8066L48.0484 72.5731V72.509H20.5859V82.5382H43.8392L62.2083 101L69.2844 93.9152L69.2685 93.9072L94.4834 68.6016L108.556 82.7468L108.612 82.6906V82.7468H135.772V72.7176H112.702Z" fill="#425CC7"/>
<path d="M106.342 66.3577L88.0764 48.0002L81.0083 55.0848L81.0638 55.149L55.849 80.4467L41.689 66.2132V66.1491H14.2266V76.1783H37.4798L55.849 94.6401L62.925 87.5554L62.9091 87.5474L88.124 62.2417L102.197 76.3869L102.252 76.3307V76.3869H129.413V66.3577H106.342Z" fill="#F5A800"/>
</svg>
