<svg width="122" height="122" viewBox="0 0 122 122" fill="none" xmlns="http://www.w3.org/2000/svg">
<path d="M98.4751 59.7173L80.2092 41.3599L73.1411 48.4445L73.1966 48.5086L47.9818 73.8063L33.8218 59.5729V59.5087H6.35938V69.5379H29.6127L47.9818 87.9997L55.0579 80.915L55.042 80.907L80.2568 55.6013L94.3295 69.7465L94.3851 69.6903V69.7465H121.546V59.7173H98.4751Z" fill="#425CC7"/>
<path d="M92.1157 53.3575L73.8498 35L66.7817 42.0846L66.8373 42.1487L41.6224 67.4464L27.4624 53.213V53.1489H0V63.1781H23.2533L41.6224 81.6398L48.6985 74.5551L48.6826 74.5471L73.8974 49.2415L87.9701 63.3867L88.0257 63.3305V63.3867H115.186V53.3575H92.1157Z" fill="#F5A800"/>
</svg>
