<svg width="654" height="350" viewBox="0 0 654 350" fill="none" xmlns="http://www.w3.org/2000/svg">
<g clip-path="url(#clip0_8472_586)">
<rect width="654" height="350" fill="#202C5F"/>
<rect width="218" height="350" fill="#202C5F"/>
<rect x="218" width="218" height="350" fill="#F5A800"/>
<rect x="436" width="218" height="350" fill="#425CC7"/>
<path d="M572.582 99.7388H475.801L476.011 251.042H614L613.79 140.946L572.582 99.7388Z" fill="#F5A800"/>
<path d="M572.508 99.7388V141.021H613.79L572.508 99.7388Z" fill="#32407D"/>
<path d="M558.53 127.03H503.377V140.811H558.53V127.03Z" fill="white"/>
<path d="M586.303 154.577H503.377V168.358H586.303V154.577Z" fill="white"/>
<path d="M586.303 182.138H503.377V195.919H586.303V182.138Z" fill="white"/>
<path d="M586.303 209.685H503.377V223.466H586.303V209.685Z" fill="white"/>
<path d="M160.353 169.978L134.505 144L124.503 154.025L124.581 154.116L88.8998 189.915L68.862 169.773V169.682H30V183.875H62.9057L88.8998 210L98.9132 199.974L98.8907 199.963L134.572 164.153L154.486 184.17L154.565 184.09V184.17H193V169.978H160.353Z" fill="#F5A800"/>
<path d="M155.353 164.978L129.505 139L119.503 149.025L119.581 149.116L83.8998 184.915L63.862 164.773V164.682H25V178.875H57.9057L83.8998 205L93.9132 194.974L93.8907 194.963L129.572 159.153L149.486 179.17L149.565 179.09V179.17H188V164.978H155.353Z" fill="white"/>
<path d="M399.77 101H255V245.77H399.77V101Z" fill="#425CC7"/>
<path d="M399.77 245.771V131.381L327.49 203.661L298.61 174.771L255 218.381V245.771H399.77Z" fill="#32407D"/>
</g>
<defs>
<clipPath id="clip0_8472_586">
<rect width="654" height="350" fill="white"/>
</clipPath>
</defs>
</svg>
