<svg xmlns="http://www.w3.org/2000/svg" width="42.96" height="39.712" xml:space="preserve"><pattern x="-78.946" y="-69.783" width="100" height="100" patternUnits="userSpaceOnUse" id="c" viewBox="0 -100 100 100" overflow="visible"><path fill="none" d="M0 0h100v-100H0z"/><path fill="#4D4D4D" d="M100 0H0v-100h100z"/></pattern><pattern x="-78.946" y="-69.783" width="100" height="99.999" patternUnits="userSpaceOnUse" id="b" viewBox="0 -99.999 100 99.999" overflow="visible"><path fill="none" d="M0 0h100v-99.999H0z"/><path fill="#C1272D" d="M100 0H0v-99.999h100z"/></pattern><pattern x="-78.946" y="-69.783" width="100" height="100" patternUnits="userSpaceOnUse" id="a" viewBox="0 -100 100 100" overflow="visible"><path fill="none" d="M0 0h100v-100H0z"/><path fill="#E6E6E6" d="M100 0H0v-100h100z"/></pattern><path fill="#4D4D4D" d="M-166.657-125.455h100v100h-100z"/><path fill="#C1272D" d="M-166.657-16.901h100v99.999h-100z"/><path fill="#E6E6E6" d="M-166.657 91.652h100v100h-100z"/><path fill="url(#a)" d="M28.566 12.106c4.279 4.28 4.279 11.218 0 15.5l5.493 5.493c7.312-7.309 7.312-19.16 0-26.469v-.002"/><path fill="url(#b)" d="M34.051 6.62C26.74-.69 14.889-.688 7.581 6.621c-7.311 7.31-7.309 19.162 0 26.471 7.309 7.309 19.161 7.309 26.471 0l-5.493-5.496c-4.283 4.283-11.222 4.283-15.501 0-4.278-4.279-4.278-11.218 0-15.498 4.282-4.281 11.218-4.281 15.501 0l5.493-5.494"/><path fill="url(#c)" d="M39.146 4.02S28.978 19.141 24.438 23.115c-.251.219-.294.25-.392.328a5.032 5.032 0 0 1-7.012-.589l-.1-.12c-1.765-2.083-1.467-5.221.589-7.022.092-.082.111-.102.358-.305 4.661-3.829 21.264-11.379 21.264-11.379V4.02z"/></svg>