<svg width="1534" height="531" fill="none" xmlns="http://www.w3.org/2000/svg"><path d="M341.98 352.067c-11.198 11.218-29.361 11.218-40.559 0-11.199-11.218-11.199-29.412 0-40.629 11.198-11.218 29.361-11.218 40.559 0 11.199 11.217 11.199 29.411 0 40.629Zm-61.168-61.274c-22.586 22.624-22.586 59.295 0 81.919 22.585 22.624 59.192 22.624 81.777 0 22.586-22.624 22.586-59.295 0-81.919-22.585-22.625-59.192-22.625-81.777 0Zm184.258 56.466v-.377c0-14.705-9.881-24.415-21.644-24.415-11.67 0-21.457 9.71-21.457 24.415v.377c0 14.706 9.693 24.416 21.457 24.416 11.763 0 21.644-9.521 21.644-24.416Zm-67.756-44.494h25.032v12.726c6.117-8.296 14.492-14.329 27.573-14.329 20.609 0 40.277 16.214 40.277 45.72v.377c0 29.601-19.292 45.721-40.277 45.721-13.363 0-21.644-6.128-27.573-13.198v37.99h-25.032V302.765Zm169.389 37.33c-1.505-11.218-8.093-18.854-18.633-18.854-10.351 0-17.127 7.448-19.103 18.854h37.736Zm-62.298 7.447v-.283c0-25.263 17.974-46.097 43.665-46.097 29.55 0 43.007 23.002 43.007 48.077 0 1.98-.189 4.336-.283 6.599h-61.545c2.447 11.406 10.352 17.345 21.55 17.345 8.376 0 14.493-2.639 21.457-9.05l14.304 12.727c-8.282 10.275-20.139 16.497-36.137 16.497-26.444 0-46.018-18.665-46.018-45.815Zm105.401-44.778h25.032v12.538c5.741-7.448 13.175-14.235 25.879-14.235 19.01 0 30.02 12.538 30.02 32.9v57.315h-25.032v-49.397c0-11.878-5.646-18.005-15.151-18.005-9.599 0-15.622 6.127-15.622 18.005v49.397h-25.126v-88.518Zm132.216-3.577h-35.101v-23.473h95.611v23.473h-35.101v92.195h-25.409v-92.195Zm118.102 40.912c-1.506-11.218-8.094-18.853-18.633-18.853-10.352 0-17.128 7.447-19.104 18.853h37.737Zm-62.299 7.447v-.282c0-25.264 17.975-46.098 43.666-46.098 29.549 0 43.006 23.002 43.006 48.077 0 1.98-.188 4.337-.377 6.599h-61.545c2.447 11.407 10.352 17.345 21.55 17.345 8.376 0 14.493-2.639 21.457-9.049l14.304 12.726c-8.282 10.275-20.139 16.497-36.137 16.497-26.349 0-45.924-18.665-45.924-45.815Zm131.56-76.737h-25.032v120.569h25.032V270.809Zm81.685 69.289c-1.51-11.218-8.1-18.853-18.635-18.853-10.352 0-17.127 7.447-19.103 18.853h37.738Zm-62.394 7.447v-.282c0-25.264 17.974-46.098 43.665-46.098 29.549 0 43.009 23.002 43.009 48.077 0 1.98-.19 4.337-.29 6.599h-61.54c2.446 11.406 10.351 17.345 21.55 17.345 8.38 0 14.49-2.639 21.46-9.049l14.3 12.726c-8.28 10.275-20.14 16.497-36.137 16.497-26.349 0-46.017-18.665-46.017-45.815Zm105.394-44.772h25.04v12.537c5.74-7.447 13.36-14.234 26.06-14.234 11.58 0 20.24 5.09 24.85 14.046 7.71-9.05 17.03-14.046 28.98-14.046 18.64 0 29.83 11.218 29.83 32.522v57.692h-25.03v-49.396c0-11.878-5.27-18.005-14.68-18.005s-15.15 6.127-15.15 18.005v49.396h-25.03v-49.396c0-11.878-5.27-18.005-14.68-18.005s-15.15 6.127-15.15 18.005v49.396h-25.04v-88.517Zm214.75 37.325c-1.5-11.218-8.09-18.853-18.63-18.853-10.35 0-17.13 7.447-19.1 18.853h37.73Zm-62.29 7.447v-.282c0-25.264 17.97-46.098 43.66-46.098 29.55 0 43.01 23.002 43.01 48.077 0 1.98-.19 4.337-.38 6.599h-61.54c2.44 11.406 10.35 17.345 21.55 17.345 8.37 0 14.49-2.639 21.45-9.049l14.31 12.726c-8.29 10.275-20.14 16.497-36.14 16.497-26.35 0-45.92-18.665-45.92-45.815Zm109.44 18.667v-41.949h-10.54V302.77h10.54v-22.625H1341v22.625h20.8v21.493H1341v37.801c0 5.751 2.45 8.579 8.09 8.579 4.62 0 8.76-1.131 12.43-3.111v20.173c-5.27 3.111-11.39 5.091-19.77 5.091-15.33 0-25.78-6.033-25.78-26.584Zm64.37-63.443h25.03v17.817c5.08-12.255 13.36-20.174 28.23-19.514v26.301h-1.32c-16.65 0-26.91 10.087-26.91 31.203v32.711h-25.03v-88.518Zm126.95 0h26.06l-33.97 90.686c-6.77 18.005-14.02 24.792-29.08 24.792-9.03 0-15.81-2.262-22.21-6.127l8.38-18.194c3.29 1.98 7.43 3.488 10.73 3.488 4.33 0 6.58-1.32 8.75-5.75l-34.63-88.895h26.54l20.13 60.332 19.3-60.332Z" fill="#fff"/><mask id="a" style="mask-type:alpha" maskUnits="userSpaceOnUse" x="0" y="0" width="531" height="531"><path d="M95.074 417.786c-6.285-6.333-16.557-6.333-22.889 0L34.99 455.027s-.093 0-.093.094l-10.272-10.272c-5.629-5.675-14.869-5.675-20.404 0-5.628 5.675-5.628 14.916 0 20.45l61.35 61.444c5.63 5.676 14.87 5.676 20.404 0 5.629-5.675 5.629-14.868 0-20.45l-10.272-10.272s.094 0 .094-.093l37.242-37.148c6.332-6.332 6.332-16.604 0-22.89l-18.058-18.104h.093ZM221.387 251.98c-6.754-6.801-17.683-6.801-24.484 0L95.543 353.433c-6.707 6.801-6.707 17.73 0 24.484l57.411 57.504c6.754 6.708 17.683 6.708 24.484 0l65.102-65.337c-13.742-28.564-11.303-62.992 7.505-89.352L221.34 251.98h.047ZM326.03 107.094c-6.989-6.989-18.434-6.989-25.516 0l-78.752 78.892c-6.989 6.989-6.989 18.574 0 25.563l48.639 48.639c34.334-24.812 82.551-21.67 113.508 9.24l39.352-39.399c7.036-6.989 7.036-18.574 0-25.563l-97.231-97.372Zm198.825 36.678L386.536 5.172c-6.848-6.896-18.246-6.896-25.235 0L325.936 40.63c-6.989 6.988-6.989 18.386 0 25.28l138.32 138.555c6.988 6.989 18.339 6.989 25.234 0l35.365-35.459c6.942-6.989 6.942-18.387 0-25.281" fill="#912626"/></mask><g mask="url(#a)"><path fill="#D50605" d="m-172.528-554.938 1628.46 1628.46-38.448 38.447-1628.46-1628.46z"/><path fill="#081A9A" d="m-326.317-401.149 1628.46 1628.46-38.448 38.447-1628.46-1628.46z"/><path fill="#75D7EF" d="m-480.106-247.36 1628.46 1628.46-38.448 38.447-1628.46-1628.46z"/><path fill="#010101" d="m-403.212-324.254 1628.46 1628.46-38.448 38.447-1628.46-1628.46z"/><path fill="#E5FE04" d="m-249.423-478.044 1628.46 1628.46-38.448 38.447-1628.46-1628.46z"/><path fill="#76008A" d="m-364.765-362.702 1628.46 1628.46-38.448 38.447-1628.46-1628.46z"/><path fill="#FBF9F5" d="m-557.001-170.465 1628.46 1628.46-38.448 38.447-1628.46-1628.46z"/><path fill="#5D390D" d="m-441.659-285.807 1628.46 1628.46-38.448 38.447-1628.46-1628.46z"/><path fill="#EF9E01" d="m-210.976-516.491 1628.46 1628.46-38.448 38.447-1628.46-1628.46z"/><path fill="#FEAFC7" d="m-518.554-208.913 1628.46 1628.46-38.448 38.447-1628.46-1628.46z"/><path fill="#0ABF02" d="m-287.87-439.596 1628.46 1628.46-38.448 38.447-1628.46-1628.46z"/></g></svg>