<svg width="1000" height="264" fill="none" xmlns="http://www.w3.org/2000/svg"><path fill="#fff" d="M0 0h1000v264H0z"/><g filter="url(#a)" shape-rendering="crispEdges"><path d="M45 17a4 4 0 0 1 4-4h901a4 4 0 0 1 4 4v46a4 4 0 0 1-4 4H49a4 4 0 0 1-4-4V17Z" fill="#D9D9D9" fill-opacity=".23"/><path d="M49 13.5h901a3.5 3.5 0 0 1 3.5 3.5v46a3.5 3.5 0 0 1-3.5 3.5H49a3.5 3.5 0 0 1-3.5-3.5V17a3.5 3.5 0 0 1 3.5-3.5Z" stroke="#000"/></g><path d="M437.605 44.71c.43 0 .827-.087 1.192-.263.364-.175.664-.416.898-.722.235-.313.368-.668.401-1.065h1.718a3.222 3.222 0 0 1-.634 1.748 4.333 4.333 0 0 1-1.514 1.299 4.393 4.393 0 0 1-2.061.488c-.794 0-1.487-.14-2.08-.42a4.114 4.114 0 0 1-1.464-1.152 5.145 5.145 0 0 1-.87-1.68 7.117 7.117 0 0 1-.283-2.021v-.41c0-.71.095-1.38.283-2.012a5.131 5.131 0 0 1 .87-1.69c.39-.488.878-.872 1.464-1.152.593-.28 1.286-.42 2.08-.42.827 0 1.55.17 2.168.508a3.73 3.73 0 0 1 1.456 1.367c.358.573.553 1.224.585 1.953h-1.718a2.618 2.618 0 0 0-.371-1.181 2.318 2.318 0 0 0-.86-.84c-.358-.215-.778-.322-1.26-.322-.553 0-1.018.11-1.396.332a2.453 2.453 0 0 0-.889.879 4.08 4.08 0 0 0-.468 1.22 6.653 6.653 0 0 0-.137 1.358v.41c0 .462.045.918.137 1.367.091.45.244.856.459 1.22.221.365.517.658.888.88.378.214.847.322 1.406.322Zm5.762-3.876v-.225c0-.761.111-1.468.332-2.119a5.058 5.058 0 0 1 .957-1.709 4.271 4.271 0 0 1 1.514-1.133c.592-.273 1.256-.41 1.992-.41.742 0 1.41.137 2.002.41a4.255 4.255 0 0 1 1.524 1.133c.423.482.745 1.052.966 1.71.222.65.332 1.357.332 2.118v.225c0 .762-.11 1.468-.332 2.12a5.065 5.065 0 0 1-.966 1.708 4.43 4.43 0 0 1-1.514 1.133c-.586.267-1.25.4-1.992.4-.743 0-1.41-.133-2.002-.4a4.524 4.524 0 0 1-1.524-1.133 5.185 5.185 0 0 1-.957-1.709 6.553 6.553 0 0 1-.332-2.119Zm1.807-.225v.225c0 .527.062 1.025.185 1.494.124.462.31.872.557 1.23.254.359.57.642.947.85.378.202.817.303 1.319.303.494 0 .927-.101 1.298-.303a2.72 2.72 0 0 0 .938-.85 3.95 3.95 0 0 0 .557-1.23 5.57 5.57 0 0 0 .195-1.494v-.225c0-.52-.065-1.012-.195-1.474a3.803 3.803 0 0 0-.567-1.24 2.691 2.691 0 0 0-.937-.86c-.371-.208-.808-.312-1.309-.312-.495 0-.931.104-1.308.312a2.803 2.803 0 0 0-.938.86 3.938 3.938 0 0 0-.557 1.24 5.713 5.713 0 0 0-.185 1.474Zm11.885-2.92V46h-1.807V35.434h1.709l.098 2.256Zm-.43 2.627-.752-.029a6.35 6.35 0 0 1 .322-2.002 5.022 5.022 0 0 1 .879-1.611 3.92 3.92 0 0 1 3.096-1.436c.521 0 .989.072 1.406.215.417.137.772.358 1.065.664.299.306.527.703.683 1.192.156.481.234 1.07.234 1.767V46h-1.816v-6.943c0-.554-.081-.997-.244-1.329a1.5 1.5 0 0 0-.713-.732c-.312-.156-.697-.234-1.152-.234-.449 0-.86.094-1.231.283-.364.189-.68.45-.947.781a3.92 3.92 0 0 0-.615 1.143 4.18 4.18 0 0 0-.215 1.347Zm14.101-4.882v1.386h-5.712v-1.386h5.712Zm-3.779-2.569h1.807v10.518c0 .358.055.628.166.81a.795.795 0 0 0 .43.362c.175.058.364.088.566.088.15 0 .306-.013.469-.04a9.64 9.64 0 0 0 .381-.078l.009 1.475a4.22 4.22 0 0 1-.566.127 4.317 4.317 0 0 1-.83.068c-.443 0-.85-.088-1.221-.263-.371-.176-.667-.47-.889-.88-.214-.416-.322-.976-.322-1.679V32.865Zm7.705 4.229V46h-1.806V35.434h1.757l.049 1.66Zm3.301-1.719-.01 1.68a2.595 2.595 0 0 0-.429-.059 4.592 4.592 0 0 0-.45-.02c-.416 0-.784.066-1.103.196-.319.13-.589.312-.811.547a2.632 2.632 0 0 0-.527.84c-.124.319-.205.67-.244 1.054l-.508.293a8.3 8.3 0 0 1 .186-1.797c.13-.56.328-1.054.595-1.484a2.92 2.92 0 0 1 1.016-1.016c.417-.247.911-.37 1.484-.37.13 0 .28.016.449.048.17.026.287.055.352.088Zm.996 5.459v-.225c0-.761.111-1.468.332-2.119a5.058 5.058 0 0 1 .957-1.709 4.271 4.271 0 0 1 1.514-1.133c.592-.273 1.256-.41 1.992-.41.742 0 1.41.137 2.002.41a4.242 4.242 0 0 1 1.523 1.133 4.93 4.93 0 0 1 .967 1.71c.222.65.332 1.357.332 2.118v.225c0 .762-.11 1.468-.332 2.12a5.05 5.05 0 0 1-.967 1.708c-.416.482-.921.86-1.513 1.133-.586.267-1.25.4-1.992.4-.743 0-1.41-.133-2.002-.4a4.524 4.524 0 0 1-1.524-1.133 5.185 5.185 0 0 1-.957-1.709 6.553 6.553 0 0 1-.332-2.119Zm1.807-.225v.225c0 .527.062 1.025.185 1.494.124.462.31.872.557 1.23.254.359.57.642.947.85.378.202.817.303 1.319.303.494 0 .927-.101 1.298-.303a2.72 2.72 0 0 0 .938-.85 3.95 3.95 0 0 0 .557-1.23 5.57 5.57 0 0 0 .195-1.494v-.225c0-.52-.065-1.012-.195-1.474a3.803 3.803 0 0 0-.567-1.24 2.691 2.691 0 0 0-.937-.86c-.371-.208-.808-.312-1.309-.312-.495 0-.931.104-1.309.312a2.81 2.81 0 0 0-.937.86 3.938 3.938 0 0 0-.557 1.24 5.713 5.713 0 0 0-.185 1.474ZM492.801 31v15h-1.817V31h1.817Zm9.668 6.465v12.597h-1.817V35.434h1.66l.157 2.03Zm7.119 3.164v.205c0 .768-.091 1.481-.274 2.139a5.263 5.263 0 0 1-.8 1.699 3.644 3.644 0 0 1-1.28 1.123c-.507.267-1.09.4-1.748.4-.67 0-1.263-.11-1.777-.332a3.51 3.51 0 0 1-1.309-.966 4.943 4.943 0 0 1-.859-1.524 8.827 8.827 0 0 1-.43-2.002v-1.094a9.173 9.173 0 0 1 .44-2.1 5.245 5.245 0 0 1 .849-1.581 3.487 3.487 0 0 1 1.299-1.006c.508-.235 1.094-.352 1.758-.352.664 0 1.253.13 1.768.39.514.255.947.62 1.298 1.095.352.475.616 1.045.791 1.709.183.657.274 1.39.274 2.197Zm-1.817.205v-.205c0-.527-.055-1.022-.166-1.484a3.743 3.743 0 0 0-.517-1.23 2.467 2.467 0 0 0-.879-.84c-.358-.21-.785-.313-1.279-.313-.456 0-.853.078-1.192.234a2.568 2.568 0 0 0-.849.635c-.235.26-.427.56-.577.898a5.2 5.2 0 0 0-.322 1.035v2.53c.13.456.313.885.547 1.289.234.397.547.72.938.967.39.24.882.36 1.474.36.489 0 .908-.1 1.26-.302.358-.208.651-.491.879-.85.234-.358.407-.768.517-1.23.111-.469.166-.967.166-1.494ZM513.855 31v15h-1.816V31h1.816Zm9.131 13.193v-5.44c0-.416-.084-.777-.254-1.083a1.657 1.657 0 0 0-.742-.723c-.332-.169-.742-.254-1.23-.254-.456 0-.856.079-1.201.235a2.087 2.087 0 0 0-.801.615 1.347 1.347 0 0 0-.283.82h-1.807c0-.377.098-.752.293-1.123.195-.37.475-.706.84-1.006a4.2 4.2 0 0 1 1.328-.722 5.234 5.234 0 0 1 1.738-.274c.768 0 1.445.13 2.031.39a3.047 3.047 0 0 1 1.387 1.182c.339.521.508 1.176.508 1.963v4.922c0 .352.029.726.088 1.123.065.398.159.74.283 1.026V46h-1.885a3.422 3.422 0 0 1-.215-.83 6.705 6.705 0 0 1-.078-.977Zm.313-4.6.019 1.27h-1.826c-.514 0-.973.043-1.377.127a3.148 3.148 0 0 0-1.015.362 1.71 1.71 0 0 0-.625.615c-.144.24-.215.524-.215.85 0 .331.075.634.224.908.15.273.375.491.674.654.306.156.681.234 1.123.234.554 0 1.042-.117 1.465-.351a3.05 3.05 0 0 0 1.006-.86c.254-.338.391-.667.41-.986l.772.87c-.046.273-.17.575-.372.907a4.375 4.375 0 0 1-2.001 1.709 3.884 3.884 0 0 1-1.543.293c-.717 0-1.345-.14-1.885-.42a3.218 3.218 0 0 1-1.25-1.123 2.973 2.973 0 0 1-.44-1.592c0-.566.111-1.064.332-1.494.222-.436.541-.797.957-1.084a4.575 4.575 0 0 1 1.504-.664 7.936 7.936 0 0 1 1.963-.224h2.1Zm6.142-1.904V46h-1.806V35.434h1.709l.097 2.256Zm-.429 2.627-.752-.029a6.35 6.35 0 0 1 .322-2.002 4.984 4.984 0 0 1 .879-1.611 3.92 3.92 0 0 1 3.096-1.436c.52 0 .989.072 1.406.215.417.137.771.358 1.064.664.3.306.528.703.684 1.192.156.481.234 1.07.234 1.767V46h-1.816v-6.943c0-.554-.081-.997-.244-1.329a1.504 1.504 0 0 0-.713-.732c-.313-.156-.697-.234-1.152-.234-.45 0-.86.094-1.231.283-.365.189-.68.45-.947.781a3.898 3.898 0 0 0-.615 1.143 4.154 4.154 0 0 0-.215 1.347Zm14.062 5.88c-.735 0-1.403-.124-2.002-.372a4.546 4.546 0 0 1-1.533-1.064 4.741 4.741 0 0 1-.977-1.621 5.966 5.966 0 0 1-.341-2.051v-.41c0-.86.127-1.625.381-2.295a5.122 5.122 0 0 1 1.035-1.719 4.434 4.434 0 0 1 1.484-1.064 4.261 4.261 0 0 1 1.719-.362c.755 0 1.406.13 1.953.39a3.564 3.564 0 0 1 1.357 1.095c.352.462.612 1.009.782 1.64a7.84 7.84 0 0 1 .254 2.051v.81h-7.891V39.75h6.084v-.137a4.513 4.513 0 0 0-.293-1.367 2.46 2.46 0 0 0-.781-1.094c-.358-.286-.847-.43-1.465-.43a2.46 2.46 0 0 0-2.022 1.026 3.85 3.85 0 0 0-.576 1.24c-.137.489-.205 1.052-.205 1.69v.41c0 .501.068.973.205 1.416.143.436.348.82.615 1.152.274.332.603.593.987.782.39.188.833.283 1.328.283.638 0 1.178-.13 1.621-.39a4.01 4.01 0 0 0 1.162-1.046l1.094.87a5.079 5.079 0 0 1-.869.986 4.157 4.157 0 0 1-1.299.761c-.508.196-1.11.293-1.807.293Z" fill="#000"/><g filter="url(#b)"><path d="M69.65 229v-.495h1.245c.23 0 .425-.025.585-.075.16-.05.275-.16.345-.33.08-.17.12-.425.12-.765v-8.16c-.29.36-.56.665-.81.915-.25.24-.485.425-.705.555-.22.12-.44.18-.66.18-.2 0-.355-.055-.465-.165a.569.569 0 0 1-.165-.42 3.2 3.2 0 0 0 .765-.21c.25-.11.505-.255.765-.435.26-.19.54-.42.84-.69l.795-.675h.66v9.105c0 .34.035.595.105.765.08.17.195.28.345.33.16.05.36.075.6.075h1.065V229h-5.43Zm6.699 0v-.48h.24c.16 0 .29-.02.39-.06.11-.05.2-.125.27-.225.08-.1.15-.24.21-.42l2.76-7.38h.81l2.76 7.575c.08.2.175.335.285.405.11.07.29.105.54.105h.165v.48h-3.09v-.48h.345c.25 0 .435-.025.555-.075a.31.31 0 0 0 .18-.3c0-.08-.02-.185-.06-.315a4.5 4.5 0 0 0-.12-.345l-.54-1.515h-3.225l-.555 1.44c-.04.1-.08.22-.12.36-.04.14-.06.255-.06.345 0 .15.07.255.21.315.15.06.38.09.69.09h.285v.48h-2.925Zm2.67-3.57h2.835l-.75-2.115c-.12-.35-.235-.69-.345-1.02-.11-.33-.205-.63-.285-.9-.05.18-.11.365-.18.555-.06.18-.13.37-.21.57-.08.2-.165.425-.255.675l-.81 2.235Z" fill="#000"/></g><g filter="url(#c)"><path d="M175.65 214v-.495h1.245c.23 0 .425-.025.585-.075.16-.05.275-.16.345-.33.08-.17.12-.425.12-.765v-8.16c-.29.36-.56.665-.81.915-.25.24-.485.425-.705.555-.22.12-.44.18-.66.18-.2 0-.355-.055-.465-.165a.569.569 0 0 1-.165-.42 3.2 3.2 0 0 0 .765-.21c.25-.11.505-.255.765-.435.26-.19.54-.42.84-.69l.795-.675h.66v9.105c0 .34.035.595.105.765.08.17.195.28.345.33.16.05.36.075.6.075h1.065V214h-5.43Z" fill="#000"/></g><g filter="url(#d)"><path d="M211.885 116v-.75l2.745-3.15c.41-.47.755-.89 1.035-1.26.29-.37.52-.715.69-1.035.18-.32.31-.635.39-.945.08-.32.12-.655.12-1.005 0-.38-.065-.73-.195-1.05-.12-.32-.325-.58-.615-.78-.28-.2-.655-.3-1.125-.3s-.85.095-1.14.285c-.29.18-.5.43-.63.75a2.89 2.89 0 0 0-.195 1.095c-.16 0-.305-.025-.435-.075a.685.685 0 0 1-.315-.24.915.915 0 0 1-.105-.465c0-.33.1-.64.3-.93.21-.29.525-.53.945-.72.42-.19.945-.285 1.575-.285.65 0 1.195.115 1.635.345.44.23.77.545.99.945.22.39.33.83.33 1.32 0 .31-.035.605-.105.885-.06.27-.16.54-.3.81-.13.26-.29.53-.48.81s-.415.57-.675.87c-.26.3-.55.63-.87.99l-2.73 3.06h3.93c.43 0 .71-.095.84-.285.13-.19.22-.46.27-.81l.045-.36h.48l-.075 2.28h-6.33Z" fill="#000"/></g><g filter="url(#e)"><path d="M253.65 229v-.495h1.245c.23 0 .425-.025.585-.075.16-.05.275-.16.345-.33.08-.17.12-.425.12-.765v-8.16c-.29.36-.56.665-.81.915-.25.24-.485.425-.705.555-.22.12-.44.18-.66.18-.2 0-.355-.055-.465-.165a.569.569 0 0 1-.165-.42 3.2 3.2 0 0 0 .765-.21c.25-.11.505-.255.765-.435.26-.19.54-.42.84-.69l.795-.675h.66v9.105c0 .34.035.595.105.765.08.17.195.28.345.33.16.05.36.075.6.075h1.065V229h-5.43Zm7.329 0v-.48h.495c.24 0 .425-.04.555-.12.13-.09.195-.305.195-.645v-6.105c0-.21-.03-.365-.09-.465a.42.42 0 0 0-.225-.21c-.1-.04-.23-.06-.39-.06h-.525v-.48h3.3c1.02 0 1.76.17 2.22.51.46.34.69.87.69 1.59 0 .35-.065.645-.195.885-.12.24-.29.435-.51.585-.21.15-.46.275-.75.375v.06c.59.09 1.04.32 1.35.69.32.36.48.875.48 1.545 0 .77-.245 1.35-.735 1.74-.49.39-1.21.585-2.16.585h-3.705Zm3.54-.54c.69 0 1.205-.135 1.545-.405.35-.28.525-.745.525-1.395 0-.4-.065-.735-.195-1.005a1.347 1.347 0 0 0-.645-.645c-.3-.16-.69-.24-1.17-.24h-1.395v3.69h1.335Zm-.33-4.215c.73 0 1.25-.135 1.56-.405.31-.28.465-.705.465-1.275 0-.6-.16-1.015-.48-1.245-.31-.24-.81-.36-1.5-.36h-1.05v3.285h1.005Z" fill="#000"/></g><g filter="url(#f)" shape-rendering="crispEdges"><ellipse cx="174.5" cy="167.5" rx="63.5" ry="24.5" fill="#000" fill-opacity=".6"/><path d="M237.5 167.5c0 3.194-1.676 6.292-4.827 9.167-3.152 2.875-7.74 5.487-13.452 7.691-11.42 4.406-27.231 7.142-44.721 7.142-17.49 0-33.301-2.736-44.721-7.142-5.712-2.204-10.3-4.816-13.452-7.691-3.151-2.875-4.827-5.973-4.827-9.167s1.676-6.292 4.827-9.167c3.152-2.875 7.74-5.487 13.452-7.691 11.42-4.406 27.231-7.142 44.721-7.142 17.49 0 33.301 2.736 44.721 7.142 5.712 2.204 10.3 4.816 13.452 7.691 3.151 2.875 4.827 5.973 4.827 9.167Z" stroke="#000"/></g><path d="M140.818 167.709v.629c0 .747-.093 1.417-.28 2.01a4.313 4.313 0 0 1-.807 1.51c-.35.415-.772.732-1.264.951a3.98 3.98 0 0 1-1.641.328c-.588 0-1.128-.11-1.62-.328a3.639 3.639 0 0 1-1.271-.951 4.414 4.414 0 0 1-.828-1.51c-.196-.593-.294-1.263-.294-2.01v-.629c0-.747.096-1.415.288-2.003a4.426 4.426 0 0 1 .827-1.511 3.548 3.548 0 0 1 1.264-.957 3.962 3.962 0 0 1 1.62-.328c.607 0 1.153.11 1.641.328.492.219.914.538 1.265.957.355.415.626.919.813 1.511.192.588.287 1.256.287 2.003Zm-1.305.629v-.643c0-.592-.062-1.116-.185-1.572a3.255 3.255 0 0 0-.526-1.148 2.265 2.265 0 0 0-.855-.704 2.585 2.585 0 0 0-1.135-.24c-.41 0-.781.08-1.114.24-.328.159-.61.394-.847.704-.233.31-.413.692-.54 1.148-.128.456-.192.98-.192 1.572v.643c0 .597.064 1.126.192 1.586.127.456.309.841.546 1.155.242.31.527.545.855.704.333.16.704.239 1.114.239.429 0 .809-.079 1.142-.239a2.23 2.23 0 0 0 .841-.704c.232-.314.407-.699.526-1.155a6.41 6.41 0 0 0 .178-1.586Zm6.767-5.291V173h-1.299v-9.953h1.299Zm3.199 0v1.08h-7.69v-1.08h7.69Zm3.671 10.09c-.515 0-.982-.087-1.401-.26a3.179 3.179 0 0 1-1.073-.745 3.323 3.323 0 0 1-.684-1.135 4.17 4.17 0 0 1-.239-1.435v-.288c0-.601.089-1.137.267-1.606.177-.474.419-.875.724-1.203a3.097 3.097 0 0 1 1.039-.745 2.982 2.982 0 0 1 1.203-.253c.529 0 .985.091 1.368.273.387.183.704.438.95.766.246.323.428.706.547 1.148.118.438.177.916.177 1.436v.567h-5.523v-1.032h4.259v-.096a3.194 3.194 0 0 0-.205-.957 1.721 1.721 0 0 0-.547-.765c-.251-.201-.593-.301-1.026-.301a1.723 1.723 0 0 0-1.415.718 2.692 2.692 0 0 0-.403.868 4.387 4.387 0 0 0-.144 1.182v.288c0 .35.048.681.144.991.1.305.244.574.431.806.191.233.421.415.69.547.273.132.583.198.93.198.446 0 .825-.091 1.135-.273.309-.182.581-.426.813-.731l.766.608c-.16.242-.363.472-.609.69a2.904 2.904 0 0 1-.909.534c-.355.136-.777.205-1.265.205Zm5.729-10.637V173h-1.272v-10.5h1.272Zm8.463 9.598c.301 0 .579-.062.834-.185s.465-.292.629-.506a1.41 1.41 0 0 0 .28-.745h1.203a2.262 2.262 0 0 1-.444 1.224 3.044 3.044 0 0 1-2.502 1.251c-.556 0-1.042-.098-1.456-.294a2.894 2.894 0 0 1-1.026-.807 3.61 3.61 0 0 1-.608-1.176 4.963 4.963 0 0 1-.198-1.415v-.287c0-.497.066-.966.198-1.408.137-.447.339-.841.608-1.183.274-.341.616-.61 1.026-.806.414-.196.9-.294 1.456-.294.579 0 1.084.118 1.517.355.433.233.773.552 1.019.957.251.401.387.857.41 1.367h-1.203a1.818 1.818 0 0 0-.26-.827 1.687 1.687 0 0 0-1.483-.813c-.388 0-.713.077-.978.232-.26.151-.467.356-.622.616-.15.255-.26.54-.328.854-.064.31-.096.627-.096.95v.287c0 .324.032.643.096.957.064.315.171.6.321.855.155.255.363.46.622.615.265.15.593.226.985.226Zm4.033-2.714v-.157c0-.534.077-1.028.232-1.484.155-.46.379-.859.67-1.196a2.99 2.99 0 0 1 1.06-.793 3.279 3.279 0 0 1 1.394-.287 3.3 3.3 0 0 1 1.402.287c.419.187.775.451 1.066.793.296.337.522.736.677 1.196.155.456.232.95.232 1.484v.157c0 .533-.077 1.027-.232 1.483a3.543 3.543 0 0 1-.677 1.196 3.084 3.084 0 0 1-1.059.793 3.33 3.33 0 0 1-1.395.281 3.37 3.37 0 0 1-1.401-.281 3.163 3.163 0 0 1-1.067-.793 3.614 3.614 0 0 1-.67-1.196 4.579 4.579 0 0 1-.232-1.483Zm1.265-.157v.157c0 .369.043.718.13 1.046.086.323.216.61.389.861.178.251.399.449.663.595.265.141.572.212.923.212.346 0 .65-.071.909-.212.265-.146.483-.344.657-.595a2.75 2.75 0 0 0 .389-.861c.091-.328.137-.677.137-1.046v-.157c0-.365-.046-.709-.137-1.033a2.664 2.664 0 0 0-.396-.868 1.872 1.872 0 0 0-.657-.601 1.837 1.837 0 0 0-.916-.219c-.346 0-.651.073-.916.219a1.968 1.968 0 0 0-.656.601c-.173.251-.303.54-.389.868-.087.324-.13.668-.13 1.033Zm8.428-6.727V173h-1.271v-10.5h1.271Zm3.405 0V173h-1.272v-10.5h1.272Zm5.099 10.637c-.515 0-.982-.087-1.401-.26a3.17 3.17 0 0 1-1.073-.745 3.307 3.307 0 0 1-.684-1.135 4.17 4.17 0 0 1-.239-1.435v-.288c0-.601.089-1.137.266-1.606.178-.474.42-.875.725-1.203a3.097 3.097 0 0 1 1.039-.745 2.975 2.975 0 0 1 1.203-.253c.529 0 .985.091 1.367.273.388.183.704.438.951.766.246.323.428.706.546 1.148.119.438.178.916.178 1.436v.567h-5.523v-1.032h4.259v-.096a3.165 3.165 0 0 0-.206-.957 1.711 1.711 0 0 0-.546-.765c-.251-.201-.593-.301-1.026-.301a1.723 1.723 0 0 0-1.415.718 2.692 2.692 0 0 0-.403.868 4.387 4.387 0 0 0-.144 1.182v.288c0 .35.048.681.144.991.1.305.244.574.431.806.191.233.421.415.69.547.273.132.583.198.93.198.446 0 .824-.091 1.134-.273.31-.182.581-.426.814-.731l.765.608a3.486 3.486 0 0 1-.608.69 2.904 2.904 0 0 1-.909.534c-.356.136-.777.205-1.265.205Zm7.315-1.039c.301 0 .578-.062.834-.185.255-.123.465-.292.629-.506a1.41 1.41 0 0 0 .28-.745h1.203a2.262 2.262 0 0 1-.444 1.224 3.044 3.044 0 0 1-2.502 1.251c-.556 0-1.042-.098-1.456-.294a2.894 2.894 0 0 1-1.026-.807 3.61 3.61 0 0 1-.608-1.176 4.963 4.963 0 0 1-.198-1.415v-.287c0-.497.066-.966.198-1.408.137-.447.339-.841.608-1.183.274-.341.616-.61 1.026-.806.414-.196.9-.294 1.456-.294.578 0 1.084.118 1.517.355.433.233.773.552 1.019.957.251.401.387.857.41 1.367h-1.203a1.818 1.818 0 0 0-.26-.827 1.687 1.687 0 0 0-1.483-.813c-.388 0-.713.077-.978.232-.26.151-.467.356-.622.616-.15.255-.26.54-.328.854-.064.31-.096.627-.096.95v.287c0 .324.032.643.096.957.064.315.171.6.321.855.155.255.363.46.622.615.265.15.593.226.985.226Zm7.465-6.494v.97h-3.999v-.97h3.999Zm-2.646-1.798h1.265v7.362c0 .251.038.44.116.567a.553.553 0 0 0 .301.253c.123.041.255.062.396.062.105 0 .214-.009.328-.028.119-.022.208-.041.267-.054l.007 1.032a2.924 2.924 0 0 1-.397.089 3 3 0 0 1-.581.048c-.31 0-.595-.062-.854-.185a1.373 1.373 0 0 1-.622-.615c-.151-.292-.226-.684-.226-1.176v-7.355Zm3.657 5.578v-.157c0-.534.078-1.028.233-1.484a3.52 3.52 0 0 1 .67-1.196 2.978 2.978 0 0 1 1.059-.793c.415-.192.88-.287 1.395-.287.519 0 .986.095 1.401.287a2.98 2.98 0 0 1 1.067.793c.296.337.521.736.676 1.196.155.456.233.95.233 1.484v.157c0 .533-.078 1.027-.233 1.483a3.54 3.54 0 0 1-.676 1.196 3.088 3.088 0 0 1-1.06.793c-.41.187-.875.281-1.395.281-.519 0-.986-.094-1.401-.281a3.15 3.15 0 0 1-1.066-.793 3.597 3.597 0 0 1-.67-1.196 4.579 4.579 0 0 1-.233-1.483Zm1.265-.157v.157c0 .369.043.718.13 1.046.086.323.216.61.389.861.178.251.399.449.664.595.264.141.571.212.922.212.347 0 .65-.071.91-.212.264-.146.483-.344.656-.595a2.75 2.75 0 0 0 .389-.861c.092-.328.137-.677.137-1.046v-.157c0-.365-.045-.709-.137-1.033a2.643 2.643 0 0 0-.396-.868 1.877 1.877 0 0 0-.656-.601 1.84 1.84 0 0 0-.916-.219 1.86 1.86 0 0 0-.916.219c-.26.145-.479.346-.657.601-.173.251-.303.54-.389.868-.087.324-.13.668-.13 1.033Zm8.319-2.461V173h-1.264v-7.396h1.23l.034 1.162Zm2.311-1.204-.007 1.176a1.852 1.852 0 0 0-.301-.041 3.245 3.245 0 0 0-.314-.013 2.04 2.04 0 0 0-.773.136 1.602 1.602 0 0 0-.567.383c-.155.164-.278.36-.369.588a2.79 2.79 0 0 0-.171.738l-.356.205c0-.446.044-.866.13-1.257.091-.392.23-.739.417-1.039.187-.306.424-.543.711-.711.292-.174.638-.26 1.039-.26.091 0 .196.011.315.034.118.018.2.039.246.061Z" fill="#F3F3F3"/><path d="M62.426 186.656V192h-1.084v-6.34h1.055l.029.996Zm1.98-1.031-.006 1.008a1.527 1.527 0 0 0-.257-.035 2.677 2.677 0 0 0-.27-.012c-.25 0-.47.039-.662.117a1.378 1.378 0 0 0-.486.328 1.586 1.586 0 0 0-.317.504 2.436 2.436 0 0 0-.146.633l-.305.176c0-.383.037-.742.111-1.078.079-.336.198-.633.358-.891.16-.262.363-.465.61-.609a1.707 1.707 0 0 1 1.16-.194.793.793 0 0 1 .21.053Zm3.516 6.492c-.441 0-.842-.074-1.201-.222a2.739 2.739 0 0 1-.92-.639 2.85 2.85 0 0 1-.586-.973 3.566 3.566 0 0 1-.205-1.23v-.246c0-.516.076-.975.228-1.377.153-.407.36-.75.621-1.032a2.66 2.66 0 0 1 .891-.638 2.55 2.55 0 0 1 1.031-.217c.453 0 .844.078 1.172.234.332.157.604.375.815.657a2.8 2.8 0 0 1 .468.984c.102.375.153.785.153 1.23v.487h-4.735v-.885h3.65v-.082a2.697 2.697 0 0 0-.175-.82 1.476 1.476 0 0 0-.469-.657c-.215-.171-.508-.257-.879-.257a1.469 1.469 0 0 0-1.213.615 2.297 2.297 0 0 0-.345.744 3.77 3.77 0 0 0-.123 1.014v.246c0 .301.04.584.123.849.086.262.209.493.369.692.164.199.361.355.592.468.234.114.5.17.797.17.382 0 .707-.078.972-.234a2.4 2.4 0 0 0 .697-.627l.657.522c-.137.207-.31.404-.522.591-.21.188-.47.34-.78.457-.304.118-.665.176-1.083.176Zm6.27-.89c.257 0 .496-.053.714-.159.219-.105.399-.25.54-.433.14-.188.22-.401.24-.639h1.03a1.93 1.93 0 0 1-.38 1.049 2.6 2.6 0 0 1-.908.779 2.627 2.627 0 0 1-1.237.293c-.476 0-.892-.084-1.248-.252a2.472 2.472 0 0 1-.879-.691 3.089 3.089 0 0 1-.521-1.008 4.253 4.253 0 0 1-.17-1.213v-.246c0-.426.057-.828.17-1.207a3.08 3.08 0 0 1 .521-1.014c.235-.293.528-.523.88-.691.355-.168.77-.252 1.247-.252.496 0 .93.102 1.301.305.371.199.662.472.873.82.215.344.332.734.352 1.172h-1.031a1.56 1.56 0 0 0-.223-.709 1.388 1.388 0 0 0-.516-.504 1.44 1.44 0 0 0-.756-.193c-.332 0-.61.066-.838.199a1.48 1.48 0 0 0-.533.527 2.463 2.463 0 0 0-.28.733 4.021 4.021 0 0 0-.083.814v.246c0 .277.027.551.082.82.055.27.147.514.275.733.133.219.311.394.534.527.226.129.508.194.843.194Zm6.374.89a3.12 3.12 0 0 1-1.2-.222 2.74 2.74 0 0 1-.92-.639 2.847 2.847 0 0 1-.587-.973 3.566 3.566 0 0 1-.205-1.23v-.246c0-.516.077-.975.229-1.377.152-.407.36-.75.62-1.032.263-.281.56-.494.891-.638a2.55 2.55 0 0 1 1.032-.217c.453 0 .843.078 1.172.234.332.157.603.375.814.657.211.277.367.605.469.984.101.375.152.785.152 1.23v.487H78.3v-.885h3.65v-.082a2.697 2.697 0 0 0-.176-.82 1.475 1.475 0 0 0-.468-.657c-.215-.171-.508-.257-.88-.257a1.469 1.469 0 0 0-1.212.615 2.299 2.299 0 0 0-.346.744 3.775 3.775 0 0 0-.123 1.014v.246c0 .301.041.584.123.849.086.262.21.493.37.692.163.199.36.355.591.468.234.114.5.17.797.17.383 0 .707-.078.973-.234a2.4 2.4 0 0 0 .697-.627l.656.522c-.136.207-.31.404-.521.591-.211.188-.471.34-.78.457-.304.118-.666.176-1.084.176Zm4.91-6.457V192h-1.09v-6.34h1.09Zm-1.171-1.681c0-.176.052-.325.158-.446.11-.121.27-.181.48-.181.207 0 .366.06.475.181a.63.63 0 0 1 .17.446.613.613 0 0 1-.17.433c-.11.117-.268.176-.475.176-.21 0-.37-.059-.48-.176a.638.638 0 0 1-.158-.433Zm4.84 7.042 1.734-5.361h1.107L89.707 192h-.726l.163-.979Zm-1.448-5.361 1.787 5.391.123.949h-.726l-2.297-6.34h1.113Zm7.881 6.457c-.441 0-.842-.074-1.201-.222a2.74 2.74 0 0 1-.92-.639 2.847 2.847 0 0 1-.586-.973 3.566 3.566 0 0 1-.205-1.23v-.246c0-.516.076-.975.228-1.377.153-.407.36-.75.622-1.032.261-.281.558-.494.89-.638a2.55 2.55 0 0 1 1.031-.217c.454 0 .844.078 1.172.234.332.157.604.375.815.657a2.8 2.8 0 0 1 .469.984c.101.375.152.785.152 1.23v.487H93.31v-.885h3.65v-.082a2.7 2.7 0 0 0-.176-.82 1.476 1.476 0 0 0-.469-.657c-.214-.171-.507-.257-.879-.257a1.469 1.469 0 0 0-1.212.615 2.299 2.299 0 0 0-.346.744 3.775 3.775 0 0 0-.123 1.014v.246c0 .301.04.584.123.849.086.262.209.493.369.692.164.199.361.355.592.468.234.114.5.17.797.17.382 0 .707-.078.972-.234a2.4 2.4 0 0 0 .698-.627l.656.522c-.137.207-.31.404-.522.591-.21.188-.47.34-.779.457-.305.118-.666.176-1.084.176Zm-30.627 12.201c0-.156-.035-.3-.105-.433-.067-.137-.205-.26-.416-.369-.207-.114-.52-.211-.938-.293a7.482 7.482 0 0 1-.955-.264 2.93 2.93 0 0 1-.72-.369 1.558 1.558 0 0 1-.452-.51 1.421 1.421 0 0 1-.158-.685c0-.25.055-.487.164-.709a1.9 1.9 0 0 1 .475-.592c.207-.172.455-.307.744-.405.289-.097.611-.146.967-.146.507 0 .941.09 1.3.269.36.18.635.42.827.721.191.297.287.627.287.99h-1.084a.93.93 0 0 0-.159-.509 1.164 1.164 0 0 0-.45-.416c-.196-.11-.436-.164-.721-.164-.301 0-.545.046-.733.14a.94.94 0 0 0-.404.346.871.871 0 0 0-.065.762.711.711 0 0 0 .223.252c.106.074.254.144.445.211.192.066.436.132.733.199.52.117.947.258 1.283.422.336.164.586.365.75.603.164.238.246.527.246.867a1.686 1.686 0 0 1-.674 1.36 2.459 2.459 0 0 1-.773.386 3.45 3.45 0 0 1-1.002.135c-.559 0-1.031-.099-1.418-.299-.387-.199-.68-.457-.879-.773-.2-.316-.299-.65-.299-1.002h1.09c.016.297.102.533.258.709.156.172.347.295.574.369.227.07.451.106.674.106.297 0 .545-.039.744-.118.203-.078.358-.185.463-.322a.748.748 0 0 0 .158-.469Zm3.686-4.658V206h-1.09v-6.34h1.09Zm-1.172-1.681c0-.176.053-.325.158-.446.11-.121.27-.181.48-.181.208 0 .366.06.475.181a.63.63 0 0 1 .17.446.613.613 0 0 1-.17.433c-.11.117-.267.176-.475.176-.21 0-.37-.059-.48-.176a.639.639 0 0 1-.158-.433Zm7.02 1.681h.984v6.205c0 .559-.113 1.035-.34 1.43a2.215 2.215 0 0 1-.95.896c-.402.207-.867.311-1.394.311-.219 0-.476-.035-.773-.106a3.108 3.108 0 0 1-.868-.345 2.162 2.162 0 0 1-.709-.651l.569-.644c.265.32.543.543.832.668.293.125.582.187.867.187.344 0 .64-.064.89-.193s.444-.32.58-.574c.141-.25.212-.559.212-.926v-4.863l.1-1.395Zm-4.366 3.24v-.123c0-.484.057-.923.17-1.318.117-.398.283-.74.498-1.025a2.237 2.237 0 0 1 1.834-.891c.398 0 .746.07 1.043.211.3.137.555.338.762.603.21.262.377.579.498.95.12.371.205.791.252 1.259v.539a5.521 5.521 0 0 1-.252 1.254 2.967 2.967 0 0 1-.498.95 2.095 2.095 0 0 1-.762.603 2.52 2.52 0 0 1-1.055.205c-.378 0-.722-.08-1.03-.24a2.347 2.347 0 0 1-.786-.674 3.192 3.192 0 0 1-.504-1.019 4.64 4.64 0 0 1-.17-1.284Zm1.084-.123v.123c0 .317.031.614.094.891.066.277.166.521.299.732.136.211.31.377.521.498.211.118.463.176.756.176.36 0 .656-.076.89-.228.235-.153.42-.354.557-.604.14-.25.25-.521.328-.814v-1.412a2.865 2.865 0 0 0-.199-.621 1.896 1.896 0 0 0-.34-.539 1.45 1.45 0 0 0-.51-.381 1.687 1.687 0 0 0-.714-.141 1.5 1.5 0 0 0-.768.188 1.499 1.499 0 0 0-.521.503 2.415 2.415 0 0 0-.3.739 4.04 4.04 0 0 0-.093.89Zm6.996-1.763V206h-1.084v-6.34h1.026l.058 1.354Zm-.258 1.576-.45-.018c.003-.433.068-.834.193-1.201.125-.371.3-.693.527-.967.227-.273.496-.484.808-.633a2.39 2.39 0 0 1 1.05-.228c.312 0 .593.043.843.129.25.082.463.215.639.398.18.184.316.422.41.715.094.289.14.643.14 1.061V206h-1.09v-4.166c0-.332-.048-.598-.146-.797a.9.9 0 0 0-.427-.439 1.532 1.532 0 0 0-.692-.141c-.27 0-.515.057-.738.17a1.753 1.753 0 0 0-.569.469 2.35 2.35 0 0 0-.369.685 2.51 2.51 0 0 0-.129.809Zm9.545 2.326v-3.264c0-.25-.05-.466-.152-.65a.998.998 0 0 0-.445-.434 1.621 1.621 0 0 0-.739-.152c-.273 0-.513.047-.72.141a1.242 1.242 0 0 0-.48.369.807.807 0 0 0-.17.492h-1.085c0-.227.059-.451.176-.674.117-.223.285-.424.504-.603.223-.184.488-.329.797-.434a3.15 3.15 0 0 1 1.043-.164c.46 0 .867.078 1.219.234.355.157.632.393.832.709.203.313.304.705.304 1.178v2.953c0 .211.018.436.053.674.04.238.096.443.17.615V206h-1.13a2.027 2.027 0 0 1-.13-.498 4.022 4.022 0 0 1-.047-.586Zm.188-2.76.011.762H86.59c-.309 0-.584.025-.826.076a1.885 1.885 0 0 0-.61.217 1.037 1.037 0 0 0-.375.369.982.982 0 0 0-.129.51c0 .199.045.381.135.545a.98.98 0 0 0 .404.392c.184.094.409.141.674.141a1.824 1.824 0 0 0 1.482-.727c.153-.203.235-.4.247-.591l.463.521a1.574 1.574 0 0 1-.223.545 2.615 2.615 0 0 1-1.201 1.025 2.315 2.315 0 0 1-.926.176c-.43 0-.807-.084-1.13-.252a1.929 1.929 0 0 1-.75-.674 1.782 1.782 0 0 1-.264-.955c0-.34.066-.638.199-.896.133-.262.324-.479.574-.651.25-.175.55-.308.902-.398a4.76 4.76 0 0 1 1.178-.135h1.26Zm3.78-5.156v9h-1.09v-9h1.09Zm5.43 7.318c0-.156-.034-.3-.105-.433-.066-.137-.205-.26-.416-.369-.207-.114-.52-.211-.937-.293a7.482 7.482 0 0 1-.955-.264 2.93 2.93 0 0 1-.721-.369 1.558 1.558 0 0 1-.451-.51 1.421 1.421 0 0 1-.158-.685c0-.25.054-.487.164-.709a1.9 1.9 0 0 1 .474-.592c.207-.172.455-.307.744-.405.29-.097.612-.146.967-.146.508 0 .942.09 1.301.269.36.18.635.42.826.721.192.297.287.627.287.99H96.82a.93.93 0 0 0-.158-.509 1.164 1.164 0 0 0-.451-.416c-.195-.11-.436-.164-.72-.164-.302 0-.546.046-.733.14a.94.94 0 0 0-.404.346.871.871 0 0 0-.065.762.71.71 0 0 0 .223.252c.105.074.254.144.445.211.191.066.436.132.733.199.519.117.947.258 1.283.422.336.164.586.365.75.603.164.238.246.527.246.867a1.686 1.686 0 0 1-.674 1.36 2.459 2.459 0 0 1-.773.386 3.45 3.45 0 0 1-1.003.135c-.558 0-1.03-.099-1.417-.299-.387-.199-.68-.457-.88-.773a1.85 1.85 0 0 1-.298-1.002h1.09c.015.297.101.533.258.709.156.172.347.295.574.369.226.07.45.106.673.106.297 0 .545-.039.745-.118.203-.078.357-.185.463-.322a.748.748 0 0 0 .158-.469Zm152.981-13.201c-.441 0-.842-.074-1.201-.222a2.746 2.746 0 0 1-.92-.639 2.85 2.85 0 0 1-.586-.973 3.56 3.56 0 0 1-.205-1.23v-.246c0-.516.076-.975.229-1.377.152-.407.359-.75.621-1.032.261-.281.558-.494.89-.638a2.552 2.552 0 0 1 1.032-.217c.453 0 .843.078 1.171.234.333.157.604.375.815.657.211.277.367.605.469.984.101.375.152.785.152 1.23v.487h-4.734v-.885h3.65v-.082a2.698 2.698 0 0 0-.176-.82 1.476 1.476 0 0 0-.468-.657c-.215-.171-.508-.257-.879-.257a1.47 1.47 0 0 0-1.213.615 2.287 2.287 0 0 0-.346.744 3.775 3.775 0 0 0-.123 1.014v.246c0 .301.041.584.123.849.086.262.209.493.369.692.164.199.361.355.592.468.234.114.5.17.797.17.383 0 .707-.078.972-.234.266-.156.499-.365.698-.627l.656.522a3.053 3.053 0 0 1-.521.591c-.211.188-.471.34-.78.457-.304.118-.666.176-1.084.176Zm4.465-6.457 1.389 2.309 1.406-2.309h1.271l-2.074 3.129 2.139 3.211h-1.254l-1.465-2.379-1.465 2.379h-1.259l2.132-3.211-2.068-3.129h1.248Zm6.305 1.219v7.559h-1.09v-8.778h.996l.094 1.219Zm4.271 1.898v.123c0 .461-.054.889-.164 1.284-.109.39-.269.73-.48 1.019a2.184 2.184 0 0 1-.768.674c-.305.16-.654.24-1.049.24-.402 0-.757-.066-1.066-.199a2.102 2.102 0 0 1-.785-.58 2.969 2.969 0 0 1-.516-.914 5.305 5.305 0 0 1-.258-1.201v-.657c.047-.468.135-.888.264-1.259.129-.371.299-.688.51-.95.215-.265.474-.466.779-.603a2.487 2.487 0 0 1 1.055-.211c.398 0 .752.078 1.06.234.309.153.569.371.78.657.211.285.369.627.474 1.025.11.395.164.834.164 1.318Zm-1.09.123v-.123c0-.316-.033-.613-.099-.89a2.253 2.253 0 0 0-.311-.739 1.475 1.475 0 0 0-.527-.503 1.502 1.502 0 0 0-.768-.188c-.273 0-.511.047-.715.141-.199.093-.369.22-.509.381a1.999 1.999 0 0 0-.346.539c-.086.199-.15.406-.193.621v1.517c.078.274.187.532.328.774.14.238.328.431.562.58.235.144.53.217.885.217.293 0 .545-.061.756-.182.215-.125.391-.295.527-.51.141-.215.244-.461.311-.738.066-.281.099-.58.099-.897Zm2.186 0v-.134c0-.457.066-.881.199-1.272.133-.394.324-.736.574-1.025.25-.293.553-.52.909-.68a2.819 2.819 0 0 1 1.195-.246c.445 0 .846.082 1.201.246.359.16.664.387.914.68.254.289.447.631.58 1.025.133.391.199.815.199 1.272v.134c0 .457-.066.881-.199 1.272-.133.39-.326.732-.58 1.025-.25.289-.553.516-.908.68-.352.16-.75.24-1.195.24-.446 0-.846-.08-1.202-.24a2.724 2.724 0 0 1-.914-.68 3.105 3.105 0 0 1-.574-1.025 3.926 3.926 0 0 1-.199-1.272Zm1.084-.134v.134c0 .317.037.616.111.897.074.277.186.523.334.738.153.215.342.385.569.51.226.121.49.182.791.182.297 0 .556-.061.779-.182.226-.125.414-.295.562-.51.149-.215.26-.461.334-.738a3.3 3.3 0 0 0 .118-.897v-.134c0-.313-.039-.608-.118-.885a2.283 2.283 0 0 0-.339-.744 1.616 1.616 0 0 0-.563-.516 1.577 1.577 0 0 0-.785-.187c-.297 0-.559.062-.785.187-.223.125-.41.297-.563.516-.148.215-.26.463-.334.744a3.417 3.417 0 0 0-.111.885Zm7.131-2.11V191h-1.084v-6.34h1.055l.029.996Zm1.98-1.031-.006 1.008a1.506 1.506 0 0 0-.257-.035 2.692 2.692 0 0 0-.27-.012c-.25 0-.471.039-.662.117a1.373 1.373 0 0 0-.486.328 1.583 1.583 0 0 0-.317.504 2.424 2.424 0 0 0-.146.633l-.305.176c0-.383.037-.742.111-1.078.079-.336.198-.633.358-.891a1.74 1.74 0 0 1 .609-.609 1.708 1.708 0 0 1 1.16-.194.79.79 0 0 1 .211.053Zm3.949.035v.832h-3.427v-.832h3.427Zm-2.267-1.541h1.084v6.311c0 .215.033.377.099.486a.482.482 0 0 0 .258.217c.106.035.219.053.34.053.09 0 .184-.008.281-.024.102-.019.178-.035.229-.047l.006.885a2.514 2.514 0 0 1-.34.076 2.536 2.536 0 0 1-.498.041c-.266 0-.51-.053-.733-.158a1.18 1.18 0 0 1-.533-.527c-.129-.25-.193-.586-.193-1.008v-6.305Zm-28.928 20.199c0-.156-.035-.3-.105-.433-.067-.137-.205-.26-.416-.369-.207-.114-.52-.211-.938-.293a7.498 7.498 0 0 1-.955-.264 2.95 2.95 0 0 1-.721-.369 1.566 1.566 0 0 1-.451-.51 1.426 1.426 0 0 1-.158-.685c0-.25.055-.487.164-.709a1.9 1.9 0 0 1 .475-.592c.207-.172.455-.307.744-.405.289-.097.611-.146.967-.146.507 0 .941.09 1.3.269.36.18.635.42.827.721.191.297.287.627.287.99h-1.084a.933.933 0 0 0-.158-.509 1.165 1.165 0 0 0-.452-.416c-.195-.11-.435-.164-.72-.164-.301 0-.545.046-.733.14a.942.942 0 0 0-.404.346.871.871 0 0 0-.065.762.717.717 0 0 0 .223.252c.106.074.254.144.445.211.192.066.436.132.733.199.519.117.947.258 1.283.422.336.164.586.365.75.603.164.238.246.527.246.867a1.68 1.68 0 0 1-.674 1.36 2.456 2.456 0 0 1-.773.386 3.45 3.45 0 0 1-1.002.135c-.559 0-1.031-.099-1.418-.299-.387-.199-.68-.457-.879-.773a1.85 1.85 0 0 1-.299-1.002h1.09c.016.297.102.533.258.709.156.172.348.295.574.369.227.07.451.106.674.106.297 0 .545-.039.744-.118.203-.078.358-.185.463-.322a.75.75 0 0 0 .158-.469Zm3.686-4.658V205h-1.09v-6.34h1.09Zm-1.172-1.681c0-.176.053-.325.158-.446.109-.121.27-.181.481-.181.207 0 .365.06.474.181a.63.63 0 0 1 .17.446.614.614 0 0 1-.17.433c-.109.117-.267.176-.474.176-.211 0-.372-.059-.481-.176a.64.64 0 0 1-.158-.433Zm7.019 1.681h.985v6.205c0 .559-.114 1.035-.34 1.43a2.218 2.218 0 0 1-.949.896c-.403.207-.868.311-1.395.311-.219 0-.476-.035-.773-.106a3.103 3.103 0 0 1-.867-.345 2.15 2.15 0 0 1-.709-.651l.568-.644c.266.32.543.543.832.668.293.125.582.187.867.187.344 0 .641-.064.891-.193s.443-.32.58-.574c.14-.25.211-.559.211-.926v-4.863l.099-1.395Zm-4.365 3.24v-.123c0-.484.057-.923.17-1.318.117-.398.283-.74.498-1.025.219-.286.483-.504.791-.657a2.28 2.28 0 0 1 1.043-.234c.399 0 .746.07 1.043.211.301.137.555.338.762.603.211.262.377.579.498.95s.205.791.252 1.259v.539a5.521 5.521 0 0 1-.252 1.254 2.963 2.963 0 0 1-.498.95 2.093 2.093 0 0 1-.762.603 2.523 2.523 0 0 1-1.055.205c-.379 0-.722-.08-1.031-.24a2.347 2.347 0 0 1-.785-.674 3.186 3.186 0 0 1-.504-1.019 4.652 4.652 0 0 1-.17-1.284Zm1.084-.123v.123c0 .317.031.614.094.891.066.277.166.521.299.732.136.211.31.377.521.498.211.118.463.176.756.176.359 0 .656-.076.891-.228.234-.153.42-.354.556-.604.141-.25.25-.521.328-.814v-1.412a2.865 2.865 0 0 0-.199-.621 1.89 1.89 0 0 0-.34-.539 1.442 1.442 0 0 0-.509-.381 1.692 1.692 0 0 0-.715-.141c-.297 0-.553.063-.768.188a1.491 1.491 0 0 0-.521.503 2.4 2.4 0 0 0-.299.739 4.01 4.01 0 0 0-.094.89Zm6.996-1.763V205h-1.084v-6.34h1.026l.058 1.354Zm-.258 1.576-.451-.018c.004-.433.069-.834.194-1.201.125-.371.3-.693.527-.967.227-.273.496-.484.809-.633a2.388 2.388 0 0 1 1.048-.228c.313 0 .594.043.844.129.25.082.463.215.639.398.179.184.316.422.41.715.094.289.141.643.141 1.061V205h-1.09v-4.166c0-.332-.049-.598-.147-.797a.899.899 0 0 0-.427-.439 1.535 1.535 0 0 0-.692-.141c-.269 0-.516.057-.738.17a1.762 1.762 0 0 0-.569.469 2.36 2.36 0 0 0-.369.685 2.507 2.507 0 0 0-.129.809Zm9.545 2.326v-3.264c0-.25-.05-.466-.152-.65a1 1 0 0 0-.445-.434 1.627 1.627 0 0 0-.739-.152c-.273 0-.513.047-.72.141a1.243 1.243 0 0 0-.481.369.809.809 0 0 0-.17.492h-1.084c0-.227.059-.451.176-.674.117-.223.285-.424.504-.603.223-.184.488-.329.797-.434.312-.109.66-.164 1.043-.164.461 0 .867.078 1.219.234.355.157.632.393.832.709.203.313.304.705.304 1.178v2.953c0 .211.018.436.053.674.039.238.096.443.17.615V205h-1.131a2 2 0 0 1-.129-.498 4.051 4.051 0 0 1-.047-.586Zm.188-2.76.012.762h-1.096c-.309 0-.584.025-.826.076a1.88 1.88 0 0 0-.61.217 1.037 1.037 0 0 0-.375.369.981.981 0 0 0-.129.51c0 .199.045.381.135.545a.98.98 0 0 0 .404.392c.184.094.409.141.674.141.332 0 .625-.07.879-.211s.455-.312.604-.516c.152-.203.234-.4.246-.591l.463.521a1.59 1.59 0 0 1-.223.545 2.633 2.633 0 0 1-1.201 1.025 2.317 2.317 0 0 1-.926.176c-.43 0-.807-.084-1.131-.252a1.933 1.933 0 0 1-.75-.674 1.78 1.78 0 0 1-.263-.955c0-.34.066-.638.199-.896.133-.262.324-.479.574-.651a2.75 2.75 0 0 1 .902-.398c.352-.09.744-.135 1.178-.135h1.26Zm3.779-5.156v9h-1.09v-9h1.09Zm5.432 7.318c0-.156-.035-.3-.106-.433-.066-.137-.205-.26-.416-.369-.207-.114-.519-.211-.937-.293a7.453 7.453 0 0 1-.955-.264 2.914 2.914 0 0 1-.721-.369 1.555 1.555 0 0 1-.451-.51 1.414 1.414 0 0 1-.158-.685c0-.25.054-.487.164-.709.113-.223.271-.42.474-.592.207-.172.455-.307.744-.405a3.03 3.03 0 0 1 .967-.146c.508 0 .942.09 1.301.269.359.18.635.42.826.721.192.297.287.627.287.99h-1.084a.925.925 0 0 0-.158-.509 1.162 1.162 0 0 0-.451-.416c-.195-.11-.436-.164-.721-.164-.301 0-.545.046-.732.14a.93.93 0 0 0-.404.346.863.863 0 0 0-.065.762.708.708 0 0 0 .223.252c.105.074.254.144.445.211.191.066.436.132.732.199.52.117.948.258 1.284.422.336.164.586.365.75.603.164.238.246.527.246.867a1.68 1.68 0 0 1-.674 1.36 2.462 2.462 0 0 1-.774.386c-.296.09-.63.135-1.001.135-.559 0-1.032-.099-1.418-.299-.387-.199-.68-.457-.879-.773-.2-.316-.299-.65-.299-1.002h1.09c.015.297.101.533.257.709.157.172.348.295.575.369.226.07.451.106.674.106.296 0 .544-.039.744-.118.203-.078.357-.185.463-.322a.75.75 0 0 0 .158-.469ZM111 168l-10-5.774v11.547L111 168Zm-57 1h48v-2H54v2Zm241-1-10-5.774v11.547L295 168Zm-57 1h48v-2h-48v2Zm-62.293-94.707a1 1 0 0 0-1.414 0l-6.364 6.364a1 1 0 1 0 1.414 1.414L175 76.414l5.657 5.657a1 1 0 1 0 1.414-1.414l-6.364-6.364Zm-1.414 65.414a.999.999 0 0 0 1.414 0l6.364-6.364a.999.999 0 1 0-1.414-1.414L175 137.586l-5.657-5.657a.999.999 0 1 0-1.414 1.414l6.364 6.364ZM174 75v64h2V75h-2Z" fill="#000"/><path fill="#fff" d="M149 103h51v16h-51z"/><path d="M162.684 110.465v.539c0 .641-.08 1.215-.241 1.723-.16.507-.39.939-.691 1.294a3 3 0 0 1-1.084.815 3.407 3.407 0 0 1-1.406.281 3.39 3.39 0 0 1-1.389-.281 3.127 3.127 0 0 1-1.09-.815 3.805 3.805 0 0 1-.709-1.294c-.168-.508-.252-1.082-.252-1.723v-.539c0-.641.082-1.213.246-1.717a3.81 3.81 0 0 1 .709-1.295 3.037 3.037 0 0 1 1.084-.82 3.374 3.374 0 0 1 1.389-.281c.52 0 .988.093 1.406.281a2.97 2.97 0 0 1 1.084.82c.305.356.537.787.698 1.295.164.504.246 1.076.246 1.717Zm-1.12.539v-.551a5.17 5.17 0 0 0-.158-1.348 2.794 2.794 0 0 0-.451-.984 1.932 1.932 0 0 0-.732-.603 2.22 2.22 0 0 0-.973-.206c-.352 0-.67.069-.955.206a2.012 2.012 0 0 0-.727.603 2.974 2.974 0 0 0-.463.984c-.109.391-.164.84-.164 1.348v.551c0 .512.055.965.164 1.359.11.391.266.721.469.991.207.265.451.466.733.603.285.137.603.205.955.205.367 0 .693-.068.978-.205.285-.137.526-.338.721-.603.199-.27.35-.6.451-.991.102-.394.152-.847.152-1.359Zm3.733-1.125v7.559h-1.09v-8.778h.996l.094 1.219Zm4.271 1.898v.123c0 .461-.054.889-.164 1.284-.109.39-.269.73-.48 1.019a2.184 2.184 0 0 1-.768.674 2.22 2.22 0 0 1-1.049.24c-.402 0-.757-.066-1.066-.199a2.102 2.102 0 0 1-.785-.58 2.969 2.969 0 0 1-.516-.914 5.305 5.305 0 0 1-.258-1.201v-.657c.047-.468.135-.888.264-1.259.129-.371.299-.688.51-.95.215-.265.474-.466.779-.603a2.487 2.487 0 0 1 1.055-.211c.398 0 .752.078 1.06.234.309.153.569.371.78.657.211.285.369.627.474 1.025.11.395.164.834.164 1.318Zm-1.089.123v-.123c0-.316-.034-.613-.1-.89a2.253 2.253 0 0 0-.311-.739 1.475 1.475 0 0 0-.527-.503 1.502 1.502 0 0 0-.768-.188c-.273 0-.511.047-.714.141-.2.093-.37.22-.51.381a1.999 1.999 0 0 0-.346.539c-.086.199-.15.406-.193.621v1.517c.078.274.187.532.328.774.141.238.328.431.562.58.235.144.53.217.885.217.293 0 .545-.061.756-.182.215-.125.391-.295.527-.51.141-.215.244-.461.311-.738.066-.281.1-.58.1-.897Zm5.794-4.675L171.449 115h-1.154l3.252-8.531h.744l-.018.756Zm2.368 7.775-2.83-7.775-.018-.756h.744l3.264 8.531h-1.16Zm-.147-3.158v.926h-4.793v-.926h4.793Zm2.807-5.373h1.095l2.795 6.955 2.789-6.955h1.102L183.613 115h-.855l-3.457-8.531Zm-.358 0h.967l.158 5.203V115h-1.125v-8.531Zm7.524 0h.967V115h-1.125v-3.328l.158-5.203Zm6.099 5.185h-2.279v-.92h2.279c.442 0 .799-.07 1.073-.211.273-.14.472-.335.597-.585.129-.25.194-.536.194-.856 0-.293-.065-.568-.194-.826a1.427 1.427 0 0 0-.597-.621c-.274-.16-.631-.24-1.073-.24h-2.015V115h-1.131v-8.531h3.146c.645 0 1.19.111 1.635.334a2.36 2.36 0 0 1 1.014.926c.23.39.346.837.346 1.341 0 .547-.116 1.014-.346 1.401a2.217 2.217 0 0 1-1.014.884c-.445.2-.99.299-1.635.299Z" fill="#000"/><g opacity=".2"><g filter="url(#g)" shape-rendering="crispEdges"><ellipse cx="495.5" cy="168.5" rx="63.5" ry="24.5" fill="#000" fill-opacity=".6"/><path d="M558.5 168.5c0 3.194-1.676 6.292-4.827 9.167-3.152 2.875-7.74 5.487-13.452 7.691-11.42 4.406-27.231 7.142-44.721 7.142-17.49 0-33.301-2.736-44.721-7.142-5.712-2.204-10.3-4.816-13.452-7.691-3.151-2.875-4.827-5.973-4.827-9.167s1.676-6.292 4.827-9.167c3.152-2.875 7.74-5.487 13.452-7.691 11.42-4.406 27.231-7.142 44.721-7.142 17.49 0 33.301 2.736 44.721 7.142 5.712 2.204 10.3 4.816 13.452 7.691 3.151 2.875 4.827 5.973 4.827 9.167Z" stroke="#000"/></g><path d="M461.818 168.709v.629c0 .747-.093 1.417-.28 2.01a4.313 4.313 0 0 1-.807 1.51c-.35.415-.772.732-1.264.951a3.98 3.98 0 0 1-1.641.328c-.588 0-1.128-.11-1.62-.328a3.639 3.639 0 0 1-1.271-.951 4.414 4.414 0 0 1-.828-1.51c-.196-.593-.294-1.263-.294-2.01v-.629c0-.747.096-1.415.288-2.003a4.426 4.426 0 0 1 .827-1.511 3.548 3.548 0 0 1 1.264-.957 3.962 3.962 0 0 1 1.62-.328c.607 0 1.153.11 1.641.328.492.219.914.538 1.265.957.355.415.626.919.813 1.511.192.588.287 1.256.287 2.003Zm-1.305.629v-.643c0-.592-.062-1.116-.185-1.572a3.255 3.255 0 0 0-.526-1.148 2.265 2.265 0 0 0-.855-.704 2.585 2.585 0 0 0-1.135-.24c-.41 0-.781.08-1.114.24-.328.159-.61.394-.847.704-.233.31-.413.692-.54 1.148-.128.456-.192.98-.192 1.572v.643c0 .597.064 1.126.192 1.586.127.456.309.841.546 1.155.242.31.527.545.855.704.333.16.704.239 1.114.239.429 0 .809-.079 1.142-.239a2.23 2.23 0 0 0 .841-.704c.232-.314.407-.699.526-1.155a6.41 6.41 0 0 0 .178-1.586Zm6.767-5.291V174h-1.299v-9.953h1.299Zm3.199 0v1.08h-7.69v-1.08h7.69Zm3.671 10.09c-.515 0-.982-.087-1.401-.26a3.179 3.179 0 0 1-1.073-.745 3.323 3.323 0 0 1-.684-1.135 4.17 4.17 0 0 1-.239-1.435v-.288c0-.601.089-1.137.267-1.606.177-.474.419-.875.724-1.203a3.097 3.097 0 0 1 1.039-.745 2.982 2.982 0 0 1 1.203-.253c.529 0 .985.091 1.368.273.387.183.704.438.95.766.246.323.428.706.547 1.148.118.438.177.916.177 1.436v.567h-5.523v-1.032h4.259v-.096a3.194 3.194 0 0 0-.205-.957 1.721 1.721 0 0 0-.547-.765c-.251-.201-.593-.301-1.026-.301a1.723 1.723 0 0 0-1.415.718 2.692 2.692 0 0 0-.403.868 4.387 4.387 0 0 0-.144 1.182v.288c0 .35.048.681.144.991.1.305.244.574.431.806.191.233.421.415.69.547.273.132.583.198.93.198.446 0 .825-.091 1.135-.273.309-.182.581-.426.813-.731l.766.608c-.16.242-.363.472-.609.69a2.904 2.904 0 0 1-.909.534c-.355.136-.777.205-1.265.205Zm5.729-10.637V174h-1.272v-10.5h1.272Zm8.463 9.598c.301 0 .579-.062.834-.185s.465-.292.629-.506a1.41 1.41 0 0 0 .28-.745h1.203a2.262 2.262 0 0 1-.444 1.224 3.044 3.044 0 0 1-2.502 1.251c-.556 0-1.042-.098-1.456-.294a2.894 2.894 0 0 1-1.026-.807 3.61 3.61 0 0 1-.608-1.176 4.963 4.963 0 0 1-.198-1.415v-.287c0-.497.066-.966.198-1.408.137-.447.339-.841.608-1.183.274-.341.616-.61 1.026-.806.414-.196.9-.294 1.456-.294.579 0 1.084.118 1.517.355.433.233.773.552 1.019.957.251.401.387.857.41 1.367h-1.203a1.818 1.818 0 0 0-.26-.827 1.687 1.687 0 0 0-1.483-.813c-.388 0-.713.077-.978.232-.26.151-.467.356-.622.616-.15.255-.26.54-.328.854-.064.31-.096.627-.096.95v.287c0 .324.032.643.096.957.064.315.171.6.321.855.155.255.363.46.622.615.265.15.593.226.985.226Zm4.033-2.714v-.157c0-.534.077-1.028.232-1.484.155-.46.379-.859.67-1.196a2.99 2.99 0 0 1 1.06-.793 3.279 3.279 0 0 1 1.394-.287 3.3 3.3 0 0 1 1.402.287c.419.187.775.451 1.066.793.296.337.522.736.677 1.196.155.456.232.95.232 1.484v.157c0 .533-.077 1.027-.232 1.483a3.543 3.543 0 0 1-.677 1.196 3.084 3.084 0 0 1-1.059.793 3.33 3.33 0 0 1-1.395.281 3.37 3.37 0 0 1-1.401-.281 3.163 3.163 0 0 1-1.067-.793 3.614 3.614 0 0 1-.67-1.196 4.579 4.579 0 0 1-.232-1.483Zm1.265-.157v.157c0 .369.043.718.13 1.046.086.323.216.61.389.861.178.251.399.449.663.595.265.141.572.212.923.212.346 0 .65-.071.909-.212.265-.146.483-.344.657-.595a2.75 2.75 0 0 0 .389-.861c.091-.328.137-.677.137-1.046v-.157c0-.365-.046-.709-.137-1.033a2.664 2.664 0 0 0-.396-.868 1.872 1.872 0 0 0-.657-.601 1.837 1.837 0 0 0-.916-.219c-.346 0-.651.073-.916.219a1.968 1.968 0 0 0-.656.601c-.173.251-.303.54-.389.868-.087.324-.13.668-.13 1.033Zm8.428-6.727V174h-1.271v-10.5h1.271Zm3.405 0V174h-1.272v-10.5h1.272Zm5.099 10.637c-.515 0-.982-.087-1.401-.26a3.17 3.17 0 0 1-1.073-.745 3.307 3.307 0 0 1-.684-1.135 4.17 4.17 0 0 1-.239-1.435v-.288c0-.601.089-1.137.266-1.606.178-.474.42-.875.725-1.203a3.097 3.097 0 0 1 1.039-.745 2.975 2.975 0 0 1 1.203-.253c.529 0 .985.091 1.367.273.388.183.704.438.951.766.246.323.428.706.546 1.148.119.438.178.916.178 1.436v.567h-5.523v-1.032h4.259v-.096a3.165 3.165 0 0 0-.206-.957 1.711 1.711 0 0 0-.546-.765c-.251-.201-.593-.301-1.026-.301a1.723 1.723 0 0 0-1.415.718 2.692 2.692 0 0 0-.403.868 4.387 4.387 0 0 0-.144 1.182v.288c0 .35.048.681.144.991.1.305.244.574.431.806.191.233.421.415.69.547.273.132.583.198.93.198.446 0 .824-.091 1.134-.273.31-.182.581-.426.814-.731l.765.608a3.486 3.486 0 0 1-.608.69 2.904 2.904 0 0 1-.909.534c-.356.136-.777.205-1.265.205Zm7.315-1.039c.301 0 .578-.062.834-.185.255-.123.465-.292.629-.506a1.41 1.41 0 0 0 .28-.745h1.203a2.262 2.262 0 0 1-.444 1.224 3.044 3.044 0 0 1-2.502 1.251c-.556 0-1.042-.098-1.456-.294a2.894 2.894 0 0 1-1.026-.807 3.61 3.61 0 0 1-.608-1.176 4.963 4.963 0 0 1-.198-1.415v-.287c0-.497.066-.966.198-1.408.137-.447.339-.841.608-1.183.274-.341.616-.61 1.026-.806.414-.196.9-.294 1.456-.294.578 0 1.084.118 1.517.355.433.233.773.552 1.019.957.251.401.387.857.41 1.367h-1.203a1.818 1.818 0 0 0-.26-.827 1.687 1.687 0 0 0-1.483-.813c-.388 0-.713.077-.978.232-.26.151-.467.356-.622.616-.15.255-.26.54-.328.854-.064.31-.096.627-.096.95v.287c0 .324.032.643.096.957.064.315.171.6.321.855.155.255.363.46.622.615.265.15.593.226.985.226Zm7.465-6.494v.97h-3.999v-.97h3.999Zm-2.646-1.798h1.265v7.362c0 .251.038.44.116.567a.553.553 0 0 0 .301.253c.123.041.255.062.396.062.105 0 .214-.009.328-.028.119-.022.208-.041.267-.054l.007 1.032a2.924 2.924 0 0 1-.397.089 3 3 0 0 1-.581.048c-.31 0-.595-.062-.854-.185a1.373 1.373 0 0 1-.622-.615c-.151-.292-.226-.684-.226-1.176v-7.355Zm3.657 5.578v-.157c0-.534.078-1.028.233-1.484a3.52 3.52 0 0 1 .67-1.196 2.978 2.978 0 0 1 1.059-.793c.415-.192.88-.287 1.395-.287.519 0 .986.095 1.401.287a2.98 2.98 0 0 1 1.067.793c.296.337.521.736.676 1.196.155.456.233.95.233 1.484v.157c0 .533-.078 1.027-.233 1.483a3.54 3.54 0 0 1-.676 1.196 3.088 3.088 0 0 1-1.06.793c-.41.187-.875.281-1.395.281-.519 0-.986-.094-1.401-.281a3.15 3.15 0 0 1-1.066-.793 3.597 3.597 0 0 1-.67-1.196 4.579 4.579 0 0 1-.233-1.483Zm1.265-.157v.157c0 .369.043.718.13 1.046.086.323.216.61.389.861.178.251.399.449.664.595.264.141.571.212.922.212.347 0 .65-.071.91-.212.264-.146.483-.344.656-.595a2.75 2.75 0 0 0 .389-.861c.092-.328.137-.677.137-1.046v-.157c0-.365-.045-.709-.137-1.033a2.643 2.643 0 0 0-.396-.868 1.877 1.877 0 0 0-.656-.601 1.84 1.84 0 0 0-.916-.219 1.86 1.86 0 0 0-.916.219c-.26.145-.479.346-.657.601-.173.251-.303.54-.389.868-.087.324-.13.668-.13 1.033Zm8.319-2.461V174h-1.264v-7.396h1.23l.034 1.162Zm2.311-1.204-.007 1.176a1.852 1.852 0 0 0-.301-.041 3.245 3.245 0 0 0-.314-.013 2.04 2.04 0 0 0-.773.136 1.602 1.602 0 0 0-.567.383c-.155.164-.278.36-.369.588a2.79 2.79 0 0 0-.171.738l-.356.205c0-.446.044-.866.13-1.257.091-.392.23-.739.417-1.039.187-.306.424-.543.711-.711.292-.174.638-.26 1.039-.26.091 0 .196.011.315.034.118.018.2.039.246.061Z" fill="#F3F3F3"/><path d="M383.426 187.656V193h-1.084v-6.34h1.054l.03.996Zm1.98-1.031-.006 1.008a1.506 1.506 0 0 0-.257-.035 2.692 2.692 0 0 0-.27-.012c-.25 0-.471.039-.662.117a1.373 1.373 0 0 0-.486.328 1.583 1.583 0 0 0-.317.504 2.424 2.424 0 0 0-.146.633l-.305.176c0-.383.037-.742.111-1.078a2.94 2.94 0 0 1 .358-.891 1.74 1.74 0 0 1 .609-.609 1.708 1.708 0 0 1 1.16-.194.79.79 0 0 1 .211.053Zm3.516 6.492c-.442 0-.842-.074-1.201-.222a2.736 2.736 0 0 1-.92-.639 2.85 2.85 0 0 1-.586-.973 3.56 3.56 0 0 1-.205-1.23v-.246c0-.516.076-.975.228-1.377.153-.407.36-.75.621-1.032a2.66 2.66 0 0 1 .891-.638 2.55 2.55 0 0 1 1.031-.217c.453 0 .844.078 1.172.234.332.157.604.375.815.657.211.277.367.605.468.984.102.375.153.785.153 1.23v.487h-4.735v-.885h3.651v-.082a2.728 2.728 0 0 0-.176-.82 1.478 1.478 0 0 0-.469-.657c-.215-.171-.508-.257-.879-.257a1.466 1.466 0 0 0-1.213.615 2.307 2.307 0 0 0-.345.744 3.775 3.775 0 0 0-.123 1.014v.246c0 .301.041.584.123.849.086.262.209.493.369.692.164.199.361.355.592.468.234.114.5.17.796.17.383 0 .708-.078.973-.234.266-.156.498-.365.697-.627l.657.522a3.026 3.026 0 0 1-.522.591c-.211.188-.471.34-.779.457-.305.118-.666.176-1.084.176Zm6.269-.89c.258 0 .497-.053.715-.159.219-.105.399-.25.539-.433.141-.188.221-.401.241-.639h1.031a1.94 1.94 0 0 1-.381 1.049 2.605 2.605 0 0 1-2.145 1.072c-.476 0-.892-.084-1.248-.252a2.483 2.483 0 0 1-.879-.691 3.094 3.094 0 0 1-.521-1.008 4.264 4.264 0 0 1-.17-1.213v-.246c0-.426.057-.828.17-1.207.117-.383.291-.721.521-1.014.235-.293.528-.523.879-.691.356-.168.772-.252 1.248-.252.497 0 .93.102 1.301.305.371.199.662.472.873.82.215.344.332.734.352 1.172h-1.031a1.566 1.566 0 0 0-.223-.709 1.387 1.387 0 0 0-.516-.504 1.441 1.441 0 0 0-.756-.193c-.332 0-.611.066-.837.199a1.474 1.474 0 0 0-.534.527 2.471 2.471 0 0 0-.281.733 4 4 0 0 0-.082.814v.246c0 .277.027.551.082.82.055.27.147.514.275.733.133.219.311.394.534.527.226.129.507.194.843.194Zm6.375.89a3.13 3.13 0 0 1-1.201-.222 2.746 2.746 0 0 1-.92-.639 2.85 2.85 0 0 1-.586-.973 3.583 3.583 0 0 1-.205-1.23v-.246c0-.516.076-.975.229-1.377.152-.407.359-.75.621-1.032a2.65 2.65 0 0 1 .891-.638 2.547 2.547 0 0 1 1.031-.217c.453 0 .844.078 1.172.234.332.157.603.375.814.657.211.277.367.605.469.984.101.375.152.785.152 1.23v.487h-4.734v-.885h3.65v-.082a2.668 2.668 0 0 0-.176-.82 1.468 1.468 0 0 0-.468-.657c-.215-.171-.508-.257-.879-.257a1.47 1.47 0 0 0-1.213.615 2.287 2.287 0 0 0-.346.744 3.775 3.775 0 0 0-.123 1.014v.246c0 .301.041.584.123.849.086.262.209.493.369.692.164.199.362.355.592.468.234.114.5.17.797.17.383 0 .707-.078.973-.234.265-.156.498-.365.697-.627l.656.522a3.02 3.02 0 0 1-.521.591c-.211.188-.471.34-.78.457-.304.118-.666.176-1.084.176Zm4.911-6.457V193h-1.09v-6.34h1.09Zm-1.172-1.681c0-.176.052-.325.158-.446.109-.121.269-.181.48-.181.207 0 .366.06.475.181a.63.63 0 0 1 .17.446.614.614 0 0 1-.17.433c-.109.117-.268.176-.475.176-.211 0-.371-.059-.48-.176a.636.636 0 0 1-.158-.433Zm4.84 7.042 1.734-5.361h1.107l-2.279 6.34h-.727l.165-.979Zm-1.448-5.361 1.787 5.391.123.949h-.726l-2.297-6.34h1.113Zm7.881 6.457c-.441 0-.842-.074-1.201-.222a2.736 2.736 0 0 1-.92-.639 2.85 2.85 0 0 1-.586-.973 3.56 3.56 0 0 1-.205-1.23v-.246c0-.516.076-.975.229-1.377.152-.407.359-.75.621-1.032.261-.281.558-.494.89-.638a2.552 2.552 0 0 1 1.032-.217c.453 0 .843.078 1.171.234.332.157.604.375.815.657.211.277.367.605.469.984.101.375.152.785.152 1.23v.487h-4.734v-.885h3.65v-.082a2.698 2.698 0 0 0-.176-.82 1.47 1.47 0 0 0-.469-.657c-.214-.171-.507-.257-.878-.257a1.467 1.467 0 0 0-1.213.615 2.287 2.287 0 0 0-.346.744 3.775 3.775 0 0 0-.123 1.014v.246c0 .301.041.584.123.849.086.262.209.493.369.692.164.199.361.355.592.468.234.114.5.17.797.17.383 0 .707-.078.972-.234.266-.156.498-.365.698-.627l.656.522a3.026 3.026 0 0 1-.522.591 2.47 2.47 0 0 1-.779.457c-.305.118-.666.176-1.084.176Zm-30.627 12.201c0-.156-.035-.3-.105-.433-.067-.137-.205-.26-.416-.369-.207-.114-.52-.211-.938-.293a7.498 7.498 0 0 1-.955-.264 2.95 2.95 0 0 1-.721-.369 1.566 1.566 0 0 1-.451-.51 1.426 1.426 0 0 1-.158-.685c0-.25.055-.487.164-.709a1.9 1.9 0 0 1 .475-.592c.207-.172.455-.307.744-.405.289-.097.611-.146.967-.146.507 0 .941.09 1.3.269.36.18.635.42.827.721.191.297.287.627.287.99h-1.084a.933.933 0 0 0-.158-.509 1.165 1.165 0 0 0-.452-.416c-.195-.11-.435-.164-.72-.164-.301 0-.545.046-.733.14a.942.942 0 0 0-.404.346.871.871 0 0 0-.065.762.717.717 0 0 0 .223.252c.106.074.254.144.445.211.192.066.436.132.733.199.519.117.947.258 1.283.422.336.164.586.365.75.603.164.238.246.527.246.867a1.68 1.68 0 0 1-.674 1.36 2.456 2.456 0 0 1-.773.386 3.45 3.45 0 0 1-1.002.135c-.559 0-1.031-.099-1.418-.299-.387-.199-.68-.457-.879-.773a1.85 1.85 0 0 1-.299-1.002h1.09c.016.297.102.533.258.709.156.172.348.295.574.369.227.07.451.106.674.106.297 0 .545-.039.744-.118.203-.078.358-.185.463-.322a.75.75 0 0 0 .158-.469Zm3.686-4.658V207h-1.09v-6.34h1.09Zm-1.172-1.681c0-.176.053-.325.158-.446.109-.121.27-.181.481-.181.207 0 .365.06.474.181a.63.63 0 0 1 .17.446.614.614 0 0 1-.17.433c-.109.117-.267.176-.474.176-.211 0-.372-.059-.481-.176a.64.64 0 0 1-.158-.433Zm7.019 1.681h.985v6.205c0 .559-.114 1.035-.34 1.43a2.218 2.218 0 0 1-.949.896c-.403.207-.868.311-1.395.311-.219 0-.476-.035-.773-.106a3.103 3.103 0 0 1-.867-.345 2.15 2.15 0 0 1-.709-.651l.568-.644c.266.32.543.543.832.668.293.125.582.187.867.187.344 0 .641-.064.891-.193s.443-.32.58-.574c.14-.25.211-.559.211-.926v-4.863l.099-1.395Zm-4.365 3.24v-.123c0-.484.057-.923.17-1.318.117-.398.283-.74.498-1.025.219-.286.483-.504.791-.657a2.28 2.28 0 0 1 1.043-.234c.399 0 .746.07 1.043.211.301.137.555.338.762.603.211.262.377.579.498.95s.205.791.252 1.259v.539a5.521 5.521 0 0 1-.252 1.254 2.963 2.963 0 0 1-.498.95 2.093 2.093 0 0 1-.762.603 2.523 2.523 0 0 1-1.055.205c-.379 0-.722-.08-1.031-.24a2.347 2.347 0 0 1-.785-.674 3.186 3.186 0 0 1-.504-1.019 4.652 4.652 0 0 1-.17-1.284Zm1.084-.123v.123c0 .317.031.614.094.891.066.277.166.521.299.732.136.211.31.377.521.498.211.118.463.176.756.176.359 0 .656-.076.891-.228.234-.153.42-.354.556-.604.141-.25.25-.521.328-.814v-1.412a2.865 2.865 0 0 0-.199-.621 1.89 1.89 0 0 0-.34-.539 1.442 1.442 0 0 0-.509-.381 1.692 1.692 0 0 0-.715-.141c-.297 0-.553.063-.768.188a1.491 1.491 0 0 0-.521.503 2.4 2.4 0 0 0-.299.739 4.01 4.01 0 0 0-.094.89Zm6.996-1.763V207h-1.084v-6.34h1.026l.058 1.354Zm-.258 1.576-.451-.018c.004-.433.069-.834.194-1.201.125-.371.3-.693.527-.967.227-.273.496-.484.809-.633a2.388 2.388 0 0 1 1.048-.228c.313 0 .594.043.844.129.25.082.463.215.639.398.179.184.316.422.41.715.094.289.141.643.141 1.061V207h-1.09v-4.166c0-.332-.049-.598-.147-.797a.899.899 0 0 0-.427-.439 1.535 1.535 0 0 0-.692-.141c-.269 0-.516.057-.738.17a1.762 1.762 0 0 0-.569.469 2.36 2.36 0 0 0-.369.685 2.507 2.507 0 0 0-.129.809Zm9.545 2.326v-3.264c0-.25-.05-.466-.152-.65a1 1 0 0 0-.445-.434 1.627 1.627 0 0 0-.739-.152c-.273 0-.513.047-.72.141a1.243 1.243 0 0 0-.481.369.809.809 0 0 0-.17.492h-1.084c0-.227.059-.451.176-.674.117-.223.285-.424.504-.603.223-.184.488-.329.797-.434.312-.109.66-.164 1.043-.164.461 0 .867.078 1.219.234.355.157.632.393.832.709.203.313.304.705.304 1.178v2.953c0 .211.018.436.053.674.039.238.096.443.17.615V207h-1.131a2 2 0 0 1-.129-.498 4.051 4.051 0 0 1-.047-.586Zm.188-2.76.012.762h-1.096c-.309 0-.584.025-.826.076a1.88 1.88 0 0 0-.61.217 1.037 1.037 0 0 0-.375.369.981.981 0 0 0-.129.51c0 .199.045.381.135.545a.98.98 0 0 0 .404.392c.184.094.409.141.674.141.332 0 .625-.07.879-.211s.455-.312.604-.516c.152-.203.234-.4.246-.591l.463.521a1.59 1.59 0 0 1-.223.545 2.633 2.633 0 0 1-1.201 1.025 2.317 2.317 0 0 1-.926.176c-.43 0-.807-.084-1.131-.252a1.933 1.933 0 0 1-.75-.674 1.78 1.78 0 0 1-.263-.955c0-.34.066-.638.199-.896.133-.262.324-.479.574-.651a2.75 2.75 0 0 1 .902-.398c.352-.09.744-.135 1.178-.135h1.26Zm3.779-5.156v9h-1.09v-9h1.09Zm5.432 7.318c0-.156-.035-.3-.106-.433-.066-.137-.205-.26-.416-.369-.207-.114-.519-.211-.937-.293a7.453 7.453 0 0 1-.955-.264 2.914 2.914 0 0 1-.721-.369 1.555 1.555 0 0 1-.451-.51 1.414 1.414 0 0 1-.158-.685c0-.25.054-.487.164-.709.113-.223.271-.42.474-.592.207-.172.455-.307.744-.405a3.03 3.03 0 0 1 .967-.146c.508 0 .942.09 1.301.269.359.18.635.42.826.721.192.297.287.627.287.99h-1.084a.925.925 0 0 0-.158-.509 1.162 1.162 0 0 0-.451-.416c-.195-.11-.436-.164-.721-.164-.301 0-.545.046-.732.14a.93.93 0 0 0-.404.346.863.863 0 0 0-.065.762.708.708 0 0 0 .223.252c.105.074.254.144.445.211.191.066.436.132.732.199.52.117.948.258 1.284.422.336.164.586.365.75.603.164.238.246.527.246.867a1.68 1.68 0 0 1-.674 1.36 2.462 2.462 0 0 1-.774.386c-.296.09-.63.135-1.001.135-.559 0-1.032-.099-1.418-.299-.387-.199-.68-.457-.879-.773-.2-.316-.299-.65-.299-1.002h1.09c.015.297.101.533.257.709.157.172.348.295.575.369.226.07.451.106.674.106.296 0 .544-.039.744-.118.203-.078.357-.185.463-.322a.75.75 0 0 0 .158-.469Zm152.98-13.201c-.441 0-.842-.074-1.201-.222a2.746 2.746 0 0 1-.92-.639 2.85 2.85 0 0 1-.586-.973 3.56 3.56 0 0 1-.205-1.23v-.246c0-.516.076-.975.229-1.377.152-.407.359-.75.621-1.032.261-.281.558-.494.89-.638a2.552 2.552 0 0 1 1.032-.217c.453 0 .843.078 1.171.234.333.157.604.375.815.657.211.277.367.605.469.984.101.375.152.785.152 1.23v.487h-4.734v-.885h3.65v-.082a2.698 2.698 0 0 0-.176-.82 1.476 1.476 0 0 0-.468-.657c-.215-.171-.508-.257-.879-.257a1.47 1.47 0 0 0-1.213.615 2.287 2.287 0 0 0-.346.744 3.775 3.775 0 0 0-.123 1.014v.246c0 .301.041.584.123.849.086.262.209.493.369.692.164.199.361.355.592.468.234.114.5.17.797.17.383 0 .707-.078.972-.234.266-.156.499-.365.698-.627l.656.522a3.053 3.053 0 0 1-.521.591c-.211.188-.471.34-.78.457-.304.118-.666.176-1.084.176Zm4.465-6.457 1.389 2.309 1.406-2.309h1.271l-2.074 3.129 2.139 3.211h-1.254l-1.465-2.379-1.465 2.379h-1.259l2.132-3.211-2.068-3.129h1.248Zm6.305 1.219v7.559h-1.09v-8.778h.996l.094 1.219Zm4.271 1.898v.123c0 .461-.054.889-.164 1.284-.109.39-.269.73-.48 1.019a2.184 2.184 0 0 1-.768.674c-.305.16-.654.24-1.049.24-.402 0-.757-.066-1.066-.199a2.102 2.102 0 0 1-.785-.58 2.969 2.969 0 0 1-.516-.914 5.305 5.305 0 0 1-.258-1.201v-.657c.047-.468.135-.888.264-1.259.129-.371.299-.688.51-.95.215-.265.474-.466.779-.603a2.487 2.487 0 0 1 1.055-.211c.398 0 .752.078 1.06.234.309.153.569.371.78.657.211.285.369.627.474 1.025.11.395.164.834.164 1.318Zm-1.09.123v-.123c0-.316-.033-.613-.099-.89a2.253 2.253 0 0 0-.311-.739 1.475 1.475 0 0 0-.527-.503 1.502 1.502 0 0 0-.768-.188c-.273 0-.511.047-.715.141-.199.093-.369.22-.509.381a1.999 1.999 0 0 0-.346.539c-.086.199-.15.406-.193.621v1.517c.078.274.187.532.328.774.14.238.328.431.562.58.235.144.53.217.885.217.293 0 .545-.061.756-.182.215-.125.391-.295.527-.51.141-.215.244-.461.311-.738.066-.281.099-.58.099-.897Zm2.186 0v-.134c0-.457.066-.881.199-1.272.133-.394.324-.736.574-1.025.25-.293.553-.52.909-.68a2.819 2.819 0 0 1 1.195-.246c.445 0 .846.082 1.201.246.359.16.664.387.914.68.254.289.447.631.58 1.025.133.391.199.815.199 1.272v.134c0 .457-.066.881-.199 1.272-.133.39-.326.732-.58 1.025-.25.289-.553.516-.908.68-.352.16-.75.24-1.195.24-.446 0-.846-.08-1.202-.24a2.724 2.724 0 0 1-.914-.68 3.105 3.105 0 0 1-.574-1.025 3.926 3.926 0 0 1-.199-1.272Zm1.084-.134v.134c0 .317.037.616.111.897.074.277.186.523.334.738.153.215.342.385.569.51.226.121.49.182.791.182.297 0 .556-.061.779-.182.226-.125.414-.295.562-.51.149-.215.26-.461.334-.738a3.3 3.3 0 0 0 .118-.897v-.134c0-.313-.039-.608-.118-.885a2.283 2.283 0 0 0-.339-.744 1.616 1.616 0 0 0-.563-.516 1.577 1.577 0 0 0-.785-.187c-.297 0-.559.062-.785.187-.223.125-.41.297-.563.516-.148.215-.26.463-.334.744a3.417 3.417 0 0 0-.111.885Zm7.131-2.11V192h-1.084v-6.34h1.055l.029.996Zm1.98-1.031-.006 1.008a1.506 1.506 0 0 0-.257-.035 2.692 2.692 0 0 0-.27-.012c-.25 0-.471.039-.662.117a1.373 1.373 0 0 0-.486.328 1.583 1.583 0 0 0-.317.504 2.424 2.424 0 0 0-.146.633l-.305.176c0-.383.037-.742.111-1.078.079-.336.198-.633.358-.891a1.74 1.74 0 0 1 .609-.609 1.708 1.708 0 0 1 1.16-.194.79.79 0 0 1 .211.053Zm3.949.035v.832h-3.427v-.832h3.427Zm-2.267-1.541h1.084v6.311c0 .215.033.377.099.486a.482.482 0 0 0 .258.217c.106.035.219.053.34.053.09 0 .184-.008.281-.024.102-.019.178-.035.229-.047l.006.885a2.514 2.514 0 0 1-.34.076 2.536 2.536 0 0 1-.498.041c-.266 0-.51-.053-.733-.158a1.18 1.18 0 0 1-.533-.527c-.129-.25-.193-.586-.193-1.008v-6.305Zm-28.928 20.199c0-.156-.035-.3-.105-.433-.067-.137-.205-.26-.416-.369-.207-.114-.52-.211-.938-.293a7.498 7.498 0 0 1-.955-.264 2.95 2.95 0 0 1-.721-.369 1.566 1.566 0 0 1-.451-.51 1.426 1.426 0 0 1-.158-.685c0-.25.055-.487.164-.709a1.9 1.9 0 0 1 .475-.592c.207-.172.455-.307.744-.405.289-.097.611-.146.967-.146.507 0 .941.09 1.3.269.36.18.635.42.827.721.191.297.287.627.287.99h-1.084a.933.933 0 0 0-.158-.509 1.165 1.165 0 0 0-.452-.416c-.195-.11-.435-.164-.72-.164-.301 0-.545.046-.733.14a.942.942 0 0 0-.404.346.871.871 0 0 0-.065.762.717.717 0 0 0 .223.252c.106.074.254.144.445.211.192.066.436.132.733.199.519.117.947.258 1.283.422.336.164.586.365.75.603.164.238.246.527.246.867a1.68 1.68 0 0 1-.674 1.36 2.456 2.456 0 0 1-.773.386 3.45 3.45 0 0 1-1.002.135c-.559 0-1.031-.099-1.418-.299-.387-.199-.68-.457-.879-.773a1.85 1.85 0 0 1-.299-1.002h1.09c.016.297.102.533.258.709.156.172.348.295.574.369.227.07.451.106.674.106.297 0 .545-.039.744-.118.203-.078.358-.185.463-.322a.75.75 0 0 0 .158-.469Zm3.686-4.658V206h-1.09v-6.34h1.09Zm-1.172-1.681c0-.176.053-.325.158-.446.109-.121.27-.181.481-.181.207 0 .365.06.474.181a.63.63 0 0 1 .17.446.614.614 0 0 1-.17.433c-.109.117-.267.176-.474.176-.211 0-.372-.059-.481-.176a.64.64 0 0 1-.158-.433Zm7.019 1.681h.985v6.205c0 .559-.114 1.035-.34 1.43a2.218 2.218 0 0 1-.949.896c-.403.207-.868.311-1.395.311-.219 0-.476-.035-.773-.106a3.103 3.103 0 0 1-.867-.345 2.15 2.15 0 0 1-.709-.651l.568-.644c.266.32.543.543.832.668.293.125.582.187.867.187.344 0 .641-.064.891-.193s.443-.32.58-.574c.14-.25.211-.559.211-.926v-4.863l.099-1.395Zm-4.365 3.24v-.123c0-.484.057-.923.17-1.318.117-.398.283-.74.498-1.025.219-.286.483-.504.791-.657a2.28 2.28 0 0 1 1.043-.234c.399 0 .746.07 1.043.211.301.137.555.338.762.603.211.262.377.579.498.95s.205.791.252 1.259v.539a5.521 5.521 0 0 1-.252 1.254 2.963 2.963 0 0 1-.498.95 2.093 2.093 0 0 1-.762.603 2.523 2.523 0 0 1-1.055.205c-.379 0-.722-.08-1.031-.24a2.347 2.347 0 0 1-.785-.674 3.186 3.186 0 0 1-.504-1.019 4.652 4.652 0 0 1-.17-1.284Zm1.084-.123v.123c0 .317.031.614.094.891.066.277.166.521.299.732.136.211.31.377.521.498.211.118.463.176.756.176.359 0 .656-.076.891-.228.234-.153.42-.354.556-.604.141-.25.25-.521.328-.814v-1.412a2.865 2.865 0 0 0-.199-.621 1.89 1.89 0 0 0-.34-.539 1.442 1.442 0 0 0-.509-.381 1.692 1.692 0 0 0-.715-.141c-.297 0-.553.063-.768.188a1.491 1.491 0 0 0-.521.503 2.4 2.4 0 0 0-.299.739 4.01 4.01 0 0 0-.094.89Zm6.996-1.763V206h-1.084v-6.34h1.026l.058 1.354Zm-.258 1.576-.451-.018c.004-.433.069-.834.194-1.201.125-.371.3-.693.527-.967.227-.273.496-.484.809-.633a2.388 2.388 0 0 1 1.048-.228c.313 0 .594.043.844.129.25.082.463.215.639.398.179.184.316.422.41.715.094.289.141.643.141 1.061V206h-1.09v-4.166c0-.332-.049-.598-.147-.797a.899.899 0 0 0-.427-.439 1.535 1.535 0 0 0-.692-.141c-.269 0-.516.057-.738.17a1.762 1.762 0 0 0-.569.469 2.36 2.36 0 0 0-.369.685 2.507 2.507 0 0 0-.129.809Zm9.545 2.326v-3.264c0-.25-.05-.466-.152-.65a1 1 0 0 0-.445-.434 1.627 1.627 0 0 0-.739-.152c-.273 0-.513.047-.72.141a1.243 1.243 0 0 0-.481.369.809.809 0 0 0-.17.492h-1.084c0-.227.059-.451.176-.674.117-.223.285-.424.504-.603.223-.184.488-.329.797-.434.312-.109.66-.164 1.043-.164.461 0 .867.078 1.219.234.355.157.632.393.832.709.203.313.304.705.304 1.178v2.953c0 .211.018.436.053.674.039.238.096.443.17.615V206h-1.131a2 2 0 0 1-.129-.498 4.051 4.051 0 0 1-.047-.586Zm.188-2.76.012.762h-1.096c-.309 0-.584.025-.826.076a1.88 1.88 0 0 0-.61.217 1.037 1.037 0 0 0-.375.369.981.981 0 0 0-.129.51c0 .199.045.381.135.545a.98.98 0 0 0 .404.392c.184.094.409.141.674.141.332 0 .625-.07.879-.211s.455-.312.604-.516c.152-.203.234-.4.246-.591l.463.521a1.59 1.59 0 0 1-.223.545 2.633 2.633 0 0 1-1.201 1.025 2.317 2.317 0 0 1-.926.176c-.43 0-.807-.084-1.131-.252a1.933 1.933 0 0 1-.75-.674 1.78 1.78 0 0 1-.263-.955c0-.34.066-.638.199-.896.133-.262.324-.479.574-.651a2.75 2.75 0 0 1 .902-.398c.352-.09.744-.135 1.178-.135h1.26Zm3.779-5.156v9h-1.09v-9h1.09Zm5.432 7.318c0-.156-.035-.3-.106-.433-.066-.137-.205-.26-.416-.369-.207-.114-.519-.211-.937-.293a7.453 7.453 0 0 1-.955-.264 2.914 2.914 0 0 1-.721-.369 1.555 1.555 0 0 1-.451-.51 1.414 1.414 0 0 1-.158-.685c0-.25.054-.487.164-.709.113-.223.271-.42.474-.592.207-.172.455-.307.744-.405a3.03 3.03 0 0 1 .967-.146c.508 0 .942.09 1.301.269.359.18.635.42.826.721.192.297.287.627.287.99h-1.084a.925.925 0 0 0-.158-.509 1.162 1.162 0 0 0-.451-.416c-.195-.11-.436-.164-.721-.164-.301 0-.545.046-.732.14a.93.93 0 0 0-.404.346.863.863 0 0 0-.065.762.708.708 0 0 0 .223.252c.105.074.254.144.445.211.191.066.436.132.732.199.52.117.948.258 1.284.422.336.164.586.365.75.603.164.238.246.527.246.867a1.68 1.68 0 0 1-.674 1.36 2.462 2.462 0 0 1-.774.386c-.296.09-.63.135-1.001.135-.559 0-1.032-.099-1.418-.299-.387-.199-.68-.457-.879-.773-.2-.316-.299-.65-.299-1.002h1.09c.015.297.101.533.257.709.157.172.348.295.575.369.226.07.451.106.674.106.296 0 .544-.039.744-.118.203-.078.357-.185.463-.322a.75.75 0 0 0 .158-.469ZM432 169l-10-5.774v11.547L432 169Zm-57 1h48v-2h-48v2Zm241-1-10-5.774v11.547L616 169Zm-57 1h48v-2h-48v2Zm-62.293-94.707a1 1 0 0 0-1.414 0l-6.364 6.364a1 1 0 1 0 1.414 1.414L496 77.414l5.657 5.657a1 1 0 1 0 1.414-1.414l-6.364-6.364Zm-1.414 65.414a.999.999 0 0 0 1.414 0l6.364-6.364a.999.999 0 1 0-1.414-1.414L496 138.586l-5.657-5.657a.999.999 0 1 0-1.414 1.414l6.364 6.364ZM495 76v64h2V76h-2Z" fill="#000"/><path fill="#fff" d="M470 104h51v16h-51z"/><path d="M483.684 111.465v.539c0 .641-.08 1.215-.241 1.723-.16.507-.39.939-.691 1.294a3 3 0 0 1-1.084.815 3.407 3.407 0 0 1-1.406.281 3.39 3.39 0 0 1-1.389-.281 3.127 3.127 0 0 1-1.09-.815 3.805 3.805 0 0 1-.709-1.294c-.168-.508-.252-1.082-.252-1.723v-.539c0-.641.082-1.213.246-1.717a3.81 3.81 0 0 1 .709-1.295 3.037 3.037 0 0 1 1.084-.82 3.374 3.374 0 0 1 1.389-.281c.52 0 .988.093 1.406.281a2.97 2.97 0 0 1 1.084.82c.305.356.537.787.698 1.295.164.504.246 1.076.246 1.717Zm-1.12.539v-.551a5.17 5.17 0 0 0-.158-1.348 2.794 2.794 0 0 0-.451-.984 1.932 1.932 0 0 0-.732-.603 2.22 2.22 0 0 0-.973-.206c-.352 0-.67.069-.955.206a2.012 2.012 0 0 0-.727.603 2.974 2.974 0 0 0-.463.984c-.109.391-.164.84-.164 1.348v.551c0 .512.055.965.164 1.359.11.391.266.721.469.991.207.265.451.466.733.603.285.137.603.205.955.205.367 0 .693-.068.978-.205.285-.137.526-.338.721-.603.199-.27.35-.6.451-.991.102-.394.152-.847.152-1.359Zm3.733-1.125v7.559h-1.09v-8.778h.996l.094 1.219Zm4.271 1.898v.123c0 .461-.054.889-.164 1.284-.109.39-.269.73-.48 1.019a2.184 2.184 0 0 1-.768.674 2.22 2.22 0 0 1-1.049.24c-.402 0-.757-.066-1.066-.199a2.102 2.102 0 0 1-.785-.58 2.969 2.969 0 0 1-.516-.914 5.305 5.305 0 0 1-.258-1.201v-.657c.047-.468.135-.888.264-1.259.129-.371.299-.688.51-.95.215-.265.474-.466.779-.603a2.487 2.487 0 0 1 1.055-.211c.398 0 .752.078 1.06.234.309.153.569.371.78.657.211.285.369.627.474 1.025.11.395.164.834.164 1.318Zm-1.089.123v-.123c0-.316-.034-.613-.1-.89a2.253 2.253 0 0 0-.311-.739 1.475 1.475 0 0 0-.527-.503 1.502 1.502 0 0 0-.768-.188c-.273 0-.511.047-.714.141-.2.093-.37.22-.51.381a1.999 1.999 0 0 0-.346.539c-.086.199-.15.406-.193.621v1.517c.078.274.187.532.328.774.141.238.328.431.562.58.235.144.53.217.885.217.293 0 .545-.061.756-.182.215-.125.391-.295.527-.51.141-.215.244-.461.311-.738.066-.281.1-.58.1-.897Zm5.794-4.675L492.449 116h-1.154l3.252-8.531h.744l-.018.756Zm2.368 7.775-2.83-7.775-.018-.756h.744l3.264 8.531h-1.16Zm-.147-3.158v.926h-4.793v-.926h4.793Zm2.807-5.373h1.095l2.795 6.955 2.789-6.955h1.102L504.613 116h-.855l-3.457-8.531Zm-.358 0h.967l.158 5.203V116h-1.125v-8.531Zm7.524 0h.967V116h-1.125v-3.328l.158-5.203Zm6.099 5.185h-2.279v-.92h2.279c.442 0 .799-.07 1.073-.211.273-.14.472-.335.597-.585.129-.25.194-.536.194-.856 0-.293-.065-.568-.194-.826a1.427 1.427 0 0 0-.597-.621c-.274-.16-.631-.24-1.073-.24h-2.015V116h-1.131v-8.531h3.146c.645 0 1.19.111 1.635.334a2.36 2.36 0 0 1 1.014.926c.23.39.346.837.346 1.341 0 .547-.116 1.014-.346 1.401a2.217 2.217 0 0 1-1.014.884c-.445.2-.99.299-1.635.299Z" fill="#000"/></g><g opacity=".2"><g filter="url(#h)" shape-rendering="crispEdges"><ellipse cx="816.5" cy="166.5" rx="63.5" ry="24.5" fill="#000" fill-opacity=".6"/><path d="M879.5 166.5c0 3.194-1.676 6.292-4.827 9.167-3.152 2.875-7.74 5.487-13.452 7.691-11.42 4.406-27.231 7.142-44.721 7.142-17.49 0-33.301-2.736-44.721-7.142-5.712-2.204-10.3-4.816-13.452-7.691-3.151-2.875-4.827-5.973-4.827-9.167s1.676-6.292 4.827-9.167c3.152-2.875 7.74-5.487 13.452-7.691 11.42-4.406 27.231-7.142 44.721-7.142 17.49 0 33.301 2.736 44.721 7.142 5.712 2.204 10.3 4.816 13.452 7.691 3.151 2.875 4.827 5.973 4.827 9.167Z" stroke="#000"/></g><path d="M782.818 166.709v.629c0 .747-.093 1.417-.28 2.01a4.313 4.313 0 0 1-.807 1.51c-.35.415-.772.732-1.264.951a3.98 3.98 0 0 1-1.641.328c-.588 0-1.128-.11-1.62-.328a3.639 3.639 0 0 1-1.271-.951 4.414 4.414 0 0 1-.828-1.51c-.196-.593-.294-1.263-.294-2.01v-.629c0-.747.096-1.415.288-2.003a4.426 4.426 0 0 1 .827-1.511 3.548 3.548 0 0 1 1.264-.957 3.962 3.962 0 0 1 1.62-.328c.607 0 1.153.11 1.641.328.492.219.914.538 1.265.957.355.415.626.919.813 1.511.192.588.287 1.256.287 2.003Zm-1.305.629v-.643c0-.592-.062-1.116-.185-1.572a3.255 3.255 0 0 0-.526-1.148 2.265 2.265 0 0 0-.855-.704 2.585 2.585 0 0 0-1.135-.24c-.41 0-.781.08-1.114.24-.328.159-.61.394-.847.704-.233.31-.413.692-.54 1.148-.128.456-.192.98-.192 1.572v.643c0 .597.064 1.126.192 1.586.127.456.309.841.546 1.155.242.31.527.545.855.704.333.16.704.239 1.114.239.429 0 .809-.079 1.142-.239a2.23 2.23 0 0 0 .841-.704c.232-.314.407-.699.526-1.155a6.41 6.41 0 0 0 .178-1.586Zm6.767-5.291V172h-1.299v-9.953h1.299Zm3.199 0v1.08h-7.69v-1.08h7.69Zm3.671 10.09c-.515 0-.982-.087-1.401-.26a3.179 3.179 0 0 1-1.073-.745 3.323 3.323 0 0 1-.684-1.135 4.17 4.17 0 0 1-.239-1.435v-.288c0-.601.089-1.137.267-1.606.177-.474.419-.875.724-1.203a3.097 3.097 0 0 1 1.039-.745 2.982 2.982 0 0 1 1.203-.253c.529 0 .985.091 1.368.273.387.183.704.438.95.766.246.323.428.706.547 1.148.118.438.177.916.177 1.436v.567h-5.523v-1.032h4.259v-.096a3.194 3.194 0 0 0-.205-.957 1.721 1.721 0 0 0-.547-.765c-.251-.201-.593-.301-1.026-.301a1.723 1.723 0 0 0-1.415.718 2.692 2.692 0 0 0-.403.868 4.387 4.387 0 0 0-.144 1.182v.288c0 .35.048.681.144.991.1.305.244.574.431.806.191.233.421.415.69.547.273.132.583.198.93.198.446 0 .825-.091 1.135-.273.309-.182.581-.426.813-.731l.766.608c-.16.242-.363.472-.609.69a2.904 2.904 0 0 1-.909.534c-.355.136-.777.205-1.265.205Zm5.729-10.637V172h-1.272v-10.5h1.272Zm8.463 9.598c.301 0 .579-.062.834-.185s.465-.292.629-.506a1.41 1.41 0 0 0 .28-.745h1.203a2.262 2.262 0 0 1-.444 1.224 3.044 3.044 0 0 1-2.502 1.251c-.556 0-1.042-.098-1.456-.294a2.894 2.894 0 0 1-1.026-.807 3.61 3.61 0 0 1-.608-1.176 4.963 4.963 0 0 1-.198-1.415v-.287c0-.497.066-.966.198-1.408.137-.447.339-.841.608-1.183.274-.341.616-.61 1.026-.806.414-.196.9-.294 1.456-.294.579 0 1.084.118 1.517.355.433.233.773.552 1.019.957.251.401.387.857.41 1.367h-1.203a1.818 1.818 0 0 0-.26-.827 1.687 1.687 0 0 0-1.483-.813c-.388 0-.713.077-.978.232-.26.151-.467.356-.622.616-.15.255-.26.54-.328.854-.064.31-.096.627-.096.95v.287c0 .324.032.643.096.957.064.315.171.6.321.855.155.255.363.46.622.615.265.15.593.226.985.226Zm4.033-2.714v-.157c0-.534.077-1.028.232-1.484.155-.46.379-.859.67-1.196a2.99 2.99 0 0 1 1.06-.793 3.279 3.279 0 0 1 1.394-.287 3.3 3.3 0 0 1 1.402.287c.419.187.775.451 1.066.793.296.337.522.736.677 1.196.155.456.232.95.232 1.484v.157c0 .533-.077 1.027-.232 1.483a3.543 3.543 0 0 1-.677 1.196 3.084 3.084 0 0 1-1.059.793 3.33 3.33 0 0 1-1.395.281 3.37 3.37 0 0 1-1.401-.281 3.163 3.163 0 0 1-1.067-.793 3.614 3.614 0 0 1-.67-1.196 4.579 4.579 0 0 1-.232-1.483Zm1.265-.157v.157c0 .369.043.718.13 1.046.086.323.216.61.389.861.178.251.399.449.663.595.265.141.572.212.923.212.346 0 .65-.071.909-.212.265-.146.483-.344.657-.595a2.75 2.75 0 0 0 .389-.861c.091-.328.137-.677.137-1.046v-.157c0-.365-.046-.709-.137-1.033a2.664 2.664 0 0 0-.396-.868 1.872 1.872 0 0 0-.657-.601 1.837 1.837 0 0 0-.916-.219c-.346 0-.651.073-.916.219a1.968 1.968 0 0 0-.656.601c-.173.251-.303.54-.389.868-.087.324-.13.668-.13 1.033Zm8.428-6.727V172h-1.271v-10.5h1.271Zm3.405 0V172h-1.272v-10.5h1.272Zm5.099 10.637c-.515 0-.982-.087-1.401-.26a3.17 3.17 0 0 1-1.073-.745 3.307 3.307 0 0 1-.684-1.135 4.17 4.17 0 0 1-.239-1.435v-.288c0-.601.089-1.137.266-1.606.178-.474.42-.875.725-1.203a3.097 3.097 0 0 1 1.039-.745 2.975 2.975 0 0 1 1.203-.253c.529 0 .985.091 1.367.273.388.183.704.438.951.766.246.323.428.706.546 1.148.119.438.178.916.178 1.436v.567h-5.523v-1.032h4.259v-.096a3.165 3.165 0 0 0-.206-.957 1.711 1.711 0 0 0-.546-.765c-.251-.201-.593-.301-1.026-.301a1.723 1.723 0 0 0-1.415.718 2.692 2.692 0 0 0-.403.868 4.387 4.387 0 0 0-.144 1.182v.288c0 .35.048.681.144.991.1.305.244.574.431.806.191.233.421.415.69.547.273.132.583.198.93.198.446 0 .824-.091 1.134-.273.31-.182.581-.426.814-.731l.765.608a3.486 3.486 0 0 1-.608.69 2.904 2.904 0 0 1-.909.534c-.356.136-.777.205-1.265.205Zm7.315-1.039c.301 0 .578-.062.834-.185.255-.123.465-.292.629-.506a1.41 1.41 0 0 0 .28-.745h1.203a2.262 2.262 0 0 1-.444 1.224 3.044 3.044 0 0 1-2.502 1.251c-.556 0-1.042-.098-1.456-.294a2.894 2.894 0 0 1-1.026-.807 3.61 3.61 0 0 1-.608-1.176 4.963 4.963 0 0 1-.198-1.415v-.287c0-.497.066-.966.198-1.408.137-.447.339-.841.608-1.183.274-.341.616-.61 1.026-.806.414-.196.9-.294 1.456-.294.578 0 1.084.118 1.517.355.433.233.773.552 1.019.957.251.401.387.857.41 1.367h-1.203a1.818 1.818 0 0 0-.26-.827 1.687 1.687 0 0 0-1.483-.813c-.388 0-.713.077-.978.232-.26.151-.467.356-.622.616-.15.255-.26.54-.328.854-.064.31-.096.627-.096.95v.287c0 .324.032.643.096.957.064.315.171.6.321.855.155.255.363.46.622.615.265.15.593.226.985.226Zm7.465-6.494v.97h-3.999v-.97h3.999Zm-2.646-1.798h1.265v7.362c0 .251.038.44.116.567a.553.553 0 0 0 .301.253c.123.041.255.062.396.062.105 0 .214-.009.328-.028.119-.022.208-.041.267-.054l.007 1.032a2.924 2.924 0 0 1-.397.089 3 3 0 0 1-.581.048c-.31 0-.595-.062-.854-.185a1.373 1.373 0 0 1-.622-.615c-.151-.292-.226-.684-.226-1.176v-7.355Zm3.657 5.578v-.157c0-.534.078-1.028.233-1.484a3.52 3.52 0 0 1 .67-1.196 2.978 2.978 0 0 1 1.059-.793c.415-.192.88-.287 1.395-.287.519 0 .986.095 1.401.287a2.98 2.98 0 0 1 1.067.793c.296.337.521.736.676 1.196.155.456.233.95.233 1.484v.157c0 .533-.078 1.027-.233 1.483a3.54 3.54 0 0 1-.676 1.196 3.088 3.088 0 0 1-1.06.793c-.41.187-.875.281-1.395.281-.519 0-.986-.094-1.401-.281a3.15 3.15 0 0 1-1.066-.793 3.597 3.597 0 0 1-.67-1.196 4.579 4.579 0 0 1-.233-1.483Zm1.265-.157v.157c0 .369.043.718.13 1.046.086.323.216.61.389.861.178.251.399.449.664.595.264.141.571.212.922.212.347 0 .65-.071.91-.212.264-.146.483-.344.656-.595a2.75 2.75 0 0 0 .389-.861c.092-.328.137-.677.137-1.046v-.157c0-.365-.045-.709-.137-1.033a2.643 2.643 0 0 0-.396-.868 1.877 1.877 0 0 0-.656-.601 1.84 1.84 0 0 0-.916-.219 1.86 1.86 0 0 0-.916.219c-.26.145-.479.346-.657.601-.173.251-.303.54-.389.868-.087.324-.13.668-.13 1.033Zm8.319-2.461V172h-1.264v-7.396h1.23l.034 1.162Zm2.311-1.204-.007 1.176a1.852 1.852 0 0 0-.301-.041 3.245 3.245 0 0 0-.314-.013 2.04 2.04 0 0 0-.773.136 1.602 1.602 0 0 0-.567.383c-.155.164-.278.36-.369.588a2.79 2.79 0 0 0-.171.738l-.356.205c0-.446.044-.866.13-1.257.091-.392.23-.739.417-1.039.187-.306.424-.543.711-.711.292-.174.638-.26 1.039-.26.091 0 .196.011.315.034.118.018.2.039.246.061Z" fill="#F3F3F3"/><path d="M704.426 185.656V191h-1.084v-6.34h1.054l.03.996Zm1.98-1.031-.006 1.008a1.506 1.506 0 0 0-.257-.035 2.692 2.692 0 0 0-.27-.012c-.25 0-.471.039-.662.117a1.373 1.373 0 0 0-.486.328 1.583 1.583 0 0 0-.317.504 2.424 2.424 0 0 0-.146.633l-.305.176c0-.383.037-.742.111-1.078a2.94 2.94 0 0 1 .358-.891 1.74 1.74 0 0 1 .609-.609 1.708 1.708 0 0 1 1.16-.194.79.79 0 0 1 .211.053Zm3.516 6.492c-.442 0-.842-.074-1.201-.222a2.736 2.736 0 0 1-.92-.639 2.85 2.85 0 0 1-.586-.973 3.56 3.56 0 0 1-.205-1.23v-.246c0-.516.076-.975.228-1.377.153-.407.36-.75.621-1.032a2.66 2.66 0 0 1 .891-.638 2.55 2.55 0 0 1 1.031-.217c.453 0 .844.078 1.172.234.332.157.604.375.815.657.211.277.367.605.468.984.102.375.153.785.153 1.23v.487h-4.735v-.885h3.651v-.082a2.728 2.728 0 0 0-.176-.82 1.478 1.478 0 0 0-.469-.657c-.215-.171-.508-.257-.879-.257a1.466 1.466 0 0 0-1.213.615 2.307 2.307 0 0 0-.345.744 3.775 3.775 0 0 0-.123 1.014v.246c0 .301.041.584.123.849.086.262.209.493.369.692.164.199.361.355.592.468.234.114.5.17.796.17.383 0 .708-.078.973-.234.266-.156.498-.365.697-.627l.657.522a3.026 3.026 0 0 1-.522.591c-.211.188-.471.34-.779.457-.305.118-.666.176-1.084.176Zm6.269-.89c.258 0 .497-.053.715-.159.219-.105.399-.25.539-.433.141-.188.221-.401.241-.639h1.031a1.94 1.94 0 0 1-.381 1.049 2.605 2.605 0 0 1-2.145 1.072c-.476 0-.892-.084-1.248-.252a2.483 2.483 0 0 1-.879-.691 3.094 3.094 0 0 1-.521-1.008 4.264 4.264 0 0 1-.17-1.213v-.246c0-.426.057-.828.17-1.207.117-.383.291-.721.521-1.014.235-.293.528-.523.879-.691.356-.168.772-.252 1.248-.252.497 0 .93.102 1.301.305.371.199.662.472.873.82.215.344.332.734.352 1.172h-1.031a1.566 1.566 0 0 0-.223-.709 1.387 1.387 0 0 0-.516-.504 1.441 1.441 0 0 0-.756-.193c-.332 0-.611.066-.837.199a1.474 1.474 0 0 0-.534.527 2.471 2.471 0 0 0-.281.733 4 4 0 0 0-.082.814v.246c0 .277.027.551.082.82.055.27.147.514.275.733.133.219.311.394.534.527.226.129.507.194.843.194Zm6.375.89a3.13 3.13 0 0 1-1.201-.222 2.746 2.746 0 0 1-.92-.639 2.85 2.85 0 0 1-.586-.973 3.583 3.583 0 0 1-.205-1.23v-.246c0-.516.076-.975.229-1.377.152-.407.359-.75.621-1.032a2.65 2.65 0 0 1 .891-.638 2.547 2.547 0 0 1 1.031-.217c.453 0 .844.078 1.172.234.332.157.603.375.814.657.211.277.367.605.469.984.101.375.152.785.152 1.23v.487h-4.734v-.885h3.65v-.082a2.668 2.668 0 0 0-.176-.82 1.468 1.468 0 0 0-.468-.657c-.215-.171-.508-.257-.879-.257a1.47 1.47 0 0 0-1.213.615 2.287 2.287 0 0 0-.346.744 3.775 3.775 0 0 0-.123 1.014v.246c0 .301.041.584.123.849.086.262.209.493.369.692.164.199.362.355.592.468.234.114.5.17.797.17.383 0 .707-.078.973-.234.265-.156.498-.365.697-.627l.656.522a3.02 3.02 0 0 1-.521.591c-.211.188-.471.34-.78.457-.304.118-.666.176-1.084.176Zm4.911-6.457V191h-1.09v-6.34h1.09Zm-1.172-1.681c0-.176.052-.325.158-.446.109-.121.269-.181.48-.181.207 0 .366.06.475.181a.63.63 0 0 1 .17.446.614.614 0 0 1-.17.433c-.109.117-.268.176-.475.176-.211 0-.371-.059-.48-.176a.636.636 0 0 1-.158-.433Zm4.84 7.042 1.734-5.361h1.107l-2.279 6.34h-.727l.165-.979Zm-1.448-5.361 1.787 5.391.123.949h-.726l-2.297-6.34h1.113Zm7.881 6.457c-.441 0-.842-.074-1.201-.222a2.736 2.736 0 0 1-.92-.639 2.85 2.85 0 0 1-.586-.973 3.56 3.56 0 0 1-.205-1.23v-.246c0-.516.076-.975.229-1.377.152-.407.359-.75.621-1.032.261-.281.558-.494.89-.638a2.552 2.552 0 0 1 1.032-.217c.453 0 .843.078 1.171.234.332.157.604.375.815.657.211.277.367.605.469.984.101.375.152.785.152 1.23v.487h-4.734v-.885h3.65v-.082a2.698 2.698 0 0 0-.176-.82 1.47 1.47 0 0 0-.469-.657c-.214-.171-.507-.257-.878-.257a1.467 1.467 0 0 0-1.213.615 2.287 2.287 0 0 0-.346.744 3.775 3.775 0 0 0-.123 1.014v.246c0 .301.041.584.123.849.086.262.209.493.369.692.164.199.361.355.592.468.234.114.5.17.797.17.383 0 .707-.078.972-.234.266-.156.498-.365.698-.627l.656.522a3.026 3.026 0 0 1-.522.591 2.47 2.47 0 0 1-.779.457c-.305.118-.666.176-1.084.176Zm-30.627 12.201c0-.156-.035-.3-.105-.433-.067-.137-.205-.26-.416-.369-.207-.114-.52-.211-.938-.293a7.498 7.498 0 0 1-.955-.264 2.95 2.95 0 0 1-.721-.369 1.566 1.566 0 0 1-.451-.51 1.426 1.426 0 0 1-.158-.685c0-.25.055-.487.164-.709a1.9 1.9 0 0 1 .475-.592c.207-.172.455-.307.744-.405.289-.097.611-.146.967-.146.507 0 .941.09 1.3.269.36.18.635.42.827.721.191.297.287.627.287.99h-1.084a.933.933 0 0 0-.158-.509 1.165 1.165 0 0 0-.452-.416c-.195-.11-.435-.164-.72-.164-.301 0-.545.046-.733.14a.942.942 0 0 0-.404.346.871.871 0 0 0-.065.762.717.717 0 0 0 .223.252c.106.074.254.144.445.211.192.066.436.132.733.199.519.117.947.258 1.283.422.336.164.586.365.75.603.164.238.246.527.246.867a1.68 1.68 0 0 1-.674 1.36 2.456 2.456 0 0 1-.773.386 3.45 3.45 0 0 1-1.002.135c-.559 0-1.031-.099-1.418-.299-.387-.199-.68-.457-.879-.773a1.85 1.85 0 0 1-.299-1.002h1.09c.016.297.102.533.258.709.156.172.348.295.574.369.227.07.451.106.674.106.297 0 .545-.039.744-.118.203-.078.358-.185.463-.322a.75.75 0 0 0 .158-.469Zm3.686-4.658V205h-1.09v-6.34h1.09Zm-1.172-1.681c0-.176.053-.325.158-.446.109-.121.27-.181.481-.181.207 0 .365.06.474.181a.63.63 0 0 1 .17.446.614.614 0 0 1-.17.433c-.109.117-.267.176-.474.176-.211 0-.372-.059-.481-.176a.64.64 0 0 1-.158-.433Zm7.019 1.681h.985v6.205c0 .559-.114 1.035-.34 1.43a2.218 2.218 0 0 1-.949.896c-.403.207-.868.311-1.395.311-.219 0-.476-.035-.773-.106a3.103 3.103 0 0 1-.867-.345 2.15 2.15 0 0 1-.709-.651l.568-.644c.266.32.543.543.832.668.293.125.582.187.867.187.344 0 .641-.064.891-.193s.443-.32.58-.574c.14-.25.211-.559.211-.926v-4.863l.099-1.395Zm-4.365 3.24v-.123c0-.484.057-.923.17-1.318.117-.398.283-.74.498-1.025.219-.286.483-.504.791-.657a2.28 2.28 0 0 1 1.043-.234c.399 0 .746.07 1.043.211.301.137.555.338.762.603.211.262.377.579.498.95s.205.791.252 1.259v.539a5.521 5.521 0 0 1-.252 1.254 2.963 2.963 0 0 1-.498.95 2.093 2.093 0 0 1-.762.603 2.523 2.523 0 0 1-1.055.205c-.379 0-.722-.08-1.031-.24a2.347 2.347 0 0 1-.785-.674 3.186 3.186 0 0 1-.504-1.019 4.652 4.652 0 0 1-.17-1.284Zm1.084-.123v.123c0 .317.031.614.094.891.066.277.166.521.299.732.136.211.31.377.521.498.211.118.463.176.756.176.359 0 .656-.076.891-.228.234-.153.42-.354.556-.604.141-.25.25-.521.328-.814v-1.412a2.865 2.865 0 0 0-.199-.621 1.89 1.89 0 0 0-.34-.539 1.442 1.442 0 0 0-.509-.381 1.692 1.692 0 0 0-.715-.141c-.297 0-.553.063-.768.188a1.491 1.491 0 0 0-.521.503 2.4 2.4 0 0 0-.299.739 4.01 4.01 0 0 0-.094.89Zm6.996-1.763V205h-1.084v-6.34h1.026l.058 1.354Zm-.258 1.576-.451-.018c.004-.433.069-.834.194-1.201.125-.371.3-.693.527-.967.227-.273.496-.484.809-.633a2.388 2.388 0 0 1 1.048-.228c.313 0 .594.043.844.129.25.082.463.215.639.398.179.184.316.422.41.715.094.289.141.643.141 1.061V205h-1.09v-4.166c0-.332-.049-.598-.147-.797a.899.899 0 0 0-.427-.439 1.535 1.535 0 0 0-.692-.141c-.269 0-.516.057-.738.17a1.762 1.762 0 0 0-.569.469 2.36 2.36 0 0 0-.369.685 2.507 2.507 0 0 0-.129.809Zm9.545 2.326v-3.264c0-.25-.05-.466-.152-.65a1 1 0 0 0-.445-.434 1.627 1.627 0 0 0-.739-.152c-.273 0-.513.047-.72.141a1.243 1.243 0 0 0-.481.369.809.809 0 0 0-.17.492h-1.084c0-.227.059-.451.176-.674.117-.223.285-.424.504-.603.223-.184.488-.329.797-.434.312-.109.66-.164 1.043-.164.461 0 .867.078 1.219.234.355.157.632.393.832.709.203.313.304.705.304 1.178v2.953c0 .211.018.436.053.674.039.238.096.443.17.615V205h-1.131a2 2 0 0 1-.129-.498 4.051 4.051 0 0 1-.047-.586Zm.188-2.76.012.762h-1.096c-.309 0-.584.025-.826.076a1.88 1.88 0 0 0-.61.217 1.037 1.037 0 0 0-.375.369.981.981 0 0 0-.129.51c0 .199.045.381.135.545a.98.98 0 0 0 .404.392c.184.094.409.141.674.141.332 0 .625-.07.879-.211s.455-.312.604-.516c.152-.203.234-.4.246-.591l.463.521a1.59 1.59 0 0 1-.223.545 2.633 2.633 0 0 1-1.201 1.025 2.317 2.317 0 0 1-.926.176c-.43 0-.807-.084-1.131-.252a1.933 1.933 0 0 1-.75-.674 1.78 1.78 0 0 1-.263-.955c0-.34.066-.638.199-.896.133-.262.324-.479.574-.651a2.75 2.75 0 0 1 .902-.398c.352-.09.744-.135 1.178-.135h1.26Zm3.779-5.156v9h-1.09v-9h1.09Zm5.432 7.318c0-.156-.035-.3-.106-.433-.066-.137-.205-.26-.416-.369-.207-.114-.519-.211-.937-.293a7.453 7.453 0 0 1-.955-.264 2.914 2.914 0 0 1-.721-.369 1.555 1.555 0 0 1-.451-.51 1.414 1.414 0 0 1-.158-.685c0-.25.054-.487.164-.709.113-.223.271-.42.474-.592.207-.172.455-.307.744-.405a3.03 3.03 0 0 1 .967-.146c.508 0 .942.09 1.301.269.359.18.635.42.826.721.192.297.287.627.287.99h-1.084a.925.925 0 0 0-.158-.509 1.162 1.162 0 0 0-.451-.416c-.195-.11-.436-.164-.721-.164-.301 0-.545.046-.732.14a.93.93 0 0 0-.404.346.863.863 0 0 0-.065.762.708.708 0 0 0 .223.252c.105.074.254.144.445.211.191.066.436.132.732.199.52.117.948.258 1.284.422.336.164.586.365.75.603.164.238.246.527.246.867a1.68 1.68 0 0 1-.674 1.36 2.462 2.462 0 0 1-.774.386c-.296.09-.63.135-1.001.135-.559 0-1.032-.099-1.418-.299-.387-.199-.68-.457-.879-.773-.2-.316-.299-.65-.299-1.002h1.09c.015.297.101.533.257.709.157.172.348.295.575.369.226.07.451.106.674.106.296 0 .544-.039.744-.118.203-.078.357-.185.463-.322a.75.75 0 0 0 .158-.469Zm152.98-13.201c-.441 0-.842-.074-1.201-.222a2.746 2.746 0 0 1-.92-.639 2.85 2.85 0 0 1-.586-.973 3.56 3.56 0 0 1-.205-1.23v-.246c0-.516.076-.975.229-1.377.152-.407.359-.75.621-1.032.261-.281.558-.494.89-.638a2.552 2.552 0 0 1 1.032-.217c.453 0 .843.078 1.171.234.333.157.604.375.815.657.211.277.367.605.469.984.101.375.152.785.152 1.23v.487h-4.734v-.885h3.65v-.082a2.698 2.698 0 0 0-.176-.82 1.476 1.476 0 0 0-.468-.657c-.215-.171-.508-.257-.879-.257a1.47 1.47 0 0 0-1.213.615 2.287 2.287 0 0 0-.346.744 3.775 3.775 0 0 0-.123 1.014v.246c0 .301.041.584.123.849.086.262.209.493.369.692.164.199.361.355.592.468.234.114.5.17.797.17.383 0 .707-.078.972-.234.266-.156.499-.365.698-.627l.656.522a3.053 3.053 0 0 1-.521.591c-.211.188-.471.34-.78.457-.304.118-.666.176-1.084.176Zm4.465-6.457 1.389 2.309 1.406-2.309h1.271l-2.074 3.129 2.139 3.211h-1.254l-1.465-2.379-1.465 2.379h-1.259l2.132-3.211-2.068-3.129h1.248Zm6.305 1.219v7.559h-1.09v-8.778h.996l.094 1.219Zm4.271 1.898v.123c0 .461-.054.889-.164 1.284-.109.39-.269.73-.48 1.019a2.184 2.184 0 0 1-.768.674c-.305.16-.654.24-1.049.24-.402 0-.757-.066-1.066-.199a2.102 2.102 0 0 1-.785-.58 2.969 2.969 0 0 1-.516-.914 5.305 5.305 0 0 1-.258-1.201v-.657c.047-.468.135-.888.264-1.259.129-.371.299-.688.51-.95.215-.265.474-.466.779-.603a2.487 2.487 0 0 1 1.055-.211c.398 0 .752.078 1.06.234.309.153.569.371.78.657.211.285.369.627.474 1.025.11.395.164.834.164 1.318Zm-1.09.123v-.123c0-.316-.033-.613-.099-.89a2.253 2.253 0 0 0-.311-.739 1.475 1.475 0 0 0-.527-.503 1.502 1.502 0 0 0-.768-.188c-.273 0-.511.047-.715.141-.199.093-.369.22-.509.381a1.999 1.999 0 0 0-.346.539c-.086.199-.15.406-.193.621v1.517c.078.274.187.532.328.774.14.238.328.431.562.58.235.144.53.217.885.217.293 0 .545-.061.756-.182.215-.125.391-.295.527-.51.141-.215.244-.461.311-.738.066-.281.099-.58.099-.897Zm2.186 0v-.134c0-.457.066-.881.199-1.272.133-.394.324-.736.574-1.025.25-.293.553-.52.909-.68a2.819 2.819 0 0 1 1.195-.246c.445 0 .846.082 1.201.246.359.16.664.387.914.68.254.289.447.631.58 1.025.133.391.199.815.199 1.272v.134c0 .457-.066.881-.199 1.272-.133.39-.326.732-.58 1.025-.25.289-.553.516-.908.68-.352.16-.75.24-1.195.24-.446 0-.846-.08-1.202-.24a2.724 2.724 0 0 1-.914-.68 3.105 3.105 0 0 1-.574-1.025 3.926 3.926 0 0 1-.199-1.272Zm1.084-.134v.134c0 .317.037.616.111.897.074.277.186.523.334.738.153.215.342.385.569.51.226.121.49.182.791.182.297 0 .556-.061.779-.182.226-.125.414-.295.562-.51.149-.215.26-.461.334-.738a3.3 3.3 0 0 0 .118-.897v-.134c0-.313-.039-.608-.118-.885a2.283 2.283 0 0 0-.339-.744 1.616 1.616 0 0 0-.563-.516 1.577 1.577 0 0 0-.785-.187c-.297 0-.559.062-.785.187-.223.125-.41.297-.563.516-.148.215-.26.463-.334.744a3.417 3.417 0 0 0-.111.885Zm7.131-2.11V190h-1.084v-6.34h1.055l.029.996Zm1.98-1.031-.006 1.008a1.506 1.506 0 0 0-.257-.035 2.692 2.692 0 0 0-.27-.012c-.25 0-.471.039-.662.117a1.373 1.373 0 0 0-.486.328 1.583 1.583 0 0 0-.317.504 2.424 2.424 0 0 0-.146.633l-.305.176c0-.383.037-.742.111-1.078.079-.336.198-.633.358-.891a1.74 1.74 0 0 1 .609-.609 1.708 1.708 0 0 1 1.16-.194.79.79 0 0 1 .211.053Zm3.949.035v.832h-3.427v-.832h3.427Zm-2.267-1.541h1.084v6.311c0 .215.033.377.099.486a.482.482 0 0 0 .258.217c.106.035.219.053.34.053.09 0 .184-.008.281-.024.102-.019.178-.035.229-.047l.006.885a2.514 2.514 0 0 1-.34.076 2.536 2.536 0 0 1-.498.041c-.266 0-.51-.053-.733-.158a1.18 1.18 0 0 1-.533-.527c-.129-.25-.193-.586-.193-1.008v-6.305Zm-28.928 20.199c0-.156-.035-.3-.105-.433-.067-.137-.205-.26-.416-.369-.207-.114-.52-.211-.938-.293a7.498 7.498 0 0 1-.955-.264 2.95 2.95 0 0 1-.721-.369 1.566 1.566 0 0 1-.451-.51 1.426 1.426 0 0 1-.158-.685c0-.25.055-.487.164-.709a1.9 1.9 0 0 1 .475-.592c.207-.172.455-.307.744-.405.289-.097.611-.146.967-.146.507 0 .941.09 1.3.269.36.18.635.42.827.721.191.297.287.627.287.99h-1.084a.933.933 0 0 0-.158-.509 1.165 1.165 0 0 0-.452-.416c-.195-.11-.435-.164-.72-.164-.301 0-.545.046-.733.14a.942.942 0 0 0-.404.346.871.871 0 0 0-.065.762.717.717 0 0 0 .223.252c.106.074.254.144.445.211.192.066.436.132.733.199.519.117.947.258 1.283.422.336.164.586.365.75.603.164.238.246.527.246.867a1.68 1.68 0 0 1-.674 1.36 2.456 2.456 0 0 1-.773.386 3.45 3.45 0 0 1-1.002.135c-.559 0-1.031-.099-1.418-.299-.387-.199-.68-.457-.879-.773a1.85 1.85 0 0 1-.299-1.002h1.09c.016.297.102.533.258.709.156.172.348.295.574.369.227.07.451.106.674.106.297 0 .545-.039.744-.118.203-.078.358-.185.463-.322a.75.75 0 0 0 .158-.469Zm3.686-4.658V204h-1.09v-6.34h1.09Zm-1.172-1.681c0-.176.053-.325.158-.446.109-.121.27-.181.481-.181.207 0 .365.06.474.181a.63.63 0 0 1 .17.446.614.614 0 0 1-.17.433c-.109.117-.267.176-.474.176-.211 0-.372-.059-.481-.176a.64.64 0 0 1-.158-.433Zm7.019 1.681h.985v6.205c0 .559-.114 1.035-.34 1.43a2.218 2.218 0 0 1-.949.896c-.403.207-.868.311-1.395.311-.219 0-.476-.035-.773-.106a3.103 3.103 0 0 1-.867-.345 2.15 2.15 0 0 1-.709-.651l.568-.644c.266.32.543.543.832.668.293.125.582.187.867.187.344 0 .641-.064.891-.193s.443-.32.58-.574c.14-.25.211-.559.211-.926v-4.863l.099-1.395Zm-4.365 3.24v-.123c0-.484.057-.923.17-1.318.117-.398.283-.74.498-1.025.219-.286.483-.504.791-.657a2.28 2.28 0 0 1 1.043-.234c.399 0 .746.07 1.043.211.301.137.555.338.762.603.211.262.377.579.498.95s.205.791.252 1.259v.539a5.521 5.521 0 0 1-.252 1.254 2.963 2.963 0 0 1-.498.95 2.093 2.093 0 0 1-.762.603 2.523 2.523 0 0 1-1.055.205c-.379 0-.722-.08-1.031-.24a2.347 2.347 0 0 1-.785-.674 3.186 3.186 0 0 1-.504-1.019 4.652 4.652 0 0 1-.17-1.284Zm1.084-.123v.123c0 .317.031.614.094.891.066.277.166.521.299.732.136.211.31.377.521.498.211.118.463.176.756.176.359 0 .656-.076.891-.228.234-.153.42-.354.556-.604.141-.25.25-.521.328-.814v-1.412a2.865 2.865 0 0 0-.199-.621 1.89 1.89 0 0 0-.34-.539 1.442 1.442 0 0 0-.509-.381 1.692 1.692 0 0 0-.715-.141c-.297 0-.553.063-.768.188a1.491 1.491 0 0 0-.521.503 2.4 2.4 0 0 0-.299.739 4.01 4.01 0 0 0-.094.89Zm6.996-1.763V204h-1.084v-6.34h1.026l.058 1.354Zm-.258 1.576-.451-.018c.004-.433.069-.834.194-1.201.125-.371.3-.693.527-.967.227-.273.496-.484.809-.633a2.388 2.388 0 0 1 1.048-.228c.313 0 .594.043.844.129.25.082.463.215.639.398.179.184.316.422.41.715.094.289.141.643.141 1.061V204h-1.09v-4.166c0-.332-.049-.598-.147-.797a.899.899 0 0 0-.427-.439 1.535 1.535 0 0 0-.692-.141c-.269 0-.516.057-.738.17a1.762 1.762 0 0 0-.569.469 2.36 2.36 0 0 0-.369.685 2.507 2.507 0 0 0-.129.809Zm9.545 2.326v-3.264c0-.25-.05-.466-.152-.65a1 1 0 0 0-.445-.434 1.627 1.627 0 0 0-.739-.152c-.273 0-.513.047-.72.141a1.243 1.243 0 0 0-.481.369.809.809 0 0 0-.17.492h-1.084c0-.227.059-.451.176-.674.117-.223.285-.424.504-.603.223-.184.488-.329.797-.434.312-.109.66-.164 1.043-.164.461 0 .867.078 1.219.234.355.157.632.393.832.709.203.313.304.705.304 1.178v2.953c0 .211.018.436.053.674.039.238.096.443.17.615V204h-1.131a2 2 0 0 1-.129-.498 4.051 4.051 0 0 1-.047-.586Zm.188-2.76.012.762h-1.096c-.309 0-.584.025-.826.076a1.88 1.88 0 0 0-.61.217 1.037 1.037 0 0 0-.375.369.981.981 0 0 0-.129.51c0 .199.045.381.135.545a.98.98 0 0 0 .404.392c.184.094.409.141.674.141.332 0 .625-.07.879-.211s.455-.312.604-.516c.152-.203.234-.4.246-.591l.463.521a1.59 1.59 0 0 1-.223.545 2.633 2.633 0 0 1-1.201 1.025 2.317 2.317 0 0 1-.926.176c-.43 0-.807-.084-1.131-.252a1.933 1.933 0 0 1-.75-.674 1.78 1.78 0 0 1-.263-.955c0-.34.066-.638.199-.896.133-.262.324-.479.574-.651a2.75 2.75 0 0 1 .902-.398c.352-.09.744-.135 1.178-.135h1.26Zm3.779-5.156v9h-1.09v-9h1.09Zm5.432 7.318c0-.156-.035-.3-.106-.433-.066-.137-.205-.26-.416-.369-.207-.114-.519-.211-.937-.293a7.453 7.453 0 0 1-.955-.264 2.914 2.914 0 0 1-.721-.369 1.555 1.555 0 0 1-.451-.51 1.414 1.414 0 0 1-.158-.685c0-.25.054-.487.164-.709.113-.223.271-.42.474-.592.207-.172.455-.307.744-.405a3.03 3.03 0 0 1 .967-.146c.508 0 .942.09 1.301.269.359.18.635.42.826.721.192.297.287.627.287.99h-1.084a.925.925 0 0 0-.158-.509 1.162 1.162 0 0 0-.451-.416c-.195-.11-.436-.164-.721-.164-.301 0-.545.046-.732.14a.93.93 0 0 0-.404.346.863.863 0 0 0-.065.762.708.708 0 0 0 .223.252c.105.074.254.144.445.211.191.066.436.132.732.199.52.117.948.258 1.284.422.336.164.586.365.75.603.164.238.246.527.246.867a1.68 1.68 0 0 1-.674 1.36 2.462 2.462 0 0 1-.774.386c-.296.09-.63.135-1.001.135-.559 0-1.032-.099-1.418-.299-.387-.199-.68-.457-.879-.773-.2-.316-.299-.65-.299-1.002h1.09c.015.297.101.533.257.709.157.172.348.295.575.369.226.07.451.106.674.106.296 0 .544-.039.744-.118.203-.078.357-.185.463-.322a.75.75 0 0 0 .158-.469ZM753 167l-10-5.774v11.547L753 167Zm-57 1h48v-2h-48v2Zm241-1-10-5.774v11.547L937 167Zm-57 1h48v-2h-48v2Zm-62.293-94.707a1 1 0 0 0-1.414 0l-6.364 6.364a1 1 0 1 0 1.414 1.414L817 75.414l5.657 5.657a1 1 0 1 0 1.414-1.414l-6.364-6.364Zm-1.414 65.414a.999.999 0 0 0 1.414 0l6.364-6.364a.999.999 0 1 0-1.414-1.414L817 136.586l-5.657-5.657a.999.999 0 1 0-1.414 1.414l6.364 6.364ZM816 74v64h2V74h-2Z" fill="#000"/><path fill="#fff" d="M791 102h51v16h-51z"/><path d="M804.684 109.465v.539c0 .641-.08 1.215-.241 1.723-.16.507-.39.939-.691 1.294a3 3 0 0 1-1.084.815 3.407 3.407 0 0 1-1.406.281 3.39 3.39 0 0 1-1.389-.281 3.127 3.127 0 0 1-1.09-.815 3.805 3.805 0 0 1-.709-1.294c-.168-.508-.252-1.082-.252-1.723v-.539c0-.641.082-1.213.246-1.717a3.81 3.81 0 0 1 .709-1.295 3.037 3.037 0 0 1 1.084-.82 3.374 3.374 0 0 1 1.389-.281c.52 0 .988.093 1.406.281a2.97 2.97 0 0 1 1.084.82c.305.356.537.787.698 1.295.164.504.246 1.076.246 1.717Zm-1.12.539v-.551a5.17 5.17 0 0 0-.158-1.348 2.794 2.794 0 0 0-.451-.984 1.932 1.932 0 0 0-.732-.603 2.22 2.22 0 0 0-.973-.206c-.352 0-.67.069-.955.206a2.012 2.012 0 0 0-.727.603 2.974 2.974 0 0 0-.463.984c-.109.391-.164.84-.164 1.348v.551c0 .512.055.965.164 1.359.11.391.266.721.469.991.207.265.451.466.733.603.285.137.603.205.955.205.367 0 .693-.068.978-.205.285-.137.526-.338.721-.603.199-.27.35-.6.451-.991.102-.394.152-.847.152-1.359Zm3.733-1.125v7.559h-1.09v-8.778h.996l.094 1.219Zm4.271 1.898v.123c0 .461-.054.889-.164 1.284-.109.39-.269.73-.48 1.019a2.184 2.184 0 0 1-.768.674 2.22 2.22 0 0 1-1.049.24c-.402 0-.757-.066-1.066-.199a2.102 2.102 0 0 1-.785-.58 2.969 2.969 0 0 1-.516-.914 5.305 5.305 0 0 1-.258-1.201v-.657c.047-.468.135-.888.264-1.259.129-.371.299-.688.51-.95.215-.265.474-.466.779-.603a2.487 2.487 0 0 1 1.055-.211c.398 0 .752.078 1.06.234.309.153.569.371.78.657.211.285.369.627.474 1.025.11.395.164.834.164 1.318Zm-1.089.123v-.123c0-.316-.034-.613-.1-.89a2.253 2.253 0 0 0-.311-.739 1.475 1.475 0 0 0-.527-.503 1.502 1.502 0 0 0-.768-.188c-.273 0-.511.047-.714.141-.2.093-.37.22-.51.381a1.999 1.999 0 0 0-.346.539c-.086.199-.15.406-.193.621v1.517c.078.274.187.532.328.774.141.238.328.431.562.58.235.144.53.217.885.217.293 0 .545-.061.756-.182.215-.125.391-.295.527-.51.141-.215.244-.461.311-.738.066-.281.1-.58.1-.897Zm5.794-4.675L813.449 114h-1.154l3.252-8.531h.744l-.018.756Zm2.368 7.775-2.83-7.775-.018-.756h.744l3.264 8.531h-1.16Zm-.147-3.158v.926h-4.793v-.926h4.793Zm2.807-5.373h1.095l2.795 6.955 2.789-6.955h1.102L825.613 114h-.855l-3.457-8.531Zm-.358 0h.967l.158 5.203V114h-1.125v-8.531Zm7.524 0h.967V114h-1.125v-3.328l.158-5.203Zm6.099 5.185h-2.279v-.92h2.279c.442 0 .799-.07 1.073-.211.273-.14.472-.335.597-.585.129-.25.194-.536.194-.856 0-.293-.065-.568-.194-.826a1.427 1.427 0 0 0-.597-.621c-.274-.16-.631-.24-1.073-.24h-2.015V114h-1.131v-8.531h3.146c.645 0 1.19.111 1.635.334a2.36 2.36 0 0 1 1.014.926c.23.39.346.837.346 1.341 0 .547-.116 1.014-.346 1.401a2.217 2.217 0 0 1-1.014.884c-.445.2-.99.299-1.635.299Z" fill="#000"/></g><defs><filter id="a" x="43" y="11" width="917" height="62" filterUnits="userSpaceOnUse" color-interpolation-filters="sRGB"><feFlood flood-opacity="0" result="BackgroundImageFix"/><feColorMatrix in="SourceAlpha" values="0 0 0 0 0 0 0 0 0 0 0 0 0 0 0 0 0 0 127 0" result="hardAlpha"/><feOffset dx="2" dy="2"/><feGaussianBlur stdDeviation="2"/><feComposite in2="hardAlpha" operator="out"/><feColorMatrix values="0 0 0 0 0 0 0 0 0 0 0 0 0 0 0 0 0 0 0.25 0"/><feBlend in2="BackgroundImageFix" result="effect1_dropShadow_1_2"/><feBlend in="SourceGraphic" in2="effect1_dropShadow_1_2" result="shape"/></filter><filter id="b" x="67.14" y="216.23" width="23.639" height="18.77" filterUnits="userSpaceOnUse" color-interpolation-filters="sRGB"><feFlood flood-opacity="0" result="BackgroundImageFix"/><feColorMatrix in="SourceAlpha" values="0 0 0 0 0 0 0 0 0 0 0 0 0 0 0 0 0 0 127 0" result="hardAlpha"/><feOffset dx="2" dy="2"/><feGaussianBlur stdDeviation="2"/><feComposite in2="hardAlpha" operator="out"/><feColorMatrix values="0 0 0 0 0 0 0 0 0 0 0 0 0 0 0 0 0 0 0.25 0"/><feBlend in2="BackgroundImageFix" result="effect1_dropShadow_1_2"/><feBlend in="SourceGraphic" in2="effect1_dropShadow_1_2" result="shape"/></filter><filter id="c" x="173.14" y="201.23" width="13.94" height="18.77" filterUnits="userSpaceOnUse" color-interpolation-filters="sRGB"><feFlood flood-opacity="0" result="BackgroundImageFix"/><feColorMatrix in="SourceAlpha" values="0 0 0 0 0 0 0 0 0 0 0 0 0 0 0 0 0 0 127 0" result="hardAlpha"/><feOffset dx="2" dy="2"/><feGaussianBlur stdDeviation="2"/><feComposite in2="hardAlpha" operator="out"/><feColorMatrix values="0 0 0 0 0 0 0 0 0 0 0 0 0 0 0 0 0 0 0.25 0"/><feBlend in2="BackgroundImageFix" result="effect1_dropShadow_1_2"/><feBlend in="SourceGraphic" in2="effect1_dropShadow_1_2" result="shape"/></filter><filter id="d" x="209.885" y="103.14" width="14.405" height="18.86" filterUnits="userSpaceOnUse" color-interpolation-filters="sRGB"><feFlood flood-opacity="0" result="BackgroundImageFix"/><feColorMatrix in="SourceAlpha" values="0 0 0 0 0 0 0 0 0 0 0 0 0 0 0 0 0 0 127 0" result="hardAlpha"/><feOffset dx="2" dy="2"/><feGaussianBlur stdDeviation="2"/><feComposite in2="hardAlpha" operator="out"/><feColorMatrix values="0 0 0 0 0 0 0 0 0 0 0 0 0 0 0 0 0 0 0.25 0"/><feBlend in2="BackgroundImageFix" result="effect1_dropShadow_1_2"/><feBlend in="SourceGraphic" in2="effect1_dropShadow_1_2" result="shape"/></filter><filter id="e" x="251.14" y="216.23" width="22.439" height="18.77" filterUnits="userSpaceOnUse" color-interpolation-filters="sRGB"><feFlood flood-opacity="0" result="BackgroundImageFix"/><feColorMatrix in="SourceAlpha" values="0 0 0 0 0 0 0 0 0 0 0 0 0 0 0 0 0 0 127 0" result="hardAlpha"/><feOffset dx="2" dy="2"/><feGaussianBlur stdDeviation="2"/><feComposite in2="hardAlpha" operator="out"/><feColorMatrix values="0 0 0 0 0 0 0 0 0 0 0 0 0 0 0 0 0 0 0.25 0"/><feBlend in2="BackgroundImageFix" result="effect1_dropShadow_1_2"/><feBlend in="SourceGraphic" in2="effect1_dropShadow_1_2" result="shape"/></filter><filter id="f" x="109" y="141" width="135" height="57" filterUnits="userSpaceOnUse" color-interpolation-filters="sRGB"><feFlood flood-opacity="0" result="BackgroundImageFix"/><feColorMatrix in="SourceAlpha" values="0 0 0 0 0 0 0 0 0 0 0 0 0 0 0 0 0 0 127 0" result="hardAlpha"/><feOffset dx="2" dy="2"/><feGaussianBlur stdDeviation="2"/><feComposite in2="hardAlpha" operator="out"/><feColorMatrix values="0 0 0 0 0 0 0 0 0 0 0 0 0 0 0 0 0 0 0.25 0"/><feBlend in2="BackgroundImageFix" result="effect1_dropShadow_1_2"/><feBlend in="SourceGraphic" in2="effect1_dropShadow_1_2" result="shape"/></filter><filter id="g" x="430" y="142" width="135" height="57" filterUnits="userSpaceOnUse" color-interpolation-filters="sRGB"><feFlood flood-opacity="0" result="BackgroundImageFix"/><feColorMatrix in="SourceAlpha" values="0 0 0 0 0 0 0 0 0 0 0 0 0 0 0 0 0 0 127 0" result="hardAlpha"/><feOffset dx="2" dy="2"/><feGaussianBlur stdDeviation="2"/><feComposite in2="hardAlpha" operator="out"/><feColorMatrix values="0 0 0 0 0 0 0 0 0 0 0 0 0 0 0 0 0 0 0.25 0"/><feBlend in2="BackgroundImageFix" result="effect1_dropShadow_1_2"/><feBlend in="SourceGraphic" in2="effect1_dropShadow_1_2" result="shape"/></filter><filter id="h" x="751" y="140" width="135" height="57" filterUnits="userSpaceOnUse" color-interpolation-filters="sRGB"><feFlood flood-opacity="0" result="BackgroundImageFix"/><feColorMatrix in="SourceAlpha" values="0 0 0 0 0 0 0 0 0 0 0 0 0 0 0 0 0 0 127 0" result="hardAlpha"/><feOffset dx="2" dy="2"/><feGaussianBlur stdDeviation="2"/><feComposite in2="hardAlpha" operator="out"/><feColorMatrix values="0 0 0 0 0 0 0 0 0 0 0 0 0 0 0 0 0 0 0.25 0"/><feBlend in2="BackgroundImageFix" result="effect1_dropShadow_1_2"/><feBlend in="SourceGraphic" in2="effect1_dropShadow_1_2" result="shape"/></filter></defs></svg>