<svg width="2113" height="599" fill="none" xmlns="http://www.w3.org/2000/svg"><rect width="2113" height="599" rx="27" fill="#fff"/><rect x="558" y="186" width="219" height="478" rx="8" transform="rotate(90 558 186)" fill="#E7ECF8"/><rect x="1686" y="80" width="439" height="459" rx="8" transform="rotate(90 1686 80)" fill="#E7ECF8"/><path d="M125.805 244h-5.073l7.729-22.387h6.1L142.278 244h-5.072l-5.608-17.271h-.175L125.805 244Zm-.317-8.8h11.98v3.695h-11.98V235.2Zm19.397 15.096v-23.087h4.591v2.821h.208c.204-.452.499-.911.885-1.378.394-.473.904-.867 1.531-1.18.634-.321 1.421-.481 2.361-.481 1.224 0 2.354.321 3.389.962 1.035.634 1.862 1.592 2.481 2.875.62 1.275.929 2.875.929 4.799 0 1.873-.302 3.454-.907 4.744-.598 1.282-1.414 2.255-2.449 2.918-1.027.656-2.179.984-3.454.984-.904 0-1.672-.149-2.306-.448-.627-.299-1.141-.674-1.542-1.126a5.706 5.706 0 0 1-.918-1.388h-.142v8.985h-4.657Zm4.559-14.691c0 .998.138 1.869.415 2.612.277.744.678 1.323 1.202 1.738.525.409 1.163.613 1.913.613.758 0 1.4-.208 1.924-.624.525-.422.922-1.005 1.192-1.749.277-.75.415-1.614.415-2.59 0-.97-.135-1.822-.404-2.558-.27-.736-.667-1.312-1.192-1.727-.525-.416-1.169-.623-1.935-.623-.758 0-1.399.2-1.924.601-.517.401-.914.969-1.191 1.705-.277.736-.415 1.603-.415 2.602Zm14.921 14.691v-23.087h4.591v2.821h.208c.204-.452.499-.911.885-1.378.394-.473.904-.867 1.53-1.18.634-.321 1.422-.481 2.362-.481 1.224 0 2.353.321 3.388.962 1.035.634 1.862 1.592 2.482 2.875.619 1.275.929 2.875.929 4.799 0 1.873-.303 3.454-.907 4.744-.598 1.282-1.414 2.255-2.449 2.918-1.028.656-2.179.984-3.454.984-.904 0-1.673-.149-2.307-.448-.627-.299-1.14-.674-1.541-1.126a5.706 5.706 0 0 1-.918-1.388h-.142v8.985h-4.657Zm4.558-14.691c0 .998.139 1.869.416 2.612.276.744.677 1.323 1.202 1.738.525.409 1.162.613 1.913.613.758 0 1.399-.208 1.924-.624.525-.422.922-1.005 1.191-1.749.277-.75.416-1.614.416-2.59 0-.97-.135-1.822-.405-2.558-.269-.736-.666-1.312-1.191-1.727-.525-.416-1.17-.623-1.935-.623-.758 0-1.399.2-1.924.601-.517.401-.915.969-1.191 1.705-.277.736-.416 1.603-.416 2.602Zm19.578-13.992V244h-4.657v-22.387h4.657Zm3.73 22.387v-16.791h4.657V244h-4.657Zm2.351-18.955a2.525 2.525 0 0 1-1.782-.689c-.496-.466-.743-1.023-.743-1.672 0-.641.247-1.192.743-1.651a2.496 2.496 0 0 1 1.771-.699c.699 0 1.293.233 1.782.699.495.459.743 1.01.743 1.651 0 .649-.248 1.206-.743 1.672-.489.46-1.079.689-1.771.689Zm13.623 19.283c-1.72 0-3.199-.364-4.438-1.093a7.383 7.383 0 0 1-2.842-3.061c-.656-1.304-.984-2.806-.984-4.504 0-1.72.331-3.228.995-4.525.67-1.305 1.621-2.321 2.853-3.05 1.231-.736 2.696-1.104 4.394-1.104 1.465 0 2.747.266 3.848.798 1.1.532 1.971 1.279 2.612 2.241.642.962.995 2.091 1.061 3.388h-4.395c-.124-.838-.451-1.512-.983-2.022-.525-.517-1.214-.776-2.066-.776-.722 0-1.352.197-1.892.59-.532.387-.947.951-1.246 1.695-.299.743-.448 1.643-.448 2.7 0 1.071.146 1.982.437 2.733.299.75.718 1.322 1.257 1.716.54.393 1.17.59 1.892.59a3.07 3.07 0 0 0 1.432-.328 2.763 2.763 0 0 0 1.06-.951c.284-.423.47-.929.557-1.519h4.395c-.073 1.282-.423 2.412-1.05 3.388-.619.97-1.475 1.728-2.569 2.274-1.093.547-2.386.82-3.88.82Zm15.268-.011c-1.071 0-2.026-.186-2.864-.557a4.61 4.61 0 0 1-1.989-1.673c-.481-.743-.722-1.669-.722-2.777 0-.932.171-1.716.514-2.35a4.155 4.155 0 0 1 1.399-1.53 6.796 6.796 0 0 1 2.012-.875 15.38 15.38 0 0 1 2.383-.415 61.437 61.437 0 0 0 2.361-.284c.597-.095 1.031-.233 1.301-.416.269-.182.404-.451.404-.809v-.065c0-.692-.219-1.228-.656-1.607-.43-.379-1.042-.568-1.836-.568-.838 0-1.505.185-2.001.557-.495.364-.823.823-.984 1.377l-4.307-.349c.219-1.021.649-1.903 1.29-2.646.642-.75 1.469-1.326 2.482-1.727 1.02-.408 2.201-.612 3.542-.612.932 0 1.825.109 2.678.328a6.99 6.99 0 0 1 2.284 1.016 4.945 4.945 0 0 1 1.585 1.771c.387.714.58 1.571.58 2.569V244h-4.416v-2.328h-.132c-.269.524-.63.987-1.082 1.388a5.023 5.023 0 0 1-1.629.929c-.634.219-1.366.328-2.197.328Zm1.334-3.214c.685 0 1.29-.135 1.814-.404a3.22 3.22 0 0 0 1.236-1.115c.298-.467.448-.995.448-1.585v-1.782a2.482 2.482 0 0 1-.601.262c-.248.073-.529.142-.842.208-.313.058-.627.113-.94.164l-.853.12a5.754 5.754 0 0 0-1.432.383c-.408.175-.725.412-.951.71-.226.292-.339.656-.339 1.093 0 .634.23 1.119.689 1.454.466.328 1.057.492 1.771.492Zm20.665-13.894v3.499h-10.111v-3.499h10.111Zm-7.815-4.022h4.656v15.653c0 .43.066.766.197 1.006.131.233.313.397.547.492.24.095.517.142.83.142.219 0 .438-.018.656-.055l.503-.098.733 3.465c-.234.073-.562.157-.984.252a7.91 7.91 0 0 1-1.542.186c-1.122.043-2.106-.106-2.951-.449-.838-.342-1.49-.874-1.957-1.596-.466-.721-.696-1.632-.688-2.732v-16.266ZM248.506 244v-16.791h4.657V244h-4.657Zm2.35-18.955a2.528 2.528 0 0 1-1.782-.689c-.495-.466-.743-1.023-.743-1.672 0-.641.248-1.192.743-1.651a2.497 2.497 0 0 1 1.771-.699c.7 0 1.294.233 1.782.699.496.459.743 1.01.743 1.651 0 .649-.247 1.206-.743 1.672-.488.46-1.079.689-1.771.689Zm13.623 19.283c-1.698 0-3.166-.361-4.405-1.082a7.403 7.403 0 0 1-2.853-3.039c-.671-1.305-1.006-2.817-1.006-4.537 0-1.734.335-3.25 1.006-4.547.67-1.305 1.621-2.318 2.853-3.039 1.239-.729 2.707-1.093 4.405-1.093 1.698 0 3.163.364 4.395 1.093 1.239.721 2.193 1.734 2.864 3.039.67 1.297 1.005 2.813 1.005 4.547 0 1.72-.335 3.232-1.005 4.537a7.39 7.39 0 0 1-2.864 3.039c-1.232.721-2.697 1.082-4.395 1.082Zm.022-3.607c.773 0 1.418-.219 1.935-.656.517-.445.907-1.05 1.17-1.815.269-.765.404-1.636.404-2.612 0-.977-.135-1.848-.404-2.613-.263-.765-.653-1.37-1.17-1.815-.517-.444-1.162-.666-1.935-.666-.78 0-1.435.222-1.967.666-.525.445-.922 1.05-1.192 1.815-.262.765-.394 1.636-.394 2.613 0 .976.132 1.847.394 2.612.27.765.667 1.37 1.192 1.815.532.437 1.187.656 1.967.656Zm15.927-6.428V244h-4.657v-16.791h4.438v2.963h.197a4.69 4.69 0 0 1 1.869-2.318c.875-.575 1.935-.863 3.182-.863 1.166 0 2.182.255 3.049.765.868.51 1.542 1.239 2.023 2.186.481.94.721 2.063.721 3.367V244h-4.657v-9.86c.008-1.028-.255-1.829-.787-2.405-.532-.583-1.264-.874-2.197-.874-.627 0-1.18.134-1.661.404-.474.27-.846.663-1.115 1.181-.263.51-.398 1.126-.405 1.847ZM1289.52 126.806c0 2.442-.46 4.519-1.39 6.231-.92 1.713-2.17 3.021-3.76 3.925-1.58.896-3.36 1.344-5.33 1.344-1.99 0-3.78-.452-5.36-1.355-1.58-.904-2.83-2.212-3.75-3.925-.92-1.712-1.38-3.786-1.38-6.22 0-2.441.46-4.518 1.38-6.231.92-1.712 2.17-3.017 3.75-3.913 1.58-.904 3.37-1.355 5.36-1.355 1.97 0 3.75.451 5.33 1.355 1.59.896 2.84 2.201 3.76 3.913.93 1.713 1.39 3.79 1.39 6.231Zm-4.8 0c0-1.581-.24-2.915-.71-4.001-.47-1.085-1.13-1.909-1.98-2.47-.85-.561-1.85-.842-2.99-.842-1.15 0-2.15.281-3 .842-.85.561-1.52 1.385-1.99 2.47-.47 1.086-.7 2.42-.7 4.001 0 1.582.23 2.915.7 4.001.47 1.086 1.14 1.91 1.99 2.471.85.561 1.85.841 3 .841 1.14 0 2.14-.28 2.99-.841.85-.561 1.51-1.385 1.98-2.471s.71-2.419.71-4.001Zm8.22 17.49v-23.087h4.59v2.821h.21c.2-.452.5-.911.88-1.378.4-.473.91-.867 1.53-1.18.64-.321 1.42-.481 2.36-.481 1.23 0 2.36.321 3.39.962 1.04.634 1.86 1.592 2.48 2.875.62 1.275.93 2.875.93 4.799 0 1.873-.3 3.454-.9 4.744-.6 1.282-1.42 2.255-2.45 2.918-1.03.656-2.18.984-3.46.984-.9 0-1.67-.149-2.3-.448a4.876 4.876 0 0 1-1.55-1.126c-.4-.459-.7-.922-.91-1.388h-.15v8.985h-4.65Zm4.56-14.691c0 .998.13 1.869.41 2.612.28.744.68 1.323 1.2 1.738.53.409 1.17.613 1.92.613s1.4-.208 1.92-.624c.53-.422.92-1.005 1.19-1.749.28-.75.42-1.614.42-2.59 0-.97-.14-1.822-.41-2.558-.27-.736-.66-1.312-1.19-1.727-.52-.416-1.17-.623-1.93-.623s-1.4.2-1.93.601c-.51.401-.91.969-1.19 1.705-.28.736-.41 1.603-.41 2.602Zm22.57 8.723c-1.73 0-3.21-.35-4.46-1.049-1.24-.707-2.19-1.706-2.87-2.996-.67-1.297-1-2.831-1-4.602 0-1.727.33-3.243 1-4.547.68-1.305 1.62-2.321 2.84-3.05 1.22-.729 2.66-1.093 4.3-1.093 1.11 0 2.14.178 3.1.535.96.35 1.8.879 2.51 1.586.72.706 1.28 1.596 1.68 2.667.41 1.064.61 2.31.61 3.738v1.279h-14.18v-2.886h9.79c0-.67-.14-1.264-.44-1.781a3.098 3.098 0 0 0-1.21-1.214c-.51-.299-1.1-.448-1.78-.448-.71 0-1.33.164-1.88.492-.54.321-.96.754-1.27 1.301-.3.539-.46 1.14-.47 1.803v2.744c0 .831.15 1.549.46 2.154.31.605.75 1.071 1.32 1.399.57.328 1.25.492 2.03.492.51 0 .99-.073 1.42-.219a2.96 2.96 0 0 0 1.1-.656c.31-.291.54-.648.7-1.071l4.31.284a5.878 5.878 0 0 1-1.35 2.711c-.67.765-1.54 1.363-2.6 1.793-1.06.423-2.28.634-3.66.634Zm15.4-10.035V138h-4.66v-16.791h4.44v2.963h.2a4.65 4.65 0 0 1 1.87-2.318c.87-.575 1.93-.863 3.18-.863 1.17 0 2.18.255 3.05.765.87.51 1.54 1.239 2.02 2.186.48.94.72 2.063.72 3.367V138h-4.65v-9.86c0-1.028-.26-1.829-.79-2.405-.53-.583-1.27-.874-2.2-.874-.62 0-1.18.134-1.66.404-.47.27-.84.663-1.11 1.181-.27.51-.4 1.126-.41 1.847Zm12.32-8.778v-3.902h18.38v3.902h-6.85V138h-4.68v-18.485h-6.85Zm26.54 18.813c-1.73 0-3.21-.35-4.46-1.049-1.24-.707-2.19-1.706-2.86-2.996-.68-1.297-1.01-2.831-1.01-4.602 0-1.727.33-3.243 1.01-4.547.67-1.305 1.61-2.321 2.83-3.05 1.22-.729 2.66-1.093 4.3-1.093 1.11 0 2.14.178 3.1.535.96.35 1.8.879 2.51 1.586.72.706 1.28 1.596 1.68 2.667.41 1.064.61 2.31.61 3.738v1.279h-14.18v-2.886h9.79c0-.67-.14-1.264-.43-1.781a3.19 3.19 0 0 0-1.22-1.214c-.51-.299-1.1-.448-1.78-.448-.71 0-1.33.164-1.88.492-.54.321-.96.754-1.27 1.301-.3.539-.46 1.14-.47 1.803v2.744c0 .831.15 1.549.46 2.154.31.605.75 1.071 1.32 1.399.57.328 1.25.492 2.03.492.51 0 .99-.073 1.42-.219a2.96 2.96 0 0 0 1.1-.656c.31-.291.54-.648.7-1.071l4.31.284a5.878 5.878 0 0 1-1.35 2.711c-.67.765-1.53 1.363-2.6 1.793-1.06.423-2.28.634-3.66.634Zm15.4-22.715V138h-4.66v-22.387h4.66Zm11.38 22.715c-1.72 0-3.21-.35-4.46-1.049-1.24-.707-2.19-1.706-2.86-2.996-.67-1.297-1.01-2.831-1.01-4.602 0-1.727.34-3.243 1.01-4.547.67-1.305 1.61-2.321 2.83-3.05 1.23-.729 2.66-1.093 4.31-1.093 1.11 0 2.14.178 3.09.535.96.35 1.8.879 2.52 1.586.72.706 1.28 1.596 1.68 2.667.4 1.064.6 2.31.6 3.738v1.279h-14.18v-2.886h9.8c0-.67-.15-1.264-.44-1.781-.29-.518-.7-.922-1.21-1.214-.51-.299-1.11-.448-1.79-.448-.7 0-1.33.164-1.88.492-.54.321-.96.754-1.26 1.301-.31.539-.47 1.14-.47 1.803v2.744c0 .831.15 1.549.46 2.154.31.605.75 1.071 1.32 1.399.57.328 1.24.492 2.02.492.52 0 .99-.073 1.42-.219.43-.146.8-.364 1.11-.656.3-.291.53-.648.69-1.071l4.31.284c-.22 1.035-.66 1.939-1.34 2.711-.67.765-1.54 1.363-2.6 1.793-1.06.423-2.28.634-3.67.634Zm10.75-.328v-16.791h4.44v2.963h.19c.35-.984.94-1.76 1.75-2.328.82-.569 1.8-.853 2.93-.853 1.15 0 2.13.288 2.94.863.81.569 1.35 1.341 1.62 2.318h.18c.34-.962.96-1.731 1.85-2.307.91-.583 1.98-.874 3.21-.874 1.56 0 2.84.499 3.81 1.497.99.992 1.48 2.398 1.48 4.22V138h-4.65v-10.374c0-.933-.25-1.632-.74-2.099-.5-.466-1.12-.699-1.86-.699-.84 0-1.5.269-1.98.809-.47.532-.71 1.235-.71 2.109V138h-4.51v-10.472c0-.824-.24-1.48-.71-1.968s-1.09-.732-1.85-.732c-.52 0-.99.131-1.4.393a2.68 2.68 0 0 0-.97 1.082c-.24.46-.36.999-.36 1.618V138h-4.66Zm35.73.328c-1.73 0-3.22-.35-4.46-1.049a7.193 7.193 0 0 1-2.87-2.996c-.67-1.297-1-2.831-1-4.602 0-1.727.33-3.243 1-4.547.67-1.305 1.62-2.321 2.84-3.05 1.22-.729 2.66-1.093 4.3-1.093 1.11 0 2.14.178 3.1.535.96.35 1.8.879 2.51 1.586.72.706 1.28 1.596 1.68 2.667.4 1.064.6 2.31.6 3.738v1.279h-14.17v-2.886h9.79c0-.67-.14-1.264-.44-1.781a3.098 3.098 0 0 0-1.21-1.214c-.51-.299-1.1-.448-1.78-.448-.71 0-1.33.164-1.88.492-.54.321-.96.754-1.27 1.301-.31.539-.46 1.14-.47 1.803v2.744c0 .831.15 1.549.46 2.154.31.605.75 1.071 1.32 1.399.57.328 1.24.492 2.02.492.52 0 1-.073 1.43-.219a2.96 2.96 0 0 0 1.1-.656c.31-.291.54-.648.7-1.071l4.31.284a5.878 5.878 0 0 1-1.35 2.711c-.67.765-1.54 1.363-2.6 1.793-1.06.423-2.28.634-3.66.634Zm19.67-17.119v3.499h-10.11v-3.499h10.11Zm-7.81-4.022h4.66v15.653c0 .43.06.766.19 1.006.13.233.32.397.55.492.24.095.52.142.83.142.22 0 .44-.018.66-.055.21-.043.38-.076.5-.098l.73 3.465c-.23.073-.56.157-.98.252-.43.102-.94.164-1.54.186-1.13.043-2.11-.106-2.96-.449-.83-.342-1.49-.874-1.95-1.596-.47-.721-.7-1.632-.69-2.732v-16.266ZM1470.3 138v-16.791h4.51v2.93h.18c.3-1.042.82-1.829 1.54-2.361.72-.539 1.55-.809 2.49-.809.23 0 .49.015.76.044.27.029.5.069.71.12v4.132a6.278 6.278 0 0 0-.91-.175 8.195 8.195 0 0 0-1.06-.076c-.69 0-1.3.149-1.84.448a3.36 3.36 0 0 0-1.27 1.224c-.3.525-.46 1.13-.46 1.815V138h-4.65Zm15.98 6.264c-.59 0-1.14-.048-1.66-.142a6.779 6.779 0 0 1-1.27-.328l1.05-3.487c.82.255 1.52.32 2.08.196.56-.116 1.01-.554 1.34-1.311l.27-.711-6.02-17.272h4.9l3.47 12.331h.18l3.51-12.331 4.93.022-6.53 18.584a7.61 7.61 0 0 1-1.28 2.339c-.53.67-1.2 1.188-2.02 1.552-.82.372-1.8.558-2.95.558Zm42.13-20.814h-4.79a4.73 4.73 0 0 0-.54-1.65 4.098 4.098 0 0 0-1.04-1.246 4.545 4.545 0 0 0-1.46-.787 5.59 5.59 0 0 0-1.78-.274c-1.16 0-2.17.288-3.03.864-.86.568-1.53 1.399-2 2.492-.47 1.086-.71 2.405-.71 3.957 0 1.596.24 2.937.71 4.023.48 1.086 1.15 1.906 2.01 2.46.86.553 1.86.83 2.98.83.64 0 1.23-.083 1.76-.251a4.614 4.614 0 0 0 1.46-.732c.42-.328.77-.726 1.05-1.192.28-.466.48-.998.59-1.596l4.79.022a8.92 8.92 0 0 1-.93 2.973 8.968 8.968 0 0 1-1.98 2.547c-.83.744-1.81 1.334-2.95 1.771-1.14.43-2.43.645-3.86.645-2 0-3.78-.452-5.36-1.355-1.56-.904-2.8-2.212-3.71-3.925-.91-1.712-1.36-3.786-1.36-6.22 0-2.441.46-4.518 1.38-6.231.92-1.712 2.16-3.017 3.74-3.913 1.57-.904 3.34-1.355 5.31-1.355 1.3 0 2.5.182 3.61.546 1.11.365 2.1.897 2.96 1.596a8.216 8.216 0 0 1 2.1 2.547c.54 1.006.89 2.157 1.05 3.454Zm10.89 14.878c-1.7 0-3.17-.361-4.41-1.082a7.409 7.409 0 0 1-2.85-3.039c-.67-1.305-1-2.817-1-4.537 0-1.734.33-3.25 1-4.547.67-1.305 1.62-2.318 2.85-3.039 1.24-.729 2.71-1.093 4.41-1.093 1.7 0 3.16.364 4.39 1.093a7.295 7.295 0 0 1 2.87 3.039c.67 1.297 1 2.813 1 4.547 0 1.72-.33 3.232-1 4.537a7.391 7.391 0 0 1-2.87 3.039c-1.23.721-2.69 1.082-4.39 1.082Zm.02-3.607c.77 0 1.42-.219 1.94-.656.51-.445.9-1.05 1.17-1.815.27-.765.4-1.636.4-2.612 0-.977-.13-1.848-.4-2.613-.27-.765-.66-1.37-1.17-1.815-.52-.444-1.17-.666-1.94-.666-.78 0-1.43.222-1.97.666-.52.445-.92 1.05-1.19 1.815-.26.765-.39 1.636-.39 2.613 0 .976.13 1.847.39 2.612.27.765.67 1.37 1.19 1.815.54.437 1.19.656 1.97.656Zm15.93-19.108V138h-4.66v-22.387h4.66Zm8.39 0V138h-4.66v-22.387h4.66Zm11.38 22.715c-1.73 0-3.22-.35-4.46-1.049a7.193 7.193 0 0 1-2.87-2.996c-.67-1.297-1-2.831-1-4.602 0-1.727.33-3.243 1-4.547a7.473 7.473 0 0 1 2.83-3.05c1.23-.729 2.66-1.093 4.31-1.093 1.11 0 2.14.178 3.1.535.96.35 1.8.879 2.51 1.586.72.706 1.28 1.596 1.68 2.667.4 1.064.6 2.31.6 3.738v1.279h-14.17v-2.886h9.79c0-.67-.15-1.264-.44-1.781a3.098 3.098 0 0 0-1.21-1.214c-.51-.299-1.1-.448-1.78-.448-.71 0-1.34.164-1.88.492-.54.321-.96.754-1.27 1.301-.31.539-.46 1.14-.47 1.803v2.744c0 .831.15 1.549.46 2.154.31.605.75 1.071 1.32 1.399.57.328 1.24.492 2.02.492.52 0 .99-.073 1.42-.219.43-.146.8-.364 1.11-.656.31-.291.54-.648.7-1.071l4.31.284a5.878 5.878 0 0 1-1.35 2.711c-.67.765-1.54 1.363-2.6 1.793-1.06.423-2.28.634-3.66.634Zm18.33 0c-1.72 0-3.2-.364-4.44-1.093a7.372 7.372 0 0 1-2.84-3.061c-.66-1.304-.98-2.806-.98-4.504 0-1.72.33-3.228.99-4.525.67-1.305 1.62-2.321 2.85-3.05 1.23-.736 2.7-1.104 4.4-1.104 1.46 0 2.74.266 3.85.798 1.1.532 1.97 1.279 2.61 2.241.64.962.99 2.091 1.06 3.388h-4.4c-.12-.838-.45-1.512-.98-2.022-.52-.517-1.21-.776-2.07-.776-.72 0-1.35.197-1.89.59-.53.387-.94.951-1.24 1.695-.3.743-.45 1.643-.45 2.7 0 1.071.14 1.982.44 2.733.29.75.71 1.322 1.25 1.716.54.393 1.17.59 1.89.59.54 0 1.01-.109 1.44-.328.43-.218.78-.535 1.06-.951.28-.423.47-.929.55-1.519h4.4c-.07 1.282-.42 2.412-1.05 3.388-.62.97-1.48 1.728-2.57 2.274-1.09.547-2.39.82-3.88.82Zm19.41-17.119v3.499h-10.11v-3.499h10.11Zm-7.82-4.022h4.66v15.653c0 .43.07.766.2 1.006.13.233.31.397.54.492.25.095.52.142.84.142.21 0 .43-.018.65-.055l.5-.098.74 3.465c-.24.073-.56.157-.99.252-.42.102-.93.164-1.54.186-1.12.043-2.1-.106-2.95-.449-.84-.342-1.49-.874-1.96-1.596-.46-.721-.69-1.632-.69-2.732v-16.266Zm18.26 21.141c-1.7 0-3.17-.361-4.41-1.082a7.409 7.409 0 0 1-2.85-3.039c-.67-1.305-1-2.817-1-4.537 0-1.734.33-3.25 1-4.547.67-1.305 1.62-2.318 2.85-3.039 1.24-.729 2.71-1.093 4.41-1.093 1.7 0 3.16.364 4.39 1.093a7.295 7.295 0 0 1 2.87 3.039c.67 1.297 1 2.813 1 4.547 0 1.72-.33 3.232-1 4.537a7.391 7.391 0 0 1-2.87 3.039c-1.23.721-2.69 1.082-4.39 1.082Zm.02-3.607c.77 0 1.42-.219 1.94-.656.51-.445.9-1.05 1.17-1.815.27-.765.4-1.636.4-2.612 0-.977-.13-1.848-.4-2.613-.27-.765-.66-1.37-1.17-1.815-.52-.444-1.17-.666-1.94-.666-.78 0-1.43.222-1.97.666-.52.445-.92 1.05-1.19 1.815-.26.765-.39 1.636-.39 2.613 0 .976.13 1.847.39 2.612.27.765.67 1.37 1.19 1.815.54.437 1.19.656 1.97.656Zm11.27 3.279v-16.791h4.52v2.93h.17c.31-1.042.82-1.829 1.54-2.361.72-.539 1.56-.809 2.5-.809.23 0 .48.015.75.044.27.029.51.069.71.12v4.132a6.013 6.013 0 0 0-.91-.175 8.075 8.075 0 0 0-1.06-.076c-.68 0-1.29.149-1.83.448-.54.291-.96.699-1.27 1.224-.31.525-.46 1.13-.46 1.815V138h-4.66Z" fill="#8FA5ED"/><g filter="url(#a)"><path d="M120 293c0-5.523 4.477-10 10-10h70v82h-69c-6.075 0-11-4.925-11-11v-61Z" fill="#fff"/><path d="M177.266 312.272h-34.532a2.735 2.735 0 0 0-2.734 2.735v25.898a2.735 2.735 0 0 0 2.734 2.735h34.532a2.735 2.735 0 0 0 2.734-2.735v-25.898a2.735 2.735 0 0 0-2.734-2.735Z" stroke="#7D88A1" stroke-width="3.165"/><path d="M149.494 312.905v-3.798a4.747 4.747 0 0 1 4.746-4.747h11.393a4.748 4.748 0 0 1 4.747 4.747v3.798" stroke="#7D88A1" stroke-width="3.165"/><path d="M167.727 327.684c.866 1.499 5.082 3.065 8.598 1.035 2.19-1.264 3.016-3.295 3.119-5.008.085-1.432-1.475-1.94-2.718-1.223-1.499.866-3.865.232-4.731-1.268-.866-1.5-.232-3.866 1.268-4.731 1.177-.68 1.447-2.287.253-2.937-1.475-.804-3.514-1.18-5.851.169-3.749 2.165-3.767 6.175-3.401 7.963m-11.999 6.928c-.866-1.5-5.082-3.066-8.598-1.036-2.19 1.264-3.017 3.295-3.119 5.008-.085 1.432 1.475 1.94 2.717 1.223 1.5-.866 3.866-.232 4.732 1.268.866 1.5.232 3.866-1.268 4.731-1.177.68-1.447 2.287-.253 2.937 1.475.804 3.514 1.18 5.851-.169 3.749-2.165 3.767-6.175 3.401-7.963m8.535-12.927-11.998 6.927m15.462-.927-11.999 6.927" stroke="#7D88A1" stroke-width="3.165" stroke-linecap="round"/><path d="M200 283h308c5.523 0 10 4.477 10 10v62c0 5.523-4.477 10-10 10H200v-82Z" fill="#fff"/><path d="M221.463 326.091c0 2.301-.415 4.29-1.246 5.966-.831 1.676-1.971 2.969-3.42 3.878-1.449.909-3.104 1.363-4.964 1.363-1.861 0-3.516-.454-4.965-1.363-1.449-.909-2.589-2.202-3.42-3.878-.831-1.676-1.246-3.665-1.246-5.966s.415-4.29 1.246-5.966c.831-1.676 1.971-2.969 3.42-3.878 1.449-.909 3.104-1.363 4.965-1.363 1.86 0 3.515.454 4.964 1.363 1.449.909 2.589 2.202 3.42 3.878.831 1.676 1.246 3.665 1.246 5.966Zm-2.557 0c0-1.889-.316-3.484-.948-4.783-.625-1.3-1.473-2.284-2.546-2.951-1.065-.668-2.258-1.002-3.579-1.002-1.321 0-2.518.334-3.591 1.002-1.065.667-1.914 1.651-2.546 2.951-.625 1.299-.937 2.894-.937 4.783 0 1.889.312 3.484.937 4.783.632 1.3 1.481 2.284 2.546 2.951 1.073.668 2.27 1.002 3.591 1.002 1.321 0 2.514-.334 3.579-1.002 1.073-.667 1.921-1.651 2.546-2.951.632-1.299.948-2.894.948-4.783Zm6.659 17.045v-22.5h2.429v2.6h.298c.185-.284.44-.647.767-1.087.334-.447.81-.845 1.428-1.193.625-.355 1.47-.533 2.535-.533 1.378 0 2.593.345 3.644 1.034 1.051.689 1.871 1.665 2.461 2.929.589 1.265.884 2.756.884 4.475 0 1.733-.295 3.235-.884 4.506-.59 1.264-1.407 2.245-2.451 2.941-1.044.688-2.248 1.033-3.611 1.033-1.051 0-1.893-.174-2.525-.522-.632-.355-1.119-.757-1.46-1.204-.34-.454-.603-.831-.788-1.129h-.213v8.65h-2.514Zm2.471-14.318c0 1.236.182 2.326.544 3.271.362.937.891 1.672 1.587 2.205.696.526 1.548.788 2.557.788 1.051 0 1.928-.277 2.631-.831.711-.561 1.243-1.314 1.598-2.258.363-.952.544-2.01.544-3.175 0-1.15-.178-2.187-.533-3.111-.348-.93-.877-1.665-1.587-2.205-.704-.547-1.588-.82-2.653-.82-1.023 0-1.882.259-2.578.778-.696.511-1.222 1.228-1.577 2.152-.355.916-.533 1.985-.533 3.206Zm22.671 8.523c-1.577 0-2.937-.348-4.08-1.044-1.137-.703-2.014-1.683-2.632-2.94-.611-1.265-.916-2.735-.916-4.411 0-1.676.305-3.153.916-4.432.618-1.285 1.477-2.287 2.578-3.004 1.108-.724 2.401-1.087 3.878-1.087.852 0 1.694.142 2.525.426a6.272 6.272 0 0 1 2.269 1.385c.682.632 1.225 1.471 1.63 2.515.405 1.044.607 2.329.607 3.856v1.065h-12.613v-2.173h10.057c0-.923-.185-1.747-.554-2.471a4.178 4.178 0 0 0-1.556-1.716c-.667-.419-1.456-.628-2.365-.628-1.001 0-1.868.248-2.599.746a4.905 4.905 0 0 0-1.673 1.917 5.646 5.646 0 0 0-.586 2.536v1.449c0 1.235.213 2.283.639 3.142.434.853 1.034 1.502 1.801 1.95.767.44 1.658.66 2.674.66.66 0 1.257-.092 1.79-.277a3.811 3.811 0 0 0 1.395-.852c.391-.383.693-.859.906-1.427l2.429.681a5.399 5.399 0 0 1-1.289 2.174c-.604.618-1.35 1.101-2.238 1.449-.887.34-1.885.511-2.993.511Zm13.114-10.185V337h-2.514v-16.364h2.429v2.557h.213a4.682 4.682 0 0 1 1.747-2.003c.781-.511 1.79-.767 3.026-.767 1.108 0 2.077.228 2.908.682.831.448 1.477 1.129 1.939 2.046.462.909.693 2.059.693 3.451V337h-2.515v-10.227c0-1.286-.333-2.287-1.001-3.005-.668-.724-1.584-1.086-2.749-1.086-.802 0-1.52.174-2.152.522a3.734 3.734 0 0 0-1.48 1.523c-.363.668-.544 1.478-.544 2.429Zm12.806-9.63v-2.344h16.363v2.344h-6.861V337h-2.642v-19.474h-6.86Zm24.588 19.815c-1.577 0-2.937-.348-4.081-1.044-1.136-.703-2.013-1.683-2.631-2.94-.611-1.265-.916-2.735-.916-4.411 0-1.676.305-3.153.916-4.432.618-1.285 1.477-2.287 2.578-3.004 1.108-.724 2.401-1.087 3.878-1.087.852 0 1.694.142 2.525.426a6.272 6.272 0 0 1 2.269 1.385c.682.632 1.225 1.471 1.63 2.515.405 1.044.607 2.329.607 3.856v1.065h-12.613v-2.173h10.056c0-.923-.184-1.747-.554-2.471a4.169 4.169 0 0 0-1.555-1.716c-.668-.419-1.456-.628-2.365-.628-1.001 0-1.868.248-2.599.746a4.905 4.905 0 0 0-1.673 1.917 5.633 5.633 0 0 0-.586 2.536v1.449c0 1.235.213 2.283.639 3.142.433.853 1.034 1.502 1.801 1.95.767.44 1.658.66 2.674.66.66 0 1.257-.092 1.789-.277a3.815 3.815 0 0 0 1.396-.852c.391-.383.693-.859.906-1.427l2.429.681a5.39 5.39 0 0 1-1.29 2.174c-.603.618-1.349 1.101-2.237 1.449-.888.34-1.885.511-2.993.511Zm13.114-22.159V337h-2.514v-21.818h2.514Zm11.466 22.159c-1.577 0-2.937-.348-4.081-1.044-1.136-.703-2.013-1.683-2.631-2.94-.611-1.265-.916-2.735-.916-4.411 0-1.676.305-3.153.916-4.432.618-1.285 1.477-2.287 2.578-3.004 1.108-.724 2.401-1.087 3.878-1.087.852 0 1.694.142 2.525.426a6.272 6.272 0 0 1 2.269 1.385c.682.632 1.225 1.471 1.63 2.515.405 1.044.607 2.329.607 3.856v1.065h-12.613v-2.173h10.056c0-.923-.184-1.747-.553-2.471a4.178 4.178 0 0 0-1.556-1.716c-.667-.419-1.456-.628-2.365-.628-1.001 0-1.868.248-2.599.746a4.905 4.905 0 0 0-1.673 1.917 5.633 5.633 0 0 0-.586 2.536v1.449c0 1.235.213 2.283.639 3.142.434.853 1.034 1.502 1.801 1.95.767.44 1.658.66 2.674.66.66 0 1.257-.092 1.79-.277a3.82 3.82 0 0 0 1.395-.852c.391-.383.693-.859.906-1.427l2.429.681a5.399 5.399 0 0 1-1.289 2.174c-.604.618-1.35 1.101-2.238 1.449-.887.34-1.885.511-2.993.511Zm10.6-.341v-16.364h2.429v2.557h.213c.341-.873.891-1.552 1.651-2.035.76-.49 1.673-.735 2.738-.735 1.08 0 1.978.245 2.695.735.725.483 1.29 1.162 1.694 2.035h.171a4.764 4.764 0 0 1 1.885-2.013c.839-.505 1.843-.757 3.015-.757 1.463 0 2.66.458 3.591 1.375.93.909 1.395 2.326 1.395 4.25V337h-2.514v-10.952c0-1.207-.33-2.07-.991-2.588-.66-.519-1.438-.778-2.333-.778-1.15 0-2.042.348-2.674 1.044-.632.689-.948 1.562-.948 2.621V337h-2.557v-11.207c0-.931-.302-1.68-.905-2.248-.604-.576-1.382-.863-2.334-.863-.653 0-1.264.174-1.832.522a3.943 3.943 0 0 0-1.364 1.449c-.34.61-.511 1.317-.511 2.12V337h-2.514Zm32.935.341c-1.577 0-2.937-.348-4.08-1.044-1.137-.703-2.014-1.683-2.632-2.94-.611-1.265-.916-2.735-.916-4.411 0-1.676.305-3.153.916-4.432.618-1.285 1.478-2.287 2.578-3.004 1.108-.724 2.401-1.087 3.878-1.087.852 0 1.694.142 2.525.426a6.272 6.272 0 0 1 2.269 1.385c.682.632 1.225 1.471 1.63 2.515.405 1.044.607 2.329.607 3.856v1.065h-12.613v-2.173h10.057c0-.923-.185-1.747-.554-2.471a4.178 4.178 0 0 0-1.556-1.716c-.667-.419-1.456-.628-2.365-.628-1.001 0-1.868.248-2.599.746a4.905 4.905 0 0 0-1.673 1.917 5.646 5.646 0 0 0-.586 2.536v1.449c0 1.235.213 2.283.639 3.142.434.853 1.034 1.502 1.801 1.95.767.44 1.658.66 2.674.66.66 0 1.257-.092 1.79-.277a3.811 3.811 0 0 0 1.395-.852c.391-.383.693-.859.906-1.427l2.429.681a5.399 5.399 0 0 1-1.289 2.174c-.604.618-1.35 1.101-2.237 1.449-.888.34-1.886.511-2.994.511Zm17.717-16.705v2.131h-8.481v-2.131h8.481Zm-6.009-3.92h2.514v15.596c0 .711.103 1.243.309 1.599.213.348.483.582.81.703.334.113.685.17 1.054.17.277 0 .505-.014.682-.043a46.2 46.2 0 0 0 .426-.085l.512 2.259a5.153 5.153 0 0 1-.714.192c-.305.071-.692.106-1.161.106-.71 0-1.406-.153-2.088-.458a4.14 4.14 0 0 1-1.683-1.396c-.441-.625-.661-1.413-.661-2.365v-16.278Zm9.79 20.284v-16.364h2.429v2.472h.171c.298-.81.838-1.467 1.619-1.971s1.662-.756 2.642-.756c.185 0 .416.003.693.01.277.007.486.018.628.032v2.557a7.73 7.73 0 0 0-.586-.096 5.84 5.84 0 0 0-.948-.074c-.795 0-1.505.167-2.13.5a3.79 3.79 0 0 0-1.471 1.364c-.355.575-.532 1.232-.532 1.971V337h-2.515Zm13.28 6.136c-.426 0-.806-.035-1.14-.106-.334-.064-.565-.128-.692-.192l.639-2.216c.611.156 1.15.213 1.619.171.469-.043.884-.253 1.247-.629.369-.369.706-.969 1.012-1.8l.468-1.279-6.051-16.449h2.728l4.517 13.04h.17l4.517-13.04h2.727l-6.946 18.75c-.312.846-.699 1.545-1.161 2.099a4.357 4.357 0 0 1-1.609 1.247c-.603.269-1.285.404-2.045.404Zm35.79-22.5c-.128-1.079-.646-1.917-1.555-2.514-.909-.596-2.024-.895-3.345-.895-.966 0-1.812.157-2.536.469-.717.313-1.278.742-1.683 1.289a3.088 3.088 0 0 0-.597 1.864c0 .583.139 1.084.416 1.503.284.411.646.756 1.086 1.033.441.27.902.494 1.385.671.483.171.927.309 1.332.416l2.216.596c.568.149 1.2.355 1.896.618a8.807 8.807 0 0 1 2.014 1.076 5.49 5.49 0 0 1 1.598 1.726c.419.703.628 1.566.628 2.589 0 1.179-.309 2.244-.927 3.196-.61.951-1.505 1.708-2.684 2.269-1.172.561-2.596.842-4.272.842-1.563 0-2.916-.253-4.059-.757-1.137-.504-2.032-1.207-2.685-2.109-.646-.902-1.012-1.95-1.097-3.143h2.727c.071.824.348 1.506.831 2.045.49.533 1.108.931 1.854 1.194a7.522 7.522 0 0 0 2.429.383c1.008 0 1.914-.163 2.716-.49.803-.334 1.439-.795 1.907-1.385.469-.596.703-1.292.703-2.088 0-.724-.202-1.314-.607-1.768-.405-.455-.937-.824-1.598-1.108a16.765 16.765 0 0 0-2.141-.746l-2.685-.767c-1.704-.49-3.054-1.19-4.048-2.099-.994-.909-1.492-2.099-1.492-3.569 0-1.221.331-2.287.991-3.196.668-.916 1.563-1.626 2.685-2.13 1.129-.512 2.39-.767 3.782-.767 1.406 0 2.656.252 3.75.756 1.093.497 1.96 1.179 2.599 2.045a5.104 5.104 0 0 1 1.023 2.951h-2.557ZM453.83 337h-6.733v-21.818h7.031c2.117 0 3.928.437 5.434 1.31 1.505.867 2.659 2.113 3.462 3.74.803 1.619 1.204 3.558 1.204 5.816 0 2.273-.405 4.23-1.215 5.87-.809 1.634-1.988 2.891-3.537 3.772-1.548.873-3.43 1.31-5.646 1.31Zm-4.091-2.344h3.921c1.804 0 3.299-.348 4.485-1.044 1.186-.696 2.07-1.687 2.652-2.972.583-1.286.874-2.816.874-4.592 0-1.761-.288-3.277-.863-4.549-.575-1.278-1.435-2.258-2.578-2.94-1.144-.689-2.568-1.033-4.272-1.033h-4.219v17.13ZM468.66 337v-21.818h2.642v10.824h.255l9.801-10.824h3.452l-9.162 9.844L484.81 337h-3.196l-7.585-10.142-2.727 3.068V337h-2.642Z" fill="#7D88A1"/></g><g filter="url(#b)"><path d="M1766 293c0-5.523 4.48-10 10-10h70v82h-69c-6.08 0-11-4.925-11-11v-61Z" fill="#92A9EF"/><path d="M1791.3 330.449h29.25c2.7 0 4.8 2.25 4.8 4.8v3.3c0 2.7-2.25 4.8-4.8 4.8h-29.25c-2.55.15-4.8-2.1-4.8-4.65v-3.3c0-2.7 2.25-4.95 4.8-4.95Zm0-25.949h29.25c2.7 0 4.95 2.25 4.95 4.8v3.3c0 2.7-2.25 4.8-4.8 4.8h-29.4c-2.55.15-4.8-2.1-4.8-4.8v-3.3c0-2.55 2.25-4.8 4.8-4.8Z" stroke="#fff" stroke-width="3"/><path d="M1791.3 317.551h29.25c2.7 0 4.8 2.25 4.8 4.8v3.3c0 2.7-2.25 4.8-4.8 4.8h-29.25c-2.7 0-4.8-2.25-4.8-4.8v-3.3c0-2.7 2.25-4.8 4.8-4.8Z" stroke="#fff" stroke-width="3"/><path d="M1819.65 312.749a1.651 1.651 0 0 0 0-3.3 1.651 1.651 0 0 0 0 3.3Zm0 12.901a1.651 1.651 0 0 0 0-3.3 1.65 1.65 0 0 0 0 3.3Zm0 13.05a1.65 1.65 0 1 0 0-3.3 1.65 1.65 0 0 0 0 3.3ZM1846 283h177c5.52 0 10 4.477 10 10v62c0 5.523-4.48 10-10 10h-177v-82Z" fill="#fff"/><path d="M1880.91 337v-21.818h7.63c1.52 0 2.77.263 3.76.788.99.519 1.72 1.218 2.21 2.099.48.873.72 1.843.72 2.908 0 .938-.17 1.712-.5 2.323a3.928 3.928 0 0 1-1.3 1.449c-.53.355-1.11.617-1.74.788v.213c.67.043 1.34.277 2.02.703.67.426 1.24 1.037 1.69 1.833.45.795.68 1.768.68 2.919 0 1.093-.25 2.077-.74 2.951-.5.873-1.29 1.566-2.36 2.077-1.07.511-2.47.767-4.18.767h-7.89Zm2.64-2.344h5.25c1.72 0 2.95-.334 3.67-1.001.73-.675 1.1-1.492 1.1-2.45 0-.739-.19-1.421-.57-2.046-.37-.632-.91-1.136-1.61-1.513-.69-.383-1.52-.575-2.47-.575h-5.37v7.585Zm0-9.886h4.9c.8 0 1.52-.156 2.16-.469a3.813 3.813 0 0 0 1.53-1.321c.38-.568.58-1.236.58-2.003 0-.959-.34-1.772-1.01-2.439-.66-.675-1.72-1.012-3.17-1.012h-4.99v7.244Zm21.35 12.614c-1.04 0-1.98-.196-2.83-.586a4.887 4.887 0 0 1-2.01-1.716c-.5-.752-.74-1.662-.74-2.727 0-.937.18-1.697.55-2.28.37-.589.86-1.051 1.48-1.385.62-.333 1.3-.582 2.05-.745.75-.171 1.5-.306 2.26-.405 1-.128 1.81-.224 2.42-.288.63-.071 1.08-.188 1.37-.351.29-.164.43-.448.43-.853v-.085c0-1.051-.28-1.868-.86-2.45-.57-.583-1.43-.874-2.59-.874-1.2 0-2.14.263-2.82.789-.68.525-1.16 1.086-1.44 1.683l-2.39-.852c.43-.995 1-1.769 1.71-2.323.72-.561 1.5-.952 2.34-1.172a9.738 9.738 0 0 1 2.52-.341c.52 0 1.13.064 1.81.192.69.121 1.35.373 1.99.756.65.384 1.18.963 1.61 1.737.42.774.64 1.811.64 3.111V337h-2.52v-2.216h-.12c-.17.355-.46.735-.86 1.14-.39.405-.92.749-1.58 1.033-.66.284-1.47.427-2.42.427Zm.38-2.259c1 0 1.83-.195 2.52-.586.68-.391 1.2-.895 1.55-1.513.36-.618.53-1.267.53-1.949v-2.301c-.1.127-.34.245-.7.351-.35.1-.77.188-1.24.266-.46.071-.91.135-1.35.192-.43.05-.78.093-1.05.128-.66.085-1.27.224-1.84.416-.56.184-1.01.465-1.36.841-.34.369-.51.874-.51 1.513 0 .874.32 1.534.97 1.981.65.441 1.48.661 2.48.661Zm18.35 2.216c-1.53 0-2.85-.362-3.96-1.087-1.11-.724-1.96-1.722-2.56-2.993-.59-1.272-.89-2.724-.89-4.358 0-1.662.31-3.128.92-4.399.61-1.279 1.47-2.277 2.57-2.994 1.11-.724 2.4-1.087 3.88-1.087 1.15 0 2.19.213 3.11.639a5.922 5.922 0 0 1 2.27 1.79c.59.767.96 1.662 1.1 2.685h-2.52c-.19-.746-.61-1.406-1.27-1.982-.66-.582-1.54-.873-2.65-.873-.98 0-1.84.255-2.57.767-.74.504-1.31 1.218-1.72 2.141-.4.916-.61 1.992-.61 3.228 0 1.264.2 2.365.6 3.303.41.937.97 1.665 1.7 2.184.74.518 1.61.777 2.6.777.66 0 1.25-.113 1.78-.341.54-.227.99-.553 1.36-.98.37-.426.63-.937.78-1.534h2.52a5.709 5.709 0 0 1-1.06 2.61c-.55.767-1.28 1.378-2.2 1.833-.91.447-1.97.671-3.18.671Zm12.46-6.307-.04-3.111h.51l7.16-7.287h3.11l-7.63 7.713h-.21l-2.9 2.685Zm-2.35 5.966v-21.818h2.52V337h-2.52Zm10.4 0-6.39-8.097 1.79-1.747 7.8 9.844h-3.2Zm12.11.341c-1.58 0-2.94-.348-4.08-1.044-1.14-.703-2.01-1.683-2.63-2.94-.61-1.265-.92-2.735-.92-4.411 0-1.676.31-3.153.92-4.432.62-1.285 1.48-2.287 2.58-3.004 1.1-.724 2.4-1.087 3.87-1.087.86 0 1.7.142 2.53.426.83.285 1.59.746 2.27 1.385.68.632 1.22 1.471 1.63 2.515.4 1.044.61 2.329.61 3.856v1.065h-12.62v-2.173h10.06c0-.923-.19-1.747-.56-2.471a4.177 4.177 0 0 0-1.55-1.716c-.67-.419-1.46-.628-2.37-.628-1 0-1.86.248-2.6.746a4.93 4.93 0 0 0-1.67 1.917 5.64 5.64 0 0 0-.58 2.536v1.449c0 1.235.21 2.283.64 3.142.43.853 1.03 1.502 1.8 1.95.76.44 1.65.66 2.67.66.66 0 1.26-.092 1.79-.277.54-.191 1-.475 1.4-.852.39-.383.69-.859.9-1.427l2.43.681a5.481 5.481 0 0 1-1.29 2.174c-.6.618-1.35 1.101-2.24 1.449-.88.34-1.88.511-2.99.511Zm13.11-10.185V337h-2.51v-16.364h2.43v2.557h.21c.39-.831.97-1.498 1.75-2.003.78-.511 1.79-.767 3.02-.767 1.11 0 2.08.228 2.91.682.83.448 1.48 1.129 1.94 2.046.46.909.69 2.059.69 3.451V337h-2.51v-10.227c0-1.286-.33-2.287-1-3.005-.67-.724-1.58-1.086-2.75-1.086-.8 0-1.52.174-2.15.522-.63.348-1.12.856-1.48 1.523-.36.668-.55 1.478-.55 2.429Zm21.22 10.185c-1.37 0-2.57-.345-3.61-1.033-1.05-.696-1.86-1.677-2.45-2.941-.59-1.271-.89-2.773-.89-4.506 0-1.719.3-3.21.89-4.475.59-1.264 1.41-2.24 2.46-2.929 1.05-.689 2.26-1.034 3.64-1.034 1.07 0 1.91.178 2.53.533.62.348 1.1.746 1.42 1.193.34.44.6.803.78 1.087h.21v-8.054h2.52V337h-2.43v-2.514h-.3c-.18.298-.45.675-.79 1.129-.34.447-.83.849-1.46 1.204-.63.348-1.47.522-2.52.522Zm.34-2.259c1.01 0 1.86-.262 2.56-.788.69-.533 1.22-1.268 1.58-2.205.37-.945.55-2.035.55-3.271 0-1.221-.18-2.29-.54-3.206-.35-.924-.88-1.641-1.57-2.152-.7-.519-1.56-.778-2.58-.778-1.07 0-1.95.273-2.66.82-.71.54-1.24 1.275-1.59 2.205-.35.924-.52 1.961-.52 3.111 0 1.165.17 2.223.53 3.175.36.944.89 1.697 1.6 2.258.71.554 1.59.831 2.64.831Z" fill="#7D88A1"/></g><path d="M777.209 325.209a1.71 1.71 0 0 0 0-2.418l-10.883-10.884a1.712 1.712 0 0 0-2.419 0 1.712 1.712 0 0 0 0 2.419l9.674 9.674-9.674 9.674a1.712 1.712 0 0 0 0 2.419 1.712 1.712 0 0 0 2.419 0l10.883-10.884ZM518 325.71h258v-3.42H518v3.42Z" fill="#7D88A1"/><path fill="#fff" d="M578 297h138v55H578z"/><path d="M628.511 323.81c0 2.441-.463 4.517-1.388 6.229-.918 1.712-2.171 3.02-3.759 3.923-1.581.896-3.359 1.344-5.333 1.344-1.989 0-3.773-.452-5.354-1.355s-2.831-2.211-3.748-3.923c-.918-1.712-1.377-3.785-1.377-6.218 0-2.44.459-4.516 1.377-6.228.917-1.712 2.167-3.016 3.748-3.912 1.581-.904 3.365-1.355 5.354-1.355 1.974 0 3.752.451 5.333 1.355 1.588.896 2.841 2.2 3.759 3.912.925 1.712 1.388 3.788 1.388 6.228Zm-4.798 0c0-1.581-.236-2.914-.71-3.999-.466-1.086-1.125-1.909-1.978-2.47-.852-.561-1.85-.841-2.994-.841-1.144 0-2.142.28-2.994.841-.852.561-1.515 1.384-1.989 2.47-.466 1.085-.699 2.418-.699 3.999s.233 2.914.699 4c.474 1.085 1.137 1.908 1.989 2.469.852.561 1.85.842 2.994.842 1.144 0 2.142-.281 2.994-.842.853-.561 1.512-1.384 1.978-2.469.474-1.086.71-2.419.71-4Zm6.459-7.288v-3.902h18.38v3.902H641.7V335h-4.677v-18.478h-6.851ZM651.579 335v-22.38h4.731v18.479h9.595V335h-14.326Zm17.459 0v-22.38h8.829c1.698 0 3.144.325 4.339.973 1.194.641 2.105 1.534 2.731 2.677.634 1.137.951 2.448.951 3.934 0 1.486-.32 2.798-.961 3.934-.642 1.137-1.57 2.022-2.787 2.655-1.209.634-2.674.951-4.393.951h-5.627v-3.792h4.862c.911 0 1.661-.156 2.251-.47.598-.32 1.042-.761 1.333-1.322.299-.568.449-1.22.449-1.956 0-.743-.15-1.391-.449-1.945-.291-.561-.735-.994-1.333-1.3-.597-.314-1.355-.47-2.273-.47h-3.19V335h-4.732Z" fill="#7D88A1"/><g filter="url(#c)"><path d="M800 293c0-5.523 4.477-10 10-10h70v80h-69c-6.075 0-11-4.925-11-11v-59Z" fill="#8EA9EC"/><path d="M838.5 339.5c8.284 0 15-6.716 15-15 0-8.284-6.716-15-15-15-8.284 0-15 6.716-15 15 0 8.284 6.716 15 15 15Z" stroke="#fff" stroke-width="3" stroke-linecap="round" stroke-linejoin="round"/><path d="M838.5 330.5a6 6 0 1 0 0-12 6 6 0 0 0 0 12Zm15-6h6m-40.5 0h4.5m28.5-9 6-3m-6 21 6 3.75" stroke="#fff" stroke-width="3" stroke-linecap="round" stroke-linejoin="round"/><path d="M880 283h257c5.52 0 10 4.477 10 10v62c0 5.523-4.48 10-10 10H880v-82Z" fill="#fff"/><path d="M915.082 337v-21.818h2.643v19.474h10.142V337h-12.785Zm23.182.341c-1.477 0-2.773-.352-3.888-1.055-1.108-.703-1.975-1.687-2.6-2.951-.618-1.264-.926-2.741-.926-4.432 0-1.704.308-3.192.926-4.463.625-1.272 1.492-2.259 2.6-2.962 1.115-.703 2.411-1.055 3.888-1.055 1.478 0 2.77.352 3.878 1.055 1.115.703 1.982 1.69 2.6 2.962.625 1.271.937 2.759.937 4.463 0 1.691-.312 3.168-.937 4.432-.618 1.264-1.485 2.248-2.6 2.951-1.108.703-2.4 1.055-3.878 1.055Zm0-2.259c1.122 0 2.046-.287 2.77-.863.725-.575 1.261-1.331 1.609-2.269.348-.937.522-1.953.522-3.047a8.774 8.774 0 0 0-.522-3.057c-.348-.945-.884-1.708-1.609-2.291-.724-.582-1.648-.873-2.77-.873s-2.045.291-2.77.873c-.724.583-1.26 1.346-1.608 2.291a8.774 8.774 0 0 0-.522 3.057c0 1.094.174 2.11.522 3.047.348.938.884 1.694 1.608 2.269.725.576 1.648.863 2.77.863Zm16.068 2.302c-1.037 0-1.978-.196-2.823-.586a4.845 4.845 0 0 1-2.013-1.716c-.498-.752-.746-1.662-.746-2.727 0-.937.185-1.697.554-2.28a3.913 3.913 0 0 1 1.481-1.385 7.792 7.792 0 0 1 2.045-.745 24.57 24.57 0 0 1 2.269-.405 102.78 102.78 0 0 1 2.419-.288c.625-.071 1.079-.188 1.363-.351.291-.164.437-.448.437-.853v-.085c0-1.051-.288-1.868-.863-2.45-.568-.583-1.431-.874-2.589-.874-1.2 0-2.141.263-2.823.789-.682.525-1.161 1.086-1.438 1.683l-2.386-.852c.426-.995.994-1.769 1.704-2.323a6.395 6.395 0 0 1 2.344-1.172 9.739 9.739 0 0 1 2.514-.341c.526 0 1.129.064 1.811.192a5.808 5.808 0 0 1 1.992.756c.647.384 1.183.963 1.609 1.737.426.774.639 1.811.639 3.111V337h-2.514v-2.216h-.128c-.17.355-.454.735-.852 1.14-.398.405-.927.749-1.587 1.033-.661.284-1.467.427-2.419.427Zm.384-2.259c.994 0 1.832-.195 2.514-.586.689-.391 1.207-.895 1.555-1.513a3.844 3.844 0 0 0 .533-1.949v-2.301c-.106.127-.341.245-.703.351-.355.1-.767.188-1.236.266-.461.071-.912.135-1.353.192-.433.05-.785.093-1.054.128a9.563 9.563 0 0 0-1.833.416c-.561.184-1.016.465-1.364.841-.34.369-.511.874-.511 1.513 0 .874.323 1.534.97 1.981.653.441 1.48.661 2.482.661Zm17.884 2.216c-1.363 0-2.567-.345-3.611-1.033-1.044-.696-1.861-1.677-2.451-2.941-.589-1.271-.884-2.773-.884-4.506 0-1.719.295-3.21.884-4.475.59-1.264 1.41-2.24 2.461-2.929 1.052-.689 2.266-1.034 3.644-1.034 1.065 0 1.907.178 2.525.533.625.348 1.101.746 1.427 1.193.334.44.593.803.778 1.087h.213v-8.054h2.514V337h-2.429v-2.514h-.298c-.185.298-.447.675-.788 1.129-.341.447-.828.849-1.46 1.204-.632.348-1.474.522-2.525.522Zm.341-2.259c1.009 0 1.861-.262 2.557-.788.696-.533 1.225-1.268 1.587-2.205.363-.945.544-2.035.544-3.271 0-1.221-.178-2.29-.533-3.206-.355-.924-.881-1.641-1.577-2.152-.696-.519-1.555-.778-2.578-.778-1.065 0-1.953.273-2.663.82-.703.54-1.232 1.275-1.588 2.205-.348.924-.522 1.961-.522 3.111 0 1.165.178 2.223.533 3.175.362.944.895 1.697 1.598 2.258.71.554 1.591.831 2.642.831ZM993.832 337v-21.818h7.628c1.52 0 2.77.263 3.76.788.99.519 1.72 1.218 2.21 2.099.48.873.72 1.843.72 2.908 0 .938-.17 1.712-.5 2.323a3.928 3.928 0 0 1-1.3 1.449c-.53.355-1.11.617-1.74.788v.213c.67.043 1.34.277 2.02.703.67.426 1.24 1.037 1.69 1.833.46.795.68 1.768.68 2.919 0 1.093-.25 2.077-.74 2.951-.5.873-1.28 1.566-2.36 2.077-1.07.511-2.47.767-4.18.767h-7.888Zm2.643-2.344h5.245c1.72 0 2.95-.334 3.67-1.001.73-.675 1.1-1.492 1.1-2.45 0-.739-.19-1.421-.57-2.046-.37-.632-.91-1.136-1.6-1.513-.7-.383-1.52-.575-2.48-.575h-5.365v7.585Zm0-9.886h4.905c.79 0 1.51-.156 2.15-.469a3.813 3.813 0 0 0 1.53-1.321c.38-.568.58-1.236.58-2.003 0-.959-.34-1.772-1-2.439-.67-.675-1.73-1.012-3.18-1.012h-4.985v7.244Zm21.345 12.614c-1.04 0-1.98-.196-2.82-.586a4.853 4.853 0 0 1-2.02-1.716c-.5-.752-.74-1.662-.74-2.727 0-.937.18-1.697.55-2.28.37-.589.86-1.051 1.48-1.385.62-.333 1.3-.582 2.05-.745.75-.171 1.51-.306 2.27-.405.99-.128 1.8-.224 2.41-.288.63-.071 1.08-.188 1.37-.351.29-.164.43-.448.43-.853v-.085c0-1.051-.28-1.868-.86-2.45-.57-.583-1.43-.874-2.59-.874-1.2 0-2.14.263-2.82.789-.68.525-1.16 1.086-1.44 1.683l-2.39-.852c.43-.995 1-1.769 1.71-2.323.72-.561 1.5-.952 2.34-1.172a9.795 9.795 0 0 1 2.52-.341c.52 0 1.13.064 1.81.192.69.121 1.35.373 1.99.756.65.384 1.18.963 1.61 1.737.43.774.64 1.811.64 3.111V337h-2.52v-2.216h-.12c-.17.355-.46.735-.86 1.14-.39.405-.92.749-1.58 1.033-.66.284-1.47.427-2.42.427Zm.38-2.259c1 0 1.83-.195 2.52-.586.69-.391 1.2-.895 1.55-1.513.36-.618.53-1.267.53-1.949v-2.301c-.1.127-.34.245-.7.351-.35.1-.77.188-1.23.266-.47.071-.92.135-1.36.192-.43.05-.78.093-1.05.128-.66.085-1.27.224-1.83.416-.57.184-1.02.465-1.37.841-.34.369-.51.874-.51 1.513 0 .874.32 1.534.97 1.981.65.441 1.48.661 2.48.661Zm14.22-19.943V337h-2.51v-21.818h2.51Zm9.42 22.202c-1.03 0-1.98-.196-2.82-.586-.85-.398-1.52-.97-2.01-1.716-.5-.752-.75-1.662-.75-2.727 0-.937.18-1.697.55-2.28.37-.589.87-1.051 1.48-1.385.62-.333 1.3-.582 2.05-.745.75-.171 1.51-.306 2.27-.405.99-.128 1.8-.224 2.42-.288.62-.071 1.08-.188 1.36-.351.29-.164.44-.448.44-.853v-.085c0-1.051-.29-1.868-.87-2.45-.56-.583-1.43-.874-2.58-.874-1.2 0-2.15.263-2.83.789-.68.525-1.16 1.086-1.44 1.683l-2.38-.852c.42-.995.99-1.769 1.7-2.323.72-.561 1.5-.952 2.35-1.172a9.72 9.72 0 0 1 2.51-.341c.53 0 1.13.064 1.81.192.69.121 1.35.373 1.99.756.65.384 1.19.963 1.61 1.737.43.774.64 1.811.64 3.111V337h-2.51v-2.216h-.13c-.17.355-.45.735-.85 1.14-.4.405-.93.749-1.59 1.033-.66.284-1.47.427-2.42.427Zm.39-2.259c.99 0 1.83-.195 2.51-.586.69-.391 1.21-.895 1.56-1.513.35-.618.53-1.267.53-1.949v-2.301c-.11.127-.34.245-.71.351-.35.1-.76.188-1.23.266-.46.071-.91.135-1.35.192-.44.05-.79.093-1.06.128-.65.085-1.26.224-1.83.416-.56.184-1.02.465-1.36.841-.35.369-.52.874-.52 1.513 0 .874.33 1.534.97 1.981.66.441 1.48.661 2.49.661Zm14.22-7.969V337h-2.52v-16.364h2.43v2.557h.21c.39-.831.97-1.498 1.75-2.003.78-.511 1.79-.767 3.03-.767 1.1 0 2.07.228 2.9.682.84.448 1.48 1.129 1.94 2.046.46.909.7 2.059.7 3.451V337h-2.52v-10.227c0-1.286-.33-2.287-1-3.005-.67-.724-1.58-1.086-2.75-1.086-.8 0-1.52.174-2.15.522-.63.348-1.12.856-1.48 1.523-.36.668-.54 1.478-.54 2.429Zm21.68 10.185c-1.54 0-2.86-.362-3.97-1.087-1.1-.724-1.96-1.722-2.55-2.993-.6-1.272-.9-2.724-.9-4.358 0-1.662.31-3.128.92-4.399.62-1.279 1.48-2.277 2.58-2.994 1.11-.724 2.4-1.087 3.87-1.087 1.16 0 2.19.213 3.12.639.92.427 1.68 1.023 2.26 1.79.59.767.96 1.662 1.1 2.685h-2.51c-.19-.746-.62-1.406-1.28-1.982-.65-.582-1.53-.873-2.64-.873-.98 0-1.84.255-2.58.767-.73.504-1.3 1.218-1.72 2.141-.4.916-.6 1.992-.6 3.228 0 1.264.2 2.365.59 3.303.41.937.98 1.665 1.71 2.184.74.518 1.6.777 2.6.777.65 0 1.24-.113 1.78-.341.53-.227.98-.553 1.35-.98.37-.426.63-.937.79-1.534h2.51a5.805 5.805 0 0 1-1.05 2.61c-.56.767-1.29 1.378-2.21 1.833-.91.447-1.97.671-3.17.671Zm16.97 0c-1.58 0-2.94-.348-4.08-1.044-1.14-.703-2.02-1.683-2.63-2.94-.61-1.265-.92-2.735-.92-4.411 0-1.676.31-3.153.92-4.432.61-1.285 1.47-2.287 2.57-3.004 1.11-.724 2.41-1.087 3.88-1.087.86 0 1.7.142 2.53.426.83.285 1.58.746 2.27 1.385.68.632 1.22 1.471 1.63 2.515.4 1.044.6 2.329.6 3.856v1.065h-12.61v-2.173h10.06c0-.923-.19-1.747-.56-2.471a4.177 4.177 0 0 0-1.55-1.716c-.67-.419-1.46-.628-2.37-.628-1 0-1.87.248-2.6.746a4.93 4.93 0 0 0-1.67 1.917 5.65 5.65 0 0 0-.59 2.536v1.449c0 1.235.22 2.283.64 3.142.44.853 1.04 1.502 1.8 1.95.77.44 1.66.66 2.68.66.66 0 1.26-.092 1.79-.277.54-.191 1-.475 1.39-.852.39-.383.7-.859.91-1.427l2.43.681a5.481 5.481 0 0 1-1.29 2.174c-.6.618-1.35 1.101-2.24 1.449-.89.34-1.88.511-2.99.511Zm10.6-.341v-16.364h2.43v2.472h.17c.3-.81.84-1.467 1.62-1.971.78-.504 1.66-.756 2.64-.756.18 0 .41.003.69.01.28.007.49.018.63.032v2.557a7.172 7.172 0 0 0-.59-.096 5.706 5.706 0 0 0-.94-.074c-.8 0-1.51.167-2.13.5-.62.327-1.11.782-1.47 1.364-.36.575-.54 1.232-.54 1.971V337h-2.51Z" fill="#7D88A1"/></g><path d="M1314.21 325.209c.67-.668.67-1.75 0-2.418l-10.88-10.884a1.713 1.713 0 0 0-2.42 0 1.707 1.707 0 0 0 0 2.419l9.67 9.674-9.67 9.674a1.707 1.707 0 0 0 0 2.419c.67.667 1.75.667 2.42 0l10.88-10.884Zm-165.21.501h164v-3.42h-164v3.42Zm594.21-.501c.67-.668.67-1.75 0-2.418l-10.88-10.884a1.713 1.713 0 0 0-2.42 0 1.707 1.707 0 0 0 0 2.419l9.67 9.674-9.67 9.674a1.707 1.707 0 0 0 0 2.419c.67.667 1.75.667 2.42 0l10.88-10.884Zm-171.21.501h170v-3.42h-170v3.42Zm171.21-30.672c.67-.668.67-1.751 0-2.419l-10.88-10.883a1.712 1.712 0 0 0-2.42 2.418l9.67 9.674-9.67 9.674a1.712 1.712 0 0 0 2.42 2.419l10.88-10.883ZM1572 210.71c12.82 0 22.02.023 32.74 5.435 10.79 5.453 23.26 16.459 42.14 38.905l2.62-2.202c-18.93-22.503-31.77-33.972-43.22-39.756-11.53-5.825-21.52-5.802-34.28-5.802v3.42Zm74.88 44.34c18.93 22.5 31.13 32.802 44.58 37.316 6.71 2.252 13.65 3.032 21.72 3.261 8.02.228 17.4-.089 28.82-.089v-3.42c-11.6 0-20.74.317-28.72.091-7.93-.225-14.48-.987-20.73-3.086-12.49-4.189-24.17-13.827-43.05-36.275l-2.62 2.202Zm96.33 97.912c.67.668.67 1.751 0 2.419l-10.88 10.883a1.712 1.712 0 0 1-2.42-2.418l9.67-9.674-9.67-9.674a1.712 1.712 0 0 1 2.42-2.419l10.88 10.883ZM1572 437.29c12.82 0 22.02-.023 32.74-5.435 10.79-5.453 23.26-16.459 42.14-38.905l2.62 2.202c-18.93 22.503-31.77 33.972-43.22 39.756-11.53 5.825-21.52 5.802-34.28 5.802v-3.42Zm74.88-44.34c18.93-22.5 31.13-32.802 44.58-37.316 6.71-2.252 13.65-3.032 21.72-3.261 8.02-.228 17.4.089 28.82.089v3.42c-11.6 0-20.74-.317-28.72-.091-7.93.225-14.48.987-20.73 3.086-12.49 4.189-24.17 13.827-43.05 36.275l-2.62-2.202Zm-332.67 47.059c.67-.668.67-1.75 0-2.418l-10.88-10.884a1.713 1.713 0 0 0-2.42 0 1.707 1.707 0 0 0 0 2.419l9.67 9.674-9.67 9.674a1.707 1.707 0 0 0 0 2.419c.67.667 1.75.667 2.42 0l10.88-10.884ZM1149 341.71c12.36 0 21.16.028 31.44 6.294 10.4 6.342 22.43 19.164 40.66 45.326l2.8-1.956c-18.25-26.19-30.62-39.544-41.68-46.29-11.19-6.822-20.9-6.794-33.22-6.794v3.42Zm72.1 51.62c18.23 26.172 30 38.186 43.02 43.463 6.52 2.641 13.25 3.553 21.07 3.821 7.74.265 16.81-.104 27.81-.104v-3.42c-11.22 0-20.01.369-27.7.105-7.62-.261-13.9-1.145-19.89-3.572-12-4.859-23.27-16.069-41.51-42.249l-2.8 1.956Zm93.11-185.339c.67.668.67 1.75 0 2.418l-10.88 10.884c-.67.667-1.75.667-2.42 0a1.707 1.707 0 0 1 0-2.419l9.67-9.674-9.67-9.674a1.707 1.707 0 0 1 0-2.419 1.713 1.713 0 0 1 2.42 0l10.88 10.884ZM1149 306.29c12.36 0 21.16-.028 31.44-6.294 10.4-6.342 22.43-19.164 40.66-45.326l2.8 1.956c-18.25 26.19-30.62 39.544-41.68 46.29-11.19 6.822-20.9 6.794-33.22 6.794v-3.42Zm72.1-51.62c18.23-26.172 30-38.186 43.02-43.463 6.52-2.641 13.25-3.553 21.07-3.821 7.74-.265 16.81.104 27.81.104v3.42c-11.22 0-20.01-.369-27.7-.105-7.62.261-13.9 1.145-19.89 3.572-12 4.859-23.27 16.069-41.51 42.249l-2.8-1.956Z" fill="#7D88A1"/><g filter="url(#d)"><path d="M1337 179c0-5.523 4.48-10 10-10h220c5.52 0 10 4.477 10 10v62c0 5.523-4.48 10-10 10h-220c-5.52 0-10-4.477-10-10v-62Z" fill="#fff"/><path d="m1375 215.449 18 5.1v5.85l-18-5.1v-5.85Zm18 5.252 18-5.1v5.85l-18 5.1v-5.85ZM1375 215l13.5-3.75m9 0L1411 215m-13.5-24v13.5m-9-13.5v13.5m9 0 4.5 1.5m-18 0 4.5-1.5m4.5 10.5 9-9m-9 9-9-9m82-12h-18c-3.31 0-6 2.686-6 6v18c0 3.314 2.69 6 6 6h18c3.31 0 6-2.686 6-6v-18c0-3.314-2.69-6-6-6Z" stroke="#7D88A1" stroke-width="3" stroke-linecap="round" stroke-linejoin="round"/><path d="M1463 200h-12c-1.66 0-3 1.343-3 3v12c0 1.657 1.34 3 3 3h12c1.66 0 3-1.343 3-3v-12c0-1.657-1.34-3-3-3Zm-13.5-6v-6m0 42v-6m7.5-30v-6m0 42v-6m7.5-30v-6m0 42v-6m7.5-7.5h6m-42 0h6m30-7.5h6m-16.5 0h3.5m-15.5-3h3.5m2.5 11v-3.5M1436 209h6m30-7.5h6m-42 0h6m61 13.949 18 5.1v5.85l-18-5.1v-5.85Zm18 5.252 18-5.1v5.85l-18 5.1v-5.85ZM1503 215l13.5-3.75m9 0L1539 215m-22.5 0v-13.5m9 13.5v-13.5m-9 0-4.5-1.5m18 0-4.5 1.5M1521 191l-9 9m9-9 9 9" stroke="#7D88A1" stroke-width="3" stroke-linecap="round" stroke-linejoin="round"/></g><g filter="url(#e)"><path d="M1337 293c0-5.523 4.48-10 10-10h220c5.52 0 10 4.477 10 10v62c0 5.523-4.48 10-10 10h-220c-5.52 0-10-4.477-10-10v-62Z" fill="#fff"/><path d="m1375 329.449 18 5.1v5.85l-18-5.1v-5.85Zm18 5.252 18-5.1v5.85l-18 5.1v-5.85ZM1375 329l13.5-3.75m9 0L1411 329m-13.5-24v13.5m-9-13.5v13.5m9 0 4.5 1.5m-18 0 4.5-1.5m4.5 10.5 9-9m-9 9-9-9m82-12h-18c-3.31 0-6 2.686-6 6v18c0 3.314 2.69 6 6 6h18c3.31 0 6-2.686 6-6v-18c0-3.314-2.69-6-6-6Z" stroke="#7D88A1" stroke-width="3" stroke-linecap="round" stroke-linejoin="round"/><path d="M1463 314h-12c-1.66 0-3 1.343-3 3v12c0 1.657 1.34 3 3 3h12c1.66 0 3-1.343 3-3v-12c0-1.657-1.34-3-3-3Zm-13.5-6v-6m0 42v-6m7.5-30v-6m0 42v-6m7.5-30v-6m0 42v-6m7.5-7.5h6m-42 0h6m30-7.5h6m-16.5 0h3.5m-15.5-3h3.5m2.5 11v-3.5M1436 323h6m30-7.5h6m-42 0h6m61 13.949 18 5.1v5.85l-18-5.1v-5.85Zm18 5.252 18-5.1v5.85l-18 5.1v-5.85ZM1503 329l13.5-3.75m9 0L1539 329m-22.5 0v-13.5m9 13.5v-13.5m-9 0-4.5-1.5m18 0-4.5 1.5M1521 305l-9 9m9-9 9 9" stroke="#7D88A1" stroke-width="3" stroke-linecap="round" stroke-linejoin="round"/></g><g filter="url(#f)"><path d="M1337 407c0-5.523 4.48-10 10-10h220c5.52 0 10 4.477 10 10v62c0 5.523-4.48 10-10 10h-220c-5.52 0-10-4.477-10-10v-62Z" fill="#fff"/><path d="m1375 443.449 18 5.1v5.85l-18-5.1v-5.85Zm18 5.252 18-5.1v5.85l-18 5.1v-5.85ZM1375 443l13.5-3.75m9 0L1411 443m-13.5-24v13.5m-9-13.5v13.5m9 0 4.5 1.5m-18 0 4.5-1.5m4.5 10.5 9-9m-9 9-9-9m82-12h-18c-3.31 0-6 2.686-6 6v18c0 3.314 2.69 6 6 6h18c3.31 0 6-2.686 6-6v-18c0-3.314-2.69-6-6-6Z" stroke="#7D88A1" stroke-width="3" stroke-linecap="round" stroke-linejoin="round"/><path d="M1463 428h-12c-1.66 0-3 1.343-3 3v12c0 1.657 1.34 3 3 3h12c1.66 0 3-1.343 3-3v-12c0-1.657-1.34-3-3-3Zm-13.5-6v-6m0 42v-6m7.5-30v-6m0 42v-6m7.5-30v-6m0 42v-6m7.5-7.5h6m-42 0h6m30-7.5h6m-16.5 0h3.5m-15.5-3h3.5m2.5 11v-3.5M1436 437h6m30-7.5h6m-42 0h6m61 13.949 18 5.1v5.85l-18-5.1v-5.85Zm18 5.252 18-5.1v5.85l-18 5.1v-5.85ZM1503 443l13.5-3.75m9 0L1539 443m-22.5 0v-13.5m9 13.5v-13.5m-9 0-4.5-1.5m18 0-4.5 1.5M1521 419l-9 9m9-9 9 9" stroke="#7D88A1" stroke-width="3" stroke-linecap="round" stroke-linejoin="round"/></g><defs><filter id="a" x="104" y="275" width="430" height="114" filterUnits="userSpaceOnUse" color-interpolation-filters="sRGB"><feFlood flood-opacity="0" result="BackgroundImageFix"/><feColorMatrix in="SourceAlpha" values="0 0 0 0 0 0 0 0 0 0 0 0 0 0 0 0 0 0 127 0" result="hardAlpha"/><feOffset dy="8"/><feGaussianBlur stdDeviation="8"/><feColorMatrix values="0 0 0 0 0.337255 0 0 0 0 0.388235 0 0 0 0 0.505882 0 0 0 0.24 0"/><feBlend in2="BackgroundImageFix" result="effect1_dropShadow_394_1089"/><feBlend in="SourceGraphic" in2="effect1_dropShadow_394_1089" result="shape"/></filter><filter id="b" x="1750" y="275" width="299" height="114" filterUnits="userSpaceOnUse" color-interpolation-filters="sRGB"><feFlood flood-opacity="0" result="BackgroundImageFix"/><feColorMatrix in="SourceAlpha" values="0 0 0 0 0 0 0 0 0 0 0 0 0 0 0 0 0 0 127 0" result="hardAlpha"/><feOffset dy="8"/><feGaussianBlur stdDeviation="8"/><feColorMatrix values="0 0 0 0 0.337255 0 0 0 0 0.388235 0 0 0 0 0.505882 0 0 0 0.24 0"/><feBlend in2="BackgroundImageFix" result="effect1_dropShadow_394_1089"/><feBlend in="SourceGraphic" in2="effect1_dropShadow_394_1089" result="shape"/></filter><filter id="c" x="784" y="275" width="379" height="114" filterUnits="userSpaceOnUse" color-interpolation-filters="sRGB"><feFlood flood-opacity="0" result="BackgroundImageFix"/><feColorMatrix in="SourceAlpha" values="0 0 0 0 0 0 0 0 0 0 0 0 0 0 0 0 0 0 127 0" result="hardAlpha"/><feOffset dy="8"/><feGaussianBlur stdDeviation="8"/><feColorMatrix values="0 0 0 0 0.337255 0 0 0 0 0.388235 0 0 0 0 0.505882 0 0 0 0.24 0"/><feBlend in2="BackgroundImageFix" result="effect1_dropShadow_394_1089"/><feBlend in="SourceGraphic" in2="effect1_dropShadow_394_1089" result="shape"/></filter><filter id="d" x="1321" y="161" width="272" height="114" filterUnits="userSpaceOnUse" color-interpolation-filters="sRGB"><feFlood flood-opacity="0" result="BackgroundImageFix"/><feColorMatrix in="SourceAlpha" values="0 0 0 0 0 0 0 0 0 0 0 0 0 0 0 0 0 0 127 0" result="hardAlpha"/><feOffset dy="8"/><feGaussianBlur stdDeviation="8"/><feColorMatrix values="0 0 0 0 0.337255 0 0 0 0 0.388235 0 0 0 0 0.505882 0 0 0 0.24 0"/><feBlend in2="BackgroundImageFix" result="effect1_dropShadow_394_1089"/><feBlend in="SourceGraphic" in2="effect1_dropShadow_394_1089" result="shape"/></filter><filter id="e" x="1321" y="275" width="272" height="114" filterUnits="userSpaceOnUse" color-interpolation-filters="sRGB"><feFlood flood-opacity="0" result="BackgroundImageFix"/><feColorMatrix in="SourceAlpha" values="0 0 0 0 0 0 0 0 0 0 0 0 0 0 0 0 0 0 127 0" result="hardAlpha"/><feOffset dy="8"/><feGaussianBlur stdDeviation="8"/><feColorMatrix values="0 0 0 0 0.337255 0 0 0 0 0.388235 0 0 0 0 0.505882 0 0 0 0.24 0"/><feBlend in2="BackgroundImageFix" result="effect1_dropShadow_394_1089"/><feBlend in="SourceGraphic" in2="effect1_dropShadow_394_1089" result="shape"/></filter><filter id="f" x="1321" y="389" width="272" height="114" filterUnits="userSpaceOnUse" color-interpolation-filters="sRGB"><feFlood flood-opacity="0" result="BackgroundImageFix"/><feColorMatrix in="SourceAlpha" values="0 0 0 0 0 0 0 0 0 0 0 0 0 0 0 0 0 0 127 0" result="hardAlpha"/><feOffset dy="8"/><feGaussianBlur stdDeviation="8"/><feColorMatrix values="0 0 0 0 0.337255 0 0 0 0 0.388235 0 0 0 0 0.505882 0 0 0 0.24 0"/><feBlend in2="BackgroundImageFix" result="effect1_dropShadow_394_1089"/><feBlend in="SourceGraphic" in2="effect1_dropShadow_394_1089" result="shape"/></filter></defs></svg>