<svg width="985" height="379" viewBox="0 0 985 379" fill="none" xmlns="http://www.w3.org/2000/svg">
<rect width="985" height="379" rx="27" fill="white"/>
<rect x="558" y="80" width="219" height="478" rx="8" transform="rotate(90 558 80)" fill="#E7ECF8"/>
<path d="M125.805 138H120.732L128.461 115.613H134.561L142.278 138H137.206L131.598 120.729H131.423L125.805 138ZM125.488 129.2H137.468V132.895H125.488V129.2ZM144.885 144.296V121.209H149.476V124.03H149.684C149.888 123.578 150.183 123.119 150.569 122.652C150.963 122.179 151.473 121.785 152.1 121.472C152.734 121.151 153.521 120.991 154.461 120.991C155.685 120.991 156.815 121.312 157.85 121.953C158.885 122.587 159.712 123.545 160.331 124.828C160.951 126.103 161.26 127.703 161.26 129.627C161.26 131.5 160.958 133.081 160.353 134.371C159.755 135.653 158.939 136.626 157.904 137.289C156.877 137.945 155.725 138.273 154.45 138.273C153.546 138.273 152.778 138.124 152.144 137.825C151.517 137.526 151.003 137.151 150.602 136.699C150.201 136.24 149.895 135.777 149.684 135.311H149.542V144.296H144.885ZM149.444 129.605C149.444 130.603 149.582 131.474 149.859 132.217C150.136 132.961 150.537 133.54 151.061 133.955C151.586 134.364 152.224 134.568 152.974 134.568C153.732 134.568 154.374 134.36 154.898 133.944C155.423 133.522 155.82 132.939 156.09 132.195C156.367 131.445 156.505 130.581 156.505 129.605C156.505 128.635 156.37 127.783 156.101 127.047C155.831 126.311 155.434 125.735 154.909 125.32C154.384 124.904 153.74 124.697 152.974 124.697C152.216 124.697 151.575 124.897 151.05 125.298C150.533 125.699 150.136 126.267 149.859 127.003C149.582 127.739 149.444 128.606 149.444 129.605ZM164.365 144.296V121.209H168.956V124.03H169.164C169.368 123.578 169.663 123.119 170.049 122.652C170.443 122.179 170.953 121.785 171.579 121.472C172.213 121.151 173.001 120.991 173.941 120.991C175.165 120.991 176.294 121.312 177.329 121.953C178.364 122.587 179.191 123.545 179.811 124.828C180.43 126.103 180.74 127.703 180.74 129.627C180.74 131.5 180.437 133.081 179.833 134.371C179.235 135.653 178.419 136.626 177.384 137.289C176.356 137.945 175.205 138.273 173.93 138.273C173.026 138.273 172.257 138.124 171.623 137.825C170.996 137.526 170.483 137.151 170.082 136.699C169.681 136.24 169.375 135.777 169.164 135.311H169.022V144.296H164.365ZM168.923 129.605C168.923 130.603 169.062 131.474 169.339 132.217C169.615 132.961 170.016 133.54 170.541 133.955C171.066 134.364 171.703 134.568 172.454 134.568C173.212 134.568 173.853 134.36 174.378 133.944C174.903 133.522 175.3 132.939 175.569 132.195C175.846 131.445 175.985 130.581 175.985 129.605C175.985 128.635 175.85 127.783 175.58 127.047C175.311 126.311 174.914 125.735 174.389 125.32C173.864 124.904 173.219 124.697 172.454 124.697C171.696 124.697 171.055 124.897 170.53 125.298C170.013 125.699 169.615 126.267 169.339 127.003C169.062 127.739 168.923 128.606 168.923 129.605ZM188.501 115.613V138H183.844V115.613H188.501ZM192.231 138V121.209H196.888V138H192.231ZM194.582 119.045C193.889 119.045 193.295 118.816 192.8 118.356C192.304 117.89 192.057 117.333 192.057 116.684C192.057 116.043 192.304 115.492 192.8 115.033C193.295 114.567 193.886 114.334 194.571 114.334C195.27 114.334 195.864 114.567 196.353 115.033C196.848 115.492 197.096 116.043 197.096 116.684C197.096 117.333 196.848 117.89 196.353 118.356C195.864 118.816 195.274 119.045 194.582 119.045ZM208.205 138.328C206.485 138.328 205.006 137.964 203.767 137.235C202.535 136.499 201.588 135.479 200.925 134.174C200.269 132.87 199.941 131.368 199.941 129.67C199.941 127.95 200.272 126.442 200.936 125.145C201.606 123.84 202.557 122.824 203.789 122.095C205.02 121.359 206.485 120.991 208.183 120.991C209.648 120.991 210.93 121.257 212.031 121.789C213.131 122.321 214.002 123.068 214.643 124.03C215.285 124.992 215.638 126.121 215.704 127.418H211.309C211.185 126.58 210.858 125.906 210.326 125.396C209.801 124.879 209.112 124.62 208.26 124.62C207.538 124.62 206.908 124.817 206.368 125.21C205.836 125.597 205.421 126.161 205.122 126.905C204.823 127.648 204.674 128.548 204.674 129.605C204.674 130.676 204.82 131.587 205.111 132.338C205.41 133.088 205.829 133.66 206.368 134.054C206.908 134.447 207.538 134.644 208.26 134.644C208.791 134.644 209.269 134.535 209.692 134.316C210.121 134.098 210.475 133.781 210.752 133.365C211.036 132.942 211.222 132.436 211.309 131.846H215.704C215.631 133.128 215.281 134.258 214.654 135.234C214.035 136.204 213.179 136.962 212.085 137.508C210.992 138.055 209.699 138.328 208.205 138.328ZM223.473 138.317C222.402 138.317 221.447 138.131 220.609 137.76C219.771 137.381 219.108 136.823 218.62 136.087C218.139 135.344 217.898 134.418 217.898 133.31C217.898 132.378 218.069 131.594 218.412 130.96C218.754 130.326 219.221 129.816 219.811 129.43C220.401 129.044 221.072 128.752 221.823 128.555C222.58 128.359 223.375 128.22 224.206 128.14C225.182 128.038 225.969 127.943 226.567 127.856C227.164 127.761 227.598 127.623 227.868 127.44C228.137 127.258 228.272 126.989 228.272 126.631V126.566C228.272 125.874 228.053 125.338 227.616 124.959C227.186 124.58 226.574 124.391 225.78 124.391C224.942 124.391 224.275 124.576 223.779 124.948C223.284 125.312 222.956 125.771 222.795 126.325L218.488 125.976C218.707 124.955 219.137 124.073 219.778 123.33C220.42 122.58 221.247 122.004 222.26 121.603C223.28 121.195 224.461 120.991 225.802 120.991C226.734 120.991 227.627 121.1 228.48 121.319C229.34 121.537 230.101 121.876 230.764 122.335C231.435 122.795 231.963 123.385 232.349 124.106C232.736 124.82 232.929 125.677 232.929 126.675V138H228.513V135.672H228.381C228.112 136.196 227.751 136.659 227.299 137.06C226.847 137.453 226.304 137.763 225.67 137.989C225.036 138.208 224.304 138.317 223.473 138.317ZM224.807 135.103C225.492 135.103 226.097 134.968 226.621 134.699C227.146 134.422 227.558 134.05 227.857 133.584C228.155 133.117 228.305 132.589 228.305 131.999V130.217C228.159 130.312 227.959 130.399 227.704 130.479C227.456 130.552 227.175 130.621 226.862 130.687C226.549 130.745 226.235 130.8 225.922 130.851C225.608 130.895 225.324 130.935 225.069 130.971C224.523 131.051 224.045 131.179 223.637 131.354C223.229 131.529 222.912 131.766 222.686 132.064C222.46 132.356 222.347 132.72 222.347 133.157C222.347 133.791 222.577 134.276 223.036 134.611C223.502 134.939 224.093 135.103 224.807 135.103ZM245.472 121.209V124.708H235.361V121.209H245.472ZM237.657 117.187H242.313V132.84C242.313 133.27 242.379 133.606 242.51 133.846C242.641 134.079 242.823 134.243 243.057 134.338C243.297 134.433 243.574 134.48 243.887 134.48C244.106 134.48 244.325 134.462 244.543 134.425C244.762 134.382 244.93 134.349 245.046 134.327L245.779 137.792C245.545 137.865 245.217 137.949 244.795 138.044C244.372 138.146 243.858 138.208 243.253 138.23C242.131 138.273 241.147 138.124 240.302 137.781C239.464 137.439 238.812 136.907 238.345 136.185C237.879 135.464 237.649 134.553 237.657 133.453V117.187ZM248.506 138V121.209H253.163V138H248.506ZM250.856 119.045C250.164 119.045 249.57 118.816 249.074 118.356C248.579 117.89 248.331 117.333 248.331 116.684C248.331 116.043 248.579 115.492 249.074 115.033C249.57 114.567 250.16 114.334 250.845 114.334C251.545 114.334 252.139 114.567 252.627 115.033C253.123 115.492 253.37 116.043 253.37 116.684C253.37 117.333 253.123 117.89 252.627 118.356C252.139 118.816 251.548 119.045 250.856 119.045ZM264.479 138.328C262.781 138.328 261.313 137.967 260.074 137.246C258.842 136.517 257.891 135.504 257.221 134.207C256.55 132.902 256.215 131.39 256.215 129.67C256.215 127.936 256.55 126.42 257.221 125.123C257.891 123.818 258.842 122.805 260.074 122.084C261.313 121.355 262.781 120.991 264.479 120.991C266.177 120.991 267.642 121.355 268.874 122.084C270.113 122.805 271.067 123.818 271.738 125.123C272.408 126.42 272.743 127.936 272.743 129.67C272.743 131.39 272.408 132.902 271.738 134.207C271.067 135.504 270.113 136.517 268.874 137.246C267.642 137.967 266.177 138.328 264.479 138.328ZM264.501 134.721C265.274 134.721 265.919 134.502 266.436 134.065C266.953 133.62 267.343 133.015 267.606 132.25C267.875 131.485 268.01 130.614 268.01 129.638C268.01 128.661 267.875 127.79 267.606 127.025C267.343 126.26 266.953 125.655 266.436 125.21C265.919 124.766 265.274 124.544 264.501 124.544C263.721 124.544 263.066 124.766 262.534 125.21C262.009 125.655 261.612 126.26 261.342 127.025C261.08 127.79 260.948 128.661 260.948 129.638C260.948 130.614 261.08 131.485 261.342 132.25C261.612 133.015 262.009 133.62 262.534 134.065C263.066 134.502 263.721 134.721 264.501 134.721ZM280.428 128.293V138H275.771V121.209H280.209V124.172H280.406C280.778 123.195 281.401 122.423 282.275 121.854C283.15 121.279 284.21 120.991 285.457 120.991C286.623 120.991 287.639 121.246 288.506 121.756C289.374 122.266 290.048 122.995 290.529 123.942C291.01 124.882 291.25 126.005 291.25 127.309V138H286.593V128.14C286.601 127.112 286.338 126.311 285.806 125.735C285.274 125.152 284.542 124.861 283.609 124.861C282.982 124.861 282.429 124.995 281.948 125.265C281.474 125.535 281.102 125.928 280.833 126.446C280.57 126.956 280.435 127.572 280.428 128.293Z" fill="#8FA5ED"/>
<g filter="url(#filter0_d_394_2534)">
<path d="M120 187C120 181.477 124.477 177 130 177H200V259H131C124.925 259 120 254.075 120 248V187Z" fill="white"/>
<path d="M177.266 206.272H142.734C141.224 206.272 140 207.497 140 209.007V234.905C140 236.415 141.224 237.64 142.734 237.64H177.266C178.776 237.64 180 236.415 180 234.905V209.007C180 207.497 178.776 206.272 177.266 206.272Z" stroke="#7D88A1" stroke-width="3.16454"/>
<path d="M149.494 206.905V203.107C149.494 200.486 151.619 198.36 154.24 198.36H165.633C168.254 198.36 170.38 200.486 170.38 203.107V206.905" stroke="#7D88A1" stroke-width="3.16454"/>
<path d="M167.728 221.684C168.593 223.183 172.81 224.749 176.325 222.719C178.515 221.455 179.342 219.424 179.444 217.711C179.529 216.279 177.969 215.771 176.727 216.488C175.227 217.354 172.861 216.72 171.995 215.22C171.129 213.72 171.763 211.354 173.263 210.489C174.441 209.809 174.71 208.202 173.516 207.552C172.041 206.748 170.002 206.372 167.665 207.721C163.916 209.886 163.898 213.896 164.264 215.684" stroke="#7D88A1" stroke-width="3.16454" stroke-linecap="round"/>
<path d="M152.265 222.612C151.399 221.112 147.183 219.546 143.667 221.576C141.477 222.84 140.651 224.871 140.548 226.584C140.463 228.016 142.023 228.524 143.266 227.807C144.765 226.941 147.131 227.575 147.997 229.075C148.863 230.575 148.229 232.941 146.729 233.806C145.552 234.486 145.282 236.093 146.476 236.743C147.951 237.547 149.99 237.923 152.327 236.574C156.077 234.409 156.094 230.399 155.728 228.611" stroke="#7D88A1" stroke-width="3.16454" stroke-linecap="round"/>
<path d="M164.263 215.684L152.265 222.611" stroke="#7D88A1" stroke-width="3.16454" stroke-linecap="round"/>
<path d="M167.727 221.684L155.728 228.611" stroke="#7D88A1" stroke-width="3.16454" stroke-linecap="round"/>
<path d="M200 177H508C513.523 177 518 181.477 518 187V249C518 254.523 513.523 259 508 259H200V177Z" fill="white"/>
<path d="M221.463 220.091C221.463 222.392 221.048 224.381 220.217 226.057C219.386 227.733 218.246 229.026 216.797 229.935C215.348 230.844 213.693 231.298 211.833 231.298C209.972 231.298 208.317 230.844 206.868 229.935C205.419 229.026 204.279 227.733 203.448 226.057C202.617 224.381 202.202 222.392 202.202 220.091C202.202 217.79 202.617 215.801 203.448 214.125C204.279 212.449 205.419 211.156 206.868 210.247C208.317 209.338 209.972 208.884 211.833 208.884C213.693 208.884 215.348 209.338 216.797 210.247C218.246 211.156 219.386 212.449 220.217 214.125C221.048 215.801 221.463 217.79 221.463 220.091ZM218.906 220.091C218.906 218.202 218.59 216.607 217.958 215.308C217.333 214.008 216.485 213.024 215.412 212.357C214.347 211.689 213.154 211.355 211.833 211.355C210.512 211.355 209.315 211.689 208.242 212.357C207.177 213.024 206.328 214.008 205.696 215.308C205.071 216.607 204.759 218.202 204.759 220.091C204.759 221.98 205.071 223.575 205.696 224.874C206.328 226.174 207.177 227.158 208.242 227.825C209.315 228.493 210.512 228.827 211.833 228.827C213.154 228.827 214.347 228.493 215.412 227.825C216.485 227.158 217.333 226.174 217.958 224.874C218.59 223.575 218.906 221.98 218.906 220.091ZM225.565 237.136V214.636H227.994V217.236H228.292C228.477 216.952 228.732 216.589 229.059 216.149C229.393 215.702 229.869 215.304 230.487 214.956C231.112 214.601 231.957 214.423 233.022 214.423C234.4 214.423 235.615 214.768 236.666 215.457C237.717 216.146 238.537 217.122 239.127 218.386C239.716 219.651 240.011 221.142 240.011 222.861C240.011 224.594 239.716 226.096 239.127 227.367C238.537 228.631 237.72 229.612 236.676 230.308C235.632 230.996 234.428 231.341 233.065 231.341C232.014 231.341 231.172 231.167 230.54 230.819C229.908 230.464 229.421 230.062 229.08 229.615C228.74 229.161 228.477 228.784 228.292 228.486H228.079V237.136H225.565ZM228.036 222.818C228.036 224.054 228.218 225.144 228.58 226.089C228.942 227.026 229.471 227.761 230.167 228.294C230.863 228.82 231.715 229.082 232.724 229.082C233.775 229.082 234.652 228.805 235.355 228.251C236.066 227.69 236.598 226.937 236.953 225.993C237.316 225.041 237.497 223.983 237.497 222.818C237.497 221.668 237.319 220.631 236.964 219.707C236.616 218.777 236.087 218.042 235.377 217.502C234.673 216.955 233.789 216.682 232.724 216.682C231.701 216.682 230.842 216.941 230.146 217.46C229.45 217.971 228.924 218.688 228.569 219.612C228.214 220.528 228.036 221.597 228.036 222.818ZM250.707 231.341C249.13 231.341 247.77 230.993 246.627 230.297C245.49 229.594 244.613 228.614 243.995 227.357C243.384 226.092 243.079 224.622 243.079 222.946C243.079 221.27 243.384 219.793 243.995 218.514C244.613 217.229 245.472 216.227 246.573 215.51C247.681 214.786 248.974 214.423 250.451 214.423C251.303 214.423 252.145 214.565 252.976 214.849C253.807 215.134 254.563 215.595 255.245 216.234C255.927 216.866 256.47 217.705 256.875 218.749C257.28 219.793 257.482 221.078 257.482 222.605V223.67H244.869V221.497H254.926C254.926 220.574 254.741 219.75 254.372 219.026C254.009 218.301 253.491 217.729 252.816 217.31C252.149 216.891 251.36 216.682 250.451 216.682C249.45 216.682 248.583 216.93 247.852 217.428C247.127 217.918 246.57 218.557 246.179 219.345C245.789 220.134 245.593 220.979 245.593 221.881V223.33C245.593 224.565 245.806 225.613 246.232 226.472C246.666 227.325 247.266 227.974 248.033 228.422C248.8 228.862 249.691 229.082 250.707 229.082C251.367 229.082 251.964 228.99 252.497 228.805C253.036 228.614 253.502 228.33 253.892 227.953C254.283 227.57 254.585 227.094 254.798 226.526L257.227 227.207C256.971 228.031 256.541 228.756 255.938 229.381C255.334 229.999 254.588 230.482 253.7 230.83C252.813 231.17 251.815 231.341 250.707 231.341ZM263.821 221.156V231H261.307V214.636H263.736V217.193H263.949C264.333 216.362 264.915 215.695 265.696 215.19C266.477 214.679 267.486 214.423 268.722 214.423C269.83 214.423 270.799 214.651 271.63 215.105C272.461 215.553 273.107 216.234 273.569 217.151C274.031 218.06 274.262 219.21 274.262 220.602V231H271.747V220.773C271.747 219.487 271.414 218.486 270.746 217.768C270.078 217.044 269.162 216.682 267.997 216.682C267.195 216.682 266.477 216.856 265.845 217.204C265.22 217.552 264.727 218.06 264.365 218.727C264.002 219.395 263.821 220.205 263.821 221.156ZM276.627 211.526V209.182H292.99V211.526H286.129V231H283.487V211.526H276.627ZM301.215 231.341C299.638 231.341 298.278 230.993 297.134 230.297C295.998 229.594 295.121 228.614 294.503 227.357C293.892 226.092 293.587 224.622 293.587 222.946C293.587 221.27 293.892 219.793 294.503 218.514C295.121 217.229 295.98 216.227 297.081 215.51C298.189 214.786 299.482 214.423 300.959 214.423C301.811 214.423 302.653 214.565 303.484 214.849C304.315 215.134 305.071 215.595 305.753 216.234C306.435 216.866 306.978 217.705 307.383 218.749C307.788 219.793 307.99 221.078 307.99 222.605V223.67H295.377V221.497H305.433C305.433 220.574 305.249 219.75 304.879 219.026C304.517 218.301 303.999 217.729 303.324 217.31C302.656 216.891 301.868 216.682 300.959 216.682C299.958 216.682 299.091 216.93 298.36 217.428C297.635 217.918 297.078 218.557 296.687 219.345C296.296 220.134 296.101 220.979 296.101 221.881V223.33C296.101 224.565 296.314 225.613 296.74 226.472C297.173 227.325 297.774 227.974 298.541 228.422C299.308 228.862 300.199 229.082 301.215 229.082C301.875 229.082 302.472 228.99 303.004 228.805C303.544 228.614 304.009 228.33 304.4 227.953C304.791 227.57 305.093 227.094 305.306 226.526L307.735 227.207C307.479 228.031 307.049 228.756 306.445 229.381C305.842 229.999 305.096 230.482 304.208 230.83C303.32 231.17 302.323 231.341 301.215 231.341ZM314.329 209.182V231H311.815V209.182H314.329ZM325.795 231.341C324.218 231.341 322.858 230.993 321.714 230.297C320.578 229.594 319.701 228.614 319.083 227.357C318.472 226.092 318.167 224.622 318.167 222.946C318.167 221.27 318.472 219.793 319.083 218.514C319.701 217.229 320.56 216.227 321.661 215.51C322.769 214.786 324.062 214.423 325.539 214.423C326.391 214.423 327.233 214.565 328.064 214.849C328.895 215.134 329.651 215.595 330.333 216.234C331.015 216.866 331.558 217.705 331.963 218.749C332.368 219.793 332.57 221.078 332.57 222.605V223.67H319.957V221.497H330.013C330.013 220.574 329.829 219.75 329.46 219.026C329.097 218.301 328.579 217.729 327.904 217.31C327.237 216.891 326.448 216.682 325.539 216.682C324.538 216.682 323.671 216.93 322.94 217.428C322.215 217.918 321.658 218.557 321.267 219.345C320.876 220.134 320.681 220.979 320.681 221.881V223.33C320.681 224.565 320.894 225.613 321.32 226.472C321.754 227.325 322.354 227.974 323.121 228.422C323.888 228.862 324.779 229.082 325.795 229.082C326.455 229.082 327.052 228.99 327.585 228.805C328.124 228.614 328.589 228.33 328.98 227.953C329.371 227.57 329.673 227.094 329.886 226.526L332.315 227.207C332.059 228.031 331.629 228.756 331.026 229.381C330.422 229.999 329.676 230.482 328.788 230.83C327.901 231.17 326.903 231.341 325.795 231.341ZM336.395 231V214.636H338.824V217.193H339.037C339.378 216.32 339.928 215.641 340.688 215.158C341.448 214.668 342.361 214.423 343.426 214.423C344.506 214.423 345.404 214.668 346.121 215.158C346.846 215.641 347.411 216.32 347.815 217.193H347.986C348.405 216.348 349.033 215.677 349.871 215.18C350.71 214.675 351.714 214.423 352.886 214.423C354.349 214.423 355.546 214.881 356.477 215.798C357.407 216.707 357.872 218.124 357.872 220.048V231H355.358V220.048C355.358 218.841 355.028 217.978 354.367 217.46C353.707 216.941 352.929 216.682 352.034 216.682C350.884 216.682 349.992 217.03 349.36 217.726C348.728 218.415 348.412 219.288 348.412 220.347V231H345.855V219.793C345.855 218.862 345.553 218.113 344.95 217.545C344.346 216.969 343.568 216.682 342.616 216.682C341.963 216.682 341.352 216.856 340.784 217.204C340.223 217.552 339.768 218.035 339.42 218.653C339.08 219.263 338.909 219.97 338.909 220.773V231H336.395ZM369.33 231.341C367.753 231.341 366.393 230.993 365.25 230.297C364.113 229.594 363.236 228.614 362.618 227.357C362.007 226.092 361.702 224.622 361.702 222.946C361.702 221.27 362.007 219.793 362.618 218.514C363.236 217.229 364.096 216.227 365.196 215.51C366.304 214.786 367.597 214.423 369.074 214.423C369.926 214.423 370.768 214.565 371.599 214.849C372.43 215.134 373.186 215.595 373.868 216.234C374.55 216.866 375.093 217.705 375.498 218.749C375.903 219.793 376.105 221.078 376.105 222.605V223.67H363.492V221.497H373.549C373.549 220.574 373.364 219.75 372.995 219.026C372.632 218.301 372.114 217.729 371.439 217.31C370.772 216.891 369.983 216.682 369.074 216.682C368.073 216.682 367.206 216.93 366.475 217.428C365.75 217.918 365.193 218.557 364.802 219.345C364.412 220.134 364.216 220.979 364.216 221.881V223.33C364.216 224.565 364.429 225.613 364.855 226.472C365.289 227.325 365.889 227.974 366.656 228.422C367.423 228.862 368.314 229.082 369.33 229.082C369.99 229.082 370.587 228.99 371.12 228.805C371.659 228.614 372.125 228.33 372.515 227.953C372.906 227.57 373.208 227.094 373.421 226.526L375.85 227.207C375.594 228.031 375.164 228.756 374.561 229.381C373.957 229.999 373.211 230.482 372.324 230.83C371.436 231.17 370.438 231.341 369.33 231.341ZM387.047 214.636V216.767H378.566V214.636H387.047ZM381.038 210.716H383.552V226.312C383.552 227.023 383.655 227.555 383.861 227.911C384.074 228.259 384.344 228.493 384.671 228.614C385.005 228.727 385.356 228.784 385.725 228.784C386.002 228.784 386.23 228.77 386.407 228.741C386.585 228.706 386.727 228.678 386.833 228.656L387.345 230.915C387.174 230.979 386.936 231.043 386.631 231.107C386.326 231.178 385.939 231.213 385.47 231.213C384.76 231.213 384.064 231.06 383.382 230.755C382.707 230.45 382.146 229.984 381.699 229.359C381.258 228.734 381.038 227.946 381.038 226.994V210.716ZM390.828 231V214.636H393.257V217.108H393.428C393.726 216.298 394.266 215.641 395.047 215.137C395.828 214.633 396.709 214.381 397.689 214.381C397.874 214.381 398.105 214.384 398.382 214.391C398.659 214.398 398.868 214.409 399.01 214.423V216.98C398.925 216.959 398.73 216.927 398.424 216.884C398.126 216.835 397.81 216.81 397.476 216.81C396.681 216.81 395.971 216.977 395.346 217.31C394.728 217.637 394.238 218.092 393.875 218.674C393.52 219.249 393.343 219.906 393.343 220.645V231H390.828ZM404.108 237.136C403.682 237.136 403.302 237.101 402.968 237.03C402.634 236.966 402.403 236.902 402.276 236.838L402.915 234.622C403.526 234.778 404.065 234.835 404.534 234.793C405.003 234.75 405.418 234.54 405.781 234.164C406.15 233.795 406.487 233.195 406.793 232.364L407.261 231.085L401.21 214.636H403.938L408.455 227.676H408.625L413.142 214.636H415.869L408.923 233.386C408.611 234.232 408.224 234.931 407.762 235.485C407.3 236.046 406.764 236.462 406.153 236.732C405.55 237.001 404.868 237.136 404.108 237.136ZM439.898 214.636C439.77 213.557 439.252 212.719 438.343 212.122C437.434 211.526 436.319 211.227 434.998 211.227C434.032 211.227 433.186 211.384 432.462 211.696C431.745 212.009 431.184 212.438 430.779 212.985C430.381 213.532 430.182 214.153 430.182 214.849C430.182 215.432 430.321 215.933 430.598 216.352C430.882 216.763 431.244 217.108 431.684 217.385C432.125 217.655 432.586 217.879 433.069 218.056C433.552 218.227 433.996 218.365 434.401 218.472L436.617 219.068C437.185 219.217 437.817 219.423 438.513 219.686C439.216 219.949 439.887 220.308 440.527 220.762C441.173 221.21 441.706 221.785 442.125 222.488C442.544 223.191 442.753 224.054 442.753 225.077C442.753 226.256 442.444 227.321 441.826 228.273C441.216 229.224 440.321 229.981 439.142 230.542C437.97 231.103 436.546 231.384 434.87 231.384C433.307 231.384 431.954 231.131 430.811 230.627C429.674 230.123 428.779 229.42 428.126 228.518C427.48 227.616 427.114 226.568 427.029 225.375H429.756C429.827 226.199 430.104 226.881 430.587 227.42C431.077 227.953 431.695 228.351 432.441 228.614C433.194 228.869 434.003 228.997 434.87 228.997C435.878 228.997 436.784 228.834 437.586 228.507C438.389 228.173 439.025 227.712 439.493 227.122C439.962 226.526 440.196 225.83 440.196 225.034C440.196 224.31 439.994 223.72 439.589 223.266C439.184 222.811 438.652 222.442 437.991 222.158C437.331 221.874 436.617 221.625 435.85 221.412L433.165 220.645C431.461 220.155 430.111 219.455 429.117 218.546C428.123 217.637 427.625 216.447 427.625 214.977C427.625 213.756 427.956 212.69 428.616 211.781C429.284 210.865 430.179 210.155 431.301 209.651C432.43 209.139 433.691 208.884 435.083 208.884C436.489 208.884 437.739 209.136 438.833 209.64C439.926 210.137 440.793 210.819 441.432 211.685C442.078 212.552 442.419 213.536 442.455 214.636H439.898ZM453.83 231H447.097V209.182H454.128C456.245 209.182 458.056 209.619 459.562 210.492C461.067 211.359 462.221 212.605 463.024 214.232C463.827 215.851 464.228 217.79 464.228 220.048C464.228 222.321 463.823 224.278 463.013 225.918C462.204 227.552 461.025 228.809 459.476 229.69C457.928 230.563 456.046 231 453.83 231ZM449.739 228.656H453.66C455.464 228.656 456.959 228.308 458.145 227.612C459.331 226.916 460.215 225.925 460.797 224.64C461.38 223.354 461.671 221.824 461.671 220.048C461.671 218.287 461.383 216.771 460.808 215.499C460.233 214.221 459.373 213.241 458.23 212.559C457.086 211.87 455.662 211.526 453.958 211.526H449.739V228.656ZM468.66 231V209.182H471.302V220.006H471.557L481.358 209.182H484.81L475.648 219.026L484.81 231H481.614L474.029 220.858L471.302 223.926V231H468.66Z" fill="#7D88A1"/>
</g>
<g filter="url(#filter1_d_394_2534)">
<path d="M638 187C638 181.477 642.477 177 648 177H718V259H649C642.925 259 638 254.075 638 248V187Z" fill="#92A9EF"/>
<path d="M663.3 224.449H692.55C695.25 224.449 697.35 226.699 697.35 229.249V232.549C697.35 235.249 695.1 237.349 692.55 237.349H663.3C660.75 237.499 658.5 235.249 658.5 232.699V229.399C658.5 226.699 660.75 224.449 663.3 224.449Z" stroke="white" stroke-width="3"/>
<path d="M663.3 198.5H692.55C695.25 198.5 697.5 200.75 697.5 203.3V206.6C697.5 209.3 695.25 211.4 692.7 211.4H663.3C660.75 211.55 658.5 209.3 658.5 206.6V203.3C658.5 200.75 660.75 198.5 663.3 198.5Z" stroke="white" stroke-width="3"/>
<path d="M663.3 211.551H692.55C695.25 211.551 697.35 213.801 697.35 216.351V219.651C697.35 222.351 695.1 224.451 692.55 224.451H663.3C660.6 224.451 658.5 222.201 658.5 219.651V216.351C658.5 213.651 660.75 211.551 663.3 211.551Z" stroke="white" stroke-width="3"/>
<path d="M691.65 206.749C692.561 206.749 693.3 206.01 693.3 205.099C693.3 204.188 692.561 203.449 691.65 203.449C690.739 203.449 690 204.188 690 205.099C690 206.01 690.739 206.749 691.65 206.749Z" fill="white"/>
<path d="M691.65 219.65C692.561 219.65 693.3 218.911 693.3 218C693.3 217.088 692.561 216.35 691.65 216.35C690.739 216.35 690 217.088 690 218C690 218.911 690.739 219.65 691.65 219.65Z" fill="white"/>
<path d="M691.65 232.7C692.561 232.7 693.3 231.962 693.3 231.05C693.3 230.139 692.561 229.4 691.65 229.4C690.739 229.4 690 230.139 690 231.05C690 231.962 690.739 232.7 691.65 232.7Z" fill="white"/>
<path d="M718 177H895C900.523 177 905 181.477 905 187V249C905 254.523 900.523 259 895 259H718V177Z" fill="white"/>
<path d="M752.912 231V209.182H760.539C762.059 209.182 763.313 209.445 764.3 209.97C765.287 210.489 766.022 211.188 766.505 212.069C766.988 212.942 767.23 213.912 767.23 214.977C767.23 215.915 767.063 216.689 766.729 217.3C766.402 217.911 765.969 218.393 765.429 218.749C764.897 219.104 764.318 219.366 763.693 219.537V219.75C764.36 219.793 765.032 220.027 765.706 220.453C766.381 220.879 766.946 221.49 767.4 222.286C767.855 223.081 768.082 224.054 768.082 225.205C768.082 226.298 767.833 227.282 767.336 228.156C766.839 229.029 766.054 229.722 764.982 230.233C763.909 230.744 762.514 231 760.795 231H752.912ZM755.554 228.656H760.795C762.521 228.656 763.746 228.322 764.471 227.655C765.202 226.98 765.568 226.163 765.568 225.205C765.568 224.466 765.38 223.784 765.003 223.159C764.627 222.527 764.091 222.023 763.395 221.646C762.699 221.263 761.875 221.071 760.923 221.071H755.554V228.656ZM755.554 218.77H760.454C761.25 218.77 761.967 218.614 762.606 218.301C763.252 217.989 763.764 217.548 764.14 216.98C764.524 216.412 764.716 215.744 764.716 214.977C764.716 214.018 764.382 213.205 763.714 212.538C763.047 211.863 761.988 211.526 760.539 211.526H755.554V218.77ZM776.898 231.384C775.861 231.384 774.92 231.188 774.075 230.798C773.229 230.4 772.558 229.828 772.061 229.082C771.564 228.33 771.315 227.42 771.315 226.355C771.315 225.418 771.5 224.658 771.869 224.075C772.239 223.486 772.732 223.024 773.35 222.69C773.968 222.357 774.65 222.108 775.396 221.945C776.148 221.774 776.905 221.639 777.665 221.54C778.659 221.412 779.465 221.316 780.083 221.252C780.708 221.181 781.163 221.064 781.447 220.901C781.738 220.737 781.884 220.453 781.884 220.048V219.963C781.884 218.912 781.596 218.095 781.021 217.513C780.452 216.93 779.589 216.639 778.432 216.639C777.232 216.639 776.29 216.902 775.609 217.428C774.927 217.953 774.447 218.514 774.17 219.111L771.784 218.259C772.21 217.264 772.778 216.49 773.489 215.936C774.206 215.375 774.987 214.984 775.832 214.764C776.685 214.537 777.523 214.423 778.347 214.423C778.872 214.423 779.476 214.487 780.158 214.615C780.847 214.736 781.511 214.988 782.15 215.371C782.796 215.755 783.332 216.334 783.759 217.108C784.185 217.882 784.398 218.919 784.398 220.219V231H781.884V228.784H781.756C781.585 229.139 781.301 229.519 780.903 229.924C780.506 230.329 779.977 230.673 779.316 230.957C778.656 231.241 777.849 231.384 776.898 231.384ZM777.281 229.125C778.276 229.125 779.114 228.93 779.795 228.539C780.484 228.148 781.003 227.644 781.351 227.026C781.706 226.408 781.884 225.759 781.884 225.077V222.776C781.777 222.903 781.543 223.021 781.18 223.127C780.825 223.227 780.413 223.315 779.945 223.393C779.483 223.464 779.032 223.528 778.592 223.585C778.158 223.635 777.807 223.678 777.537 223.713C776.884 223.798 776.273 223.937 775.705 224.129C775.143 224.313 774.689 224.594 774.341 224.97C774 225.339 773.83 225.844 773.83 226.483C773.83 227.357 774.153 228.017 774.799 228.464C775.452 228.905 776.28 229.125 777.281 229.125ZM795.634 231.341C794.1 231.341 792.779 230.979 791.671 230.254C790.563 229.53 789.711 228.532 789.115 227.261C788.518 225.989 788.22 224.537 788.22 222.903C788.22 221.241 788.525 219.775 789.136 218.504C789.754 217.225 790.613 216.227 791.714 215.51C792.822 214.786 794.115 214.423 795.592 214.423C796.742 214.423 797.779 214.636 798.703 215.062C799.626 215.489 800.382 216.085 800.972 216.852C801.561 217.619 801.927 218.514 802.069 219.537H799.555C799.363 218.791 798.937 218.131 798.276 217.555C797.623 216.973 796.742 216.682 795.634 216.682C794.654 216.682 793.795 216.937 793.056 217.449C792.325 217.953 791.753 218.667 791.341 219.59C790.936 220.506 790.734 221.582 790.734 222.818C790.734 224.082 790.933 225.183 791.33 226.121C791.735 227.058 792.303 227.786 793.035 228.305C793.774 228.823 794.64 229.082 795.634 229.082C796.288 229.082 796.881 228.969 797.414 228.741C797.946 228.514 798.397 228.188 798.767 227.761C799.136 227.335 799.399 226.824 799.555 226.227H802.069C801.927 227.193 801.575 228.063 801.014 228.837C800.46 229.604 799.725 230.215 798.809 230.67C797.9 231.117 796.842 231.341 795.634 231.341ZM808.088 225.034L808.046 221.923H808.557L815.716 214.636H818.827L811.199 222.349H810.986L808.088 225.034ZM805.744 231V209.182H808.259V231H805.744ZM816.142 231L809.75 222.903L811.54 221.156L819.338 231H816.142ZM828.25 231.341C826.673 231.341 825.313 230.993 824.17 230.297C823.033 229.594 822.156 228.614 821.538 227.357C820.927 226.092 820.622 224.622 820.622 222.946C820.622 221.27 820.927 219.793 821.538 218.514C822.156 217.229 823.015 216.227 824.116 215.51C825.224 214.786 826.517 214.423 827.994 214.423C828.846 214.423 829.688 214.565 830.519 214.849C831.35 215.134 832.106 215.595 832.788 216.234C833.47 216.866 834.013 217.705 834.418 218.749C834.823 219.793 835.025 221.078 835.025 222.605V223.67H822.412V221.497H832.469C832.469 220.574 832.284 219.75 831.915 219.026C831.552 218.301 831.034 217.729 830.359 217.31C829.692 216.891 828.903 216.682 827.994 216.682C826.993 216.682 826.126 216.93 825.395 217.428C824.67 217.918 824.113 218.557 823.722 219.345C823.331 220.134 823.136 220.979 823.136 221.881V223.33C823.136 224.565 823.349 225.613 823.775 226.472C824.209 227.325 824.809 227.974 825.576 228.422C826.343 228.862 827.234 229.082 828.25 229.082C828.91 229.082 829.507 228.99 830.04 228.805C830.579 228.614 831.045 228.33 831.435 227.953C831.826 227.57 832.128 227.094 832.341 226.526L834.77 227.207C834.514 228.031 834.084 228.756 833.481 229.381C832.877 229.999 832.131 230.482 831.243 230.83C830.356 231.17 829.358 231.341 828.25 231.341ZM841.364 221.156V231H838.85V214.636H841.279V217.193H841.492C841.876 216.362 842.458 215.695 843.239 215.19C844.02 214.679 845.029 214.423 846.265 214.423C847.373 214.423 848.342 214.651 849.173 215.105C850.004 215.553 850.65 216.234 851.112 217.151C851.574 218.06 851.805 219.21 851.805 220.602V231H849.29V220.773C849.29 219.487 848.956 218.486 848.289 217.768C847.621 217.044 846.705 216.682 845.54 216.682C844.738 216.682 844.02 216.856 843.388 217.204C842.763 217.552 842.27 218.06 841.907 218.727C841.545 219.395 841.364 220.205 841.364 221.156ZM862.578 231.341C861.214 231.341 860.01 230.996 858.966 230.308C857.922 229.612 857.105 228.631 856.516 227.367C855.926 226.096 855.632 224.594 855.632 222.861C855.632 221.142 855.926 219.651 856.516 218.386C857.105 217.122 857.926 216.146 858.977 215.457C860.028 214.768 861.243 214.423 862.62 214.423C863.686 214.423 864.527 214.601 865.145 214.956C865.77 215.304 866.246 215.702 866.573 216.149C866.907 216.589 867.166 216.952 867.35 217.236H867.564V209.182H870.078V231H867.649V228.486H867.35C867.166 228.784 866.903 229.161 866.562 229.615C866.221 230.062 865.735 230.464 865.103 230.819C864.471 231.167 863.629 231.341 862.578 231.341ZM862.919 229.082C863.927 229.082 864.779 228.82 865.475 228.294C866.172 227.761 866.701 227.026 867.063 226.089C867.425 225.144 867.606 224.054 867.606 222.818C867.606 221.597 867.429 220.528 867.074 219.612C866.718 218.688 866.193 217.971 865.497 217.46C864.801 216.941 863.941 216.682 862.919 216.682C861.853 216.682 860.966 216.955 860.255 217.502C859.552 218.042 859.023 218.777 858.668 219.707C858.32 220.631 858.146 221.668 858.146 222.818C858.146 223.983 858.324 225.041 858.679 225.993C859.041 226.937 859.574 227.69 860.277 228.251C860.987 228.805 861.868 229.082 862.919 229.082Z" fill="#7D88A1"/>
</g>
<path d="M615.209 219.209C615.877 218.541 615.877 217.459 615.209 216.791L604.326 205.907C603.658 205.24 602.575 205.24 601.907 205.907C601.24 206.575 601.24 207.658 601.907 208.326L611.581 218L601.907 227.674C601.24 228.342 601.24 229.425 601.907 230.093C602.575 230.76 603.658 230.76 604.326 230.093L615.209 219.209ZM518 219.71H614V216.29H518V219.71Z" fill="#7D88A1"/>
<defs>
<filter id="filter0_d_394_2534" x="104" y="169" width="430" height="114" filterUnits="userSpaceOnUse" color-interpolation-filters="sRGB">
<feFlood flood-opacity="0" result="BackgroundImageFix"/>
<feColorMatrix in="SourceAlpha" type="matrix" values="0 0 0 0 0 0 0 0 0 0 0 0 0 0 0 0 0 0 127 0" result="hardAlpha"/>
<feOffset dy="8"/>
<feGaussianBlur stdDeviation="8"/>
<feColorMatrix type="matrix" values="0 0 0 0 0.337255 0 0 0 0 0.388235 0 0 0 0 0.505882 0 0 0 0.24 0"/>
<feBlend mode="normal" in2="BackgroundImageFix" result="effect1_dropShadow_394_2534"/>
<feBlend mode="normal" in="SourceGraphic" in2="effect1_dropShadow_394_2534" result="shape"/>
</filter>
<filter id="filter1_d_394_2534" x="622" y="169" width="299" height="114" filterUnits="userSpaceOnUse" color-interpolation-filters="sRGB">
<feFlood flood-opacity="0" result="BackgroundImageFix"/>
<feColorMatrix in="SourceAlpha" type="matrix" values="0 0 0 0 0 0 0 0 0 0 0 0 0 0 0 0 0 0 127 0" result="hardAlpha"/>
<feOffset dy="8"/>
<feGaussianBlur stdDeviation="8"/>
<feColorMatrix type="matrix" values="0 0 0 0 0.337255 0 0 0 0 0.388235 0 0 0 0 0.505882 0 0 0 0.24 0"/>
<feBlend mode="normal" in2="BackgroundImageFix" result="effect1_dropShadow_394_2534"/>
<feBlend mode="normal" in="SourceGraphic" in2="effect1_dropShadow_394_2534" result="shape"/>
</filter>
</defs>
</svg>
