<svg width="2113" height="599" viewBox="0 0 2113 599" fill="none" xmlns="http://www.w3.org/2000/svg">
<rect width="2113" height="599" rx="27" fill="white"/>
<rect x="558" y="186" width="219" height="478" rx="8" transform="rotate(90 558 186)" fill="#E7ECF8"/>
<rect x="1686" y="80" width="439" height="459" rx="8" transform="rotate(90 1686 80)" fill="#E7ECF8"/>
<path d="M125.805 244H120.732L128.461 221.613H134.561L142.278 244H137.206L131.598 226.729H131.423L125.805 244ZM125.488 235.2H137.468V238.895H125.488V235.2ZM144.885 250.296V227.209H149.476V230.03H149.684C149.888 229.578 150.183 229.119 150.569 228.652C150.963 228.179 151.473 227.785 152.1 227.472C152.734 227.151 153.521 226.991 154.461 226.991C155.685 226.991 156.815 227.312 157.85 227.953C158.885 228.587 159.712 229.545 160.331 230.828C160.951 232.103 161.26 233.703 161.26 235.627C161.26 237.5 160.958 239.081 160.353 240.371C159.755 241.653 158.939 242.626 157.904 243.289C156.877 243.945 155.725 244.273 154.45 244.273C153.546 244.273 152.778 244.124 152.144 243.825C151.517 243.526 151.003 243.151 150.602 242.699C150.201 242.24 149.895 241.777 149.684 241.311H149.542V250.296H144.885ZM149.444 235.605C149.444 236.603 149.582 237.474 149.859 238.217C150.136 238.961 150.537 239.54 151.061 239.955C151.586 240.364 152.224 240.568 152.974 240.568C153.732 240.568 154.374 240.36 154.898 239.944C155.423 239.522 155.82 238.939 156.09 238.195C156.367 237.445 156.505 236.581 156.505 235.605C156.505 234.635 156.37 233.783 156.101 233.047C155.831 232.311 155.434 231.735 154.909 231.32C154.384 230.904 153.74 230.697 152.974 230.697C152.216 230.697 151.575 230.897 151.05 231.298C150.533 231.699 150.136 232.267 149.859 233.003C149.582 233.739 149.444 234.606 149.444 235.605ZM164.365 250.296V227.209H168.956V230.03H169.164C169.368 229.578 169.663 229.119 170.049 228.652C170.443 228.179 170.953 227.785 171.579 227.472C172.213 227.151 173.001 226.991 173.941 226.991C175.165 226.991 176.294 227.312 177.329 227.953C178.364 228.587 179.191 229.545 179.811 230.828C180.43 232.103 180.74 233.703 180.74 235.627C180.74 237.5 180.437 239.081 179.833 240.371C179.235 241.653 178.419 242.626 177.384 243.289C176.356 243.945 175.205 244.273 173.93 244.273C173.026 244.273 172.257 244.124 171.623 243.825C170.996 243.526 170.483 243.151 170.082 242.699C169.681 242.24 169.375 241.777 169.164 241.311H169.022V250.296H164.365ZM168.923 235.605C168.923 236.603 169.062 237.474 169.339 238.217C169.615 238.961 170.016 239.54 170.541 239.955C171.066 240.364 171.703 240.568 172.454 240.568C173.212 240.568 173.853 240.36 174.378 239.944C174.903 239.522 175.3 238.939 175.569 238.195C175.846 237.445 175.985 236.581 175.985 235.605C175.985 234.635 175.85 233.783 175.58 233.047C175.311 232.311 174.914 231.735 174.389 231.32C173.864 230.904 173.219 230.697 172.454 230.697C171.696 230.697 171.055 230.897 170.53 231.298C170.013 231.699 169.615 232.267 169.339 233.003C169.062 233.739 168.923 234.606 168.923 235.605ZM188.501 221.613V244H183.844V221.613H188.501ZM192.231 244V227.209H196.888V244H192.231ZM194.582 225.045C193.889 225.045 193.295 224.816 192.8 224.356C192.304 223.89 192.057 223.333 192.057 222.684C192.057 222.043 192.304 221.492 192.8 221.033C193.295 220.567 193.886 220.334 194.571 220.334C195.27 220.334 195.864 220.567 196.353 221.033C196.848 221.492 197.096 222.043 197.096 222.684C197.096 223.333 196.848 223.89 196.353 224.356C195.864 224.816 195.274 225.045 194.582 225.045ZM208.205 244.328C206.485 244.328 205.006 243.964 203.767 243.235C202.535 242.499 201.588 241.479 200.925 240.174C200.269 238.87 199.941 237.368 199.941 235.67C199.941 233.95 200.272 232.442 200.936 231.145C201.606 229.84 202.557 228.824 203.789 228.095C205.02 227.359 206.485 226.991 208.183 226.991C209.648 226.991 210.93 227.257 212.031 227.789C213.131 228.321 214.002 229.068 214.643 230.03C215.285 230.992 215.638 232.121 215.704 233.418H211.309C211.185 232.58 210.858 231.906 210.326 231.396C209.801 230.879 209.112 230.62 208.26 230.62C207.538 230.62 206.908 230.817 206.368 231.21C205.836 231.597 205.421 232.161 205.122 232.905C204.823 233.648 204.674 234.548 204.674 235.605C204.674 236.676 204.82 237.587 205.111 238.338C205.41 239.088 205.829 239.66 206.368 240.054C206.908 240.447 207.538 240.644 208.26 240.644C208.791 240.644 209.269 240.535 209.692 240.316C210.121 240.098 210.475 239.781 210.752 239.365C211.036 238.942 211.222 238.436 211.309 237.846H215.704C215.631 239.128 215.281 240.258 214.654 241.234C214.035 242.204 213.179 242.962 212.085 243.508C210.992 244.055 209.699 244.328 208.205 244.328ZM223.473 244.317C222.402 244.317 221.447 244.131 220.609 243.76C219.771 243.381 219.108 242.823 218.62 242.087C218.139 241.344 217.898 240.418 217.898 239.31C217.898 238.378 218.069 237.594 218.412 236.96C218.754 236.326 219.221 235.816 219.811 235.43C220.401 235.044 221.072 234.752 221.823 234.555C222.58 234.359 223.375 234.22 224.206 234.14C225.182 234.038 225.969 233.943 226.567 233.856C227.164 233.761 227.598 233.623 227.868 233.44C228.137 233.258 228.272 232.989 228.272 232.631V232.566C228.272 231.874 228.053 231.338 227.616 230.959C227.186 230.58 226.574 230.391 225.78 230.391C224.942 230.391 224.275 230.576 223.779 230.948C223.284 231.312 222.956 231.771 222.795 232.325L218.488 231.976C218.707 230.955 219.137 230.073 219.778 229.33C220.42 228.58 221.247 228.004 222.26 227.603C223.28 227.195 224.461 226.991 225.802 226.991C226.734 226.991 227.627 227.1 228.48 227.319C229.34 227.537 230.101 227.876 230.764 228.335C231.435 228.795 231.963 229.385 232.349 230.106C232.736 230.82 232.929 231.677 232.929 232.675V244H228.513V241.672H228.381C228.112 242.196 227.751 242.659 227.299 243.06C226.847 243.453 226.304 243.763 225.67 243.989C225.036 244.208 224.304 244.317 223.473 244.317ZM224.807 241.103C225.492 241.103 226.097 240.968 226.621 240.699C227.146 240.422 227.558 240.05 227.857 239.584C228.155 239.117 228.305 238.589 228.305 237.999V236.217C228.159 236.312 227.959 236.399 227.704 236.479C227.456 236.552 227.175 236.621 226.862 236.687C226.549 236.745 226.235 236.8 225.922 236.851C225.608 236.895 225.324 236.935 225.069 236.971C224.523 237.051 224.045 237.179 223.637 237.354C223.229 237.529 222.912 237.766 222.686 238.064C222.46 238.356 222.347 238.72 222.347 239.157C222.347 239.791 222.577 240.276 223.036 240.611C223.502 240.939 224.093 241.103 224.807 241.103ZM245.472 227.209V230.708H235.361V227.209H245.472ZM237.657 223.187H242.313V238.84C242.313 239.27 242.379 239.606 242.51 239.846C242.641 240.079 242.823 240.243 243.057 240.338C243.297 240.433 243.574 240.48 243.887 240.48C244.106 240.48 244.325 240.462 244.543 240.425C244.762 240.382 244.93 240.349 245.046 240.327L245.779 243.792C245.545 243.865 245.217 243.949 244.795 244.044C244.372 244.146 243.858 244.208 243.253 244.23C242.131 244.273 241.147 244.124 240.302 243.781C239.464 243.439 238.812 242.907 238.345 242.185C237.879 241.464 237.649 240.553 237.657 239.453V223.187ZM248.506 244V227.209H253.163V244H248.506ZM250.856 225.045C250.164 225.045 249.57 224.816 249.074 224.356C248.579 223.89 248.331 223.333 248.331 222.684C248.331 222.043 248.579 221.492 249.074 221.033C249.57 220.567 250.16 220.334 250.845 220.334C251.545 220.334 252.139 220.567 252.627 221.033C253.123 221.492 253.37 222.043 253.37 222.684C253.37 223.333 253.123 223.89 252.627 224.356C252.139 224.816 251.548 225.045 250.856 225.045ZM264.479 244.328C262.781 244.328 261.313 243.967 260.074 243.246C258.842 242.517 257.891 241.504 257.221 240.207C256.55 238.902 256.215 237.39 256.215 235.67C256.215 233.936 256.55 232.42 257.221 231.123C257.891 229.818 258.842 228.805 260.074 228.084C261.313 227.355 262.781 226.991 264.479 226.991C266.177 226.991 267.642 227.355 268.874 228.084C270.113 228.805 271.067 229.818 271.738 231.123C272.408 232.42 272.743 233.936 272.743 235.67C272.743 237.39 272.408 238.902 271.738 240.207C271.067 241.504 270.113 242.517 268.874 243.246C267.642 243.967 266.177 244.328 264.479 244.328ZM264.501 240.721C265.274 240.721 265.919 240.502 266.436 240.065C266.953 239.62 267.343 239.015 267.606 238.25C267.875 237.485 268.01 236.614 268.01 235.638C268.01 234.661 267.875 233.79 267.606 233.025C267.343 232.26 266.953 231.655 266.436 231.21C265.919 230.766 265.274 230.544 264.501 230.544C263.721 230.544 263.066 230.766 262.534 231.21C262.009 231.655 261.612 232.26 261.342 233.025C261.08 233.79 260.948 234.661 260.948 235.638C260.948 236.614 261.08 237.485 261.342 238.25C261.612 239.015 262.009 239.62 262.534 240.065C263.066 240.502 263.721 240.721 264.501 240.721ZM280.428 234.293V244H275.771V227.209H280.209V230.172H280.406C280.778 229.195 281.401 228.423 282.275 227.854C283.15 227.279 284.21 226.991 285.457 226.991C286.623 226.991 287.639 227.246 288.506 227.756C289.374 228.266 290.048 228.995 290.529 229.942C291.01 230.882 291.25 232.005 291.25 233.309V244H286.593V234.14C286.601 233.112 286.338 232.311 285.806 231.735C285.274 231.152 284.542 230.861 283.609 230.861C282.982 230.861 282.429 230.995 281.948 231.265C281.474 231.535 281.102 231.928 280.833 232.446C280.57 232.956 280.435 233.572 280.428 234.293Z" fill="#8FA5ED"/>
<path d="M1289.52 126.806C1289.52 129.248 1289.06 131.325 1288.13 133.037C1287.21 134.75 1285.96 136.058 1284.37 136.962C1282.79 137.858 1281.01 138.306 1279.04 138.306C1277.05 138.306 1275.26 137.854 1273.68 136.951C1272.1 136.047 1270.85 134.739 1269.93 133.026C1269.01 131.314 1268.55 129.24 1268.55 126.806C1268.55 124.365 1269.01 122.288 1269.93 120.575C1270.85 118.863 1272.1 117.558 1273.68 116.662C1275.26 115.758 1277.05 115.307 1279.04 115.307C1281.01 115.307 1282.79 115.758 1284.37 116.662C1285.96 117.558 1287.21 118.863 1288.13 120.575C1289.06 122.288 1289.52 124.365 1289.52 126.806ZM1284.72 126.806C1284.72 125.225 1284.48 123.891 1284.01 122.805C1283.54 121.72 1282.88 120.896 1282.03 120.335C1281.18 119.774 1280.18 119.493 1279.04 119.493C1277.89 119.493 1276.89 119.774 1276.04 120.335C1275.19 120.896 1274.52 121.72 1274.05 122.805C1273.58 123.891 1273.35 125.225 1273.35 126.806C1273.35 128.388 1273.58 129.721 1274.05 130.807C1274.52 131.893 1275.19 132.717 1276.04 133.278C1276.89 133.839 1277.89 134.119 1279.04 134.119C1280.18 134.119 1281.18 133.839 1282.03 133.278C1282.88 132.717 1283.54 131.893 1284.01 130.807C1284.48 129.721 1284.72 128.388 1284.72 126.806ZM1292.94 144.296V121.209H1297.53V124.03H1297.74C1297.94 123.578 1298.24 123.119 1298.62 122.652C1299.02 122.179 1299.53 121.785 1300.15 121.472C1300.79 121.151 1301.57 120.991 1302.51 120.991C1303.74 120.991 1304.87 121.312 1305.9 121.953C1306.94 122.587 1307.76 123.545 1308.38 124.828C1309 126.103 1309.31 127.703 1309.31 129.627C1309.31 131.5 1309.01 133.081 1308.41 134.371C1307.81 135.653 1306.99 136.626 1305.96 137.289C1304.93 137.945 1303.78 138.273 1302.5 138.273C1301.6 138.273 1300.83 138.124 1300.2 137.825C1299.57 137.526 1299.06 137.151 1298.65 136.699C1298.25 136.24 1297.95 135.777 1297.74 135.311H1297.59V144.296H1292.94ZM1297.5 129.605C1297.5 130.603 1297.63 131.474 1297.91 132.217C1298.19 132.961 1298.59 133.54 1299.11 133.955C1299.64 134.364 1300.28 134.568 1301.03 134.568C1301.78 134.568 1302.43 134.36 1302.95 133.944C1303.48 133.522 1303.87 132.939 1304.14 132.195C1304.42 131.445 1304.56 130.581 1304.56 129.605C1304.56 128.635 1304.42 127.783 1304.15 127.047C1303.88 126.311 1303.49 125.735 1302.96 125.32C1302.44 124.904 1301.79 124.697 1301.03 124.697C1300.27 124.697 1299.63 124.897 1299.1 125.298C1298.59 125.699 1298.19 126.267 1297.91 127.003C1297.63 127.739 1297.5 128.606 1297.5 129.605ZM1320.07 138.328C1318.34 138.328 1316.86 137.978 1315.61 137.279C1314.37 136.572 1313.42 135.573 1312.74 134.283C1312.07 132.986 1311.74 131.452 1311.74 129.681C1311.74 127.954 1312.07 126.438 1312.74 125.134C1313.42 123.829 1314.36 122.813 1315.58 122.084C1316.8 121.355 1318.24 120.991 1319.88 120.991C1320.99 120.991 1322.02 121.169 1322.98 121.526C1323.94 121.876 1324.78 122.405 1325.49 123.112C1326.21 123.818 1326.77 124.708 1327.17 125.779C1327.58 126.843 1327.78 128.089 1327.78 129.517V130.796H1313.6V127.91H1323.39C1323.39 127.24 1323.25 126.646 1322.95 126.129C1322.66 125.611 1322.26 125.207 1321.74 124.915C1321.23 124.616 1320.64 124.467 1319.96 124.467C1319.25 124.467 1318.63 124.631 1318.08 124.959C1317.54 125.28 1317.12 125.713 1316.81 126.26C1316.51 126.799 1316.35 127.4 1316.34 128.063V130.807C1316.34 131.638 1316.49 132.356 1316.8 132.961C1317.11 133.566 1317.55 134.032 1318.12 134.36C1318.69 134.688 1319.37 134.852 1320.15 134.852C1320.66 134.852 1321.14 134.779 1321.57 134.633C1322 134.487 1322.36 134.269 1322.67 133.977C1322.98 133.686 1323.21 133.329 1323.37 132.906L1327.68 133.19C1327.46 134.225 1327.01 135.129 1326.33 135.901C1325.66 136.666 1324.79 137.264 1323.73 137.694C1322.67 138.117 1321.45 138.328 1320.07 138.328ZM1335.47 128.293V138H1330.81V121.209H1335.25V124.172H1335.45C1335.82 123.195 1336.44 122.423 1337.32 121.854C1338.19 121.279 1339.25 120.991 1340.5 120.991C1341.67 120.991 1342.68 121.246 1343.55 121.756C1344.42 122.266 1345.09 122.995 1345.57 123.942C1346.05 124.882 1346.29 126.005 1346.29 127.309V138H1341.64V128.14C1341.64 127.112 1341.38 126.311 1340.85 125.735C1340.32 125.152 1339.58 124.861 1338.65 124.861C1338.03 124.861 1337.47 124.995 1336.99 125.265C1336.52 125.535 1336.15 125.928 1335.88 126.446C1335.61 126.956 1335.48 127.572 1335.47 128.293ZM1347.79 119.515V115.613H1366.17V119.515H1359.32V138H1354.64V119.515H1347.79ZM1374.33 138.328C1372.6 138.328 1371.12 137.978 1369.87 137.279C1368.63 136.572 1367.68 135.573 1367.01 134.283C1366.33 132.986 1366 131.452 1366 129.681C1366 127.954 1366.33 126.438 1367.01 125.134C1367.68 123.829 1368.62 122.813 1369.84 122.084C1371.06 121.355 1372.5 120.991 1374.14 120.991C1375.25 120.991 1376.28 121.169 1377.24 121.526C1378.2 121.876 1379.04 122.405 1379.75 123.112C1380.47 123.818 1381.03 124.708 1381.43 125.779C1381.84 126.843 1382.04 128.089 1382.04 129.517V130.796H1367.86V127.91H1377.65C1377.65 127.24 1377.51 126.646 1377.22 126.129C1376.92 125.611 1376.52 125.207 1376 124.915C1375.49 124.616 1374.9 124.467 1374.22 124.467C1373.51 124.467 1372.89 124.631 1372.34 124.959C1371.8 125.28 1371.38 125.713 1371.07 126.26C1370.77 126.799 1370.61 127.4 1370.6 128.063V130.807C1370.6 131.638 1370.75 132.356 1371.06 132.961C1371.37 133.566 1371.81 134.032 1372.38 134.36C1372.95 134.688 1373.63 134.852 1374.41 134.852C1374.92 134.852 1375.4 134.779 1375.83 134.633C1376.26 134.487 1376.62 134.269 1376.93 133.977C1377.24 133.686 1377.47 133.329 1377.63 132.906L1381.94 133.19C1381.72 134.225 1381.27 135.129 1380.59 135.901C1379.92 136.666 1379.06 137.264 1377.99 137.694C1376.93 138.117 1375.71 138.328 1374.33 138.328ZM1389.73 115.613V138H1385.07V115.613H1389.73ZM1401.11 138.328C1399.39 138.328 1397.9 137.978 1396.65 137.279C1395.41 136.572 1394.46 135.573 1393.79 134.283C1393.12 132.986 1392.78 131.452 1392.78 129.681C1392.78 127.954 1393.12 126.438 1393.79 125.134C1394.46 123.829 1395.4 122.813 1396.62 122.084C1397.85 121.355 1399.28 120.991 1400.93 120.991C1402.04 120.991 1403.07 121.169 1404.02 121.526C1404.98 121.876 1405.82 122.405 1406.54 123.112C1407.26 123.818 1407.82 124.708 1408.22 125.779C1408.62 126.843 1408.82 128.089 1408.82 129.517V130.796H1394.64V127.91H1404.44C1404.44 127.24 1404.29 126.646 1404 126.129C1403.71 125.611 1403.3 125.207 1402.79 124.915C1402.28 124.616 1401.68 124.467 1401 124.467C1400.3 124.467 1399.67 124.631 1399.12 124.959C1398.58 125.28 1398.16 125.713 1397.86 126.26C1397.55 126.799 1397.39 127.4 1397.39 128.063V130.807C1397.39 131.638 1397.54 132.356 1397.85 132.961C1398.16 133.566 1398.6 134.032 1399.17 134.36C1399.74 134.688 1400.41 134.852 1401.19 134.852C1401.71 134.852 1402.18 134.779 1402.61 134.633C1403.04 134.487 1403.41 134.269 1403.72 133.977C1404.02 133.686 1404.25 133.329 1404.41 132.906L1408.72 133.19C1408.5 134.225 1408.06 135.129 1407.38 135.901C1406.71 136.666 1405.84 137.264 1404.78 137.694C1403.72 138.117 1402.5 138.328 1401.11 138.328ZM1411.86 138V121.209H1416.3V124.172H1416.49C1416.84 123.188 1417.43 122.412 1418.24 121.844C1419.06 121.275 1420.04 120.991 1421.17 120.991C1422.32 120.991 1423.3 121.279 1424.11 121.854C1424.92 122.423 1425.46 123.195 1425.73 124.172H1425.91C1426.25 123.21 1426.87 122.441 1427.76 121.865C1428.67 121.282 1429.74 120.991 1430.97 120.991C1432.53 120.991 1433.81 121.49 1434.78 122.488C1435.77 123.48 1436.26 124.886 1436.26 126.708V138H1431.61V127.626C1431.61 126.693 1431.36 125.994 1430.87 125.527C1430.37 125.061 1429.75 124.828 1429.01 124.828C1428.17 124.828 1427.51 125.097 1427.03 125.637C1426.56 126.169 1426.32 126.872 1426.32 127.746V138H1421.81V127.528C1421.81 126.704 1421.57 126.048 1421.1 125.56C1420.63 125.072 1420.01 124.828 1419.25 124.828C1418.73 124.828 1418.26 124.959 1417.85 125.221C1417.44 125.476 1417.12 125.837 1416.88 126.303C1416.64 126.763 1416.52 127.302 1416.52 127.921V138H1411.86ZM1447.59 138.328C1445.86 138.328 1444.37 137.978 1443.13 137.279C1441.89 136.572 1440.93 135.573 1440.26 134.283C1439.59 132.986 1439.26 131.452 1439.26 129.681C1439.26 127.954 1439.59 126.438 1440.26 125.134C1440.93 123.829 1441.88 122.813 1443.1 122.084C1444.32 121.355 1445.76 120.991 1447.4 120.991C1448.51 120.991 1449.54 121.169 1450.5 121.526C1451.46 121.876 1452.3 122.405 1453.01 123.112C1453.73 123.818 1454.29 124.708 1454.69 125.779C1455.09 126.843 1455.29 128.089 1455.29 129.517V130.796H1441.12V127.91H1450.91C1450.91 127.24 1450.77 126.646 1450.47 126.129C1450.18 125.611 1449.78 125.207 1449.26 124.915C1448.75 124.616 1448.16 124.467 1447.48 124.467C1446.77 124.467 1446.15 124.631 1445.6 124.959C1445.06 125.28 1444.64 125.713 1444.33 126.26C1444.02 126.799 1443.87 127.4 1443.86 128.063V130.807C1443.86 131.638 1444.01 132.356 1444.32 132.961C1444.63 133.566 1445.07 134.032 1445.64 134.36C1446.21 134.688 1446.88 134.852 1447.66 134.852C1448.18 134.852 1448.66 134.779 1449.09 134.633C1449.52 134.487 1449.88 134.269 1450.19 133.977C1450.5 133.686 1450.73 133.329 1450.89 132.906L1455.2 133.19C1454.98 134.225 1454.53 135.129 1453.85 135.901C1453.18 136.666 1452.31 137.264 1451.25 137.694C1450.19 138.117 1448.97 138.328 1447.59 138.328ZM1467.26 121.209V124.708H1457.15V121.209H1467.26ZM1459.45 117.187H1464.11V132.84C1464.11 133.27 1464.17 133.606 1464.3 133.846C1464.43 134.079 1464.62 134.243 1464.85 134.338C1465.09 134.433 1465.37 134.48 1465.68 134.48C1465.9 134.48 1466.12 134.462 1466.34 134.425C1466.55 134.382 1466.72 134.349 1466.84 134.327L1467.57 137.792C1467.34 137.865 1467.01 137.949 1466.59 138.044C1466.16 138.146 1465.65 138.208 1465.05 138.23C1463.92 138.273 1462.94 138.124 1462.09 137.781C1461.26 137.439 1460.6 136.907 1460.14 136.185C1459.67 135.464 1459.44 134.553 1459.45 133.453V117.187ZM1470.3 138V121.209H1474.81V124.139H1474.99C1475.29 123.097 1475.81 122.31 1476.53 121.778C1477.25 121.239 1478.08 120.969 1479.02 120.969C1479.25 120.969 1479.51 120.984 1479.78 121.013C1480.05 121.042 1480.28 121.082 1480.49 121.133V125.265C1480.27 125.199 1479.96 125.141 1479.58 125.09C1479.19 125.039 1478.84 125.014 1478.52 125.014C1477.83 125.014 1477.22 125.163 1476.68 125.462C1476.15 125.753 1475.73 126.161 1475.41 126.686C1475.11 127.211 1474.95 127.816 1474.95 128.501V138H1470.3ZM1486.28 144.264C1485.69 144.264 1485.14 144.216 1484.62 144.122C1484.11 144.034 1483.69 143.925 1483.35 143.794L1484.4 140.307C1485.22 140.562 1485.92 140.627 1486.48 140.503C1487.04 140.387 1487.49 139.949 1487.82 139.192L1488.09 138.481L1482.07 121.209H1486.97L1490.44 133.54H1490.62L1494.13 121.209L1499.06 121.231L1492.53 139.815C1492.22 140.711 1491.79 141.491 1491.25 142.154C1490.72 142.824 1490.05 143.342 1489.23 143.706C1488.41 144.078 1487.43 144.264 1486.28 144.264ZM1528.41 123.45H1523.62C1523.53 122.831 1523.35 122.281 1523.08 121.8C1522.81 121.312 1522.47 120.896 1522.04 120.554C1521.62 120.211 1521.13 119.949 1520.58 119.767C1520.03 119.584 1519.44 119.493 1518.8 119.493C1517.64 119.493 1516.63 119.781 1515.77 120.357C1514.91 120.925 1514.24 121.756 1513.77 122.849C1513.3 123.935 1513.06 125.254 1513.06 126.806C1513.06 128.402 1513.3 129.743 1513.77 130.829C1514.25 131.915 1514.92 132.735 1515.78 133.289C1516.64 133.842 1517.64 134.119 1518.76 134.119C1519.4 134.119 1519.99 134.036 1520.52 133.868C1521.07 133.7 1521.56 133.456 1521.98 133.136C1522.4 132.808 1522.75 132.41 1523.03 131.944C1523.31 131.478 1523.51 130.946 1523.62 130.348L1528.41 130.37C1528.28 131.397 1527.97 132.389 1527.48 133.343C1526.99 134.291 1526.33 135.14 1525.5 135.89C1524.67 136.634 1523.69 137.224 1522.55 137.661C1521.41 138.091 1520.12 138.306 1518.69 138.306C1516.69 138.306 1514.91 137.854 1513.33 136.951C1511.77 136.047 1510.53 134.739 1509.62 133.026C1508.71 131.314 1508.26 129.24 1508.26 126.806C1508.26 124.365 1508.72 122.288 1509.64 120.575C1510.56 118.863 1511.8 117.558 1513.38 116.662C1514.95 115.758 1516.72 115.307 1518.69 115.307C1519.99 115.307 1521.19 115.489 1522.3 115.853C1523.41 116.218 1524.4 116.75 1525.26 117.449C1526.12 118.141 1526.82 118.99 1527.36 119.996C1527.9 121.002 1528.25 122.153 1528.41 123.45ZM1539.3 138.328C1537.6 138.328 1536.13 137.967 1534.89 137.246C1533.66 136.517 1532.71 135.504 1532.04 134.207C1531.37 132.902 1531.04 131.39 1531.04 129.67C1531.04 127.936 1531.37 126.42 1532.04 125.123C1532.71 123.818 1533.66 122.805 1534.89 122.084C1536.13 121.355 1537.6 120.991 1539.3 120.991C1541 120.991 1542.46 121.355 1543.69 122.084C1544.93 122.805 1545.89 123.818 1546.56 125.123C1547.23 126.42 1547.56 127.936 1547.56 129.67C1547.56 131.39 1547.23 132.902 1546.56 134.207C1545.89 135.504 1544.93 136.517 1543.69 137.246C1542.46 137.967 1541 138.328 1539.3 138.328ZM1539.32 134.721C1540.09 134.721 1540.74 134.502 1541.26 134.065C1541.77 133.62 1542.16 133.015 1542.43 132.25C1542.7 131.485 1542.83 130.614 1542.83 129.638C1542.83 128.661 1542.7 127.79 1542.43 127.025C1542.16 126.26 1541.77 125.655 1541.26 125.21C1540.74 124.766 1540.09 124.544 1539.32 124.544C1538.54 124.544 1537.89 124.766 1537.35 125.21C1536.83 125.655 1536.43 126.26 1536.16 127.025C1535.9 127.79 1535.77 128.661 1535.77 129.638C1535.77 130.614 1535.9 131.485 1536.16 132.25C1536.43 133.015 1536.83 133.62 1537.35 134.065C1537.89 134.502 1538.54 134.721 1539.32 134.721ZM1555.25 115.613V138H1550.59V115.613H1555.25ZM1563.64 115.613V138H1558.98V115.613H1563.64ZM1575.02 138.328C1573.29 138.328 1571.8 137.978 1570.56 137.279C1569.32 136.572 1568.36 135.573 1567.69 134.283C1567.02 132.986 1566.69 131.452 1566.69 129.681C1566.69 127.954 1567.02 126.438 1567.69 125.134C1568.36 123.829 1569.31 122.813 1570.52 122.084C1571.75 121.355 1573.18 120.991 1574.83 120.991C1575.94 120.991 1576.97 121.169 1577.93 121.526C1578.89 121.876 1579.73 122.405 1580.44 123.112C1581.16 123.818 1581.72 124.708 1582.12 125.779C1582.52 126.843 1582.72 128.089 1582.72 129.517V130.796H1568.55V127.91H1578.34C1578.34 127.24 1578.19 126.646 1577.9 126.129C1577.61 125.611 1577.21 125.207 1576.69 124.915C1576.18 124.616 1575.59 124.467 1574.91 124.467C1574.2 124.467 1573.57 124.631 1573.03 124.959C1572.49 125.28 1572.07 125.713 1571.76 126.26C1571.45 126.799 1571.3 127.4 1571.29 128.063V130.807C1571.29 131.638 1571.44 132.356 1571.75 132.961C1572.06 133.566 1572.5 134.032 1573.07 134.36C1573.64 134.688 1574.31 134.852 1575.09 134.852C1575.61 134.852 1576.08 134.779 1576.51 134.633C1576.94 134.487 1577.31 134.269 1577.62 133.977C1577.93 133.686 1578.16 133.329 1578.32 132.906L1582.63 133.19C1582.41 134.225 1581.96 135.129 1581.28 135.901C1580.61 136.666 1579.74 137.264 1578.68 137.694C1577.62 138.117 1576.4 138.328 1575.02 138.328ZM1593.35 138.328C1591.63 138.328 1590.15 137.964 1588.91 137.235C1587.68 136.499 1586.73 135.479 1586.07 134.174C1585.41 132.87 1585.09 131.368 1585.09 129.67C1585.09 127.95 1585.42 126.442 1586.08 125.145C1586.75 123.84 1587.7 122.824 1588.93 122.095C1590.16 121.359 1591.63 120.991 1593.33 120.991C1594.79 120.991 1596.07 121.257 1597.18 121.789C1598.28 122.321 1599.15 123.068 1599.79 124.03C1600.43 124.992 1600.78 126.121 1600.85 127.418H1596.45C1596.33 126.58 1596 125.906 1595.47 125.396C1594.95 124.879 1594.26 124.62 1593.4 124.62C1592.68 124.62 1592.05 124.817 1591.51 125.21C1590.98 125.597 1590.57 126.161 1590.27 126.905C1589.97 127.648 1589.82 128.548 1589.82 129.605C1589.82 130.676 1589.96 131.587 1590.26 132.338C1590.55 133.088 1590.97 133.66 1591.51 134.054C1592.05 134.447 1592.68 134.644 1593.4 134.644C1593.94 134.644 1594.41 134.535 1594.84 134.316C1595.27 134.098 1595.62 133.781 1595.9 133.365C1596.18 132.942 1596.37 132.436 1596.45 131.846H1600.85C1600.78 133.128 1600.43 134.258 1599.8 135.234C1599.18 136.204 1598.32 136.962 1597.23 137.508C1596.14 138.055 1594.84 138.328 1593.35 138.328ZM1612.76 121.209V124.708H1602.65V121.209H1612.76ZM1604.94 117.187H1609.6V132.84C1609.6 133.27 1609.67 133.606 1609.8 133.846C1609.93 134.079 1610.11 134.243 1610.34 134.338C1610.59 134.433 1610.86 134.48 1611.18 134.48C1611.39 134.48 1611.61 134.462 1611.83 134.425C1612.05 134.382 1612.22 134.349 1612.33 134.327L1613.07 137.792C1612.83 137.865 1612.51 137.949 1612.08 138.044C1611.66 138.146 1611.15 138.208 1610.54 138.23C1609.42 138.273 1608.44 138.124 1607.59 137.781C1606.75 137.439 1606.1 136.907 1605.63 136.185C1605.17 135.464 1604.94 134.553 1604.94 133.453V117.187ZM1623.2 138.328C1621.5 138.328 1620.03 137.967 1618.79 137.246C1617.56 136.517 1616.61 135.504 1615.94 134.207C1615.27 132.902 1614.94 131.39 1614.94 129.67C1614.94 127.936 1615.27 126.42 1615.94 125.123C1616.61 123.818 1617.56 122.805 1618.79 122.084C1620.03 121.355 1621.5 120.991 1623.2 120.991C1624.9 120.991 1626.36 121.355 1627.59 122.084C1628.83 122.805 1629.79 123.818 1630.46 125.123C1631.13 126.42 1631.46 127.936 1631.46 129.67C1631.46 131.39 1631.13 132.902 1630.46 134.207C1629.79 135.504 1628.83 136.517 1627.59 137.246C1626.36 137.967 1624.9 138.328 1623.2 138.328ZM1623.22 134.721C1623.99 134.721 1624.64 134.502 1625.16 134.065C1625.67 133.62 1626.06 133.015 1626.33 132.25C1626.6 131.485 1626.73 130.614 1626.73 129.638C1626.73 128.661 1626.6 127.79 1626.33 127.025C1626.06 126.26 1625.67 125.655 1625.16 125.21C1624.64 124.766 1623.99 124.544 1623.22 124.544C1622.44 124.544 1621.79 124.766 1621.25 125.21C1620.73 125.655 1620.33 126.26 1620.06 127.025C1619.8 127.79 1619.67 128.661 1619.67 129.638C1619.67 130.614 1619.8 131.485 1620.06 132.25C1620.33 133.015 1620.73 133.62 1621.25 134.065C1621.79 134.502 1622.44 134.721 1623.22 134.721ZM1634.49 138V121.209H1639.01V124.139H1639.18C1639.49 123.097 1640 122.31 1640.72 121.778C1641.44 121.239 1642.28 120.969 1643.22 120.969C1643.45 120.969 1643.7 120.984 1643.97 121.013C1644.24 121.042 1644.48 121.082 1644.68 121.133V125.265C1644.46 125.199 1644.16 125.141 1643.77 125.09C1643.39 125.039 1643.03 125.014 1642.71 125.014C1642.03 125.014 1641.42 125.163 1640.88 125.462C1640.34 125.753 1639.92 126.161 1639.61 126.686C1639.3 127.211 1639.15 127.816 1639.15 128.501V138H1634.49Z" fill="#8FA5ED"/>
<g filter="url(#filter0_d_394_1089)">
<path d="M120 293C120 287.477 124.477 283 130 283H200V365H131C124.925 365 120 360.075 120 354V293Z" fill="white"/>
<path d="M177.266 312.272H142.734C141.224 312.272 140 313.497 140 315.007V340.905C140 342.415 141.224 343.64 142.734 343.64H177.266C178.776 343.64 180 342.415 180 340.905V315.007C180 313.497 178.776 312.272 177.266 312.272Z" stroke="#7D88A1" stroke-width="3.16454"/>
<path d="M149.494 312.905V309.107C149.494 306.486 151.619 304.36 154.24 304.36H165.633C168.254 304.36 170.38 306.486 170.38 309.107V312.905" stroke="#7D88A1" stroke-width="3.16454"/>
<path d="M167.727 327.684C168.593 329.183 172.809 330.749 176.325 328.719C178.515 327.455 179.341 325.424 179.444 323.711C179.529 322.279 177.969 321.771 176.726 322.488C175.227 323.354 172.861 322.72 171.995 321.22C171.129 319.72 171.763 317.354 173.263 316.489C174.44 315.809 174.71 314.202 173.516 313.552C172.041 312.748 170.002 312.372 167.665 313.721C163.916 315.886 163.898 319.896 164.264 321.684" stroke="#7D88A1" stroke-width="3.16454" stroke-linecap="round"/>
<path d="M152.265 328.612C151.399 327.112 147.183 325.546 143.667 327.576C141.477 328.84 140.65 330.871 140.548 332.584C140.463 334.016 142.023 334.524 143.265 333.807C144.765 332.941 147.131 333.575 147.997 335.075C148.863 336.575 148.229 338.941 146.729 339.806C145.552 340.486 145.282 342.093 146.476 342.743C147.951 343.547 149.99 343.923 152.327 342.574C156.076 340.409 156.094 336.399 155.728 334.611" stroke="#7D88A1" stroke-width="3.16454" stroke-linecap="round"/>
<path d="M164.263 321.684L152.265 328.611" stroke="#7D88A1" stroke-width="3.16454" stroke-linecap="round"/>
<path d="M167.727 327.684L155.728 334.611" stroke="#7D88A1" stroke-width="3.16454" stroke-linecap="round"/>
<path d="M200 283H508C513.523 283 518 287.477 518 293V355C518 360.523 513.523 365 508 365H200V283Z" fill="white"/>
<path d="M221.463 326.091C221.463 328.392 221.048 330.381 220.217 332.057C219.386 333.733 218.246 335.026 216.797 335.935C215.348 336.844 213.693 337.298 211.833 337.298C209.972 337.298 208.317 336.844 206.868 335.935C205.419 335.026 204.279 333.733 203.448 332.057C202.617 330.381 202.202 328.392 202.202 326.091C202.202 323.79 202.617 321.801 203.448 320.125C204.279 318.449 205.419 317.156 206.868 316.247C208.317 315.338 209.972 314.884 211.833 314.884C213.693 314.884 215.348 315.338 216.797 316.247C218.246 317.156 219.386 318.449 220.217 320.125C221.048 321.801 221.463 323.79 221.463 326.091ZM218.906 326.091C218.906 324.202 218.59 322.607 217.958 321.308C217.333 320.008 216.485 319.024 215.412 318.357C214.347 317.689 213.154 317.355 211.833 317.355C210.512 317.355 209.315 317.689 208.242 318.357C207.177 319.024 206.328 320.008 205.696 321.308C205.071 322.607 204.759 324.202 204.759 326.091C204.759 327.98 205.071 329.575 205.696 330.874C206.328 332.174 207.177 333.158 208.242 333.825C209.315 334.493 210.512 334.827 211.833 334.827C213.154 334.827 214.347 334.493 215.412 333.825C216.485 333.158 217.333 332.174 217.958 330.874C218.59 329.575 218.906 327.98 218.906 326.091ZM225.565 343.136V320.636H227.994V323.236H228.292C228.477 322.952 228.732 322.589 229.059 322.149C229.393 321.702 229.869 321.304 230.487 320.956C231.112 320.601 231.957 320.423 233.022 320.423C234.4 320.423 235.615 320.768 236.666 321.457C237.717 322.146 238.537 323.122 239.127 324.386C239.716 325.651 240.011 327.142 240.011 328.861C240.011 330.594 239.716 332.096 239.127 333.367C238.537 334.631 237.72 335.612 236.676 336.308C235.632 336.996 234.428 337.341 233.065 337.341C232.014 337.341 231.172 337.167 230.54 336.819C229.908 336.464 229.421 336.062 229.08 335.615C228.74 335.161 228.477 334.784 228.292 334.486H228.079V343.136H225.565ZM228.036 328.818C228.036 330.054 228.218 331.144 228.58 332.089C228.942 333.026 229.471 333.761 230.167 334.294C230.863 334.82 231.715 335.082 232.724 335.082C233.775 335.082 234.652 334.805 235.355 334.251C236.066 333.69 236.598 332.937 236.953 331.993C237.316 331.041 237.497 329.983 237.497 328.818C237.497 327.668 237.319 326.631 236.964 325.707C236.616 324.777 236.087 324.042 235.377 323.502C234.673 322.955 233.789 322.682 232.724 322.682C231.701 322.682 230.842 322.941 230.146 323.46C229.45 323.971 228.924 324.688 228.569 325.612C228.214 326.528 228.036 327.597 228.036 328.818ZM250.707 337.341C249.13 337.341 247.77 336.993 246.627 336.297C245.49 335.594 244.613 334.614 243.995 333.357C243.384 332.092 243.079 330.622 243.079 328.946C243.079 327.27 243.384 325.793 243.995 324.514C244.613 323.229 245.472 322.227 246.573 321.51C247.681 320.786 248.974 320.423 250.451 320.423C251.303 320.423 252.145 320.565 252.976 320.849C253.807 321.134 254.563 321.595 255.245 322.234C255.927 322.866 256.47 323.705 256.875 324.749C257.28 325.793 257.482 327.078 257.482 328.605V329.67H244.869V327.497H254.926C254.926 326.574 254.741 325.75 254.372 325.026C254.009 324.301 253.491 323.729 252.816 323.31C252.149 322.891 251.36 322.682 250.451 322.682C249.45 322.682 248.583 322.93 247.852 323.428C247.127 323.918 246.57 324.557 246.179 325.345C245.789 326.134 245.593 326.979 245.593 327.881V329.33C245.593 330.565 245.806 331.613 246.232 332.472C246.666 333.325 247.266 333.974 248.033 334.422C248.8 334.862 249.691 335.082 250.707 335.082C251.367 335.082 251.964 334.99 252.497 334.805C253.036 334.614 253.502 334.33 253.892 333.953C254.283 333.57 254.585 333.094 254.798 332.526L257.227 333.207C256.971 334.031 256.541 334.756 255.938 335.381C255.334 335.999 254.588 336.482 253.7 336.83C252.813 337.17 251.815 337.341 250.707 337.341ZM263.821 327.156V337H261.307V320.636H263.736V323.193H263.949C264.333 322.362 264.915 321.695 265.696 321.19C266.477 320.679 267.486 320.423 268.722 320.423C269.83 320.423 270.799 320.651 271.63 321.105C272.461 321.553 273.107 322.234 273.569 323.151C274.031 324.06 274.262 325.21 274.262 326.602V337H271.747V326.773C271.747 325.487 271.414 324.486 270.746 323.768C270.078 323.044 269.162 322.682 267.997 322.682C267.195 322.682 266.477 322.856 265.845 323.204C265.22 323.552 264.727 324.06 264.365 324.727C264.002 325.395 263.821 326.205 263.821 327.156ZM276.627 317.526V315.182H292.99V317.526H286.129V337H283.487V317.526H276.627ZM301.215 337.341C299.638 337.341 298.278 336.993 297.134 336.297C295.998 335.594 295.121 334.614 294.503 333.357C293.892 332.092 293.587 330.622 293.587 328.946C293.587 327.27 293.892 325.793 294.503 324.514C295.121 323.229 295.98 322.227 297.081 321.51C298.189 320.786 299.482 320.423 300.959 320.423C301.811 320.423 302.653 320.565 303.484 320.849C304.315 321.134 305.071 321.595 305.753 322.234C306.435 322.866 306.978 323.705 307.383 324.749C307.788 325.793 307.99 327.078 307.99 328.605V329.67H295.377V327.497H305.433C305.433 326.574 305.249 325.75 304.879 325.026C304.517 324.301 303.999 323.729 303.324 323.31C302.656 322.891 301.868 322.682 300.959 322.682C299.958 322.682 299.091 322.93 298.36 323.428C297.635 323.918 297.078 324.557 296.687 325.345C296.296 326.134 296.101 326.979 296.101 327.881V329.33C296.101 330.565 296.314 331.613 296.74 332.472C297.173 333.325 297.774 333.974 298.541 334.422C299.308 334.862 300.199 335.082 301.215 335.082C301.875 335.082 302.472 334.99 303.004 334.805C303.544 334.614 304.009 334.33 304.4 333.953C304.791 333.57 305.093 333.094 305.306 332.526L307.735 333.207C307.479 334.031 307.049 334.756 306.445 335.381C305.842 335.999 305.096 336.482 304.208 336.83C303.32 337.17 302.323 337.341 301.215 337.341ZM314.329 315.182V337H311.815V315.182H314.329ZM325.795 337.341C324.218 337.341 322.858 336.993 321.714 336.297C320.578 335.594 319.701 334.614 319.083 333.357C318.472 332.092 318.167 330.622 318.167 328.946C318.167 327.27 318.472 325.793 319.083 324.514C319.701 323.229 320.56 322.227 321.661 321.51C322.769 320.786 324.062 320.423 325.539 320.423C326.391 320.423 327.233 320.565 328.064 320.849C328.895 321.134 329.651 321.595 330.333 322.234C331.015 322.866 331.558 323.705 331.963 324.749C332.368 325.793 332.57 327.078 332.57 328.605V329.67H319.957V327.497H330.013C330.013 326.574 329.829 325.75 329.46 325.026C329.097 324.301 328.579 323.729 327.904 323.31C327.237 322.891 326.448 322.682 325.539 322.682C324.538 322.682 323.671 322.93 322.94 323.428C322.215 323.918 321.658 324.557 321.267 325.345C320.876 326.134 320.681 326.979 320.681 327.881V329.33C320.681 330.565 320.894 331.613 321.32 332.472C321.754 333.325 322.354 333.974 323.121 334.422C323.888 334.862 324.779 335.082 325.795 335.082C326.455 335.082 327.052 334.99 327.585 334.805C328.124 334.614 328.589 334.33 328.98 333.953C329.371 333.57 329.673 333.094 329.886 332.526L332.315 333.207C332.059 334.031 331.629 334.756 331.026 335.381C330.422 335.999 329.676 336.482 328.788 336.83C327.901 337.17 326.903 337.341 325.795 337.341ZM336.395 337V320.636H338.824V323.193H339.037C339.378 322.32 339.928 321.641 340.688 321.158C341.448 320.668 342.361 320.423 343.426 320.423C344.506 320.423 345.404 320.668 346.121 321.158C346.846 321.641 347.411 322.32 347.815 323.193H347.986C348.405 322.348 349.033 321.677 349.871 321.18C350.71 320.675 351.714 320.423 352.886 320.423C354.349 320.423 355.546 320.881 356.477 321.798C357.407 322.707 357.872 324.124 357.872 326.048V337H355.358V326.048C355.358 324.841 355.028 323.978 354.367 323.46C353.707 322.941 352.929 322.682 352.034 322.682C350.884 322.682 349.992 323.03 349.36 323.726C348.728 324.415 348.412 325.288 348.412 326.347V337H345.855V325.793C345.855 324.862 345.553 324.113 344.95 323.545C344.346 322.969 343.568 322.682 342.616 322.682C341.963 322.682 341.352 322.856 340.784 323.204C340.223 323.552 339.768 324.035 339.42 324.653C339.08 325.263 338.909 325.97 338.909 326.773V337H336.395ZM369.33 337.341C367.753 337.341 366.393 336.993 365.25 336.297C364.113 335.594 363.236 334.614 362.618 333.357C362.007 332.092 361.702 330.622 361.702 328.946C361.702 327.27 362.007 325.793 362.618 324.514C363.236 323.229 364.096 322.227 365.196 321.51C366.304 320.786 367.597 320.423 369.074 320.423C369.926 320.423 370.768 320.565 371.599 320.849C372.43 321.134 373.186 321.595 373.868 322.234C374.55 322.866 375.093 323.705 375.498 324.749C375.903 325.793 376.105 327.078 376.105 328.605V329.67H363.492V327.497H373.549C373.549 326.574 373.364 325.75 372.995 325.026C372.632 324.301 372.114 323.729 371.439 323.31C370.772 322.891 369.983 322.682 369.074 322.682C368.073 322.682 367.206 322.93 366.475 323.428C365.75 323.918 365.193 324.557 364.802 325.345C364.412 326.134 364.216 326.979 364.216 327.881V329.33C364.216 330.565 364.429 331.613 364.855 332.472C365.289 333.325 365.889 333.974 366.656 334.422C367.423 334.862 368.314 335.082 369.33 335.082C369.99 335.082 370.587 334.99 371.12 334.805C371.659 334.614 372.125 334.33 372.515 333.953C372.906 333.57 373.208 333.094 373.421 332.526L375.85 333.207C375.594 334.031 375.164 334.756 374.561 335.381C373.957 335.999 373.211 336.482 372.324 336.83C371.436 337.17 370.438 337.341 369.33 337.341ZM387.047 320.636V322.767H378.566V320.636H387.047ZM381.038 316.716H383.552V332.312C383.552 333.023 383.655 333.555 383.861 333.911C384.074 334.259 384.344 334.493 384.671 334.614C385.005 334.727 385.356 334.784 385.725 334.784C386.002 334.784 386.23 334.77 386.407 334.741C386.585 334.706 386.727 334.678 386.833 334.656L387.345 336.915C387.174 336.979 386.936 337.043 386.631 337.107C386.326 337.178 385.939 337.213 385.47 337.213C384.76 337.213 384.064 337.06 383.382 336.755C382.707 336.45 382.146 335.984 381.699 335.359C381.258 334.734 381.038 333.946 381.038 332.994V316.716ZM390.828 337V320.636H393.257V323.108H393.428C393.726 322.298 394.266 321.641 395.047 321.137C395.828 320.633 396.709 320.381 397.689 320.381C397.874 320.381 398.105 320.384 398.382 320.391C398.659 320.398 398.868 320.409 399.01 320.423V322.98C398.925 322.959 398.73 322.927 398.424 322.884C398.126 322.835 397.81 322.81 397.476 322.81C396.681 322.81 395.971 322.977 395.346 323.31C394.728 323.637 394.238 324.092 393.875 324.674C393.52 325.249 393.343 325.906 393.343 326.645V337H390.828ZM404.108 343.136C403.682 343.136 403.302 343.101 402.968 343.03C402.634 342.966 402.403 342.902 402.276 342.838L402.915 340.622C403.526 340.778 404.065 340.835 404.534 340.793C405.003 340.75 405.418 340.54 405.781 340.164C406.15 339.795 406.487 339.195 406.793 338.364L407.261 337.085L401.21 320.636H403.938L408.455 333.676H408.625L413.142 320.636H415.869L408.923 339.386C408.611 340.232 408.224 340.931 407.762 341.485C407.3 342.046 406.764 342.462 406.153 342.732C405.55 343.001 404.868 343.136 404.108 343.136ZM439.898 320.636C439.77 319.557 439.252 318.719 438.343 318.122C437.434 317.526 436.319 317.227 434.998 317.227C434.032 317.227 433.186 317.384 432.462 317.696C431.745 318.009 431.184 318.438 430.779 318.985C430.381 319.532 430.182 320.153 430.182 320.849C430.182 321.432 430.321 321.933 430.598 322.352C430.882 322.763 431.244 323.108 431.684 323.385C432.125 323.655 432.586 323.879 433.069 324.056C433.552 324.227 433.996 324.365 434.401 324.472L436.617 325.068C437.185 325.217 437.817 325.423 438.513 325.686C439.216 325.949 439.887 326.308 440.527 326.762C441.173 327.21 441.706 327.785 442.125 328.488C442.544 329.191 442.753 330.054 442.753 331.077C442.753 332.256 442.444 333.321 441.826 334.273C441.216 335.224 440.321 335.981 439.142 336.542C437.97 337.103 436.546 337.384 434.87 337.384C433.307 337.384 431.954 337.131 430.811 336.627C429.674 336.123 428.779 335.42 428.126 334.518C427.48 333.616 427.114 332.568 427.029 331.375H429.756C429.827 332.199 430.104 332.881 430.587 333.42C431.077 333.953 431.695 334.351 432.441 334.614C433.194 334.869 434.003 334.997 434.87 334.997C435.878 334.997 436.784 334.834 437.586 334.507C438.389 334.173 439.025 333.712 439.493 333.122C439.962 332.526 440.196 331.83 440.196 331.034C440.196 330.31 439.994 329.72 439.589 329.266C439.184 328.811 438.652 328.442 437.991 328.158C437.331 327.874 436.617 327.625 435.85 327.412L433.165 326.645C431.461 326.155 430.111 325.455 429.117 324.546C428.123 323.637 427.625 322.447 427.625 320.977C427.625 319.756 427.956 318.69 428.616 317.781C429.284 316.865 430.179 316.155 431.301 315.651C432.43 315.139 433.691 314.884 435.083 314.884C436.489 314.884 437.739 315.136 438.833 315.64C439.926 316.137 440.793 316.819 441.432 317.685C442.078 318.552 442.419 319.536 442.455 320.636H439.898ZM453.83 337H447.097V315.182H454.128C456.245 315.182 458.056 315.619 459.562 316.492C461.067 317.359 462.221 318.605 463.024 320.232C463.827 321.851 464.228 323.79 464.228 326.048C464.228 328.321 463.823 330.278 463.013 331.918C462.204 333.552 461.025 334.809 459.476 335.69C457.928 336.563 456.046 337 453.83 337ZM449.739 334.656H453.66C455.464 334.656 456.959 334.308 458.145 333.612C459.331 332.916 460.215 331.925 460.797 330.64C461.38 329.354 461.671 327.824 461.671 326.048C461.671 324.287 461.383 322.771 460.808 321.499C460.233 320.221 459.373 319.241 458.23 318.559C457.086 317.87 455.662 317.526 453.958 317.526H449.739V334.656ZM468.66 337V315.182H471.302V326.006H471.557L481.358 315.182H484.81L475.648 325.026L484.81 337H481.614L474.029 326.858L471.302 329.926V337H468.66Z" fill="#7D88A1"/>
</g>
<g filter="url(#filter1_d_394_1089)">
<path d="M1766 293C1766 287.477 1770.48 283 1776 283H1846V365H1777C1770.92 365 1766 360.075 1766 354V293Z" fill="#92A9EF"/>
<path d="M1791.3 330.449H1820.55C1823.25 330.449 1825.35 332.699 1825.35 335.249V338.549C1825.35 341.249 1823.1 343.349 1820.55 343.349H1791.3C1788.75 343.499 1786.5 341.249 1786.5 338.699V335.399C1786.5 332.699 1788.75 330.449 1791.3 330.449Z" stroke="white" stroke-width="3"/>
<path d="M1791.3 304.5H1820.55C1823.25 304.5 1825.5 306.75 1825.5 309.3V312.6C1825.5 315.3 1823.25 317.4 1820.7 317.4H1791.3C1788.75 317.55 1786.5 315.3 1786.5 312.6V309.3C1786.5 306.75 1788.75 304.5 1791.3 304.5Z" stroke="white" stroke-width="3"/>
<path d="M1791.3 317.551H1820.55C1823.25 317.551 1825.35 319.801 1825.35 322.351V325.651C1825.35 328.351 1823.1 330.451 1820.55 330.451H1791.3C1788.6 330.451 1786.5 328.201 1786.5 325.651V322.351C1786.5 319.651 1788.75 317.551 1791.3 317.551Z" stroke="white" stroke-width="3"/>
<path d="M1819.65 312.749C1820.56 312.749 1821.3 312.01 1821.3 311.099C1821.3 310.188 1820.56 309.449 1819.65 309.449C1818.74 309.449 1818 310.188 1818 311.099C1818 312.01 1818.74 312.749 1819.65 312.749Z" fill="white"/>
<path d="M1819.65 325.65C1820.56 325.65 1821.3 324.911 1821.3 324C1821.3 323.088 1820.56 322.35 1819.65 322.35C1818.74 322.35 1818 323.088 1818 324C1818 324.911 1818.74 325.65 1819.65 325.65Z" fill="white"/>
<path d="M1819.65 338.7C1820.56 338.7 1821.3 337.962 1821.3 337.05C1821.3 336.139 1820.56 335.4 1819.65 335.4C1818.74 335.4 1818 336.139 1818 337.05C1818 337.962 1818.74 338.7 1819.65 338.7Z" fill="white"/>
<path d="M1846 283H2023C2028.52 283 2033 287.477 2033 293V355C2033 360.523 2028.52 365 2023 365H1846V283Z" fill="white"/>
<path d="M1880.91 337V315.182H1888.54C1890.06 315.182 1891.31 315.445 1892.3 315.97C1893.29 316.489 1894.02 317.188 1894.51 318.069C1894.99 318.942 1895.23 319.912 1895.23 320.977C1895.23 321.915 1895.06 322.689 1894.73 323.3C1894.4 323.911 1893.97 324.393 1893.43 324.749C1892.9 325.104 1892.32 325.366 1891.69 325.537V325.75C1892.36 325.793 1893.03 326.027 1893.71 326.453C1894.38 326.879 1894.95 327.49 1895.4 328.286C1895.85 329.081 1896.08 330.054 1896.08 331.205C1896.08 332.298 1895.83 333.282 1895.34 334.156C1894.84 335.029 1894.05 335.722 1892.98 336.233C1891.91 336.744 1890.51 337 1888.8 337H1880.91ZM1883.55 334.656H1888.8C1890.52 334.656 1891.75 334.322 1892.47 333.655C1893.2 332.98 1893.57 332.163 1893.57 331.205C1893.57 330.466 1893.38 329.784 1893 329.159C1892.63 328.527 1892.09 328.023 1891.39 327.646C1890.7 327.263 1889.87 327.071 1888.92 327.071H1883.55V334.656ZM1883.55 324.77H1888.45C1889.25 324.77 1889.97 324.614 1890.61 324.301C1891.25 323.989 1891.76 323.548 1892.14 322.98C1892.52 322.412 1892.72 321.744 1892.72 320.977C1892.72 320.018 1892.38 319.205 1891.71 318.538C1891.05 317.863 1889.99 317.526 1888.54 317.526H1883.55V324.77ZM1904.9 337.384C1903.86 337.384 1902.92 337.188 1902.07 336.798C1901.23 336.4 1900.56 335.828 1900.06 335.082C1899.56 334.33 1899.32 333.42 1899.32 332.355C1899.32 331.418 1899.5 330.658 1899.87 330.075C1900.24 329.486 1900.73 329.024 1901.35 328.69C1901.97 328.357 1902.65 328.108 1903.4 327.945C1904.15 327.774 1904.9 327.639 1905.66 327.54C1906.66 327.412 1907.47 327.316 1908.08 327.252C1908.71 327.181 1909.16 327.064 1909.45 326.901C1909.74 326.737 1909.88 326.453 1909.88 326.048V325.963C1909.88 324.912 1909.6 324.095 1909.02 323.513C1908.45 322.93 1907.59 322.639 1906.43 322.639C1905.23 322.639 1904.29 322.902 1903.61 323.428C1902.93 323.953 1902.45 324.514 1902.17 325.111L1899.78 324.259C1900.21 323.264 1900.78 322.49 1901.49 321.936C1902.21 321.375 1902.99 320.984 1903.83 320.764C1904.68 320.537 1905.52 320.423 1906.35 320.423C1906.87 320.423 1907.48 320.487 1908.16 320.615C1908.85 320.736 1909.51 320.988 1910.15 321.371C1910.8 321.755 1911.33 322.334 1911.76 323.108C1912.18 323.882 1912.4 324.919 1912.4 326.219V337H1909.88V334.784H1909.76C1909.59 335.139 1909.3 335.519 1908.9 335.924C1908.51 336.329 1907.98 336.673 1907.32 336.957C1906.66 337.241 1905.85 337.384 1904.9 337.384ZM1905.28 335.125C1906.28 335.125 1907.11 334.93 1907.8 334.539C1908.48 334.148 1909 333.644 1909.35 333.026C1909.71 332.408 1909.88 331.759 1909.88 331.077V328.776C1909.78 328.903 1909.54 329.021 1909.18 329.127C1908.83 329.227 1908.41 329.315 1907.94 329.393C1907.48 329.464 1907.03 329.528 1906.59 329.585C1906.16 329.635 1905.81 329.678 1905.54 329.713C1904.88 329.798 1904.27 329.937 1903.7 330.129C1903.14 330.313 1902.69 330.594 1902.34 330.97C1902 331.339 1901.83 331.844 1901.83 332.483C1901.83 333.357 1902.15 334.017 1902.8 334.464C1903.45 334.905 1904.28 335.125 1905.28 335.125ZM1923.63 337.341C1922.1 337.341 1920.78 336.979 1919.67 336.254C1918.56 335.53 1917.71 334.532 1917.11 333.261C1916.52 331.989 1916.22 330.537 1916.22 328.903C1916.22 327.241 1916.53 325.775 1917.14 324.504C1917.75 323.225 1918.61 322.227 1919.71 321.51C1920.82 320.786 1922.11 320.423 1923.59 320.423C1924.74 320.423 1925.78 320.636 1926.7 321.062C1927.63 321.489 1928.38 322.085 1928.97 322.852C1929.56 323.619 1929.93 324.514 1930.07 325.537H1927.55C1927.36 324.791 1926.94 324.131 1926.28 323.555C1925.62 322.973 1924.74 322.682 1923.63 322.682C1922.65 322.682 1921.79 322.937 1921.06 323.449C1920.32 323.953 1919.75 324.667 1919.34 325.59C1918.94 326.506 1918.73 327.582 1918.73 328.818C1918.73 330.082 1918.93 331.183 1919.33 332.121C1919.74 333.058 1920.3 333.786 1921.03 334.305C1921.77 334.823 1922.64 335.082 1923.63 335.082C1924.29 335.082 1924.88 334.969 1925.41 334.741C1925.95 334.514 1926.4 334.188 1926.77 333.761C1927.14 333.335 1927.4 332.824 1927.55 332.227H1930.07C1929.93 333.193 1929.58 334.063 1929.01 334.837C1928.46 335.604 1927.73 336.215 1926.81 336.67C1925.9 337.117 1924.84 337.341 1923.63 337.341ZM1936.09 331.034L1936.05 327.923H1936.56L1943.72 320.636H1946.83L1939.2 328.349H1938.99L1936.09 331.034ZM1933.74 337V315.182H1936.26V337H1933.74ZM1944.14 337L1937.75 328.903L1939.54 327.156L1947.34 337H1944.14ZM1956.25 337.341C1954.67 337.341 1953.31 336.993 1952.17 336.297C1951.03 335.594 1950.16 334.614 1949.54 333.357C1948.93 332.092 1948.62 330.622 1948.62 328.946C1948.62 327.27 1948.93 325.793 1949.54 324.514C1950.16 323.229 1951.02 322.227 1952.12 321.51C1953.22 320.786 1954.52 320.423 1955.99 320.423C1956.85 320.423 1957.69 320.565 1958.52 320.849C1959.35 321.134 1960.11 321.595 1960.79 322.234C1961.47 322.866 1962.01 323.705 1962.42 324.749C1962.82 325.793 1963.03 327.078 1963.03 328.605V329.67H1950.41V327.497H1960.47C1960.47 326.574 1960.28 325.75 1959.91 325.026C1959.55 324.301 1959.03 323.729 1958.36 323.31C1957.69 322.891 1956.9 322.682 1955.99 322.682C1954.99 322.682 1954.13 322.93 1953.39 323.428C1952.67 323.918 1952.11 324.557 1951.72 325.345C1951.33 326.134 1951.14 326.979 1951.14 327.881V329.33C1951.14 330.565 1951.35 331.613 1951.78 332.472C1952.21 333.325 1952.81 333.974 1953.58 334.422C1954.34 334.862 1955.23 335.082 1956.25 335.082C1956.91 335.082 1957.51 334.99 1958.04 334.805C1958.58 334.614 1959.04 334.33 1959.44 333.953C1959.83 333.57 1960.13 333.094 1960.34 332.526L1962.77 333.207C1962.51 334.031 1962.08 334.756 1961.48 335.381C1960.88 335.999 1960.13 336.482 1959.24 336.83C1958.36 337.17 1957.36 337.341 1956.25 337.341ZM1969.36 327.156V337H1966.85V320.636H1969.28V323.193H1969.49C1969.88 322.362 1970.46 321.695 1971.24 321.19C1972.02 320.679 1973.03 320.423 1974.26 320.423C1975.37 320.423 1976.34 320.651 1977.17 321.105C1978 321.553 1978.65 322.234 1979.11 323.151C1979.57 324.06 1979.8 325.21 1979.8 326.602V337H1977.29V326.773C1977.29 325.487 1976.96 324.486 1976.29 323.768C1975.62 323.044 1974.71 322.682 1973.54 322.682C1972.74 322.682 1972.02 322.856 1971.39 323.204C1970.76 323.552 1970.27 324.06 1969.91 324.727C1969.55 325.395 1969.36 326.205 1969.36 327.156ZM1990.58 337.341C1989.21 337.341 1988.01 336.996 1986.97 336.308C1985.92 335.612 1985.11 334.631 1984.52 333.367C1983.93 332.096 1983.63 330.594 1983.63 328.861C1983.63 327.142 1983.93 325.651 1984.52 324.386C1985.11 323.122 1985.93 322.146 1986.98 321.457C1988.03 320.768 1989.24 320.423 1990.62 320.423C1991.69 320.423 1992.53 320.601 1993.15 320.956C1993.77 321.304 1994.25 321.702 1994.57 322.149C1994.91 322.589 1995.17 322.952 1995.35 323.236H1995.56V315.182H1998.08V337H1995.65V334.486H1995.35C1995.17 334.784 1994.9 335.161 1994.56 335.615C1994.22 336.062 1993.73 336.464 1993.1 336.819C1992.47 337.167 1991.63 337.341 1990.58 337.341ZM1990.92 335.082C1991.93 335.082 1992.78 334.82 1993.48 334.294C1994.17 333.761 1994.7 333.026 1995.06 332.089C1995.43 331.144 1995.61 330.054 1995.61 328.818C1995.61 327.597 1995.43 326.528 1995.07 325.612C1994.72 324.688 1994.19 323.971 1993.5 323.46C1992.8 322.941 1991.94 322.682 1990.92 322.682C1989.85 322.682 1988.97 322.955 1988.26 323.502C1987.55 324.042 1987.02 324.777 1986.67 325.707C1986.32 326.631 1986.15 327.668 1986.15 328.818C1986.15 329.983 1986.32 331.041 1986.68 331.993C1987.04 332.937 1987.57 333.69 1988.28 334.251C1988.99 334.805 1989.87 335.082 1990.92 335.082Z" fill="#7D88A1"/>
</g>
<path d="M777.209 325.209C777.877 324.541 777.877 323.459 777.209 322.791L766.326 311.907C765.658 311.24 764.575 311.24 763.907 311.907C763.24 312.575 763.24 313.658 763.907 314.326L773.581 324L763.907 333.674C763.24 334.342 763.24 335.425 763.907 336.093C764.575 336.76 765.658 336.76 766.326 336.093L777.209 325.209ZM518 325.71H776V322.29H518V325.71Z" fill="#7D88A1"/>
<rect width="138" height="55" transform="translate(578 297)" fill="white"/>
<path d="M628.511 323.81C628.511 326.251 628.048 328.327 627.123 330.039C626.205 331.751 624.952 333.059 623.364 333.962C621.783 334.858 620.005 335.306 618.031 335.306C616.042 335.306 614.258 334.854 612.677 333.951C611.096 333.048 609.846 331.74 608.929 330.028C608.011 328.316 607.552 326.243 607.552 323.81C607.552 321.37 608.011 319.294 608.929 317.582C609.846 315.87 611.096 314.566 612.677 313.67C614.258 312.766 616.042 312.315 618.031 312.315C620.005 312.315 621.783 312.766 623.364 313.67C624.952 314.566 626.205 315.87 627.123 317.582C628.048 319.294 628.511 321.37 628.511 323.81ZM623.713 323.81C623.713 322.229 623.477 320.896 623.003 319.811C622.537 318.725 621.878 317.902 621.025 317.341C620.173 316.78 619.175 316.5 618.031 316.5C616.887 316.5 615.889 316.78 615.037 317.341C614.185 317.902 613.522 318.725 613.048 319.811C612.582 320.896 612.349 322.229 612.349 323.81C612.349 325.391 612.582 326.724 613.048 327.81C613.522 328.895 614.185 329.718 615.037 330.279C615.889 330.84 616.887 331.121 618.031 331.121C619.175 331.121 620.173 330.84 621.025 330.279C621.878 329.718 622.537 328.895 623.003 327.81C623.477 326.724 623.713 325.391 623.713 323.81ZM630.172 316.522V312.62H648.552V316.522H641.7V335H637.023V316.522H630.172ZM651.579 335V312.62H656.31V331.099H665.905V335H651.579ZM669.038 335V312.62H677.867C679.565 312.62 681.011 312.945 682.206 313.593C683.4 314.234 684.311 315.127 684.937 316.27C685.571 317.407 685.888 318.718 685.888 320.204C685.888 321.69 685.568 323.002 684.927 324.138C684.285 325.275 683.357 326.16 682.14 326.793C680.931 327.427 679.466 327.744 677.747 327.744H672.12V323.952H676.982C677.893 323.952 678.643 323.796 679.233 323.482C679.831 323.162 680.275 322.721 680.566 322.16C680.865 321.592 681.015 320.94 681.015 320.204C681.015 319.461 680.865 318.813 680.566 318.259C680.275 317.698 679.831 317.265 679.233 316.959C678.636 316.645 677.878 316.489 676.96 316.489H673.77V335H669.038Z" fill="#7D88A1"/>
<g filter="url(#filter2_d_394_1089)">
<path d="M800 293C800 287.477 804.477 283 810 283H880V363H811C804.925 363 800 358.075 800 352V293Z" fill="#8EA9EC"/>
<path d="M838.5 339.5C846.784 339.5 853.5 332.784 853.5 324.5C853.5 316.216 846.784 309.5 838.5 309.5C830.216 309.5 823.5 316.216 823.5 324.5C823.5 332.784 830.216 339.5 838.5 339.5Z" stroke="white" stroke-width="3" stroke-linecap="round" stroke-linejoin="round"/>
<path d="M838.5 330.5C841.814 330.5 844.5 327.814 844.5 324.5C844.5 321.186 841.814 318.5 838.5 318.5C835.186 318.5 832.5 321.186 832.5 324.5C832.5 327.814 835.186 330.5 838.5 330.5Z" stroke="white" stroke-width="3" stroke-linecap="round" stroke-linejoin="round"/>
<path d="M853.5 324.5H859.5" stroke="white" stroke-width="3" stroke-linecap="round" stroke-linejoin="round"/>
<path d="M819 324.5H823.5" stroke="white" stroke-width="3" stroke-linecap="round" stroke-linejoin="round"/>
<path d="M852 315.5L858 312.5" stroke="white" stroke-width="3" stroke-linecap="round" stroke-linejoin="round"/>
<path d="M852 333.5L858 337.25" stroke="white" stroke-width="3" stroke-linecap="round" stroke-linejoin="round"/>
<path d="M880 283H1137C1142.52 283 1147 287.477 1147 293V355C1147 360.523 1142.52 365 1137 365H880V283Z" fill="white"/>
<path d="M915.082 337V315.182H917.725V334.656H927.867V337H915.082ZM938.264 337.341C936.787 337.341 935.491 336.989 934.376 336.286C933.268 335.583 932.401 334.599 931.776 333.335C931.158 332.071 930.85 330.594 930.85 328.903C930.85 327.199 931.158 325.711 931.776 324.44C932.401 323.168 933.268 322.181 934.376 321.478C935.491 320.775 936.787 320.423 938.264 320.423C939.742 320.423 941.034 320.775 942.142 321.478C943.257 322.181 944.124 323.168 944.742 324.44C945.367 325.711 945.679 327.199 945.679 328.903C945.679 330.594 945.367 332.071 944.742 333.335C944.124 334.599 943.257 335.583 942.142 336.286C941.034 336.989 939.742 337.341 938.264 337.341ZM938.264 335.082C939.386 335.082 940.31 334.795 941.034 334.219C941.759 333.644 942.295 332.888 942.643 331.95C942.991 331.013 943.165 329.997 943.165 328.903C943.165 327.81 942.991 326.79 942.643 325.846C942.295 324.901 941.759 324.138 941.034 323.555C940.31 322.973 939.386 322.682 938.264 322.682C937.142 322.682 936.219 322.973 935.494 323.555C934.77 324.138 934.234 324.901 933.886 325.846C933.538 326.79 933.364 327.81 933.364 328.903C933.364 329.997 933.538 331.013 933.886 331.95C934.234 332.888 934.77 333.644 935.494 334.219C936.219 334.795 937.142 335.082 938.264 335.082ZM954.332 337.384C953.295 337.384 952.354 337.188 951.509 336.798C950.664 336.4 949.993 335.828 949.496 335.082C948.998 334.33 948.75 333.42 948.75 332.355C948.75 331.418 948.935 330.658 949.304 330.075C949.673 329.486 950.167 329.024 950.785 328.69C951.403 328.357 952.084 328.108 952.83 327.945C953.583 327.774 954.339 327.639 955.099 327.54C956.094 327.412 956.9 327.316 957.518 327.252C958.143 327.181 958.597 327.064 958.881 326.901C959.172 326.737 959.318 326.453 959.318 326.048V325.963C959.318 324.912 959.03 324.095 958.455 323.513C957.887 322.93 957.024 322.639 955.866 322.639C954.666 322.639 953.725 322.902 953.043 323.428C952.361 323.953 951.882 324.514 951.605 325.111L949.219 324.259C949.645 323.264 950.213 322.49 950.923 321.936C951.641 321.375 952.422 320.984 953.267 320.764C954.119 320.537 954.957 320.423 955.781 320.423C956.307 320.423 956.91 320.487 957.592 320.615C958.281 320.736 958.945 320.988 959.584 321.371C960.231 321.755 960.767 322.334 961.193 323.108C961.619 323.882 961.832 324.919 961.832 326.219V337H959.318V334.784H959.19C959.02 335.139 958.736 335.519 958.338 335.924C957.94 336.329 957.411 336.673 956.751 336.957C956.09 337.241 955.284 337.384 954.332 337.384ZM954.716 335.125C955.71 335.125 956.548 334.93 957.23 334.539C957.919 334.148 958.437 333.644 958.785 333.026C959.141 332.408 959.318 331.759 959.318 331.077V328.776C959.212 328.903 958.977 329.021 958.615 329.127C958.26 329.227 957.848 329.315 957.379 329.393C956.918 329.464 956.467 329.528 956.026 329.585C955.593 329.635 955.241 329.678 954.972 329.713C954.318 329.798 953.707 329.937 953.139 330.129C952.578 330.313 952.123 330.594 951.775 330.97C951.435 331.339 951.264 331.844 951.264 332.483C951.264 333.357 951.587 334.017 952.234 334.464C952.887 334.905 953.714 335.125 954.716 335.125ZM972.6 337.341C971.237 337.341 970.033 336.996 968.989 336.308C967.945 335.612 967.128 334.631 966.538 333.367C965.949 332.096 965.654 330.594 965.654 328.861C965.654 327.142 965.949 325.651 966.538 324.386C967.128 323.122 967.948 322.146 968.999 321.457C970.051 320.768 971.265 320.423 972.643 320.423C973.708 320.423 974.55 320.601 975.168 320.956C975.793 321.304 976.269 321.702 976.595 322.149C976.929 322.589 977.188 322.952 977.373 323.236H977.586V315.182H980.1V337H977.671V334.486H977.373C977.188 334.784 976.926 335.161 976.585 335.615C976.244 336.062 975.757 336.464 975.125 336.819C974.493 337.167 973.651 337.341 972.6 337.341ZM972.941 335.082C973.95 335.082 974.802 334.82 975.498 334.294C976.194 333.761 976.723 333.026 977.085 332.089C977.448 331.144 977.629 330.054 977.629 328.818C977.629 327.597 977.451 326.528 977.096 325.612C976.741 324.688 976.215 323.971 975.519 323.46C974.823 322.941 973.964 322.682 972.941 322.682C971.876 322.682 970.988 322.955 970.278 323.502C969.575 324.042 969.046 324.777 968.69 325.707C968.342 326.631 968.168 327.668 968.168 328.818C968.168 329.983 968.346 331.041 968.701 331.993C969.063 332.937 969.596 333.69 970.299 334.251C971.009 334.805 971.89 335.082 972.941 335.082ZM993.832 337V315.182H1001.46C1002.98 315.182 1004.23 315.445 1005.22 315.97C1006.21 316.489 1006.94 317.188 1007.43 318.069C1007.91 318.942 1008.15 319.912 1008.15 320.977C1008.15 321.915 1007.98 322.689 1007.65 323.3C1007.32 323.911 1006.89 324.393 1006.35 324.749C1005.82 325.104 1005.24 325.366 1004.61 325.537V325.75C1005.28 325.793 1005.95 326.027 1006.63 326.453C1007.3 326.879 1007.87 327.49 1008.32 328.286C1008.78 329.081 1009 330.054 1009 331.205C1009 332.298 1008.75 333.282 1008.26 334.156C1007.76 335.029 1006.98 335.722 1005.9 336.233C1004.83 336.744 1003.43 337 1001.72 337H993.832ZM996.475 334.656H1001.72C1003.44 334.656 1004.67 334.322 1005.39 333.655C1006.12 332.98 1006.49 332.163 1006.49 331.205C1006.49 330.466 1006.3 329.784 1005.92 329.159C1005.55 328.527 1005.01 328.023 1004.32 327.646C1003.62 327.263 1002.8 327.071 1001.84 327.071H996.475V334.656ZM996.475 324.77H1001.38C1002.17 324.77 1002.89 324.614 1003.53 324.301C1004.17 323.989 1004.68 323.548 1005.06 322.98C1005.44 322.412 1005.64 321.744 1005.64 320.977C1005.64 320.018 1005.3 319.205 1004.64 318.538C1003.97 317.863 1002.91 317.526 1001.46 317.526H996.475V324.77ZM1017.82 337.384C1016.78 337.384 1015.84 337.188 1015 336.798C1014.15 336.4 1013.48 335.828 1012.98 335.082C1012.48 334.33 1012.24 333.42 1012.24 332.355C1012.24 331.418 1012.42 330.658 1012.79 330.075C1013.16 329.486 1013.65 329.024 1014.27 328.69C1014.89 328.357 1015.57 328.108 1016.32 327.945C1017.07 327.774 1017.83 327.639 1018.59 327.54C1019.58 327.412 1020.39 327.316 1021 327.252C1021.63 327.181 1022.08 327.064 1022.37 326.901C1022.66 326.737 1022.8 326.453 1022.8 326.048V325.963C1022.8 324.912 1022.52 324.095 1021.94 323.513C1021.37 322.93 1020.51 322.639 1019.35 322.639C1018.15 322.639 1017.21 322.902 1016.53 323.428C1015.85 323.953 1015.37 324.514 1015.09 325.111L1012.7 324.259C1013.13 323.264 1013.7 322.49 1014.41 321.936C1015.13 321.375 1015.91 320.984 1016.75 320.764C1017.61 320.537 1018.44 320.423 1019.27 320.423C1019.79 320.423 1020.4 320.487 1021.08 320.615C1021.77 320.736 1022.43 320.988 1023.07 321.371C1023.72 321.755 1024.25 322.334 1024.68 323.108C1025.11 323.882 1025.32 324.919 1025.32 326.219V337H1022.8V334.784H1022.68C1022.51 335.139 1022.22 335.519 1021.82 335.924C1021.43 336.329 1020.9 336.673 1020.24 336.957C1019.58 337.241 1018.77 337.384 1017.82 337.384ZM1018.2 335.125C1019.2 335.125 1020.03 334.93 1020.72 334.539C1021.41 334.148 1021.92 333.644 1022.27 333.026C1022.63 332.408 1022.8 331.759 1022.8 331.077V328.776C1022.7 328.903 1022.46 329.021 1022.1 329.127C1021.75 329.227 1021.33 329.315 1020.87 329.393C1020.4 329.464 1019.95 329.528 1019.51 329.585C1019.08 329.635 1018.73 329.678 1018.46 329.713C1017.8 329.798 1017.19 329.937 1016.63 330.129C1016.06 330.313 1015.61 330.594 1015.26 330.97C1014.92 331.339 1014.75 331.844 1014.75 332.483C1014.75 333.357 1015.07 334.017 1015.72 334.464C1016.37 334.905 1017.2 335.125 1018.2 335.125ZM1032.42 315.182V337H1029.91V315.182H1032.42ZM1041.84 337.384C1040.81 337.384 1039.86 337.188 1039.02 336.798C1038.17 336.4 1037.5 335.828 1037.01 335.082C1036.51 334.33 1036.26 333.42 1036.26 332.355C1036.26 331.418 1036.44 330.658 1036.81 330.075C1037.18 329.486 1037.68 329.024 1038.29 328.69C1038.91 328.357 1039.59 328.108 1040.34 327.945C1041.09 327.774 1041.85 327.639 1042.61 327.54C1043.6 327.412 1044.41 327.316 1045.03 327.252C1045.65 327.181 1046.11 327.064 1046.39 326.901C1046.68 326.737 1046.83 326.453 1046.83 326.048V325.963C1046.83 324.912 1046.54 324.095 1045.96 323.513C1045.4 322.93 1044.53 322.639 1043.38 322.639C1042.18 322.639 1041.23 322.902 1040.55 323.428C1039.87 323.953 1039.39 324.514 1039.11 325.111L1036.73 324.259C1037.15 323.264 1037.72 322.49 1038.43 321.936C1039.15 321.375 1039.93 320.984 1040.78 320.764C1041.63 320.537 1042.47 320.423 1043.29 320.423C1043.82 320.423 1044.42 320.487 1045.1 320.615C1045.79 320.736 1046.45 320.988 1047.09 321.371C1047.74 321.755 1048.28 322.334 1048.7 323.108C1049.13 323.882 1049.34 324.919 1049.34 326.219V337H1046.83V334.784H1046.7C1046.53 335.139 1046.25 335.519 1045.85 335.924C1045.45 336.329 1044.92 336.673 1044.26 336.957C1043.6 337.241 1042.79 337.384 1041.84 337.384ZM1042.23 335.125C1043.22 335.125 1044.06 334.93 1044.74 334.539C1045.43 334.148 1045.95 333.644 1046.3 333.026C1046.65 332.408 1046.83 331.759 1046.83 331.077V328.776C1046.72 328.903 1046.49 329.021 1046.12 329.127C1045.77 329.227 1045.36 329.315 1044.89 329.393C1044.43 329.464 1043.98 329.528 1043.54 329.585C1043.1 329.635 1042.75 329.678 1042.48 329.713C1041.83 329.798 1041.22 329.937 1040.65 330.129C1040.09 330.313 1039.63 330.594 1039.29 330.97C1038.94 331.339 1038.77 331.844 1038.77 332.483C1038.77 333.357 1039.1 334.017 1039.74 334.464C1040.4 334.905 1041.22 335.125 1042.23 335.125ZM1056.45 327.156V337H1053.93V320.636H1056.36V323.193H1056.57C1056.96 322.362 1057.54 321.695 1058.32 321.19C1059.1 320.679 1060.11 320.423 1061.35 320.423C1062.45 320.423 1063.42 320.651 1064.25 321.105C1065.09 321.553 1065.73 322.234 1066.19 323.151C1066.65 324.06 1066.89 325.21 1066.89 326.602V337H1064.37V326.773C1064.37 325.487 1064.04 324.486 1063.37 323.768C1062.7 323.044 1061.79 322.682 1060.62 322.682C1059.82 322.682 1059.1 322.856 1058.47 323.204C1057.84 323.552 1057.35 324.06 1056.99 324.727C1056.63 325.395 1056.45 326.205 1056.45 327.156ZM1078.13 337.341C1076.59 337.341 1075.27 336.979 1074.16 336.254C1073.06 335.53 1072.2 334.532 1071.61 333.261C1071.01 331.989 1070.71 330.537 1070.71 328.903C1070.71 327.241 1071.02 325.775 1071.63 324.504C1072.25 323.225 1073.11 322.227 1074.21 321.51C1075.32 320.786 1076.61 320.423 1078.08 320.423C1079.24 320.423 1080.27 320.636 1081.2 321.062C1082.12 321.489 1082.88 322.085 1083.46 322.852C1084.05 323.619 1084.42 324.514 1084.56 325.537H1082.05C1081.86 324.791 1081.43 324.131 1080.77 323.555C1080.12 322.973 1079.24 322.682 1078.13 322.682C1077.15 322.682 1076.29 322.937 1075.55 323.449C1074.82 323.953 1074.25 324.667 1073.83 325.59C1073.43 326.506 1073.23 327.582 1073.23 328.818C1073.23 330.082 1073.43 331.183 1073.82 332.121C1074.23 333.058 1074.8 333.786 1075.53 334.305C1076.27 334.823 1077.13 335.082 1078.13 335.082C1078.78 335.082 1079.37 334.969 1079.91 334.741C1080.44 334.514 1080.89 334.188 1081.26 333.761C1081.63 333.335 1081.89 332.824 1082.05 332.227H1084.56C1084.42 333.193 1084.07 334.063 1083.51 334.837C1082.95 335.604 1082.22 336.215 1081.3 336.67C1080.39 337.117 1079.33 337.341 1078.13 337.341ZM1095.1 337.341C1093.52 337.341 1092.16 336.993 1091.02 336.297C1089.88 335.594 1089 334.614 1088.39 333.357C1087.78 332.092 1087.47 330.622 1087.47 328.946C1087.47 327.27 1087.78 325.793 1088.39 324.514C1089 323.229 1089.86 322.227 1090.96 321.51C1092.07 320.786 1093.37 320.423 1094.84 320.423C1095.7 320.423 1096.54 320.565 1097.37 320.849C1098.2 321.134 1098.95 321.595 1099.64 322.234C1100.32 322.866 1100.86 323.705 1101.27 324.749C1101.67 325.793 1101.87 327.078 1101.87 328.605V329.67H1089.26V327.497H1099.32C1099.32 326.574 1099.13 325.75 1098.76 325.026C1098.4 324.301 1097.88 323.729 1097.21 323.31C1096.54 322.891 1095.75 322.682 1094.84 322.682C1093.84 322.682 1092.97 322.93 1092.24 323.428C1091.52 323.918 1090.96 324.557 1090.57 325.345C1090.18 326.134 1089.98 326.979 1089.98 327.881V329.33C1089.98 330.565 1090.2 331.613 1090.62 332.472C1091.06 333.325 1091.66 333.974 1092.42 334.422C1093.19 334.862 1094.08 335.082 1095.1 335.082C1095.76 335.082 1096.36 334.99 1096.89 334.805C1097.43 334.614 1097.89 334.33 1098.28 333.953C1098.67 333.57 1098.98 333.094 1099.19 332.526L1101.62 333.207C1101.36 334.031 1100.93 334.756 1100.33 335.381C1099.73 335.999 1098.98 336.482 1098.09 336.83C1097.2 337.17 1096.21 337.341 1095.1 337.341ZM1105.7 337V320.636H1108.13V323.108H1108.3C1108.6 322.298 1109.14 321.641 1109.92 321.137C1110.7 320.633 1111.58 320.381 1112.56 320.381C1112.74 320.381 1112.97 320.384 1113.25 320.391C1113.53 320.398 1113.74 320.409 1113.88 320.423V322.98C1113.8 322.959 1113.6 322.927 1113.29 322.884C1113 322.835 1112.68 322.81 1112.35 322.81C1111.55 322.81 1110.84 322.977 1110.22 323.31C1109.6 323.637 1109.11 324.092 1108.75 324.674C1108.39 325.249 1108.21 325.906 1108.21 326.645V337H1105.7Z" fill="#7D88A1"/>
</g>
<path d="M1314.21 325.209C1314.88 324.541 1314.88 323.459 1314.21 322.791L1303.33 311.907C1302.66 311.24 1301.58 311.24 1300.91 311.907C1300.24 312.575 1300.24 313.658 1300.91 314.326L1310.58 324L1300.91 333.674C1300.24 334.342 1300.24 335.425 1300.91 336.093C1301.58 336.76 1302.66 336.76 1303.33 336.093L1314.21 325.209ZM1149 325.71H1313V322.29H1149V325.71Z" fill="#7D88A1"/>
<path d="M1743.21 325.209C1743.88 324.541 1743.88 323.459 1743.21 322.791L1732.33 311.907C1731.66 311.24 1730.58 311.24 1729.91 311.907C1729.24 312.575 1729.24 313.658 1729.91 314.326L1739.58 324L1729.91 333.674C1729.24 334.342 1729.24 335.425 1729.91 336.093C1730.58 336.76 1731.66 336.76 1732.33 336.093L1743.21 325.209ZM1572 325.71L1742 325.71L1742 322.29L1572 322.29L1572 325.71Z" fill="#7D88A1"/>
<path d="M1743.21 295.038C1743.88 294.37 1743.88 293.287 1743.21 292.619L1732.33 281.736C1731.66 281.068 1730.58 281.068 1729.91 281.736C1729.24 282.404 1729.24 283.486 1729.91 284.154L1739.58 293.828L1729.91 303.502C1729.24 304.17 1729.24 305.253 1729.91 305.921C1730.58 306.589 1731.66 306.589 1732.33 305.921L1743.21 295.038ZM1572 210.71C1584.82 210.71 1594.02 210.733 1604.74 216.145C1615.53 221.598 1628 232.604 1646.88 255.05L1649.5 252.848C1630.57 230.345 1617.73 218.876 1606.28 213.092C1594.75 207.267 1584.76 207.29 1572 207.29L1572 210.71ZM1646.88 255.05C1665.81 277.55 1678.01 287.852 1691.46 292.366C1698.17 294.618 1705.11 295.398 1713.18 295.627C1721.2 295.855 1730.58 295.538 1742 295.538L1742 292.118C1730.4 292.118 1721.26 292.435 1713.28 292.209C1705.35 291.984 1698.8 291.222 1692.55 289.123C1680.06 284.934 1668.38 275.296 1649.5 252.848L1646.88 255.05Z" fill="#7D88A1"/>
<path d="M1743.21 352.962C1743.88 353.63 1743.88 354.713 1743.21 355.381L1732.33 366.264C1731.66 366.932 1730.58 366.932 1729.91 366.264C1729.24 365.596 1729.24 364.514 1729.91 363.846L1739.58 354.172L1729.91 344.498C1729.24 343.83 1729.24 342.747 1729.91 342.079C1730.58 341.411 1731.66 341.411 1732.33 342.079L1743.21 352.962ZM1572 437.29C1584.82 437.29 1594.02 437.267 1604.74 431.855C1615.53 426.402 1628 415.396 1646.88 392.95L1649.5 395.152C1630.57 417.655 1617.73 429.124 1606.28 434.908C1594.75 440.733 1584.76 440.71 1572 440.71L1572 437.29ZM1646.88 392.95C1665.81 370.45 1678.01 360.148 1691.46 355.634C1698.17 353.382 1705.11 352.602 1713.18 352.373C1721.2 352.145 1730.58 352.462 1742 352.462L1742 355.882C1730.4 355.882 1721.26 355.565 1713.28 355.791C1705.35 356.016 1698.8 356.778 1692.55 358.877C1680.06 363.066 1668.38 372.704 1649.5 395.152L1646.88 392.95Z" fill="#7D88A1"/>
<path d="M1314.21 440.009C1314.88 439.341 1314.88 438.259 1314.21 437.591L1303.33 426.707C1302.66 426.04 1301.58 426.04 1300.91 426.707C1300.24 427.375 1300.24 428.458 1300.91 429.126L1310.58 438.8L1300.91 448.474C1300.24 449.142 1300.24 450.225 1300.91 450.893C1301.58 451.56 1302.66 451.56 1303.33 450.893L1314.21 440.009ZM1149 341.71C1161.36 341.71 1170.16 341.738 1180.44 348.004C1190.84 354.346 1202.87 367.168 1221.1 393.33L1223.9 391.374C1205.65 365.184 1193.28 351.83 1182.22 345.084C1171.03 338.262 1161.32 338.29 1149 338.29L1149 341.71ZM1221.1 393.33C1239.33 419.502 1251.1 431.516 1264.12 436.793C1270.64 439.434 1277.37 440.346 1285.19 440.614C1292.93 440.879 1302 440.51 1313 440.51L1313 437.09C1301.78 437.09 1292.99 437.459 1285.3 437.195C1277.68 436.934 1271.4 436.05 1265.41 433.623C1253.41 428.764 1242.14 417.554 1223.9 391.374L1221.1 393.33Z" fill="#7D88A1"/>
<path d="M1314.21 207.991C1314.88 208.659 1314.88 209.741 1314.21 210.409L1303.33 221.293C1302.66 221.96 1301.58 221.96 1300.91 221.293C1300.24 220.625 1300.24 219.542 1300.91 218.874L1310.58 209.2L1300.91 199.526C1300.24 198.858 1300.24 197.775 1300.91 197.107C1301.58 196.44 1302.66 196.44 1303.33 197.107L1314.21 207.991ZM1149 306.29C1161.36 306.29 1170.16 306.262 1180.44 299.996C1190.84 293.654 1202.87 280.832 1221.1 254.67L1223.9 256.626C1205.65 282.816 1193.28 296.17 1182.22 302.916C1171.03 309.738 1161.32 309.71 1149 309.71L1149 306.29ZM1221.1 254.67C1239.33 228.498 1251.1 216.484 1264.12 211.207C1270.64 208.566 1277.37 207.654 1285.19 207.386C1292.93 207.121 1302 207.49 1313 207.49L1313 210.91C1301.78 210.91 1292.99 210.541 1285.3 210.805C1277.68 211.066 1271.4 211.95 1265.41 214.377C1253.41 219.236 1242.14 230.446 1223.9 256.626L1221.1 254.67Z" fill="#7D88A1"/>
<g filter="url(#filter3_d_394_1089)">
<path d="M1337 179C1337 173.477 1341.48 169 1347 169H1567C1572.52 169 1577 173.477 1577 179V241C1577 246.523 1572.52 251 1567 251H1347C1341.48 251 1337 246.523 1337 241V179Z" fill="white"/>
<path d="M1375 215.449L1393 220.549V226.399L1375 221.299V215.449Z" stroke="#7D88A1" stroke-width="3" stroke-linecap="round" stroke-linejoin="round"/>
<path d="M1393 220.701L1411 215.601V221.451L1393 226.551V220.701Z" stroke="#7D88A1" stroke-width="3" stroke-linecap="round" stroke-linejoin="round"/>
<path d="M1375 215L1388.5 211.25M1397.5 211.25L1411 215" stroke="#7D88A1" stroke-width="3" stroke-linecap="round" stroke-linejoin="round"/>
<path d="M1397.5 191V204.5" stroke="#7D88A1" stroke-width="3" stroke-linecap="round" stroke-linejoin="round"/>
<path d="M1388.5 191V204.5" stroke="#7D88A1" stroke-width="3" stroke-linecap="round" stroke-linejoin="round"/>
<path d="M1397.5 204.5L1402 206" stroke="#7D88A1" stroke-width="3" stroke-linecap="round" stroke-linejoin="round"/>
<path d="M1384 206L1388.5 204.5" stroke="#7D88A1" stroke-width="3" stroke-linecap="round" stroke-linejoin="round"/>
<path d="M1393 215L1402 206" stroke="#7D88A1" stroke-width="3" stroke-linecap="round" stroke-linejoin="round"/>
<path d="M1393 215L1384 206" stroke="#7D88A1" stroke-width="3" stroke-linecap="round" stroke-linejoin="round"/>
<path d="M1466 194H1448C1444.69 194 1442 196.686 1442 200V218C1442 221.314 1444.69 224 1448 224H1466C1469.31 224 1472 221.314 1472 218V200C1472 196.686 1469.31 194 1466 194Z" stroke="#7D88A1" stroke-width="3" stroke-linecap="round" stroke-linejoin="round"/>
<path d="M1463 200H1451C1449.34 200 1448 201.343 1448 203V215C1448 216.657 1449.34 218 1451 218H1463C1464.66 218 1466 216.657 1466 215V203C1466 201.343 1464.66 200 1463 200Z" stroke="#7D88A1" stroke-width="3" stroke-linecap="round" stroke-linejoin="round"/>
<path d="M1449.5 194V188" stroke="#7D88A1" stroke-width="3" stroke-linecap="round" stroke-linejoin="round"/>
<path d="M1449.5 230V224" stroke="#7D88A1" stroke-width="3" stroke-linecap="round" stroke-linejoin="round"/>
<path d="M1457 194V188" stroke="#7D88A1" stroke-width="3" stroke-linecap="round" stroke-linejoin="round"/>
<path d="M1457 230V224" stroke="#7D88A1" stroke-width="3" stroke-linecap="round" stroke-linejoin="round"/>
<path d="M1464.5 194V188" stroke="#7D88A1" stroke-width="3" stroke-linecap="round" stroke-linejoin="round"/>
<path d="M1464.5 230V224" stroke="#7D88A1" stroke-width="3" stroke-linecap="round" stroke-linejoin="round"/>
<path d="M1472 216.5H1478" stroke="#7D88A1" stroke-width="3" stroke-linecap="round" stroke-linejoin="round"/>
<path d="M1436 216.5H1442" stroke="#7D88A1" stroke-width="3" stroke-linecap="round" stroke-linejoin="round"/>
<path d="M1472 209H1478" stroke="#7D88A1" stroke-width="3" stroke-linecap="round" stroke-linejoin="round"/>
<path d="M1461.5 209H1465" stroke="#7D88A1" stroke-width="3" stroke-linecap="round" stroke-linejoin="round"/>
<path d="M1449.5 206H1453" stroke="#7D88A1" stroke-width="3" stroke-linecap="round" stroke-linejoin="round"/>
<path d="M1455.5 217V213.5" stroke="#7D88A1" stroke-width="3" stroke-linecap="round" stroke-linejoin="round"/>
<path d="M1436 209H1442" stroke="#7D88A1" stroke-width="3" stroke-linecap="round" stroke-linejoin="round"/>
<path d="M1472 201.5H1478" stroke="#7D88A1" stroke-width="3" stroke-linecap="round" stroke-linejoin="round"/>
<path d="M1436 201.5H1442" stroke="#7D88A1" stroke-width="3" stroke-linecap="round" stroke-linejoin="round"/>
<path d="M1503 215.449L1521 220.549V226.399L1503 221.299V215.449Z" stroke="#7D88A1" stroke-width="3" stroke-linecap="round" stroke-linejoin="round"/>
<path d="M1521 220.701L1539 215.601V221.451L1521 226.551V220.701Z" stroke="#7D88A1" stroke-width="3" stroke-linecap="round" stroke-linejoin="round"/>
<path d="M1503 215L1516.5 211.25M1525.5 211.25L1539 215" stroke="#7D88A1" stroke-width="3" stroke-linecap="round" stroke-linejoin="round"/>
<path d="M1516.5 215V201.5" stroke="#7D88A1" stroke-width="3" stroke-linecap="round" stroke-linejoin="round"/>
<path d="M1525.5 215V201.5" stroke="#7D88A1" stroke-width="3" stroke-linecap="round" stroke-linejoin="round"/>
<path d="M1516.5 201.5L1512 200" stroke="#7D88A1" stroke-width="3" stroke-linecap="round" stroke-linejoin="round"/>
<path d="M1530 200L1525.5 201.5" stroke="#7D88A1" stroke-width="3" stroke-linecap="round" stroke-linejoin="round"/>
<path d="M1521 191L1512 200" stroke="#7D88A1" stroke-width="3" stroke-linecap="round" stroke-linejoin="round"/>
<path d="M1521 191L1530 200" stroke="#7D88A1" stroke-width="3" stroke-linecap="round" stroke-linejoin="round"/>
</g>
<g filter="url(#filter4_d_394_1089)">
<path d="M1337 293C1337 287.477 1341.48 283 1347 283H1567C1572.52 283 1577 287.477 1577 293V355C1577 360.523 1572.52 365 1567 365H1347C1341.48 365 1337 360.523 1337 355V293Z" fill="white"/>
<path d="M1375 329.449L1393 334.549V340.399L1375 335.299V329.449Z" stroke="#7D88A1" stroke-width="3" stroke-linecap="round" stroke-linejoin="round"/>
<path d="M1393 334.701L1411 329.601V335.451L1393 340.551V334.701Z" stroke="#7D88A1" stroke-width="3" stroke-linecap="round" stroke-linejoin="round"/>
<path d="M1375 329L1388.5 325.25M1397.5 325.25L1411 329" stroke="#7D88A1" stroke-width="3" stroke-linecap="round" stroke-linejoin="round"/>
<path d="M1397.5 305V318.5" stroke="#7D88A1" stroke-width="3" stroke-linecap="round" stroke-linejoin="round"/>
<path d="M1388.5 305V318.5" stroke="#7D88A1" stroke-width="3" stroke-linecap="round" stroke-linejoin="round"/>
<path d="M1397.5 318.5L1402 320" stroke="#7D88A1" stroke-width="3" stroke-linecap="round" stroke-linejoin="round"/>
<path d="M1384 320L1388.5 318.5" stroke="#7D88A1" stroke-width="3" stroke-linecap="round" stroke-linejoin="round"/>
<path d="M1393 329L1402 320" stroke="#7D88A1" stroke-width="3" stroke-linecap="round" stroke-linejoin="round"/>
<path d="M1393 329L1384 320" stroke="#7D88A1" stroke-width="3" stroke-linecap="round" stroke-linejoin="round"/>
<path d="M1466 308H1448C1444.69 308 1442 310.686 1442 314V332C1442 335.314 1444.69 338 1448 338H1466C1469.31 338 1472 335.314 1472 332V314C1472 310.686 1469.31 308 1466 308Z" stroke="#7D88A1" stroke-width="3" stroke-linecap="round" stroke-linejoin="round"/>
<path d="M1463 314H1451C1449.34 314 1448 315.343 1448 317V329C1448 330.657 1449.34 332 1451 332H1463C1464.66 332 1466 330.657 1466 329V317C1466 315.343 1464.66 314 1463 314Z" stroke="#7D88A1" stroke-width="3" stroke-linecap="round" stroke-linejoin="round"/>
<path d="M1449.5 308V302" stroke="#7D88A1" stroke-width="3" stroke-linecap="round" stroke-linejoin="round"/>
<path d="M1449.5 344V338" stroke="#7D88A1" stroke-width="3" stroke-linecap="round" stroke-linejoin="round"/>
<path d="M1457 308V302" stroke="#7D88A1" stroke-width="3" stroke-linecap="round" stroke-linejoin="round"/>
<path d="M1457 344V338" stroke="#7D88A1" stroke-width="3" stroke-linecap="round" stroke-linejoin="round"/>
<path d="M1464.5 308V302" stroke="#7D88A1" stroke-width="3" stroke-linecap="round" stroke-linejoin="round"/>
<path d="M1464.5 344V338" stroke="#7D88A1" stroke-width="3" stroke-linecap="round" stroke-linejoin="round"/>
<path d="M1472 330.5H1478" stroke="#7D88A1" stroke-width="3" stroke-linecap="round" stroke-linejoin="round"/>
<path d="M1436 330.5H1442" stroke="#7D88A1" stroke-width="3" stroke-linecap="round" stroke-linejoin="round"/>
<path d="M1472 323H1478" stroke="#7D88A1" stroke-width="3" stroke-linecap="round" stroke-linejoin="round"/>
<path d="M1461.5 323H1465" stroke="#7D88A1" stroke-width="3" stroke-linecap="round" stroke-linejoin="round"/>
<path d="M1449.5 320H1453" stroke="#7D88A1" stroke-width="3" stroke-linecap="round" stroke-linejoin="round"/>
<path d="M1455.5 331V327.5" stroke="#7D88A1" stroke-width="3" stroke-linecap="round" stroke-linejoin="round"/>
<path d="M1436 323H1442" stroke="#7D88A1" stroke-width="3" stroke-linecap="round" stroke-linejoin="round"/>
<path d="M1472 315.5H1478" stroke="#7D88A1" stroke-width="3" stroke-linecap="round" stroke-linejoin="round"/>
<path d="M1436 315.5H1442" stroke="#7D88A1" stroke-width="3" stroke-linecap="round" stroke-linejoin="round"/>
<path d="M1503 329.449L1521 334.549V340.399L1503 335.299V329.449Z" stroke="#7D88A1" stroke-width="3" stroke-linecap="round" stroke-linejoin="round"/>
<path d="M1521 334.701L1539 329.601V335.451L1521 340.551V334.701Z" stroke="#7D88A1" stroke-width="3" stroke-linecap="round" stroke-linejoin="round"/>
<path d="M1503 329L1516.5 325.25M1525.5 325.25L1539 329" stroke="#7D88A1" stroke-width="3" stroke-linecap="round" stroke-linejoin="round"/>
<path d="M1516.5 329V315.5" stroke="#7D88A1" stroke-width="3" stroke-linecap="round" stroke-linejoin="round"/>
<path d="M1525.5 329V315.5" stroke="#7D88A1" stroke-width="3" stroke-linecap="round" stroke-linejoin="round"/>
<path d="M1516.5 315.5L1512 314" stroke="#7D88A1" stroke-width="3" stroke-linecap="round" stroke-linejoin="round"/>
<path d="M1530 314L1525.5 315.5" stroke="#7D88A1" stroke-width="3" stroke-linecap="round" stroke-linejoin="round"/>
<path d="M1521 305L1512 314" stroke="#7D88A1" stroke-width="3" stroke-linecap="round" stroke-linejoin="round"/>
<path d="M1521 305L1530 314" stroke="#7D88A1" stroke-width="3" stroke-linecap="round" stroke-linejoin="round"/>
</g>
<g filter="url(#filter5_d_394_1089)">
<path d="M1337 407C1337 401.477 1341.48 397 1347 397H1567C1572.52 397 1577 401.477 1577 407V469C1577 474.523 1572.52 479 1567 479H1347C1341.48 479 1337 474.523 1337 469V407Z" fill="white"/>
<path d="M1375 443.449L1393 448.549V454.399L1375 449.299V443.449Z" stroke="#7D88A1" stroke-width="3" stroke-linecap="round" stroke-linejoin="round"/>
<path d="M1393 448.701L1411 443.601V449.451L1393 454.551V448.701Z" stroke="#7D88A1" stroke-width="3" stroke-linecap="round" stroke-linejoin="round"/>
<path d="M1375 443L1388.5 439.25M1397.5 439.25L1411 443" stroke="#7D88A1" stroke-width="3" stroke-linecap="round" stroke-linejoin="round"/>
<path d="M1397.5 419V432.5" stroke="#7D88A1" stroke-width="3" stroke-linecap="round" stroke-linejoin="round"/>
<path d="M1388.5 419V432.5" stroke="#7D88A1" stroke-width="3" stroke-linecap="round" stroke-linejoin="round"/>
<path d="M1397.5 432.5L1402 434" stroke="#7D88A1" stroke-width="3" stroke-linecap="round" stroke-linejoin="round"/>
<path d="M1384 434L1388.5 432.5" stroke="#7D88A1" stroke-width="3" stroke-linecap="round" stroke-linejoin="round"/>
<path d="M1393 443L1402 434" stroke="#7D88A1" stroke-width="3" stroke-linecap="round" stroke-linejoin="round"/>
<path d="M1393 443L1384 434" stroke="#7D88A1" stroke-width="3" stroke-linecap="round" stroke-linejoin="round"/>
<path d="M1466 422H1448C1444.69 422 1442 424.686 1442 428V446C1442 449.314 1444.69 452 1448 452H1466C1469.31 452 1472 449.314 1472 446V428C1472 424.686 1469.31 422 1466 422Z" stroke="#7D88A1" stroke-width="3" stroke-linecap="round" stroke-linejoin="round"/>
<path d="M1463 428H1451C1449.34 428 1448 429.343 1448 431V443C1448 444.657 1449.34 446 1451 446H1463C1464.66 446 1466 444.657 1466 443V431C1466 429.343 1464.66 428 1463 428Z" stroke="#7D88A1" stroke-width="3" stroke-linecap="round" stroke-linejoin="round"/>
<path d="M1449.5 422V416" stroke="#7D88A1" stroke-width="3" stroke-linecap="round" stroke-linejoin="round"/>
<path d="M1449.5 458V452" stroke="#7D88A1" stroke-width="3" stroke-linecap="round" stroke-linejoin="round"/>
<path d="M1457 422V416" stroke="#7D88A1" stroke-width="3" stroke-linecap="round" stroke-linejoin="round"/>
<path d="M1457 458V452" stroke="#7D88A1" stroke-width="3" stroke-linecap="round" stroke-linejoin="round"/>
<path d="M1464.5 422V416" stroke="#7D88A1" stroke-width="3" stroke-linecap="round" stroke-linejoin="round"/>
<path d="M1464.5 458V452" stroke="#7D88A1" stroke-width="3" stroke-linecap="round" stroke-linejoin="round"/>
<path d="M1472 444.5H1478" stroke="#7D88A1" stroke-width="3" stroke-linecap="round" stroke-linejoin="round"/>
<path d="M1436 444.5H1442" stroke="#7D88A1" stroke-width="3" stroke-linecap="round" stroke-linejoin="round"/>
<path d="M1472 437H1478" stroke="#7D88A1" stroke-width="3" stroke-linecap="round" stroke-linejoin="round"/>
<path d="M1461.5 437H1465" stroke="#7D88A1" stroke-width="3" stroke-linecap="round" stroke-linejoin="round"/>
<path d="M1449.5 434H1453" stroke="#7D88A1" stroke-width="3" stroke-linecap="round" stroke-linejoin="round"/>
<path d="M1455.5 445V441.5" stroke="#7D88A1" stroke-width="3" stroke-linecap="round" stroke-linejoin="round"/>
<path d="M1436 437H1442" stroke="#7D88A1" stroke-width="3" stroke-linecap="round" stroke-linejoin="round"/>
<path d="M1472 429.5H1478" stroke="#7D88A1" stroke-width="3" stroke-linecap="round" stroke-linejoin="round"/>
<path d="M1436 429.5H1442" stroke="#7D88A1" stroke-width="3" stroke-linecap="round" stroke-linejoin="round"/>
<path d="M1503 443.449L1521 448.549V454.399L1503 449.299V443.449Z" stroke="#7D88A1" stroke-width="3" stroke-linecap="round" stroke-linejoin="round"/>
<path d="M1521 448.701L1539 443.601V449.451L1521 454.551V448.701Z" stroke="#7D88A1" stroke-width="3" stroke-linecap="round" stroke-linejoin="round"/>
<path d="M1503 443L1516.5 439.25M1525.5 439.25L1539 443" stroke="#7D88A1" stroke-width="3" stroke-linecap="round" stroke-linejoin="round"/>
<path d="M1516.5 443V429.5" stroke="#7D88A1" stroke-width="3" stroke-linecap="round" stroke-linejoin="round"/>
<path d="M1525.5 443V429.5" stroke="#7D88A1" stroke-width="3" stroke-linecap="round" stroke-linejoin="round"/>
<path d="M1516.5 429.5L1512 428" stroke="#7D88A1" stroke-width="3" stroke-linecap="round" stroke-linejoin="round"/>
<path d="M1530 428L1525.5 429.5" stroke="#7D88A1" stroke-width="3" stroke-linecap="round" stroke-linejoin="round"/>
<path d="M1521 419L1512 428" stroke="#7D88A1" stroke-width="3" stroke-linecap="round" stroke-linejoin="round"/>
<path d="M1521 419L1530 428" stroke="#7D88A1" stroke-width="3" stroke-linecap="round" stroke-linejoin="round"/>
</g>
<defs>
<filter id="filter0_d_394_1089" x="104" y="275" width="430" height="114" filterUnits="userSpaceOnUse" color-interpolation-filters="sRGB">
<feFlood flood-opacity="0" result="BackgroundImageFix"/>
<feColorMatrix in="SourceAlpha" type="matrix" values="0 0 0 0 0 0 0 0 0 0 0 0 0 0 0 0 0 0 127 0" result="hardAlpha"/>
<feOffset dy="8"/>
<feGaussianBlur stdDeviation="8"/>
<feColorMatrix type="matrix" values="0 0 0 0 0.337255 0 0 0 0 0.388235 0 0 0 0 0.505882 0 0 0 0.24 0"/>
<feBlend mode="normal" in2="BackgroundImageFix" result="effect1_dropShadow_394_1089"/>
<feBlend mode="normal" in="SourceGraphic" in2="effect1_dropShadow_394_1089" result="shape"/>
</filter>
<filter id="filter1_d_394_1089" x="1750" y="275" width="299" height="114" filterUnits="userSpaceOnUse" color-interpolation-filters="sRGB">
<feFlood flood-opacity="0" result="BackgroundImageFix"/>
<feColorMatrix in="SourceAlpha" type="matrix" values="0 0 0 0 0 0 0 0 0 0 0 0 0 0 0 0 0 0 127 0" result="hardAlpha"/>
<feOffset dy="8"/>
<feGaussianBlur stdDeviation="8"/>
<feColorMatrix type="matrix" values="0 0 0 0 0.337255 0 0 0 0 0.388235 0 0 0 0 0.505882 0 0 0 0.24 0"/>
<feBlend mode="normal" in2="BackgroundImageFix" result="effect1_dropShadow_394_1089"/>
<feBlend mode="normal" in="SourceGraphic" in2="effect1_dropShadow_394_1089" result="shape"/>
</filter>
<filter id="filter2_d_394_1089" x="784" y="275" width="379" height="114" filterUnits="userSpaceOnUse" color-interpolation-filters="sRGB">
<feFlood flood-opacity="0" result="BackgroundImageFix"/>
<feColorMatrix in="SourceAlpha" type="matrix" values="0 0 0 0 0 0 0 0 0 0 0 0 0 0 0 0 0 0 127 0" result="hardAlpha"/>
<feOffset dy="8"/>
<feGaussianBlur stdDeviation="8"/>
<feColorMatrix type="matrix" values="0 0 0 0 0.337255 0 0 0 0 0.388235 0 0 0 0 0.505882 0 0 0 0.24 0"/>
<feBlend mode="normal" in2="BackgroundImageFix" result="effect1_dropShadow_394_1089"/>
<feBlend mode="normal" in="SourceGraphic" in2="effect1_dropShadow_394_1089" result="shape"/>
</filter>
<filter id="filter3_d_394_1089" x="1321" y="161" width="272" height="114" filterUnits="userSpaceOnUse" color-interpolation-filters="sRGB">
<feFlood flood-opacity="0" result="BackgroundImageFix"/>
<feColorMatrix in="SourceAlpha" type="matrix" values="0 0 0 0 0 0 0 0 0 0 0 0 0 0 0 0 0 0 127 0" result="hardAlpha"/>
<feOffset dy="8"/>
<feGaussianBlur stdDeviation="8"/>
<feColorMatrix type="matrix" values="0 0 0 0 0.337255 0 0 0 0 0.388235 0 0 0 0 0.505882 0 0 0 0.24 0"/>
<feBlend mode="normal" in2="BackgroundImageFix" result="effect1_dropShadow_394_1089"/>
<feBlend mode="normal" in="SourceGraphic" in2="effect1_dropShadow_394_1089" result="shape"/>
</filter>
<filter id="filter4_d_394_1089" x="1321" y="275" width="272" height="114" filterUnits="userSpaceOnUse" color-interpolation-filters="sRGB">
<feFlood flood-opacity="0" result="BackgroundImageFix"/>
<feColorMatrix in="SourceAlpha" type="matrix" values="0 0 0 0 0 0 0 0 0 0 0 0 0 0 0 0 0 0 127 0" result="hardAlpha"/>
<feOffset dy="8"/>
<feGaussianBlur stdDeviation="8"/>
<feColorMatrix type="matrix" values="0 0 0 0 0.337255 0 0 0 0 0.388235 0 0 0 0 0.505882 0 0 0 0.24 0"/>
<feBlend mode="normal" in2="BackgroundImageFix" result="effect1_dropShadow_394_1089"/>
<feBlend mode="normal" in="SourceGraphic" in2="effect1_dropShadow_394_1089" result="shape"/>
</filter>
<filter id="filter5_d_394_1089" x="1321" y="389" width="272" height="114" filterUnits="userSpaceOnUse" color-interpolation-filters="sRGB">
<feFlood flood-opacity="0" result="BackgroundImageFix"/>
<feColorMatrix in="SourceAlpha" type="matrix" values="0 0 0 0 0 0 0 0 0 0 0 0 0 0 0 0 0 0 127 0" result="hardAlpha"/>
<feOffset dy="8"/>
<feGaussianBlur stdDeviation="8"/>
<feColorMatrix type="matrix" values="0 0 0 0 0.337255 0 0 0 0 0.388235 0 0 0 0 0.505882 0 0 0 0.24 0"/>
<feBlend mode="normal" in2="BackgroundImageFix" result="effect1_dropShadow_394_1089"/>
<feBlend mode="normal" in="SourceGraphic" in2="effect1_dropShadow_394_1089" result="shape"/>
</filter>
</defs>
</svg>
