<svg width="985" height="379" fill="none" xmlns="http://www.w3.org/2000/svg"><rect width="985" height="379" rx="27" fill="#fff"/><rect x="558" y="80" width="219" height="478" rx="8" transform="rotate(90 558 80)" fill="#E7ECF8"/><path d="M125.805 138h-5.073l7.729-22.387h6.1L142.278 138h-5.072l-5.608-17.271h-.175L125.805 138Zm-.317-8.8h11.98v3.695h-11.98V129.2Zm19.397 15.096v-23.087h4.591v2.821h.208c.204-.452.499-.911.885-1.378.394-.473.904-.867 1.531-1.18.634-.321 1.421-.481 2.361-.481 1.224 0 2.354.321 3.389.962 1.035.634 1.862 1.592 2.481 2.875.62 1.275.929 2.875.929 4.799 0 1.873-.302 3.454-.907 4.744-.598 1.282-1.414 2.255-2.449 2.918-1.027.656-2.179.984-3.454.984-.904 0-1.672-.149-2.306-.448-.627-.299-1.141-.674-1.542-1.126a5.706 5.706 0 0 1-.918-1.388h-.142v8.985h-4.657Zm4.559-14.691c0 .998.138 1.869.415 2.612.277.744.678 1.323 1.202 1.738.525.409 1.163.613 1.913.613.758 0 1.4-.208 1.924-.624.525-.422.922-1.005 1.192-1.749.277-.75.415-1.614.415-2.59 0-.97-.135-1.822-.404-2.558-.27-.736-.667-1.312-1.192-1.727-.525-.416-1.169-.623-1.935-.623-.758 0-1.399.2-1.924.601-.517.401-.914.969-1.191 1.705-.277.736-.415 1.603-.415 2.602Zm14.921 14.691v-23.087h4.591v2.821h.208c.204-.452.499-.911.885-1.378.394-.473.904-.867 1.53-1.18.634-.321 1.422-.481 2.362-.481 1.224 0 2.353.321 3.388.962 1.035.634 1.862 1.592 2.482 2.875.619 1.275.929 2.875.929 4.799 0 1.873-.303 3.454-.907 4.744-.598 1.282-1.414 2.255-2.449 2.918-1.028.656-2.179.984-3.454.984-.904 0-1.673-.149-2.307-.448-.627-.299-1.14-.674-1.541-1.126a5.706 5.706 0 0 1-.918-1.388h-.142v8.985h-4.657Zm4.558-14.691c0 .998.139 1.869.416 2.612.276.744.677 1.323 1.202 1.738.525.409 1.162.613 1.913.613.758 0 1.399-.208 1.924-.624.525-.422.922-1.005 1.191-1.749.277-.75.416-1.614.416-2.59 0-.97-.135-1.822-.405-2.558-.269-.736-.666-1.312-1.191-1.727-.525-.416-1.17-.623-1.935-.623-.758 0-1.399.2-1.924.601-.517.401-.915.969-1.191 1.705-.277.736-.416 1.603-.416 2.602Zm19.578-13.992V138h-4.657v-22.387h4.657Zm3.73 22.387v-16.791h4.657V138h-4.657Zm2.351-18.955a2.525 2.525 0 0 1-1.782-.689c-.496-.466-.743-1.023-.743-1.672 0-.641.247-1.192.743-1.651a2.496 2.496 0 0 1 1.771-.699c.699 0 1.293.233 1.782.699.495.459.743 1.01.743 1.651 0 .649-.248 1.206-.743 1.672-.489.46-1.079.689-1.771.689Zm13.623 19.283c-1.72 0-3.199-.364-4.438-1.093a7.383 7.383 0 0 1-2.842-3.061c-.656-1.304-.984-2.806-.984-4.504 0-1.72.331-3.228.995-4.525.67-1.305 1.621-2.321 2.853-3.05 1.231-.736 2.696-1.104 4.394-1.104 1.465 0 2.747.266 3.848.798 1.1.532 1.971 1.279 2.612 2.241.642.962.995 2.091 1.061 3.388h-4.395c-.124-.838-.451-1.512-.983-2.022-.525-.517-1.214-.776-2.066-.776-.722 0-1.352.197-1.892.59-.532.387-.947.951-1.246 1.695-.299.743-.448 1.643-.448 2.7 0 1.071.146 1.982.437 2.733.299.75.718 1.322 1.257 1.716.54.393 1.17.59 1.892.59a3.07 3.07 0 0 0 1.432-.328 2.763 2.763 0 0 0 1.06-.951c.284-.423.47-.929.557-1.519h4.395c-.073 1.282-.423 2.412-1.05 3.388-.619.97-1.475 1.728-2.569 2.274-1.093.547-2.386.82-3.88.82Zm15.268-.011c-1.071 0-2.026-.186-2.864-.557a4.61 4.61 0 0 1-1.989-1.673c-.481-.743-.722-1.669-.722-2.777 0-.932.171-1.716.514-2.35a4.155 4.155 0 0 1 1.399-1.53 6.796 6.796 0 0 1 2.012-.875 15.38 15.38 0 0 1 2.383-.415 61.437 61.437 0 0 0 2.361-.284c.597-.095 1.031-.233 1.301-.416.269-.182.404-.451.404-.809v-.065c0-.692-.219-1.228-.656-1.607-.43-.379-1.042-.568-1.836-.568-.838 0-1.505.185-2.001.557-.495.364-.823.823-.984 1.377l-4.307-.349c.219-1.021.649-1.903 1.29-2.646.642-.75 1.469-1.326 2.482-1.727 1.02-.408 2.201-.612 3.542-.612.932 0 1.825.109 2.678.328a6.99 6.99 0 0 1 2.284 1.016 4.945 4.945 0 0 1 1.585 1.771c.387.714.58 1.571.58 2.569V138h-4.416v-2.328h-.132c-.269.524-.63.987-1.082 1.388a5.023 5.023 0 0 1-1.629.929c-.634.219-1.366.328-2.197.328Zm1.334-3.214c.685 0 1.29-.135 1.814-.404a3.22 3.22 0 0 0 1.236-1.115c.298-.467.448-.995.448-1.585v-1.782a2.482 2.482 0 0 1-.601.262c-.248.073-.529.142-.842.208-.313.058-.627.113-.94.164l-.853.12a5.754 5.754 0 0 0-1.432.383c-.408.175-.725.412-.951.71-.226.292-.339.656-.339 1.093 0 .634.23 1.119.689 1.454.466.328 1.057.492 1.771.492Zm20.665-13.894v3.499h-10.111v-3.499h10.111Zm-7.815-4.022h4.656v15.653c0 .43.066.766.197 1.006.131.233.313.397.547.492.24.095.517.142.83.142.219 0 .438-.018.656-.055l.503-.098.733 3.465c-.234.073-.562.157-.984.252a7.91 7.91 0 0 1-1.542.186c-1.122.043-2.106-.106-2.951-.449-.838-.342-1.49-.874-1.957-1.596-.466-.721-.696-1.632-.688-2.732v-16.266ZM248.506 138v-16.791h4.657V138h-4.657Zm2.35-18.955a2.528 2.528 0 0 1-1.782-.689c-.495-.466-.743-1.023-.743-1.672 0-.641.248-1.192.743-1.651a2.497 2.497 0 0 1 1.771-.699c.7 0 1.294.233 1.782.699.496.459.743 1.01.743 1.651 0 .649-.247 1.206-.743 1.672-.488.46-1.079.689-1.771.689Zm13.623 19.283c-1.698 0-3.166-.361-4.405-1.082a7.403 7.403 0 0 1-2.853-3.039c-.671-1.305-1.006-2.817-1.006-4.537 0-1.734.335-3.25 1.006-4.547.67-1.305 1.621-2.318 2.853-3.039 1.239-.729 2.707-1.093 4.405-1.093 1.698 0 3.163.364 4.395 1.093 1.239.721 2.193 1.734 2.864 3.039.67 1.297 1.005 2.813 1.005 4.547 0 1.72-.335 3.232-1.005 4.537a7.39 7.39 0 0 1-2.864 3.039c-1.232.721-2.697 1.082-4.395 1.082Zm.022-3.607c.773 0 1.418-.219 1.935-.656.517-.445.907-1.05 1.17-1.815.269-.765.404-1.636.404-2.612 0-.977-.135-1.848-.404-2.613-.263-.765-.653-1.37-1.17-1.815-.517-.444-1.162-.666-1.935-.666-.78 0-1.435.222-1.967.666-.525.445-.922 1.05-1.192 1.815-.262.765-.394 1.636-.394 2.613 0 .976.132 1.847.394 2.612.27.765.667 1.37 1.192 1.815.532.437 1.187.656 1.967.656Zm15.927-6.428V138h-4.657v-16.791h4.438v2.963h.197a4.69 4.69 0 0 1 1.869-2.318c.875-.575 1.935-.863 3.182-.863 1.166 0 2.182.255 3.049.765.868.51 1.542 1.239 2.023 2.186.481.94.721 2.063.721 3.367V138h-4.657v-9.86c.008-1.028-.255-1.829-.787-2.405-.532-.583-1.264-.874-2.197-.874-.627 0-1.18.134-1.661.404-.474.27-.846.663-1.115 1.181-.263.51-.398 1.126-.405 1.847Z" fill="#8FA5ED"/><g filter="url(#a)"><path d="M120 187c0-5.523 4.477-10 10-10h70v82h-69c-6.075 0-11-4.925-11-11v-61Z" fill="#fff"/><path d="M177.266 206.272h-34.532a2.735 2.735 0 0 0-2.734 2.735v25.898a2.735 2.735 0 0 0 2.734 2.735h34.532a2.735 2.735 0 0 0 2.734-2.735v-25.898a2.735 2.735 0 0 0-2.734-2.735Z" stroke="#7D88A1" stroke-width="3.165"/><path d="M149.494 206.905v-3.798a4.747 4.747 0 0 1 4.746-4.747h11.393a4.748 4.748 0 0 1 4.747 4.747v3.798" stroke="#7D88A1" stroke-width="3.165"/><path d="M167.728 221.684c.865 1.499 5.082 3.065 8.597 1.035 2.19-1.264 3.017-3.295 3.119-5.008.085-1.432-1.475-1.94-2.717-1.223-1.5.866-3.866.232-4.732-1.268-.866-1.5-.232-3.866 1.268-4.731 1.178-.68 1.447-2.287.253-2.937-1.475-.804-3.514-1.18-5.851.169-3.749 2.165-3.767 6.175-3.401 7.963m-11.999 6.928c-.866-1.5-5.082-3.066-8.598-1.036-2.19 1.264-3.016 3.295-3.119 5.008-.085 1.432 1.475 1.94 2.718 1.223 1.499-.866 3.865-.232 4.731 1.268.866 1.5.232 3.866-1.268 4.731-1.177.68-1.447 2.287-.253 2.937 1.475.804 3.514 1.18 5.851-.169 3.75-2.165 3.767-6.175 3.401-7.963m8.535-12.927-11.998 6.927m15.462-.927-11.999 6.927" stroke="#7D88A1" stroke-width="3.165" stroke-linecap="round"/><path d="M200 177h308c5.523 0 10 4.477 10 10v62c0 5.523-4.477 10-10 10H200v-82Z" fill="#fff"/><path d="M221.463 220.091c0 2.301-.415 4.29-1.246 5.966-.831 1.676-1.971 2.969-3.42 3.878-1.449.909-3.104 1.363-4.964 1.363-1.861 0-3.516-.454-4.965-1.363-1.449-.909-2.589-2.202-3.42-3.878-.831-1.676-1.246-3.665-1.246-5.966s.415-4.29 1.246-5.966c.831-1.676 1.971-2.969 3.42-3.878 1.449-.909 3.104-1.363 4.965-1.363 1.86 0 3.515.454 4.964 1.363 1.449.909 2.589 2.202 3.42 3.878.831 1.676 1.246 3.665 1.246 5.966Zm-2.557 0c0-1.889-.316-3.484-.948-4.783-.625-1.3-1.473-2.284-2.546-2.951-1.065-.668-2.258-1.002-3.579-1.002-1.321 0-2.518.334-3.591 1.002-1.065.667-1.914 1.651-2.546 2.951-.625 1.299-.937 2.894-.937 4.783 0 1.889.312 3.484.937 4.783.632 1.3 1.481 2.284 2.546 2.951 1.073.668 2.27 1.002 3.591 1.002 1.321 0 2.514-.334 3.579-1.002 1.073-.667 1.921-1.651 2.546-2.951.632-1.299.948-2.894.948-4.783Zm6.659 17.045v-22.5h2.429v2.6h.298c.185-.284.44-.647.767-1.087.334-.447.81-.845 1.428-1.193.625-.355 1.47-.533 2.535-.533 1.378 0 2.593.345 3.644 1.034 1.051.689 1.871 1.665 2.461 2.929.589 1.265.884 2.756.884 4.475 0 1.733-.295 3.235-.884 4.506-.59 1.264-1.407 2.245-2.451 2.941-1.044.688-2.248 1.033-3.611 1.033-1.051 0-1.893-.174-2.525-.522-.632-.355-1.119-.757-1.46-1.204-.34-.454-.603-.831-.788-1.129h-.213v8.65h-2.514Zm2.471-14.318c0 1.236.182 2.326.544 3.271.362.937.891 1.672 1.587 2.205.696.526 1.548.788 2.557.788 1.051 0 1.928-.277 2.631-.831.711-.561 1.243-1.314 1.598-2.258.363-.952.544-2.01.544-3.175 0-1.15-.178-2.187-.533-3.111-.348-.93-.877-1.665-1.587-2.205-.704-.547-1.588-.82-2.653-.82-1.023 0-1.882.259-2.578.778-.696.511-1.222 1.228-1.577 2.152-.355.916-.533 1.985-.533 3.206Zm22.671 8.523c-1.577 0-2.937-.348-4.08-1.044-1.137-.703-2.014-1.683-2.632-2.94-.611-1.265-.916-2.735-.916-4.411 0-1.676.305-3.153.916-4.432.618-1.285 1.477-2.287 2.578-3.004 1.108-.724 2.401-1.087 3.878-1.087.852 0 1.694.142 2.525.426a6.272 6.272 0 0 1 2.269 1.385c.682.632 1.225 1.471 1.63 2.515.405 1.044.607 2.329.607 3.856v1.065h-12.613v-2.173h10.057c0-.923-.185-1.747-.554-2.471a4.178 4.178 0 0 0-1.556-1.716c-.667-.419-1.456-.628-2.365-.628-1.001 0-1.868.248-2.599.746a4.905 4.905 0 0 0-1.673 1.917 5.646 5.646 0 0 0-.586 2.536v1.449c0 1.235.213 2.283.639 3.142.434.853 1.034 1.502 1.801 1.95.767.44 1.658.66 2.674.66.66 0 1.257-.092 1.79-.277a3.811 3.811 0 0 0 1.395-.852c.391-.383.693-.859.906-1.427l2.429.681a5.399 5.399 0 0 1-1.289 2.174c-.604.618-1.35 1.101-2.238 1.449-.887.34-1.885.511-2.993.511Zm13.114-10.185V231h-2.514v-16.364h2.429v2.557h.213a4.682 4.682 0 0 1 1.747-2.003c.781-.511 1.79-.767 3.026-.767 1.108 0 2.077.228 2.908.682.831.448 1.477 1.129 1.939 2.046.462.909.693 2.059.693 3.451V231h-2.515v-10.227c0-1.286-.333-2.287-1.001-3.005-.668-.724-1.584-1.086-2.749-1.086-.802 0-1.52.174-2.152.522a3.734 3.734 0 0 0-1.48 1.523c-.363.668-.544 1.478-.544 2.429Zm12.806-9.63v-2.344h16.363v2.344h-6.861V231h-2.642v-19.474h-6.86Zm24.588 19.815c-1.577 0-2.937-.348-4.081-1.044-1.136-.703-2.013-1.683-2.631-2.94-.611-1.265-.916-2.735-.916-4.411 0-1.676.305-3.153.916-4.432.618-1.285 1.477-2.287 2.578-3.004 1.108-.724 2.401-1.087 3.878-1.087.852 0 1.694.142 2.525.426a6.272 6.272 0 0 1 2.269 1.385c.682.632 1.225 1.471 1.63 2.515.405 1.044.607 2.329.607 3.856v1.065h-12.613v-2.173h10.056c0-.923-.184-1.747-.554-2.471a4.169 4.169 0 0 0-1.555-1.716c-.668-.419-1.456-.628-2.365-.628-1.001 0-1.868.248-2.599.746a4.905 4.905 0 0 0-1.673 1.917 5.633 5.633 0 0 0-.586 2.536v1.449c0 1.235.213 2.283.639 3.142.433.853 1.034 1.502 1.801 1.95.767.44 1.658.66 2.674.66.66 0 1.257-.092 1.789-.277a3.815 3.815 0 0 0 1.396-.852c.391-.383.693-.859.906-1.427l2.429.681a5.39 5.39 0 0 1-1.29 2.174c-.603.618-1.349 1.101-2.237 1.449-.888.34-1.885.511-2.993.511Zm13.114-22.159V231h-2.514v-21.818h2.514Zm11.466 22.159c-1.577 0-2.937-.348-4.081-1.044-1.136-.703-2.013-1.683-2.631-2.94-.611-1.265-.916-2.735-.916-4.411 0-1.676.305-3.153.916-4.432.618-1.285 1.477-2.287 2.578-3.004 1.108-.724 2.401-1.087 3.878-1.087.852 0 1.694.142 2.525.426a6.272 6.272 0 0 1 2.269 1.385c.682.632 1.225 1.471 1.63 2.515.405 1.044.607 2.329.607 3.856v1.065h-12.613v-2.173h10.056c0-.923-.184-1.747-.553-2.471a4.178 4.178 0 0 0-1.556-1.716c-.667-.419-1.456-.628-2.365-.628-1.001 0-1.868.248-2.599.746a4.905 4.905 0 0 0-1.673 1.917 5.633 5.633 0 0 0-.586 2.536v1.449c0 1.235.213 2.283.639 3.142.434.853 1.034 1.502 1.801 1.95.767.44 1.658.66 2.674.66.66 0 1.257-.092 1.79-.277a3.82 3.82 0 0 0 1.395-.852c.391-.383.693-.859.906-1.427l2.429.681a5.399 5.399 0 0 1-1.289 2.174c-.604.618-1.35 1.101-2.238 1.449-.887.34-1.885.511-2.993.511Zm10.6-.341v-16.364h2.429v2.557h.213c.341-.873.891-1.552 1.651-2.035.76-.49 1.673-.735 2.738-.735 1.08 0 1.978.245 2.695.735.725.483 1.29 1.162 1.694 2.035h.171a4.764 4.764 0 0 1 1.885-2.013c.839-.505 1.843-.757 3.015-.757 1.463 0 2.66.458 3.591 1.375.93.909 1.395 2.326 1.395 4.25V231h-2.514v-10.952c0-1.207-.33-2.07-.991-2.588-.66-.519-1.438-.778-2.333-.778-1.15 0-2.042.348-2.674 1.044-.632.689-.948 1.562-.948 2.621V231h-2.557v-11.207c0-.931-.302-1.68-.905-2.248-.604-.576-1.382-.863-2.334-.863-.653 0-1.264.174-1.832.522a3.943 3.943 0 0 0-1.364 1.449c-.34.61-.511 1.317-.511 2.12V231h-2.514Zm32.935.341c-1.577 0-2.937-.348-4.08-1.044-1.137-.703-2.014-1.683-2.632-2.94-.611-1.265-.916-2.735-.916-4.411 0-1.676.305-3.153.916-4.432.618-1.285 1.478-2.287 2.578-3.004 1.108-.724 2.401-1.087 3.878-1.087.852 0 1.694.142 2.525.426a6.272 6.272 0 0 1 2.269 1.385c.682.632 1.225 1.471 1.63 2.515.405 1.044.607 2.329.607 3.856v1.065h-12.613v-2.173h10.057c0-.923-.185-1.747-.554-2.471a4.178 4.178 0 0 0-1.556-1.716c-.667-.419-1.456-.628-2.365-.628-1.001 0-1.868.248-2.599.746a4.905 4.905 0 0 0-1.673 1.917 5.646 5.646 0 0 0-.586 2.536v1.449c0 1.235.213 2.283.639 3.142.434.853 1.034 1.502 1.801 1.95.767.44 1.658.66 2.674.66.66 0 1.257-.092 1.79-.277a3.811 3.811 0 0 0 1.395-.852c.391-.383.693-.859.906-1.427l2.429.681a5.399 5.399 0 0 1-1.289 2.174c-.604.618-1.35 1.101-2.237 1.449-.888.34-1.886.511-2.994.511Zm17.717-16.705v2.131h-8.481v-2.131h8.481Zm-6.009-3.92h2.514v15.596c0 .711.103 1.243.309 1.599.213.348.483.582.81.703.334.113.685.17 1.054.17.277 0 .505-.014.682-.043a46.2 46.2 0 0 0 .426-.085l.512 2.259a5.153 5.153 0 0 1-.714.192c-.305.071-.692.106-1.161.106-.71 0-1.406-.153-2.088-.458a4.14 4.14 0 0 1-1.683-1.396c-.441-.625-.661-1.413-.661-2.365v-16.278Zm9.79 20.284v-16.364h2.429v2.472h.171c.298-.81.838-1.467 1.619-1.971s1.662-.756 2.642-.756c.185 0 .416.003.693.01.277.007.486.018.628.032v2.557a7.73 7.73 0 0 0-.586-.096 5.84 5.84 0 0 0-.948-.074c-.795 0-1.505.167-2.13.5a3.79 3.79 0 0 0-1.471 1.364c-.355.575-.532 1.232-.532 1.971V231h-2.515Zm13.28 6.136c-.426 0-.806-.035-1.14-.106-.334-.064-.565-.128-.692-.192l.639-2.216c.611.156 1.15.213 1.619.171.469-.043.884-.253 1.247-.629.369-.369.706-.969 1.012-1.8l.468-1.279-6.051-16.449h2.728l4.517 13.04h.17l4.517-13.04h2.727l-6.946 18.75c-.312.846-.699 1.545-1.161 2.099a4.357 4.357 0 0 1-1.609 1.247c-.603.269-1.285.404-2.045.404Zm35.79-22.5c-.128-1.079-.646-1.917-1.555-2.514-.909-.596-2.024-.895-3.345-.895-.966 0-1.812.157-2.536.469-.717.313-1.278.742-1.683 1.289a3.088 3.088 0 0 0-.597 1.864c0 .583.139 1.084.416 1.503.284.411.646.756 1.086 1.033.441.27.902.494 1.385.671.483.171.927.309 1.332.416l2.216.596c.568.149 1.2.355 1.896.618a8.807 8.807 0 0 1 2.014 1.076 5.49 5.49 0 0 1 1.598 1.726c.419.703.628 1.566.628 2.589 0 1.179-.309 2.244-.927 3.196-.61.951-1.505 1.708-2.684 2.269-1.172.561-2.596.842-4.272.842-1.563 0-2.916-.253-4.059-.757-1.137-.504-2.032-1.207-2.685-2.109-.646-.902-1.012-1.95-1.097-3.143h2.727c.071.824.348 1.506.831 2.045.49.533 1.108.931 1.854 1.194a7.522 7.522 0 0 0 2.429.383c1.008 0 1.914-.163 2.716-.49.803-.334 1.439-.795 1.907-1.385.469-.596.703-1.292.703-2.088 0-.724-.202-1.314-.607-1.768-.405-.455-.937-.824-1.598-1.108a16.765 16.765 0 0 0-2.141-.746l-2.685-.767c-1.704-.49-3.054-1.19-4.048-2.099-.994-.909-1.492-2.099-1.492-3.569 0-1.221.331-2.287.991-3.196.668-.916 1.563-1.626 2.685-2.13 1.129-.512 2.39-.767 3.782-.767 1.406 0 2.656.252 3.75.756 1.093.497 1.96 1.179 2.599 2.045a5.104 5.104 0 0 1 1.023 2.951h-2.557ZM453.83 231h-6.733v-21.818h7.031c2.117 0 3.928.437 5.434 1.31 1.505.867 2.659 2.113 3.462 3.74.803 1.619 1.204 3.558 1.204 5.816 0 2.273-.405 4.23-1.215 5.87-.809 1.634-1.988 2.891-3.537 3.772-1.548.873-3.43 1.31-5.646 1.31Zm-4.091-2.344h3.921c1.804 0 3.299-.348 4.485-1.044 1.186-.696 2.07-1.687 2.652-2.972.583-1.286.874-2.816.874-4.592 0-1.761-.288-3.277-.863-4.549-.575-1.278-1.435-2.258-2.578-2.94-1.144-.689-2.568-1.033-4.272-1.033h-4.219v17.13ZM468.66 231v-21.818h2.642v10.824h.255l9.801-10.824h3.452l-9.162 9.844L484.81 231h-3.196l-7.585-10.142-2.727 3.068V231h-2.642Z" fill="#7D88A1"/></g><g filter="url(#b)"><path d="M638 187c0-5.523 4.477-10 10-10h70v82h-69c-6.075 0-11-4.925-11-11v-61Z" fill="#92A9EF"/><path d="M663.3 224.449h29.25c2.7 0 4.8 2.25 4.8 4.8v3.3c0 2.7-2.25 4.8-4.8 4.8H663.3c-2.55.15-4.8-2.1-4.8-4.65v-3.3c0-2.7 2.25-4.95 4.8-4.95Zm0-25.949h29.25c2.7 0 4.95 2.25 4.95 4.8v3.3c0 2.7-2.25 4.8-4.8 4.8h-29.4c-2.55.15-4.8-2.1-4.8-4.8v-3.3c0-2.55 2.25-4.8 4.8-4.8Z" stroke="#fff" stroke-width="3"/><path d="M663.3 211.551h29.25c2.7 0 4.8 2.25 4.8 4.8v3.3c0 2.7-2.25 4.8-4.8 4.8H663.3c-2.7 0-4.8-2.25-4.8-4.8v-3.3c0-2.7 2.25-4.8 4.8-4.8Z" stroke="#fff" stroke-width="3"/><path d="M691.65 206.749a1.65 1.65 0 1 0 0-3.3 1.65 1.65 0 0 0 0 3.3Zm0 12.901a1.65 1.65 0 1 0 0-3.3 1.65 1.65 0 0 0 0 3.3Zm0 13.05a1.65 1.65 0 1 0 0-3.3 1.65 1.65 0 0 0 0 3.3ZM718 177h177c5.523 0 10 4.477 10 10v62c0 5.523-4.477 10-10 10H718v-82Z" fill="#fff"/><path d="M752.912 231v-21.818h7.627c1.52 0 2.774.263 3.761.788.987.519 1.722 1.218 2.205 2.099.483.873.725 1.843.725 2.908 0 .938-.167 1.712-.501 2.323a3.902 3.902 0 0 1-1.3 1.449 5.92 5.92 0 0 1-1.736.788v.213c.667.043 1.339.277 2.013.703.675.426 1.24 1.037 1.694 1.833.455.795.682 1.768.682 2.919 0 1.093-.249 2.077-.746 2.951-.497.873-1.282 1.566-2.354 2.077-1.073.511-2.468.767-4.187.767h-7.883Zm2.642-2.344h5.241c1.726 0 2.951-.334 3.676-1.001.731-.675 1.097-1.492 1.097-2.45 0-.739-.188-1.421-.565-2.046-.376-.632-.912-1.136-1.608-1.513-.696-.383-1.52-.575-2.472-.575h-5.369v7.585Zm0-9.886h4.9c.796 0 1.513-.156 2.152-.469a3.76 3.76 0 0 0 1.534-1.321c.384-.568.576-1.236.576-2.003 0-.959-.334-1.772-1.002-2.439-.667-.675-1.726-1.012-3.175-1.012h-4.985v7.244Zm21.344 12.614c-1.037 0-1.978-.196-2.823-.586a4.842 4.842 0 0 1-2.014-1.716c-.497-.752-.746-1.662-.746-2.727 0-.937.185-1.697.554-2.28a3.92 3.92 0 0 1 1.481-1.385 7.8 7.8 0 0 1 2.046-.745 24.51 24.51 0 0 1 2.269-.405c.994-.128 1.8-.224 2.418-.288.625-.071 1.08-.188 1.364-.351.291-.164.437-.448.437-.853v-.085c0-1.051-.288-1.868-.863-2.45-.569-.583-1.432-.874-2.589-.874-1.2 0-2.142.263-2.823.789-.682.525-1.162 1.086-1.439 1.683l-2.386-.852c.426-.995.994-1.769 1.705-2.323a6.383 6.383 0 0 1 2.343-1.172 9.752 9.752 0 0 1 2.515-.341c.525 0 1.129.064 1.811.192a5.808 5.808 0 0 1 1.992.756c.646.384 1.182.963 1.609 1.737.426.774.639 1.811.639 3.111V231h-2.514v-2.216h-.128c-.171.355-.455.735-.853 1.14-.397.405-.926.749-1.587 1.033-.66.284-1.467.427-2.418.427Zm.383-2.259c.995 0 1.833-.195 2.514-.586.689-.391 1.208-.895 1.556-1.513a3.854 3.854 0 0 0 .533-1.949v-2.301c-.107.127-.341.245-.704.351-.355.1-.767.188-1.235.266a57.79 57.79 0 0 1-1.353.192c-.434.05-.785.093-1.055.128a9.57 9.57 0 0 0-1.832.416c-.562.184-1.016.465-1.364.841-.341.369-.511.874-.511 1.513 0 .874.323 1.534.969 1.981.653.441 1.481.661 2.482.661Zm18.353 2.216c-1.534 0-2.855-.362-3.963-1.087-1.108-.724-1.96-1.722-2.556-2.993-.597-1.272-.895-2.724-.895-4.358 0-1.662.305-3.128.916-4.399.618-1.279 1.477-2.277 2.578-2.994 1.108-.724 2.401-1.087 3.878-1.087 1.15 0 2.187.213 3.111.639a5.972 5.972 0 0 1 2.269 1.79c.589.767.955 1.662 1.097 2.685h-2.514c-.192-.746-.618-1.406-1.279-1.982-.653-.582-1.534-.873-2.642-.873-.98 0-1.839.255-2.578.767-.731.504-1.303 1.218-1.715 2.141-.405.916-.607 1.992-.607 3.228 0 1.264.199 2.365.596 3.303.405.937.973 1.665 1.705 2.184.739.518 1.605.777 2.599.777a4.48 4.48 0 0 0 1.78-.341 3.668 3.668 0 0 0 1.353-.98c.369-.426.632-.937.788-1.534h2.514a5.824 5.824 0 0 1-1.055 2.61c-.554.767-1.289 1.378-2.205 1.833-.909.447-1.967.671-3.175.671Zm12.454-6.307-.042-3.111h.511l7.159-7.287h3.111l-7.628 7.713h-.213l-2.898 2.685ZM805.744 231v-21.818h2.515V231h-2.515Zm10.398 0-6.392-8.097 1.79-1.747 7.798 9.844h-3.196Zm12.108.341c-1.577 0-2.937-.348-4.08-1.044-1.137-.703-2.014-1.683-2.632-2.94-.611-1.265-.916-2.735-.916-4.411 0-1.676.305-3.153.916-4.432.618-1.285 1.477-2.287 2.578-3.004 1.108-.724 2.401-1.087 3.878-1.087.852 0 1.694.142 2.525.426a6.272 6.272 0 0 1 2.269 1.385c.682.632 1.225 1.471 1.63 2.515.405 1.044.607 2.329.607 3.856v1.065h-12.613v-2.173h10.057c0-.923-.185-1.747-.554-2.471a4.178 4.178 0 0 0-1.556-1.716c-.667-.419-1.456-.628-2.365-.628-1.001 0-1.868.248-2.599.746a4.905 4.905 0 0 0-1.673 1.917 5.633 5.633 0 0 0-.586 2.536v1.449c0 1.235.213 2.283.639 3.142.434.853 1.034 1.502 1.801 1.95.767.44 1.658.66 2.674.66.66 0 1.257-.092 1.79-.277a3.811 3.811 0 0 0 1.395-.852c.391-.383.693-.859.906-1.427l2.429.681a5.399 5.399 0 0 1-1.289 2.174c-.604.618-1.35 1.101-2.238 1.449-.887.34-1.885.511-2.993.511Zm13.114-10.185V231h-2.514v-16.364h2.429v2.557h.213a4.682 4.682 0 0 1 1.747-2.003c.781-.511 1.79-.767 3.026-.767 1.108 0 2.077.228 2.908.682.831.448 1.477 1.129 1.939 2.046.462.909.693 2.059.693 3.451V231h-2.515v-10.227c0-1.286-.334-2.287-1.001-3.005-.668-.724-1.584-1.086-2.749-1.086-.802 0-1.52.174-2.152.522-.625.348-1.118.856-1.481 1.523-.362.668-.543 1.478-.543 2.429Zm21.214 10.185c-1.364 0-2.568-.345-3.612-1.033-1.044-.696-1.861-1.677-2.45-2.941-.59-1.271-.884-2.773-.884-4.506 0-1.719.294-3.21.884-4.475.589-1.264 1.41-2.24 2.461-2.929 1.051-.689 2.266-1.034 3.643-1.034 1.066 0 1.907.178 2.525.533.625.348 1.101.746 1.428 1.193.334.44.593.803.777 1.087h.214v-8.054h2.514V231h-2.429v-2.514h-.299c-.184.298-.447.675-.788 1.129-.341.447-.827.849-1.459 1.204-.632.348-1.474.522-2.525.522Zm.341-2.259c1.008 0 1.86-.262 2.556-.788.697-.533 1.226-1.268 1.588-2.205.362-.945.543-2.035.543-3.271 0-1.221-.177-2.29-.532-3.206-.356-.924-.881-1.641-1.577-2.152-.696-.519-1.556-.778-2.578-.778-1.066 0-1.953.273-2.664.82-.703.54-1.232 1.275-1.587 2.205-.348.924-.522 1.961-.522 3.111 0 1.165.178 2.223.533 3.175.362.944.895 1.697 1.598 2.258.71.554 1.591.831 2.642.831Z" fill="#7D88A1"/></g><path d="M615.209 219.209a1.71 1.71 0 0 0 0-2.418l-10.883-10.884a1.712 1.712 0 0 0-2.419 0 1.712 1.712 0 0 0 0 2.419l9.674 9.674-9.674 9.674a1.712 1.712 0 0 0 0 2.419 1.712 1.712 0 0 0 2.419 0l10.883-10.884ZM518 219.71h96v-3.42h-96v3.42Z" fill="#7D88A1"/><defs><filter id="a" x="104" y="169" width="430" height="114" filterUnits="userSpaceOnUse" color-interpolation-filters="sRGB"><feFlood flood-opacity="0" result="BackgroundImageFix"/><feColorMatrix in="SourceAlpha" values="0 0 0 0 0 0 0 0 0 0 0 0 0 0 0 0 0 0 127 0" result="hardAlpha"/><feOffset dy="8"/><feGaussianBlur stdDeviation="8"/><feColorMatrix values="0 0 0 0 0.337255 0 0 0 0 0.388235 0 0 0 0 0.505882 0 0 0 0.24 0"/><feBlend in2="BackgroundImageFix" result="effect1_dropShadow_394_2534"/><feBlend in="SourceGraphic" in2="effect1_dropShadow_394_2534" result="shape"/></filter><filter id="b" x="622" y="169" width="299" height="114" filterUnits="userSpaceOnUse" color-interpolation-filters="sRGB"><feFlood flood-opacity="0" result="BackgroundImageFix"/><feColorMatrix in="SourceAlpha" values="0 0 0 0 0 0 0 0 0 0 0 0 0 0 0 0 0 0 127 0" result="hardAlpha"/><feOffset dy="8"/><feGaussianBlur stdDeviation="8"/><feColorMatrix values="0 0 0 0 0.337255 0 0 0 0 0.388235 0 0 0 0 0.505882 0 0 0 0.24 0"/><feBlend in2="BackgroundImageFix" result="effect1_dropShadow_394_2534"/><feBlend in="SourceGraphic" in2="effect1_dropShadow_394_2534" result="shape"/></filter></defs></svg>