<svg width="984" height="698" fill="none" xmlns="http://www.w3.org/2000/svg"><path fill="#fff" d="M0 0h984v698H0z"/><path d="M79.048 634.832c-3.917 0-7.436-.815-10.556-2.444-3.12-1.629-5.564-3.883-7.332-6.76-1.768-2.912-2.652-6.188-2.652-9.828 0-3.64.884-6.899 2.652-9.776 1.768-2.912 4.212-5.183 7.332-6.812 3.12-1.629 6.639-2.444 10.556-2.444 3.917 0 7.436.815 10.556 2.444 3.12 1.629 5.564 3.9 7.332 6.812 1.768 2.877 2.652 6.136 2.652 9.776 0 3.64-.884 6.916-2.652 9.828-1.768 2.877-4.212 5.131-7.332 6.76-3.12 1.629-6.639 2.444-10.556 2.444Zm0-9.932c1.525 0 2.895-.364 4.108-1.092 1.248-.763 2.236-1.82 2.964-3.172.728-1.387 1.092-2.999 1.092-4.836 0-1.837-.364-3.432-1.092-4.784-.728-1.387-1.716-2.444-2.964-3.172-1.213-.763-2.583-1.144-4.108-1.144-1.525 0-2.912.381-4.16 1.144-1.213.728-2.184 1.785-2.912 3.172-.728 1.352-1.092 2.947-1.092 4.784 0 1.837.364 3.449 1.092 4.836.728 1.352 1.699 2.409 2.912 3.172 1.248.728 2.635 1.092 4.16 1.092Zm33.43-17.784h-10.66V597.6h33.592v9.516h-10.66V634h-12.272v-26.884Zm57.424 17.628V634h-30.264v-36.4h29.588v9.256h-17.524v4.264h15.392v8.84h-15.392v4.784h18.2Zm5.764-27.144h12.272v26.884h16.432V634h-28.704v-36.4Zm68.588 37.232c-3.848 0-7.315-.797-10.4-2.392-3.086-1.629-5.512-3.883-7.28-6.76-1.734-2.912-2.6-6.205-2.6-9.88 0-3.675.866-6.951 2.6-9.828 1.768-2.912 4.194-5.165 7.28-6.76 3.085-1.629 6.552-2.444 10.4-2.444 3.536 0 6.69.624 9.464 1.872 2.773 1.248 5.061 3.051 6.864 5.408l-7.748 6.916c-2.254-2.843-4.906-4.264-7.956-4.264-2.566 0-4.628.832-6.188 2.496-1.56 1.629-2.34 3.831-2.34 6.604s.78 4.992 2.34 6.656c1.56 1.629 3.622 2.444 6.188 2.444 3.05 0 5.702-1.421 7.956-4.264l7.748 6.916c-1.803 2.357-4.091 4.16-6.864 5.408-2.774 1.248-5.928 1.872-9.464 1.872Zm39.233 0c-3.917 0-7.436-.815-10.556-2.444-3.12-1.629-5.564-3.883-7.332-6.76-1.768-2.912-2.652-6.188-2.652-9.828 0-3.64.884-6.899 2.652-9.776 1.768-2.912 4.212-5.183 7.332-6.812 3.12-1.629 6.639-2.444 10.556-2.444 3.918 0 7.436.815 10.556 2.444 3.12 1.629 5.564 3.9 7.332 6.812 1.768 2.877 2.652 6.136 2.652 9.776 0 3.64-.884 6.916-2.652 9.828-1.768 2.877-4.212 5.131-7.332 6.76-3.12 1.629-6.638 2.444-10.556 2.444Zm0-9.932c1.526 0 2.895-.364 4.108-1.092 1.248-.763 2.236-1.82 2.964-3.172.728-1.387 1.092-2.999 1.092-4.836 0-1.837-.364-3.432-1.092-4.784-.728-1.387-1.716-2.444-2.964-3.172-1.213-.763-2.582-1.144-4.108-1.144-1.525 0-2.912.381-4.16 1.144-1.213.728-2.184 1.785-2.912 3.172-.728 1.352-1.092 2.947-1.092 4.784 0 1.837.364 3.449 1.092 4.836.728 1.352 1.699 2.409 2.912 3.172 1.248.728 2.635 1.092 4.16 1.092Zm26.034-27.3h12.272v26.884h16.432V634h-28.704v-36.4Zm33.134 0h12.272v26.884h16.432V634h-28.704v-36.4Zm63.398 27.144V634h-30.264v-36.4h29.588v9.256h-17.524v4.264h15.392v8.84h-15.392v4.784h18.2Zm24.588 10.088c-3.848 0-7.315-.797-10.4-2.392-3.085-1.629-5.512-3.883-7.28-6.76-1.733-2.912-2.6-6.205-2.6-9.88 0-3.675.867-6.951 2.6-9.828 1.768-2.912 4.195-5.165 7.28-6.76 3.085-1.629 6.552-2.444 10.4-2.444 3.536 0 6.691.624 9.464 1.872 2.773 1.248 5.061 3.051 6.864 5.408l-7.748 6.916c-2.253-2.843-4.905-4.264-7.956-4.264-2.565 0-4.628.832-6.188 2.496-1.56 1.629-2.34 3.831-2.34 6.604s.78 4.992 2.34 6.656c1.56 1.629 3.623 2.444 6.188 2.444 3.051 0 5.703-1.421 7.956-4.264l7.748 6.916c-1.803 2.357-4.091 4.16-6.864 5.408-2.773 1.248-5.928 1.872-9.464 1.872Zm28.562-27.716h-10.66V597.6h33.592v9.516h-10.66V634h-12.272v-26.884Zm45.735 27.716c-3.917 0-7.436-.815-10.556-2.444-3.12-1.629-5.564-3.883-7.332-6.76-1.768-2.912-2.652-6.188-2.652-9.828 0-3.64.884-6.899 2.652-9.776 1.768-2.912 4.212-5.183 7.332-6.812 3.12-1.629 6.639-2.444 10.556-2.444 3.918 0 7.436.815 10.556 2.444 3.12 1.629 5.564 3.9 7.332 6.812 1.768 2.877 2.652 6.136 2.652 9.776 0 3.64-.884 6.916-2.652 9.828-1.768 2.877-4.212 5.131-7.332 6.76-3.12 1.629-6.638 2.444-10.556 2.444Zm0-9.932c1.526 0 2.895-.364 4.108-1.092 1.248-.763 2.236-1.82 2.964-3.172.728-1.387 1.092-2.999 1.092-4.836 0-1.837-.364-3.432-1.092-4.784-.728-1.387-1.716-2.444-2.964-3.172-1.213-.763-2.582-1.144-4.108-1.144-1.525 0-2.912.381-4.16 1.144-1.213.728-2.184 1.785-2.912 3.172-.728 1.352-1.092 2.947-1.092 4.784 0 1.837.364 3.449 1.092 4.836.728 1.352 1.699 2.409 2.912 3.172 1.248.728 2.635 1.092 4.16 1.092Zm41.634-.052h-3.328V634h-12.272v-36.4h17.524c3.363 0 6.292.555 8.788 1.664 2.496 1.109 4.42 2.704 5.772 4.784 1.352 2.08 2.028 4.507 2.028 7.28 0 2.6-.589 4.871-1.768 6.812-1.178 1.941-2.877 3.484-5.096 4.628L565.864 634H552.76l-6.188-9.152Zm6.136-13.52c0-1.352-.416-2.392-1.248-3.12-.832-.763-2.08-1.144-3.744-1.144h-4.472v8.528h4.472c1.664 0 2.912-.364 3.744-1.092.832-.763 1.248-1.82 1.248-3.172Z" fill="#000"/><path d="M60 72c0-5.523 4.477-10 10-10h844c5.523 0 10 4.477 10 10v447c0 5.523-4.477 10-10 10H70c-5.523 0-10-4.477-10-10V72Z" fill="#F0F4FD"/><g opacity=".2" filter="url(#a)"><path d="M726 400.5h2c13.255 0 24-10.745 24-24V224c0-13.255 10.745-24 24-24h23.5" stroke="#ADC568" stroke-width="4" stroke-linecap="round"/></g><path d="M692.5 392.5H721c13.255 0 24-10.745 24-24V217c0-13.255 10.745-24 24-24h30.5" stroke="#ADC568" stroke-width="4" stroke-linecap="round"/><g opacity=".2" filter="url(#b)"><path d="M208 217h2c22.091 0 40 17.909 40 40v104c0 22.091 17.909 40 40 40h429.5c10.217 0 18.5 8.283 18.5 18.5v0c0 10.217 8.283 18.5 18.5 18.5H798" stroke="#ADC568" stroke-width="4" stroke-linecap="round"/></g><path d="M217 209h2c22.091 0 40 17.909 40 40v104c0 22.091 17.909 40 40 40h428.5c10.217 0 18.5 8.283 18.5 18.5v0c0 10.217 8.283 18.5 18.5 18.5H798" stroke="#ADC568" stroke-width="4" stroke-linecap="round"/><g opacity=".2" filter="url(#c)"><path d="M217 198h12c14.359 0 26 11.641 26 26v0c0 14.359 11.641 26 26 26h421.5c20.158 0 36.5 16.342 36.5 36.5v0c0 20.158 16.342 36.5 36.5 36.5H798" stroke="#FFC46C" stroke-width="4" stroke-linecap="round"/></g><path d="M217 191h19c14.359 0 26 11.641 26 26v0c0 14.359 11.641 26 26 26h421.5c20.158 0 36.5 16.342 36.5 36.5v0c0 20.158 16.342 36.5 36.5 36.5H798" stroke="#FFC46C" stroke-width="4" stroke-linecap="round"/><g filter="url(#d)"><rect x="308" y="139" width="384" height="50" rx="10" fill="#fff"/></g><g filter="url(#e)"><rect x="110" y="139" width="106" height="110" rx="10" fill="#fff"/></g><g filter="url(#f)"><rect x="799" y="139" width="106" height="110" rx="10" fill="#fff"/></g><g filter="url(#g)"><rect x="308" y="286" width="384" height="50" rx="10" fill="#fff"/></g><g filter="url(#h)"><rect x="110" y="257" width="106" height="110" rx="10" fill="#fff"/></g><g filter="url(#i)"><rect x="799" y="257" width="106" height="110" rx="10" fill="#fff"/></g><g filter="url(#j)"><rect x="110" y="375" width="106" height="110" rx="10" fill="#fff"/></g><g filter="url(#k)"><rect x="799" y="375" width="106" height="110" rx="10" fill="#fff"/></g><g filter="url(#l)"><rect x="308" y="220" width="112" height="50" rx="10" fill="#fff"/></g><g filter="url(#m)"><rect x="308" y="368" width="112" height="50" rx="10" fill="#fff"/></g><g filter="url(#n)"><rect x="580" y="220" width="112" height="50" rx="10" fill="#fff"/></g><g filter="url(#o)"><rect x="580" y="368" width="112" height="50" rx="10" fill="#fff"/></g><g filter="url(#p)"><rect x="444" y="220" width="112" height="50" rx="10" fill="#fff"/></g><g filter="url(#q)"><rect x="444" y="368" width="112" height="50" rx="10" fill="#fff"/></g><path d="M391.948 159.9v9.1h7.072v-1.703h-5.018v-2.015h4.381v-1.703h-4.381v-1.976h4.875V159.9h-6.929Zm7.943 2.106 2.249 3.419-2.418 3.575h2.21l1.534-2.288L404.87 169h2.301l-2.379-3.588 2.223-3.406h-2.184l-1.365 2.119-1.287-2.119h-2.288Zm12.27 5.135c-.364.169-.676.26-.936.26-.429.013-.676-.221-.676-.806v-2.886h1.898v-1.391h-1.898v-1.924h-1.989v1.924h-.975v1.378h.975v3.237c0 1.443.949 2.158 2.197 2.158.65 0 1.3-.182 1.82-.481l-.416-1.469Zm4.575-5.2c-2.132 0-3.601 1.43-3.601 3.588 0 2.119 1.417 3.549 3.653 3.549 1.261 0 2.288-.455 2.99-1.235l-1.053-1.066a2.48 2.48 0 0 1-1.768.741c-.897 0-1.573-.52-1.807-1.404h5.018c.169-2.548-.975-4.173-3.432-4.173Zm-1.625 2.99c.156-.923.754-1.521 1.638-1.521.923 0 1.521.598 1.547 1.521h-3.185Zm10.798-3.003c-1.092.013-1.924.429-2.418 1.3v-1.222h-2.002V169h2.002v-3.445c0-1.027.598-1.781 1.599-1.794.858 0 1.378.546 1.378 1.43V169h2.002v-4.394c0-1.638-1.001-2.678-2.561-2.678Zm8.696 2.132.689-1.365a5.216 5.216 0 0 0-2.73-.78c-1.521 0-2.756.741-2.756 2.184 0 2.457 3.627 1.859 3.627 2.977 0 .377-.377.546-.884.546-.767 0-1.703-.312-2.431-.871l-.65 1.352c.793.637 1.898.975 3.029.975 1.586 0 2.847-.754 2.847-2.184.013-2.47-3.679-1.937-3.679-2.99 0-.364.338-.52.806-.52.585 0 1.365.247 2.132.676Zm3.082-5.044c-.572 0-.975.416-.975 1.001 0 .572.403 1.001.975 1.001s.975-.429.975-1.001c0-.585-.403-1.001-.975-1.001Zm-1.001 2.99V169h2.002v-6.994h-2.002Zm7.081-.065c-2.249 0-3.757 1.417-3.757 3.562 0 2.132 1.508 3.575 3.757 3.575 2.236 0 3.744-1.443 3.744-3.575 0-2.145-1.508-3.562-3.744-3.562Zm0 1.664c1.027 0 1.742.78 1.742 1.924s-.715 1.924-1.742 1.924c-1.04 0-1.755-.78-1.755-1.924s.715-1.924 1.755-1.924Zm9.488-1.677c-1.092.013-1.924.429-2.418 1.3v-1.222h-2.002V169h2.002v-3.445c0-1.027.598-1.781 1.599-1.794.858 0 1.378.546 1.378 1.43V169h2.002v-4.394c0-1.638-1.001-2.678-2.561-2.678Zm8.696 2.132.689-1.365a5.216 5.216 0 0 0-2.73-.78c-1.521 0-2.756.741-2.756 2.184 0 2.457 3.627 1.859 3.627 2.977 0 .377-.377.546-.884.546-.767 0-1.703-.312-2.431-.871l-.65 1.352c.793.637 1.898.975 3.029.975 1.586 0 2.847-.754 2.847-2.184.013-2.47-3.679-1.937-3.679-2.99 0-.364.338-.52.806-.52.585 0 1.365.247 2.132.676Zm2.639-.871c-.572 0-1.001.416-1.001 1.027 0 .598.429 1.04 1.001 1.04.585 0 1.001-.442 1.001-1.04 0-.611-.416-1.027-1.001-1.027Zm0 3.861c-.572 0-1.001.416-1.001 1.027 0 .598.429 1.04 1.001 1.04.585 0 1.001-.442 1.001-1.04 0-.611-.416-1.027-1.001-1.027Zm10.883-5.122c-1.092.013-1.924.442-2.418 1.313v-3.887h-2.002V169h2.002v-3.445c0-1.027.611-1.781 1.612-1.794.858 0 1.378.546 1.378 1.43V169h2.002v-4.394c0-1.638-1.001-2.678-2.574-2.678Zm7.291.013c-2.132 0-3.601 1.43-3.601 3.588 0 2.119 1.417 3.549 3.653 3.549 1.261 0 2.288-.455 2.99-1.235l-1.053-1.066a2.48 2.48 0 0 1-1.768.741c-.897 0-1.573-.52-1.807-1.404h5.018c.169-2.548-.975-4.173-3.432-4.173Zm-1.625 2.99c.156-.923.754-1.521 1.638-1.521.923 0 1.521.598 1.547 1.521h-3.185ZM493.537 169l-.013-4.563c-.013-1.573-1.092-2.509-2.964-2.509-1.222 0-2.119.286-3.159.806l.624 1.378c.728-.403 1.456-.611 2.08-.611.962 0 1.456.429 1.456 1.17v.13h-1.924c-1.716.013-2.665.793-2.665 2.106 0 1.274.91 2.184 2.405 2.184.975 0 1.729-.325 2.197-.91V169h1.963Zm-3.601-1.339c-.676 0-1.092-.351-1.092-.884 0-.559.377-.793 1.144-.793h1.573v.624c-.117.598-.78 1.053-1.625 1.053Zm5.391-8.307V169h2.002v-9.646h-2.002Zm7.923 7.787c-.364.169-.676.26-.936.26-.429.013-.676-.221-.676-.806v-2.886h1.898v-1.391h-1.898v-1.924h-1.989v1.924h-.975v1.378h.975v3.237c0 1.443.949 2.158 2.197 2.158.65 0 1.3-.182 1.82-.481l-.416-1.469Zm6.107-5.213c-1.092.013-1.924.442-2.418 1.313v-3.887h-2.002V169h2.002v-3.445c0-1.027.611-1.781 1.612-1.794.858 0 1.378.546 1.378 1.43V169h2.002v-4.394c0-1.638-1.001-2.678-2.574-2.678Zm4.86 5.135c-.572 0-1.001.416-1.001 1.014 0 .325.13.611.403.806l-.546 1.313h.975l.871-1.313c.169-.234.273-.494.273-.806 0-.65-.455-1.014-.975-1.014Zm10.624-5.122c-.949 0-1.716.39-2.21 1.092v-1.027h-2.002v9.516h2.002v-3.536c.507.702 1.274 1.092 2.249 1.092 1.963 0 3.25-1.417 3.25-3.536 0-2.158-1.326-3.601-3.289-3.601Zm-.468 5.473c-1.027 0-1.742-.78-1.742-1.937 0-1.131.715-1.924 1.742-1.924 1.027 0 1.729.806 1.729 1.924 0 1.144-.702 1.937-1.729 1.937Zm9.354-5.473c-.949 0-1.716.39-2.21 1.092v-1.027h-2.002v9.516h2.002v-3.536c.507.702 1.274 1.092 2.249 1.092 1.963 0 3.25-1.417 3.25-3.536 0-2.158-1.326-3.601-3.289-3.601Zm-.468 5.473c-1.027 0-1.742-.78-1.742-1.937 0-1.131.715-1.924 1.742-1.924 1.027 0 1.729.806 1.729 1.924 0 1.144-.702 1.937-1.729 1.937Zm7.08-4.147v-1.261h-2.002V169h2.002v-3.367c0-1.183.884-1.95 2.314-1.82v-1.885c-1.04.013-1.833.481-2.314 1.339Zm6.565-1.326c-2.249 0-3.757 1.417-3.757 3.562 0 2.132 1.508 3.575 3.757 3.575 2.236 0 3.744-1.443 3.744-3.575 0-2.145-1.508-3.562-3.744-3.562Zm0 1.664c1.027 0 1.742.78 1.742 1.924s-.715 1.924-1.742 1.924c-1.04 0-1.755-.78-1.755-1.924s.715-1.924 1.755-1.924Zm8.177-2.691a1.5 1.5 0 0 1 .871.299l.715-1.456c-.494-.325-1.183-.494-1.833-.494-1.404 0-2.574.832-2.574 2.392v.663h-.936v1.391h.936V169h1.989v-5.291h1.651v-1.391h-1.651v-.585c0-.559.364-.819.832-.819Zm2.211 6.149c-.572 0-1.001.416-1.001 1.014 0 .325.13.611.403.806l-.546 1.313h.975l.871-1.313c.169-.234.273-.494.273-.806 0-.65-.455-1.014-.975-1.014Zm6.009-5.044v1.56l3.471.013-3.601 4.147V169l6.214.013v-1.586h-3.718l3.601-4.147v-1.261h-5.967Zm11.737-.078c-.949 0-1.716.39-2.21 1.092v-1.027h-2.002v9.516h2.002v-3.536c.507.702 1.274 1.092 2.249 1.092 1.963 0 3.25-1.417 3.25-3.536 0-2.158-1.326-3.601-3.289-3.601Zm-.468 5.473c-1.027 0-1.742-.78-1.742-1.937 0-1.131.715-1.924 1.742-1.924 1.027 0 1.729.806 1.729 1.924 0 1.144-.702 1.937-1.729 1.937ZM585.667 169l-.013-4.563c-.013-1.573-1.092-2.509-2.964-2.509-1.222 0-2.119.286-3.159.806l.624 1.378c.728-.403 1.456-.611 2.08-.611.962 0 1.456.429 1.456 1.17v.13h-1.924c-1.716.013-2.665.793-2.665 2.106 0 1.274.91 2.184 2.405 2.184.975 0 1.729-.325 2.197-.91V169h1.963Zm-3.601-1.339c-.676 0-1.092-.351-1.092-.884 0-.559.377-.793 1.144-.793h1.573v.624c-.117.598-.78 1.053-1.625 1.053Zm9.889-5.655v.949c-.481-.65-1.209-1.027-2.158-1.014-1.781 0-3.003 1.339-3.003 3.315 0 2.028 1.248 3.38 3.055 3.38.923 0 1.638-.364 2.106-1.014v.793c0 .949-.728 1.56-1.872 1.56a3.698 3.698 0 0 1-2.171-.702l-.741 1.404a5.437 5.437 0 0 0 3.042.923c2.236 0 3.731-1.261 3.731-3.25v-6.344h-1.989Zm-1.638 5.109c-.988 0-1.638-.741-1.651-1.807.013-1.066.676-1.82 1.651-1.82s1.638.741 1.638 1.82c0 1.066-.663 1.807-1.638 1.807Zm8.457-5.174c-2.132 0-3.601 1.43-3.601 3.588 0 2.119 1.417 3.549 3.653 3.549 1.261 0 2.288-.455 2.99-1.235l-1.053-1.066a2.48 2.48 0 0 1-1.768.741c-.897 0-1.573-.52-1.807-1.404h5.018c.169-2.548-.975-4.173-3.432-4.173Zm-1.625 2.99c.156-.923.754-1.521 1.638-1.521.923 0 1.521.598 1.547 1.521h-3.185Zm10.785-.871.689-1.365a5.216 5.216 0 0 0-2.73-.78c-1.521 0-2.756.741-2.756 2.184 0 2.457 3.627 1.859 3.627 2.977 0 .377-.377.546-.884.546-.767 0-1.703-.312-2.431-.871l-.65 1.352c.793.637 1.898.975 3.029.975 1.586 0 2.847-.754 2.847-2.184.013-2.47-3.679-1.937-3.679-2.99 0-.364.338-.52.806-.52.585 0 1.365.247 2.132.676ZM142.902 337.13a3.842 3.842 0 0 1-1.612-.338 3.209 3.209 0 0 1-1.196-.975l.962-1.157c.502.693 1.105 1.04 1.807 1.04.944 0 1.417-.559 1.417-1.677v-4.706h-3.237V327.9h4.927v6.032c0 1.066-.26 1.868-.78 2.405-.52.529-1.283.793-2.288.793Zm7.934-7.15c1.023 0 1.803.247 2.34.741.546.485.819 1.222.819 2.21V337h-1.534v-.845a1.927 1.927 0 0 1-.858.702c-.364.156-.806.234-1.326.234s-.975-.087-1.365-.26a2.223 2.223 0 0 1-.91-.741 1.94 1.94 0 0 1-.312-1.079c0-.624.23-1.122.689-1.495.468-.381 1.2-.572 2.197-.572h1.794v-.104c0-.485-.147-.858-.442-1.118-.286-.26-.715-.39-1.287-.39-.39 0-.776.061-1.157.182a2.82 2.82 0 0 0-.949.507l-.637-1.183c.364-.277.802-.49 1.313-.637a5.853 5.853 0 0 1 1.625-.221Zm-.221 5.928c.407 0 .767-.091 1.079-.273.321-.191.546-.459.676-.806v-.806h-1.677c-.936 0-1.404.308-1.404.923 0 .295.117.529.351.702.234.173.559.26.975.26Zm12.055-2.34c0 .113-.009.273-.026.481h-5.447c.095.511.342.919.741 1.222.407.295.91.442 1.508.442.763 0 1.391-.251 1.885-.754l.871 1.001a2.932 2.932 0 0 1-1.183.845 4.304 4.304 0 0 1-1.612.286c-.763 0-1.434-.152-2.015-.455a3.335 3.335 0 0 1-1.352-1.261c-.312-.546-.468-1.161-.468-1.846 0-.676.152-1.283.455-1.82a3.304 3.304 0 0 1 1.287-1.274c.546-.303 1.161-.455 1.846-.455.676 0 1.278.152 1.807.455.537.295.953.715 1.248 1.261.303.537.455 1.161.455 1.872Zm-3.51-2.288c-.52 0-.962.156-1.326.468-.355.303-.572.711-.65 1.222h3.939c-.069-.503-.282-.91-.637-1.222-.355-.312-.797-.468-1.326-.468Zm11.961-1.222v5.889c0 2.444-1.248 3.666-3.744 3.666a6.8 6.8 0 0 1-1.898-.26c-.598-.165-1.092-.407-1.482-.728l.728-1.222a3.4 3.4 0 0 0 1.144.598c.468.156.94.234 1.417.234.763 0 1.322-.173 1.677-.52.355-.347.533-.875.533-1.586v-.364a2.67 2.67 0 0 1-1.014.689 3.573 3.573 0 0 1-1.313.234 3.855 3.855 0 0 1-1.794-.416 3.28 3.28 0 0 1-1.261-1.196c-.303-.511-.455-1.096-.455-1.755 0-.659.152-1.239.455-1.742a3.183 3.183 0 0 1 1.261-1.183 3.855 3.855 0 0 1 1.794-.416c.503 0 .958.082 1.365.247.416.165.763.416 1.04.754v-.923h1.547Zm-3.705 5.252c.615 0 1.118-.182 1.508-.546.399-.373.598-.854.598-1.443 0-.581-.199-1.053-.598-1.417-.39-.364-.893-.546-1.508-.546-.624 0-1.135.182-1.534.546-.39.364-.585.836-.585 1.417 0 .589.195 1.07.585 1.443.399.364.91.546 1.534.546Zm12.367-1.742c0 .113-.008.273-.026.481h-5.447c.096.511.343.919.741 1.222.408.295.91.442 1.508.442.763 0 1.391-.251 1.885-.754l.871 1.001a2.932 2.932 0 0 1-1.183.845c-.476.191-1.014.286-1.612.286-.762 0-1.434-.152-2.015-.455a3.34 3.34 0 0 1-1.352-1.261c-.312-.546-.468-1.161-.468-1.846 0-.676.152-1.283.455-1.82a3.304 3.304 0 0 1 1.287-1.274c.546-.303 1.162-.455 1.846-.455.676 0 1.279.152 1.807.455.538.295.954.715 1.248 1.261.304.537.455 1.161.455 1.872Zm-3.51-2.288c-.52 0-.962.156-1.326.468-.355.303-.572.711-.65 1.222h3.939c-.069-.503-.281-.91-.637-1.222-.355-.312-.797-.468-1.326-.468Zm6.618-.208c.468-.728 1.292-1.092 2.47-1.092v1.547a2.054 2.054 0 0 0-.377-.039c-.632 0-1.126.186-1.482.559-.355.364-.533.893-.533 1.586V337h-1.625v-6.942h1.547v1.014Zm649.011 6.058a3.842 3.842 0 0 1-1.612-.338 3.209 3.209 0 0 1-1.196-.975l.962-1.157c.502.693 1.105 1.04 1.807 1.04.944 0 1.417-.559 1.417-1.677v-4.706h-3.237V327.9h4.927v6.032c0 1.066-.26 1.868-.78 2.405-.52.529-1.283.793-2.288.793Zm7.934-7.15c1.023 0 1.803.247 2.34.741.546.485.819 1.222.819 2.21V337h-1.534v-.845a1.927 1.927 0 0 1-.858.702c-.364.156-.806.234-1.326.234s-.975-.087-1.365-.26a2.223 2.223 0 0 1-.91-.741 1.94 1.94 0 0 1-.312-1.079c0-.624.23-1.122.689-1.495.468-.381 1.2-.572 2.197-.572h1.794v-.104c0-.485-.147-.858-.442-1.118-.286-.26-.715-.39-1.287-.39-.39 0-.776.061-1.157.182a2.82 2.82 0 0 0-.949.507l-.637-1.183c.364-.277.802-.49 1.313-.637a5.853 5.853 0 0 1 1.625-.221Zm-.221 5.928c.407 0 .767-.091 1.079-.273.321-.191.546-.459.676-.806v-.806h-1.677c-.936 0-1.404.308-1.404.923 0 .295.117.529.351.702.234.173.559.26.975.26Zm12.055-2.34c0 .113-.009.273-.026.481h-5.447c.095.511.342.919.741 1.222.407.295.91.442 1.508.442.763 0 1.391-.251 1.885-.754l.871 1.001a2.932 2.932 0 0 1-1.183.845 4.304 4.304 0 0 1-1.612.286c-.763 0-1.434-.152-2.015-.455a3.335 3.335 0 0 1-1.352-1.261c-.312-.546-.468-1.161-.468-1.846 0-.676.152-1.283.455-1.82a3.304 3.304 0 0 1 1.287-1.274c.546-.303 1.161-.455 1.846-.455.676 0 1.278.152 1.807.455.537.295.953.715 1.248 1.261.303.537.455 1.161.455 1.872Zm-3.51-2.288c-.52 0-.962.156-1.326.468-.355.303-.572.711-.65 1.222h3.939c-.069-.503-.282-.91-.637-1.222-.355-.312-.797-.468-1.326-.468Zm11.961-1.222v5.889c0 2.444-1.248 3.666-3.744 3.666a6.8 6.8 0 0 1-1.898-.26c-.598-.165-1.092-.407-1.482-.728l.728-1.222a3.4 3.4 0 0 0 1.144.598c.468.156.94.234 1.417.234.763 0 1.322-.173 1.677-.52.355-.347.533-.875.533-1.586v-.364a2.67 2.67 0 0 1-1.014.689 3.573 3.573 0 0 1-1.313.234 3.855 3.855 0 0 1-1.794-.416 3.28 3.28 0 0 1-1.261-1.196c-.303-.511-.455-1.096-.455-1.755 0-.659.152-1.239.455-1.742a3.183 3.183 0 0 1 1.261-1.183 3.855 3.855 0 0 1 1.794-.416c.503 0 .958.082 1.365.247.416.165.763.416 1.04.754v-.923h1.547Zm-3.705 5.252c.615 0 1.118-.182 1.508-.546.399-.373.598-.854.598-1.443 0-.581-.199-1.053-.598-1.417-.39-.364-.893-.546-1.508-.546-.624 0-1.135.182-1.534.546-.39.364-.585.836-.585 1.417 0 .589.195 1.07.585 1.443.399.364.91.546 1.534.546Zm12.367-1.742c0 .113-.008.273-.026.481h-5.447c.096.511.343.919.741 1.222.408.295.91.442 1.508.442.763 0 1.391-.251 1.885-.754l.871 1.001a2.932 2.932 0 0 1-1.183.845c-.476.191-1.014.286-1.612.286-.762 0-1.434-.152-2.015-.455a3.34 3.34 0 0 1-1.352-1.261c-.312-.546-.468-1.161-.468-1.846 0-.676.152-1.283.455-1.82a3.304 3.304 0 0 1 1.287-1.274c.546-.303 1.162-.455 1.846-.455.676 0 1.279.152 1.807.455.538.295.954.715 1.248 1.261.304.537.455 1.161.455 1.872Zm-3.51-2.288c-.52 0-.962.156-1.326.468-.355.303-.572.711-.65 1.222h3.939c-.069-.503-.281-.91-.637-1.222-.355-.312-.797-.468-1.326-.468Zm6.618-.208c.468-.728 1.292-1.092 2.47-1.092v1.547a2.054 2.054 0 0 0-.377-.039c-.632 0-1.126.186-1.482.559-.355.364-.533.893-.533 1.586V337h-1.625v-6.942h1.547v1.014ZM127.94 442.9h-3.861v9.1h2.054v-2.6h1.807c2.314 0 3.64-1.222 3.64-3.341 0-2.015-1.326-3.159-3.64-3.159Zm-.104 4.784h-1.703v-3.081h1.703c1.144 0 1.794.507 1.794 1.521 0 1.04-.65 1.56-1.794 1.56Zm7.017-1.417v-1.261h-2.002V452h2.002v-3.367c0-1.183.884-1.95 2.314-1.82v-1.885c-1.04.013-1.833.481-2.314 1.339Zm6.565-1.326c-2.249 0-3.757 1.417-3.757 3.562 0 2.132 1.508 3.575 3.757 3.575 2.236 0 3.744-1.443 3.744-3.575 0-2.145-1.508-3.562-3.744-3.562Zm0 1.664c1.027 0 1.742.78 1.742 1.924s-.715 1.924-1.742 1.924c-1.04 0-1.755-.78-1.755-1.924s.715-1.924 1.755-1.924Zm14.323-1.677c-1.183.013-2.067.533-2.522 1.612-.338-1.014-1.183-1.612-2.366-1.612-1.053.013-1.872.429-2.366 1.287v-1.209h-2.002V452h2.002v-3.458c0-1.014.585-1.768 1.56-1.781.819 0 1.339.533 1.339 1.43V452h1.989v-3.458c0-1.014.585-1.768 1.547-1.781.832 0 1.352.533 1.352 1.43V452h1.989v-4.394c0-1.638-.975-2.678-2.522-2.678Zm7.255.013c-2.132 0-3.601 1.43-3.601 3.588 0 2.119 1.417 3.549 3.653 3.549 1.261 0 2.288-.455 2.99-1.235l-1.053-1.066a2.48 2.48 0 0 1-1.768.741c-.897 0-1.573-.52-1.807-1.404h5.018c.169-2.548-.975-4.173-3.432-4.173Zm-1.625 2.99c.156-.923.754-1.521 1.638-1.521.923 0 1.521.598 1.547 1.521h-3.185Zm10.292 2.21c-.364.169-.676.26-.936.26-.429.013-.676-.221-.676-.806v-2.886h1.898v-1.391h-1.898v-1.924h-1.989v1.924h-.975v1.378h.975v3.237c0 1.443.949 2.158 2.197 2.158.65 0 1.3-.182 1.82-.481l-.416-1.469Zm6.107-5.213c-1.092.013-1.924.442-2.418 1.313v-3.887h-2.002V452h2.002v-3.445c0-1.027.611-1.781 1.612-1.794.858 0 1.378.546 1.378 1.43V452h2.002v-4.394c0-1.638-1.001-2.678-2.574-2.678Zm7.291.013c-2.132 0-3.601 1.43-3.601 3.588 0 2.119 1.417 3.549 3.653 3.549 1.261 0 2.288-.455 2.99-1.235l-1.053-1.066a2.48 2.48 0 0 1-1.768.741c-.897 0-1.573-.52-1.807-1.404h5.018c.169-2.548-.975-4.173-3.432-4.173Zm-1.625 2.99c.156-.923.754-1.521 1.638-1.521.923 0 1.521.598 1.547 1.521h-3.185Zm11.033-2.925v3.458c0 1.014-.585 1.768-1.547 1.781-.806 0-1.313-.533-1.313-1.417v-3.822h-2.002v4.394c0 1.651.975 2.678 2.522 2.678 1.053 0 1.859-.429 2.34-1.313V452h1.989v-6.994h-1.989Zm8.335 2.054.689-1.365a5.216 5.216 0 0 0-2.73-.78c-1.521 0-2.756.741-2.756 2.184 0 2.457 3.627 1.859 3.627 2.977 0 .377-.377.546-.884.546-.767 0-1.703-.312-2.431-.871l-.65 1.352c.793.637 1.898.975 3.029.975 1.586 0 2.847-.754 2.847-2.184.013-2.47-3.679-1.937-3.679-2.99 0-.364.338-.52.806-.52.585 0 1.365.247 2.132.676Zm614.136-4.16h-3.861v9.1h2.054v-2.6h1.807c2.314 0 3.64-1.222 3.64-3.341 0-2.015-1.326-3.159-3.64-3.159Zm-.104 4.784h-1.703v-3.081h1.703c1.144 0 1.794.507 1.794 1.521 0 1.04-.65 1.56-1.794 1.56Zm7.017-1.417v-1.261h-2.002V452h2.002v-3.367c0-1.183.884-1.95 2.314-1.82v-1.885c-1.04.013-1.833.481-2.314 1.339Zm6.565-1.326c-2.249 0-3.757 1.417-3.757 3.562 0 2.132 1.508 3.575 3.757 3.575 2.236 0 3.744-1.443 3.744-3.575 0-2.145-1.508-3.562-3.744-3.562Zm0 1.664c1.027 0 1.742.78 1.742 1.924s-.715 1.924-1.742 1.924c-1.04 0-1.755-.78-1.755-1.924s.715-1.924 1.755-1.924Zm14.323-1.677c-1.183.013-2.067.533-2.522 1.612-.338-1.014-1.183-1.612-2.366-1.612-1.053.013-1.872.429-2.366 1.287v-1.209h-2.002V452h2.002v-3.458c0-1.014.585-1.768 1.56-1.781.819 0 1.339.533 1.339 1.43V452h1.989v-3.458c0-1.014.585-1.768 1.547-1.781.832 0 1.352.533 1.352 1.43V452h1.989v-4.394c0-1.638-.975-2.678-2.522-2.678Zm7.255.013c-2.132 0-3.601 1.43-3.601 3.588 0 2.119 1.417 3.549 3.653 3.549 1.261 0 2.288-.455 2.99-1.235l-1.053-1.066a2.48 2.48 0 0 1-1.768.741c-.897 0-1.573-.52-1.807-1.404h5.018c.169-2.548-.975-4.173-3.432-4.173Zm-1.625 2.99c.156-.923.754-1.521 1.638-1.521.923 0 1.521.598 1.547 1.521h-3.185Zm10.292 2.21c-.364.169-.676.26-.936.26-.429.013-.676-.221-.676-.806v-2.886h1.898v-1.391h-1.898v-1.924h-1.989v1.924h-.975v1.378h.975v3.237c0 1.443.949 2.158 2.197 2.158.65 0 1.3-.182 1.82-.481l-.416-1.469Zm6.107-5.213c-1.092.013-1.924.442-2.418 1.313v-3.887h-2.002V452h2.002v-3.445c0-1.027.611-1.781 1.612-1.794.858 0 1.378.546 1.378 1.43V452h2.002v-4.394c0-1.638-1.001-2.678-2.574-2.678Zm7.291.013c-2.132 0-3.601 1.43-3.601 3.588 0 2.119 1.417 3.549 3.653 3.549 1.261 0 2.288-.455 2.99-1.235l-1.053-1.066a2.48 2.48 0 0 1-1.768.741c-.897 0-1.573-.52-1.807-1.404h5.018c.169-2.548-.975-4.173-3.432-4.173Zm-1.625 2.99c.156-.923.754-1.521 1.638-1.521.923 0 1.521.598 1.547 1.521h-3.185Zm11.033-2.925v3.458c0 1.014-.585 1.768-1.547 1.781-.806 0-1.313-.533-1.313-1.417v-3.822h-2.002v4.394c0 1.651.975 2.678 2.522 2.678 1.053 0 1.859-.429 2.34-1.313V452h1.989v-6.994h-1.989Zm8.335 2.054.689-1.365a5.216 5.216 0 0 0-2.73-.78c-1.521 0-2.756.741-2.756 2.184 0 2.457 3.627 1.859 3.627 2.977 0 .377-.377.546-.884.546-.767 0-1.703-.312-2.431-.871l-.65 1.352c.793.637 1.898.975 3.029.975 1.586 0 2.847-.754 2.847-2.184.013-2.47-3.679-1.937-3.679-2.99 0-.364.338-.52.806-.52.585 0 1.365.247 2.132.676Zm-740.57-237.225c-2.782 0-4.888 1.963-4.888 4.615 0 2.639 2.106 4.641 4.888 4.641s4.888-2.015 4.888-4.641c0-2.639-2.106-4.615-4.888-4.615Zm.026 1.794c1.521 0 2.756 1.222 2.756 2.821 0 1.599-1.235 2.847-2.756 2.847-1.521 0-2.808-1.248-2.808-2.847a2.8 2.8 0 0 1 2.808-2.821Zm5.058-1.729v1.742h2.769V219h2.054v-7.358h2.782V209.9h-7.605Zm8.705 0v9.1h5.954v-1.794h-3.9V209.9h-2.054Zm11.034 0h-3.861v9.1h2.054v-2.6h1.807c2.314 0 3.64-1.222 3.64-3.341 0-2.015-1.326-3.159-3.64-3.159Zm-.104 4.784h-1.703v-3.081h1.703c1.144 0 1.794.507 1.794 1.521 0 1.04-.65 1.56-1.794 1.56Z" fill="#2E3141"/><path d="M165.594 184.304h3.352m-1.676.718v4.309m8.378-5.027v5.027" stroke="#2E3141" stroke-width="2" stroke-linecap="round" stroke-linejoin="round"/><path d="M172.459 184.304a1 1 0 1 0-2 0h2Zm-2 0v2.513h2v-2.513h-2Zm0 2.513a3.514 3.514 0 0 0 3.514 3.514v-2a1.514 1.514 0 0 1-1.514-1.514h-2Z" fill="#2E3141"/><path d="M175.648 189.331c-1.257 0-4.189.419-4.189-2.514" stroke="#2E3141" stroke-width="2" stroke-linecap="round" stroke-linejoin="round"/><circle cx="161.405" cy="186.817" r="2.514" stroke="#2E3141" stroke-width="2" stroke-linecap="round" stroke-linejoin="round"/><path d="M175.648 187.894c1.851 0 3.352 0 3.352-1.795s-1.501-1.795-3.352-1.795" stroke="#2E3141" stroke-width="2" stroke-linecap="round" stroke-linejoin="round"/><path d="m160.59 176.294-.004-.002.006.005.002-.002-.004-.001Zm0 0 .069-.071.631-.642-.7.713Zm2.527 2.498.002.002 1.142 1.128.965.954a.065.065 0 0 0-.009.008c-.325.321-.596.622-.848.901l-.005.006c-.121.134-.238.264-.357.393a4.215 4.215 0 0 0-1.258-.628c-.624-.189-1.263-.223-1.931-.199h-.002a5.289 5.289 0 0 0-2.199.562l-1.302-1.287-.52-.513 3.832-3.787c.832.817 1.663 1.639 2.49 2.46Zm-10.136 11.425-.026.024a585.522 585.522 0 0 1-2.82-2.65l.909-.853c1.4-1.314 2.8-2.628 4.206-3.937.256.235.499.464.746.697l.121.113c-.654 1.262-.751 2.597-.296 3.945-.944.883-1.888 1.768-2.831 2.653h-.001l-.008.008Zm3.616-6.157.007.007-.007-.007Zm-.107-1.071-.006.008.012-.018-.006.01Zm-.274 4.198v-.001l-.005.006.005-.005Zm-3.276 3.066Z" stroke="#2E3141" stroke-width="2" stroke-miterlimit="10"/><path d="m151.351 189.331-2.513 2.513m-.838-.838 1.676 1.676" stroke="#2E3141" stroke-width="2" stroke-miterlimit="10" stroke-linecap="round"/><path d="m162.405 172.172 1.358-1.207a1 1 0 0 1 1.351.02l5.8 5.478a1 1 0 0 1-.022 1.474l-1.359 1.207a1 1 0 0 1-1.351-.02l-5.799-5.477a1 1 0 0 1 .022-1.475Z" stroke="#2E3141" stroke-width="2" stroke-miterlimit="10" stroke-linecap="round" stroke-linejoin="round"/><path d="M853.594 184.304h3.352m-1.676.718v4.309m8.378-5.027v5.027" stroke="#2E3141" stroke-width="2" stroke-linecap="round" stroke-linejoin="round"/><path d="M860.459 184.304a1 1 0 1 0-2 0h2Zm-2 0v2.513h2v-2.513h-2Zm0 2.513a3.514 3.514 0 0 0 3.514 3.514v-2a1.514 1.514 0 0 1-1.514-1.514h-2Z" fill="#2E3141"/><path d="M863.648 189.331c-1.257 0-4.189.419-4.189-2.514" stroke="#2E3141" stroke-width="2" stroke-linecap="round" stroke-linejoin="round"/><circle cx="849.405" cy="186.817" r="2.514" stroke="#2E3141" stroke-width="2" stroke-linecap="round" stroke-linejoin="round"/><path d="M863.648 187.894c1.851 0 3.352 0 3.352-1.795s-1.501-1.795-3.352-1.795" stroke="#2E3141" stroke-width="2" stroke-linecap="round" stroke-linejoin="round"/><path d="m848.59 176.294-.004-.002.006.005.002-.002-.004-.001Zm0 0 .069-.071.631-.642-.7.713Zm2.527 2.498.002.002 1.142 1.128.965.954-.009.008c-.325.321-.596.622-.848.901l-.005.006c-.121.134-.238.264-.357.393a4.215 4.215 0 0 0-1.258-.628c-.624-.189-1.263-.223-1.931-.199h-.002a5.289 5.289 0 0 0-2.199.562l-1.302-1.287-.52-.513 3.832-3.787c.832.817 1.663 1.639 2.49 2.46Zm-10.136 11.425-.026.024a585.522 585.522 0 0 1-2.82-2.65l.909-.853c1.4-1.314 2.8-2.628 4.206-3.937.256.235.499.464.746.697l.121.113c-.654 1.262-.751 2.597-.296 3.945-.944.883-1.888 1.768-2.831 2.653h-.001l-.008.008Zm3.616-6.157.007.007-.007-.007Zm-.107-1.071-.006.008.012-.018-.006.01Zm-.274 4.198v-.001l-.005.006.005-.005Zm-3.276 3.066Z" stroke="#2E3141" stroke-width="2" stroke-miterlimit="10"/><path d="m839.351 189.331-2.513 2.513m-.838-.838 1.676 1.676" stroke="#2E3141" stroke-width="2" stroke-miterlimit="10" stroke-linecap="round"/><path d="m850.405 172.172 1.358-1.207a1 1 0 0 1 1.351.02l5.8 5.478a1 1 0 0 1-.022 1.474l-1.359 1.207a1 1 0 0 1-1.351-.02l-5.799-5.477a1 1 0 0 1 .022-1.475Z" stroke="#2E3141" stroke-width="2" stroke-miterlimit="10" stroke-linecap="round" stroke-linejoin="round"/><path d="M840.234 209.835c-2.782 0-4.888 1.963-4.888 4.615 0 2.639 2.106 4.641 4.888 4.641s4.888-2.015 4.888-4.641c0-2.639-2.106-4.615-4.888-4.615Zm.026 1.794c1.521 0 2.756 1.222 2.756 2.821 0 1.599-1.235 2.847-2.756 2.847-1.521 0-2.808-1.248-2.808-2.847a2.8 2.8 0 0 1 2.808-2.821Zm5.058-1.729v1.742h2.769V219h2.054v-7.358h2.782V209.9h-7.605Zm8.705 0v9.1h5.954v-1.794h-3.9V209.9h-2.054Zm11.034 0h-3.861v9.1h2.054v-2.6h1.807c2.314 0 3.64-1.222 3.64-3.341 0-2.015-1.326-3.159-3.64-3.159Zm-.104 4.784h-1.703v-3.081h1.703c1.144 0 1.794.507 1.794 1.521 0 1.04-.65 1.56-1.794 1.56ZM491.658 306.9h-3.861v9.1h2.054v-2.6h1.807c2.314 0 3.64-1.222 3.64-3.341 0-2.015-1.326-3.159-3.64-3.159Zm-.104 4.784h-1.703v-3.081h1.703c1.144 0 1.794.507 1.794 1.521 0 1.04-.65 1.56-1.794 1.56Zm7.016-1.417v-1.261h-2.002V316h2.002v-3.367c0-1.183.884-1.95 2.314-1.82v-1.885c-1.04.013-1.833.481-2.314 1.339Zm6.566-1.326c-2.249 0-3.757 1.417-3.757 3.562 0 2.132 1.508 3.575 3.757 3.575 2.236 0 3.744-1.443 3.744-3.575 0-2.145-1.508-3.562-3.744-3.562Zm0 1.664c1.027 0 1.742.78 1.742 1.924s-.715 1.924-1.742 1.924c-1.04 0-1.755-.78-1.755-1.924s.715-1.924 1.755-1.924Zm9.734.78 1.352-.975c-.624-.936-1.69-1.469-3.029-1.469-2.145 0-3.588 1.443-3.588 3.588 0 2.119 1.443 3.549 3.562 3.549 1.43 0 2.522-.572 3.107-1.547l-1.378-.936c-.351.546-.91.819-1.625.819-.975 0-1.664-.767-1.664-1.898 0-1.118.689-1.872 1.664-1.872a1.928 1.928 0 0 1 1.599.741Zm5.446-2.444c-2.132 0-3.601 1.43-3.601 3.588 0 2.119 1.417 3.549 3.653 3.549 1.261 0 2.288-.455 2.99-1.235l-1.053-1.066a2.48 2.48 0 0 1-1.768.741c-.897 0-1.573-.52-1.807-1.404h5.018c.169-2.548-.975-4.173-3.432-4.173Zm-1.625 2.99c.156-.923.754-1.521 1.638-1.521.923 0 1.521.598 1.547 1.521h-3.185Zm10.785-.871.689-1.365a5.216 5.216 0 0 0-2.73-.78c-1.521 0-2.756.741-2.756 2.184 0 2.457 3.627 1.859 3.627 2.977 0 .377-.377.546-.884.546-.767 0-1.703-.312-2.431-.871l-.65 1.352c.793.637 1.898.975 3.029.975 1.586 0 2.847-.754 2.847-2.184.013-2.47-3.679-1.937-3.679-2.99 0-.364.338-.52.806-.52.585 0 1.365.247 2.132.676Zm6.488 0 .689-1.365a5.216 5.216 0 0 0-2.73-.78c-1.521 0-2.756.741-2.756 2.184 0 2.457 3.627 1.859 3.627 2.977 0 .377-.377.546-.884.546-.767 0-1.703-.312-2.431-.871l-.65 1.352c.793.637 1.898.975 3.029.975 1.586 0 2.847-.754 2.847-2.184.013-2.47-3.679-1.937-3.679-2.99 0-.364.338-.52.806-.52.585 0 1.365.247 2.132.676Zm5.239-2.119c-2.249 0-3.757 1.417-3.757 3.562 0 2.132 1.508 3.575 3.757 3.575 2.236 0 3.744-1.443 3.744-3.575 0-2.145-1.508-3.562-3.744-3.562Zm0 1.664c1.027 0 1.742.78 1.742 1.924s-.715 1.924-1.742 1.924c-1.04 0-1.755-.78-1.755-1.924s.715-1.924 1.755-1.924Zm7.07-.338v-1.261h-2.002V316h2.002v-3.367c0-1.183.884-1.95 2.314-1.82v-1.885c-1.04.013-1.833.481-2.314 1.339Zm7.813.793.689-1.365a5.216 5.216 0 0 0-2.73-.78c-1.521 0-2.756.741-2.756 2.184 0 2.457 3.627 1.859 3.627 2.977 0 .377-.377.546-.884.546-.767 0-1.703-.312-2.431-.871l-.65 1.352c.793.637 1.898.975 3.029.975 1.586 0 2.847-.754 2.847-2.184.013-2.47-3.679-1.937-3.679-2.99 0-.364.338-.52.806-.52.585 0 1.365.247 2.132.676Zm-206.19-70.16h-4.186v9.1h4.329c2.106 0 3.432-.962 3.432-2.522 0-1.196-.715-2.08-1.898-2.301.975-.26 1.573-1.027 1.573-2.002 0-1.404-1.248-2.275-3.25-2.275Zm-.104 3.666h-2.028v-1.989h2.028c.78-.013 1.248.351 1.248.975 0 .637-.468 1.014-1.248 1.014Zm0 3.757h-2.028v-2.158h2.028c.962-.013 1.56.39 1.56 1.053 0 .702-.598 1.105-1.56 1.105ZM360.945 250l-.013-4.563c-.013-1.573-1.092-2.509-2.964-2.509-1.222 0-2.119.286-3.159.806l.624 1.378c.728-.403 1.456-.611 2.08-.611.962 0 1.456.429 1.456 1.17v.13h-1.924c-1.716.013-2.665.793-2.665 2.106 0 1.274.91 2.184 2.405 2.184.975 0 1.729-.325 2.197-.91V250h1.963Zm-3.601-1.339c-.676 0-1.092-.351-1.092-.884 0-.559.377-.793 1.144-.793h1.573v.624c-.117.598-.78 1.053-1.625 1.053Zm9.239-.52c-.364.169-.676.26-.936.26-.429.013-.676-.221-.676-.806v-2.886h1.898v-1.391h-1.898v-1.924h-1.989v1.924h-.975v1.378h.975v3.237c0 1.443.949 2.158 2.197 2.158.65 0 1.3-.182 1.82-.481l-.416-1.469Zm6.239-2.756 1.352-.975c-.624-.936-1.69-1.469-3.029-1.469-2.145 0-3.588 1.443-3.588 3.588 0 2.119 1.443 3.549 3.562 3.549 1.43 0 2.522-.572 3.107-1.547l-1.378-.936c-.351.546-.91.819-1.625.819-.975 0-1.664-.767-1.664-1.898 0-1.118.689-1.872 1.664-1.872a1.928 1.928 0 0 1 1.599.741Zm7.143-2.457c-1.092.013-1.924.442-2.418 1.313v-3.887h-2.002V250h2.002v-3.445c0-1.027.611-1.781 1.612-1.794.858 0 1.378.546 1.378 1.43V250h2.002v-4.394c0-1.638-1.001-2.678-2.574-2.678ZM349.896 388.9h-4.186v9.1h4.329c2.106 0 3.432-.962 3.432-2.522 0-1.196-.715-2.08-1.898-2.301.975-.26 1.573-1.027 1.573-2.002 0-1.404-1.248-2.275-3.25-2.275Zm-.104 3.666h-2.028v-1.989h2.028c.78-.013 1.248.351 1.248.975 0 .637-.468 1.014-1.248 1.014Zm0 3.757h-2.028v-2.158h2.028c.962-.013 1.56.39 1.56 1.053 0 .702-.598 1.105-1.56 1.105ZM360.945 398l-.013-4.563c-.013-1.573-1.092-2.509-2.964-2.509-1.222 0-2.119.286-3.159.806l.624 1.378c.728-.403 1.456-.611 2.08-.611.962 0 1.456.429 1.456 1.17v.13h-1.924c-1.716.013-2.665.793-2.665 2.106 0 1.274.91 2.184 2.405 2.184.975 0 1.729-.325 2.197-.91V398h1.963Zm-3.601-1.339c-.676 0-1.092-.351-1.092-.884 0-.559.377-.793 1.144-.793h1.573v.624c-.117.598-.78 1.053-1.625 1.053Zm9.239-.52c-.364.169-.676.26-.936.26-.429.013-.676-.221-.676-.806v-2.886h1.898v-1.391h-1.898v-1.924h-1.989v1.924h-.975v1.378h.975v3.237c0 1.443.949 2.158 2.197 2.158.65 0 1.3-.182 1.82-.481l-.416-1.469Zm6.239-2.756 1.352-.975c-.624-.936-1.69-1.469-3.029-1.469-2.145 0-3.588 1.443-3.588 3.588 0 2.119 1.443 3.549 3.562 3.549 1.43 0 2.522-.572 3.107-1.547l-1.378-.936c-.351.546-.91.819-1.625.819-.975 0-1.664-.767-1.664-1.898 0-1.118.689-1.872 1.664-1.872a1.928 1.928 0 0 1 1.599.741Zm7.143-2.457c-1.092.013-1.924.442-2.418 1.313v-3.887h-2.002V398h2.002v-3.445c0-1.027.611-1.781 1.612-1.794.858 0 1.378.546 1.378 1.43V398h2.002v-4.394c0-1.638-1.001-2.678-2.574-2.678ZM610.649 250h2.197l-3.887-9.1h-2.119l-3.952 9.1h2.119l.715-1.768h4.212l.715 1.768Zm-4.251-3.419 1.443-3.536 1.43 3.536h-2.873Zm10.951 1.56c-.364.169-.676.26-.936.26-.429.013-.676-.221-.676-.806v-2.886h1.898v-1.391h-1.898v-1.924h-1.989v1.924h-.975v1.378h.975v3.237c0 1.443.949 2.158 2.197 2.158.65 0 1.3-.182 1.82-.481l-.416-1.469Zm5.535 0c-.364.169-.676.26-.936.26-.429.013-.676-.221-.676-.806v-2.886h1.898v-1.391h-1.898v-1.924h-1.989v1.924h-.975v1.378h.975v3.237c0 1.443.949 2.158 2.197 2.158.65 0 1.3-.182 1.82-.481l-.416-1.469Zm3.624-3.874v-1.261h-2.002V250h2.002v-3.367c0-1.183.884-1.95 2.314-1.82v-1.885c-1.04.013-1.833.481-2.314 1.339Zm4.408-4.251c-.572 0-.975.416-.975 1.001 0 .572.403 1.001.975 1.001s.975-.429.975-1.001c0-.585-.403-1.001-.975-1.001Zm-1.001 2.99V250h2.002v-6.994h-2.002Zm8.199-.065c-.949 0-1.716.39-2.21 1.092v-3.679h-2.002V250h2.002v-1.014c.507.702 1.274 1.092 2.249 1.092 1.963 0 3.25-1.417 3.25-3.536 0-2.158-1.326-3.601-3.289-3.601Zm-.468 5.473c-1.027 0-1.742-.78-1.742-1.937 0-1.131.715-1.924 1.742-1.924 1.027 0 1.729.806 1.729 1.924 0 1.144-.702 1.937-1.729 1.937Zm9.732-5.408v3.458c0 1.014-.585 1.768-1.547 1.781-.806 0-1.313-.533-1.313-1.417v-3.822h-2.002v4.394c0 1.651.975 2.678 2.522 2.678 1.053 0 1.859-.429 2.34-1.313V250h1.989v-6.994h-1.989Zm7.841 5.135c-.364.169-.676.26-.936.26-.429.013-.676-.221-.676-.806v-2.886h1.898v-1.391h-1.898v-1.924h-1.989v1.924h-.975v1.378h.975v3.237c0 1.443.949 2.158 2.197 2.158.65 0 1.3-.182 1.82-.481l-.416-1.469Zm4.575-5.2c-2.132 0-3.601 1.43-3.601 3.588 0 2.119 1.417 3.549 3.653 3.549 1.261 0 2.288-.455 2.99-1.235l-1.053-1.066a2.48 2.48 0 0 1-1.768.741c-.897 0-1.573-.52-1.807-1.404h5.018c.169-2.548-.975-4.173-3.432-4.173Zm-1.625 2.99c.156-.923.754-1.521 1.638-1.521.923 0 1.521.598 1.547 1.521h-3.185Zm10.785-.871.689-1.365a5.216 5.216 0 0 0-2.73-.78c-1.521 0-2.756.741-2.756 2.184 0 2.457 3.627 1.859 3.627 2.977 0 .377-.377.546-.884.546-.767 0-1.703-.312-2.431-.871l-.65 1.352c.793.637 1.898.975 3.029.975 1.586 0 2.847-.754 2.847-2.184.013-2.47-3.679-1.937-3.679-2.99 0-.364.338-.52.806-.52.585 0 1.365.247 2.132.676ZM620.312 388.9v9.1h2.054v-3.445h4.108v-1.716h-4.108v-2.236h4.472l.013-1.703h-6.539Zm8.693-.884c-.572 0-.975.416-.975 1.001 0 .572.403 1.001.975 1.001s.975-.429.975-1.001c0-.585-.403-1.001-.975-1.001Zm-1.001 2.99V398h2.002v-6.994h-2.002Zm3.988-2.652V398h2.002v-9.646h-2.002Zm7.923 7.787c-.364.169-.676.26-.936.26-.429.013-.676-.221-.676-.806v-2.886h1.898v-1.391h-1.898v-1.924h-1.989v1.924h-.975v1.378h.975v3.237c0 1.443.949 2.158 2.197 2.158.65 0 1.3-.182 1.82-.481l-.416-1.469Zm4.574-5.2c-2.132 0-3.601 1.43-3.601 3.588 0 2.119 1.417 3.549 3.653 3.549 1.261 0 2.288-.455 2.99-1.235l-1.053-1.066a2.48 2.48 0 0 1-1.768.741c-.897 0-1.573-.52-1.807-1.404h5.018c.169-2.548-.975-4.173-3.432-4.173Zm-1.625 2.99c.156-.923.754-1.521 1.638-1.521.923 0 1.521.598 1.547 1.521h-3.185Zm8.381-1.664v-1.261h-2.002V398h2.002v-3.367c0-1.183.884-1.95 2.314-1.82v-1.885c-1.04.013-1.833.481-2.314 1.339ZM493.034 248.05c-.572 0-1.001.416-1.001 1.027 0 .598.429 1.04 1.001 1.04.585 0 1.001-.442 1.001-1.04 0-.611-.416-1.027-1.001-1.027Zm6.957 0c-.572 0-1.001.416-1.001 1.027 0 .598.429 1.04 1.001 1.04.585 0 1.001-.442 1.001-1.04 0-.611-.416-1.027-1.001-1.027Zm6.957 0c-.572 0-1.001.416-1.001 1.027 0 .598.429 1.04 1.001 1.04.585 0 1.001-.442 1.001-1.04 0-.611-.416-1.027-1.001-1.027Zm-13.914 148c-.572 0-1.001.416-1.001 1.027 0 .598.429 1.04 1.001 1.04.585 0 1.001-.442 1.001-1.04 0-.611-.416-1.027-1.001-1.027Zm6.957 0c-.572 0-1.001.416-1.001 1.027 0 .598.429 1.04 1.001 1.04.585 0 1.001-.442 1.001-1.04 0-.611-.416-1.027-1.001-1.027Zm6.957 0c-.572 0-1.001.416-1.001 1.027 0 .598.429 1.04 1.001 1.04.585 0 1.001-.442 1.001-1.04 0-.611-.416-1.027-1.001-1.027Z" fill="#2E3141"/><rect x="448" y="301" width="20" height="20" rx="4" stroke="#2E3141" stroke-width="2" stroke-linecap="round" stroke-linejoin="round"/><rect x="452" y="305" width="12" height="12" rx="2" stroke="#2E3141" stroke-width="2" stroke-linecap="round" stroke-linejoin="round"/><path d="M453 301v-4m0 28v-4m5-20v-4m0 28v-4m5-20v-4m0 28v-4m5-5h4m-28 0h4m20-5h4m-11 0h2.333M453 309h2.333m1.667 7.333V314m-13-3h4m20-5h4m-28 0h4" stroke="#2E3141" stroke-width="2" stroke-linecap="round" stroke-linejoin="round"/><path d="M163.81 308.433c-.018-.093-.006-.099.081-.124.156-.044.317-.013.473-.019.112 0 .23 0 .354.013.062-.007.093.024.093.087.007.186.038.366.032.553-.013.367-.318.51-.622.429a.296.296 0 0 1-.137-.112c-.093-.13-.23-.678-.274-.827Zm0 0c.025.137-.037-.13 0 0Zm1.033 3.998c-.367 0-.734.013-1.101 0-.522-.019-1.051-.006-1.573-.025-.305-.012-.609-.012-.92-.025-.467-.018-.927-.031-1.393-.056-.33-.018-.659-.031-.989-.056-.447-.031-.895-.049-1.343-.099-.112-.012-.223-.012-.335-.025-.069-.012-.106-.037-.131-.099-.236-.572-.472-1.138-.709-1.71a78.394 78.394 0 0 1-1.094-2.817c-.274-.752-.535-1.511-.728-2.294a16.46 16.46 0 0 1-.298-1.623 7.844 7.844 0 0 1-.081-1.318 4.548 4.548 0 0 1 .348-1.648.398.398 0 0 1 .031-.062c.025-.068.069-.087.137-.087l.653.037c.274.019.547.007.821.025.36.019.721.019 1.088.019.062 0 .118.018.174.043.479.193.964.386 1.461.535.454.137.914.255 1.393.236.143-.006.274-.031.41-.074.311-.106.547-.392.473-.796-.013-.069-.006-.1.062-.1.261-.012.516-.031.771-.105.05-.013.075.018.106.049.192.218.441.336.727.38.168.025.336 0 .498-.031.304-.063.572-.206.814-.405.404-.317.752-.69 1.107-1.057a.693.693 0 0 1 .236-.161 58.15 58.15 0 0 0 3.718-1.604c.33-.156.659-.324.989-.485.112-.056.112-.056.205.031.423.392.734.858.976 1.374.274.584.423 1.206.572 1.828.143.603.28 1.212.404 1.815.125.616.249 1.225.355 1.841.099.559.199 1.119.292 1.685.081.491.155.982.23 1.467.006.056-.012.087-.068.1a2.514 2.514 0 0 0-.206.043c-.254.081-.478.205-.603.46a.845.845 0 0 0 .05.871c.075.112.162.211.261.311.118.118.224.236.324.366.211.286.323.616.379.964.062.392.155.784.242 1.169.044.205.094.404.143.609.019.069 0 .094-.068.1-.124.012-.249.037-.373.043-.479.038-.958.094-1.443.125-.422.025-.839.062-1.262.081l-1.169.056c-.534.024-1.075.037-1.61.056-.485.018-.976.006-1.461.024-.485.025-.989.019-1.492.019Zm-3.258-6.734c-.032.031-.069.031-.106.044a2.45 2.45 0 0 0-.61.298 1.184 1.184 0 0 0-.385.417.665.665 0 0 0 .28.908c.323.174.646.174.964-.025.192-.118.379-.249.59-.342.168-.075.342-.137.529-.156.143-.012.286-.006.429 0 .23.007.466.007.702 0 .15-.006.299-.018.448-.056.261-.068.466-.205.578-.46.125-.292.087-.603-.224-.789a1.475 1.475 0 0 0-.398-.168c-.683-.106-.683-.106-1.032-.1-.081-.136-.199-.456-.348-.493a1.453 1.453 0 0 0-.92.069.994.994 0 0 0-.354.223c-.1.119-.168.481-.143.63Zm4.395-1.765a1.615 1.615 0 0 0 1.623-1.617 1.623 1.623 0 1 0-3.245-.006c0 .889.733 1.629 1.622 1.623Zm-7.423 1.566a1.563 1.563 0 0 0 1.579-1.573c0-.895-.709-1.56-1.555-1.573a1.57 1.57 0 0 0-1.598 1.58 1.565 1.565 0 0 0 1.574 1.566Zm3.96 3.85c-.006-.218-.046-.38-.13-.634-.019-.056-.044-.062-.094-.044a5.281 5.281 0 0 0-.708.386c-.044.025-.056.062-.044.105.044.298.131.417.311.56.137.112.298.118.46.05.143-.056.186-.242.205-.379-.033.158 0-.013 0-.044Zm-5.82-15.715.001-.001c.162-.238.356-.473.569-.709.568-.628 1.17-1.198 1.837-1.67a5.76 5.76 0 0 1 .594-.359c.316-.171.67-.221 1.098-.181 1.006.099 1.986.372 3.011.693h.002c.46.143.916.304 1.372.477a2.65 2.65 0 0 0-.242.857c-1.399.584-2.82 1.048-4.295 1.333-.773.149-1.544.236-2.295.242a7.74 7.74 0 0 1-1.652-.164c-.002-.168-.002-.339-.002-.515l.002-.003Zm8.223-.545v-.002.002Zm-4.467 5.546c-.137.056-.274.044-.411.019a7.13 7.13 0 0 1-1.343-.398c-.547-.212-1.081-.435-1.641-.603-.137-.044-.274-.081-.429-.125.087-.068.174-.08.255-.118.018-.006.037-.012.05-.018.149-.056.149-.056.118-.218.049-.019.099-.006.149 0 .615.068 1.231.068 1.847.031a14.429 14.429 0 0 0 1.629-.199c.92-.162 1.821-.398 2.71-.69a25.05 25.05 0 0 0 2.313-.877v.056a29.992 29.992 0 0 1-1.629 1.81 8.002 8.002 0 0 1-.578.541c-.056.043-.112.087-.174.118-.093.049-.168.062-.28-.013l-2.586.684Zm17.543 11.468c.024.342-.063.659-.262.945-.143.205-.335.355-.534.504-.137.099-.28.18-.442.224-.13.037-.236-.007-.336-.087-.136-.118-.205-.274-.267-.436a4.274 4.274 0 0 1-.199-.876c-.074-.535-.261-1.008-.634-1.412-.124-.13-.255-.261-.361-.404a.532.532 0 0 1-.087-.448c.044-.198.199-.298.38-.354.261-.081.528-.087.795-.043.081.012.168.006.249.024.286.056.529.187.752.373.473.392.753.908.902 1.499.044.155.056.323.044.491Zm-7.607-18.015c-.006.653-.143 1.281-.342 1.896a.38.38 0 0 1-.019.05c-.049.124-.049.131-.18.118a9.397 9.397 0 0 0-1.113-.018c-.553.024-1.113.056-1.654.205a.265.265 0 0 1-.137.006c-.093-.025-.112-.044-.08-.137.273-.889.603-1.747 1.125-2.518.174-.261.373-.51.628-.703.261-.205.541-.329.883-.317.367.013.609.199.752.523.118.261.149.547.143.827-.006.018-.006.043-.006.068Zm-18.187 3.022c0-.46.187-.815.61-1.02a.835.835 0 0 1 .739-.006c.237.106.429.273.597.466.417.485.697 1.045.945 1.629.044.1.081.199.119.299.037.105.037.112-.063.155-.335.137-.659.292-.982.46a8.322 8.322 0 0 0-.783.454c-.112.075-.112.075-.193-.037a10.859 10.859 0 0 1-.367-.572c-.224-.367-.454-.889-.547-1.281a4.688 4.688 0 0 1-.069-.379c-.012-.056-.006-.112-.006-.168Zm1.505 17.921c-.51 0-.846-.242-1.008-.709a2.125 2.125 0 0 1-.111-.652c-.019-.653.124-1.269.379-1.866.124-.28.305-.528.522-.746.081-.087.106-.081.149.037.112.286.218.573.33.859.242.627.504 1.243.765 1.865.056.13.112.267.168.398.031.068.031.13-.019.192-.249.318-.553.541-.964.61-.068 0-.143.018-.211.012Zm17.877-17.789c.462-.715.59-1.505.749-2.28.031-.16.061-.327.076-.486.008-.076.046-.107.121-.122.939-.19 1.878-.38 2.847-.388.204 0 .401.016.59.084.22.068.258.167.129.372-.083.13-.189.236-.303.335-.348.319-.727.577-1.12.828-.962.608-1.976 1.132-2.998 1.634-.015.008-.038.008-.091.023Zm-18.35 4.586c0-.018.007-.042.007-.066-.142.083-1.204-.477-1.31-.59l-2.135-1.208c-.078-.113-.063-.131-.241-.06a6.824 6.824 0 0 0-1.006.498c-.17.106-.333.218-.454.372-.148.19-.127.278.093.397.219.118.467.183.715.242.745.172 1.51.243 2.275.308.688.053 1.368.071 2.056.107Zm11.374 16.715-.003.001-.049-.692m.052.691h.004l-.056-.691m.052.691c.178-.012.43-.035.683-.118l-.683.118Zm-.052-.691s0 0 0 0m0 0-.001-.007m.001.007c-.313.029-.626.055-.94.079l.939-.086m.001.007-.001-.007m.001.007.119-.011-.023-.003-.097.007m.315-.755-.013.005a.298.298 0 0 0-.086.053l.189-.161c-.173.025-.3.048-.418.088l-.048.018a.178.178 0 0 0-.018.008l.185.029.01.002a.988.988 0 0 0 .185-.038l.014-.004Zm0 0 .004-.001-.004.001Zm1.085-.149h.014c.118.002.222.002.316.002a.832.832 0 0 0-.061.329.832.832 0 0 0 .082.358 8.936 8.936 0 0 1-.293.052c.007-.026.013-.052.018-.079l.003-.015.002-.007c.011-.061.051-.281-.053-.514a.807.807 0 0 0-.071-.127l.043.001Zm-1.928-.377c.081-.074.18-.111.28-.149a1.824 1.824 0 0 1 .111-.034l.005-.001-.396.184Zm-7.386 2.491a.853.853 0 0 0 .218-.069c.099-.043.162-.118.162-.224l-.38.293Zm0 0 .12-.264.007-.014.006-.015.007-.014.044-.098.136-.017-.32.422Zm-.003 0a1.205 1.205 0 0 1-.083.015l-.019.003.102-.018Z" stroke="#2E3141" stroke-width="1.4" stroke-miterlimit="10" stroke-linecap="round" stroke-linejoin="round"/><path d="M165.36 304.412a.985.985 0 0 0 .983-.982.973.973 0 0 0-.983-.983.973.973 0 0 0-.983.983c0 .53.433.982.983.982Zm-7.206 1.311a.986.986 0 0 0 .983-.983.974.974 0 0 0-.983-.983.973.973 0 0 0-.983.983c0 .53.433.983.983.983Z" fill="#2E3141"/><path d="M852.81 308.433c-.018-.093-.006-.099.081-.124.156-.044.317-.013.473-.019.112 0 .23 0 .354.013.062-.007.093.024.093.087.007.186.038.366.032.553-.013.367-.318.51-.622.429a.296.296 0 0 1-.137-.112c-.093-.13-.23-.678-.274-.827Zm0 0c.025.137-.037-.13 0 0Zm1.033 3.998c-.367 0-.734.013-1.101 0-.522-.019-1.051-.006-1.573-.025-.305-.012-.609-.012-.92-.025-.467-.018-.927-.031-1.393-.056-.33-.018-.659-.031-.989-.056-.447-.031-.895-.049-1.343-.099-.112-.012-.223-.012-.335-.025-.069-.012-.106-.037-.131-.099-.236-.572-.472-1.138-.709-1.71a78.394 78.394 0 0 1-1.094-2.817c-.274-.752-.535-1.511-.728-2.294a16.46 16.46 0 0 1-.298-1.623 7.844 7.844 0 0 1-.081-1.318 4.548 4.548 0 0 1 .348-1.648.398.398 0 0 1 .031-.062c.025-.068.069-.087.137-.087l.653.037c.274.019.547.007.821.025.36.019.721.019 1.088.019.062 0 .118.018.174.043.479.193.964.386 1.461.535.454.137.914.255 1.393.236.143-.006.274-.031.41-.074.311-.106.547-.392.473-.796-.013-.069-.006-.1.062-.1.261-.012.516-.031.771-.105.05-.013.075.018.106.049.192.218.441.336.727.38.168.025.336 0 .498-.031.304-.063.572-.206.814-.405.404-.317.752-.69 1.107-1.057a.693.693 0 0 1 .236-.161 58.15 58.15 0 0 0 3.718-1.604c.33-.156.659-.324.989-.485.112-.056.112-.056.205.031.423.392.734.858.976 1.374.274.584.423 1.206.572 1.828.143.603.28 1.212.404 1.815.125.616.249 1.225.355 1.841.099.559.199 1.119.292 1.685.081.491.155.982.23 1.467.006.056-.012.087-.068.1a2.514 2.514 0 0 0-.206.043c-.254.081-.478.205-.603.46a.845.845 0 0 0 .05.871c.075.112.162.211.261.311.118.118.224.236.324.366.211.286.323.616.379.964.062.392.155.784.242 1.169.044.205.094.404.143.609.019.069 0 .094-.068.1-.124.012-.249.037-.373.043-.479.038-.958.094-1.443.125-.422.025-.839.062-1.262.081l-1.169.056c-.534.024-1.075.037-1.61.056-.485.018-.976.006-1.461.024-.485.025-.989.019-1.492.019Zm-3.258-6.734c-.032.031-.069.031-.106.044a2.45 2.45 0 0 0-.61.298 1.184 1.184 0 0 0-.385.417.665.665 0 0 0 .28.908c.323.174.646.174.964-.025.192-.118.379-.249.59-.342.168-.075.342-.137.529-.156.143-.012.286-.006.429 0 .23.007.466.007.702 0 .15-.006.299-.018.448-.056.261-.068.466-.205.578-.46.125-.292.087-.603-.224-.789a1.475 1.475 0 0 0-.398-.168c-.683-.106-.683-.106-1.032-.1-.081-.136-.199-.456-.348-.493a1.453 1.453 0 0 0-.92.069.994.994 0 0 0-.354.223c-.1.119-.168.481-.143.63Zm4.395-1.765a1.615 1.615 0 0 0 1.623-1.617 1.623 1.623 0 1 0-3.245-.006c0 .889.733 1.629 1.622 1.623Zm-7.423 1.566a1.563 1.563 0 0 0 1.579-1.573c0-.895-.709-1.56-1.555-1.573a1.57 1.57 0 0 0-1.598 1.58 1.565 1.565 0 0 0 1.574 1.566Zm3.96 3.85c-.006-.218-.046-.38-.13-.634-.019-.056-.044-.062-.094-.044a5.281 5.281 0 0 0-.708.386c-.044.025-.056.062-.044.105.044.298.131.417.311.56.137.112.298.118.46.05.143-.056.186-.242.205-.379-.033.158 0-.013 0-.044Zm-5.82-15.715.001-.001c.162-.238.356-.473.569-.709.568-.628 1.17-1.198 1.837-1.67a5.76 5.76 0 0 1 .594-.359c.316-.171.67-.221 1.098-.181 1.006.099 1.986.372 3.011.693h.002c.46.143.916.304 1.372.477a2.65 2.65 0 0 0-.242.857c-1.399.584-2.82 1.048-4.295 1.333-.773.149-1.544.236-2.295.242a7.74 7.74 0 0 1-1.652-.164c-.002-.168-.002-.339-.002-.515l.002-.003Zm8.223-.545v-.002.002Zm-4.467 5.546c-.137.056-.274.044-.411.019a7.13 7.13 0 0 1-1.343-.398c-.547-.212-1.081-.435-1.641-.603-.137-.044-.274-.081-.429-.125.087-.068.174-.08.255-.118.018-.006.037-.012.05-.018.149-.056.149-.056.118-.218.049-.019.099-.006.149 0 .615.068 1.231.068 1.847.031a14.429 14.429 0 0 0 1.629-.199c.92-.162 1.821-.398 2.71-.69a25.05 25.05 0 0 0 2.313-.877v.056a29.992 29.992 0 0 1-1.629 1.81 8.002 8.002 0 0 1-.578.541c-.056.043-.112.087-.174.118-.093.049-.168.062-.28-.013l-2.586.684Zm17.543 11.468c.024.342-.063.659-.262.945-.143.205-.335.355-.534.504-.137.099-.28.18-.442.224-.13.037-.236-.007-.336-.087-.136-.118-.205-.274-.267-.436a4.274 4.274 0 0 1-.199-.876c-.074-.535-.261-1.008-.634-1.412-.124-.13-.255-.261-.361-.404a.532.532 0 0 1-.087-.448c.044-.198.199-.298.38-.354.261-.081.528-.087.795-.043.081.012.168.006.249.024.286.056.529.187.752.373.473.392.753.908.902 1.499.044.155.056.323.044.491Zm-7.607-18.015c-.006.653-.143 1.281-.342 1.896a.38.38 0 0 1-.019.05c-.049.124-.049.131-.18.118a9.397 9.397 0 0 0-1.113-.018c-.553.024-1.113.056-1.654.205a.265.265 0 0 1-.137.006c-.093-.025-.112-.044-.08-.137.273-.889.603-1.747 1.125-2.518.174-.261.373-.51.628-.703.261-.205.541-.329.883-.317.367.013.609.199.752.523.118.261.149.547.143.827-.006.018-.006.043-.006.068Zm-18.187 3.022c0-.46.187-.815.61-1.02a.835.835 0 0 1 .739-.006c.237.106.429.273.597.466.417.485.697 1.045.945 1.629.044.1.081.199.119.299.037.105.037.112-.063.155-.335.137-.659.292-.982.46a8.322 8.322 0 0 0-.783.454c-.112.075-.112.075-.193-.037a10.859 10.859 0 0 1-.367-.572c-.224-.367-.454-.889-.547-1.281a4.688 4.688 0 0 1-.069-.379c-.012-.056-.006-.112-.006-.168Zm1.505 17.921c-.51 0-.846-.242-1.008-.709a2.125 2.125 0 0 1-.111-.652c-.019-.653.124-1.269.379-1.866.124-.28.305-.528.522-.746.081-.087.106-.081.149.037.112.286.218.573.33.859.242.627.504 1.243.765 1.865.056.13.112.267.168.398.031.068.031.13-.019.192-.249.318-.553.541-.964.61-.068 0-.143.018-.211.012Zm17.877-17.789c.462-.715.59-1.505.749-2.28.031-.16.061-.327.076-.486.008-.076.046-.107.121-.122.939-.19 1.878-.38 2.847-.388.204 0 .401.016.59.084.22.068.258.167.129.372-.083.13-.189.236-.303.335-.348.319-.727.577-1.12.828-.962.608-1.976 1.132-2.998 1.634-.015.008-.038.008-.091.023Zm-18.35 4.586c0-.018.007-.042.007-.066-.142.083-1.204-.477-1.31-.59l-2.135-1.208c-.078-.113-.063-.131-.241-.06a6.824 6.824 0 0 0-1.006.498c-.17.106-.333.218-.454.372-.148.19-.127.278.093.397.219.118.467.183.715.242.745.172 1.51.243 2.275.308.688.053 1.368.071 2.056.107Zm11.374 16.715-.003.001-.049-.692m.052.691h.004l-.056-.691m.052.691c.178-.012.43-.035.683-.118l-.683.118Zm-.052-.691s0 0 0 0m0 0-.001-.007m.001.007c-.313.029-.626.055-.94.079l.939-.086m.001.007-.001-.007m.001.007.119-.011-.023-.003-.097.007m.315-.755-.013.005a.298.298 0 0 0-.086.053l.189-.161c-.173.025-.3.048-.418.088l-.048.018a.178.178 0 0 0-.018.008l.185.029.01.002a.988.988 0 0 0 .185-.038l.014-.004Zm0 0 .004-.001-.004.001Zm1.085-.149h.014c.118.002.222.002.316.002a.832.832 0 0 0-.061.329.832.832 0 0 0 .082.358 8.936 8.936 0 0 1-.293.052c.007-.026.013-.052.018-.079l.003-.015.002-.007c.011-.061.051-.281-.053-.514a.807.807 0 0 0-.071-.127l.043.001Zm-1.928-.377c.081-.074.18-.111.28-.149a1.824 1.824 0 0 1 .111-.034l.005-.001-.396.184Zm-7.386 2.491a.853.853 0 0 0 .218-.069c.099-.043.162-.118.162-.224l-.38.293Zm0 0 .12-.264.007-.014.006-.015.007-.014.044-.098.136-.017-.32.422Zm-.003 0a1.205 1.205 0 0 1-.083.015l-.019.003.102-.018Z" stroke="#2E3141" stroke-width="1.4" stroke-miterlimit="10" stroke-linecap="round" stroke-linejoin="round"/><path d="M854.36 304.412a.985.985 0 0 0 .983-.982.973.973 0 0 0-.983-.983.973.973 0 0 0-.983.983c0 .53.433.982.983.982Zm-7.206 1.311a.986.986 0 0 0 .983-.983.974.974 0 0 0-.983-.983.973.973 0 0 0-.983.983c0 .53.433.983.983.983Z" fill="#2E3141"/><path d="M157.19 422.15c-.14 0-.295-.265-.39-.38-.71-.865-1.355-1.775-1.73-2.845-.025-.07-.085-.14-.02-.205.055-.065.14-.035.21-.02 1.07.235 2.135.465 3.2.7.05.01.095.02.145.025.07.005.155.06.205-.015.05-.075-.035-.135-.075-.19-.4-.54-.69-1.13-.87-1.78-.27-.98-.17-1.935.08-2.895.255-.975.675-1.9.965-2.865.19-.635.31-1.275.155-1.94-.01-.055-.07-.13 0-.18.075-.055.155-.01.225.04.37.25.565.625.73 1.025.29.705.41 1.45.46 2.205.005.065-.035.17.055.19.1.025.12-.085.16-.155.36-.66.545-1.37.7-2.095.16-.75.08-1.525.23-2.275.14-.69.425-1.31.975-1.78.05-.045.11-.08.165-.11.08-.045.17-.115.25-.055.1.075 0 .17-.025.245-.225.63-.035 1.215.18 1.795.315.855.69 1.685.95 2.56.165.555.215 1.13.26 1.7.034.434.097.869.146 1.303.002.018.019.032.038.032v0c.018 0 .032-.014.034-.033.043-.474.073-.948.142-1.417.145-1.115.33-2.225.84-3.245.135-.265.29-.515.49-.735.03-.035.06-.09.12-.065.06.025.035.085.03.13-.035.235-.105.465-.105.705-.01 1 .31 1.905.8 2.755.41.715.79 1.445.96 2.255.34 1.64.245 3.22-.785 4.635-.02.03-.04.055-.055.085-.03.055-.11.1-.055.17.045.055.12.03.185.015l1.155-.24c.69-.135 1.385-.27 2.075-.41l.435-.09c.18-.04.25.015.185.205-.2.61-.495 1.175-.845 1.715-.26.405-.56.785-.89 1.145-.105.11-.3.395-.45.395m-11.64-.01c3.925 0 7.72.01 11.64.01m-11.64-.01c1.95.01 3.895.005 5.845.005 1.935 0 3.865 0 5.795.005m-11.64-.01c-.23 0-.3.07-.295.295.015.56.01 3.01 0 3.57-.005.19.06.26.255.26 3.92-.005 7.845-.005 11.765 0 .19 0 .265-.06.26-.255-.01-.54-.005-2.98-.005-3.52 0-.34 0-.34-.34-.34M148 417.995c-.04-8.21 6.69-15 15.035-14.995 8.295.005 15.04 6.7 15.035 15.005-.005 8.27-6.685 14.995-15.045 14.995-8.405 0-15.07-6.83-15.025-15.005Zm15.05 8.28h-3.43c-.29 0-.33.05-.285.335.17 1.085.82 1.805 1.765 2.28 1.105.555 2.27.605 3.42.19 1.12-.405 1.92-1.145 2.19-2.36.08-.36.035-.44-.31-.445h-3.35Zm683.14-4.125c-.14 0-.295-.265-.39-.38-.71-.865-1.355-1.775-1.73-2.845-.025-.07-.085-.14-.02-.205.055-.065.14-.035.21-.02 1.07.235 2.135.465 3.2.7.05.01.095.02.145.025.07.005.155.06.205-.015.05-.075-.035-.135-.075-.19-.4-.54-.69-1.13-.87-1.78-.27-.98-.17-1.935.08-2.895.255-.975.675-1.9.965-2.865.19-.635.31-1.275.155-1.94-.01-.055-.07-.13 0-.18.075-.055.155-.01.225.04.37.25.565.625.73 1.025.29.705.41 1.45.46 2.205.005.065-.035.17.055.19.1.025.12-.085.16-.155.36-.66.545-1.37.7-2.095.16-.75.08-1.525.23-2.275.14-.69.425-1.31.975-1.78.05-.045.11-.08.165-.11.08-.045.17-.115.25-.055.1.075 0 .17-.025.245-.225.63-.035 1.215.18 1.795.315.855.69 1.685.95 2.56.165.555.215 1.13.26 1.7.034.434.097.869.146 1.303.002.018.019.032.038.032v0c.018 0 .032-.014.034-.033.043-.474.073-.948.142-1.417.145-1.115.33-2.225.84-3.245.135-.265.29-.515.49-.735.03-.035.06-.09.12-.065.06.025.035.085.03.13-.035.235-.105.465-.105.705-.01 1 .31 1.905.8 2.755.41.715.79 1.445.96 2.255.34 1.64.245 3.22-.785 4.635-.02.03-.04.055-.055.085-.03.055-.11.1-.055.17.045.055.12.03.185.015l1.155-.24c.69-.135 1.385-.27 2.075-.41l.435-.09c.18-.04.25.015.185.205-.2.61-.495 1.175-.845 1.715-.26.405-.56.785-.89 1.145-.105.11-.3.395-.45.395m-11.64-.01c3.925 0 7.72.01 11.64.01m-11.64-.01c1.95.01 3.895.005 5.845.005 1.935 0 3.865 0 5.795.005m-11.64-.01c-.23 0-.3.07-.295.295.015.56.01 3.01 0 3.57-.005.19.06.26.255.26 3.92-.005 7.845-.005 11.765 0 .19 0 .265-.06.26-.255-.01-.54-.005-2.98-.005-3.52 0-.34 0-.34-.34-.34M837 417.995c-.04-8.21 6.69-15 15.035-14.995 8.295.005 15.04 6.7 15.035 15.005-.005 8.27-6.685 14.995-15.045 14.995-8.405 0-15.07-6.83-15.025-15.005Zm15.05 8.28h-3.43c-.29 0-.33.05-.285.335.17 1.085.82 1.805 1.765 2.28 1.105.555 2.27.605 3.42.19 1.12-.405 1.92-1.145 2.19-2.36.08-.36.035-.44-.31-.445h-3.35Z" stroke="#2E3141" stroke-width="2" stroke-linecap="round" stroke-linejoin="round"/><path d="M60 73c0-5.523 4.477-10 10-10h844c5.523 0 10 4.477 10 10v36H60V73Z" fill="url(#r)"/><path d="M83.334 90.606V99a1 1 0 0 0 1 1h15.848a1 1 0 0 0 1-1v-8.394" stroke="#fff" stroke-width="2" stroke-linecap="round" stroke-linejoin="round"/><circle cx="88.412" cy="93.907" r="2.361" stroke="#fff" stroke-width="2" stroke-linecap="round" stroke-linejoin="round"/><circle cx="96.028" cy="93.907" r="2.361" stroke="#fff" stroke-width="2" stroke-linecap="round" stroke-linejoin="round"/><circle cx="88.361" cy="86.361" r="2.361" stroke="#fff" stroke-width="2" stroke-linecap="round" stroke-linejoin="round"/><path d="m89.977 78.242.002.002 1.935 1.912c-.291.29-.536.561-.764.814l-.004.005-.299.33a4.014 4.014 0 0 0-1.156-.568c-.595-.18-1.203-.212-1.833-.19h-.002a5.038 5.038 0 0 0-2.053.516c-.396-.394-.795-.788-1.191-1.179l-.446-.44 3.514-3.471a630.17 630.17 0 0 1 2.297 2.269Zm2.116 1.712v.001-.001Zm-8.14-.472.01-.01-.01.01Zm-.093 3.716a.226.226 0 0 1-.007-.006m.006.006.574-.611.003-.003.108-.115-.108.116-.002.002-.57.614-.011-.01m.006.007-.006-.006m.006.006-.006-.006m-.103-1.094-.012.017.006-.009.006-.008Zm0 0v-.001Zm-3.276 6.773c-.857-.8-1.71-1.6-2.562-2.406l.807-.758c1.302-1.222 2.604-2.443 3.91-3.66.226.208.44.41.66.616l.08.076c-.597 1.176-.687 2.42-.273 3.674-.875.818-1.749 1.638-2.623 2.458Zm3.016-2.826.005-.005-.005.005Z" stroke="#fff" stroke-width="2" stroke-miterlimit="10"/><path d="m78.967 88.099-2.361 2.36m-.788-.787 1.575 1.575" stroke="#fff" stroke-width="2" stroke-miterlimit="10" stroke-linecap="round"/><path d="m89.49 71.937 1.094-.972a1 1 0 0 1 1.35.02l5.272 4.979a1 1 0 0 1-.022 1.474l-1.094.972a1 1 0 0 1-1.352-.02l-5.27-4.978a1 1 0 0 1 .022-1.475Z" stroke="#fff" stroke-width="2" stroke-miterlimit="10" stroke-linecap="round" stroke-linejoin="round"/><path d="M125.922 91.196c-1.036 0-1.969-.22-2.8-.658a5.01 5.01 0 0 1-1.946-1.82c-.467-.775-.7-1.647-.7-2.618 0-.97.233-1.843.7-2.618a5.01 5.01 0 0 1 1.946-1.82c.831-.439 1.764-.658 2.8-.658 1.036 0 1.965.22 2.786.658a4.882 4.882 0 0 1 1.946 1.82c.476.775.714 1.647.714 2.618 0 .97-.238 1.843-.714 2.618a4.882 4.882 0 0 1-1.946 1.82c-.821.439-1.75.658-2.786.658Zm0-2.296c.495 0 .943-.117 1.344-.35a2.53 2.53 0 0 0 .952-.98c.233-.43.35-.92.35-1.47 0-.55-.117-1.036-.35-1.456a2.506 2.506 0 0 0-.952-.994 2.623 2.623 0 0 0-1.344-.35c-.495 0-.943.117-1.344.35a2.506 2.506 0 0 0-.952.994c-.233.42-.35.905-.35 1.456 0 .55.117 1.04.35 1.47.233.42.551.747.952.98.401.233.849.35 1.344.35Zm12.076 1.792c-.224.14-.499.247-.826.322a4.45 4.45 0 0 1-1.022.112c-.989 0-1.75-.243-2.282-.728s-.798-1.209-.798-2.17V85.68h-1.106v-1.988h1.106v-1.974h2.66v1.974h1.736v1.988h-1.736v2.52c0 .27.07.485.21.644.15.15.346.224.588.224.308 0 .579-.08.812-.238l.658 1.862Zm8.563-3.472c0 .019-.014.238-.042.658h-5.516c.112.392.327.695.644.91.327.205.733.308 1.218.308.364 0 .677-.051.938-.154.271-.103.542-.27.812-.504l1.4 1.456c-.737.821-1.815 1.232-3.234 1.232-.886 0-1.666-.168-2.338-.504a3.817 3.817 0 0 1-1.568-1.4c-.364-.597-.546-1.274-.546-2.03 0-.747.178-1.414.532-2.002a3.804 3.804 0 0 1 1.498-1.4c.635-.336 1.349-.504 2.142-.504a4.43 4.43 0 0 1 2.058.476c.616.308 1.102.76 1.456 1.358.364.588.546 1.288.546 2.1Zm-4.046-2.044c-.41 0-.756.117-1.036.35-.27.233-.443.55-.518.952h3.108c-.074-.401-.252-.719-.532-.952-.27-.233-.611-.35-1.022-.35Zm5.273-4.564h2.66V91h-2.66V80.612Zm13.474 10.584c-1.026 0-1.95-.215-2.772-.644a4.933 4.933 0 0 1-1.918-1.82c-.466-.775-.7-1.652-.7-2.632 0-.98.234-1.857.7-2.632a4.832 4.832 0 0 1 1.918-1.806c.822-.439 1.746-.658 2.772-.658.896 0 1.704.159 2.422.476a4.657 4.657 0 0 1 1.792 1.372l-1.764 1.596c-.634-.765-1.404-1.148-2.31-1.148a2.89 2.89 0 0 0-1.428.35c-.41.233-.732.565-.966.994-.224.42-.336.905-.336 1.456 0 .55.112 1.04.336 1.47.234.42.556.747.966.98.42.233.896.35 1.428.35.906 0 1.676-.383 2.31-1.148l1.764 1.596a4.657 4.657 0 0 1-1.792 1.372c-.718.317-1.526.476-2.422.476Zm8.9-.07c-.812 0-1.545-.168-2.198-.504a3.854 3.854 0 0 1-1.54-1.4c-.364-.597-.546-1.274-.546-2.03 0-.747.182-1.419.546-2.016a3.775 3.775 0 0 1 1.526-1.386c.653-.336 1.391-.504 2.212-.504.821 0 1.559.168 2.212.504a3.663 3.663 0 0 1 1.526 1.386c.364.588.546 1.26.546 2.016s-.182 1.433-.546 2.03a3.757 3.757 0 0 1-1.526 1.4c-.653.336-1.391.504-2.212.504Zm0-2.114c.467 0 .849-.159 1.148-.476.299-.327.448-.775.448-1.344 0-.56-.149-.999-.448-1.316-.299-.317-.681-.476-1.148-.476-.467 0-.849.159-1.148.476-.299.317-.448.756-.448 1.316 0 .57.149 1.017.448 1.344.299.317.681.476 1.148.476Zm5.516-8.4h2.66V91h-2.66V80.612Zm4.389 0h2.66V91h-2.66V80.612Zm12.145 6.608c0 .019-.014.238-.042.658h-5.516c.112.392.326.695.644.91.326.205.732.308 1.218.308.364 0 .676-.051.938-.154.27-.103.541-.27.812-.504l1.4 1.456c-.738.821-1.816 1.232-3.234 1.232-.887 0-1.666-.168-2.338-.504a3.81 3.81 0 0 1-1.568-1.4c-.364-.597-.546-1.274-.546-2.03 0-.747.177-1.414.532-2.002a3.798 3.798 0 0 1 1.498-1.4c.634-.336 1.348-.504 2.142-.504a4.43 4.43 0 0 1 2.058.476 3.46 3.46 0 0 1 1.456 1.358c.364.588.546 1.288.546 2.1Zm-4.046-2.044c-.411 0-.756.117-1.036.35-.271.233-.444.55-.518.952h3.108c-.075-.401-.252-.719-.532-.952-.271-.233-.612-.35-1.022-.35Zm9.15 5.95c-.84 0-1.591-.168-2.254-.504a3.828 3.828 0 0 1-1.554-1.4c-.364-.597-.546-1.274-.546-2.03 0-.756.182-1.428.546-2.016a3.733 3.733 0 0 1 1.554-1.386c.663-.336 1.414-.504 2.254-.504.859 0 1.601.187 2.226.56a3.028 3.028 0 0 1 1.33 1.526l-2.058 1.05c-.345-.681-.849-1.022-1.512-1.022-.476 0-.873.159-1.19.476-.308.317-.462.756-.462 1.316 0 .57.154 1.017.462 1.344.317.317.714.476 1.19.476.663 0 1.167-.34 1.512-1.022l2.058 1.05a3.096 3.096 0 0 1-1.33 1.54c-.625.364-1.367.546-2.226.546Zm9.917-.434c-.224.14-.5.247-.826.322a4.457 4.457 0 0 1-1.022.112c-.99 0-1.75-.243-2.282-.728s-.798-1.209-.798-2.17V85.68h-1.106v-1.988h1.106v-1.974h2.66v1.974h1.736v1.988h-1.736v2.52c0 .27.07.485.21.644.149.15.345.224.588.224.308 0 .578-.08.812-.238l.658 1.862Zm4.615.434c-.812 0-1.545-.168-2.198-.504a3.847 3.847 0 0 1-1.54-1.4c-.364-.597-.546-1.274-.546-2.03 0-.747.182-1.419.546-2.016a3.775 3.775 0 0 1 1.526-1.386c.653-.336 1.39-.504 2.212-.504.821 0 1.558.168 2.212.504a3.663 3.663 0 0 1 1.526 1.386c.364.588.546 1.26.546 2.016s-.182 1.433-.546 2.03a3.757 3.757 0 0 1-1.526 1.4c-.654.336-1.391.504-2.212.504Zm0-2.114c.466 0 .849-.159 1.148-.476.298-.327.448-.775.448-1.344 0-.56-.15-.999-.448-1.316-.299-.317-.682-.476-1.148-.476-.467 0-.85.159-1.148.476-.299.317-.448.756-.448 1.316 0 .57.149 1.017.448 1.344.298.317.681.476 1.148.476Zm8.05-4.69c.27-.345.62-.602 1.05-.77.438-.177.938-.266 1.498-.266v2.394a5.454 5.454 0 0 0-.602-.042c-.57 0-1.018.154-1.344.462-.318.308-.476.78-.476 1.414V91h-2.66v-7.588h2.534v.91Z" fill="#fff"/><g filter="url(#s)"><rect x="776" y="139" width="345" height="60" rx="10" transform="rotate(90 776 139)" fill="#fff"/></g><path d="m734 172.326 12 3.428v3.92l-12-3.428v-3.92Zm12 3.428 12-3.428v3.92l-12 3.428v-3.92Z" stroke="#A4AFBE" stroke-width="2"/><path d="m734 172 9-2.5m6 0 9 2.5m-15 0v-9m6 9v-9m-6 0-3-1m12 0-3 1m-3-7-6 6m6-6 6 6" stroke="#A4AFBE" stroke-width="2" stroke-linecap="round" stroke-linejoin="round"/><path d="M750.1 200.002H741v7.072h1.703v-5.018h2.015v4.381h1.703v-4.381h1.976v4.875h1.703v-6.929Zm-2.106 7.943-3.419 2.249-3.575-2.418v2.21l2.288 1.534-2.288 1.404v2.301l3.588-2.379 3.406 2.223v-2.184l-2.119-1.365 2.119-1.287v-2.288Zm.065 12.634c0-.949-.39-1.716-1.092-2.21h1.027v-2.002h-9.516v2.002h3.536c-.702.507-1.092 1.274-1.092 2.249 0 1.963 1.417 3.25 3.536 3.25 2.158 0 3.601-1.326 3.601-3.289Zm-5.473-.468c0-1.027.78-1.742 1.937-1.742 1.131 0 1.924.715 1.924 1.742 0 1.027-.806 1.729-1.924 1.729-1.144 0-1.937-.702-1.937-1.729Zm5.473 8.237c0-2.249-1.417-3.757-3.562-3.757-2.132 0-3.575 1.508-3.575 3.757 0 2.236 1.443 3.744 3.575 3.744 2.145 0 3.562-1.508 3.562-3.744Zm-1.664 0c0 1.027-.78 1.742-1.924 1.742s-1.924-.715-1.924-1.742c0-1.04.78-1.755 1.924-1.755s1.924.715 1.924 1.755Zm.338 7.07h1.261v-2.002H741v2.002h3.367c1.183 0 1.95.884 1.82 2.314h1.885c-.013-1.04-.481-1.833-1.339-2.314Zm-3.874 7.319c-.169-.364-.26-.676-.26-.936-.013-.429.221-.676.806-.676h2.886v1.898h1.391v-1.898h1.924v-1.989h-1.924v-.975h-1.378v.975h-3.237c-1.443 0-2.158.949-2.158 2.197 0 .65.182 1.3.481 1.82l1.469-.416Zm5.2 4.574c0-2.132-1.43-3.601-3.588-3.601-2.119 0-3.549 1.417-3.549 3.653 0 1.261.455 2.288 1.235 2.99l1.066-1.053a2.48 2.48 0 0 1-.741-1.768c0-.897.52-1.573 1.404-1.807v5.018c2.548.169 4.173-.975 4.173-3.432Zm-2.99-1.625c.923.156 1.521.754 1.521 1.638 0 .923-.598 1.521-1.521 1.547v-3.185Zm1.664 8.381h1.261v-2.002H741v2.002h3.367c1.183 0 1.95.884 1.82 2.314h1.885c-.013-1.04-.481-1.833-1.339-2.314Zm-.793 7.813 1.365.689c.494-.78.78-1.768.78-2.73 0-1.521-.741-2.756-2.184-2.756-2.457 0-1.859 3.627-2.977 3.627-.377 0-.546-.377-.546-.884 0-.767.312-1.703.871-2.431l-1.352-.65c-.637.793-.975 1.898-.975 3.029 0 1.586.754 2.847 2.184 2.847 2.47.013 1.937-3.679 2.99-3.679.364 0 .52.338.52.806 0 .585-.247 1.365-.676 2.132Z" fill="#A4AFBE"/><rect x="291" y="140" width="343" height="58" rx="9" transform="rotate(90 291 140)" fill="#fff" stroke="#E6EAF3" stroke-width="2"/><path d="m267 408.882-3.003 1.937c-.52-1.105-1.534-1.703-2.938-1.703-2.015 0-3.159 1.352-3.159 3.731v3.952h9.1v-2.054h-2.6v-2.093l2.6-1.443v-2.327Zm-7.397 5.863v-1.898c0-1.131.507-1.781 1.521-1.781 1.04 0 1.56.65 1.56 1.781v1.898h-3.081Zm.338-10.317c0 2.132 1.43 3.601 3.588 3.601 2.119 0 3.549-1.417 3.549-3.653 0-1.261-.455-2.288-1.235-2.99l-1.066 1.053a2.48 2.48 0 0 1 .741 1.768c0 .897-.52 1.573-1.404 1.807v-5.018c-2.548-.169-4.173.975-4.173 3.432Zm2.99 1.625c-.923-.156-1.521-.754-1.521-1.638 0-.923.598-1.521 1.521-1.547v3.185Zm-.546-11.046-.975-1.352c-.936.624-1.469 1.69-1.469 3.029 0 2.145 1.443 3.588 3.588 3.588 2.119 0 3.549-1.443 3.549-3.562 0-1.43-.572-2.522-1.547-3.107l-.936 1.378c.546.351.819.91.819 1.625 0 .975-.767 1.664-1.898 1.664-1.118 0-1.872-.689-1.872-1.664a1.928 1.928 0 0 1 .741-1.599Zm-2.444-5.445c0 2.132 1.43 3.601 3.588 3.601 2.119 0 3.549-1.417 3.549-3.653 0-1.261-.455-2.288-1.235-2.99l-1.066 1.053a2.48 2.48 0 0 1 .741 1.768c0 .897-.52 1.573-1.404 1.807v-5.018c-2.548-.169-4.173.975-4.173 3.432Zm2.99 1.625c-.923-.156-1.521-.754-1.521-1.638 0-.923.598-1.521 1.521-1.547v3.185Zm-5.915-7.38c0 .572.416.975 1.001.975.572 0 1.001-.403 1.001-.975s-.429-.975-1.001-.975c-.585 0-1.001.403-1.001.975Zm2.99 1.001H267v-2.002h-6.994v2.002Zm.013-2.922 6.981-2.652v-2.054l-6.994-2.639v1.989l5.096 1.638-5.096 1.651.013 2.067Zm-.078-10.999c0 2.132 1.43 3.601 3.588 3.601 2.119 0 3.549-1.417 3.549-3.653 0-1.261-.455-2.288-1.235-2.99l-1.066 1.053a2.48 2.48 0 0 1 .741 1.768c0 .897-.52 1.573-1.404 1.807v-5.018c-2.548-.169-4.173.975-4.173 3.432Zm2.99 1.625c-.923-.156-1.521-.754-1.521-1.638 0-.923.598-1.521 1.521-1.547v3.185Zm-1.664-8.381h-1.261v2.002H267v-2.002h-3.367c-1.183 0-1.95-.884-1.82-2.314h-1.885c.013 1.04.481 1.833 1.339 2.314Zm.793-7.813-1.365-.689a5.216 5.216 0 0 0-.78 2.73c0 1.521.741 2.756 2.184 2.756 2.457 0 1.859-3.627 2.977-3.627.377 0 .546.377.546.884 0 .767-.312 1.703-.871 2.431l1.352.65c.637-.793.975-1.898.975-3.029 0-1.586-.754-2.847-2.184-2.847-2.47-.013-1.937 3.679-2.99 3.679-.364 0-.52-.338-.52-.806 0-.585.247-1.365.676-2.132Z" fill="#A4AFBE"/><path d="m250 454.326 12 3.428v3.92l-12-3.428v-3.92Zm12 3.428 12-3.428v3.92l-12 3.428v-3.92Z" stroke="#A4AFBE" stroke-width="2"/><path d="m250 454 9-2.5m6 0 9 2.5m-9-16v9m-6-9v9m6 0 3 1m-12 0 3-1m3 7 6-6m-6 6-6-6" stroke="#A4AFBE" stroke-width="2" stroke-linecap="round" stroke-linejoin="round"/><g filter="url(#t)"><rect x="308" y="434" width="384" height="50" rx="10" fill="#fff"/></g><path d="M491.658 454.9h-3.861v9.1h2.054v-2.6h1.807c2.314 0 3.64-1.222 3.64-3.341 0-2.015-1.326-3.159-3.64-3.159Zm-.104 4.784h-1.703v-3.081h1.703c1.144 0 1.794.507 1.794 1.521 0 1.04-.65 1.56-1.794 1.56Zm7.016-1.417v-1.261h-2.002V464h2.002v-3.367c0-1.183.884-1.95 2.314-1.82v-1.885c-1.04.013-1.833.481-2.314 1.339Zm6.566-1.326c-2.249 0-3.757 1.417-3.757 3.562 0 2.132 1.508 3.575 3.757 3.575 2.236 0 3.744-1.443 3.744-3.575 0-2.145-1.508-3.562-3.744-3.562Zm0 1.664c1.027 0 1.742.78 1.742 1.924s-.715 1.924-1.742 1.924c-1.04 0-1.755-.78-1.755-1.924s.715-1.924 1.755-1.924Zm9.734.78 1.352-.975c-.624-.936-1.69-1.469-3.029-1.469-2.145 0-3.588 1.443-3.588 3.588 0 2.119 1.443 3.549 3.562 3.549 1.43 0 2.522-.572 3.107-1.547l-1.378-.936c-.351.546-.91.819-1.625.819-.975 0-1.664-.767-1.664-1.898 0-1.118.689-1.872 1.664-1.872a1.928 1.928 0 0 1 1.599.741Zm5.446-2.444c-2.132 0-3.601 1.43-3.601 3.588 0 2.119 1.417 3.549 3.653 3.549 1.261 0 2.288-.455 2.99-1.235l-1.053-1.066a2.48 2.48 0 0 1-1.768.741c-.897 0-1.573-.52-1.807-1.404h5.018c.169-2.548-.975-4.173-3.432-4.173Zm-1.625 2.99c.156-.923.754-1.521 1.638-1.521.923 0 1.521.598 1.547 1.521h-3.185Zm10.785-.871.689-1.365a5.216 5.216 0 0 0-2.73-.78c-1.521 0-2.756.741-2.756 2.184 0 2.457 3.627 1.859 3.627 2.977 0 .377-.377.546-.884.546-.767 0-1.703-.312-2.431-.871l-.65 1.352c.793.637 1.898.975 3.029.975 1.586 0 2.847-.754 2.847-2.184.013-2.47-3.679-1.937-3.679-2.99 0-.364.338-.52.806-.52.585 0 1.365.247 2.132.676Zm6.488 0 .689-1.365a5.216 5.216 0 0 0-2.73-.78c-1.521 0-2.756.741-2.756 2.184 0 2.457 3.627 1.859 3.627 2.977 0 .377-.377.546-.884.546-.767 0-1.703-.312-2.431-.871l-.65 1.352c.793.637 1.898.975 3.029.975 1.586 0 2.847-.754 2.847-2.184.013-2.47-3.679-1.937-3.679-2.99 0-.364.338-.52.806-.52.585 0 1.365.247 2.132.676Zm5.239-2.119c-2.249 0-3.757 1.417-3.757 3.562 0 2.132 1.508 3.575 3.757 3.575 2.236 0 3.744-1.443 3.744-3.575 0-2.145-1.508-3.562-3.744-3.562Zm0 1.664c1.027 0 1.742.78 1.742 1.924s-.715 1.924-1.742 1.924c-1.04 0-1.755-.78-1.755-1.924s.715-1.924 1.755-1.924Zm7.07-.338v-1.261h-2.002V464h2.002v-3.367c0-1.183.884-1.95 2.314-1.82v-1.885c-1.04.013-1.833.481-2.314 1.339Zm7.813.793.689-1.365a5.216 5.216 0 0 0-2.73-.78c-1.521 0-2.756.741-2.756 2.184 0 2.457 3.627 1.859 3.627 2.977 0 .377-.377.546-.884.546-.767 0-1.703-.312-2.431-.871l-.65 1.352c.793.637 1.898.975 3.029.975 1.586 0 2.847-.754 2.847-2.184.013-2.47-3.679-1.937-3.679-2.99 0-.364.338-.52.806-.52.585 0 1.365.247 2.132.676Z" fill="#2E3141"/><rect x="448" y="449" width="20" height="20" rx="4" stroke="#2E3141" stroke-width="2" stroke-linecap="round" stroke-linejoin="round"/><rect x="452" y="453" width="12" height="12" rx="2" stroke="#2E3141" stroke-width="2" stroke-linecap="round" stroke-linejoin="round"/><path d="M453 449v-4m0 28v-4m5-20v-4m0 28v-4m5-20v-4m0 28v-4m5-5h4m-28 0h4m20-5h4m-11 0h2.333M453 457h2.333m1.667 7.333V462m-13-3h4m20-5h4m-28 0h4" stroke="#2E3141" stroke-width="2" stroke-linecap="round" stroke-linejoin="round"/><defs><filter id="a" x="721" y="195" width="83.5" height="210.5" filterUnits="userSpaceOnUse" color-interpolation-filters="sRGB"><feFlood flood-opacity="0" result="BackgroundImageFix"/><feBlend in="SourceGraphic" in2="BackgroundImageFix" result="shape"/><feGaussianBlur stdDeviation="1.5" result="effect1_foregroundBlur"/></filter><filter id="b" x="203" y="212" width="600" height="231" filterUnits="userSpaceOnUse" color-interpolation-filters="sRGB"><feFlood flood-opacity="0" result="BackgroundImageFix"/><feBlend in="SourceGraphic" in2="BackgroundImageFix" result="shape"/><feGaussianBlur stdDeviation="1.5" result="effect1_foregroundBlur"/></filter><filter id="c" x="212" y="193" width="591" height="135" filterUnits="userSpaceOnUse" color-interpolation-filters="sRGB"><feFlood flood-opacity="0" result="BackgroundImageFix"/><feBlend in="SourceGraphic" in2="BackgroundImageFix" result="shape"/><feGaussianBlur stdDeviation="1.5" result="effect1_foregroundBlur"/></filter><filter id="d" x="286" y="135" width="428" height="94" filterUnits="userSpaceOnUse" color-interpolation-filters="sRGB"><feFlood flood-opacity="0" result="BackgroundImageFix"/><feColorMatrix in="SourceAlpha" values="0 0 0 0 0 0 0 0 0 0 0 0 0 0 0 0 0 0 127 0"/><feMorphology radius="4" in="SourceAlpha" result="effect1_dropShadow"/><feOffset dy="18"/><feGaussianBlur stdDeviation="13"/><feColorMatrix values="0 0 0 0 0.205927 0 0 0 0 0.32894 0 0 0 0 0.51346 0 0 0 0.18 0"/><feBlend mode="multiply" in2="BackgroundImageFix" result="effect1_dropShadow"/><feBlend in="SourceGraphic" in2="effect1_dropShadow" result="shape"/></filter><filter id="e" x="88" y="135" width="150" height="154" filterUnits="userSpaceOnUse" color-interpolation-filters="sRGB"><feFlood flood-opacity="0" result="BackgroundImageFix"/><feColorMatrix in="SourceAlpha" values="0 0 0 0 0 0 0 0 0 0 0 0 0 0 0 0 0 0 127 0"/><feMorphology radius="4" in="SourceAlpha" result="effect1_dropShadow"/><feOffset dy="18"/><feGaussianBlur stdDeviation="13"/><feColorMatrix values="0 0 0 0 0.205927 0 0 0 0 0.32894 0 0 0 0 0.51346 0 0 0 0.18 0"/><feBlend mode="multiply" in2="BackgroundImageFix" result="effect1_dropShadow"/><feBlend in="SourceGraphic" in2="effect1_dropShadow" result="shape"/></filter><filter id="f" x="777" y="135" width="150" height="154" filterUnits="userSpaceOnUse" color-interpolation-filters="sRGB"><feFlood flood-opacity="0" result="BackgroundImageFix"/><feColorMatrix in="SourceAlpha" values="0 0 0 0 0 0 0 0 0 0 0 0 0 0 0 0 0 0 127 0"/><feMorphology radius="4" in="SourceAlpha" result="effect1_dropShadow"/><feOffset dy="18"/><feGaussianBlur stdDeviation="13"/><feColorMatrix values="0 0 0 0 0.205927 0 0 0 0 0.32894 0 0 0 0 0.51346 0 0 0 0.18 0"/><feBlend mode="multiply" in2="BackgroundImageFix" result="effect1_dropShadow"/><feBlend in="SourceGraphic" in2="effect1_dropShadow" result="shape"/></filter><filter id="g" x="286" y="282" width="428" height="94" filterUnits="userSpaceOnUse" color-interpolation-filters="sRGB"><feFlood flood-opacity="0" result="BackgroundImageFix"/><feColorMatrix in="SourceAlpha" values="0 0 0 0 0 0 0 0 0 0 0 0 0 0 0 0 0 0 127 0"/><feMorphology radius="4" in="SourceAlpha" result="effect1_dropShadow"/><feOffset dy="18"/><feGaussianBlur stdDeviation="13"/><feColorMatrix values="0 0 0 0 0.205927 0 0 0 0 0.32894 0 0 0 0 0.51346 0 0 0 0.18 0"/><feBlend mode="multiply" in2="BackgroundImageFix" result="effect1_dropShadow"/><feBlend in="SourceGraphic" in2="effect1_dropShadow" result="shape"/></filter><filter id="h" x="88" y="253" width="150" height="154" filterUnits="userSpaceOnUse" color-interpolation-filters="sRGB"><feFlood flood-opacity="0" result="BackgroundImageFix"/><feColorMatrix in="SourceAlpha" values="0 0 0 0 0 0 0 0 0 0 0 0 0 0 0 0 0 0 127 0"/><feMorphology radius="4" in="SourceAlpha" result="effect1_dropShadow"/><feOffset dy="18"/><feGaussianBlur stdDeviation="13"/><feColorMatrix values="0 0 0 0 0.205927 0 0 0 0 0.32894 0 0 0 0 0.51346 0 0 0 0.18 0"/><feBlend mode="multiply" in2="BackgroundImageFix" result="effect1_dropShadow"/><feBlend in="SourceGraphic" in2="effect1_dropShadow" result="shape"/></filter><filter id="i" x="777" y="253" width="150" height="154" filterUnits="userSpaceOnUse" color-interpolation-filters="sRGB"><feFlood flood-opacity="0" result="BackgroundImageFix"/><feColorMatrix in="SourceAlpha" values="0 0 0 0 0 0 0 0 0 0 0 0 0 0 0 0 0 0 127 0"/><feMorphology radius="4" in="SourceAlpha" result="effect1_dropShadow"/><feOffset dy="18"/><feGaussianBlur stdDeviation="13"/><feColorMatrix values="0 0 0 0 0.205927 0 0 0 0 0.32894 0 0 0 0 0.51346 0 0 0 0.18 0"/><feBlend mode="multiply" in2="BackgroundImageFix" result="effect1_dropShadow"/><feBlend in="SourceGraphic" in2="effect1_dropShadow" result="shape"/></filter><filter id="j" x="88" y="371" width="150" height="154" filterUnits="userSpaceOnUse" color-interpolation-filters="sRGB"><feFlood flood-opacity="0" result="BackgroundImageFix"/><feColorMatrix in="SourceAlpha" values="0 0 0 0 0 0 0 0 0 0 0 0 0 0 0 0 0 0 127 0"/><feMorphology radius="4" in="SourceAlpha" result="effect1_dropShadow"/><feOffset dy="18"/><feGaussianBlur stdDeviation="13"/><feColorMatrix values="0 0 0 0 0.205927 0 0 0 0 0.32894 0 0 0 0 0.51346 0 0 0 0.18 0"/><feBlend mode="multiply" in2="BackgroundImageFix" result="effect1_dropShadow"/><feBlend in="SourceGraphic" in2="effect1_dropShadow" result="shape"/></filter><filter id="k" x="777" y="371" width="150" height="154" filterUnits="userSpaceOnUse" color-interpolation-filters="sRGB"><feFlood flood-opacity="0" result="BackgroundImageFix"/><feColorMatrix in="SourceAlpha" values="0 0 0 0 0 0 0 0 0 0 0 0 0 0 0 0 0 0 127 0"/><feMorphology radius="4" in="SourceAlpha" result="effect1_dropShadow"/><feOffset dy="18"/><feGaussianBlur stdDeviation="13"/><feColorMatrix values="0 0 0 0 0.205927 0 0 0 0 0.32894 0 0 0 0 0.51346 0 0 0 0.18 0"/><feBlend mode="multiply" in2="BackgroundImageFix" result="effect1_dropShadow"/><feBlend in="SourceGraphic" in2="effect1_dropShadow" result="shape"/></filter><filter id="l" x="286" y="216" width="156" height="94" filterUnits="userSpaceOnUse" color-interpolation-filters="sRGB"><feFlood flood-opacity="0" result="BackgroundImageFix"/><feColorMatrix in="SourceAlpha" values="0 0 0 0 0 0 0 0 0 0 0 0 0 0 0 0 0 0 127 0"/><feMorphology radius="4" in="SourceAlpha" result="effect1_dropShadow"/><feOffset dy="18"/><feGaussianBlur stdDeviation="13"/><feColorMatrix values="0 0 0 0 0.205927 0 0 0 0 0.32894 0 0 0 0 0.51346 0 0 0 0.18 0"/><feBlend mode="multiply" in2="BackgroundImageFix" result="effect1_dropShadow"/><feBlend in="SourceGraphic" in2="effect1_dropShadow" result="shape"/></filter><filter id="m" x="286" y="364" width="156" height="94" filterUnits="userSpaceOnUse" color-interpolation-filters="sRGB"><feFlood flood-opacity="0" result="BackgroundImageFix"/><feColorMatrix in="SourceAlpha" values="0 0 0 0 0 0 0 0 0 0 0 0 0 0 0 0 0 0 127 0"/><feMorphology radius="4" in="SourceAlpha" result="effect1_dropShadow"/><feOffset dy="18"/><feGaussianBlur stdDeviation="13"/><feColorMatrix values="0 0 0 0 0.205927 0 0 0 0 0.32894 0 0 0 0 0.51346 0 0 0 0.18 0"/><feBlend mode="multiply" in2="BackgroundImageFix" result="effect1_dropShadow"/><feBlend in="SourceGraphic" in2="effect1_dropShadow" result="shape"/></filter><filter id="n" x="558" y="216" width="156" height="94" filterUnits="userSpaceOnUse" color-interpolation-filters="sRGB"><feFlood flood-opacity="0" result="BackgroundImageFix"/><feColorMatrix in="SourceAlpha" values="0 0 0 0 0 0 0 0 0 0 0 0 0 0 0 0 0 0 127 0"/><feMorphology radius="4" in="SourceAlpha" result="effect1_dropShadow"/><feOffset dy="18"/><feGaussianBlur stdDeviation="13"/><feColorMatrix values="0 0 0 0 0.205927 0 0 0 0 0.32894 0 0 0 0 0.51346 0 0 0 0.18 0"/><feBlend mode="multiply" in2="BackgroundImageFix" result="effect1_dropShadow"/><feBlend in="SourceGraphic" in2="effect1_dropShadow" result="shape"/></filter><filter id="o" x="558" y="364" width="156" height="94" filterUnits="userSpaceOnUse" color-interpolation-filters="sRGB"><feFlood flood-opacity="0" result="BackgroundImageFix"/><feColorMatrix in="SourceAlpha" values="0 0 0 0 0 0 0 0 0 0 0 0 0 0 0 0 0 0 127 0"/><feMorphology radius="4" in="SourceAlpha" result="effect1_dropShadow"/><feOffset dy="18"/><feGaussianBlur stdDeviation="13"/><feColorMatrix values="0 0 0 0 0.205927 0 0 0 0 0.32894 0 0 0 0 0.51346 0 0 0 0.18 0"/><feBlend mode="multiply" in2="BackgroundImageFix" result="effect1_dropShadow"/><feBlend in="SourceGraphic" in2="effect1_dropShadow" result="shape"/></filter><filter id="p" x="422" y="216" width="156" height="94" filterUnits="userSpaceOnUse" color-interpolation-filters="sRGB"><feFlood flood-opacity="0" result="BackgroundImageFix"/><feColorMatrix in="SourceAlpha" values="0 0 0 0 0 0 0 0 0 0 0 0 0 0 0 0 0 0 127 0"/><feMorphology radius="4" in="SourceAlpha" result="effect1_dropShadow"/><feOffset dy="18"/><feGaussianBlur stdDeviation="13"/><feColorMatrix values="0 0 0 0 0.205927 0 0 0 0 0.32894 0 0 0 0 0.51346 0 0 0 0.18 0"/><feBlend mode="multiply" in2="BackgroundImageFix" result="effect1_dropShadow"/><feBlend in="SourceGraphic" in2="effect1_dropShadow" result="shape"/></filter><filter id="q" x="422" y="364" width="156" height="94" filterUnits="userSpaceOnUse" color-interpolation-filters="sRGB"><feFlood flood-opacity="0" result="BackgroundImageFix"/><feColorMatrix in="SourceAlpha" values="0 0 0 0 0 0 0 0 0 0 0 0 0 0 0 0 0 0 127 0"/><feMorphology radius="4" in="SourceAlpha" result="effect1_dropShadow"/><feOffset dy="18"/><feGaussianBlur stdDeviation="13"/><feColorMatrix values="0 0 0 0 0.205927 0 0 0 0 0.32894 0 0 0 0 0.51346 0 0 0 0.18 0"/><feBlend mode="multiply" in2="BackgroundImageFix" result="effect1_dropShadow"/><feBlend in="SourceGraphic" in2="effect1_dropShadow" result="shape"/></filter><filter id="s" x="694" y="135" width="104" height="389" filterUnits="userSpaceOnUse" color-interpolation-filters="sRGB"><feFlood flood-opacity="0" result="BackgroundImageFix"/><feColorMatrix in="SourceAlpha" values="0 0 0 0 0 0 0 0 0 0 0 0 0 0 0 0 0 0 127 0"/><feMorphology radius="4" in="SourceAlpha" result="effect1_dropShadow"/><feOffset dy="18"/><feGaussianBlur stdDeviation="13"/><feColorMatrix values="0 0 0 0 0.205927 0 0 0 0 0.32894 0 0 0 0 0.51346 0 0 0 0.18 0"/><feBlend mode="multiply" in2="BackgroundImageFix" result="effect1_dropShadow"/><feBlend in="SourceGraphic" in2="effect1_dropShadow" result="shape"/></filter><filter id="t" x="286" y="430" width="428" height="94" filterUnits="userSpaceOnUse" color-interpolation-filters="sRGB"><feFlood flood-opacity="0" result="BackgroundImageFix"/><feColorMatrix in="SourceAlpha" values="0 0 0 0 0 0 0 0 0 0 0 0 0 0 0 0 0 0 127 0"/><feMorphology radius="4" in="SourceAlpha" result="effect1_dropShadow"/><feOffset dy="18"/><feGaussianBlur stdDeviation="13"/><feColorMatrix values="0 0 0 0 0.205927 0 0 0 0 0.32894 0 0 0 0 0.51346 0 0 0 0.18 0"/><feBlend mode="multiply" in2="BackgroundImageFix" result="effect1_dropShadow"/><feBlend in="SourceGraphic" in2="effect1_dropShadow" result="shape"/></filter><linearGradient id="r" x1="60" y1="114.75" x2="110.96" y2="-120.665" gradientUnits="userSpaceOnUse"><stop stop-color="#859DE9"/><stop offset="1" stop-color="#A3BEF9"/></linearGradient></defs></svg>