<svg width="32" height="32" fill="none" xmlns="http://www.w3.org/2000/svg"><rect x="7" y="13" width="18" height="14" rx="3.174" stroke="#002E42" stroke-width="2" stroke-miterlimit="10" stroke-linecap="round" stroke-linejoin="round"/><path d="M14.008 18.527c0 .852-.682 1.527-1.504 1.527A1.516 1.516 0 0 1 11 18.527c0-.852.682-1.527 1.504-1.527s1.504.675 1.504 1.527Zm7.147 0c0 .852-.682 1.527-1.504 1.527a1.516 1.516 0 0 1-1.505-1.527c0-.852.682-1.527 1.505-1.527.822 0 1.504.675 1.504 1.527Z" stroke="#002E42" stroke-width="2" stroke-miterlimit="10" stroke-linecap="round" stroke-linejoin="round"/><path d="M14 23c.835.54 3.005.54 4.006 0" stroke="#002E42" stroke-width="2" stroke-linecap="round"/><rect x="2" y="17" width="5" height="6" rx="2.5" stroke="#002E42" stroke-width="2" stroke-miterlimit="10" stroke-linecap="round" stroke-linejoin="round"/><rect x="25" y="17" width="5" height="6" rx="2.5" stroke="#002E42" stroke-width="2" stroke-miterlimit="10" stroke-linecap="round" stroke-linejoin="round"/><path d="M11.736 6.88c-.5.5-1.209-.065-1.236-.38m0 0c-.027-.315.21-1.21 1-2 .712-.712 1.931-1.17 3.116-1.376.757-.13 1.384.499 1.384 1.267V8.61c0 .767-.623 1.39-1.391 1.39H8.39c-.768 0-1.427-.632-1.278-1.386C7.418 7.068 8.383 6.5 10.5 6.5Z" stroke="#002E42" stroke-width="2" stroke-miterlimit="10" stroke-linecap="round" stroke-linejoin="round"/><path d="m13 4 .5 1" stroke="#002E42" stroke-width="2" stroke-linecap="round"/><path d="M20.264 6.88c.5.5 1.209-.065 1.236-.38m0 0c.027-.315-.21-1.21-1-2-.712-.712-1.931-1.17-3.116-1.376-.757-.13-1.384.499-1.384 1.267V8.61c0 .768.623 1.391 1.391 1.391h6.218c.768 0 1.427-.632 1.278-1.386C24.582 7.068 23.617 6.5 21.5 6.5Z" stroke="#002E42" stroke-width="2" stroke-miterlimit="10" stroke-linecap="round" stroke-linejoin="round"/><path d="m19 4-.5 1" stroke="#002E42" stroke-width="2" stroke-linecap="round"/></svg>