<svg width="32" height="32" fill="none" xmlns="http://www.w3.org/2000/svg"><path d="M8.872 23.524a5.2 5.2 0 0 1-.645.56c-.522.383-1.044.767-1.57 1.143-1.665 1.187-3.703.955-4.896-.563-1.17-1.481-.998-3.464.563-4.792 4.694-3.997 9.431-7.938 14.156-11.898.698-.588 1.45-1.127 2.093-1.77 1.047-1.04 2.253-1.242 3.685-1.199.74.025 1.193.27 1.438.76 1.958 3.892 4.027 7.735 5.747 11.744-1.61-.838-3.207-1.646-5.117-1.634-6.434.03-11.197 3.32-15.454 7.65Z" stroke="#002E42" stroke-width="2" stroke-linecap="round"/><path d="M8.573 23.831c4.327-4.473 9.168-7.925 15.753-7.962 1.903-.012 3.496.79 5.1 1.625a.017.017 0 0 1 .007.024v0a.268.268 0 0 0 .014.168c.07.152.25.227.342.367 1.192 1.812 1.582 3.756.817 5.87-.784 2.173-2.43 2.693-4.272 1.316-3.746-2.79-8.012-2.974-12.406-2.534-1.824.19-3.575.723-5.355 1.127Z" stroke="#002E42" stroke-width="2" stroke-linecap="round"/></svg>