<svg width="32" height="32" fill="none" xmlns="http://www.w3.org/2000/svg"><path d="M13.71 24.657c4.835 1.249 9.131.901 9.597-.776.466-1.676-3.074-4.047-7.908-5.296-4.834-1.248-9.13-.9-9.596.776-.467 1.677 3.074 4.048 7.908 5.296Z" stroke="#002E42" stroke-width="2"/><path d="M23.361 23.884c.002-.017.004-.036.009-.053.082-.44-.07-.886-.086-1.332-.057-1.643.005-4.548.824-7.497 1.241-4.471-1.285-7.717-5.235-8.738s-7.82.57-9.062 5.042c-.89 3.206-2.527 5.928-3.384 7.221-.1.151-.23.282-.342.424a1.281 1.281 0 0 0-.202.354l-.02.022a.003.003 0 0 0 .001.005c.002 0 .003.003.002.005-.005.015-.017.03-.022.045-.466 1.678 3.08 4.055 7.913 5.304 4.833 1.25 9.134.901 9.6-.776.003-.009.003-.017.004-.026Z" stroke="#002E42" stroke-width="2"/><path d="M19 11c.833.167 2.4 1.2 2 4M19.937 3.64l-.523 1.882M14.967 20l-.261.941" stroke="#002E42" stroke-width="2" stroke-linecap="round"/></svg>