<svg width="32" height="32" fill="none" xmlns="http://www.w3.org/2000/svg"><path d="M27.076 10.555c0-.376-.107-.725-.31-1.043-.186-.332-.44-.6-.769-.79-2.262-1.309-4.525-2.615-6.788-3.922-.9-.52-1.79-1.06-2.705-1.55-.658-.352-1.352-.325-2.009.036-.663.365-1.313.756-1.969 1.135-2.474 1.429-4.95 2.854-7.42 4.288-.73.423-1.102 1.071-1.103 1.916C4 14.19 4.003 17.755 4 21.32c0 .421.087.813.29 1.18.146.244.327.459.555.628.356.263.755.455 1.135.68.664.39 1.334.773 2.003 1.155.139.08.27.172.42.234.022.01.037.032.058.045v0c.014.01.032.012.046.022l.03.02c.026.013.05.037.079.046v0l.03.01c.058.033.111.076.172.103.035.015.067.045.1.064v0c.287.165.572.33.858.493.579.332 1.157.663 1.735.997.499.288.995.58 1.494.868.475.275.954.542 1.425.82a2.08 2.08 0 0 0 1.93.143c.493-.203.934-.518 1.4-.78.52-.295 1.034-.598 1.55-.896l1.706-.983c.544-.315 1.087-.631 1.632-.945.442-.256.885-.508 1.327-.763.58-.336 1.158-.674 1.738-1.009.288-.166.586-.32.808-.577.061-.071.126-.14.18-.217.07-.102.12-.215.173-.326v0a2.02 2.02 0 0 0 .203-.886c.002-1.857 0-3.714.001-5.57-.001-1.774 0-3.547-.002-5.32Z" stroke="#002E42" stroke-width="2" stroke-linecap="round"/><path d="M26.345 23.084c-.24-.439-.015-1.132.45-1.386.363-.2.452-.69.083-.879-.431-.221-1.028-.314-1.734.072a2.164 2.164 0 0 0-1.141 1.642c-.059.414-.24.829-.602 1.036l-3.706 2.112a1.035 1.035 0 1 0 1.038 1.791l3.342-1.969c.487-.286 1.208-.143 1.756-.01a2.405 2.405 0 0 0 1.714-.216c.662-.362.943-.937 1.008-1.43.057-.435-.413-.606-.798-.395-.465.255-1.17.07-1.41-.368Z" fill="#fff" stroke="#fff" stroke-width="3" stroke-linecap="round"/><path d="M26.345 23.084c-.24-.439-.015-1.132.45-1.386.363-.2.452-.689.083-.878-.431-.222-1.028-.315-1.734.071a2.164 2.164 0 0 0-1.141 1.643c-.059.413-.24.828-.602 1.035l-3.706 2.112a1.035 1.035 0 1 0 1.038 1.791l3.342-1.969c.487-.286 1.208-.143 1.756-.01a2.4 2.4 0 0 0 1.714-.216c.662-.362.943-.936 1.008-1.43.057-.435-.413-.606-.798-.395-.465.255-1.17.07-1.41-.368Z" fill="#fff" stroke="#002E42" stroke-linecap="round"/><path d="M12.707 21.518c-.025-.01-.05-.016-.074-.028-.167-.081-.336-.159-.5-.247A5.852 5.852 0 0 1 9.82 19.02a6.08 6.08 0 0 1-.706-1.933 6.04 6.04 0 0 1-.113-1.254c.021-.85.2-1.667.573-2.438a5.75 5.75 0 0 1 1.083-1.534 6.159 6.159 0 0 1 2.178-1.427 6.225 6.225 0 0 1 2.569-.428c.713.032 1.4.188 2.057.468a6.12 6.12 0 0 1 2.317 1.751c.187.225.359.46.515.706v0c.019.03.016.067-.013.087-.165.11-.343.201-.515.3a402.882 402.882 0 0 1-1.904 1.087c-.09.059-.2.013-.263-.075v0c-.683-.96-1.618-1.421-2.804-1.325-.785.064-1.465.392-1.974.993-.776.917-.987 1.95-.569 3.088.042.116.087.232.157.336.032.048.06.103.09.151v0c.224.356.507.657.86.887.93.606 1.915.736 2.947.289.563-.244.993-.643 1.324-1.146.036-.055.085-.104.142-.071v0l1.879 1.075.66.375v0c.018.01.013.037.003.054a6.44 6.44 0 0 1-.906 1.186 5.79 5.79 0 0 1-2.845 1.61 6.15 6.15 0 0 1-2.158.125 6.432 6.432 0 0 1-1.697-.439v0Z" stroke="#002E42" stroke-width="2" stroke-linecap="round"/><path d="M21 15v2m-1-1h2m1-1v2m-1-1h2" stroke="#002E42" stroke-linecap="round"/></svg>