<svg version="1.1" id="Layer_1" xmlns="http://www.w3.org/2000/svg" x="0" y="0" viewBox="0 0 32 32" style="enable-background:new 0 0 32 32" xml:space="preserve"><style>.st0{fill:none;stroke:#002e42;stroke-width:2;stroke-linecap:round;stroke-linejoin:round}</style><path class="st0" d="M10.2 20.6v8c0 .5.4 1 1 1h15.2c.5 0 1-.4 1-1v-8"/><circle class="st0" cx="15.1" cy="23.8" r="2.3"/><circle class="st0" cx="22.4" cy="23.8" r="2.3"/><circle class="st0" cx="15" cy="16.6" r="2.3"/><path d="m16.6 8.8 1.8 1.8v.1l-.7.7c-.1.1-.2.2-.2.3h-.1c-.3-.2-.7-.4-1.1-.5-.6-.2-1.1-.2-1.7-.2-.7 0-1.3.2-1.9.5h-.1l-1.1-1.1c-.1-.1-.3-.2-.4-.4v-.1l3.3-3.2h.1l2.1 2.1zM7.5 18.9c-.8-.7-1.6-1.5-2.3-2.2v-.1c.2-.2.5-.4.7-.7 1.2-1.2 2.5-2.3 3.7-3.5h.1l.6.6c-.5 1.1-.6 2.2-.2 3.4v.1c-.9.9-1.8 1.7-2.6 2.4z" style="stroke-miterlimit:10;fill:none;stroke:#002e42;stroke-width:2"/><path d="m6.1 18.2-2.3 2.3m-.8-.8 1.5 1.5" style="stroke-linecap:round;stroke-miterlimit:10;fill:none;stroke:#002e42;stroke-width:2"/><path d="m16.1 2.8 1-.9c.4-.3.9-.3 1.3 0l5 4.8c.4.4.4 1 0 1.4l-1 .9c-.4.3-.9.3-1.3 0l-5-4.8c-.4-.4-.4-1 0-1.4z" style="fill:none;stroke:#002e42;stroke-width:2;stroke-linecap:round;stroke-linejoin:round;stroke-miterlimit:10"/></svg>