<?xml version="1.0" encoding="utf-8"?>
<!-- Generator: Adobe Illustrator 25.0.0, SVG Export Plug-In . SVG Version: 6.00 Build 0)  -->
<svg version="1.1" id="Layer_1" xmlns="http://www.w3.org/2000/svg" xmlns:xlink="http://www.w3.org/1999/xlink" x="0px" y="0px"
	 viewBox="0 0 32 32" style="enable-background:new 0 0 32 32;" xml:space="preserve">
<style type="text/css">
	.st0{fill:none;stroke:#002E42;stroke-width:2;stroke-linecap:round;stroke-linejoin:round;}
	.st1{fill:none;stroke:#002E42;stroke-width:2;stroke-miterlimit:10;}
	.st2{fill:none;stroke:#002E42;stroke-width:2;stroke-linecap:round;stroke-miterlimit:10;}
	.st3{fill:none;stroke:#002E42;stroke-width:2;stroke-linecap:round;stroke-linejoin:round;stroke-miterlimit:10;}
</style>
<g>
	<path class="st0" d="M10.2,20.6v8c0,0.5,0.4,1,1,1h15.2c0.5,0,1-0.4,1-1v-8"/>
	<circle class="st0" cx="15.1" cy="23.8" r="2.3"/>
	<circle class="st0" cx="22.4" cy="23.8" r="2.3"/>
	<circle class="st0" cx="15" cy="16.6" r="2.3"/>
	<path class="st1" d="M16.6,8.8L16.6,8.8l1.8,1.8c0,0,0,0.1,0,0.1c-0.3,0.3-0.5,0.5-0.7,0.7l0,0c-0.1,0.1-0.2,0.2-0.2,0.3
		c0,0-0.1,0-0.1,0c-0.3-0.2-0.7-0.4-1.1-0.5C15.7,11,15.2,11,14.6,11l0,0c-0.7,0-1.3,0.2-1.9,0.5c0,0-0.1,0-0.1,0
		c-0.4-0.4-0.7-0.7-1.1-1.1c-0.1-0.1-0.3-0.2-0.4-0.4c0,0,0-0.1,0-0.1l3.3-3.2c0,0,0.1,0,0.1,0C15.2,7.4,15.9,8.1,16.6,8.8z"/>
	<path class="st1" d="M7.5,18.9c-0.8-0.7-1.6-1.5-2.3-2.2c0,0,0-0.1,0-0.1c0.2-0.2,0.5-0.4,0.7-0.7c1.2-1.2,2.5-2.3,3.7-3.5
		c0,0,0.1,0,0.1,0c0.2,0.2,0.4,0.4,0.6,0.6c0,0,0,0,0,0l0,0c0,0,0,0,0,0c-0.5,1.1-0.6,2.2-0.2,3.4c0,0,0,0.1,0,0.1
		C9.2,17.4,8.3,18.2,7.5,18.9C7.5,18.9,7.5,18.9,7.5,18.9z"/>
	<path class="st2" d="M6.1,18.2l-2.3,2.3"/>
	<path class="st2" d="M3,19.7l1.5,1.5"/>
	<path class="st3" d="M16.1,2.8l1-0.9c0.4-0.3,0.9-0.3,1.3,0l5,4.8c0.4,0.4,0.4,1,0,1.4l-1,0.9c-0.4,0.3-0.9,0.3-1.3,0l-5-4.8
		C15.7,3.8,15.7,3.2,16.1,2.8z"/>
</g>
</svg>
