<?xml version="1.0" encoding="UTF-8"?>
<svg xmlns="http://www.w3.org/2000/svg" xmlns:xlink="http://www.w3.org/1999/xlink" width="32px" height="32px" viewBox="0 0 32 32" version="1.1">
<g id="surface1">
<path style=" stroke:none;fill-rule:nonzero;fill:rgb(0%,18.039216%,25.882354%);fill-opacity:1;" d="M 1.867188 5.761719 C 1.726562 5.792969 1.523438 5.871094 1.417969 5.9375 C 1.136719 6.101562 0.804688 6.480469 0.6875 6.78125 L 0.585938 7.03125 L 0.585938 21.144531 L 0.6875 21.394531 C 0.832031 21.75 1.160156 22.097656 1.519531 22.269531 L 1.8125 22.414062 L 12.246094 22.414062 L 12.519531 22.289062 C 12.871094 22.125 13.21875 21.761719 13.363281 21.402344 C 13.460938 21.167969 13.46875 21.066406 13.484375 20.28125 C 13.503906 19.472656 13.496094 19.398438 13.410156 19.226562 C 13.25 18.890625 12.871094 18.78125 12.570312 18.988281 C 12.328125 19.148438 12.3125 19.234375 12.296875 20.132812 C 12.289062 20.878906 12.28125 20.953125 12.195312 21.066406 C 12.148438 21.132812 12.058594 21.214844 12 21.242188 C 11.917969 21.285156 10.789062 21.296875 6.992188 21.296875 L 2.097656 21.296875 L 1.929688 21.148438 L 1.769531 21 L 1.769531 14.121094 C 1.769531 7.320312 1.769531 7.25 1.855469 7.128906 C 2.050781 6.867188 1.917969 6.875 5.464844 6.875 L 8.710938 6.875 L 8.726562 8.117188 L 8.738281 9.359375 L 8.878906 9.640625 C 9.132812 10.15625 9.574219 10.5 10.113281 10.601562 C 10.242188 10.625 10.78125 10.644531 11.308594 10.644531 L 12.265625 10.644531 L 12.265625 12.867188 C 12.265625 14.347656 12.285156 15.152344 12.316406 15.265625 C 12.453125 15.761719 13.078125 15.871094 13.378906 15.453125 C 13.472656 15.332031 13.472656 15.292969 13.472656 12.472656 L 13.472656 9.617188 L 13.355469 9.371094 C 13.253906 9.171875 12.933594 8.832031 11.601562 7.507812 C 10.589844 6.503906 9.898438 5.855469 9.789062 5.800781 C 9.621094 5.71875 9.492188 5.714844 5.867188 5.707031 C 2.753906 5.703125 2.074219 5.710938 1.867188 5.761719 Z M 11.039062 9.367188 C 10.339844 9.378906 10.183594 9.335938 10.03125 9.089844 C 9.953125 8.964844 9.945312 8.875 9.945312 8.304688 L 9.945312 7.65625 L 10.804688 8.507812 L 11.65625 9.351562 Z M 11.039062 9.367188 "/>
<path style=" stroke:none;fill-rule:nonzero;fill:rgb(0%,18.039216%,25.882354%);fill-opacity:1;" d="M 3.546875 10.132812 C 3.492188 10.160156 3.398438 10.242188 3.351562 10.308594 C 3.257812 10.429688 3.257812 10.449219 3.246094 14.375 C 3.234375 18.726562 3.222656 18.535156 3.507812 18.710938 C 3.808594 18.890625 4.230469 18.773438 4.359375 18.472656 C 4.453125 18.246094 4.453125 10.628906 4.359375 10.40625 C 4.242188 10.128906 3.828125 9.988281 3.546875 10.132812 Z M 3.546875 10.132812 "/>
<path style=" stroke:none;fill-rule:nonzero;fill:rgb(0%,18.039216%,25.882354%);fill-opacity:1;" d="M 6.28125 10.121094 C 6.230469 10.136719 6.132812 10.214844 6.074219 10.296875 L 5.953125 10.4375 L 5.953125 18.390625 L 6.054688 18.539062 C 6.179688 18.726562 6.320312 18.800781 6.546875 18.796875 C 6.753906 18.796875 6.875 18.734375 7.003906 18.570312 L 7.097656 18.453125 L 7.09375 14.484375 C 7.09375 12.246094 7.078125 10.472656 7.054688 10.414062 C 6.984375 10.226562 6.757812 10.078125 6.554688 10.082031 C 6.453125 10.082031 6.332031 10.097656 6.28125 10.121094 Z M 6.28125 10.121094 "/>
<path style=" stroke:none;fill-rule:nonzero;fill:rgb(0%,18.039216%,25.882354%);fill-opacity:1;" d="M 20.179688 10.273438 C 19.789062 10.375 19.347656 10.738281 19.15625 11.117188 C 18.964844 11.488281 18.96875 11.433594 18.984375 18.691406 L 18.996094 25.617188 L 19.085938 25.84375 C 19.277344 26.300781 19.621094 26.65625 20.0625 26.828125 L 20.3125 26.929688 L 25.15625 26.929688 C 27.820312 26.933594 30.117188 26.917969 30.261719 26.894531 C 30.867188 26.808594 31.367188 26.398438 31.582031 25.8125 C 31.644531 25.632812 31.652344 25.097656 31.640625 19.785156 C 31.636719 14.082031 31.632812 13.953125 31.550781 13.757812 C 31.429688 13.488281 28.371094 10.421875 28.113281 10.3125 C 27.957031 10.246094 27.597656 10.238281 24.152344 10.234375 C 21.628906 10.230469 20.296875 10.246094 20.179688 10.273438 Z M 27.082031 12.464844 C 27.082031 13.441406 27.09375 13.558594 27.175781 13.78125 C 27.296875 14.105469 27.496094 14.359375 27.785156 14.554688 C 28.160156 14.816406 28.398438 14.855469 29.523438 14.855469 L 30.503906 14.855469 L 30.492188 20.160156 L 30.480469 25.460938 L 30.335938 25.601562 L 30.195312 25.746094 L 25.382812 25.761719 C 21.828125 25.769531 20.542969 25.757812 20.449219 25.722656 C 20.386719 25.691406 20.289062 25.621094 20.246094 25.558594 C 20.15625 25.453125 20.15625 25.34375 20.15625 18.59375 C 20.15625 12.308594 20.160156 11.730469 20.226562 11.628906 C 20.390625 11.386719 20.261719 11.394531 23.808594 11.390625 L 27.082031 11.390625 Z M 29.234375 13.617188 C 28.320312 13.636719 28.222656 13.539062 28.222656 12.597656 L 28.222656 12.03125 L 29.023438 12.816406 L 29.824219 13.605469 Z M 29.234375 13.617188 "/>
<path style=" stroke:none;fill-rule:nonzero;fill:rgb(0%,18.039216%,25.882354%);fill-opacity:1;" d="M 22.058594 15.878906 C 21.847656 15.972656 21.734375 16.148438 21.734375 16.382812 C 21.734375 16.636719 21.804688 16.773438 21.992188 16.902344 L 22.144531 17.003906 L 25.085938 17.003906 C 27.957031 17.003906 28.03125 16.996094 28.171875 16.914062 C 28.421875 16.761719 28.515625 16.375 28.367188 16.125 C 28.328125 16.058594 28.222656 15.960938 28.136719 15.910156 C 27.972656 15.820312 27.933594 15.820312 25.085938 15.820312 C 22.765625 15.824219 22.167969 15.832031 22.058594 15.878906 Z M 22.058594 15.878906 "/>
<path style=" stroke:none;fill-rule:nonzero;fill:rgb(0%,18.039216%,25.882354%);fill-opacity:1;" d="M 22.054688 18.777344 C 21.628906 18.960938 21.640625 19.652344 22.0625 19.832031 C 22.289062 19.925781 27.890625 19.925781 28.113281 19.832031 C 28.511719 19.667969 28.550781 19.097656 28.1875 18.820312 C 28.074219 18.738281 27.996094 18.734375 25.132812 18.726562 C 22.683594 18.714844 22.171875 18.726562 22.054688 18.777344 Z M 22.054688 18.777344 "/>
<path style=" stroke:none;fill-rule:nonzero;fill:rgb(0%,18.039216%,25.882354%);fill-opacity:1;" d="M 22.058594 21.621094 C 21.742188 21.761719 21.632812 22.160156 21.824219 22.472656 C 21.988281 22.746094 21.988281 22.746094 24.367188 22.746094 C 26.648438 22.746094 26.699219 22.738281 26.878906 22.535156 C 26.925781 22.484375 26.976562 22.367188 27 22.277344 C 27.03125 22.140625 27.015625 22.074219 26.9375 21.910156 C 26.761719 21.550781 26.84375 21.5625 24.367188 21.5625 C 22.648438 21.566406 22.167969 21.578125 22.058594 21.621094 Z M 22.058594 21.621094 "/>
<path style=" stroke:none;fill-rule:nonzero;fill:rgb(0%,18.039216%,25.882354%);fill-opacity:1;" d="M 8.992188 12.625 C 8.65625 12.789062 8.667969 12.652344 8.679688 15.753906 L 8.695312 18.5 L 8.855469 18.652344 C 8.996094 18.777344 9.054688 18.800781 9.230469 18.800781 C 9.460938 18.800781 9.683594 18.691406 9.769531 18.535156 C 9.808594 18.464844 9.816406 17.6875 9.8125 15.699219 C 9.808594 12.632812 9.824219 12.785156 9.492188 12.625 C 9.253906 12.507812 9.21875 12.507812 8.992188 12.625 Z M 8.992188 12.625 "/>
<path style=" stroke:none;fill-rule:nonzero;fill:rgb(0%,18.039216%,25.882354%);fill-opacity:1;" d="M 15.65625 14.945312 C 15.46875 15.003906 15.292969 15.21875 15.292969 15.402344 C 15.292969 15.660156 15.375 15.789062 15.851562 16.265625 L 16.320312 16.738281 L 13.78125 16.738281 C 11.308594 16.738281 11.234375 16.742188 11.09375 16.828125 C 10.777344 17.019531 10.738281 17.480469 11.011719 17.734375 L 11.171875 17.878906 L 13.78125 17.878906 C 15.210938 17.878906 16.386719 17.890625 16.386719 17.910156 C 16.386719 17.925781 16.140625 18.191406 15.839844 18.492188 C 15.296875 19.046875 15.292969 19.050781 15.292969 19.253906 C 15.292969 19.371094 15.324219 19.519531 15.359375 19.585938 C 15.472656 19.808594 15.828125 19.914062 16.113281 19.804688 C 16.25 19.75 18.160156 17.875 18.253906 17.695312 C 18.289062 17.628906 18.316406 17.460938 18.316406 17.324219 L 18.316406 17.066406 L 17.300781 16.074219 C 16.359375 15.15625 16.03125 14.890625 15.855469 14.902344 C 15.820312 14.902344 15.734375 14.925781 15.65625 14.945312 Z M 15.65625 14.945312 "/>
</g>
</svg>
