<svg width="33" height="32" fill="none" xmlns="http://www.w3.org/2000/svg"><path d="M27.998 10.555a1.86 1.86 0 0 0-.323-1.043 2.094 2.094 0 0 0-.799-.79c-2.352-1.309-4.706-2.615-7.06-3.922-.936-.52-1.86-1.06-2.812-1.55-.685-.352-1.406-.325-2.09.036-.69.365-1.365.756-2.047 1.135C10.293 5.85 7.72 7.275 5.15 8.709c-.759.423-1.146 1.071-1.147 1.916C4 14.19 4.003 17.755 4 21.32c0 .421.09.813.302 1.18.152.244.34.459.577.628.37.263.785.455 1.18.68.69.39 1.387.773 2.083 1.155.145.08.281.172.436.234.024.01.04.033.061.046v0c.015.008.034.011.047.02.01.008.021.015.033.02.027.014.052.038.081.047v0c.01.004.022.005.031.01.061.033.117.076.18.103.037.015.07.045.104.064v0c.297.165.595.33.892.493.601.332 1.203.663 1.804.997.518.288 1.035.58 1.554.868.493.275.991.542 1.482.82a2.24 2.24 0 0 0 2.006.143c.513-.203.972-.518 1.456-.78.54-.295 1.076-.598 1.613-.896l1.774-.983c.565-.315 1.13-.631 1.696-.945.46-.256.921-.508 1.38-.763.604-.336 1.205-.674 1.808-1.009.3-.166.61-.32.84-.577.064-.071.131-.14.187-.217.072-.101.125-.215.181-.326v0c.141-.28.21-.577.21-.886.002-1.857.002-3.714.002-5.57-.001-1.774 0-3.547-.002-5.32Z" stroke="#002E42" stroke-width="2" stroke-linecap="round"/><path d="M13.707 21.518c-.025-.01-.05-.016-.074-.028-.167-.081-.336-.159-.5-.247a5.852 5.852 0 0 1-2.313-2.223 6.08 6.08 0 0 1-.706-1.933 6.038 6.038 0 0 1-.113-1.254c.021-.85.2-1.667.573-2.438a5.75 5.75 0 0 1 1.083-1.534 6.159 6.159 0 0 1 2.178-1.427 6.225 6.225 0 0 1 2.569-.428c.713.032 1.4.188 2.057.468a6.12 6.12 0 0 1 2.317 1.751c.187.225.359.46.515.706v0c.019.03.016.067-.013.087-.165.11-.343.201-.515.3a402.882 402.882 0 0 1-1.904 1.087c-.09.059-.2.013-.263-.075v0c-.683-.96-1.618-1.421-2.804-1.325-.785.064-1.465.392-1.974.993-.776.917-.987 1.95-.569 3.088.042.116.087.232.157.336.032.048.06.103.09.151v0c.224.356.507.657.86.887.93.606 1.915.736 2.947.289.563-.244.993-.643 1.324-1.146.036-.055.085-.104.142-.071v0l1.879 1.075.66.375v0c.018.01.013.037.003.054a6.44 6.44 0 0 1-.906 1.186 5.79 5.79 0 0 1-2.845 1.61 6.15 6.15 0 0 1-2.158.125 6.432 6.432 0 0 1-1.697-.439v0Z" stroke="#002E42" stroke-width="2" stroke-linecap="round"/><path d="M23.036 14.912c.08 0 .162-.003.242 0 .05.003.068-.018.073-.07.023-.253.051-.506.072-.76.005-.06.02-.083.079-.082.134.004.27.004.404 0 .057-.001.072.018.066.077-.027.25-.047.501-.075.751-.008.07.011.088.074.086.114-.005.228 0 .342-.003.05-.001.068.015.067.07-.003.14-.003.281 0 .421.001.056-.018.071-.067.07-.135-.003-.27.001-.404-.002-.059-.002-.077.02-.082.08-.018.216-.04.432-.064.647-.007.062.006.086.068.083.11-.005.222 0 .333-.002.049-.001.069.014.067.07-.003.14-.003.28 0 .421.001.056-.018.072-.068.07-.126-.001-.252.004-.377-.001-.067-.004-.089.022-.094.09-.023.27-.053.539-.075.809-.006.076-.027.106-.102.102a4.434 4.434 0 0 0-.377 0c-.071.003-.091-.015-.082-.097.034-.271.056-.545.085-.817.007-.066-.01-.089-.075-.087-.15.005-.3.005-.45 0-.063 0-.088.017-.093.09-.022.273-.051.545-.075.818-.005.065-.023.097-.092.094a5.425 5.425 0 0 0-.395 0c-.065.002-.083-.02-.075-.088.03-.266.056-.532.084-.798.012-.114.012-.114-.099-.114-.102 0-.203-.002-.305.001-.052.002-.067-.018-.066-.072.003-.14.003-.28 0-.42-.001-.056.016-.072.067-.07.128.003.257-.003.386.002.064.002.089-.018.094-.09.017-.212.038-.424.063-.636.007-.064-.006-.087-.068-.084-.105.004-.21-.001-.315.002-.054.002-.08-.01-.078-.079a6.795 6.795 0 0 0 0-.41c0-.055.017-.073.068-.072.125.003.251-.003.377.003.062.002.083-.02.089-.083.023-.25.051-.501.073-.752.005-.061.023-.08.08-.079.135.004.27.004.405 0 .058-.001.071.019.065.078-.027.25-.047.5-.077.75-.008.073.012.089.074.085.077-.005.155-.002.233-.002Zm-.06.56-.251-.001c-.033 0-.058.002-.062.047-.022.235-.045.47-.069.704-.004.04.008.058.049.058.17-.002.34 0 .511-.001.029 0 .053-.003.056-.044l.07-.703c.006-.046-.009-.063-.053-.062-.083.003-.167.001-.251.001Z" fill="#002E42"/><path d="M27.345 23.084c-.24-.439-.015-1.132.45-1.386.363-.2.452-.69.083-.879-.431-.221-1.028-.314-1.734.072a2.164 2.164 0 0 0-1.141 1.642c-.059.414-.24.829-.602 1.036l-3.706 2.112a1.035 1.035 0 1 0 1.038 1.791l3.342-1.969c.487-.286 1.208-.143 1.756-.01a2.405 2.405 0 0 0 1.714-.216c.662-.362.943-.937 1.008-1.43.057-.435-.413-.606-.798-.395-.465.255-1.17.07-1.41-.368Z" fill="#fff" stroke="#fff" stroke-width="3" stroke-linecap="round"/><path d="M27.345 23.084c-.24-.439-.015-1.132.45-1.386.363-.2.452-.689.083-.878-.431-.222-1.028-.315-1.734.071a2.164 2.164 0 0 0-1.141 1.642c-.059.414-.24.83-.602 1.036l-3.706 2.112a1.035 1.035 0 1 0 1.038 1.791l3.342-1.969c.487-.286 1.208-.143 1.756-.01a2.405 2.405 0 0 0 1.714-.216c.662-.362.943-.936 1.008-1.43.057-.435-.413-.606-.798-.395-.465.255-1.17.07-1.41-.368Z" fill="#fff" stroke="#002E42" stroke-linecap="round"/></svg>