<?xml version="1.0" encoding="utf-8"?>
<!-- Generator: Adobe Illustrator 25.0.0, SVG Export Plug-In . SVG Version: 6.00 Build 0)  -->
<svg version="1.1" id="Layer_1" xmlns="http://www.w3.org/2000/svg" xmlns:xlink="http://www.w3.org/1999/xlink" x="0px" y="0px"
	 viewBox="0 0 32 32" style="enable-background:new 0 0 32 32;" xml:space="preserve">
<style type="text/css">
	.st0{fill:none;stroke:#002E42;stroke-width:2;}
	.st1{fill:#002E42;}
</style>
<path class="st0" d="M6.2,20.3h19.5c1.8,0,3.2,1.5,3.2,3.2v2.2c0,1.8-1.5,3.2-3.2,3.2H6.2C4.5,29,3,27.5,3,25.8v-2.2
	C3,21.8,4.5,20.3,6.2,20.3z"/>
<path class="st0" d="M6.2,3h19.5C27.5,3,29,4.5,29,6.2v2.2c0,1.8-1.5,3.2-3.2,3.2H6.2C4.5,11.7,3,10.2,3,8.4V6.2C3,4.5,4.5,3,6.2,3z
	"/>
<path class="st0" d="M6.2,11.7h19.5c1.8,0,3.2,1.5,3.2,3.2v2.2c0,1.8-1.5,3.2-3.2,3.2H6.2c-1.8,0-3.2-1.5-3.2-3.2v-2.2
	C3,13.1,4.5,11.7,6.2,11.7z"/>
<circle class="st1" cx="25.1" cy="7.4" r="1.1"/>
<circle class="st1" cx="25.1" cy="16" r="1.1"/>
<circle class="st1" cx="25.1" cy="24.7" r="1.1"/>
</svg>
