<svg version="1.1" id="Layer_1" xmlns="http://www.w3.org/2000/svg" x="0" y="0" viewBox="0 0 32 32" style="enable-background:new 0 0 32 32" xml:space="preserve"><style>.st1{fill:#002e42}</style><path d="M3 9h26c1.1 0 2 .9 2 2v10c0 1.1-.9 2-2 2H3c-1.1 0-2-.9-2-2V11c0-1.1.9-2 2-2z" style="fill:none;stroke:#002e42;stroke-width:2;stroke-linecap:round"/><path class="st1" d="M20.5 20c-.1 0-.2 0-.3-.1-.2 0-.4-.1-.6-.2 0 0-.1 0-.1-.1v-1.1c.2.1.3.1.5.2.4.1.8.2 1.2.1.5-.1.8-.4.9-.9v-.2s-.1 0-.2.1c-.7.2-1.4.1-2-.5-.3-.3-.4-.6-.4-1 0-.5 0-.9.2-1.4.3-.5.7-.8 1.2-1 .5-.2 1.1-.2 1.6-.2s.9.1 1.3.2h.1c-.1.3-.3.6-.4.9h-.1c-.2 0-.2 0-.2.2v2.9c0 .5-.2 1-.5 1.4-.3.3-.7.5-1.2.6-.1 0-.2 0-.3.1h-.7zm1.6-4.1V15c0-.1 0-.1-.1-.1h-.4c-.4.1-.7.3-.8.7-.1.3-.1.6 0 .8.1.3.3.5.6.5h.6c.1 0 .1 0 .1-.1v-.9zM9 12s0 .1 0 0v5.7c0 .1 0 .1-.1.1-.6.1-1.2.2-1.7.2-.4 0-.8-.1-1.1-.2-.6-.3-.9-.7-1-1.3v-.9c.1-.6.4-1.1.9-1.4.5-.3 1.1-.3 1.7-.2 0 0 .1 0 .1-.1v-1.8c.3-.1.7-.1 1.2-.1zm-1.3 3.9V15c0-.1 0-.1-.1-.1h-.4c-.4 0-.7.2-.8.5-.1.3-.1.5-.1.8.1.4.3.6.6.7.2.1.5 0 .7 0 .1 0 .1 0 .1-.1v-.9zm20.3.3c-.1.1 0 .2-.1.3-.2.8-.9 1.4-1.7 1.5-.4 0-.7 0-1.1-.1-.6-.2-.9-.6-1.1-1.1-.2-.6-.2-1.2 0-1.7.3-.7.8-1.1 1.5-1.2.4-.1.8 0 1.1.1.7.2 1.1.7 1.3 1.5v.2c.1.1.1.3.1.5zm-2.8-.3v.3c0 .1 0 .2.1.2.1.3.4.5.7.5.3 0 .5-.2.7-.4.1-.1.1-.3.1-.5 0-.3 0-.6-.1-.9-.1-.2-.3-.4-.6-.4s-.5.1-.6.4c-.3.3-.3.6-.3.8zm-9.8.1v-1.8c0-.1 0-.1.1-.1.6-.2 1.3-.3 1.9-.3.3 0 .6 0 .9.2.5.2.7.6.8 1.1v2.7c0 .1 0 .1-.1.1h-1.1c-.1 0-.1 0-.1-.1v-2.5c0-.3-.2-.4-.5-.4-.2 0-.4 0-.5.1-.1 0-.1 0-.1.1v2.8c0 .1 0 .1-.1.1h-1.1c-.1 0-.1 0-.1-.1V16zm-3.7-.8v-.9c0-.1 0-.1.1-.1.4-.2.9-.3 1.4-.3.3 0 .6 0 .9.1.4.1.6.4.6.8v3c0 .1 0 .1-.1.1-.6.1-1.2.1-1.8.1-.2 0-.5 0-.7-.1-.5-.1-.8-.5-.8-1 0-.4.1-.7.4-1 .2-.2.4-.3.7-.3.3-.1.7-.1 1-.2.1 0 .1 0 .1-.1v-.2c0-.2-.1-.3-.3-.3-.4 0-.7 0-1 .1-.1.1-.3.2-.5.3zm2 1.4v-.2c0-.2 0-.2-.2-.2s-.5.1-.7.2c-.2.1-.2.2-.2.4 0 .1.1.2.3.3h.7c.1 0 .1 0 .1-.1v-.4z"/><path class="st1" d="M8.5 19.1c.1-.1.2-.1.3-.2.5-.3.7-.7.8-1.3 0-.4.1-.7.1-1.1V14c0-.1 0-.1.1-.1h1.1c.1 0 .1 0 .1.1v2.8c0 .4 0 .8-.1 1.3-.1.7-.5 1.2-1.1 1.5-.1 0-.2.1-.3 0-.3-.2-.7-.3-1-.5z"/><circle class="st1" cx="10.3" cy="12.9" r=".6"/></svg>