<?xml version="1.0" encoding="utf-8"?>
<!-- Generator: Adobe Illustrator 25.0.0, SVG Export Plug-In . SVG Version: 6.00 Build 0)  -->
<svg version="1.1" id="Layer_1" xmlns="http://www.w3.org/2000/svg" xmlns:xlink="http://www.w3.org/1999/xlink" x="0px" y="0px"
	 viewBox="0 0 32 32" style="enable-background:new 0 0 32 32;" xml:space="preserve">
<style type="text/css">
	.st0{fill:none;stroke:#002E42;stroke-width:2;stroke-linecap:round;}
	.st1{fill:#002E42;}
</style>
<path class="st0" d="M3,9h26c1.1,0,2,0.9,2,2v10c0,1.1-0.9,2-2,2H3c-1.1,0-2-0.9-2-2V11C1,9.9,1.9,9,3,9z"/>
<path class="st1" d="M20.5,20c-0.1,0-0.2,0-0.3-0.1c-0.2,0-0.4-0.1-0.6-0.2c0,0-0.1,0-0.1-0.1c0-0.4,0-0.7,0-1.1
	c0.2,0.1,0.3,0.1,0.5,0.2c0.4,0.1,0.8,0.2,1.2,0.1c0.5-0.1,0.8-0.4,0.9-0.9c0-0.1,0-0.2,0-0.2c0,0-0.1,0-0.2,0.1
	c-0.7,0.2-1.4,0.1-2-0.5c-0.3-0.3-0.4-0.6-0.4-1c0-0.5,0-0.9,0.2-1.4c0.3-0.5,0.7-0.8,1.2-1c0.5-0.2,1.1-0.2,1.6-0.2
	c0.5,0,0.9,0.1,1.3,0.2c0,0,0,0,0.1,0c-0.1,0.3-0.3,0.6-0.4,0.9c0,0,0,0-0.1,0c-0.2,0-0.2,0-0.2,0.2c0,0.5,0,0.9,0,1.4
	c0,0.5,0,1,0,1.5c0,0.5-0.2,1-0.5,1.4c-0.3,0.3-0.7,0.5-1.2,0.6c-0.1,0-0.2,0-0.3,0.1C21,20,20.8,20,20.5,20z M22.1,15.9
	C22.1,15.9,22.1,15.9,22.1,15.9c0-0.3,0-0.6,0-0.9c0-0.1,0-0.1-0.1-0.1c-0.1,0-0.3,0-0.4,0c-0.4,0.1-0.7,0.3-0.8,0.7
	c-0.1,0.3-0.1,0.6,0,0.8c0.1,0.3,0.3,0.5,0.6,0.5c0.2,0,0.4,0,0.6,0c0.1,0,0.1,0,0.1-0.1C22.1,16.5,22.1,16.2,22.1,15.9z"/>
<path class="st1" d="M9,12C9,12,9,12.1,9,12c0,2,0,3.8,0,5.7c0,0.1,0,0.1-0.1,0.1C8.3,17.9,7.7,18,7.2,18c-0.4,0-0.8-0.1-1.1-0.2
	c-0.6-0.3-0.9-0.7-1-1.3c0,0,0-0.1,0-0.1c0-0.2,0-0.4,0-0.7c0,0,0-0.1,0-0.1c0.1-0.6,0.4-1.1,0.9-1.4c0.5-0.3,1.1-0.3,1.7-0.2
	c0,0,0.1,0,0.1-0.1c0-0.6,0-1.2,0-1.8C8.1,12,8.5,12,9,12z M7.7,15.9c0-0.3,0-0.6,0-0.9c0-0.1,0-0.1-0.1-0.1c-0.1,0-0.3,0-0.4,0
	c-0.4,0-0.7,0.2-0.8,0.5c-0.1,0.3-0.1,0.5-0.1,0.8c0.1,0.4,0.3,0.6,0.6,0.7c0.2,0.1,0.5,0,0.7,0c0.1,0,0.1,0,0.1-0.1
	C7.7,16.5,7.7,16.2,7.7,15.9z"/>
<path class="st1" d="M28,16.2c-0.1,0.1,0,0.2-0.1,0.3c-0.2,0.8-0.9,1.4-1.7,1.5c-0.4,0-0.7,0-1.1-0.1c-0.6-0.2-0.9-0.6-1.1-1.1
	c-0.2-0.6-0.2-1.2,0-1.7c0.3-0.7,0.8-1.1,1.5-1.2c0.4-0.1,0.8,0,1.1,0.1c0.7,0.2,1.1,0.7,1.3,1.5c0,0.1,0,0.1,0,0.2
	C28,15.8,28,16,28,16.2z M25.2,15.9c0,0.1,0,0.2,0,0.3c0,0.1,0,0.2,0.1,0.2c0.1,0.3,0.4,0.5,0.7,0.5c0.3,0,0.5-0.2,0.7-0.4
	c0.1-0.1,0.1-0.3,0.1-0.5c0-0.3,0-0.6-0.1-0.9c-0.1-0.2-0.3-0.4-0.6-0.4c-0.3,0-0.5,0.1-0.6,0.4C25.2,15.4,25.2,15.7,25.2,15.9z"/>
<path class="st1" d="M15.4,16c0-0.6,0-1.2,0-1.8c0-0.1,0-0.1,0.1-0.1c0.6-0.2,1.3-0.3,1.9-0.3c0.3,0,0.6,0,0.9,0.2
	c0.5,0.2,0.7,0.6,0.8,1.1c0,0.7,0,1.4,0,2.1c0,0.2,0,0.4,0,0.6c0,0.1,0,0.1-0.1,0.1c-0.4,0-0.7,0-1.1,0c-0.1,0-0.1,0-0.1-0.1
	c0-0.7,0-1.5,0-2.2c0-0.1,0-0.2,0-0.3c0-0.3-0.2-0.4-0.5-0.4c-0.2,0-0.4,0-0.5,0.1c-0.1,0-0.1,0-0.1,0.1c0,0.9,0,1.7,0,2.6
	c0,0.1,0,0.1,0,0.2c0,0.1,0,0.1-0.1,0.1c-0.4,0-0.7,0-1.1,0c-0.1,0-0.1,0-0.1-0.1C15.4,17.2,15.4,16.6,15.4,16z"/>
<path class="st1" d="M11.7,15.2c0-0.3,0-0.6,0-0.9c0-0.1,0-0.1,0.1-0.1c0.4-0.2,0.9-0.3,1.4-0.3c0.3,0,0.6,0,0.9,0.1
	c0.4,0.1,0.6,0.4,0.6,0.8c0,0.2,0,0.3,0,0.5c0,0.8,0,1.7,0,2.5c0,0.1,0,0.1-0.1,0.1c-0.6,0.1-1.2,0.1-1.8,0.1c-0.2,0-0.5,0-0.7-0.1
	c-0.5-0.1-0.8-0.5-0.8-1c0-0.4,0.1-0.7,0.4-1c0.2-0.2,0.4-0.3,0.7-0.3c0.3-0.1,0.7-0.1,1-0.2c0.1,0,0.1,0,0.1-0.1c0-0.1,0-0.1,0-0.2
	c0-0.2-0.1-0.3-0.3-0.3c-0.4,0-0.7,0-1,0.1C12.1,15,11.9,15.1,11.7,15.2z M13.7,16.6c0-0.1,0-0.2,0-0.2c0-0.2,0-0.2-0.2-0.2
	c-0.2,0-0.5,0.1-0.7,0.2c-0.2,0.1-0.2,0.2-0.2,0.4c0,0.1,0.1,0.2,0.3,0.3c0.2,0,0.5,0,0.7,0c0.1,0,0.1,0,0.1-0.1
	C13.7,16.9,13.7,16.7,13.7,16.6z"/>
<path class="st1" d="M8.5,19.1C8.6,19,8.7,19,8.8,18.9c0.5-0.3,0.7-0.7,0.8-1.3c0-0.4,0.1-0.7,0.1-1.1c0-0.8,0-1.7,0-2.5
	c0-0.1,0-0.1,0.1-0.1c0.4,0,0.7,0,1.1,0c0.1,0,0.1,0,0.1,0.1c0,0.9,0,1.9,0,2.8c0,0.4,0,0.8-0.1,1.3c-0.1,0.7-0.5,1.2-1.1,1.5
	c-0.1,0-0.2,0.1-0.3,0C9.2,19.4,8.8,19.3,8.5,19.1z"/>
<circle class="st1" cx="10.3" cy="12.9" r="0.6"/>
</svg>
