<svg version="1.1" id="Layer_1" xmlns="http://www.w3.org/2000/svg" x="0" y="0" viewBox="0 0 32 32" style="enable-background:new 0 0 32 32" xml:space="preserve"><style>.st0{fill:none;stroke:#002e42;stroke-width:2;stroke-linecap:round}</style><path class="st0" d="M16.5 29.3c-3.3 0-5.7-1.2-7.4-2.9-1.7-1.8-2.6-4.3-2.6-7.2-.2-5.7 3-12.4 9.9-16.4 0 0 0 0 0 0h.1c.1.1.2.2.2.4.1 2.5 1.3 6.1 5.1 9.2 3 2.5 4 6.7 3.1 10.4-1.1 3.6-3.8 6.5-8.4 6.5z"/><path class="st0" d="M16.1 29.3c-3.1 0-5.7-3-6.3-8-.6-5 .8-11.5 5.4-17.3.1-.2.3-.3.3-.4 0 .2.1.4.1.7 0 3.4.9 8.4 4.6 11.7 2.1 1.8 2.4 5.1 1.4 8.1s-3.2 5.2-5.5 5.2zm-.7-26s0 0 0 0 0 0 0 0z"/><path class="st0" d="M10.6 12.7c0 5.5 3.6 15 10.6 15"/><path class="st0" d="M20.1 10.9c-.6.6-1.8 2.4-1.8 4.8 0 2.9.7 13.2-5.5 13.2"/><path d="M25.1 24c-.3-.5 0-1.2.5-1.5.4-.2.5-.7.1-.9-.5-.2-1.1-.3-1.8.1-.8.5-1.1 1.2-1.2 1.7-.1.4-.3.9-.6 1.1L18 26.7c-.5.3-.7 1-.4 1.5.3.5 1 .7 1.5.4l3.6-2.1c.5-.3 1.3-.2 1.9 0 .5.1 1.2.1 1.8-.2.7-.4 1-1 1.1-1.5.1-.5-.4-.6-.9-.4-.5.2-1.3 0-1.5-.4z" style="fill:#fff;stroke:#fff;stroke-width:3.7399;stroke-linecap:round"/><path d="M25.1 24c-.3-.5 0-1.2.5-1.5.4-.2.5-.7.1-.9-.5-.2-1.1-.3-1.8.1-.8.5-1.1 1.2-1.2 1.7-.1.4-.3.9-.6 1.1L18 26.7c-.5.3-.7 1-.4 1.5.3.5 1 .7 1.5.4l3.6-2.1c.5-.3 1.3-.2 1.9 0 .5.1 1.2.1 1.8-.2.7-.4 1-1 1.1-1.5.1-.5-.4-.6-.9-.4-.5.2-1.3 0-1.5-.4z" style="fill:#fff;stroke:#002e42;stroke-width:1.8007;stroke-linecap:round"/></svg>