<svg version="1.1" id="Layer_1" xmlns="http://www.w3.org/2000/svg" x="0" y="0" viewBox="0 0 32 32" style="enable-background:new 0 0 32 32" xml:space="preserve"><style>.st0{fill:none;stroke:#002e42;stroke-width:2;stroke-linecap:round}</style><path class="st0" d="M2.2 10c0-1.1.9-2 2-2h3.6c.1 0 .1 0 .1.1 0 0 0 0 0 0-1 1.3-1.6 2.8-1.9 4.4-.3 2.1-.3 4.1.3 6.2.4 1.4 1 2.6 1.9 3.7h0v.1H4.3c-1.1 0-2.1-.9-2.1-2.1V10zm26.5 11.7c0 .6-.5.8-.8.8h-4.8c-.1 0-.1 0-.1-.1h0c.7-.8 1.4-1.7 1.9-2.7.1-.1 0-.1-.1-.1-1.1-.5-2.1-1.1-3.2-1.6-.1 0-.1 0-.2.1-.4.7-.9 1.3-1.5 1.9-.8.8-1.6 1.4-2.7 1.6-1.5.3-2.8.1-4-.8-.7-.6-1.1-1.3-1.4-2.1-.3-.9-.5-1.7-.6-2.7-.1-1 .4-1.2.7-1.2h12.4c.1 0 .1 0 .1-.1 0-1.5 0-3-.5-4.4-.3-.7-.6-1.4-1-2h0s0-.1.1-.1h5c.3 0 .8.2.8.8s-.1 8.6-.1 12.7"/><path class="st0" d="M15.1 11.3h-2.9c-.1 0-.1 0-.1-.1.2-1.4 1.1-2.5 2.5-2.8.9-.2 1.8 0 2.5.6.6.5.9 1.1 1 1.9v.3c0 .1 0 .1-.1.1h-2.9z"/><path d="M27.4 20.8c-.3-.5 0-1.2.5-1.5.4-.2.5-.7.1-.9-.5-.2-1.1-.3-1.9.1-.8.5-1.1 1.2-1.2 1.8-.1.4-.3.9-.6 1.1l-4 2.3c-.5.3-.7 1-.4 1.5.3.5 1 .7 1.5.4l3.6-2.1c.5-.3 1.3-.2 1.9 0 .5.1 1.2.1 1.8-.2.7-.4 1-1 1.1-1.5.1-.5-.4-.7-.9-.4-.4 0-1.2-.2-1.5-.6z" style="fill:#fff;stroke:#fff;stroke-width:3.78;stroke-linecap:round"/><path d="M27.4 20.8c-.3-.5 0-1.2.5-1.5.4-.2.5-.7.1-.9-.5-.2-1.1-.3-1.9.1-.8.5-1.1 1.2-1.2 1.8-.1.4-.3.9-.6 1.1l-4 2.3c-.5.3-.7 1-.4 1.5.3.5 1 .7 1.5.4l3.6-2.1c.5-.3 1.3-.2 1.9 0 .5.1 1.2.1 1.8-.2.7-.4 1-1 1.1-1.5.1-.5-.4-.7-.9-.4-.4 0-1.2-.2-1.5-.6z" style="fill:#fff;stroke:#002e42;stroke-width:1.82;stroke-linecap:round"/></svg>