<?xml version="1.0" encoding="utf-8"?>
<!-- Generator: Adobe Illustrator 25.0.0, SVG Export Plug-In . SVG Version: 6.00 Build 0)  -->
<svg version="1.1" id="Layer_1" xmlns="http://www.w3.org/2000/svg" xmlns:xlink="http://www.w3.org/1999/xlink" x="0px" y="0px"
	 viewBox="0 0 32 32" style="enable-background:new 0 0 32 32;" xml:space="preserve">
<style type="text/css">
	.st0{fill:none;stroke:#002E42;stroke-width:2;stroke-linecap:round;}
	.st1{fill:#FFFFFF;stroke:#FFFFFF;stroke-width:3.78;stroke-linecap:round;}
	.st2{fill:#FFFFFF;stroke:#002E42;stroke-width:1.82;stroke-linecap:round;}
</style>
<path class="st0" d="M2.2,10c0-1.1,0.9-2,2-2l0,0c0.6,0,3,0,3.6,0l0,0c0.1,0,0.1,0,0.1,0.1c0,0,0,0,0,0C6.9,9.4,6.3,10.9,6,12.5
	c-0.3,2.1-0.3,4.1,0.3,6.2c0.4,1.4,1,2.6,1.9,3.7l0,0c0,0,0,0.1,0,0.1c-0.7,0-2.5,0-3.9,0c-1.1,0-2.1-0.9-2.1-2.1
	C2.2,16.9,2.2,13.4,2.2,10z"/>
<path class="st0" d="M28.7,21.7c0,0.6-0.5,0.8-0.8,0.8h-4.8c-0.1,0-0.1,0-0.1-0.1l0,0c0.7-0.8,1.4-1.7,1.9-2.7
	c0.1-0.1,0-0.1-0.1-0.1c-1.1-0.5-2.1-1.1-3.2-1.6c-0.1,0-0.1,0-0.2,0.1c-0.4,0.7-0.9,1.3-1.5,1.9c-0.8,0.8-1.6,1.4-2.7,1.6
	c-1.5,0.3-2.8,0.1-4-0.8c-0.7-0.6-1.1-1.3-1.4-2.1c-0.3-0.9-0.5-1.7-0.6-2.7c-0.1-1,0.4-1.2,0.7-1.2c3.9,0,7.2,0,11.1,0
	c0.4,0,0.9,0,1.3,0c0.1,0,0.1,0,0.1-0.1c0-1.5,0-3-0.5-4.4c-0.3-0.7-0.6-1.4-1-2l0,0c0,0,0-0.1,0.1-0.1c1.1,0,4,0,5,0
	c0.3,0,0.8,0.2,0.8,0.8S28.7,17.6,28.7,21.7"/>
<path class="st0" d="M15.1,11.3c-1,0-1.9,0-2.9,0c-0.1,0-0.1,0-0.1-0.1c0.2-1.4,1.1-2.5,2.5-2.8c0.9-0.2,1.8,0,2.5,0.6
	c0.6,0.5,0.9,1.1,1,1.9c0,0.1,0,0.2,0,0.3c0,0.1,0,0.1-0.1,0.1c-0.4,0-0.7,0-1.1,0C16.4,11.3,15.7,11.3,15.1,11.3z"/>
<g>
	<path class="st1" d="M27.4,20.8c-0.3-0.5,0-1.2,0.5-1.5c0.4-0.2,0.5-0.7,0.1-0.9c-0.5-0.2-1.1-0.3-1.9,0.1
		c-0.8,0.5-1.1,1.2-1.2,1.8c-0.1,0.4-0.3,0.9-0.6,1.1l-4,2.3c-0.5,0.3-0.7,1-0.4,1.5c0.3,0.5,1,0.7,1.5,0.4l3.6-2.1
		c0.5-0.3,1.3-0.2,1.9,0c0.5,0.1,1.2,0.1,1.8-0.2c0.7-0.4,1-1,1.1-1.5c0.1-0.5-0.4-0.7-0.9-0.4C28.5,21.4,27.7,21.2,27.4,20.8z"/>
	<path class="st2" d="M27.4,20.8c-0.3-0.5,0-1.2,0.5-1.5c0.4-0.2,0.5-0.7,0.1-0.9c-0.5-0.2-1.1-0.3-1.9,0.1
		c-0.8,0.5-1.1,1.2-1.2,1.8c-0.1,0.4-0.3,0.9-0.6,1.1l-4,2.3c-0.5,0.3-0.7,1-0.4,1.5c0.3,0.5,1,0.7,1.5,0.4l3.6-2.1
		c0.5-0.3,1.3-0.2,1.9,0c0.5,0.1,1.2,0.1,1.8-0.2c0.7-0.4,1-1,1.1-1.5c0.1-0.5-0.4-0.7-0.9-0.4C28.5,21.4,27.7,21.2,27.4,20.8z"/>
</g>
</svg>
