<?xml version="1.0" encoding="UTF-8"?>
<svg xmlns="http://www.w3.org/2000/svg" xmlns:xlink="http://www.w3.org/1999/xlink" width="32px" height="32px" viewBox="0 0 32 32" version="1.1">
<g id="surface1">
<path style=" stroke:none;fill-rule:nonzero;fill:rgb(0%,18.039216%,25.882354%);fill-opacity:1;" d="M 13.589844 3.859375 C 13.367188 3.9375 13.117188 4.171875 12.980469 4.429688 C 12.875 4.613281 12.875 4.660156 12.863281 7.089844 C 12.855469 8.457031 12.832031 9.574219 12.8125 9.574219 C 12.796875 9.578125 12.421875 9.589844 11.976562 9.59375 C 10.9375 9.609375 10.71875 9.6875 10.46875 10.160156 C 10.363281 10.351562 10.363281 10.378906 10.363281 13.027344 C 10.363281 15.425781 10.375 15.75 10.449219 16.132812 C 10.773438 17.71875 11.644531 19.121094 12.898438 20.074219 C 13.609375 20.609375 14.710938 21.09375 15.613281 21.273438 L 15.882812 21.324219 L 15.882812 22.242188 C 15.882812 23.289062 15.8125 23.804688 15.601562 24.339844 C 15.164062 25.417969 14.308594 26.167969 13.097656 26.519531 C 12.871094 26.585938 12.46875 26.601562 10.601562 26.628906 C 8.179688 26.65625 8.222656 26.652344 7.886719 26.9375 C 7.394531 27.347656 7.402344 28.167969 7.902344 28.550781 C 8.226562 28.796875 8.261719 28.804688 10.53125 28.808594 C 12.910156 28.808594 13.234375 28.78125 14.074219 28.5 C 16.042969 27.839844 17.5 26.195312 17.933594 24.164062 C 18.007812 23.8125 18.035156 23.449219 18.058594 22.511719 L 18.089844 21.3125 L 18.519531 21.203125 C 21.058594 20.558594 23.066406 18.40625 23.445312 15.917969 C 23.5 15.570312 23.511719 14.894531 23.511719 12.933594 C 23.511719 10.097656 23.519531 10.175781 23.167969 9.867188 C 22.917969 9.648438 22.75 9.613281 21.84375 9.597656 C 21.394531 9.589844 20.996094 9.578125 20.96875 9.574219 C 20.921875 9.570312 20.90625 9.058594 20.90625 7.171875 C 20.90625 5.496094 20.886719 4.710938 20.851562 4.554688 C 20.8125 4.398438 20.730469 4.273438 20.582031 4.121094 C 20.160156 3.699219 19.570312 3.675781 19.144531 4.0625 C 18.765625 4.40625 18.773438 4.304688 18.773438 7.089844 L 18.773438 9.570312 L 15.035156 9.570312 L 15.023438 7.117188 L 15.007812 4.664062 L 14.898438 4.441406 C 14.644531 3.921875 14.097656 3.679688 13.589844 3.859375 Z M 21.359375 13.550781 C 21.359375 15.273438 21.347656 15.398438 21.25 15.792969 C 21.03125 16.660156 20.703125 17.265625 20.128906 17.855469 C 19.714844 18.285156 19.339844 18.558594 18.816406 18.808594 C 18.144531 19.132812 17.78125 19.207031 16.902344 19.207031 C 16.027344 19.207031 15.660156 19.132812 14.988281 18.808594 C 14.453125 18.554688 14.089844 18.285156 13.652344 17.828125 C 13.230469 17.386719 12.957031 16.949219 12.757812 16.402344 C 12.511719 15.730469 12.472656 15.328125 12.472656 13.449219 C 12.472656 12.523438 12.488281 11.75 12.507812 11.734375 C 12.519531 11.714844 14.519531 11.707031 16.945312 11.710938 L 21.359375 11.726562 Z M 21.359375 13.550781 "/>
</g>
</svg>
