<svg width="32" height="32" fill="none" xmlns="http://www.w3.org/2000/svg"><path d="m4 22.326 12 3.428v3.92L4 26.246v-3.92Zm12 3.428 12-3.428v3.92l-12 3.428v-3.92Z" stroke="#2E3141" stroke-width="2"/><path d="m4 22 6-2m7-1.5L28 22" stroke="#2E3141" stroke-width="2" stroke-linecap="round" stroke-linejoin="round"/><path d="m18.503 15.427 8.375 1.175a2 2 0 0 0 2.258-1.694l1.074-7.439a2 2 0 0 0-1.693-2.265L18.63 3.776a2 2 0 0 0-2.265 1.693l-.537 3.715" stroke="#2E3141" stroke-width="2"/><path d="m23.272 8-.572 3.959m-1.693-2.266 3.959.572" stroke="#2E3141" stroke-width="2" stroke-linecap="round" stroke-linejoin="round"/><rect x="3.928" y="16.32" width="12" height="12" rx="1" transform="rotate(-60 3.928 16.32)" stroke="#2E3141" stroke-width="2"/><path d="M12.248 12.195v4m-2.001-2h4" stroke="#2E3141" stroke-width="2" stroke-linecap="round" stroke-linejoin="round"/></svg>