<svg version="1.1" id="Layer_1" xmlns="http://www.w3.org/2000/svg" x="0" y="0" viewBox="0 0 32 32" style="enable-background:new 0 0 32 32" xml:space="preserve"><style>.st0{fill:none;stroke:#002e42;stroke-width:2;stroke-linecap:round}</style><path class="st0" d="M29 28.4c-8.1-3.2-13.7-11.7-14.4-16.9-.1-.5-.5-1-1.1-1h-10c-.6 0-1 .5-1 1 .8 12.2 16.7 21 26.5 18.6.9-.2.8-1.4 0-1.7zM2.5 7.5h12c.6 0 1 .4 1 1v1c0 .6-.4 1-1 1h-12c-.6 0-1-.4-1-1v-1c0-.6.5-1 1-1zm2-3h8c.6 0 1 .4 1 1v1c0 .6-.4 1-1 1h-8c-.6 0-1-.4-1-1v-1c0-.6.5-1 1-1z"/><circle class="st0" cx="8" cy="3" r="1.5"/><path class="st0" d="M7 15.5c.2.7.9 2.4 2.5 4"/></svg>