<?xml version="1.0" encoding="utf-8"?>
<!-- Generator: Adobe Illustrator 25.0.0, SVG Export Plug-In . SVG Version: 6.00 Build 0)  -->
<svg version="1.1" id="Layer_1" xmlns="http://www.w3.org/2000/svg" xmlns:xlink="http://www.w3.org/1999/xlink" x="0px" y="0px"
	 viewBox="0 0 32 32" style="enable-background:new 0 0 32 32;" xml:space="preserve">
<style type="text/css">
	.st0{fill:none;stroke:#002E42;stroke-width:2;stroke-linecap:round;}
</style>
<path class="st0" d="M29,28.4c-8.1-3.2-13.7-11.7-14.4-16.9c-0.1-0.5-0.5-1-1.1-1h-10c-0.6,0-1,0.5-1,1c0.8,12.2,16.7,21,26.5,18.6
	C29.9,29.9,29.8,28.7,29,28.4z"/>
<path class="st0" d="M2.5,7.5h12c0.6,0,1,0.4,1,1v1c0,0.6-0.4,1-1,1h-12c-0.6,0-1-0.4-1-1v-1C1.5,7.9,2,7.5,2.5,7.5z"/>
<path class="st0" d="M4.5,4.5h8c0.6,0,1,0.4,1,1v1c0,0.6-0.4,1-1,1h-8c-0.6,0-1-0.4-1-1v-1C3.5,4.9,4,4.5,4.5,4.5z"/>
<circle class="st0" cx="8" cy="3" r="1.5"/>
<path class="st0" d="M7,15.5c0.2,0.7,0.9,2.4,2.5,4"/>
</svg>
