<svg width="32" height="32" fill="none" xmlns="http://www.w3.org/2000/svg"><path d="M11.242 19.956c-.948 2.395-3.844 4.276-6.29 5.427-.842.397-.783 1.407.148 1.431 2.72.07 6.638-.539 9.707-2.423 3.513-2.156 6.594-7.362 7.696-9.695-.073.319-.635 1.148-2.305 1.913-2.087.956-4.043-.435-4.826-1.174-.782-.74-4.739-5.783-13.434-9.435 11 5.565 10.956 9.783 9.304 13.956Z" stroke="#2E3141" stroke-width="2" stroke-linecap="round" stroke-linejoin="round"/><path d="M30.956 10.84c-.623-.175-2.313-.418-4.087 0-2.217.521-2.434.608-3.478.304-1.043-.305-2.74-.957-4.435.521-1.695 1.479-1.521 2.783-3.434 3.913" stroke="#2E3141" stroke-width="2" stroke-linecap="round" stroke-linejoin="round"/><path d="M31 10.87c-.652.029-2.452.226-4.435.782-2.478.696-3.534 2.317-4.471 3.723" stroke="#2E3141" stroke-width="2" stroke-linecap="round" stroke-linejoin="round"/><circle cx="21.625" cy="12.563" r=".938" fill="#2E3141"/><path d="M1.961 6.051c-.347-.101-1.026-.121-.956.61.087.912 2.473 7.383 10.3 13.426" stroke="#2E3141" stroke-width="2" stroke-linecap="round" stroke-linejoin="round"/><path d="M15.522 15.565c-2.61 1.044-9.783-.652-13.696-6.652m9.522 11.174c1.55 1.217 5.081 3.13 7.933 0" stroke="#2E3141" stroke-width="2" stroke-linecap="round" stroke-linejoin="round"/></svg>