<?xml version="1.0" encoding="utf-8"?>
<!-- Generator: Adobe Illustrator 25.0.0, SVG Export Plug-In . SVG Version: 6.00 Build 0)  -->
<svg version="1.1" id="Layer_1" xmlns="http://www.w3.org/2000/svg" xmlns:xlink="http://www.w3.org/1999/xlink" x="0px" y="0px"
	 viewBox="0 0 32 32" style="enable-background:new 0 0 32 32;" xml:space="preserve">
<style type="text/css">
	.st0{fill:none;}
	.st1{fill:#002E42;}
	.st2{fill:#FFFFFF;stroke:#FFFFFF;stroke-width:58;stroke-linecap:round;}
	.st3{fill:#FFFFFF;stroke:#002E42;stroke-width:28;stroke-linecap:round;}
</style>
<g>
	<path class="st0" d="M21.9,13.2C21.9,13.2,21.8,13.2,21.9,13.2c-0.1,0-0.1,0-0.1,0c-0.5,0.1-0.8,0.2-1.1,0.5
		c-0.3,0.2-0.5,0.6-0.6,1.1c-0.1,0.3,0,0.7,0.2,0.9c0.2,0.3,0.5,0.4,0.9,0.4c0,0,0,0,0,0c0.2,0,0.4,0,0.9-0.3
		c0.6-0.4,0.9-0.9,0.9-1.6C22.8,13.6,22.4,13.2,21.9,13.2z"/>
	<path class="st1" d="M24.5,14.1c0-1.5-1.2-2.6-2.7-2.6c-0.1,0-0.2,0-0.3,0c-1.5,0.2-2.7,1.1-3.2,2.8C17.9,16,19,17.7,21,17.8
		c0,0,0.1,0,0.1,0c0.7,0,1.3-0.2,1.8-0.6C24,16.5,24.6,15.4,24.5,14.1z M22,15.8c-0.4,0.3-0.7,0.3-0.9,0.3c0,0,0,0,0,0
		c-0.4,0-0.7-0.2-0.9-0.4c-0.2-0.3-0.2-0.6-0.2-0.9c0.1-0.5,0.3-0.8,0.6-1.1c0.3-0.2,0.7-0.4,1.1-0.5c0,0,0,0,0,0c0,0,0.1,0,0.1,0
		c0.5,0,1,0.4,1,0.9C22.9,14.9,22.6,15.4,22,15.8z"/>
	<path class="st1" d="M19.7,20.8c-0.5-0.1-1.1-0.2-1.6-0.5c-1.4-0.6-2.4-1.6-2.9-3.1c0-0.1-0.1-0.2-0.1-0.3C15,17,15,17,15,17.1
		c-1.1,2-2.7,3.3-5,3.7c-0.4,0.1-0.8,0.1-1.2,0.1c-0.7,0-1.4-0.1-2.1-0.4c-1.2-0.5-2.2-1.3-2.8-2.4c-0.7-1.3-0.8-2.7-0.5-4.2
		c0.4-1.7,1.4-3,2.8-4.1c1-0.7,2.1-1.2,3.2-1.3c0.4-0.1,0.7-0.1,1.1-0.1c0.5,0,1,0.1,1.5,0.2c1.6,0.5,2.7,1.5,3.4,3
		c0,0.1,0,0.2-0.1,0.2c0,0-0.1,0-0.1,0c-0.9,0.2-1.7,0.4-2.6,0.7c-0.1,0-0.1,0-0.2,0c-0.2,0-0.3-0.1-0.4-0.2
		c-0.5-0.6-1.2-0.9-1.9-0.9c-0.2,0-0.4,0-0.7,0.1c-1.4,0.3-2.9,1.6-2.7,3.8c0.1,1.1,0.9,2,1.9,2.3c0.3,0.1,0.5,0.1,0.7,0.1
		c0.7,0,1.3-0.2,1.9-0.7c0.3-0.3,0.6-0.6,0.8-1c0,0-0.1,0-0.1,0c0,0-0.1,0-0.1,0c0,0,0,0,0,0c-0.3,0-0.5,0-0.8,0c-0.2,0-0.5,0-0.7,0
		c-0.5,0-1,0-1.4,0c-0.3,0-0.5-0.2-0.3-0.5c0,0,0,0,0-0.1c0.2-0.5,0.5-1.1,0.7-1.6c0.1-0.3,0.3-0.4,0.6-0.4c0,0,0,0,0,0
		c0.8,0,1.7,0,2.5,0c0.7,0,1.4,0,2.1,0c0.1,0,0.3,0,0.4,0c0,0,0,0,0,0c0.1,0,0.1,0,0.2-0.1c0.3-0.9,0.7-1.6,1.3-2.3
		c0.7-0.8,1.5-1.5,2.5-1.9c0.8-0.3,1.6-0.5,2.4-0.6c0.3,0,0.7-0.1,1-0.1c0.5,0,1.1,0.1,1.6,0.2c2.1,0.7,3.5,2.1,3.8,4.3
		c0,0,0.3,1.8-0.3,3.3c-0.1,0.2-0.2,0.4-0.3,0.6c0.6,0.4,0.9,1,1,1.7c0.3-0.5,0.6-1,0.8-1.6c0.8-1.9,0.5-4,0.4-4.2
		c-0.5-2.7-2.2-4.7-5-5.6c-0.7-0.2-1.4-0.3-2.2-0.3c-0.4,0-0.8,0-1.2,0.1c-1,0.1-2,0.4-2.8,0.7C17.4,8,16.7,8.6,16,9.2
		c-0.2-0.3-0.5-0.5-0.7-0.8c-0.8-0.7-1.7-1.2-2.7-1.5c-0.6-0.2-1.3-0.3-2-0.3c-0.4,0-0.9,0-1.4,0.1C7.6,7,6.3,7.6,5.2,8.5
		c-1.8,1.4-2.9,3-3.4,5c-0.5,1.9-0.3,3.7,0.6,5.4c0.8,1.5,2,2.5,3.7,3.2c0.8,0.3,1.7,0.5,2.7,0.5c0.5,0,1,0,1.5-0.1
		c1.8-0.3,3.3-1.1,4.6-2.4c0.7,0.8,1.5,1.4,2.5,1.8c0.1,0,0.2,0.1,0.3,0.1c0.1-0.1,0.2-0.2,0.4-0.2L19.7,20.8z"/>
	<path class="st1" d="M28.2,20.3c-0.4-0.3-1-0.3-1.5-0.1c0,0,0,0,0,0c-0.1,0-0.2,0-0.3,0c0-0.1,0.1-0.2,0.1-0.2
		c0.5-0.3,0.8-0.8,0.8-1.3c0-0.4-0.2-0.8-0.5-1c0,0-0.1-0.1-0.2-0.1c-0.8-0.4-1.7-0.4-2.6,0.1c-0.9,0.5-1.4,1.3-1.6,2.3
		c0,0.2-0.1,0.4-0.2,0.4l-0.7,0.4l-2.7,1.5l-0.3,0.2c-0.4,0.3-0.8,0.7-0.9,1.2c-0.1,0.5-0.1,1,0.2,1.5c0.4,0.6,1,0.9,1.6,0.9
		c0.3,0,0.7-0.1,1-0.3l3.4-2c0.1-0.1,0.4-0.1,1.1,0.1c0.8,0.2,1.6,0.1,2.3-0.3c0.8-0.4,1.3-1.2,1.5-2.1
		C28.7,21.1,28.6,20.6,28.2,20.3z M26.4,22.1c-0.5,0.3-0.9,0.2-1.1,0.1c-0.5-0.1-1.6-0.4-2.4,0.1l-3.4,2c-0.1,0.1-0.2,0-0.3-0.1
		c0-0.1,0-0.1,0-0.1c0,0,0-0.1,0.1-0.1l2.8-1.6l1-0.5c0.6-0.3,0.9-0.9,1-1.7c0-0.1,0-0.2,0.1-0.3c0.1-0.3,0.3-0.6,0.7-0.8
		c0.1,0,0.1-0.1,0.2-0.1c-0.1,0.1-0.2,0.3-0.2,0.5c-0.2,0.5-0.2,1,0.1,1.5l0,0c0.1,0.1,0.1,0.2,0.2,0.3c0.4,0.4,0.9,0.6,1.5,0.6
		C26.5,22.1,26.5,22.1,26.4,22.1z"/>
</g>
<g>
	<g>
		<path class="st1" d="M-681.7-113.5c8.4,0,16.8,1.1,25.1,3.6c26.5,8,45.4,24.7,56.5,50.2c0.8,1.8,0.3,3-1.5,3.6
			c-0.8,0.3-1.6,0.6-2.4,0.8c-14.3,3.7-28.6,7.3-42.8,11.3c-1.3,0.4-2.4,0.5-3.4,0.5c-2.7,0-4.7-1.2-6.9-3.7
			c-8.7-9.8-19.4-14.6-31.3-14.6c-3.6,0-7.4,0.4-11.2,1.3c-22.6,5.2-48.6,26.7-45.4,63.1c1.6,18.4,14.4,33.6,31.8,37.5
			c4.2,0.9,8.2,1.4,12.2,1.4c11.5,0,22.1-4,31.6-12c5.4-4.5,9.6-10.1,13.4-16c-0.6-0.3-1.1-0.3-1.6-0.3c-0.4,0-0.8,0-1.3,0
			c0,0,0,0,0,0c-4.4,0-8.9,0-13.3,0c-3.7,0-7.5,0-11.2,0c-8,0-16,0-24,0c-5.7,0-7.5-2.8-5.5-8.1c0.1-0.3,0.2-0.6,0.4-0.9
			c3.9-9,8.1-17.9,12.4-26.8c2.1-4.3,5-6.2,9.8-6.2c0,0,0.1,0,0.1,0c13.8,0.1,27.6,0.1,41.4,0.1c11.4,0,22.8,0,34.2,0
			c2.3,0,4.6,0,6.9,0c0.1,0,0.1,0,0.2,0c1.2,0,2.1,0,2.6-1.6c4.6-14.1,12.3-26.6,21.7-38c11.3-13.7,24.8-24.5,41.2-31.5
			c12.6-5.4,25.8-8.6,39.3-10.3c5.4-0.6,10.8-1,16.1-1c9.1,0,18.1,1.1,26.8,4.1c34.6,11.6,57.1,34.3,63.3,71.3c0,0,5,29-5.5,54.2
			c-12.1,29.5-33.4,50.3-62,63.8c-15.8,7.5-32.7,11-50,11.3c-0.6,0-1.3,0-1.9,0c-14,0-27.6-3.1-40.4-9c-22.8-10.6-39.5-27.1-48.3-51
			c-0.6-1.7-1.2-3.5-1.9-5.5c-0.5,1-0.8,1.6-1.2,2.2c-18.3,32.6-44.8,54.3-82.3,61c-6.9,1.2-13.7,1.9-20.5,1.9
			c-11.6,0-23-1.9-34.2-6.4c-20.2-8-36.4-21-46.8-40.2c-11.8-21.8-13.7-45.2-7.9-69c6.8-28,23.2-49.9,45.8-67.3
			c15.9-12.2,34.1-19.2,53.8-22.3C-693.8-112.9-687.7-113.5-681.7-113.5 M-507,42.2c11.1,0,20.9-3.9,30.1-10
			c18.2-12.1,27.8-29,27.2-51.1c-0.8-24-20.3-42.5-44.4-42.6c-1.8,0.1-3.6,0-5.3,0.3c-24.9,3.5-45.1,17.6-52.6,45.9
			c-7.4,28,11,56.5,43.8,57.4C-507.9,42.2-507.4,42.2-507,42.2 M-681.7-141.5c-7.2,0-14.7,0.6-22.5,1.8c-25.3,4-47.6,13.3-66.4,27.8
			c-29.2,22.4-48.1,50.3-56,82.9c-7.7,31.8-4.2,61.7,10.5,88.9c13.1,24.2,33.7,42.1,61.1,53c14,5.5,28.9,8.4,44.5,8.4
			c8.2,0,16.8-0.8,25.5-2.3c29.7-5.3,54.9-18.5,75.4-39.3c11,12.6,24.9,22.8,41.6,30.5c16.6,7.7,34.1,11.6,52.1,11.6
			c0.8,0,1.7,0,2.5,0c22.1-0.4,42.7-5.1,61.4-14c35.9-17,61.5-43.3,75.9-78.4c13.2-31.6,8-65.5,7.3-69.6c-7.7-45.5-36-77.7-82-93.1
			c-11.1-3.7-22.8-5.5-35.7-5.5c-6.1,0-12.5,0.4-19.5,1.2c-17.2,2.1-32.7,6.1-47.1,12.4c-14.2,6.1-27.2,14.7-38.8,25.6
			c-3.7-4.5-7.7-8.7-12.1-12.5c-12.4-11-27.4-19.2-44.5-24.4C-659-139.9-670.2-141.5-681.7-141.5L-681.7-141.5z M-495.9-33.3
			c0.2,0,0.5,0,0.8,0c0.5,0,0.9,0,1.4,0c8.9,0.3,15.8,6.8,16,15.5c0.4,11.8-4,19.8-14.7,26.9c-7.1,4.7-11.7,5.3-14.6,5.3
			c-0.2,0-0.4,0-0.5,0c-6.6-0.2-11.8-2.5-14.9-6.8c-3.1-4.2-4.1-9.8-2.6-15.4c2.1-7.9,5.5-13.7,10.5-17.8
			C-509.8-29.7-503.6-32.2-495.9-33.3L-495.9-33.3z"/>
	</g>
</g>
<g>
	<path class="st2" d="M-432.2,90.1c-4-7.3-0.3-18.9,7.5-23.2c6.1-3.3,7.6-11.5,1.4-14.7c-7.2-3.7-17.2-5.3-29,1.2
		c-13,7.1-17.8,18.2-19.1,27.4c-1,6.9-4,13.8-10.1,17.3l-61.9,35.3c-8.5,4.8-11.3,15.7-6.2,24c4.9,8.1,15.4,10.7,23.6,5.9l55.8-32.9
		c8.1-4.8,20.2-2.4,29.3-0.2c8.3,2,18.9,1.7,28.6-3.6c11.1-6.1,15.8-15.6,16.8-23.9c1-7.3-6.9-10.1-13.3-6.6
		C-416.4,100.5-428.2,97.4-432.2,90.1z"/>
	<path class="st3" d="M-432.2,90.1c-4-7.3-0.3-18.9,7.5-23.2c6.1-3.3,7.6-11.5,1.4-14.7c-7.2-3.7-17.2-5.3-29,1.2
		c-13,7.1-17.8,18.2-19.1,27.4c-1,6.9-4,13.8-10.1,17.3l-61.9,35.3c-8.5,4.8-11.3,15.7-6.2,24c4.9,8.1,15.4,10.7,23.6,5.9l55.8-32.9
		c8.1-4.8,20.2-2.4,29.3-0.2c8.3,2,18.9,1.7,28.6-3.6c11.1-6.1,15.8-15.6,16.8-23.9c1-7.3-6.9-10.1-13.3-6.6
		C-416.4,100.5-428.2,97.4-432.2,90.1z"/>
</g>
</svg>
