<svg version="1.1" id="Layer_1" xmlns="http://www.w3.org/2000/svg" x="0" y="0" viewBox="0 0 32 32" style="enable-background:new 0 0 32 32" xml:space="preserve"><style>.st1{fill:#002e42}</style><path d="M21.9 13.2s-.1 0 0 0h-.1c-.5.1-.8.2-1.1.5-.3.2-.5.6-.6 1.1-.1.3 0 .7.2.9.2.3.5.4.9.4.2 0 .4 0 .9-.3.6-.4.9-.9.9-1.6-.2-.6-.6-1-1.1-1z" style="fill:none"/><path class="st1" d="M24.5 14.1c0-1.5-1.2-2.6-2.7-2.6h-.3c-1.5.2-2.7 1.1-3.2 2.8-.4 1.7.7 3.4 2.7 3.5h.1c.7 0 1.3-.2 1.8-.6 1.1-.7 1.7-1.8 1.6-3.1zM22 15.8c-.4.3-.7.3-.9.3-.4 0-.7-.2-.9-.4-.2-.3-.2-.6-.2-.9.1-.5.3-.8.6-1.1.3-.2.7-.4 1.1-.5h.1c.5 0 1 .4 1 .9.1.8-.2 1.3-.8 1.7z"/><path class="st1" d="M19.7 20.8c-.5-.1-1.1-.2-1.6-.5-1.4-.6-2.4-1.6-2.9-3.1 0-.1-.1-.2-.1-.3-.1.1-.1.1-.1.2-1.1 2-2.7 3.3-5 3.7-.4.1-.8.1-1.2.1-.7 0-1.4-.1-2.1-.4-1.2-.5-2.2-1.3-2.8-2.4-.7-1.3-.8-2.7-.5-4.2.4-1.7 1.4-3 2.8-4.1 1-.7 2.1-1.2 3.2-1.3.4-.1.7-.1 1.1-.1.5 0 1 .1 1.5.2 1.6.5 2.7 1.5 3.4 3 0 .1 0 .2-.1.2h-.1c-.9.2-1.7.4-2.6.7h-.2c-.2 0-.3-.1-.4-.2-.5-.6-1.2-.9-1.9-.9-.2 0-.4 0-.7.1-1.4.3-2.9 1.6-2.7 3.8.1 1.1.9 2 1.9 2.3.3.1.5.1.7.1.7 0 1.3-.2 1.9-.7.3-.3.6-.6.8-1H8.9c-.3 0-.5-.2-.3-.5v-.1c.2-.5.5-1.1.7-1.6.1-.3.3-.4.6-.4h5c.1 0 .1 0 .2-.1.3-.9.7-1.6 1.3-2.3.7-.8 1.5-1.5 2.5-1.9.8-.3 1.6-.5 2.4-.6.3 0 .7-.1 1-.1.5 0 1.1.1 1.6.2 2.1.7 3.5 2.1 3.8 4.3 0 0 .3 1.8-.3 3.3l-.3.6c.6.4.9 1 1 1.7.3-.5.6-1 .8-1.6.8-1.9.5-4 .4-4.2-.5-2.7-2.2-4.7-5-5.6-.7-.2-1.4-.3-2.2-.3-.4 0-.8 0-1.2.1-1 .1-2 .4-2.8.7-.7.4-1.4 1-2.1 1.6-.2-.3-.5-.5-.7-.8-.8-.7-1.7-1.2-2.7-1.5-.6-.2-1.3-.3-2-.3-.4 0-.9 0-1.4.1-1.6.3-2.9.9-4 1.8-1.8 1.4-2.9 3-3.4 5-.5 1.9-.3 3.7.6 5.4.8 1.5 2 2.5 3.7 3.2.8.3 1.7.5 2.7.5.5 0 1 0 1.5-.1 1.8-.3 3.3-1.1 4.6-2.4.7.8 1.5 1.4 2.5 1.8.1 0 .2.1.3.1.1-.1.2-.2.4-.2l1.6-1z"/><path class="st1" d="M28.2 20.3c-.4-.3-1-.3-1.5-.1h-.3c0-.1.1-.2.1-.2.5-.3.8-.8.8-1.3 0-.4-.2-.8-.5-1 0 0-.1-.1-.2-.1-.8-.4-1.7-.4-2.6.1-.9.5-1.4 1.3-1.6 2.3 0 .2-.1.4-.2.4l-.7.4-2.7 1.5-.3.2c-.4.3-.8.7-.9 1.2-.1.5-.1 1 .2 1.5.4.6 1 .9 1.6.9.3 0 .7-.1 1-.3l3.4-2c.1-.1.4-.1 1.1.1.8.2 1.6.1 2.3-.3.8-.4 1.3-1.2 1.5-2.1 0-.4-.1-.9-.5-1.2zm-1.8 1.8c-.5.3-.9.2-1.1.1-.5-.1-1.6-.4-2.4.1l-3.4 2c-.1.1-.2 0-.3-.1v-.1s0-.1.1-.1l2.8-1.6 1-.5c.6-.3.9-.9 1-1.7 0-.1 0-.2.1-.3.1-.3.3-.6.7-.8.1 0 .1-.1.2-.1-.1.1-.2.3-.2.5-.2.5-.2 1 .1 1.5.1.1.1.2.2.3.4.4.9.6 1.5.6-.2.2-.2.2-.3.2zm-708.1-135.6c8.4 0 16.8 1.1 25.1 3.6 26.5 8 45.4 24.7 56.5 50.2.8 1.8.3 3-1.5 3.6-.8.3-1.6.6-2.4.8-14.3 3.7-28.6 7.3-42.8 11.3-1.3.4-2.4.5-3.4.5-2.7 0-4.7-1.2-6.9-3.7-8.7-9.8-19.4-14.6-31.3-14.6-3.6 0-7.4.4-11.2 1.3-22.6 5.2-48.6 26.7-45.4 63.1 1.6 18.4 14.4 33.6 31.8 37.5 4.2.9 8.2 1.4 12.2 1.4 11.5 0 22.1-4 31.6-12 5.4-4.5 9.6-10.1 13.4-16-.6-.3-1.1-.3-1.6-.3h-49.8c-5.7 0-7.5-2.8-5.5-8.1.1-.3.2-.6.4-.9 3.9-9 8.1-17.9 12.4-26.8 2.1-4.3 5-6.2 9.8-6.2h.1c13.8.1 27.6.1 41.4.1h41.3c1.2 0 2.1 0 2.6-1.6 4.6-14.1 12.3-26.6 21.7-38 11.3-13.7 24.8-24.5 41.2-31.5 12.6-5.4 25.8-8.6 39.3-10.3 5.4-.6 10.8-1 16.1-1 9.1 0 18.1 1.1 26.8 4.1 34.6 11.6 57.1 34.3 63.3 71.3 0 0 5 29-5.5 54.2-12.1 29.5-33.4 50.3-62 63.8-15.8 7.5-32.7 11-50 11.3h-1.9c-14 0-27.6-3.1-40.4-9-22.8-10.6-39.5-27.1-48.3-51-.6-1.7-1.2-3.5-1.9-5.5-.5 1-.8 1.6-1.2 2.2-18.3 32.6-44.8 54.3-82.3 61-6.9 1.2-13.7 1.9-20.5 1.9-11.6 0-23-1.9-34.2-6.4-20.2-8-36.4-21-46.8-40.2-11.8-21.8-13.7-45.2-7.9-69 6.8-28 23.2-49.9 45.8-67.3 15.9-12.2 34.1-19.2 53.8-22.3 6-.9 12.1-1.5 18.1-1.5M-507 42.2c11.1 0 20.9-3.9 30.1-10 18.2-12.1 27.8-29 27.2-51.1-.8-24-20.3-42.5-44.4-42.6-1.8.1-3.6 0-5.3.3-24.9 3.5-45.1 17.6-52.6 45.9-7.4 28 11 56.5 43.8 57.4.3.1.8.1 1.2.1m-174.7-183.7c-7.2 0-14.7.6-22.5 1.8-25.3 4-47.6 13.3-66.4 27.8-29.2 22.4-48.1 50.3-56 82.9-7.7 31.8-4.2 61.7 10.5 88.9 13.1 24.2 33.7 42.1 61.1 53 14 5.5 28.9 8.4 44.5 8.4 8.2 0 16.8-.8 25.5-2.3 29.7-5.3 54.9-18.5 75.4-39.3 11 12.6 24.9 22.8 41.6 30.5 16.6 7.7 34.1 11.6 52.1 11.6h2.5c22.1-.4 42.7-5.1 61.4-14 35.9-17 61.5-43.3 75.9-78.4 13.2-31.6 8-65.5 7.3-69.6-7.7-45.5-36-77.7-82-93.1-11.1-3.7-22.8-5.5-35.7-5.5-6.1 0-12.5.4-19.5 1.2-17.2 2.1-32.7 6.1-47.1 12.4-14.2 6.1-27.2 14.7-38.8 25.6-3.7-4.5-7.7-8.7-12.1-12.5-12.4-11-27.4-19.2-44.5-24.4-10.5-3.4-21.7-5-33.2-5zm185.8 108.2h2.2c8.9.3 15.8 6.8 16 15.5.4 11.8-4 19.8-14.7 26.9-7.1 4.7-11.7 5.3-14.6 5.3h-.5c-6.6-.2-11.8-2.5-14.9-6.8-3.1-4.2-4.1-9.8-2.6-15.4 2.1-7.9 5.5-13.7 10.5-17.8 4.7-4.1 10.9-6.6 18.6-7.7z"/><path d="M-432.2 90.1c-4-7.3-.3-18.9 7.5-23.2 6.1-3.3 7.6-11.5 1.4-14.7-7.2-3.7-17.2-5.3-29 1.2-13 7.1-17.8 18.2-19.1 27.4-1 6.9-4 13.8-10.1 17.3l-61.9 35.3c-8.5 4.8-11.3 15.7-6.2 24 4.9 8.1 15.4 10.7 23.6 5.9l55.8-32.9c8.1-4.8 20.2-2.4 29.3-.2 8.3 2 18.9 1.7 28.6-3.6 11.1-6.1 15.8-15.6 16.8-23.9 1-7.3-6.9-10.1-13.3-6.6-7.6 4.4-19.4 1.3-23.4-6z" style="fill:#fff;stroke:#fff;stroke-width:58;stroke-linecap:round"/><path d="M-432.2 90.1c-4-7.3-.3-18.9 7.5-23.2 6.1-3.3 7.6-11.5 1.4-14.7-7.2-3.7-17.2-5.3-29 1.2-13 7.1-17.8 18.2-19.1 27.4-1 6.9-4 13.8-10.1 17.3l-61.9 35.3c-8.5 4.8-11.3 15.7-6.2 24 4.9 8.1 15.4 10.7 23.6 5.9l55.8-32.9c8.1-4.8 20.2-2.4 29.3-.2 8.3 2 18.9 1.7 28.6-3.6 11.1-6.1 15.8-15.6 16.8-23.9 1-7.3-6.9-10.1-13.3-6.6-7.6 4.4-19.4 1.3-23.4-6z" style="fill:#fff;stroke:#002e42;stroke-width:28;stroke-linecap:round"/></svg>