<svg version="1.1" id="Layer_1" xmlns="http://www.w3.org/2000/svg" x="0" y="0" viewBox="0 0 32 32" style="enable-background:new 0 0 32 32" xml:space="preserve"><style>.st0{fill:none;stroke:#002e42;stroke-width:2;stroke-miterlimit:10}.st1{fill:#002e42}.st2{fill:none;stroke:#002e42;stroke-width:2;stroke-linecap:round;stroke-linejoin:round;stroke-miterlimit:10}</style><path class="st0" d="M25.7 26.2c0-.2.1-.4.1-.6V12.3c0-1.9-1.9-10.9-10.1-10.9-9 0-9.4 11.3-9.4 11.3v12.9c0 .3 0 .5.1.8m5.6 2.7c1 .1 2.2.2 3.5.2 1.8 0 3.3-.1 4.7-.3"/><path class="st0" d="M20.9 12.2c1-1 .9-2.8-.3-3.9-1.2-1.2-2.9-1.3-3.9-.3s-.9 2.8.3 3.9c1.1 1.2 2.9 1.3 3.9.3z"/><path class="st0" d="M14.9 11.9c1.2-1.2 1.3-2.9.3-3.9s-2.8-.9-3.9.3-1.3 2.9-.3 3.9 2.8.9 3.9-.3z"/><path class="st1" d="M14 11.4c.5 0 .9-.4.9-.9s-.4-.9-.9-.9-.9.4-.9.9c-.1.5.4.9.9.9zm.8 4.1c.3 0 .5-.3.5-.6s-.2-.6-.5-.6-.5.3-.5.6.3.6.5.6zm2.3 0c.3 0 .5-.3.5-.6s-.2-.6-.5-.6-.5.3-.5.6.2.6.5.6zm.9-4.1c.5 0 .9-.4.9-.9s-.4-.9-.9-.9-.9.4-.9.9.4.9.9.9z"/><path class="st0" d="M22.5 14.4c.2-.1.4-.3.6-.5 1-1 1.4-2.3 1.4-3.7-.1-1.3-.7-2.6-1.7-3.6-1.1-1.1-2.5-1.7-4-1.7-1.1 0-2.1.4-2.9 1-.8-.6-1.8-1-2.9-1-1.4 0-2.9.6-4 1.7-1 1-1.6 2.3-1.7 3.6-.1 1.4.4 2.8 1.4 3.7.2.2.4.4.6.5-1.1.7-1.8 1.6-1.8 2.6 0 2.3 3.8 4.1 8.5 4.1s8.5-1.8 8.5-4.1c-.1-1-.8-1.9-2-2.6z"/><path class="st2" d="M11.4 17.1s2.3 1.3 4.7 1.3 4.3-1.3 4.3-1.3"/><path class="st0" d="M6.1 13.3c-.5.3-1 .5-1.6.5-1.6 0-2.9-1.3-2.9-3 0-1.6 1.3-3 2.9-3 1 0 1.8.5 2.4 1.3m19.2 4.2c.5.3 1 .5 1.6.5 1.6 0 2.9-1.3 2.9-3 0-1.6-1.3-3-2.9-3-1 0-1.8.5-2.4 1.3"/><path class="st1" d="M5 12.1c.6 0 1.2-.5 1.2-1.2 0-.6-.5-1.2-1.2-1.2-.6 0-1.2.5-1.2 1.2 0 .6.5 1.2 1.2 1.2zm21.9 0c.6 0 1.2-.5 1.2-1.2 0-.6-.5-1.2-1.2-1.2-.6 0-1.2.5-1.2 1.2 0 .6.6 1.2 1.2 1.2z"/><path class="st2" d="M12 29c0-1.9-1.7-3.5-3.7-3.5-2.1 0-3.7 1.5-3.7 3.5h0v.2c0 .7.6 1.4 1.3 1.4.5 0 1-.3 1.2-.8.2.5.7.8 1.2.8s1-.3 1.2-.8c.2.5.7.8 1.2.8.7 0 1.3-.6 1.3-1.4.1-.1 0-.2 0-.2h0zm15.6 0c0-1.9-1.7-3.5-3.7-3.5S20.2 27 20.2 29h0v.2c0 .7.6 1.4 1.3 1.4.5 0 1-.3 1.2-.8.2.5.7.8 1.2.8s1-.3 1.2-.8c.2.5.7.8 1.2.8.7 0 1.3-.6 1.3-1.4V29h0z"/><path class="st0" d="M5.8 18.3S2 17.2 2.2 21.1c.2 3.9 1.2 4 1.2 4h2.7l-.3-6.8z"/><path class="st2" d="M3.4 25.1S-.8 27 1.9 28s3.5-1.3 3.5-1.3l.7-1.6"/><path class="st0" d="M25.8 18.3s3.8-1.1 3.6 2.8c-.2 3.9-1.2 4-1.2 4h-2.7l.3-6.8z"/><path class="st2" d="M28.2 25.1s5.2 2.2 1.5 2.9c-2.3.4-3.1-1.3-3.1-1.3l-1.1-1.6"/></svg>