<?xml version="1.0" encoding="utf-8"?>
<!-- Generator: Adobe Illustrator 25.0.0, SVG Export Plug-In . SVG Version: 6.00 Build 0)  -->
<svg version="1.1" id="Layer_1" xmlns="http://www.w3.org/2000/svg" xmlns:xlink="http://www.w3.org/1999/xlink" x="0px" y="0px"
	 viewBox="0 0 32 32" style="enable-background:new 0 0 32 32;" xml:space="preserve">
<style type="text/css">
	.st0{fill:none;stroke:#002E42;stroke-width:2;stroke-miterlimit:10;}
	.st1{fill:#002E42;}
	.st2{fill:none;stroke:#002E42;stroke-width:2;stroke-linecap:round;stroke-linejoin:round;stroke-miterlimit:10;}
</style>
<path class="st0" d="M25.7,26.2c0-0.2,0.1-0.4,0.1-0.6l0-13.3c0-1.9-1.9-10.9-10.1-10.9c-9,0-9.4,11.3-9.4,11.3v12.9
	c0,0.3,0,0.5,0.1,0.8"/>
<path class="st0" d="M12,29.1c1,0.1,2.2,0.2,3.5,0.2c1.8,0,3.3-0.1,4.7-0.3"/>
<path class="st0" d="M20.9,12.2c1-1,0.9-2.8-0.3-3.9C19.4,7.1,17.7,7,16.7,8c-1,1-0.9,2.8,0.3,3.9C18.1,13.1,19.9,13.2,20.9,12.2z"
	/>
<path class="st0" d="M14.9,11.9c1.2-1.2,1.3-2.9,0.3-3.9c-1-1-2.8-0.9-3.9,0.3S10,11.2,11,12.2C12,13.2,13.8,13.1,14.9,11.9z"/>
<path class="st1" d="M14,11.4c0.5,0,0.9-0.4,0.9-0.9c0-0.5-0.4-0.9-0.9-0.9c-0.5,0-0.9,0.4-0.9,0.9C13,11,13.5,11.4,14,11.4z"/>
<path class="st1" d="M14.8,15.5c0.3,0,0.5-0.3,0.5-0.6s-0.2-0.6-0.5-0.6s-0.5,0.3-0.5,0.6S14.6,15.5,14.8,15.5z"/>
<path class="st1" d="M17.1,15.5c0.3,0,0.5-0.3,0.5-0.6s-0.2-0.6-0.5-0.6s-0.5,0.3-0.5,0.6S16.8,15.5,17.1,15.5z"/>
<path class="st1" d="M18,11.4c0.5,0,0.9-0.4,0.9-0.9c0-0.5-0.4-0.9-0.9-0.9c-0.5,0-0.9,0.4-0.9,0.9C17.1,11,17.5,11.4,18,11.4z"/>
<path class="st0" d="M22.5,14.4c0.2-0.1,0.4-0.3,0.6-0.5c1-1,1.4-2.3,1.4-3.7c-0.1-1.3-0.7-2.6-1.7-3.6c-1.1-1.1-2.5-1.7-4-1.7
	c-1.1,0-2.1,0.4-2.9,1c-0.8-0.6-1.8-1-2.9-1c-1.4,0-2.9,0.6-4,1.7c-1,1-1.6,2.3-1.7,3.6c-0.1,1.4,0.4,2.8,1.4,3.7
	c0.2,0.2,0.4,0.4,0.6,0.5C8.2,15.1,7.5,16,7.5,17c0,2.3,3.8,4.1,8.5,4.1s8.5-1.8,8.5-4.1C24.4,16,23.7,15.1,22.5,14.4z"/>
<path class="st2" d="M11.4,17.1c0,0,2.3,1.3,4.7,1.3s4.3-1.3,4.3-1.3"/>
<path class="st0" d="M6.1,13.3c-0.5,0.3-1,0.5-1.6,0.5c-1.6,0-2.9-1.3-2.9-3c0-1.6,1.3-3,2.9-3c1,0,1.8,0.5,2.4,1.3"/>
<path class="st0" d="M26.1,13.3c0.5,0.3,1,0.5,1.6,0.5c1.6,0,2.9-1.3,2.9-3c0-1.6-1.3-3-2.9-3c-1,0-1.8,0.5-2.4,1.3"/>
<path class="st1" d="M5,12.1c0.6,0,1.2-0.5,1.2-1.2c0-0.6-0.5-1.2-1.2-1.2c-0.6,0-1.2,0.5-1.2,1.2C3.8,11.5,4.3,12.1,5,12.1z"/>
<path class="st1" d="M26.9,12.1c0.6,0,1.2-0.5,1.2-1.2c0-0.6-0.5-1.2-1.2-1.2c-0.6,0-1.2,0.5-1.2,1.2C25.7,11.5,26.3,12.1,26.9,12.1
	z"/>
<path class="st2" d="M12,29c0-1.9-1.7-3.5-3.7-3.5c-2.1,0-3.7,1.5-3.7,3.5h0c0,0.1,0,0.1,0,0.2c0,0.7,0.6,1.4,1.3,1.4
	c0.5,0,1-0.3,1.2-0.8c0.2,0.5,0.7,0.8,1.2,0.8c0.5,0,1-0.3,1.2-0.8c0.2,0.5,0.7,0.8,1.2,0.8c0.7,0,1.3-0.6,1.3-1.4
	C12.1,29.1,12,29,12,29L12,29L12,29z"/>
<path class="st2" d="M27.6,29c0-1.9-1.7-3.5-3.7-3.5s-3.7,1.5-3.7,3.5h0c0,0.1,0,0.1,0,0.2c0,0.7,0.6,1.4,1.3,1.4
	c0.5,0,1-0.3,1.2-0.8c0.2,0.5,0.7,0.8,1.2,0.8c0.5,0,1-0.3,1.2-0.8c0.2,0.5,0.7,0.8,1.2,0.8c0.7,0,1.3-0.6,1.3-1.4
	C27.6,29.1,27.6,29,27.6,29L27.6,29L27.6,29z"/>
<path class="st0" d="M5.8,18.3c0,0-3.8-1.1-3.6,2.8c0.2,3.9,1.2,4,1.2,4h2.7L5.8,18.3z"/>
<path class="st2" d="M3.4,25.1c0,0-4.2,1.9-1.5,2.9c2.7,1,3.5-1.3,3.5-1.3l0.7-1.6"/>
<path class="st0" d="M25.8,18.3c0,0,3.8-1.1,3.6,2.8c-0.2,3.9-1.2,4-1.2,4h-2.7L25.8,18.3z"/>
<path class="st2" d="M28.2,25.1c0,0,5.2,2.2,1.5,2.9c-2.3,0.4-3.1-1.3-3.1-1.3l-1.1-1.6"/>
</svg>
