<svg version="1.1" id="Layer_1" xmlns="http://www.w3.org/2000/svg" x="0" y="0" viewBox="0 0 32 32" style="enable-background:new 0 0 32 32" xml:space="preserve"><style>.st0{fill:none;stroke:#002e42;stroke-width:2;stroke-linecap:round;stroke-linejoin:round}</style><path class="st0" d="M10.1 14.9c-.8.3-2.5.4-2.5 1.9 0 1.8 9.5 3.2 12.7-.6m-9.6 6.7c.6.6-3.2 1.3-3.2 3.2 0 1.8 9.5 3.2 12.7-.6"/><path class="st0" d="M10.3 18.5c-1.3 0-1.3.4-1.3 2 0 3 6.6 2.8 8.9 1.4m4.9-4c1.1-.4 3.2-.9 3.2.6 0 1.9-1.9 3.2-4.4 3.8m-7.5-9.9c-2.3-.6-6.1-2.5-2.5-5.1 3.6-2.5 2.3-4.4 1.3-5.1m4.8 11.4c.6-.6 1.5-2.3 0-3.8C15.8 7.9 15.8 6 19 4.7"/><path d="M24.4 24.2c-.3-.5 0-1.3.5-1.6.4-.2.5-.8.1-1-.5-.3-1.2-.4-2 .1-.9.5-1.2 1.3-1.3 1.9-.1.5-.3 1-.7 1.2l-4.3 2.4c-.6.3-.8 1.1-.4 1.7.3.6 1.1.7 1.6.4l3.8-2.3c.6-.3 1.4-.2 2 0 .6.1 1.3.1 2-.2.8-.4 1.1-1.1 1.2-1.6.1-.5-.5-.7-.9-.5-.5.2-1.3 0-1.6-.5z" style="fill:#fff;stroke:#fff;stroke-width:4.0417;stroke-linecap:round"/><path d="M24.4 24.2c-.3-.5 0-1.3.5-1.6.4-.2.5-.8.1-1-.5-.3-1.2-.4-2 .1-.9.5-1.2 1.3-1.3 1.9-.1.5-.3 1-.7 1.2l-4.3 2.4c-.6.3-.8 1.1-.4 1.7.3.6 1.1.7 1.6.4l3.8-2.3c.6-.3 1.4-.2 2 0 .6.1 1.3.1 2-.2.8-.4 1.1-1.1 1.2-1.6.1-.5-.5-.7-.9-.5-.5.2-1.3 0-1.6-.5z" style="fill:#fff;stroke:#002e42;stroke-width:1.7;stroke-linecap:round"/></svg>