<svg version="1.1" id="Layer_1" xmlns="http://www.w3.org/2000/svg" x="0" y="0" viewBox="0 0 32 32" style="enable-background:new 0 0 32 32" xml:space="preserve"><style>.st0{fill:none;stroke:#002e42;stroke-width:2;stroke-linecap:round;stroke-linejoin:round}</style><path class="st0" d="M7 23.3v4.1c0 .7-.4 2-2 2m5.1-1V24c0-.5.3-.9.8-.9 1.4 0 3.3.8 3.3 3.2 0 2.3-1.7 2.9-3.1 3-.5.1-1-.3-1-.9zm7.2-5.1v6.1m0-6.1c1.5 0 3.1 0 3.1 1.4 0 1.6-1.5 1.7-3.1 1.7m0 0c1.5 0 3.4 0 3.4 1.5s-1.9 1.8-3.4 1.8m9.2-6.4h-1 0c-1.1 0-2 .9-2 2v2c0 1.4 1.1 2.1 2.6 2.1h.5M12.7 10.6c-.6.2-1.7.3-1.7 1.3 0 1.2 6.5 2.2 8.6-.4M13.2 16c-.4 1-2.2 1.2-2.2 2.2 0 1.2 6 2.5 8.6-.4"/><path class="st0" d="M12.9 13c-.9 0-.9 1-.9 1.4.1 2.4 4.5 2.1 6 .9m3.5-2.5c.4-.6 1.9-.7 1.9.3 0 1.3-1.3 2.2-3 2.6m-5-6.8c-1.6-.4-4.1-1.7-1.7-3.4 2.4-1.7 1.6-3 .9-3.4m3.3 7.6c.4-.4 1-1.5 0-2.6-1.3-1.3-1.3-2.6.9-3.4"/></svg>