<?xml version="1.0" encoding="utf-8"?>
<!-- Generator: Adobe Illustrator 25.0.0, SVG Export Plug-In . SVG Version: 6.00 Build 0)  -->
<svg version="1.1" id="Layer_1" xmlns="http://www.w3.org/2000/svg" xmlns:xlink="http://www.w3.org/1999/xlink" x="0px" y="0px"
	 viewBox="0 0 32 32" style="enable-background:new 0 0 32 32;" xml:space="preserve">
<style type="text/css">
	.st0{fill:#09354A;}
</style>
<g>
	<g>
		<g>
			<path class="st0" d="M22.3,12c0.1,0,0.2,0,0.2,0.2c0,0.6,0,1.1,0,1.7c0,0.2,0,0.2,0.2,0.2c0,0,0,0,0,0c0.9,0,1.8,0,2.7,0
				c0,0,0,0,0,0c0.1,0,0.1,0.1,0.2,0.1c0.1,0.4,0.3,0.8,0.4,1.1c0.3,0.7,0.5,1.4,0.8,2.1c0,0,0,0,0.1,0.1c0,0,0.1-0.1,0.1-0.1
				c0.3-0.6,0.5-1.2,0.8-1.9c0.2-0.4,0.4-0.9,0.6-1.3c0.1-0.1,0.1-0.2,0.2-0.2c0,0,0,0,0,0c0.2,0,0.4,0,0.5,0c0.3,0,0.5,0,0.8,0
				c0,0,0,0,0,0c0.1,0,0.1,0,0.1,0.1c-0.4,1-0.9,2.1-1.3,3.1c-0.4,0.8-0.7,1.7-1.1,2.5c-0.3,0.7-0.6,1.4-0.9,2.1
				c0,0.1-0.1,0.2-0.2,0.2c0,0,0,0,0,0c-0.2,0-0.2,0-0.3,0c-0.1,0-0.1,0-0.4,0c0,0,0,0,0,0c0,0-0.4,0-0.5,0c-0.3,0-0.1-0.3-0.1-0.4
				c0.3-0.7,0.6-1.4,0.9-2.2c0-0.1,0-0.2,0-0.3c-0.4-1-0.9-2-1.3-3c-0.1-0.2-0.2-0.5-0.3-0.7c0-0.1-0.1-0.1-0.2-0.1c0,0,0,0,0,0
				c-0.2,0-0.4,0-0.7,0c-0.3,0-0.6,0-0.9,0c0,0,0,0,0,0c-0.1,0-0.1,0-0.1,0.1c0,0.8,0,1.6,0,2.4c0,0.4,0.3,0.7,0.7,0.7
				c0.2,0,0.4,0,0.6,0c0.1,0,0.1,0,0.1,0.1c0,0.4,0,0.8,0,1.2c0,0.1,0,0.1-0.1,0.1c0,0-0.1,0-0.1,0c-0.4,0-0.9,0-1.3-0.2
				c-0.7-0.2-1.2-0.7-1.4-1.4c-0.1-0.3-0.1-0.7-0.1-1c0-0.7,0-1.3,0-2c0-0.1,0-0.2-0.2-0.2c0,0,0,0,0,0c-0.3,0-0.6,0-0.9,0
				c-0.3,0-0.5,0-0.8,0c0,0,0,0,0,0c-0.1,0-0.2,0-0.2,0.2c0,0.8,0,1.5,0,2.3c0,0.5,0.3,0.8,0.8,0.8c0.1,0,0.1,0,0.2,0
				c0.1,0,0.3,0,0.4,0c0,0.1,0,0.1,0,0.1c0,0.4,0,0.8,0,1.1c0,0.1,0,0.2-0.2,0.2c0,0,0,0,0,0c-0.5,0-1,0-1.4-0.2
				c-0.7-0.2-1.1-0.7-1.3-1.4c-0.1-0.3-0.1-0.7-0.1-1c0-0.6,0-1.3,0-1.9c0-0.2,0-0.2-0.2-0.2c0,0,0,0,0,0c0,0,0,0-0.1,0
				c-0.1,0-0.3,0-0.4,0c-0.1,0-0.3,0-0.4,0c0,0,0,0,0,0c-0.1,0-0.2,0-0.2-0.2c0-0.3,0-0.7,0-1c0-0.1,0-0.2,0.2-0.2c0,0,0,0,0,0
				c0.1,0,0.2,0,0.2,0c0.1,0,0.2,0,0.4,0c0.1,0,0.2,0,0.3,0c0,0,0,0,0,0c0.1,0,0.2-0.1,0.2-0.2c0-0.6,0-1.1,0-1.7
				c0-0.2,0-0.2,0.2-0.2c0.1,0,0.3,0,0.4,0c0.2,0,0.4,0,0.7,0c0,0,0.1,0,0.1,0c0,0,0,0,0,0c0.2,0,0.2,0,0.2,0.2c0,0.6,0,1.1,0,1.7
				c0,0.1,0,0.2,0.2,0.2c0,0,0,0,0,0c0.3,0,0.6,0,0.8,0c0.3,0,0.6,0,0.8,0c0,0,0,0,0,0c0.1,0,0.2-0.1,0.2-0.2c0-0.6,0-1.1,0-1.7
				c0-0.2,0-0.2,0.2-0.2c0,0,0,0,0,0c0.2,0,0.5,0,0.7,0C22,12,22.2,12,22.3,12C22.3,12,22.3,12,22.3,12 M22.3,10.2L22.3,10.2
				L22.3,10.2c-0.2,0-0.4,0-0.5,0l-0.3,0l-0.3,0c-0.5,0-0.9,0.1-1.2,0.4c-0.5-0.4-1-0.4-1.2-0.4l-0.1,0l-0.3,0l-0.3,0l-0.4,0
				c-1.1,0-1.9,0.8-1.9,1.9l0,0.2c-0.3,0.1-0.5,0.2-0.7,0.4c-0.4,0.4-0.6,0.9-0.5,1.4c0,0.3,0,0.6,0,0.9c0,0.5,0.2,1,0.5,1.4
				c0.1,0.1,0.4,0.3,0.7,0.4c0,0.2,0,0.3,0,0.5c0,0.5,0.1,1,0.2,1.4c0.3,1.3,1.2,2.2,2.5,2.7c0.7,0.2,1.4,0.3,2,0.3
				c0.6,0,1-0.2,1.2-0.4c0.2,0.1,0.3,0.1,0.5,0.2c0.5,0.2,1,0.2,1.4,0.2c0,0.5,0.1,0.9,0.3,1.1c0.4,0.6,1,0.9,1.7,0.9l0.3,0l0.2,0
				l0.3,0l0.1,0c0.1,0,0.1,0,0.3,0c0,0,0,0,0,0c0.9,0,1.6-0.5,1.9-1.3c0.3-0.7,0.6-1.4,0.9-2l0.5-1.1c0.2-0.5,0.4-0.9,0.6-1.4
				c0.3-0.7,0.6-1.3,0.9-2l0.5-1.1c0.4-0.8,0.1-1.5-0.1-1.8c-0.2-0.3-0.7-0.8-1.6-0.8l-0.4,0l-0.4,0c-0.2,0-0.3,0-0.5,0c0,0,0,0,0,0
				c-0.7,0-1.3,0.3-1.6,0.8c-0.4-0.6-1-0.8-1.6-0.8c-0.4,0-0.8,0-1.1,0c0,0,0-0.1,0-0.1c0-0.7-0.3-1.2-0.5-1.4
				C23.4,10.4,22.9,10.2,22.3,10.2L22.3,10.2z"/>
		</g>
	</g>
	<g>
		<g>
			<path class="st0" d="M11.6,13.9c0.1,0,0.2,0,0.3,0c1,0.1,1.7,0.6,2.1,1.5c0.3,0.6,0.4,1.1,0.3,1.8c0,0.2,0,0.2-0.2,0.2
				c-0.3,0-0.6,0-0.8,0c-0.3,0-0.7,0-1,0c0,0,0,0,0,0c-0.3,0-0.7,0-1,0c-0.3,0-0.6,0-0.8,0c-0.2,0-0.2,0-0.2,0.2
				c0.1,0.6,0.6,1.1,1.2,1.2c0.1,0,0.2,0,0.4,0c0.5,0,1-0.2,1.4-0.6c0,0,0.1-0.1,0.1-0.1c0,0,0.1,0,0.1,0.1c0.2,0.2,0.5,0.5,0.7,0.7
				c0.1,0.1,0.1,0.2,0,0.2c-0.4,0.4-0.9,0.7-1.4,0.8c-0.3,0.1-0.6,0.1-1,0.1c-0.4,0-0.8-0.1-1.2-0.2c-0.9-0.3-1.4-1-1.7-1.8
				c-0.2-0.6-0.2-1.2-0.1-1.9C9.2,14.8,10.2,13.9,11.6,13.9 M11,16.2c0.2,0,0.4,0,0.6,0c0,0,0,0,0,0c0.2,0,0.4,0,0.6,0
				c0.2,0,0.3,0,0.5,0c0.1,0,0.2,0,0.1-0.2c0-0.1-0.1-0.2-0.1-0.3c-0.2-0.4-0.6-0.6-1-0.6c-0.2,0-0.5,0.1-0.7,0.2
				c-0.2,0.2-0.4,0.4-0.5,0.6c-0.1,0.2,0,0.2,0.1,0.2C10.7,16.2,10.8,16.2,11,16.2 M11.6,12.2c-2.1,0-3.9,1.4-4.4,3.6
				c-0.2,0.9-0.2,1.9,0.1,2.8c0.4,1.4,1.4,2.4,2.7,3c0.6,0.2,1.2,0.3,1.8,0.3c0.5,0,0.9-0.1,1.4-0.2c0.8-0.2,1.5-0.6,2.2-1.3
				c0.5-0.5,0.6-1.1,0.6-1.4c0-0.2-0.1-0.5-0.1-0.7c0.2-0.3,0.3-0.6,0.3-1c0.1-1-0.1-1.9-0.5-2.7c-0.7-1.4-2-2.3-3.5-2.4
				C11.9,12.2,11.8,12.2,11.6,12.2L11.6,12.2z"/>
		</g>
	</g>
	<g>
		<g>
			<path class="st0" d="M5.3,12C5.3,12,5.3,12,5.3,12c0.2,0,0.4,0,0.6,0c0.2,0,0.4,0,0.7,0c0,0,0,0,0,0c0.2,0,0.2,0,0.2,0.2
				c0,0.9,0,1.9,0,2.8c0,0,0,0,0,0c0,0.8,0,1.6,0,2.4c0,0.4,0,0.8-0.2,1.2c-0.2,0.6-0.7,1-1.2,1.3C5,20,4.6,20.1,4.2,20.1
				c-0.5,0-1-0.1-1.5-0.4c-0.3-0.2-0.5-0.5-0.7-0.8c0-0.1,0-0.1,0-0.2C2.4,18.5,2.7,18.2,3,18c0,0,0.1,0,0.1,0c0,0,0.1,0,0.1,0.1
				c0.2,0.3,0.4,0.5,0.8,0.6c0.1,0,0.2,0,0.2,0c0.4,0,0.8-0.3,0.9-0.8c0-0.1,0-0.3,0-0.4c0-1.8,0-3.5,0-5.3C5.1,12,5.2,12,5.3,12
				 M5.3,10.2c-0.5,0-1,0.2-1.4,0.6c-0.3,0.3-0.6,0.7-0.6,1.4c0,1.3,0,2.7,0,4c-0.1,0-0.2,0-0.3,0c-0.3,0-0.7,0.1-1.1,0.4l-0.3,0.2
				c-0.2,0.2-0.4,0.3-0.7,0.5c-0.8,0.6-1,1.6-0.6,2.4c0.3,0.6,0.8,1.1,1.3,1.4c0.8,0.5,1.6,0.7,2.4,0.7c0.6,0,1.2-0.1,1.9-0.4
				c1-0.4,1.8-1.2,2.2-2.2c0.3-0.6,0.3-1.3,0.3-1.8l0-1.7l0-0.7l0-2.8c0-1.2-0.8-2-2-2l-0.3,0l-0.3,0C5.7,10.2,5.5,10.2,5.3,10.2
				L5.3,10.2L5.3,10.2L5.3,10.2z"/>
		</g>
	</g>
</g>
</svg>
