<svg version="1.1" id="Layer_1" xmlns="http://www.w3.org/2000/svg" x="0" y="0" viewBox="0 0 32 32" style="enable-background:new 0 0 32 32" xml:space="preserve"><style>.st0{fill:#09354a}</style><path class="st0" d="M22.3 12c.1 0 .2 0 .2.2v1.7c0 .2 0 .2.2.2h2.7c.1 0 .1.1.2.1.1.4.3.8.4 1.1.3.7.5 1.4.8 2.1l.1.1.1-.1c.3-.6.5-1.2.8-1.9.2-.4.4-.9.6-1.3.1-.1.1-.2.2-.2h1.3c.1 0 .1 0 .1.1-.4 1-.9 2.1-1.3 3.1-.4.8-.7 1.7-1.1 2.5l-.9 2.1c0 .1-.1.2-.2.2h-1.2c-.3 0-.1-.3-.1-.4.3-.7.6-1.4.9-2.2v-.3c-.4-1-.9-2-1.3-3-.1-.2-.2-.5-.3-.7 0-.1-.1-.1-.2-.1h-1.6c-.1 0-.1 0-.1.1v2.4c0 .4.3.7.7.7h.6c.1 0 .1 0 .1.1v1.2c0 .1 0 .1-.1.1h-.1c-.4 0-.9 0-1.3-.2-.7-.2-1.2-.7-1.4-1.4-.1-.3-.1-.7-.1-1v-2c0-.1 0-.2-.2-.2h-1.7c-.1 0-.2 0-.2.2v2.3c0 .5.3.8.8.8h.6v1.2c0 .1 0 .2-.2.2-.5 0-1 0-1.4-.2-.7-.2-1.1-.7-1.3-1.4-.1-.3-.1-.7-.1-1v-1.9c0-.2 0-.2-.2-.2h-.9c-.1 0-.2 0-.2-.2v-1c0-.1 0-.2.2-.2h.9c.1 0 .2-.1.2-.2v-1.7c0-.2 0-.2.2-.2h1.2c.2 0 .2 0 .2.2v1.7c0 .1 0 .2.2.2h1.6c.1 0 .2-.1.2-.2v-1.7c0-.2 0-.2.2-.2h.7c.2.4.4.4.5.4m0-1.8h-1.1c-.5 0-.9.1-1.2.4-.5-.4-1-.4-1.2-.4h-1.1c-1.1 0-1.9.8-1.9 1.9v.2c-.3.1-.5.2-.7.4-.4.4-.6.9-.5 1.4v.9c0 .5.2 1 .5 1.4.1.1.4.3.7.4v.5c0 .5.1 1 .2 1.4.3 1.3 1.2 2.2 2.5 2.7.7.2 1.4.3 2 .3.6 0 1-.2 1.2-.4.2.1.3.1.5.2.5.2 1 .2 1.4.2 0 .5.1.9.3 1.1.4.6 1 .9 1.7.9h1.2c.9 0 1.6-.5 1.9-1.3.3-.7.6-1.4.9-2l.5-1.1c.2-.5.4-.9.6-1.4.3-.7.6-1.3.9-2l.5-1.1c.4-.8.1-1.5-.1-1.8-.2-.3-.7-.8-1.6-.8h-1.3c-.7 0-1.3.3-1.6.8-.4-.6-1-.8-1.6-.8h-1.1v-.1c0-.7-.3-1.2-.5-1.4-.9-.3-1.4-.5-2-.5z"/><path class="st0" d="M11.6 13.9h.3c1 .1 1.7.6 2.1 1.5.3.6.4 1.1.3 1.8 0 .2 0 .2-.2.2h-3.6c-.2 0-.2 0-.2.2.1.6.6 1.1 1.2 1.2h.4c.5 0 1-.2 1.4-.6l.1-.1s.1 0 .1.1l.7.7c.1.1.1.2 0 .2-.4.4-.9.7-1.4.8-.3.1-.6.1-1 .1s-.8-.1-1.2-.2c-.9-.3-1.4-1-1.7-1.8-.2-.6-.2-1.2-.1-1.9.4-1.3 1.4-2.2 2.8-2.2m-.6 2.3h1.7c.1 0 .2 0 .1-.2 0-.1-.1-.2-.1-.3-.2-.4-.6-.6-1-.6-.2 0-.5.1-.7.2-.2.2-.4.4-.5.6-.1.2 0 .2.1.2.1.1.2.1.4.1m.6-4c-2.1 0-3.9 1.4-4.4 3.6-.2.9-.2 1.9.1 2.8.4 1.4 1.4 2.4 2.7 3 .6.2 1.2.3 1.8.3.5 0 .9-.1 1.4-.2.8-.2 1.5-.6 2.2-1.3.5-.5.6-1.1.6-1.4 0-.2-.1-.5-.1-.7.2-.3.3-.6.3-1 .1-1-.1-1.9-.5-2.7-.7-1.4-2-2.3-3.5-2.4h-.6z"/><path class="st0" d="M5.3 12h1.3c.2 0 .2 0 .2.2v5.2c0 .4 0 .8-.2 1.2-.2.6-.7 1-1.2 1.3-.4.1-.8.2-1.2.2-.5 0-1-.1-1.5-.4-.3-.2-.5-.5-.7-.8v-.2c.4-.2.7-.5 1-.7h.1s.1 0 .1.1c.2.3.4.5.8.6h.2c.4 0 .8-.3.9-.8v-5.7c0-.2.1-.2.2-.2m0-1.8c-.5 0-1 .2-1.4.6-.3.3-.6.7-.6 1.4v4H3c-.3 0-.7.1-1.1.4l-.3.2c-.2.2-.4.3-.7.5-.8.6-1 1.6-.6 2.4.3.6.8 1.1 1.3 1.4.8.5 1.6.7 2.4.7.6 0 1.2-.1 1.9-.4 1-.4 1.8-1.2 2.2-2.2.3-.6.3-1.3.3-1.8v-5.2c0-1.2-.8-2-2-2H5.3z"/></svg>