<svg xmlns="http://www.w3.org/2000/svg" viewBox="0 0 32 32" style="enable-background:new 0 0 32 32" xml:space="preserve"><path d="M17.1 9.9V3.3c0-.2 0-.2.2-.2h11.5c.2 0 .2.1.2.2 0 1.3-.2 2.7-.3 4.1 0 .1-.1.1-.2.1H22c-.2 0-.2 0-.2.2v4.2c0 .2 0 .2.2.2h5.9c.3 0 .3 0 .2.2-.2 2.5-.4 5-.7 7.5-.2 2-.4 4-.5 6.1 0 .1-.1.2-.2.2-2.8.6-5.5 1.3-8.3 1.9l-1.2.3c-.1 0-.2 0-.2-.1v-4.4c0-.1.1-.2.2-.2 1.7-.3 3.5-.6 5.2-.9.2 0 .2-.1.3-.3.2-1.8.3-3.6.5-5.4v-.1c0-.2 0-.2-.2-.2h-5.7c-.3 0-.3 0-.3-.3.1-2.1.1-4.3.1-6.5zm-3 5.8v12.5c0 .2 0 .2-.2.2-3.6-.7-7.3-1.5-10.9-2.2-.2 0-.2-.1-.2-.3-.2-1.7-.3-3.4-.5-5.2 0-.5-.1-1-.1-1.6 0-.1 0-.2.2-.2h4.2c.1 0 .2 0 .2.2l.3 3.3c0 .1.1.2.2.2.7.1 1.5.2 2.2.3.2 0 .2 0 .2-.2V7.6c0-.2-.1-.2-.2-.2H4.7c-.2 0-.2 0-.2-.2-.3-1.2-.4-2.6-.5-4 0-.1 0-.2.2-.2h9.7c.2 0 .2 0 .2.2v12.5z" style="fill:none;stroke:#002e42;stroke-width:2;stroke-linecap:round"/><path d="M27.5 24.3c-.3-.5 0-1.2.5-1.5.4-.2.5-.7.1-.9-.5-.2-1.1-.3-1.9.1-.8.5-1.1 1.2-1.2 1.8-.1.4-.3.9-.6 1.1l-4 2.3c-.5.3-.7 1-.4 1.5.3.5 1 .7 1.5.4l3.6-2.1c.5-.3 1.3-.2 1.9 0 .5.1 1.2.1 1.8-.2.7-.4 1-1 1.1-1.5.1-.5-.4-.7-.9-.4-.5.1-1.2-.1-1.5-.6z" style="fill:#fff;stroke:#fff;stroke-width:3.78;stroke-linecap:round"/><path d="M27.5 24.3c-.3-.5 0-1.2.5-1.5.4-.2.5-.7.1-.9-.5-.2-1.1-.3-1.9.1-.8.5-1.1 1.2-1.2 1.8-.1.4-.3.9-.6 1.1l-4 2.3c-.5.3-.7 1-.4 1.5.3.5 1 .7 1.5.4l3.6-2.1c.5-.3 1.3-.2 1.9 0 .5.1 1.2.1 1.8-.2.7-.4 1-1 1.1-1.5.1-.5-.4-.7-.9-.4-.5.1-1.2-.1-1.5-.6z" style="fill:#fff;stroke:#002e42;stroke-width:1.82;stroke-linecap:round"/></svg>