<?xml version="1.0" encoding="utf-8"?>
<!-- Generator: Adobe Illustrator 25.0.0, SVG Export Plug-In . SVG Version: 6.00 Build 0)  -->
<svg version="1.1" id="Layer_1" xmlns="http://www.w3.org/2000/svg" xmlns:xlink="http://www.w3.org/1999/xlink" x="0px" y="0px"
	 viewBox="0 0 32 32" style="enable-background:new 0 0 32 32;" xml:space="preserve">
<style type="text/css">
	.st0{fill:none;stroke:#002E42;stroke-width:2;stroke-linecap:round;}
	.st1{fill:#FFFFFF;stroke:#FFFFFF;stroke-width:3.78;stroke-linecap:round;}
	.st2{fill:#FFFFFF;stroke:#002E42;stroke-width:1.82;stroke-linecap:round;}
</style>
<path class="st0" d="M17.1,9.9c0-2.2,0-4.4,0-6.6c0-0.2,0-0.2,0.2-0.2c3.8,0,7.7,0,11.5,0c0.2,0,0.2,0.1,0.2,0.2
	C29,4.6,28.8,6,28.7,7.4c0,0.1-0.1,0.1-0.2,0.1c-0.4,0-0.8,0-1.3,0c-1.7,0-3.4,0-5.2,0c-0.2,0-0.2,0-0.2,0.2c0,1.4,0,2.8,0,4.2
	c0,0.2,0,0.2,0.2,0.2c2,0,3.9,0,5.9,0c0.3,0,0.3,0,0.2,0.2c-0.2,2.5-0.4,5-0.7,7.5c-0.2,2-0.4,4-0.5,6.1c0,0.1-0.1,0.2-0.2,0.2
	c-2.8,0.6-5.5,1.3-8.3,1.9c-0.4,0.1-0.8,0.2-1.2,0.3c-0.1,0-0.2,0-0.2-0.1c0-1.5,0-2.9,0-4.4c0-0.1,0.1-0.2,0.2-0.2
	c1.7-0.3,3.5-0.6,5.2-0.9c0.2,0,0.2-0.1,0.3-0.3c0.2-1.8,0.3-3.6,0.5-5.4c0,0,0,0,0-0.1c0-0.2,0-0.2-0.2-0.2c-1.9,0-3.8,0-5.7,0
	c-0.3,0-0.3,0-0.3-0.3C17.1,14.3,17.1,12.1,17.1,9.9z"/>
<path class="st0" d="M14.1,15.7c0,4.2,0,8.3,0,12.5c0,0.2,0,0.2-0.2,0.2c-3.6-0.7-7.3-1.5-10.9-2.2c-0.2,0-0.2-0.1-0.2-0.3
	c-0.2-1.7-0.3-3.4-0.5-5.2c0-0.5-0.1-1-0.1-1.6c0-0.1,0-0.2,0.2-0.2c1.4,0,2.8,0,4.2,0c0.1,0,0.2,0,0.2,0.2c0.1,1.1,0.2,2.2,0.3,3.3
	c0,0.1,0.1,0.2,0.2,0.2c0.7,0.1,1.5,0.2,2.2,0.3c0.2,0,0.2,0,0.2-0.2c0-5,0-10.1,0-15.1c0-0.2-0.1-0.2-0.2-0.2c-1.6,0-3.2,0-4.8,0
	c-0.2,0-0.2,0-0.2-0.2C4.2,6,4.1,4.6,4,3.2C4,3.1,4,3,4.2,3c3.2,0,6.5,0,9.7,0c0.2,0,0.2,0,0.2,0.2C14.1,7.4,14.1,11.6,14.1,15.7z"
	/>
<g>
	<path class="st1" d="M27.5,24.3c-0.3-0.5,0-1.2,0.5-1.5c0.4-0.2,0.5-0.7,0.1-0.9c-0.5-0.2-1.1-0.3-1.9,0.1
		c-0.8,0.5-1.1,1.2-1.2,1.8c-0.1,0.4-0.3,0.9-0.6,1.1l-4,2.3c-0.5,0.3-0.7,1-0.4,1.5c0.3,0.5,1,0.7,1.5,0.4l3.6-2.1
		c0.5-0.3,1.3-0.2,1.9,0c0.5,0.1,1.2,0.1,1.8-0.2c0.7-0.4,1-1,1.1-1.5c0.1-0.5-0.4-0.7-0.9-0.4C28.5,25,27.8,24.8,27.5,24.3z"/>
	<path class="st2" d="M27.5,24.3c-0.3-0.5,0-1.2,0.5-1.5c0.4-0.2,0.5-0.7,0.1-0.9c-0.5-0.2-1.1-0.3-1.9,0.1
		c-0.8,0.5-1.1,1.2-1.2,1.8c-0.1,0.4-0.3,0.9-0.6,1.1l-4,2.3c-0.5,0.3-0.7,1-0.4,1.5c0.3,0.5,1,0.7,1.5,0.4l3.6-2.1
		c0.5-0.3,1.3-0.2,1.9,0c0.5,0.1,1.2,0.1,1.8-0.2c0.7-0.4,1-1,1.1-1.5c0.1-0.5-0.4-0.7-0.9-0.4C28.5,25,27.8,24.8,27.5,24.3z"/>
</g>
</svg>
