<?xml version="1.0" encoding="utf-8"?>
<!-- Generator: Adobe Illustrator 25.0.0, SVG Export Plug-In . SVG Version: 6.00 Build 0)  -->
<svg version="1.1" id="Layer_1" xmlns="http://www.w3.org/2000/svg" xmlns:xlink="http://www.w3.org/1999/xlink" x="0px" y="0px"
	 viewBox="0 0 32 32" style="enable-background:new 0 0 32 32;" xml:space="preserve">
<style type="text/css">
	.st0{fill:none;stroke:#002E42;stroke-width:2;stroke-linecap:round;stroke-linejoin:round;}
</style>
<rect x="3.8" y="10.4" class="st0" width="16.7" height="10.4"/>
<path class="st0" d="M5.1,7.1h18.7v12.2"/>
<path class="st0" d="M8.2,4h18.7v12.2"/>
<path class="st0" d="M2.1,24.8h20.5c0.3,0,0.5-0.1,0.7-0.3l6.5-6.4c0.1-0.1,0.2,0,0.2,0.1V22c0,0,0,0,0,0.1l-5.5,5.7
	C24.2,27.9,24,28,23.7,28H2.1C2,28,2,28,2,27.9v-3C2,24.8,2,24.8,2.1,24.8z"/>
</svg>
