<?xml version="1.0" encoding="utf-8"?>
<!-- Generator: Adobe Illustrator 25.0.0, SVG Export Plug-In . SVG Version: 6.00 Build 0)  -->
<svg version="1.1" id="Layer_1" xmlns="http://www.w3.org/2000/svg" xmlns:xlink="http://www.w3.org/1999/xlink" x="0px" y="0px"
	 viewBox="0 0 32 32" style="enable-background:new 0 0 32 32;" xml:space="preserve">
<style type="text/css">
	.st0{fill:none;stroke:#002E42;stroke-width:2;stroke-linecap:round;}
</style>
<path class="st0" d="M27.6,19.1c-0.7-0.9-2.6-2.9-4-3.6c-1.8-0.9,1.3-1.8,2.7-1.3c1.3,0.4-0.4-2.2-4.5-3.1c-4-0.9-1.5-2.7-5.5-5.8
	c-2.7-2.1-4.7-2.7-5.7-2.7c-0.3,0-0.7-0.1-0.9-0.3c-0.9-0.7-2.3-1.6-3.2-1C5.1,2.1,8.7,4.3,8.7,5.7C8.7,7,9.1,8.4,10,9.4
	c0.6,0.7-1.8,3.9,0.9,6.1c0.5,0.4,0.6-0.3,0.7-1.1c0.1-0.8,0.9-0.7,1.2,0c1,2.3,2.4,3.9,3.5,4.2"/>
<path class="st0" d="M11.5,6.4c0.3,0.1,0.9,0.4,0.9,0.9"/>
<path class="st0" d="M17.3,27.9l1.8,3.1"/>
<path class="st0" d="M9.7,21.6H5.2c-1,0-1.8,0.8-1.8,1.8l0,0c0,1,0.8,1.8,1.8,1.8h2.5c1.1,0,2,0.9,2,2v0.5c0,1.1-0.9,2-2,2H3.4"/>
<path class="st0" d="M15.3,21.6h2.3c1.1,0,2,0.9,2,2v4.1c0,1.1-0.9,2-2,2h-2.3c-1.1,0-2-0.9-2-2v-4.1C13.3,22.5,14.2,21.6,15.3,21.6
	z"/>
<path class="st0" d="M23.1,21.6v5.6c0,1.1,0.9,2,2,2h3.4"/>
</svg>
