<svg version="1.1" id="Layer_1" xmlns="http://www.w3.org/2000/svg" x="0" y="0" viewBox="0 0 32 32" style="enable-background:new 0 0 32 32" xml:space="preserve"><style>.st0{fill:none;stroke:#002e42;stroke-width:2;stroke-linecap:round}</style><path class="st0" d="M27.6 19.1c-.7-.9-2.6-2.9-4-3.6-1.8-.9 1.3-1.8 2.7-1.3 1.3.4-.4-2.2-4.5-3.1-4-.9-1.5-2.7-5.5-5.8-2.7-2.1-4.7-2.7-5.7-2.7-.3 0-.7-.1-.9-.3-.9-.7-2.3-1.6-3.2-1-1.4.8 2.2 3 2.2 4.4 0 1.3.4 2.7 1.3 3.7.6.7-1.8 3.9.9 6.1.5.4.6-.3.7-1.1.1-.8.9-.7 1.2 0 1 2.3 2.4 3.9 3.5 4.2"/><path class="st0" d="M11.5 6.4c.3.1.9.4.9.9m4.9 20.6 1.8 3.1m-9.4-9.4H5.2c-1 0-1.8.8-1.8 1.8h0c0 1 .8 1.8 1.8 1.8h2.5c1.1 0 2 .9 2 2v.5c0 1.1-.9 2-2 2H3.4m11.9-8.1h2.3c1.1 0 2 .9 2 2v4.1c0 1.1-.9 2-2 2h-2.3c-1.1 0-2-.9-2-2v-4.1c0-1.1.9-2 2-2zm7.8 0v5.6c0 1.1.9 2 2 2h3.4"/></svg>