<?xml version="1.0" encoding="utf-8"?>
<!-- Generator: Adobe Illustrator 25.0.0, SVG Export Plug-In . SVG Version: 6.00 Build 0)  -->
<svg version="1.1" id="Layer_1" xmlns="http://www.w3.org/2000/svg" xmlns:xlink="http://www.w3.org/1999/xlink" x="0px" y="0px"
	 viewBox="0 0 32 32" style="enable-background:new 0 0 32 32;" xml:space="preserve">
<style type="text/css">
	.st0{fill:none;stroke:#002E42;stroke-width:2;stroke-linecap:round;stroke-linejoin:round;}
	.st1{fill:none;stroke:#002E42;stroke-width:2;stroke-linecap:round;stroke-miterlimit:10;}
	.st2{fill:none;stroke:#002E42;stroke-width:2;stroke-linecap:round;stroke-linejoin:round;stroke-miterlimit:10;}
</style>
<circle class="st0" cx="17.9" cy="23.6" r="2.8"/>
<path class="st1" d="M7.8,25.3l-2.3,2.3"/>
<path class="st1" d="M4.1,26.8l2.1,2.1"/>
<path class="st2" d="M9.6,27.2L5.5,23l5.3-5.3l2.1,2.2c-1.5,1.7-1.6,3.4-1.1,5.2L9.6,27.2z"/>
<path class="st2" d="M15.6,18l-2.8-3l4.6-4.6l5.3,5.3l-2.1,2.1C19,16.8,17.1,17.1,15.6,18z"/>
<path class="st2" d="M26.5,14.7l-7.9-7.9c-0.4-0.4-0.4-1,0-1.4l1.7-1.7c0.4-0.4,1-0.4,1.4,0l7.9,7.9c0.4,0.4,0.4,1,0,1.4l-1.7,1.7
	C27.5,15,26.9,15,26.5,14.7z"/>
</svg>
