<svg xmlns="http://www.w3.org/2000/svg" viewBox="0 0 32 32" style="enable-background:new 0 0 32 32" xml:space="preserve"><circle cx="17.9" cy="23.6" r="2.8" style="fill:none;stroke:#002e42;stroke-width:2;stroke-linecap:round;stroke-linejoin:round"/><path d="m7.8 25.3-2.3 2.3m-1.4-.8 2.1 2.1" style="fill:none;stroke:#002e42;stroke-width:2;stroke-linecap:round;stroke-miterlimit:10"/><path d="M9.6 27.2 5.5 23l5.3-5.3 2.1 2.2c-1.5 1.7-1.6 3.4-1.1 5.2l-2.2 2.1zm6-9.2-2.8-3 4.6-4.6 5.3 5.3-2.1 2.1c-1.6-1-3.5-.7-5 .2zm10.9-3.3-7.9-7.9c-.4-.4-.4-1 0-1.4l1.7-1.7c.4-.4 1-.4 1.4 0l7.9 7.9c.4.4.4 1 0 1.4l-1.7 1.7c-.4.3-1 .3-1.4 0z" style="stroke-linejoin:round;fill:none;stroke:#002e42;stroke-width:2;stroke-linecap:round;stroke-miterlimit:10"/></svg>