<svg version="1.1" id="Layer_1" xmlns="http://www.w3.org/2000/svg" x="0" y="0" viewBox="0 0 32 32" style="enable-background:new 0 0 32 32" xml:space="preserve"><style>.st0{fill:none;stroke:#002e42;stroke-width:2;stroke-linecap:round;stroke-linejoin:round}</style><path class="st0" d="M17.4 18.6h3.4m-1.7.7v4.3m8.3-5v5"/><path d="M24.2 18.6c0-.6-.4-1-1-1s-1 .4-1 1h2zm-2 0v2.5h2v-2.5h-2zm0 2.5c0 1.9 1.6 3.5 3.5 3.5v-2c-.8 0-1.5-.7-1.5-1.5h-2z" style="fill:#002e42"/><path class="st0" d="M27.4 23.6c-1.3 0-4.2.4-4.2-2.5m4.2 1.1c1.9 0 3.4 0 3.4-1.8s-1.5-1.8-3.4-1.8"/><circle class="st0" cx="13.1" cy="21.1" r="2.5"/><path d="m3.6 23-1.4 1.4m-1.1-.9L3 25.4" style="stroke-miterlimit:10;fill:none;stroke:#002e42;stroke-width:2;stroke-linecap:round"/><path d="m5.6 24.4-3.7-3.8 4.8-4.8 1.9 2c-1.4 1.5-1.5 3.1-1 4.7l-2 1.9zM11 16l-2.5-2.7 4.2-4.2 4.8 4.8-1.9 1.9c-1.5-.9-3.2-.6-4.6.2zm9.9-3-7.2-7.2c-.4-.4-.4-.9 0-1.3L15.3 3c.4-.4.9-.4 1.3 0l7.2 7.2c.4.4.4.9 0 1.3L22.2 13c-.4.3-.9.3-1.3 0z" style="stroke-linejoin:round;stroke-miterlimit:10;fill:none;stroke:#002e42;stroke-width:2;stroke-linecap:round"/></svg>