<?xml version="1.0" encoding="utf-8"?>
<!-- Generator: Adobe Illustrator 25.0.0, SVG Export Plug-In . SVG Version: 6.00 Build 0)  -->
<svg version="1.1" id="Layer_1" xmlns="http://www.w3.org/2000/svg" xmlns:xlink="http://www.w3.org/1999/xlink" x="0px" y="0px"
	 viewBox="0 0 32 32" style="enable-background:new 0 0 32 32;" xml:space="preserve">
<style type="text/css">
	.st0{fill:none;stroke:#002E42;stroke-width:2;stroke-linecap:round;stroke-linejoin:round;}
	.st1{fill:#002E42;}
	.st2{fill:none;stroke:#002E42;stroke-width:2;stroke-linecap:round;stroke-miterlimit:10;}
	.st3{fill:none;stroke:#002E42;stroke-width:2;stroke-linecap:round;stroke-linejoin:round;stroke-miterlimit:10;}
</style>
<path class="st0" d="M17.4,18.6h3.4"/>
<path class="st0" d="M19.1,19.3v4.3"/>
<path class="st0" d="M27.4,18.6v5"/>
<path class="st1" d="M24.2,18.6c0-0.6-0.4-1-1-1c-0.6,0-1,0.4-1,1H24.2z M22.2,18.6v2.5h2v-2.5H22.2z M22.2,21.1
	c0,1.9,1.6,3.5,3.5,3.5v-2c-0.8,0-1.5-0.7-1.5-1.5H22.2z"/>
<path class="st0" d="M27.4,23.6c-1.3,0-4.2,0.4-4.2-2.5"/>
<path class="st0" d="M27.4,22.2c1.9,0,3.4,0,3.4-1.8c0-1.8-1.5-1.8-3.4-1.8"/>
<circle class="st0" cx="13.1" cy="21.1" r="2.5"/>
<path class="st2" d="M3.6,23l-1.4,1.4"/>
<path class="st2" d="M1.1,23.5L3,25.4"/>
<path class="st3" d="M5.6,24.4l-3.7-3.8l4.8-4.8l1.9,2c-1.4,1.5-1.5,3.1-1,4.7L5.6,24.4z"/>
<path class="st3" d="M11,16l-2.5-2.7l4.2-4.2l4.8,4.8l-1.9,1.9C14.1,14.9,12.4,15.2,11,16z"/>
<path class="st3" d="M20.9,13l-7.2-7.2c-0.4-0.4-0.4-0.9,0-1.3L15.3,3c0.4-0.4,0.9-0.4,1.3,0l7.2,7.2c0.4,0.4,0.4,0.9,0,1.3L22.2,13
	C21.8,13.3,21.3,13.3,20.9,13z"/>
</svg>
