<svg width="32" height="32" fill="none" xmlns="http://www.w3.org/2000/svg"><path d="M7.646 19.274a.79.79 0 0 1-1.576-.129l.425-5.226A1 1 0 0 1 7.49 13h2.292c.773 0 1.37.184 1.79.55.427.361.64.826.64 1.397 0 .694-.23 1.238-.691 1.632-.454.393-1.105.59-1.953.59H7.813a.585.585 0 1 1 0-1.17h1.614c.42 0 .739-.082.956-.246.224-.17.335-.41.335-.718 0-.275-.095-.485-.284-.63-.183-.15-.468-.225-.855-.225H8.064l-.418 5.094ZM18.61 20a.78.78 0 0 1-.777-.844l.451-5.444a.776.776 0 0 1 1.547.127l-.443 5.444a.78.78 0 0 1-.777.717Zm-4.901 0a.78.78 0 0 1-.778-.844l.442-5.439a.78.78 0 0 1 1.556.127l-.443 5.439a.78.78 0 0 1-.777.717Zm.553-2.95a.605.605 0 0 1 0-1.209h4.13a.605.605 0 0 1 0 1.21h-4.13Zm8.171 2.224a.79.79 0 0 1-1.577-.129l.425-5.226a1 1 0 0 1 .997-.919h2.292c.773 0 1.369.184 1.79.55.427.361.64.826.64 1.397 0 .694-.23 1.238-.692 1.632-.454.393-1.105.59-1.952.59H22.05a.585.585 0 0 1 0-1.17h2.164c.42 0 .739-.082.956-.246.223-.17.335-.41.335-.718 0-.275-.095-.485-.285-.63-.183-.15-.467-.225-.854-.225h-.594a1 1 0 0 0-.996.918l-.343 4.176Z" fill="#2E3141"/><path d="M31 16.5c0 2.454-1.516 4.804-4.235 6.589C24.055 24.867 20.251 26 16 26c-4.252 0-8.055-1.133-10.765-2.911C2.516 21.304 1 18.954 1 16.5c0-2.454 1.516-4.804 4.235-6.589C7.945 8.133 11.748 7 16 7c4.252 0 8.055 1.133 10.765 2.911C29.484 11.696 31 14.046 31 16.5Z" stroke="#2E3141" stroke-width="2" stroke-linecap="round"/></svg>