<?xml version="1.0" encoding="utf-8"?>
<!-- Generator: Adobe Illustrator 25.0.0, SVG Export Plug-In . SVG Version: 6.00 Build 0)  -->
<svg version="1.1" id="Layer_1" xmlns="http://www.w3.org/2000/svg" xmlns:xlink="http://www.w3.org/1999/xlink" x="0px" y="0px"
	 viewBox="0 0 32 32" style="enable-background:new 0 0 32 32;" xml:space="preserve">
<style type="text/css">
	.st0{fill:none;stroke:#002E42;stroke-width:2;}
	.st1{fill:#002E42;}
</style>
<path class="st0" d="M10.3,13.2c-0.7,3.9,0.4,5,3.5,6c1.7-0.5,2.2,0,2.3,1.6v5.7c0.4,3.1,1.4,3.5,3.6,3.5c1.9,0,2.7-1.1,2.9-3.8
	c0.3-3.9,0.2-6.7,1.2-7.2c-0.3-0.7-0.1-0.9,0.4-1.3c0.8-1.9,0.9-3.6,0.6-5.2c0-1.5-0.2-1.9-0.3-3.4c-0.1-1.2-0.6-2.1-1.9-3.8
	c-2.3-2.1-3.7-3-6.5-2.8c-2.5,0.2-3.7,1-5.2,3.5C10,8.6,10,10.2,10.3,13.2z"/>
<path class="st0" d="M19.3,2.8c1.7-1,2.7-1.2,4.6-0.9c2.6,0.3,3.9,2.9,3.9,2.9c0.4,1.3,0.7,2.5,0.6,3.8c-0.6,6.4-2.4,7.3-4.3,10.3
	 M12.5,3.8C9.2,2.2,5.7,2.5,4.5,4.1c-4.1,5.7-0.3,17.4,3.2,18c0.7,0.3,1.7-0.9,3.9-3.5"/>
<path class="st0" d="M14.1,19.2c-1,2.5-2.9,2.7-3.2,3.3c-0.9,1.3,3,2.9,5.2,0"/>
<path class="st0" d="M10.3,10.4c2.3-1.6,3.9-1.9,4.8,1.6c0.6,3.8-1.6,5.4-1,6.9 M24.1,9.4c-1.9-0.6-3.9-0.6-2.9,3.5
	c1,2.8,1.4,3.6,2.6,5.7c1.1,1,1.4,1.3,2.9,0.9c2.3-0.6,3,1.6,0.7,2.9c-1.6,0.6-3.5,0.7-4.9,0"/>
<path class="st1" d="M23.1,11.2c-0.7-0.4-1-0.6-1.6,0c0,0.7,0.6,0.6,1,0.7C23.1,11.8,23,11.6,23.1,11.2z"/>
<path class="st1" d="M14.9,11.8c-0.8-0.5-1.2-0.7-1.9,0c0,0.8,0.8,0.7,1.1,0.8C14.9,12.4,14.8,12.2,14.9,11.8z"/>
</svg>
