<svg version="1.1" id="Layer_1" xmlns="http://www.w3.org/2000/svg" x="0" y="0" viewBox="0 0 32 32" style="enable-background:new 0 0 32 32" xml:space="preserve"><style>.st0{fill:none;stroke:#002e42;stroke-width:2}</style><path class="st0" d="M10.3 13.2c-.7 3.9.4 5 3.5 6 1.7-.5 2.2 0 2.3 1.6v5.7c.4 3.1 1.4 3.5 3.6 3.5 1.9 0 2.7-1.1 2.9-3.8.3-3.9.2-6.7 1.2-7.2-.3-.7-.1-.9.4-1.3.8-1.9.9-3.6.6-5.2 0-1.5-.2-1.9-.3-3.4-.1-1.2-.6-2.1-1.9-3.8-2.3-2.1-3.7-3-6.5-2.8-2.5.2-3.7 1-5.2 3.5-.9 2.6-.9 4.2-.6 7.2z"/><path class="st0" d="M19.3 2.8c1.7-1 2.7-1.2 4.6-.9 2.6.3 3.9 2.9 3.9 2.9.4 1.3.7 2.5.6 3.8-.6 6.4-2.4 7.3-4.3 10.3M12.5 3.8c-3.3-1.6-6.8-1.3-8 .3-4.1 5.7-.3 17.4 3.2 18 .7.3 1.7-.9 3.9-3.5m2.5.6c-1 2.5-2.9 2.7-3.2 3.3-.9 1.3 3 2.9 5.2 0"/><path class="st0" d="M10.3 10.4c2.3-1.6 3.9-1.9 4.8 1.6.6 3.8-1.6 5.4-1 6.9m10-9.5c-1.9-.6-3.9-.6-2.9 3.5 1 2.8 1.4 3.6 2.6 5.7 1.1 1 1.4 1.3 2.9.9 2.3-.6 3 1.6.7 2.9-1.6.6-3.5.7-4.9 0"/><path d="M23.1 11.2c-.7-.4-1-.6-1.6 0 0 .7.6.6 1 .7.6-.1.5-.3.6-.7zm-8.2.6c-.8-.5-1.2-.7-1.9 0 0 .8.8.7 1.1.8.8-.2.7-.4.8-.8z" style="fill:#002e42"/></svg>