<svg version="1.1" id="Layer_1" xmlns="http://www.w3.org/2000/svg" x="0" y="0" viewBox="0 0 32 32" style="enable-background:new 0 0 32 32" xml:space="preserve"><style>.st0{fill:none;stroke:#002e42;stroke-width:2;stroke-linecap:round;stroke-linejoin:round}.st1{fill:#002e42}</style><path class="st0" d="M9.1 13.4h0c-.3 0-.5-.2-.6-.4 0 0 0-.1-.1-.1-.1-.2-.1-.5.1-.7h0c.1-.1.1-.3 0-.4l-.9-.9c-.1-.1-.3-.1-.4 0h0c-.2.2-.5.2-.7.1h-.1c-.2-.1-.4-.3-.4-.6h0c0-.1-.1-.3-.3-.3H4.6c-.1 0-.3.1-.3.3h0c0 .3-.2.5-.4.6h-.1c-.2.1-.5.1-.7-.1h0c-.1-.1-.3-.1-.4 0l-.9.9c-.1.1-.1.3 0 .4h0c.2.1.2.4.1.6 0 0 0 .1-.1.1-.1.2-.3.4-.6.4h0c-.1 0-.3.1-.3.3v1.3c0 .1.1.3.3.3h0c.2 0 .5.2.6.4 0 .1 0 .1.1.2.1.2.1.4-.1.6h0c-.1.1-.1.3 0 .4l.9.9c.1.1.3.1.4 0h0c.2-.2.4-.2.7-.1.1 0 .1 0 .2.1.2.1.4.3.4.5h0c0 .1.1.3.3.3H6c.1 0 .3-.1.3-.3h0c0-.2.2-.5.4-.5.1 0 .1 0 .2-.1.2-.1.5-.1.7.1h0c.1.1.3.1.4 0l.9-.9c.1-.1.1-.3 0-.4h0c-.2-.2-.2-.4-.1-.7 0-.1 0-.1.1-.2.1-.2.3-.4.6-.4h0c.1 0 .3-.1.3-.3v-1.3c-.4 0-.5-.1-.7-.1z"/><path class="st1" d="M6.2 14.3c0 .5-.4 1-1 1s-1-.4-1-1 .4-1 1-1 1 .4 1 1z"/><path class="st0" d="M19.9 24.2h0c-.3 0-.5-.2-.6-.4 0 0 0-.1-.1-.1-.1-.2-.1-.5.1-.7h0c.1-.1.1-.3 0-.4l-.9-.9c-.1-.1-.3-.1-.4 0h0c-.2.2-.5.2-.7.1h-.1c-.2-.1-.4-.3-.4-.6h0c0-.1-.1-.3-.3-.3h-1.3c-.1 0-.3.1-.3.3h0c0 .3-.2.5-.4.6h-.1c-.2.1-.5.1-.7-.1h0c-.1-.1-.3-.1-.4 0l-.9.9c-.1.1-.1.3 0 .4h0c.2.2.2.5.1.7 0 0 0 .1-.1.1-.1.2-.3.4-.6.4h0c-.1 0-.3.1-.3.3v1.3c0 .1.1.3.3.3h0c.2 0 .5.2.6.4 0 .1 0 .1.1.2.1.2.1.5-.1.7h0c-.1.1-.1.3 0 .4l.9.9c.1.1.3.1.4 0h0c.2-.2.4-.2.7-.1.1 0 .1 0 .2.1.2.1.4.3.4.5h0c0 .1.1.3.3.3h1.3c.1 0 .3-.1.3-.3h0c0-.2.2-.5.4-.5.1 0 .1 0 .2-.1.2-.1.5-.1.7.1h0c.1.1.3.1.4 0l.9-.9c.1-.1.1-.3 0-.4h0c-.2-.2-.2-.4-.1-.7 0-.1 0-.1.1-.2.1-.2.3-.4.6-.4h0c.1 0 .3-.1.3-.3v-1.3c-.2-.2-.3-.3-.5-.3z"/><path class="st1" d="M17 25.1c0 .5-.4 1-1 1s-1-.4-1-1 .4-1 1-1 1 .4 1 1z"/><path class="st0" d="M30.7 6.5h0c-.3 0-.5-.2-.6-.4 0 0 0-.1-.1-.1 0-.3 0-.5.2-.7h0c.1-.1.1-.3 0-.4l-.9-.9c-.1-.1-.3-.1-.4 0h0c-.2.2-.5.2-.7.1h-.1c-.2-.1-.4-.3-.4-.6h0c0-.1-.1-.3-.3-.3h-1.3c-.1 0-.3.1-.3.3h0c0 .3-.2.5-.4.6h-.1c-.2.1-.5.1-.7-.1h0c-.1-.1-.3-.1-.4 0l-.9.9c-.1.1-.1.3 0 .4h0c.2.2.2.5.1.7 0 0 0 .1-.1.1-.1.2-.3.4-.6.4h0c-.1 0-.3.1-.3.3v1.3c0 .1.1.3.3.3h0c.2 0 .5.2.6.4 0 .1 0 .1.1.2.1.2.1.5-.1.7h0c-.1.1-.1.3 0 .4l.9.9c.1.1.3.1.4 0h0c.2-.2.4-.2.7-.1.1 0 .1 0 .2.1.2.1.4.3.4.5h0c0 .1.1.3.3.3h1.3c.1 0 .3-.1.3-.3h0c0-.2.2-.5.4-.5.1 0 .1 0 .2-.1.2-.1.5-.1.7.1h0c.1.1.3.1.4 0l.9-.9c.1-.1.1-.3 0-.4h0c-.4-.3-.4-.6-.3-.8 0-.1 0-.1.1-.2.1-.2.3-.4.6-.4h0c.1 0 .3-.1.3-.3V6.8c-.1-.2-.2-.3-.4-.3z"/><path class="st1" d="M27.8 7.4c0 .5-.4 1-1 1s-1-.4-1-1 .4-1 1-1 1 .5 1 1z"/><path d="m2.9 18.6 8.3 8.7" style="fill:none;stroke:#002e42;stroke-width:2;stroke-linecap:round;stroke-linejoin:round;stroke-dasharray:1.5332,3.0665"/><path d="m9.8 12.1 8.3 8.7" style="fill:none;stroke:#002e42;stroke-width:2;stroke-linecap:round;stroke-linejoin:round;stroke-dasharray:1.5333,3.0665"/><path d="M29.4 11.2 21 24.1" style="fill:none;stroke:#002e42;stroke-width:2;stroke-linecap:round;stroke-linejoin:round;stroke-dasharray:1.6693,3.3386"/><path d="M21.6 7.4 16 15.8" style="fill:none;stroke:#002e42;stroke-width:2;stroke-linecap:round;stroke-linejoin:round;stroke-dasharray:1.4515,2.9031"/></svg>