<svg xmlns="http://www.w3.org/2000/svg" viewBox="0 0 32 32" style="enable-background:new 0 0 32 32" xml:space="preserve"><path d="M10.2 20.1c-.1 0-.3-.3-.4-.4-.7-.8-1.4-1.7-1.8-2.8 0-.1-.1-.1 0-.2s.1 0 .2 0c1.1.2 2.1.5 3.2.7h.1c.1 0 .2.1.2 0s0-.1-.1-.2c-.4-.5-.7-1.1-.9-1.8-.3-1-.2-1.9.1-2.9.3-1 .7-1.9 1-2.9.3-.6.4-1.2.2-1.9 0-.1-.1-.1 0-.2s.2 0 .2 0c.4.2.6.6.7 1 .3.7.4 1.4.5 2.2 0 .1 0 .2.1.2s.1-.1.2-.2c.4-.7.5-1.4.7-2.1.2-.8.1-1.5.2-2.3.1-.7.4-1.3 1-1.8.1 0 .1-.1.2-.1s.2-.1.2-.1c.1.1 0 .2 0 .2-.2.6 0 1.2.2 1.8.3.9.7 1.7.9 2.6.2.6.2 1.1.3 1.7 0 .4.1.9.1 1.3 0 0 0 0 0 0h0s0 0 0 0c0-.5.1-.9.1-1.4.1-1.1.3-2.2.8-3.2.3-.1.4-.3.6-.5l.1-.1c.1 0 0 .1 0 .1 0 .2-.1.5-.1.7 0 1 .3 1.9.8 2.8.4.7.8 1.4 1 2.3.3 1.6.2 3.2-.8 4.6 0 0 0 .1-.1.1 0 .1-.1.1-.1.2s.1 0 .2 0c.4-.1.8-.2 1.2-.2.7-.1 1.4-.3 2.1-.4.1 0 .3-.1.4-.1.2 0 .2 0 .2.2-.2.6-.5 1.2-.8 1.7-.3.4-.6.8-.9 1.1-.1.1-.3.4-.4.4m-11.6-.1h11.6m-11.6 0h11.6m-11.6 0c-.2 0-.3.1-.3.3V24c0 .2.1.3.3.3H22c.2 0 .3-.1.3-.3v-3.5c0-.3 0-.3-.3-.3M1 16C1 7.8 7.7 1 16 1s15 6.7 15 15-6.7 15-15 15C7.6 31 .9 24.2 1 16zm15 8.3h-3.4c-.3 0-.3.1-.3.3.2 1.1.8 1.8 1.8 2.3 1.1.6 2.3.6 3.4.2 1.1-.4 1.9-1.1 2.2-2.4.1-.4 0-.4-.3-.4H16z" style="fill:none;stroke:#002e42;stroke-width:2;stroke-linecap:round;stroke-linejoin:round"/></svg>