<?xml version="1.0" encoding="utf-8"?>
<!-- Generator: Adobe Illustrator 25.0.0, SVG Export Plug-In . SVG Version: 6.00 Build 0)  -->
<svg version="1.1" id="Layer_1" xmlns="http://www.w3.org/2000/svg" xmlns:xlink="http://www.w3.org/1999/xlink" x="0px" y="0px"
	 viewBox="0 0 32 32" style="enable-background:new 0 0 32 32;" xml:space="preserve">
<style type="text/css">
	.st0{fill:none;stroke:#002E42;stroke-width:2;stroke-linecap:round;stroke-linejoin:round;}
</style>
<path class="st0" d="M10.2,20.1c-0.1,0-0.3-0.3-0.4-0.4C9.1,18.9,8.4,18,8,16.9c0-0.1-0.1-0.1,0-0.2c0.1-0.1,0.1,0,0.2,0
	c1.1,0.2,2.1,0.5,3.2,0.7c0.1,0,0.1,0,0.1,0c0.1,0,0.2,0.1,0.2,0s0-0.1-0.1-0.2c-0.4-0.5-0.7-1.1-0.9-1.8c-0.3-1-0.2-1.9,0.1-2.9
	c0.3-1,0.7-1.9,1-2.9C12.1,9,12.2,8.4,12,7.7c0-0.1-0.1-0.1,0-0.2c0.1-0.1,0.2,0,0.2,0c0.4,0.2,0.6,0.6,0.7,1
	c0.3,0.7,0.4,1.4,0.5,2.2c0,0.1,0,0.2,0.1,0.2c0.1,0,0.1-0.1,0.2-0.2c0.4-0.7,0.5-1.4,0.7-2.1c0.2-0.8,0.1-1.5,0.2-2.3
	c0.1-0.7,0.4-1.3,1-1.8c0.1,0,0.1-0.1,0.2-0.1c0.1,0,0.2-0.1,0.2-0.1c0.1,0.1,0,0.2,0,0.2c-0.2,0.6,0,1.2,0.2,1.8
	c0.3,0.9,0.7,1.7,0.9,2.6c0.2,0.6,0.2,1.1,0.3,1.7c0,0.4,0.1,0.9,0.1,1.3c0,0,0,0,0,0l0,0c0,0,0,0,0,0c0-0.5,0.1-0.9,0.1-1.4
	c0.1-1.1,0.3-2.2,0.8-3.2C18.7,7.2,18.8,7,19,6.8c0,0,0.1-0.1,0.1-0.1c0.1,0,0,0.1,0,0.1c0,0.2-0.1,0.5-0.1,0.7c0,1,0.3,1.9,0.8,2.8
	c0.4,0.7,0.8,1.4,1,2.3c0.3,1.6,0.2,3.2-0.8,4.6c0,0,0,0.1-0.1,0.1c0,0.1-0.1,0.1-0.1,0.2c0,0.1,0.1,0,0.2,0
	c0.4-0.1,0.8-0.2,1.2-0.2c0.7-0.1,1.4-0.3,2.1-0.4c0.1,0,0.3-0.1,0.4-0.1c0.2,0,0.2,0,0.2,0.2c-0.2,0.6-0.5,1.2-0.8,1.7
	c-0.3,0.4-0.6,0.8-0.9,1.1c-0.1,0.1-0.3,0.4-0.4,0.4 M10.2,20.1c3.9,0,7.7,0,11.6,0 M10.2,20.1c1.9,0,3.9,0,5.8,0c1.9,0,3.9,0,5.8,0
	 M10.2,20.1c-0.2,0-0.3,0.1-0.3,0.3c0,0.6,0,3,0,3.6c0,0.2,0.1,0.3,0.3,0.3c3.9,0,7.8,0,11.8,0c0.2,0,0.3-0.1,0.3-0.3
	c0-0.5,0-3,0-3.5c0-0.3,0-0.3-0.3-0.3 M1,16c0-8.2,6.7-15,15-15c8.3,0,15,6.7,15,15c0,8.3-6.7,15-15,15C7.6,31,0.9,24.2,1,16z
	 M16,24.3c-1.1,0-2.3,0-3.4,0c-0.3,0-0.3,0.1-0.3,0.3c0.2,1.1,0.8,1.8,1.8,2.3c1.1,0.6,2.3,0.6,3.4,0.2c1.1-0.4,1.9-1.1,2.2-2.4
	c0.1-0.4,0-0.4-0.3-0.4C18.3,24.3,17.1,24.3,16,24.3z"/>
</svg>
