<?xml version="1.0" encoding="UTF-8"?>
<svg xmlns="http://www.w3.org/2000/svg" xmlns:xlink="http://www.w3.org/1999/xlink" width="32px" height="32px" viewBox="0 0 32 32" version="1.1">
<g id="surface1">
<path style=" stroke:none;fill-rule:nonzero;fill:rgb(0%,18.039216%,25.882354%);fill-opacity:1;" d="M 1.304688 0.648438 C 1.015625 0.753906 0.753906 0.949219 0.542969 1.214844 C 0.164062 1.699219 0.199219 0.292969 0.207031 15.898438 L 0.222656 29.875 L 0.355469 30.152344 C 0.523438 30.523438 0.832031 30.84375 1.167969 31.007812 L 1.441406 31.144531 L 8.570312 31.15625 L 15.695312 31.167969 L 15.316406 30.96875 C 14.808594 30.699219 13.914062 30.085938 13.398438 29.664062 L 12.984375 29.316406 L 2 29.316406 L 2 2.382812 L 16.464844 2.382812 L 16.464844 5.160156 C 16.464844 7.824219 16.46875 7.945312 16.5625 8.125 C 16.679688 8.359375 16.902344 8.550781 17.136719 8.617188 C 17.25 8.648438 18.316406 8.667969 20.035156 8.667969 L 22.746094 8.667969 L 22.746094 16.402344 L 23.03125 16.433594 C 23.367188 16.472656 24.007812 16.621094 24.296875 16.722656 L 24.5 16.796875 L 24.492188 12.085938 C 24.476562 7.574219 24.472656 7.371094 24.382812 7.207031 C 24.257812 6.972656 18.148438 0.832031 17.90625 0.6875 L 17.71875 0.582031 L 9.601562 0.582031 C 2.90625 0.585938 1.457031 0.597656 1.304688 0.648438 Z M 19.894531 5.292969 L 21.449219 6.863281 L 18.265625 6.863281 L 18.265625 5.277344 C 18.265625 4.40625 18.28125 3.699219 18.304688 3.707031 C 18.324219 3.714844 19.042969 4.429688 19.894531 5.292969 Z M 19.894531 5.292969 "/>
<path style=" stroke:none;fill-rule:nonzero;fill:rgb(0%,18.039216%,25.882354%);fill-opacity:1;" d="M 5.300781 6.914062 C 4.765625 7.074219 4.503906 7.59375 4.699219 8.105469 C 4.800781 8.363281 5 8.546875 5.265625 8.617188 C 5.390625 8.652344 6.726562 8.667969 9.292969 8.65625 C 12.835938 8.640625 13.140625 8.636719 13.285156 8.558594 C 13.875 8.234375 13.890625 7.363281 13.308594 7.019531 L 13.082031 6.890625 L 9.257812 6.878906 C 7.152344 6.875 5.375 6.890625 5.300781 6.914062 Z M 5.300781 6.914062 "/>
<path style=" stroke:none;fill-rule:nonzero;fill:rgb(0%,18.039216%,25.882354%);fill-opacity:1;" d="M 5.253906 11.882812 C 4.738281 12.035156 4.480469 12.660156 4.726562 13.148438 C 4.78125 13.253906 4.917969 13.402344 5.03125 13.472656 L 5.234375 13.609375 L 19.320312 13.609375 L 19.496094 13.492188 C 20.101562 13.074219 20.035156 12.238281 19.363281 11.925781 C 19.179688 11.835938 18.886719 11.832031 12.277344 11.835938 C 8.488281 11.835938 5.328125 11.855469 5.253906 11.882812 Z M 5.253906 11.882812 "/>
<path style=" stroke:none;fill-rule:nonzero;fill:rgb(0%,18.039216%,25.882354%);fill-opacity:1;" d="M 5.253906 16.847656 C 4.902344 16.957031 4.628906 17.332031 4.628906 17.707031 C 4.636719 18.082031 4.925781 18.5 5.253906 18.59375 C 5.429688 18.636719 13.527344 18.636719 13.699219 18.585938 C 13.882812 18.539062 14.175781 18.269531 14.253906 18.082031 C 14.425781 17.679688 14.277344 17.195312 13.921875 16.960938 L 13.71875 16.824219 L 9.554688 16.816406 C 7.261719 16.808594 5.328125 16.824219 5.253906 16.847656 Z M 5.253906 16.847656 "/>
<path style=" stroke:none;fill-rule:nonzero;fill:rgb(0%,18.039216%,25.882354%);fill-opacity:1;" d="M 20.433594 17.632812 C 17.820312 17.914062 15.058594 19.421875 12.539062 21.9375 C 10.609375 23.867188 10.460938 24.441406 11.515625 25.859375 C 12.371094 27.003906 13.800781 28.3125 15.238281 29.269531 C 16.648438 30.210938 18.148438 30.832031 19.726562 31.128906 C 20.464844 31.269531 21.929688 31.277344 22.675781 31.152344 C 24.796875 30.789062 26.828125 29.816406 28.839844 28.210938 C 30.0625 27.230469 31.207031 25.96875 31.644531 25.113281 C 31.800781 24.8125 31.824219 24.71875 31.832031 24.421875 C 31.832031 24.132812 31.804688 24.03125 31.675781 23.765625 C 31.445312 23.300781 30.796875 22.523438 29.96875 21.714844 C 27.65625 19.46875 25.144531 18.054688 22.820312 17.699219 C 22.203125 17.601562 21 17.570312 20.433594 17.632812 Z M 22.144531 19.53125 C 24.316406 19.742188 26.1875 20.6875 28.390625 22.691406 C 28.941406 23.195312 29.792969 24.109375 29.910156 24.328125 C 29.964844 24.429688 29.949219 24.46875 29.800781 24.699219 C 29.226562 25.5625 27.515625 27.105469 26.304688 27.859375 C 25.320312 28.46875 24.039062 28.988281 22.941406 29.222656 C 22.242188 29.375 20.550781 29.390625 19.800781 29.25 C 17.84375 28.886719 15.90625 27.753906 13.914062 25.808594 C 13.324219 25.234375 12.714844 24.542969 12.714844 24.445312 C 12.714844 24.355469 13.457031 23.519531 14.058594 22.9375 C 16.675781 20.398438 19.378906 19.257812 22.144531 19.53125 Z M 22.144531 19.53125 "/>
<path style=" stroke:none;fill-rule:nonzero;fill:rgb(0%,18.039216%,25.882354%);fill-opacity:1;" d="M 20.789062 21.035156 C 19.101562 21.34375 17.945312 22.605469 17.84375 24.242188 C 17.804688 24.878906 17.910156 25.394531 18.199219 26 C 18.390625 26.382812 18.492188 26.527344 18.84375 26.875 C 19.308594 27.339844 19.644531 27.558594 20.152344 27.734375 C 21.414062 28.171875 22.746094 27.902344 23.703125 27.019531 C 24.179688 26.570312 24.496094 26.09375 24.675781 25.535156 C 24.808594 25.136719 24.816406 25.046875 24.816406 24.421875 C 24.8125 23.8125 24.796875 23.695312 24.679688 23.34375 C 24.332031 22.289062 23.375 21.398438 22.285156 21.109375 C 21.933594 21.015625 21.105469 20.980469 20.789062 21.035156 Z M 22.074219 22.945312 C 22.410156 23.101562 22.734375 23.414062 22.894531 23.738281 C 22.996094 23.949219 23.015625 24.050781 23.015625 24.46875 C 23.015625 24.910156 23 24.980469 22.878906 25.214844 C 22.601562 25.742188 22.207031 26.042969 21.648438 26.152344 C 20.550781 26.363281 19.5 25.277344 19.734375 24.164062 C 19.859375 23.535156 20.230469 23.097656 20.8125 22.882812 C 21.167969 22.75 21.699219 22.777344 22.074219 22.945312 Z M 22.074219 22.945312 "/>
</g>
</svg>
