<svg version="1.1" id="Layer_1" xmlns="http://www.w3.org/2000/svg" x="0" y="0" viewBox="0 0 32 32" style="enable-background:new 0 0 32 32" xml:space="preserve"><style>.st0{fill:none;stroke:#002e42;stroke-width:2;stroke-linecap:round}.st1{fill:#002e42}</style><path class="st0" d="M15.4 9.3h-4.8s0 0 0 0 0 0 0 0H6.1c-1.2 0-2.1.5-2.9 1.4-.6.7-.9 1.4-1.1 2.3-.5 1.8-.5 3.6-.2 5.4.2 1.2.5 2.4 1.3 3.3.6.7 1.3 1.2 2.2 1.2h2.4c.2 0 .3-.1.3-.3h0v-1.9c0-.8-.1-1.5.1-2.3.2-.8.6-1.6 1.3-2.1.7-.5 1.5-.7 2.4-.7h6.7c.3 0 .6 0 1-.1 1.4-.3 2.4-1 2.8-2.4.1-.4.2-.8.2-1.2V5.6c0-.4-.1-.8-.3-1.2-.6-1-1.5-1.5-2.6-1.8-2.7-.7-5.4-.7-8.2 0-.7.2-1.3.5-1.8 1-.5.3-.8.8-.8 1.5C9 6 9 7 9 8c0 .3 0 .3.3.3h5.8c.6 0 .6 0 .6.6.1.3 0 .4-.3.4z"/><path class="st0" d="M19.9 21.7s0 0 0 0h-4.7c-.3 0-.4.1-.4.4v.1c0 .5 0 .5.5.5h6c.3 0 .4.1.4.4v2.7c0 .8-.3 1.4-.9 1.9-.9.7-1.9.9-2.9 1.1-2.1.3-4.3.3-6.4-.2-1-.2-1.9-.7-2.6-1.5-.4-.5-.6-1-.6-1.6V19c0-1.9 1.2-3.3 3.2-3.5.4 0 .7-.1 1.1-.1h6.2c2.6 0 3.9-1.7 3.9-4v-3c0-.3.1-.3.3-.3.8 0 1.6-.1 2.3 0 1.3.2 2.2 1 2.8 2.2.5 1 .8 2.2.8 3.3v2.8c-.1 1.5-.5 2.8-1.5 4-.7.8-1.7 1.3-2.8 1.3h-4.7s0 0 0 0h0z"/><circle class="st1" cx="17.6" cy="25.7" r="1"/><circle class="st1" cx="12.9" cy="5.4" r="1"/><path d="M27.9 24.6c-.3-.5 0-1.2.5-1.5.4-.2.5-.7.1-.9-.5-.2-1.1-.3-1.9.1-.8.5-1.1 1.2-1.2 1.8-.1.4-.3.9-.6 1.1l-4 2.3c-.5.3-.7 1-.4 1.5.3.5 1 .7 1.5.4l3.6-2.1c.5-.3 1.3-.2 1.9 0 .5.1 1.2.1 1.8-.2.7-.4 1-1 1.1-1.5.1-.5-.4-.7-.9-.4-.5 0-1.2-.2-1.5-.6z" style="fill:#fff;stroke:#fff;stroke-width:4;stroke-linecap:round"/><path d="M27.9 24.6c-.3-.5 0-1.2.5-1.5.4-.2.5-.7.1-.9-.5-.2-1.1-.3-1.9.1-.8.5-1.1 1.2-1.2 1.8-.1.4-.3.9-.6 1.1l-4 2.3c-.5.3-.7 1-.4 1.5.3.5 1 .7 1.5.4l3.6-2.1c.5-.3 1.3-.2 1.9 0 .5.1 1.2.1 1.8-.2.7-.4 1-1 1.1-1.5.1-.5-.4-.7-.9-.4-.5 0-1.2-.2-1.5-.6z" style="fill:#fff;stroke:#002e42;stroke-width:2;stroke-linecap:round"/></svg>