<?xml version="1.0" encoding="utf-8"?>
<!-- Generator: Adobe Illustrator 25.0.0, SVG Export Plug-In . SVG Version: 6.00 Build 0)  -->
<svg version="1.1" id="Layer_1" xmlns="http://www.w3.org/2000/svg" xmlns:xlink="http://www.w3.org/1999/xlink" x="0px" y="0px"
	 viewBox="0 0 32 32" style="enable-background:new 0 0 32 32;" xml:space="preserve">
<style type="text/css">
	.st0{fill:none;stroke:#002E42;stroke-width:2;stroke-linecap:round;}
	.st1{fill:#002E42;}
	.st2{fill:#FFFFFF;stroke:#FFFFFF;stroke-width:4;stroke-linecap:round;}
	.st3{fill:#FFFFFF;stroke:#002E42;stroke-width:2;stroke-linecap:round;}
</style>
<path class="st0" d="M15.4,9.3c-1.6,0-3.2,0-4.8,0c0,0,0,0,0,0c0,0,0,0,0,0H6.1c-1.2,0-2.1,0.5-2.9,1.4c-0.6,0.7-0.9,1.4-1.1,2.3
	c-0.5,1.8-0.5,3.6-0.2,5.4c0.2,1.2,0.5,2.4,1.3,3.3c0.6,0.7,1.3,1.2,2.2,1.2c0.8,0,1.6,0,2.4,0c0.2,0,0.3-0.1,0.3-0.3l0,0
	c0-0.6,0-1.3,0-1.9c0-0.8-0.1-1.5,0.1-2.3c0.2-0.8,0.6-1.6,1.3-2.1c0.7-0.5,1.5-0.7,2.4-0.7c2.2,0,4.4,0,6.7,0h0c0.3,0,0.6,0,1-0.1
	c1.4-0.3,2.4-1,2.8-2.4c0.1-0.4,0.2-0.8,0.2-1.2c0-2.1,0-4.2,0-6.3c0-0.4-0.1-0.8-0.3-1.2c-0.6-1-1.5-1.5-2.6-1.8
	c-2.7-0.7-5.4-0.7-8.2,0c-0.7,0.2-1.3,0.5-1.8,1C9.2,3.9,8.9,4.4,8.9,5.1C9,6,9,7,9,8C9,8.3,9,8.3,9.3,8.3c1.9,0,3.9,0,5.8,0
	c0.6,0,0.6,0,0.6,0.6C15.8,9.2,15.7,9.3,15.4,9.3z"/>
<path class="st0" d="M19.9,21.7C19.9,21.7,19.9,21.7,19.9,21.7c-1.6,0-3.2,0-4.7,0c-0.3,0-0.4,0.1-0.4,0.4c0,0,0,0.1,0,0.1
	c0,0.5,0,0.5,0.5,0.5c2,0,4,0,6,0c0.3,0,0.4,0.1,0.4,0.4c0,0.9,0,1.8,0,2.7c0,0.8-0.3,1.4-0.9,1.9c-0.9,0.7-1.9,0.9-2.9,1.1
	c-2.1,0.3-4.3,0.3-6.4-0.2c-1-0.2-1.9-0.7-2.6-1.5c-0.4-0.5-0.6-1-0.6-1.6c0-2.2,0-4.3,0-6.5c0-1.9,1.2-3.3,3.2-3.5
	c0.4,0,0.7-0.1,1.1-0.1c2.1,0,4.1,0,6.2,0c2.6,0,3.9-1.7,3.9-4c0-1,0-2,0-3c0-0.3,0.1-0.3,0.3-0.3c0.8,0,1.6-0.1,2.3,0
	c1.3,0.2,2.2,1,2.8,2.2c0.5,1,0.8,2.2,0.8,3.3c0,0.9,0,1.9,0,2.8c-0.1,1.5-0.5,2.8-1.5,4c-0.7,0.8-1.7,1.3-2.8,1.3
	C23,21.7,21.5,21.7,19.9,21.7C19.9,21.7,19.9,21.7,19.9,21.7L19.9,21.7z"/>
<circle class="st1" cx="17.6" cy="25.7" r="1"/>
<circle class="st1" cx="12.9" cy="5.4" r="1"/>
<path class="st2" d="M27.9,24.6c-0.3-0.5,0-1.2,0.5-1.5c0.4-0.2,0.5-0.7,0.1-0.9c-0.5-0.2-1.1-0.3-1.9,0.1c-0.8,0.5-1.1,1.2-1.2,1.8
	c-0.1,0.4-0.3,0.9-0.6,1.1l-4,2.3c-0.5,0.3-0.7,1-0.4,1.5c0.3,0.5,1,0.7,1.5,0.4l3.6-2.1c0.5-0.3,1.3-0.2,1.9,0
	c0.5,0.1,1.2,0.1,1.8-0.2c0.7-0.4,1-1,1.1-1.5c0.1-0.5-0.4-0.7-0.9-0.4C28.9,25.2,28.2,25,27.9,24.6z"/>
<path class="st3" d="M27.9,24.6c-0.3-0.5,0-1.2,0.5-1.5c0.4-0.2,0.5-0.7,0.1-0.9c-0.5-0.2-1.1-0.3-1.9,0.1c-0.8,0.5-1.1,1.2-1.2,1.8
	c-0.1,0.4-0.3,0.9-0.6,1.1l-4,2.3c-0.5,0.3-0.7,1-0.4,1.5c0.3,0.5,1,0.7,1.5,0.4l3.6-2.1c0.5-0.3,1.3-0.2,1.9,0
	c0.5,0.1,1.2,0.1,1.8-0.2c0.7-0.4,1-1,1.1-1.5c0.1-0.5-0.4-0.7-0.9-0.4C28.9,25.2,28.2,25,27.9,24.6z"/>
</svg>
