<svg width="32" height="32" fill="none" xmlns="http://www.w3.org/2000/svg"><path d="M4 16.002V4.616c.001-1.186.437-1.614 1.635-1.614.714 0 1.427-.006 2.14.003.9.01 1.41.52 1.411 1.42.006 2.54 0 5.081.005 7.622.002 1.035.442 1.467 1.472 1.47h1.21c1.11-.003 1.526-.41 1.527-1.504.002-2.463 0-4.926.001-7.389 0-1.18.444-1.62 1.632-1.621.699-.001 1.397-.002 2.095 0 .991.004 1.465.465 1.466 1.443.004 2.51 0 5.02.003 7.529 0 1.124.418 1.541 1.54 1.542 2.296.001 4.592-.002 6.888.002 1.117.001 1.604.495 1.605 1.62.001 4.105.002 8.21 0 12.314 0 1.08-.473 1.546-1.559 1.547H5.523c-1.088 0-1.52-.431-1.521-1.52C3.999 23.654 4 19.828 4 16.002Zm17.16 7.677c.464 0 .93.02 1.393-.005.81-.042 1.243-.5 1.25-1.306.008-.819.011-1.638-.001-2.457-.01-.65-.418-1.137-1.05-1.213a13.096 13.096 0 0 0-2.962-.011c-.722.077-1.158.6-1.165 1.32-.008.788-.009 1.577 0 2.365.009.756.516 1.273 1.281 1.304.417.017.836.003 1.254.003Z" stroke="#002E42" stroke-width="2" stroke-linecap="round"/></svg>