<?xml version="1.0" encoding="utf-8"?>
<!-- Generator: Adobe Illustrator 25.0.0, SVG Export Plug-In . SVG Version: 6.00 Build 0)  -->
<svg version="1.1" id="Layer_1" xmlns="http://www.w3.org/2000/svg" xmlns:xlink="http://www.w3.org/1999/xlink" x="0px" y="0px"
	 viewBox="0 0 32 32" style="enable-background:new 0 0 32 32;" xml:space="preserve">
<style type="text/css">
	.st0{fill:none;stroke:#002E42;stroke-width:2;stroke-linecap:round;}
	.st1{fill:none;stroke:#002E42;stroke-width:2;stroke-linecap:round;stroke-linejoin:round;}
</style>
<g>
	<path class="st0" d="M9.3,5.6l1.2,2.1c0.1,0.1,0.2,0.2,0.3,0.2l2.4,0.5c0.4,0.1,0.5,0.5,0.3,0.8L11.9,11c-0.1,0.1-0.1,0.2-0.1,0.4
		l0.3,2.4c0,0.4-0.4,0.7-0.7,0.5l-2.2-1c-0.1-0.1-0.3-0.1-0.4,0l-2.2,1c-0.4,0.2-0.7-0.1-0.7-0.5L6,11.4c0-0.1,0-0.3-0.1-0.4
		L4.3,9.2C4,8.9,4.2,8.5,4.5,8.4l2.4-0.5c0.1,0,0.3-0.1,0.3-0.2l1.2-2.1C8.6,5.2,9.1,5.2,9.3,5.6z"/>
	<circle class="st0" cx="8.9" cy="22.9" r="4.5"/>
	<path class="st0" d="M18,25.6l4.2-6.4c0.3-0.5,1-0.5,1.3,0l4.1,6.4c0.3,0.5,0,1.2-0.7,1.2h-8.4C18.1,26.9,17.7,26.2,18,25.6z"/>
	<rect x="18.4" y="5.3" class="st1" width="9" height="9"/>
</g>
</svg>
