<svg version="1.1" id="Layer_1" xmlns="http://www.w3.org/2000/svg" x="0" y="0" viewBox="0 0 32 32" style="enable-background:new 0 0 32 32" xml:space="preserve"><style>.st0{fill:none;stroke:#002e42;stroke-width:2;stroke-linecap:round}</style><path class="st0" d="m9.3 5.6 1.2 2.1c.1.1.2.2.3.2l2.4.5c.4.1.5.5.3.8L11.9 11c-.1.1-.1.2-.1.4l.3 2.4c0 .4-.4.7-.7.5l-2.2-1c-.1-.1-.3-.1-.4 0l-2.2 1c-.4.2-.7-.1-.7-.5l.1-2.4c0-.1 0-.3-.1-.4L4.3 9.2c-.3-.3-.1-.7.2-.8l2.4-.5c.1 0 .3-.1.3-.2l1.2-2.1c.2-.4.7-.4.9 0z"/><circle class="st0" cx="8.9" cy="22.9" r="4.5"/><path class="st0" d="m18 25.6 4.2-6.4c.3-.5 1-.5 1.3 0l4.1 6.4c.3.5 0 1.2-.7 1.2h-8.4c-.4.1-.8-.6-.5-1.2z"/><path style="fill:none;stroke:#002e42;stroke-width:2;stroke-linecap:round;stroke-linejoin:round" d="M18.4 5.3h9v9h-9z"/></svg>