<svg version="1.1" id="Layer_1" xmlns="http://www.w3.org/2000/svg" x="0" y="0" viewBox="0 0 32 32" style="enable-background:new 0 0 32 32" xml:space="preserve"><style>.st0{fill:none;stroke:#002e42;stroke-width:1.6;stroke-linecap:round}</style><path class="st0" d="M20.8 6.6c1.1 2-1.4 5.6-5.7 8.1-4.3 2.5-8.7 2.9-9.8.9-1.1-2 1.5-5.1 5.8-7.6 4.2-2.5 8.5-3.4 9.7-1.4z"/><path class="st0" d="M24.9 7.3c1.3.3 2.3.8 2.9 1.8 1.8 3.1-2.3 8.7-9 12.6-6.7 3.9-13.6 4.6-15.4 1.5-.6-1-.5-2.3 0-3.6m1.7-5.7L3.2 20M19.5 5.6l6.1 1.9"/><path class="st0" d="m28.1 11.6-4.2 14.9c-.1.5-.6.8-1.1.7L7.3 25.1m12.8-3.9L23 27M8 17.1v7.4M20.8 9.1l6.7 3.8M14.4 23.8l8.6 2.9m1.3-9-1 9.3"/><path class="st0" d="m26.8 8.4-4.8.5c-.6.1-1 .8-.8 1.4l2.2 5.6c.3.8-.5 1.6-1.3 1.3l-5.7-2.4c-.7-.3-1.4.2-1.4.9v5.9c0 .9-1.1 1.3-1.7.7l-4.6-4.8c-.4-.4-1-.4-1.4 0l-4.1 4.1"/><path d="M26.8 24.1c-.3-.5 0-1.2.5-1.5.4-.2.5-.7.1-.9-.5-.2-1.1-.3-1.9.1-.8.5-1.1 1.2-1.2 1.8-.1.4-.3.9-.6 1.1l-4 2.3c-.5.3-.7 1-.4 1.5.3.5 1 .7 1.5.4l3.6-2.1c.5-.3 1.3-.2 1.9 0 .5.1 1.2.1 1.8-.2.7-.4 1-1 1.1-1.5.1-.5-.4-.7-.9-.4-.5.1-1.2-.1-1.5-.6z" style="fill:#fff;stroke:#fff;stroke-width:5;stroke-linecap:round"/><path d="M26.8 24.1c-.3-.5 0-1.2.5-1.5.4-.2.5-.7.1-.9-.5-.2-1.1-.3-1.9.1-.8.5-1.1 1.2-1.2 1.8-.1.4-.3.9-.6 1.1l-4 2.3c-.5.3-.7 1-.4 1.5.3.5 1 .7 1.5.4l3.6-2.1c.5-.3 1.3-.2 1.9 0 .5.1 1.2.1 1.8-.2.7-.4 1-1 1.1-1.5.1-.5-.4-.7-.9-.4-.5.1-1.2-.1-1.5-.6z" style="fill:#fff;stroke:#002e42;stroke-width:2;stroke-linecap:round"/></svg>