<?xml version="1.0" encoding="utf-8"?>
<!-- Generator: Adobe Illustrator 25.0.0, SVG Export Plug-In . SVG Version: 6.00 Build 0)  -->
<svg version="1.1" id="Layer_1" xmlns="http://www.w3.org/2000/svg" xmlns:xlink="http://www.w3.org/1999/xlink" x="0px" y="0px"
	 viewBox="0 0 32 32" style="enable-background:new 0 0 32 32;" xml:space="preserve">
<style type="text/css">
	.st0{fill:none;stroke:#002E42;stroke-width:1.6;stroke-linecap:round;}
	.st1{fill:#FFFFFF;stroke:#FFFFFF;stroke-width:5;stroke-linecap:round;}
	.st2{fill:#FFFFFF;stroke:#002E42;stroke-width:2;stroke-linecap:round;}
</style>
<path class="st0" d="M20.8,6.6c1.1,2-1.4,5.6-5.7,8.1c-4.3,2.5-8.7,2.9-9.8,0.9c-1.1-2,1.5-5.1,5.8-7.6C15.3,5.5,19.6,4.6,20.8,6.6z
	"/>
<path class="st0" d="M24.9,7.3c1.3,0.3,2.3,0.8,2.9,1.8c1.8,3.1-2.3,8.7-9,12.6c-6.7,3.9-13.6,4.6-15.4,1.5c-0.6-1-0.5-2.3,0-3.6"/>
<path class="st0" d="M5.1,13.9L3.2,20"/>
<path class="st0" d="M19.5,5.6l6.1,1.9"/>
<path class="st0" d="M28.1,11.6l-4.2,14.9c-0.1,0.5-0.6,0.8-1.1,0.7L7.3,25.1"/>
<path class="st0" d="M20.1,21.2L23,27"/>
<path class="st0" d="M8,17.1v7.4"/>
<path class="st0" d="M20.8,9.1l6.7,3.8"/>
<path class="st0" d="M14.4,23.8l8.6,2.9"/>
<path class="st0" d="M24.3,17.7l-1,9.3"/>
<path class="st0" d="M26.8,8.4l-4.8,0.5C21.4,9,21,9.7,21.2,10.3l2.2,5.6c0.3,0.8-0.5,1.6-1.3,1.3l-5.7-2.4C15.7,14.5,15,15,15,15.7
	v5.9c0,0.9-1.1,1.3-1.7,0.7l-4.6-4.8c-0.4-0.4-1-0.4-1.4,0l-4.1,4.1"/>
<path class="st1" d="M26.8,24.1c-0.3-0.5,0-1.2,0.5-1.5c0.4-0.2,0.5-0.7,0.1-0.9c-0.5-0.2-1.1-0.3-1.9,0.1c-0.8,0.5-1.1,1.2-1.2,1.8
	c-0.1,0.4-0.3,0.9-0.6,1.1l-4,2.3c-0.5,0.3-0.7,1-0.4,1.5c0.3,0.5,1,0.7,1.5,0.4l3.6-2.1c0.5-0.3,1.3-0.2,1.9,0
	c0.5,0.1,1.2,0.1,1.8-0.2c0.7-0.4,1-1,1.1-1.5c0.1-0.5-0.4-0.7-0.9-0.4C27.8,24.8,27.1,24.6,26.8,24.1z"/>
<path class="st2" d="M26.8,24.1c-0.3-0.5,0-1.2,0.5-1.5c0.4-0.2,0.5-0.7,0.1-0.9c-0.5-0.2-1.1-0.3-1.9,0.1c-0.8,0.5-1.1,1.2-1.2,1.8
	c-0.1,0.4-0.3,0.9-0.6,1.1l-4,2.3c-0.5,0.3-0.7,1-0.4,1.5c0.3,0.5,1,0.7,1.5,0.4l3.6-2.1c0.5-0.3,1.3-0.2,1.9,0
	c0.5,0.1,1.2,0.1,1.8-0.2c0.7-0.4,1-1,1.1-1.5c0.1-0.5-0.4-0.7-0.9-0.4C27.8,24.8,27.1,24.6,26.8,24.1z"/>
</svg>
