<svg width="32" height="32" fill="none" xmlns="http://www.w3.org/2000/svg"><path d="M27.276 24.385h-.651c-.094 0-.094 0-.187.093-.186.093-.186.28-.093.466l.28 1.118c.093.373-.187.56-.56.56-.465-.094-.837-.187-1.302-.28-.187 0-.373.186-.373.28v1.303c0 .373-.28.56-.651.466-.373-.186-.838-.372-1.21-.559h-.28c-.186.093-.186.187-.28.373-.092.373-.092.745-.185 1.211-.093.373-.373.466-.745.28-.373-.28-.745-.56-1.024-.746-.093-.093-.466 0-.466.187-.186.372-.279.838-.465 1.21-.186.373-.466.467-.745.187-.28-.28-.559-.652-.93-.931-.094-.094-.373-.094-.466.093-.187.372-.466.652-.652 1.024-.186.373-.652.373-.838 0-.186-.372-.465-.745-.652-1.024 0-.094-.093-.094-.186-.094-.186 0-.28 0-.465.187-.28.28-.559.559-.745.838-.28.28-.652.187-.745-.186-.186-.373-.28-.838-.465-1.211-.093-.186-.373-.28-.466-.186-.372.279-.744.465-1.024.745-.28.186-.652.093-.745-.28-.093-.465-.186-.838-.186-1.304 0-.093-.093-.093-.093-.186-.186-.093-.28-.093-.465 0-.373.093-.745.186-1.117.372-.373.187-.652 0-.652-.465 0-.373 0-.839.093-1.212 0-.093 0-.186-.093-.28-.093-.092-.186-.092-.373-.092-.372.093-.837.186-1.21.28-.372.092-.651-.187-.558-.56.093-.466.186-.838.279-1.304 0-.187-.186-.373-.28-.373H4.003c-.279 0-.558-.28-.465-.559 0-.093 0-.093.093-.186l.559-1.118v-.187c-.094-.186-.187-.28-.373-.28-.372-.092-.745-.092-1.21-.185-.372-.094-.466-.373-.28-.746.28-.372.466-.745.745-1.025.093-.093.093-.093 0-.186 0-.186-.093-.28-.279-.373-.372-.093-.745-.28-1.117-.372-.372-.093-.466-.466-.186-.746.279-.28.651-.559.93-.931.094-.093.094-.373-.092-.466-.373-.28-.745-.466-1.118-.745a.436.436 0 0 1 0-.746c.373-.28.745-.466 1.118-.745.093-.093.093-.093.093-.187 0-.186 0-.279-.186-.372-.28-.28-.56-.56-.838-.745-.28-.28-.187-.653.186-.746.465-.093.838-.28 1.303-.466.186-.093.28-.372.186-.466-.279-.372-.465-.745-.744-1.024-.187-.28-.093-.653.279-.746.465-.093.838-.186 1.303-.186.093 0 .093-.093.186-.093.094-.187.094-.28 0-.466-.279-.373-.372-.745-.558-1.118-.186-.373 0-.652.465-.652h1.304c.093 0 .093 0 .186-.093.093-.094.186-.28.093-.466a9.674 9.674 0 0 1-.28-1.118c-.092-.28.187-.56.466-.466.466.093.838.186 1.303.28.094 0 .187 0 .28-.094.093-.093.186-.186.186-.28 0-.372 0-.745-.093-1.117 0-.466.28-.652.652-.466l1.117.559c.186-.093.465-.186.558-.373.093-.466.186-.838.186-1.304.093-.373.373-.466.745-.28.373.28.745.466 1.024.746.093.093.186.093.28 0 .186 0 .279-.093.279-.28.093-.372.28-.745.372-1.118.093-.372.466-.466.745-.186.28.28.559.652.93.932.094.093.094.093.187.093.186 0 .28-.093.373-.28.186-.372.372-.652.558-.931.186-.373.559-.373.745 0 .186.372.465.745.651 1.118 0 .093.094.093.187.093.186 0 .279 0 .465-.187.28-.28.559-.559.745-.838.28-.28.652-.186.745.186.279.466.465.839.651 1.305 0 0 0 .093.093.093.187.093.28 0 .466-.093.28-.28.652-.466.93-.653.373-.28.653-.093.746.28.093.466.186.838.186 1.304 0 .093.093.093.093.187.186.093.28.093.465 0 .373-.187.745-.28 1.118-.466.372-.187.651 0 .651.466 0 .465 0 .838-.093 1.304 0 .093 0 .093.093.186s.28.187.466.093l1.117-.28c.372-.092.652.187.558.56-.093.466-.186.838-.279 1.304v.187c.186.093.28.186.466.186h1.117c.372 0 .651.28.465.652l-.558 1.118v.28c.093.186.186.186.372.28.372.092.838.092 1.21.185.373.094.466.373.28.746-.28.372-.466.745-.745 1.025-.093.093-.093.093 0 .186 0 .186.093.28.28.28.372.093.744.279 1.116.372.373.093.466.466.186.745-.279.28-.651.56-.93.932-.094.093-.094.373.093.466.372.186.744.466 1.117.652.372.186.372.56 0 .839-.373.186-.745.465-1.117.652-.093 0-.093.093-.093.186 0 .187 0 .28.186.466l.838.838c.279.28.186.653-.187.746-.372.186-.837.28-1.21.466-.093 0-.093.093-.093.186-.093.186 0 .28.093.466.28.28.466.652.652.932s.093.652-.28.745c-.372.093-.837.093-1.21.186-.093 0-.186.093-.28.187-.092.093-.092.186 0 .372.187.373.373.746.466 1.118.187.373 0 .652-.465.652-.372-.093-.559-.093-.745-.186Zm0 0c0 .093 0 .093 0 0Zm-.465-7.64v-1.77c0-.093 0-.093-.093-.186-.652-.28-1.21-.56-1.862-.839-.559-.186-.652-.652-.466-1.21.28-.746.652-1.398.931-2.144v-.186c-1.676-2.795-4.096-4.472-7.261-5.217-.093 0-.186 0-.186.093-.466.466-.931.931-1.397 1.304-.372.373-.838.373-1.21 0s-.745-.745-1.117-1.211c-.187-.186-.28-.186-.559-.186-2.234.559-4.096 1.677-5.679 3.26l-.093.094h11.358c.372 0 .745 0 1.024.093 1.117.28 2.048.838 2.7 1.863.651.932.744 2.236-.093 3.354-.373.56-.931.932-1.49 1.398-.093 0-.093.093-.186.093.093.093.186.093.28.186.465.373.837.745 1.023 1.211.186.466.373.932.466 1.398 0 .28.186.372.372.559.28.186.652.186.931.186.745-.093 1.117-.466 1.21-1.118v-.838c0-.187 0-.28.28-.28.372.093.744.093 1.117.093Zm-2.142 5.59h-4.561c-.186 0-.373-.093-.559-.186-.558-.373-.93-.932-1.117-1.677-.093-.28-.093-.559-.186-.838-.093-.466-.186-1.025-.372-1.491-.28-.839-.931-1.305-1.77-1.305h-2.699v1.957h2.606c.187 0 .187 0 .187.186v2.889c0 .28 0 .28-.28.28H7.075c0 .092.094.092.094.092.279.28.465.56.744.932.187.28.187.28.28.28.558-.094 1.117-.28 1.675-.373.466-.093.931.186 1.024.652.187.652.28 1.304.373 1.956 0 .094.093.094.093.187 1.21.559 2.513.838 3.91.931 1.676.094 3.258-.186 4.84-.838.187-.093.28-.186.28-.373.093-.652.28-1.21.372-1.863.094-.466.466-.652.931-.56.559.094 1.21.28 1.77.374.092 0 .092 0 .185-.094.187-.186.28-.372.466-.465.28-.187.372-.373.558-.653ZM6.982 11.901c.093.28.28.559.373.838.186.466.093.932-.466 1.118-.558.28-1.117.56-1.769.745-.093 0-.093.094-.093.187a10.54 10.54 0 0 0 0 2.422c.093.56.187 1.118.373 1.677h3.07v-6.987H6.98Zm6.517 2.143h3.538c.372 0 .651-.094 1.024-.28.651-.373.558-1.118.093-1.397-.28-.187-.652-.373-1.024-.373h-3.54c-.093.745-.093 1.397-.093 2.05Zm-4.19 11.925c.466 0 .932-.373.839-.932a.835.835 0 0 0-.838-.838c-.466 0-.931.372-.931.838.093.56.465.932.93.932Zm7.448-21.335c0-.466-.372-.932-.838-.932a.835.835 0 0 0-.837.838c0 .466.372.932.838.932a.835.835 0 0 0 .837-.838Zm8.751 8.012c0 .466.373.932.838.932.466 0 .838-.373.931-.839 0-.466-.372-.932-.838-.932-.465 0-.93.373-.93.839ZM23.273 25.13a.933.933 0 0 0-.93-.931c-.466 0-.839.372-.839.931 0 .466.373.839.838.932a.933.933 0 0 0 .931-.932ZM5.306 13.485c.465 0 .93-.373.93-.839 0-.466-.372-.839-.93-.839-.466 0-.931.373-.838.932 0 .373.372.745.838.745Z" stroke="#2E3141" stroke-width="1.3" stroke-miterlimit="10" stroke-linecap="round" stroke-linejoin="round"/></svg>