<svg width="32" height="32" fill="none" xmlns="http://www.w3.org/2000/svg"><rect x="3" y="8" width="25.28" height="19.824" rx="1.728" stroke="#002E42" stroke-width="2"/><path d="M9 8.4V6a3 3 0 0 1 3-3h7.2a3 3 0 0 1 3 3v2.4" stroke="#002E42" stroke-width="2"/><path d="M20.524 17.74c.547.948 3.212 1.937 5.433.655a3.86 3.86 0 0 0 1.972-3.166c.054-.905-.932-1.226-1.718-.773v0c-.948.548-2.443.147-2.99-.8-.547-.949-.147-2.444.801-2.991v0c.745-.43.915-1.445.16-1.856-.932-.508-2.22-.746-3.697.107-2.37 1.368-2.382 3.902-2.15 5.032m-7.584 4.379c-.547-.948-3.212-1.938-5.433-.655a3.86 3.86 0 0 0-1.971 3.165c-.055.905.932 1.227 1.717.773v0c.948-.547 2.443-.146 2.99.802.547.948.147 2.443-.801 2.99v0c-.744.43-.915 1.445-.16 1.856.932.508 2.22.746 3.698-.107 2.37-1.368 2.38-3.902 2.15-5.033m5.393-8.17-7.583 4.379m9.772-.587-7.583 4.378" stroke="#002E42" stroke-width="2" stroke-linecap="round"/></svg>