<svg version="1.1" id="Layer_1" xmlns="http://www.w3.org/2000/svg" x="0" y="0" viewBox="0 0 32 32" style="enable-background:new 0 0 32 32" xml:space="preserve"><style>.st0{fill:none;stroke:#002e42;stroke-width:2;stroke-linecap:round;stroke-linejoin:round}</style><path class="st0" d="M9.4 3.9h13.2c3 0 5.5 2.5 5.5 5.5v1.1c0 3-2.5 5.5-5.5 5.5H9.4c-3 0-5.5-2.5-5.5-5.5V9.4c0-3 2.5-5.5 5.5-5.5zm0 12.1h13.2c3 0 5.5 2.5 5.5 5.5v1.1c0 3-2.5 5.5-5.5 5.5H9.4c-3 0-5.5-2.5-5.5-5.5v-1.1c0-3 2.5-5.5 5.5-5.5z"/><circle class="st0" cx="10" cy="10" r="2.2"/><circle class="st0" cx="17.6" cy="10" r="2.2"/><circle class="st0" cx="10" cy="22" r="2.2"/></svg>