<svg width="32" height="32" fill="none" xmlns="http://www.w3.org/2000/svg"><path d="m4 22.326 12 3.428v3.92L4 26.246v-3.92Zm12 3.428 12-3.428v3.92l-12 3.428v-3.92Z" stroke="#2E3141" stroke-width="2"/><path d="m4 22 9-2.5m6 0 9 2.5" stroke="#2E3141" stroke-width="2" stroke-linecap="round" stroke-linejoin="round"/><path d="M24.6 9.5h-.9c-.1 0-.2 0-.3.1-.1-.6-.4-1.2-.7-1.7.1 0 .2-.1.2-.2l.6-.6c.3-.3.3-.9 0-1.3l-1.9-1.9c-.3-.3-.9-.3-1.3 0l-.6.6c-.1.1-.1.2-.2.2-.5-.3-1.1-.6-1.8-.7.3 0 .3-.1.3-.2v-.9c0-.5-.4-.9-.9-.9h-2.7c-.5 0-.9.4-.9.9v.9c0 .1 0 .2.1.3-.6.1-1.2.4-1.7.7 0-.1-.1-.2-.2-.2l-.6-.7c-.3-.3-.9-.3-1.3 0L7.9 5.8c-.3.3-.3.9 0 1.3l.6.6c.1.1.2.1.2.2-.2.5-.5 1.1-.6 1.7-.1 0-.2-.1-.3-.1h-.9c-.5 0-.9.4-.9.9v2.7c0 .5.4.9.9.9h.9c.1 0 .2 0 .3-.1.2.6.4 1.2.7 1.8-.1 0-.2.1-.2.2l-.6.6c-.3.3-.3.9 0 1.3l1.9 1.9c.3.3.9.3 1.3 0l.5-.7c.1-.1.1-.2.2-.2.5.2 1.1.5 1.7.7 0 .1-.1.2-.1.3v.9c0 .5.4.9.9.9h2.7c.5 0 .9-.4.9-.9v-.9c0-.1 0-.2-.1-.3.6-.2 1.2-.4 1.8-.7 0 .1.1.2.2.2l.6.6c.3.3.9.3 1.3 0l1.9-1.9c.3-.3.3-.9 0-1.3l-.7-.6c-.1-.1-.2-.1-.2-.2.3-.5.6-1.1.7-1.8.1 0 .2.1.3.1h.9c.5 0 .9-.4.9-.9v-2.6c-.1-.5-.5-.9-1-.9Zm-8.8 6.3c-2.2 0-4-1.8-4-4s1.8-4 4-4 4 1.8 4 4-1.8 4-4 4Z" stroke="#2E3141" stroke-width="2" stroke-miterlimit="10" stroke-linecap="round" stroke-linejoin="round"/></svg>