<?xml version="1.0" encoding="utf-8"?>
<!-- Generator: Adobe Illustrator 25.0.0, SVG Export Plug-In . SVG Version: 6.00 Build 0)  -->
<svg version="1.1" id="Layer_1" xmlns="http://www.w3.org/2000/svg" xmlns:xlink="http://www.w3.org/1999/xlink" x="0px" y="0px"
	 viewBox="0 0 32 33" style="enable-background:new 0 0 32 33;" xml:space="preserve">
<style type="text/css">
	.st0{fill:none;stroke:#002E42;stroke-width:2;stroke-linecap:round;}
	.st1{fill:none;stroke:#002E42;stroke-width:2;}
	.st2{fill:none;stroke:#002E42;stroke-width:2;stroke-linecap:round;stroke-linejoin:round;}
</style>
<path class="st0" d="M4,30.5c1.8-2.2,3.3-3.3,5.6-3.3c3.3,0,3.3,3.9,6.7,3.9c3.3,0,3.3-3.9,6.7-3.9c2.2,0,3.7,1.7,5,3.3"/>
<path class="st1" d="M9,27.1l-2.5-8c-0.2-0.5,0.1-1.1,0.6-1.2l9.4-3.4c0.2-0.1,0.5-0.1,0.7,0l8.8,3.4c0.5,0.2,0.7,0.7,0.6,1.2
	l-2.5,8"/>
<path class="st2" d="M16.8,9.5v15.3"/>
<path class="st1" d="M12.4,9.3V3c0-0.6,0.4-1,1-1h6.9c0.6,0,1,0.4,1,1v5.7"/>
<path class="st0" d="M10.7,19.9l2.2-0.6"/>
<path class="st0" d="M23,19.9l-2.2-0.6"/>
<path class="st1" d="M7.9,17.1v-6.8c0-0.6,0.4-1,1-1h15.9c0.6,0,1,0.4,1,1v6.8"/>
</svg>
