<svg version="1.1" id="Layer_1" xmlns="http://www.w3.org/2000/svg" x="0" y="0" viewBox="0 0 32 33" style="enable-background:new 0 0 32 33" xml:space="preserve"><style>.st0{stroke-linecap:round}.st0,.st1{fill:none;stroke:#002e42;stroke-width:2}</style><path class="st0" d="M4 30.5c1.8-2.2 3.3-3.3 5.6-3.3 3.3 0 3.3 3.9 6.7 3.9 3.3 0 3.3-3.9 6.7-3.9 2.2 0 3.7 1.7 5 3.3"/><path class="st1" d="m9 27.1-2.5-8c-.2-.5.1-1.1.6-1.2l9.4-3.4c.2-.1.5-.1.7 0l8.8 3.4c.5.2.7.7.6 1.2l-2.5 8"/><path d="M16.8 9.5v15.3" style="fill:none;stroke:#002e42;stroke-width:2;stroke-linecap:round;stroke-linejoin:round"/><path class="st1" d="M12.4 9.3V3c0-.6.4-1 1-1h6.9c.6 0 1 .4 1 1v5.7"/><path class="st0" d="m10.7 19.9 2.2-.6m10.1.6-2.2-.6"/><path class="st1" d="M7.9 17.1v-6.8c0-.6.4-1 1-1h15.9c.6 0 1 .4 1 1v6.8"/></svg>