<svg xmlns="http://www.w3.org/2000/svg" viewBox="0 0 32 32" style="enable-background:new 0 0 32 32" xml:space="preserve"><path d="M8.7 25.3c0 .3 0 .6-.2.9-.3.4-.6 1.1-.2 1.4 1.3.9 2.8 1.5 4.2 1.9 2.2.5 4.4.5 6.6.1 2.4-.5 4.4-1.6 6.2-3.3 3.3-2.6 4.5-6.4 4.7-10.5.1-1.6-.2-3.3-.5-4.9-.4-2.2-1-4.3-1.7-6.4-.1-.5-.6-.4-.8 0-.2.4-.5.9-.8 1.3-.2.4-.2.4-.6.1-2-1.9-4.3-3.1-6.9-3.6-2.2-.4-4.4-.4-6.6.2-2.2.7-4.2 1.8-5.9 3.4-2.5 2.4-4 5.3-4.2 8.9 0 1.4 0 2.8.3 4.2.5 2 1.3 3.9 2.6 5.5h0c.5.7 1.6 0 2.4-.1h.1c.6-.1 1.2.4 1.3.9z" style="fill:none;stroke:#002e42;stroke-width:2;stroke-linecap:round"/><path d="M-331-53.6c6.9 0 13.7-.1 20.6-.1.4 1.2 1.5.8 2.4.9 10.5 1.4 20.6 4.3 30.3 8.6 12.6 5.6 23.8 13.2 33.4 23 1.3 1.3 2.1 1.2 3-.3.9-1.5 2-2.9 2.9-4.3 2.8-4.4 5.2-9.1 7.4-13.9 1.1.6 1.2 1.5 1.5 2.4 2.9 9.2 5.8 18.5 8.4 27.9 4.4 16 8.3 32.1 9.8 48.7.1.6 0 1.4.8 1.6 0 7.6 0 15.2-.1 22.9-1.4 3.4-1.1 7-1.5 10.5-1.6 11.4-4.7 22.2-9.7 32.5-11 22.8-27.7 40.1-50.2 51.6-13 6.7-26.7 10.8-41.3 11.8-1.2.1-2.5-.1-3.7.6-3.8.3-7.6.3-11.4 0-1.6-.2-3.3-.6-4.9-.7-7.8-.4-15.4-2.1-22.9-4.4-12.8-4-24.6-10.2-35.2-18.5-.7-.5-1.6-.9-1.7-2.3 3.3.5 6.5.2 9.1-2.1 2.8-2.4 3.3-5.6 2.9-9.1-.5-4.4-5.1-8-10.1-7.6-2.5.2-4.6 1.4-6.3 3.2-2.8 3.1-3.2 6.7-1.5 10.7-.6-.1-.9-.1-1.1-.2-.5-.4-1-.9-1.5-1.3-6.6-6.5-12.4-13.6-17.2-21.5-6.3-10.4-10.9-21.5-13.6-33.4-1.1-4.9-1.4-9.8-2.6-14.7 0-8.2-.1-16.3-.1-24.5.6-.1.8-.6.8-1.1 0-2.3.7-4.6 1.1-6.9 1.9-10.4 5.5-20.3 10.3-29.7 7-13.5 16.4-25 28.3-34.6 15.4-12.5 32.8-20.6 52.4-24 3.9-.8 7.6-.6 11.2-1.7zm-35.1 187.9c1.5.6 2.3.4 3.1.3 10.5-1.3 21.1-.9 31.6-.6 12.9.4 25.7.9 38.6.1 10.7-.7 21.1-2.1 31.3-5.4 15.8-5.1 27.8-14.9 35.7-29.5 6.4-11.9 9.2-24.8 10-38.2.9-15.6-1-31-4-46.3-2.2-11.4-5.3-22.6-8.8-33.7-.9-3-1.5-6.2-3.3-9.2-.5.6-.8 1-1 1.4-4.9 9.4-11.8 17-19.8 23.7-17.6 14.6-37.7 23.2-60.6 25.1-8.9.7-17.7.9-26.6 1.7-9.8 1-19.1 3.3-27.9 7.5-25.5 12.2-39.4 40.2-31.1 67.6 2.5 8.4 7.4 15.2 15.2 19.5 1.1.6 2.2 1.3 3.7 1 15.7-3.4 31.4-7.1 46.9-11.4 18.9-5.3 35.9-14 51.3-26.1 11.5-9 21.6-19.4 29.7-31.6 2-3 3.9-6.2 5.6-9.4 1.7-3.1 2.6-6.5 4.8-9.4-.9 1.2-.4 2.6-.8 3.9-5.3 19.1-15.4 35.5-28.8 50-12.6 13.6-27.1 24.6-44.2 32-12.2 5.3-25.2 8.3-37.7 12.5-4.3 1.4-8.5 2.6-12.9 4.5z" style="fill:#6db341"/><path d="M11.4 24c.3-.9.2-.3 0-.4.5-.2 1-.4 1.5-.5 1.5-.5 3-.9 4.5-1.5 2-.9 3.7-2.2 5.2-3.8 1.6-1.7 2.8-3.7 3.4-5.9 0-.2 0-.3.1-.5-.3.3-.4.7-.6 1.1-.2.4-.4.8-.7 1.1-1 1.5-2.2 2.7-3.5 3.7-1.8 1.4-3.8 2.5-6.1 3.1-1.8.5-3.7.9-5.5 1.4-.2 0-.3 0-.4-.1-.9-.5-1.5-1.3-1.8-2.3-1-3.2.7-6.6 3.7-8 1-.5 2.2-.8 3.3-.9 1-.1 2.1-.1 3.1-.2 2.7-.2 5.1-1.2 7.2-3 1-.8 1.8-1.7 2.3-2.8 0 0 .1-.1.1-.2.2.4.3.7.4 1.1.4 1.3.8 2.6 1 4 .4 1.8.6 3.6.5 5.5-.1 1.6-.4 3.1-1.2 4.5-.9 1.7-1.4 2.4-2.7 3.8.1.1-3.7 4.9-13.8.8z" style="fill:none;stroke:#002e42;stroke-width:2;stroke-linecap:round;stroke-linejoin:round"/></svg>