<?xml version="1.0" encoding="utf-8"?>
<!-- Generator: Adobe Illustrator 25.0.0, SVG Export Plug-In . SVG Version: 6.00 Build 0)  -->
<svg version="1.1" id="Layer_1" xmlns="http://www.w3.org/2000/svg" xmlns:xlink="http://www.w3.org/1999/xlink" x="0px" y="0px"
	 viewBox="0 0 32 32" style="enable-background:new 0 0 32 32;" xml:space="preserve">
<style type="text/css">
	.st0{fill:none;stroke:#002E42;stroke-width:2;stroke-linecap:round;}
	.st1{fill:#6DB341;}
	.st2{fill:none;stroke:#002E42;stroke-width:2;stroke-linecap:round;stroke-linejoin:round;}
</style>
<path class="st0" d="M8.7,25.3c0,0.3,0,0.6-0.2,0.9c-0.3,0.4-0.6,1.1-0.2,1.4c1.3,0.9,2.8,1.5,4.2,1.9c2.2,0.5,4.4,0.5,6.6,0.1
	c2.4-0.5,4.4-1.6,6.2-3.3c3.3-2.6,4.5-6.4,4.7-10.5c0.1-1.6-0.2-3.3-0.5-4.9c-0.4-2.2-1-4.3-1.7-6.4c-0.1-0.5-0.6-0.4-0.8,0
	c-0.2,0.4-0.5,0.9-0.8,1.3C26,6.2,26,6.2,25.6,5.9c-2-1.9-4.3-3.1-6.9-3.6c-2.2-0.4-4.4-0.4-6.6,0.2C9.9,3.2,7.9,4.3,6.2,5.9
	c-2.5,2.4-4,5.3-4.2,8.9C2,16.2,2,17.6,2.3,19c0.5,2,1.3,3.9,2.6,5.5l0,0c0.5,0.7,1.6,0,2.4-0.1c0,0,0.1,0,0.1,0
	C8,24.3,8.6,24.8,8.7,25.3z"/>
<path class="st1" d="M-331-53.6c6.9,0,13.7-0.1,20.6-0.1c0.4,1.2,1.5,0.8,2.4,0.9c10.5,1.4,20.6,4.3,30.3,8.6
	c12.6,5.6,23.8,13.2,33.4,23c1.3,1.3,2.1,1.2,3-0.3c0.9-1.5,2-2.9,2.9-4.3c2.8-4.4,5.2-9.1,7.4-13.9c1.1,0.6,1.2,1.5,1.5,2.4
	c2.9,9.2,5.8,18.5,8.4,27.9c4.4,16,8.3,32.1,9.8,48.7c0.1,0.6,0,1.4,0.8,1.6c0,7.6,0,15.2-0.1,22.9c-1.4,3.4-1.1,7-1.5,10.5
	c-1.6,11.4-4.7,22.2-9.7,32.5c-11,22.8-27.7,40.1-50.2,51.6c-13,6.7-26.7,10.8-41.3,11.8c-1.2,0.1-2.5-0.1-3.7,0.6
	c-3.8,0.3-7.6,0.3-11.4,0c-1.6-0.2-3.3-0.6-4.9-0.7c-7.8-0.4-15.4-2.1-22.9-4.4c-12.8-4-24.6-10.2-35.2-18.5
	c-0.7-0.5-1.6-0.9-1.7-2.3c3.3,0.5,6.5,0.2,9.1-2.1c2.8-2.4,3.3-5.6,2.9-9.1c-0.5-4.4-5.1-8-10.1-7.6c-2.5,0.2-4.6,1.4-6.3,3.2
	c-2.8,3.1-3.2,6.7-1.5,10.7c-0.6-0.1-0.9-0.1-1.1-0.2c-0.5-0.4-1-0.9-1.5-1.3c-6.6-6.5-12.4-13.6-17.2-21.5
	c-6.3-10.4-10.9-21.5-13.6-33.4c-1.1-4.9-1.4-9.8-2.6-14.7c0-8.2-0.1-16.3-0.1-24.5c0.6-0.1,0.8-0.6,0.8-1.1c0-2.3,0.7-4.6,1.1-6.9
	c1.9-10.4,5.5-20.3,10.3-29.7c7-13.5,16.4-25,28.3-34.6c15.4-12.5,32.8-20.6,52.4-24C-338.3-52.7-334.6-52.5-331-53.6z
	 M-366.1,134.3c1.5,0.6,2.3,0.4,3.1,0.3c10.5-1.3,21.1-0.9,31.6-0.6c12.9,0.4,25.7,0.9,38.6,0.1c10.7-0.7,21.1-2.1,31.3-5.4
	c15.8-5.1,27.8-14.9,35.7-29.5c6.4-11.9,9.2-24.8,10-38.2c0.9-15.6-1-31-4-46.3c-2.2-11.4-5.3-22.6-8.8-33.7c-0.9-3-1.5-6.2-3.3-9.2
	c-0.5,0.6-0.8,1-1,1.4c-4.9,9.4-11.8,17-19.8,23.7c-17.6,14.6-37.7,23.2-60.6,25.1c-8.9,0.7-17.7,0.9-26.6,1.7
	c-9.8,1-19.1,3.3-27.9,7.5c-25.5,12.2-39.4,40.2-31.1,67.6c2.5,8.4,7.4,15.2,15.2,19.5c1.1,0.6,2.2,1.3,3.7,1
	c15.7-3.4,31.4-7.1,46.9-11.4c18.9-5.3,35.9-14,51.3-26.1c11.5-9,21.6-19.4,29.7-31.6c2-3,3.9-6.2,5.6-9.4c1.7-3.1,2.6-6.5,4.8-9.4
	c-0.9,1.2-0.4,2.6-0.8,3.9c-5.3,19.1-15.4,35.5-28.8,50c-12.6,13.6-27.1,24.6-44.2,32c-12.2,5.3-25.2,8.3-37.7,12.5
	C-357.5,131.2-361.7,132.4-366.1,134.3z"/>
<path class="st2" d="M11.4,24c0.3-0.9,0.2-0.3,0-0.4c0.5-0.2,1-0.4,1.5-0.5c1.5-0.5,3-0.9,4.5-1.5c2-0.9,3.7-2.2,5.2-3.8
	c1.6-1.7,2.8-3.7,3.4-5.9c0-0.2,0-0.3,0.1-0.5c-0.3,0.3-0.4,0.7-0.6,1.1c-0.2,0.4-0.4,0.8-0.7,1.1c-1,1.5-2.2,2.7-3.5,3.7
	c-1.8,1.4-3.8,2.5-6.1,3.1c-1.8,0.5-3.7,0.9-5.5,1.4c-0.2,0-0.3,0-0.4-0.1c-0.9-0.5-1.5-1.3-1.8-2.3c-1-3.2,0.7-6.6,3.7-8
	c1-0.5,2.2-0.8,3.3-0.9c1-0.1,2.1-0.1,3.1-0.2c2.7-0.2,5.1-1.2,7.2-3c1-0.8,1.8-1.7,2.3-2.8c0,0,0.1-0.1,0.1-0.2
	c0.2,0.4,0.3,0.7,0.4,1.1c0.4,1.3,0.8,2.6,1,4c0.4,1.8,0.6,3.6,0.5,5.5c-0.1,1.6-0.4,3.1-1.2,4.5c-0.9,1.7-1.4,2.4-2.7,3.8
	C25.3,23.3,21.5,28.1,11.4,24z"/>
</svg>
