<svg width="32" height="32" fill="none" xmlns="http://www.w3.org/2000/svg"><path d="m18.011 22.321.539.843a1 1 0 0 0 .06-1.644l-.599.801ZM3.965 7.027l.75-.661A1 1 0 0 0 3.04 7.41l.924-.384Zm12.153 9.26-.528.85a1 1 0 0 0 1.08-1.683l-.552.834ZM7.433 5.518l.699-.715a1 1 0 0 0-1.51 1.301l.81-.586ZM22.465 17.02l-.424.905a1 1 0 0 0 1.367-.572l-.943-.333ZM19.29 3l.403-.915a1 1 0 0 0-1.222 1.489l.82-.574Zm9.23 18.794-.928-.373a1 1 0 0 0 .328 1.174l.6-.8Zm1.863 7.733-.824.567.824-.567Zm-3.15-2.363.164-.986-.164.986Zm-4.612 1.17-.393-.919.393.92Zm-3.778 1.291.167.986-.167-.986ZM1 20.453l.54-.842a1 1 0 0 0-1.41 1.335l.87-.493Zm17.61 1.068c-2.071-1.545-4.96-3.931-7.613-6.617-2.672-2.706-5.02-5.633-6.109-8.259l-1.847.767c1.242 2.993 3.815 6.144 6.533 8.897 2.737 2.771 5.705 5.223 7.84 6.815l1.195-1.603ZM3.214 7.689c1.414 1.603 3.788 3.511 6.126 5.22a106.88 106.88 0 0 0 6.25 4.228l1.055-1.699a104.939 104.939 0 0 1-6.124-4.143c-2.33-1.703-4.549-3.503-5.808-4.93l-1.5 1.324Zm13.456 7.765-.014-.01a3.267 3.267 0 0 1-.179-.153 10.265 10.265 0 0 1-.461-.458 36.93 36.93 0 0 1-1.602-1.82c-1.378-1.654-3.385-4.228-6.172-8.082l-1.62 1.172c2.804 3.878 4.84 6.49 6.256 8.19a39.203 39.203 0 0 0 1.692 1.922c.405.424.741.738.994.906l1.106-1.667ZM6.734 6.232c7.122 6.963 12.65 10.45 15.307 11.692l.847-1.811c-2.398-1.121-7.745-4.457-14.756-11.31l-1.398 1.43Zm16.674 11.12c1-2.825.669-5.835-.129-8.45-.8-2.623-2.098-4.947-3.17-6.476l-1.637 1.148c.977 1.393 2.168 3.529 2.894 5.91.728 2.39.96 4.927.156 7.201l1.886.667Zm-4.52-13.437c3.913 1.722 6.548 4.982 7.974 8.424 1.442 3.48 1.58 6.97.73 9.082l1.856.747c1.108-2.755.828-6.815-.738-10.594-1.58-3.815-4.538-7.519-9.016-9.49l-.806 1.831Zm9.032 18.68c1.233.924 1.813 2.619 2.005 4.279.094.805.088 1.54.045 2.06a4.232 4.232 0 0 1-.074.55c-.013.057-.016.05.003.007a.756.756 0 0 1 .12-.188.964.964 0 0 1 .739-.342v2c.457 0 .72-.287.794-.375.095-.114.15-.226.176-.286.057-.13.093-.264.117-.37.052-.226.092-.513.118-.832a12.77 12.77 0 0 0-.05-2.454c-.214-1.836-.893-4.225-2.793-5.65l-1.2 1.6Zm2.838 6.366a.93.93 0 0 1 .573.199c.05.041.071.071.055.051l-.064-.086-.115-.166-1.647 1.135c.08.117.181.265.274.379.046.056.122.145.222.228.07.058.322.26.702.26v-2Zm.45-.002c-.475-.688-1.628-2.417-3.81-2.781l-.328 1.973c1.256.21 1.983 1.208 2.49 1.943l1.647-1.135Zm-3.81-2.781c-.891-.149-1.796.01-2.635.26-.84.251-1.711.625-2.534.977l.786 1.839c.849-.363 1.61-.687 2.32-.899.71-.212 1.276-.28 1.735-.204l.328-1.973Zm-5.17 1.237c-1.26.54-2.43 1.034-3.552 1.225l.335 1.971c1.4-.237 2.793-.839 4.004-1.357l-.786-1.839Zm-3.552 1.225c-1.276.216-4.355.084-7.714-1.162-3.33-1.234-6.831-3.524-9.092-7.518l-1.74.985C2.68 25.452 6.618 28 10.266 29.354c3.619 1.341 7.056 1.544 8.745 1.257l-.335-1.971ZM.46 21.294c1.712 1.098 4.49 2.647 7.692 3.39 3.216.748 6.932.695 10.398-1.52l-1.077-1.685c-2.879 1.84-6 1.924-8.869 1.258-2.883-.67-5.439-2.083-7.064-3.127L.46 21.294Z" fill="#2E3141"/></svg>