<svg width="32" height="32" fill="none" xmlns="http://www.w3.org/2000/svg"><rect x="2" y="8" width="28" height="15.647" rx="4" stroke="#002E42" stroke-width="2" stroke-linecap="round"/><path d="M26 13v6M5 13l1 6m5-6-1 6m-3.936 0C6.5 18 7.5 15 8 13.5l2.064 5.5M17 13h-1.5a1.5 1.5 0 0 0-1.5 1.5v0a1.5 1.5 0 0 0 1.5 1.5v0a1.5 1.5 0 0 1 1.5 1.5v0a1.5 1.5 0 0 1-1.5 1.5H14m9-2.5v1a1.5 1.5 0 0 1-1.5 1.5v0a1.5 1.5 0 0 1-1.5-1.5V15a2 2 0 0 1 2-2v0h1" stroke="#002E42" stroke-width="2" stroke-linecap="round" stroke-linejoin="round"/></svg>