<svg version="1.0" xmlns="http://www.w3.org/2000/svg" width="2666.667" height="2666.667" viewBox="0 0 2000 2000"><path d="M1389 15.9c-8.7 2.3-17.3 6.4-23.5 11-7.9 6-144 142.6-147.8 148.4-3.8 5.8-8.3 16.4-9.2 21.7-.3 1.9-.8 4.3-1.1 5.4-1.1 3.6-.5 18.2 1 24.7 1.9 7.9 5.6 16.6 9.8 22.8 4.1 6 525.9 527.8 531.9 531.9 6 4.1 14.4 7.9 20.5 9.2 2.7.7 5.8 1.4 6.9 1.6 2.8.7 16.3.6 20.5-.1 9.4-1.6 24.1-7.4 27.7-11.1.8-.8 1.8-1.4 2.3-1.4 1.2 0 139.7-138.7 144.3-144.4 4.7-6.1 7.9-12.1 10.9-21.2 1.8-5.6 2.3-9.1 2.3-18.9 0-17.1-3.4-27.7-13.2-40.5-2.3-3-122.2-123.4-266.5-267.6L1443.5 25.3l-8.5-4c-4.7-2.2-9.8-4.4-11.5-4.8-1.6-.4-3.9-.9-5-1.2-5.5-1.4-23.2-1.1-29.5.6zM1165.5 393.5c-8 1.7-17.3 5.6-23.6 9.8-2.9 1.9-73.4 71.7-156.9 155.2-161.3 161.3-156.7 156.4-161.7 171-3.1 8.8-4.2 16-3.8 25 .4 10.8 3.3 21.9 7.6 29 1 1.6 2.6 4.3 3.5 5.9.9 1.6 2.9 4.3 4.4 6 2.2 2.3 182.7 182.9 184.4 184.4.2.2 5.5-3 11.7-7.1 25.9-16.9 50.8-28.8 79.8-38.1 9.5-3.1 27.9-8 34-9.1.9-.1 3.4-.6 5.6-1 2.2-.4 4.7-.9 5.5-1 .8-.1 3.3-.5 5.5-.9 13.8-2.3 26.9-3.1 49.5-3.1 28.2 0 40.2 1.2 69.8 7 1.3.2 3.2.7 4.2 1 1 .3 2.9.8 4.2 1 3.2.6 11.5 3.1 22.8 6.7 24.4 7.8 48.2 19 73.3 34.3 3.9 2.3 23 15.6 23.7 16.4.3.4 3.7 3.1 7.5 6.2 9.3 7.5 10.9 8.9 18.5 16.4l6.6 6.4 75.1-75.2c41.4-41.4 76.7-77.2 78.6-79.7 8.5-11.5 12.6-25 12.2-40.5-.3-14.6-3.9-25.9-11.6-37.2-4.3-6.3-371.9-373.9-378.2-378.2-15-10.2-34.9-14.3-52.2-10.6zM786 931.2c-3.6.3-7.8.9-9.5 1.3-5.9 1.3-16.1 5.8-21.5 9.6-5.1 3.6-380 377.4-389.5 388.4-12 13.9-17.5 35.3-13.8 54 1.7 8.5 7.1 20.3 12.1 26.5 7.9 9.7 222.8 223.7 228.7 227.6 22.2 14.9 52.7 14.4 73.5-1.3 3.2-2.4 250-248 250-248.8 0-.1-2.4-5.8-5.4-12.7-5.4-12.3-14.2-37.5-15.2-43.2-.3-1.6-.7-3.3-1-3.8-.3-.4-.7-1.6-.9-2.5-.2-1-1.3-6.1-2.4-11.3-1.9-8.9-2.3-11.1-3.5-18.5-12.8-78.7 5.9-164.4 50.3-231l6-9-55.2-55.3c-36.5-36.6-57.4-56.8-61.7-59.6-12-8-27.1-11.9-41-10.4zM1198.5 1029.1c-21.6 1.3-37.8 4.3-57.9 11-10.4 3.4-31.9 13.2-41.1 18.6-18.3 10.8-42.2 31.1-54.3 46.1-2 2.6-4.5 5.6-5.5 6.7-4.5 4.9-17.1 25.1-22.6 36-9.6 19.4-17.9 44.8-19.7 59.8-.4 2.9-.8 5.5-1 5.8-.8 1.5-1.9 18.4-1.8 30.9 0 12.3.7 25.5 1.8 30.5.2 1.1.7 4 1.1 6.5 2.2 13.5 3 16.7 8.1 31.9 18 54 57.4 98.9 108.9 124.2 13.4 6.6 36.7 15 44.9 16.3 2.1.4 4.2.8 4.6 1.1.4.3 2.5.7 4.6 1 2.2.3 5 .8 6.4 1 1.4.3 4.8.7 7.5 1.1 2.8.3 6.1.7 7.5 1 3 .5 33.2.5 37.5 0 1.7-.2 5.7-.6 9-1s6.7-.9 7.5-1.1c.8-.2 3.3-.6 5.5-1 2.2-.3 6.9-1.3 10.5-2.1 62.2-15.1 113.6-56.3 142.4-113.9 9.4-18.9 15.2-36.9 20-63 2.8-14.7 2.8-47.3 0-65-2.4-15.5-9.2-39.7-14.7-52-6.6-14.9-18.1-34.9-25.3-44-1.4-1.7-2.8-3.5-3.2-4-9.5-13.2-28.6-31.3-46.7-44.2-6.2-4.5-25.9-16.3-27.1-16.3-.3 0-3.5-1.4-7.2-3.1-21.6-10.1-48.5-16.9-73.2-18.5-13.9-.9-15-.9-26.5-.3zm24.8 109.4c25.7 3.2 52.2 18 68.5 38.1 3.2 3.9 11.2 16.1 11.2 17 0 .4.6 1.5 1.3 2.3 1.9 2.3 7.9 18.7 9.2 25.2 2.2 10.7 2.7 32.2 1 40.4-3.1 14.6-5.2 20.9-11.3 32.5-11.6 22.3-32 40.3-55.7 49.3-38.9 14.7-81.5 6-111.5-22.7-8.1-7.7-10.8-11.1-16.6-20.3-7.3-11.7-13.2-27.1-15.1-39.8-1-6.6-1-25.4 0-33 1.1-8 6.9-25.2 11.3-33.4 16.9-31.3 48.5-52.5 82.9-55.8 3.3-.3 6.1-.6 6.2-.8.5-.3 13.4.3 18.6 1zM320.7 1547.6c-.1.1-2.2.5-4.7.8-7 1-13.7 3.3-20.9 7.2-5.6 3.1-17.4 14.4-78.8 75.7l-72.2 72.1-2.2-2c-1.2-1-11.2-10.9-22.3-21.9-17.3-17.1-21.1-20.5-27.1-23.4-31.6-15.5-68 1-76.9 34.9-1.8 6.8-1.4 22.5.8 29.3 4 12.3 2.8 11.1 126 134.5 66.5 66.7 120.5 119.9 123.5 121.9 4.9 3.3 12.4 6.7 17.6 8 4.1 1.1 19.2 1.1 24 .1 9.3-1.9 19.4-7.5 26.6-14.8 16.6-16.8 20.4-40.9 9.8-62.5-2.9-5.9-6.4-9.9-23.4-27.1-11-11.1-20.9-21.1-21.9-22.3l-2-2.2 72.5-72.7c69.4-69.5 72.7-73 76.2-80.2 10.3-20.9 9.1-43.3-3.3-61.8-5.9-8.7-80.3-82.1-86.7-85.5-6.8-3.6-15.6-6.6-21.3-7.2-6.1-.7-13-1.2-13.3-.9z"/></svg>