<svg width="1225" height="796" viewBox="0 0 1225 796" fill="none" xmlns="http://www.w3.org/2000/svg">
<rect width="1225" height="796" rx="27" fill="white"/>
<rect x="826.29" y="81.7101" width="637.58" height="744.58" rx="25.6522" transform="rotate(90 826.29 81.7101)" stroke="#90A8EC" stroke-width="3.42029"/>
<rect x="129" y="52" width="416.725" height="55" rx="10.2226" fill="white"/>
<path d="M157.455 72.5151V68.6126H175.842V72.5151H168.988V91H164.309V72.5151H157.455ZM181.286 91.317C180.214 91.317 179.26 91.1312 178.422 90.7595C177.584 90.3806 176.92 89.8231 176.432 89.087C175.951 88.3437 175.711 87.4182 175.711 86.3105C175.711 85.3777 175.882 84.5942 176.225 83.9602C176.567 83.3262 177.033 82.8161 177.624 82.4298C178.214 82.0436 178.884 81.7521 179.635 81.5553C180.393 81.3586 181.187 81.2201 182.018 81.1399C182.995 81.0379 183.782 80.9432 184.379 80.8557C184.977 80.761 185.41 80.6225 185.68 80.4403C185.95 80.2582 186.085 79.9885 186.085 79.6314V79.5658C186.085 78.8735 185.866 78.3379 185.429 77.9589C184.999 77.58 184.387 77.3905 183.592 77.3905C182.754 77.3905 182.087 77.5763 181.592 77.948C181.096 78.3124 180.768 78.7715 180.608 79.3253L176.301 78.9755C176.52 77.9553 176.95 77.0735 177.591 76.3302C178.232 75.5795 179.059 75.0038 180.072 74.603C181.093 74.1949 182.273 73.9909 183.614 73.9909C184.547 73.9909 185.44 74.1002 186.292 74.3188C187.152 74.5374 187.914 74.8763 188.577 75.3354C189.247 75.7945 189.776 76.3848 190.162 77.1063C190.548 77.8205 190.741 78.6768 190.741 79.6751V91H186.325V88.6716H186.194C185.924 89.1963 185.564 89.6591 185.112 90.0599C184.66 90.4534 184.117 90.7632 183.483 90.9891C182.849 91.2077 182.117 91.317 181.286 91.317ZM182.619 88.1032C183.304 88.1032 183.909 87.9684 184.434 87.6987C184.959 87.4218 185.37 87.0501 185.669 86.5837C185.968 86.1173 186.117 85.589 186.117 84.9987V83.2169C185.972 83.3116 185.771 83.3991 185.516 83.4792C185.268 83.5521 184.988 83.6214 184.674 83.6869C184.361 83.7452 184.048 83.7999 183.734 83.8509C183.421 83.8946 183.137 83.9347 182.882 83.9712C182.335 84.0513 181.858 84.1789 181.45 84.3538C181.042 84.5287 180.725 84.7655 180.499 85.0643C180.273 85.3558 180.16 85.7202 180.16 86.1574C180.16 86.7914 180.389 87.2761 180.848 87.6113C181.315 87.9392 181.905 88.1032 182.619 88.1032ZM194.354 91V74.2095H199.011V91H194.354ZM196.704 72.0451C196.012 72.0451 195.418 71.8155 194.923 71.3564C194.427 70.89 194.179 70.3325 194.179 69.6839C194.179 69.0426 194.427 68.4924 194.923 68.0333C195.418 67.5669 196.008 67.3337 196.693 67.3337C197.393 67.3337 197.987 67.5669 198.475 68.0333C198.971 68.4924 199.219 69.0426 199.219 69.6839C199.219 70.3325 198.971 70.89 198.475 71.3564C197.987 71.8155 197.397 72.0451 196.704 72.0451ZM207.398 68.6126V91H202.741V68.6126H207.398ZM230.485 75.0512C230.397 74.1694 230.022 73.4844 229.359 72.9961C228.696 72.5078 227.796 72.2637 226.659 72.2637C225.886 72.2637 225.234 72.373 224.702 72.5917C224.17 72.803 223.762 73.0981 223.478 73.4771C223.201 73.856 223.063 74.286 223.063 74.767C223.048 75.1678 223.132 75.5176 223.314 75.8164C223.503 76.1152 223.762 76.3739 224.09 76.5925C224.418 76.8039 224.797 76.9897 225.227 77.15C225.657 77.3031 226.116 77.4342 226.604 77.5435L228.616 78.0245C229.592 78.2431 230.489 78.5346 231.305 78.899C232.121 79.2634 232.828 79.7116 233.425 80.2436C234.023 80.7756 234.486 81.4023 234.814 82.1238C235.149 82.8452 235.32 83.6724 235.327 84.6052C235.32 85.9752 234.97 87.1631 234.278 88.1688C233.593 89.1672 232.602 89.9433 231.305 90.4972C230.015 91.0437 228.459 91.317 226.637 91.317C224.83 91.317 223.256 91.0401 221.915 90.4862C220.581 89.9324 219.539 89.1125 218.788 88.0267C218.045 86.9335 217.655 85.5817 217.619 83.9712H222.199C222.25 84.7218 222.465 85.3485 222.844 85.8513C223.23 86.3469 223.744 86.7222 224.385 86.9773C225.034 87.225 225.766 87.3489 226.582 87.3489C227.384 87.3489 228.08 87.2323 228.67 86.9991C229.268 86.7659 229.731 86.4416 230.059 86.0262C230.386 85.6109 230.55 85.1335 230.55 84.5942C230.55 84.0914 230.401 83.6687 230.102 83.3262C229.811 82.9837 229.381 82.6922 228.812 82.4517C228.251 82.2112 227.563 81.9926 226.746 81.7958L224.309 81.1837C222.421 80.7246 220.931 80.0067 219.838 79.0302C218.745 78.0537 218.202 76.7383 218.209 75.084C218.202 73.7285 218.562 72.5443 219.291 71.5313C220.027 70.5183 221.037 69.7276 222.319 69.1592C223.602 68.5908 225.059 68.3066 226.692 68.3066C228.353 68.3066 229.803 68.5908 231.042 69.1592C232.289 69.7276 233.258 70.5183 233.95 71.5313C234.642 72.5443 235 73.7176 235.021 75.0512H230.485ZM243.212 91.317C242.14 91.317 241.186 91.1312 240.348 90.7595C239.51 90.3806 238.846 89.8231 238.358 89.087C237.877 88.3437 237.637 87.4182 237.637 86.3105C237.637 85.3777 237.808 84.5942 238.15 83.9602C238.493 83.3262 238.959 82.8161 239.55 82.4298C240.14 82.0436 240.81 81.7521 241.561 81.5553C242.319 81.3586 243.113 81.2201 243.944 81.1399C244.921 81.0379 245.708 80.9432 246.305 80.8557C246.903 80.761 247.336 80.6225 247.606 80.4403C247.876 80.2582 248.011 79.9885 248.011 79.6314V79.5658C248.011 78.8735 247.792 78.3379 247.355 77.9589C246.925 77.58 246.313 77.3905 245.518 77.3905C244.68 77.3905 244.013 77.5763 243.518 77.948C243.022 78.3124 242.694 78.7715 242.534 79.3253L238.227 78.9755C238.446 77.9553 238.876 77.0735 239.517 76.3302C240.158 75.5795 240.985 75.0038 241.998 74.603C243.019 74.1949 244.199 73.9909 245.54 73.9909C246.473 73.9909 247.366 74.1002 248.218 74.3188C249.078 74.5374 249.84 74.8763 250.503 75.3354C251.173 75.7945 251.702 76.3848 252.088 77.1063C252.474 77.8205 252.667 78.6768 252.667 79.6751V91H248.251V88.6716H248.12C247.85 89.1963 247.489 89.6591 247.038 90.0599C246.586 90.4534 246.043 90.7632 245.409 90.9891C244.775 91.2077 244.042 91.317 243.212 91.317ZM244.545 88.1032C245.23 88.1032 245.835 87.9684 246.36 87.6987C246.885 87.4218 247.296 87.0501 247.595 86.5837C247.894 86.1173 248.043 85.589 248.043 84.9987V83.2169C247.898 83.3116 247.697 83.3991 247.442 83.4792C247.194 83.5521 246.914 83.6214 246.6 83.6869C246.287 83.7452 245.974 83.7999 245.66 83.8509C245.347 83.8946 245.063 83.9347 244.808 83.9712C244.261 84.0513 243.784 84.1789 243.376 84.3538C242.968 84.5287 242.651 84.7655 242.425 85.0643C242.199 85.3558 242.086 85.7202 242.086 86.1574C242.086 86.7914 242.315 87.2761 242.774 87.6113C243.241 87.9392 243.831 88.1032 244.545 88.1032ZM256.28 91V74.2095H260.718V77.1719H260.915C261.265 76.1881 261.848 75.4119 262.664 74.8435C263.48 74.2751 264.457 73.9909 265.594 73.9909C266.745 73.9909 267.725 74.2787 268.534 74.8544C269.343 75.4229 269.882 76.1953 270.152 77.1719H270.327C270.669 76.2099 271.289 75.4411 272.185 74.8654C273.089 74.2824 274.156 73.9909 275.388 73.9909C276.955 73.9909 278.227 74.4901 279.203 75.4885C280.187 76.4796 280.679 77.8861 280.679 79.7079V91H276.033V80.6262C276.033 79.6934 275.785 78.9938 275.29 78.5274C274.794 78.061 274.175 77.8278 273.431 77.8278C272.586 77.8278 271.926 78.0974 271.453 78.6367C270.979 79.1687 270.742 79.8719 270.742 80.7464V91H266.228V80.5278C266.228 79.7043 265.991 79.0484 265.517 78.5602C265.051 78.0719 264.435 77.8278 263.67 77.8278C263.152 77.8278 262.686 77.9589 262.27 78.2213C261.862 78.4763 261.538 78.8371 261.298 79.3035C261.057 79.7626 260.937 80.3019 260.937 80.9213V91H256.28ZM284.357 97.2964V74.2095H288.948V77.0298H289.156C289.36 76.5779 289.655 76.1188 290.041 75.6524C290.435 75.1787 290.945 74.7852 291.572 74.4718C292.206 74.1512 292.993 73.9909 293.933 73.9909C295.157 73.9909 296.287 74.3115 297.322 74.9528C298.357 75.5868 299.184 76.5451 299.803 77.8278C300.423 79.1031 300.732 80.7027 300.732 82.6266C300.732 84.4995 300.43 86.0809 299.825 87.3708C299.227 88.6534 298.411 89.6263 297.376 90.2895C296.349 90.9453 295.197 91.2733 293.922 91.2733C293.018 91.2733 292.25 91.1239 291.616 90.8251C290.989 90.5263 290.475 90.151 290.074 89.6992C289.673 89.2401 289.367 88.7773 289.156 88.3109H289.014V97.2964H284.357ZM288.916 82.6047C288.916 83.6031 289.054 84.474 289.331 85.2173C289.608 85.9607 290.009 86.54 290.533 86.9554C291.058 87.3635 291.696 87.5676 292.446 87.5676C293.204 87.5676 293.846 87.3599 294.37 86.9445C294.895 86.5218 295.292 85.9388 295.562 85.1955C295.839 84.4448 295.977 83.5813 295.977 82.6047C295.977 81.6355 295.842 80.7829 295.573 80.0468C295.303 79.3108 294.906 78.7351 294.381 78.3197C293.856 77.9043 293.212 77.6966 292.446 77.6966C291.688 77.6966 291.047 77.897 290.522 78.2978C290.005 78.6986 289.608 79.267 289.331 80.0031C289.054 80.7391 288.916 81.6063 288.916 82.6047ZM308.494 68.6126V91H303.837V68.6126H308.494ZM312.224 91V74.2095H316.881V91H312.224ZM314.574 72.0451C313.882 72.0451 313.288 71.8155 312.792 71.3564C312.297 70.89 312.049 70.3325 312.049 69.6839C312.049 69.0426 312.297 68.4924 312.792 68.0333C313.288 67.5669 313.878 67.3337 314.563 67.3337C315.263 67.3337 315.857 67.5669 316.345 68.0333C316.84 68.4924 317.088 69.0426 317.088 69.6839C317.088 70.3325 316.84 70.89 316.345 71.3564C315.857 71.8155 315.266 72.0451 314.574 72.0451ZM325.268 81.293V91H320.611V74.2095H325.049V77.1719H325.246C325.617 76.1953 326.241 75.4229 327.115 74.8544C327.99 74.2787 329.05 73.9909 330.296 73.9909C331.462 73.9909 332.479 74.2459 333.346 74.7561C334.213 75.2662 334.887 75.9949 335.368 76.9423C335.849 77.8824 336.09 79.0047 336.09 80.3092V91H331.433V81.1399C331.44 80.1124 331.178 79.3108 330.646 78.7351C330.114 78.1521 329.381 77.8605 328.449 77.8605C327.822 77.8605 327.268 77.9954 326.787 78.265C326.313 78.5346 325.942 78.9282 325.672 79.4456C325.41 79.9557 325.275 80.5715 325.268 81.293ZM347.324 97.5369C345.816 97.5369 344.522 97.3329 343.444 96.9248C342.372 96.5167 341.52 95.9665 340.886 95.2741C340.252 94.5818 339.84 93.813 339.651 92.9676L343.957 92.3883C344.089 92.6944 344.296 92.9822 344.581 93.2519C344.865 93.5288 345.24 93.7547 345.706 93.9296C346.18 94.1045 346.756 94.1919 347.434 94.1919C348.447 94.1919 349.281 93.9515 349.937 93.4705C350.6 92.9895 350.932 92.1988 350.932 91.0984V88.0267H350.735C350.531 88.4931 350.225 88.934 349.817 89.3494C349.409 89.7648 348.884 90.1036 348.243 90.366C347.601 90.6283 346.836 90.7595 345.947 90.7595C344.686 90.7595 343.538 90.468 342.504 89.885C341.476 89.2947 340.656 88.3947 340.044 87.185C339.439 85.9679 339.137 84.4303 339.137 82.5719C339.137 80.6699 339.446 79.0812 340.066 77.8059C340.685 76.5306 341.509 75.5759 342.536 74.9419C343.571 74.3079 344.704 73.9909 345.936 73.9909C346.876 73.9909 347.663 74.1512 348.297 74.4718C348.931 74.7852 349.441 75.1787 349.828 75.6524C350.221 76.1188 350.524 76.5779 350.735 77.0298H350.91V74.2095H355.534V91.164C355.534 92.5632 355.184 93.7328 354.484 94.6729C353.785 95.6203 352.815 96.3345 351.577 96.8155C350.345 97.2964 348.928 97.5369 347.324 97.5369ZM347.423 87.2615C348.173 87.2615 348.807 87.0757 349.325 86.704C349.849 86.325 350.25 85.7858 350.527 85.0862C350.811 84.3793 350.954 83.5339 350.954 82.5501C350.954 81.5663 350.815 80.7136 350.538 79.9922C350.261 79.2634 349.86 78.6986 349.336 78.2978C348.811 77.897 348.173 77.6966 347.423 77.6966C346.658 77.6966 346.013 77.9043 345.488 78.3197C344.963 78.7278 344.566 79.2962 344.296 80.025C344.027 80.7537 343.892 81.5954 343.892 82.5501C343.892 83.5193 344.027 84.3574 344.296 85.0643C344.573 85.7639 344.97 86.3068 345.488 86.6931C346.013 87.072 346.658 87.2615 347.423 87.2615ZM366.451 91V68.6126H375.284C376.982 68.6126 378.428 68.9369 379.624 69.5855C380.819 70.2268 381.73 71.1196 382.356 72.2637C382.99 73.4006 383.308 74.7123 383.308 76.199C383.308 77.6856 382.987 78.9974 382.346 80.1343C381.704 81.2711 380.775 82.1566 379.558 82.7906C378.348 83.4246 376.884 83.7416 375.164 83.7416H369.534V79.9484H374.398C375.309 79.9484 376.06 79.7917 376.65 79.4784C377.248 79.1577 377.692 78.7168 377.984 78.1557C378.283 77.5873 378.432 76.935 378.432 76.199C378.432 75.4557 378.283 74.8071 377.984 74.2532C377.692 73.6921 377.248 73.2585 376.65 72.9524C376.053 72.639 375.295 72.4823 374.377 72.4823H371.185V91H366.451ZM386.294 91V74.2095H390.809V77.1391H390.984C391.29 76.097 391.804 75.3099 392.525 74.7779C393.247 74.2386 394.078 73.969 395.018 73.969C395.251 73.969 395.502 73.9836 395.772 74.0127C396.042 74.0419 396.278 74.082 396.482 74.133V78.265C396.264 78.1994 395.961 78.1411 395.575 78.0901C395.189 78.0391 394.835 78.0136 394.515 78.0136C393.83 78.0136 393.218 78.163 392.678 78.4618C392.146 78.7533 391.724 79.1614 391.41 79.6861C391.104 80.2108 390.951 80.8157 390.951 81.5007V91H386.294ZM405.695 91.3279C403.997 91.3279 402.528 90.9672 401.29 90.2457C400.058 89.517 399.107 88.504 398.436 87.2068C397.766 85.9024 397.431 84.3902 397.431 82.6703C397.431 80.9359 397.766 79.4201 398.436 78.1229C399.107 76.8184 400.058 75.8055 401.29 75.084C402.528 74.3552 403.997 73.9909 405.695 73.9909C407.393 73.9909 408.858 74.3552 410.089 75.084C411.328 75.8055 412.283 76.8184 412.953 78.1229C413.624 79.4201 413.959 80.9359 413.959 82.6703C413.959 84.3902 413.624 85.9024 412.953 87.2068C412.283 88.504 411.328 89.517 410.089 90.2457C408.858 90.9672 407.393 91.3279 405.695 91.3279ZM405.717 87.7206C406.489 87.7206 407.134 87.502 407.652 87.0647C408.169 86.6202 408.559 86.0153 408.821 85.2501C409.091 84.4849 409.226 83.6141 409.226 82.6375C409.226 81.661 409.091 80.7901 408.821 80.025C408.559 79.2598 408.169 78.6549 407.652 78.2104C407.134 77.7658 406.489 77.5435 405.717 77.5435C404.937 77.5435 404.281 77.7658 403.749 78.2104C403.224 78.6549 402.827 79.2598 402.558 80.025C402.295 80.7901 402.164 81.661 402.164 82.6375C402.164 83.6141 402.295 84.4849 402.558 85.2501C402.827 86.0153 403.224 86.6202 403.749 87.0647C404.281 87.502 404.937 87.7206 405.717 87.7206ZM424.573 91.3279C422.853 91.3279 421.374 90.9636 420.135 90.2348C418.904 89.4988 417.956 88.4785 417.293 87.174C416.637 85.8696 416.309 84.3683 416.309 82.6703C416.309 80.9505 416.641 79.4419 417.304 78.1448C417.974 76.8403 418.925 75.8237 420.157 75.0949C421.389 74.3589 422.853 73.9909 424.551 73.9909C426.016 73.9909 427.299 74.2569 428.399 74.7888C429.5 75.3208 430.37 76.0678 431.012 77.0298C431.653 77.9917 432.007 79.1213 432.072 80.4185H427.678C427.554 79.5804 427.226 78.9063 426.694 78.3962C426.169 77.8788 425.481 77.6201 424.628 77.6201C423.906 77.6201 423.276 77.8168 422.737 78.2104C422.205 78.5966 421.789 79.1614 421.491 79.9047C421.192 80.648 421.042 81.548 421.042 82.6047C421.042 83.676 421.188 84.587 421.48 85.3376C421.778 86.0882 422.197 86.6603 422.737 87.0538C423.276 87.4473 423.906 87.6441 424.628 87.6441C425.16 87.6441 425.637 87.5348 426.06 87.3161C426.49 87.0975 426.843 86.7805 427.12 86.3651C427.404 85.9424 427.59 85.436 427.678 84.8457H432.072C431.999 86.1283 431.649 87.2578 431.023 88.2344C430.403 89.2036 429.547 89.9615 428.454 90.5081C427.361 91.0547 426.067 91.3279 424.573 91.3279ZM442.706 91.3279C440.978 91.3279 439.492 90.9781 438.246 90.2785C437.007 89.5716 436.052 88.5732 435.382 87.2833C434.711 85.9862 434.376 84.4521 434.376 82.6813C434.376 80.9541 434.711 79.4383 435.382 78.1338C436.052 76.8294 436.996 75.8127 438.213 75.084C439.437 74.3552 440.873 73.9909 442.52 73.9909C443.627 73.9909 444.659 74.1694 445.613 74.5265C446.575 74.8763 447.413 75.4046 448.128 76.1115C448.849 76.8184 449.41 77.7075 449.811 78.7788C450.212 79.8428 450.412 81.0889 450.412 82.5173V83.7963H436.234V80.9104H446.029C446.029 80.2399 445.883 79.646 445.591 79.1286C445.3 78.6112 444.895 78.2067 444.378 77.9152C443.868 77.6164 443.274 77.467 442.596 77.467C441.889 77.467 441.263 77.631 440.716 77.9589C440.177 78.2796 439.754 78.7132 439.448 79.2598C439.142 79.799 438.985 80.4003 438.978 81.0634V83.8072C438.978 84.638 439.131 85.3558 439.437 85.9607C439.75 86.5655 440.191 87.0319 440.76 87.3599C441.328 87.6878 442.002 87.8518 442.782 87.8518C443.299 87.8518 443.773 87.7789 444.203 87.6332C444.633 87.4874 445.001 87.2688 445.307 86.9773C445.613 86.6858 445.846 86.3287 446.007 85.906L450.314 86.1902C450.095 87.225 449.647 88.1287 448.969 88.9012C448.299 89.6664 447.432 90.264 446.368 90.6939C445.311 91.1166 444.09 91.3279 442.706 91.3279ZM467.421 78.9974L463.158 79.2598C463.085 78.8954 462.929 78.5674 462.688 78.2759C462.448 77.9772 462.131 77.7403 461.737 77.5654C461.351 77.3832 460.888 77.2921 460.349 77.2921C459.627 77.2921 459.019 77.4452 458.523 77.7512C458.028 78.05 457.78 78.4508 457.78 78.9537C457.78 79.3545 457.94 79.6934 458.261 79.9703C458.582 80.2472 459.132 80.4695 459.911 80.6371L462.95 81.2493C464.583 81.5845 465.8 82.1238 466.601 82.8671C467.403 83.6104 467.804 84.587 467.804 85.7967C467.804 86.8971 467.48 87.8627 466.831 88.6935C466.19 89.5243 465.308 90.1729 464.186 90.6393C463.071 91.0984 461.784 91.3279 460.327 91.3279C458.104 91.3279 456.333 90.8652 455.014 89.9397C453.702 89.0069 452.934 87.7388 452.708 86.1356L457.288 85.8951C457.426 86.5728 457.762 87.0902 458.294 87.4473C458.826 87.7971 459.507 87.972 460.338 87.972C461.154 87.972 461.81 87.8153 462.305 87.502C462.808 87.1813 463.063 86.7696 463.071 86.2667C463.063 85.8441 462.885 85.4979 462.535 85.2283C462.185 84.9513 461.646 84.74 460.917 84.5942L458.009 84.0149C456.37 83.6869 455.149 83.1185 454.347 82.3096C453.553 81.5007 453.156 80.4695 453.156 79.216C453.156 78.1375 453.447 77.2083 454.03 76.4285C454.621 75.6488 455.448 75.0476 456.512 74.6249C457.583 74.2022 458.837 73.9909 460.272 73.9909C462.393 73.9909 464.062 74.439 465.279 75.3354C466.503 76.2318 467.217 77.4524 467.421 78.9974ZM484.706 78.9974L480.443 79.2598C480.37 78.8954 480.214 78.5674 479.973 78.2759C479.733 77.9772 479.416 77.7403 479.022 77.5654C478.636 77.3832 478.173 77.2921 477.634 77.2921C476.912 77.2921 476.304 77.4452 475.808 77.7512C475.313 78.05 475.065 78.4508 475.065 78.9537C475.065 79.3545 475.225 79.6934 475.546 79.9703C475.867 80.2472 476.417 80.4695 477.197 80.6371L480.236 81.2493C481.868 81.5845 483.085 82.1238 483.887 82.8671C484.688 83.6104 485.089 84.587 485.089 85.7967C485.089 86.8971 484.765 87.8627 484.116 88.6935C483.475 89.5243 482.593 90.1729 481.471 90.6393C480.356 91.0984 479.07 91.3279 477.612 91.3279C475.389 91.3279 473.618 90.8652 472.299 89.9397C470.988 89.0069 470.219 87.7388 469.993 86.1356L474.573 85.8951C474.712 86.5728 475.047 87.0902 475.579 87.4473C476.111 87.7971 476.792 87.972 477.623 87.972C478.439 87.972 479.095 87.8153 479.591 87.502C480.093 87.1813 480.349 86.7696 480.356 86.2667C480.349 85.8441 480.17 85.4979 479.82 85.2283C479.47 84.9513 478.931 84.74 478.202 84.5942L475.295 84.0149C473.655 83.6869 472.434 83.1185 471.633 82.3096C470.838 81.5007 470.441 80.4695 470.441 79.216C470.441 78.1375 470.733 77.2083 471.316 76.4285C471.906 75.6488 472.733 75.0476 473.797 74.6249C474.868 74.2022 476.122 73.9909 477.557 73.9909C479.678 73.9909 481.347 74.439 482.564 75.3354C483.788 76.2318 484.502 77.4524 484.706 78.9974ZM495.608 91.3279C493.91 91.3279 492.441 90.9672 491.202 90.2457C489.971 89.517 489.02 88.504 488.349 87.2068C487.679 85.9024 487.344 84.3902 487.344 82.6703C487.344 80.9359 487.679 79.4201 488.349 78.1229C489.02 76.8184 489.971 75.8055 491.202 75.084C492.441 74.3552 493.91 73.9909 495.608 73.9909C497.306 73.9909 498.771 74.3552 500.002 75.084C501.241 75.8055 502.196 76.8184 502.866 78.1229C503.537 79.4201 503.872 80.9359 503.872 82.6703C503.872 84.3902 503.537 85.9024 502.866 87.2068C502.196 88.504 501.241 89.517 500.002 90.2457C498.771 90.9672 497.306 91.3279 495.608 91.3279ZM495.63 87.7206C496.402 87.7206 497.047 87.502 497.564 87.0647C498.082 86.6202 498.472 86.0153 498.734 85.2501C499.004 84.4849 499.139 83.6141 499.139 82.6375C499.139 81.661 499.004 80.7901 498.734 80.025C498.472 79.2598 498.082 78.6549 497.564 78.2104C497.047 77.7658 496.402 77.5435 495.63 77.5435C494.85 77.5435 494.194 77.7658 493.662 78.2104C493.137 78.6549 492.74 79.2598 492.47 80.025C492.208 80.7901 492.077 81.661 492.077 82.6375C492.077 83.6141 492.208 84.4849 492.47 85.2501C492.74 86.0153 493.137 86.6202 493.662 87.0647C494.194 87.502 494.85 87.7206 495.63 87.7206ZM506.9 91V74.2095H511.414V77.1391H511.589C511.895 76.097 512.409 75.3099 513.131 74.7779C513.852 74.2386 514.683 73.969 515.623 73.969C515.856 73.969 516.108 73.9836 516.377 74.0127C516.647 74.0419 516.884 74.082 517.088 74.133V78.265C516.869 78.1994 516.567 78.1411 516.18 78.0901C515.794 78.0391 515.441 78.0136 515.12 78.0136C514.435 78.0136 513.823 78.163 513.284 78.4618C512.752 78.7533 512.329 79.1614 512.016 79.6861C511.71 80.2108 511.557 80.8157 511.557 81.5007V91H506.9Z" fill="#90A8EC"/>
<rect x="785" y="122" width="558" height="663" rx="8" transform="rotate(90 785 122)" fill="#E7ECF8"/>
<path d="M157.093 162.515V158.613H175.48V162.515H168.626V181H163.947V162.515H157.093ZM176.677 181V164.209H181.191V167.139H181.366C181.672 166.097 182.186 165.31 182.907 164.778C183.629 164.239 184.46 163.969 185.4 163.969C185.633 163.969 185.884 163.984 186.154 164.013C186.424 164.042 186.661 164.082 186.865 164.133V168.265C186.646 168.199 186.344 168.141 185.957 168.09C185.571 168.039 185.218 168.014 184.897 168.014C184.212 168.014 183.6 168.163 183.06 168.462C182.529 168.753 182.106 169.161 181.792 169.686C181.486 170.211 181.333 170.816 181.333 171.501V181H176.677ZM193.579 181.317C192.508 181.317 191.553 181.131 190.715 180.76C189.877 180.381 189.214 179.823 188.726 179.087C188.245 178.344 188.004 177.418 188.004 176.31C188.004 175.378 188.175 174.594 188.518 173.96C188.86 173.326 189.327 172.816 189.917 172.43C190.507 172.044 191.178 171.752 191.929 171.555C192.686 171.359 193.481 171.22 194.312 171.14C195.288 171.038 196.075 170.943 196.673 170.856C197.27 170.761 197.704 170.623 197.974 170.44C198.243 170.258 198.378 169.989 198.378 169.631V169.566C198.378 168.874 198.159 168.338 197.722 167.959C197.292 167.58 196.68 167.391 195.886 167.391C195.048 167.391 194.381 167.576 193.885 167.948C193.39 168.312 193.062 168.771 192.901 169.325L188.594 168.976C188.813 167.955 189.243 167.073 189.884 166.33C190.526 165.58 191.353 165.004 192.366 164.603C193.386 164.195 194.567 163.991 195.908 163.991C196.84 163.991 197.733 164.1 198.586 164.319C199.446 164.537 200.207 164.876 200.87 165.335C201.541 165.795 202.069 166.385 202.455 167.106C202.842 167.82 203.035 168.677 203.035 169.675V181H198.618V178.672H198.487C198.218 179.196 197.857 179.659 197.405 180.06C196.953 180.453 196.41 180.763 195.776 180.989C195.142 181.208 194.41 181.317 193.579 181.317ZM194.913 178.103C195.598 178.103 196.203 177.968 196.727 177.699C197.252 177.422 197.664 177.05 197.963 176.584C198.261 176.117 198.411 175.589 198.411 174.999V173.217C198.265 173.312 198.065 173.399 197.81 173.479C197.562 173.552 197.281 173.621 196.968 173.687C196.655 173.745 196.341 173.8 196.028 173.851C195.714 173.895 195.43 173.935 195.175 173.971C194.629 174.051 194.151 174.179 193.743 174.354C193.335 174.529 193.018 174.766 192.792 175.064C192.566 175.356 192.453 175.72 192.453 176.157C192.453 176.791 192.683 177.276 193.142 177.611C193.608 177.939 194.199 178.103 194.913 178.103ZM214.234 181.328C212.514 181.328 211.035 180.964 209.796 180.235C208.564 179.499 207.617 178.479 206.954 177.174C206.298 175.87 205.97 174.368 205.97 172.67C205.97 170.95 206.301 169.442 206.965 168.145C207.635 166.84 208.586 165.824 209.818 165.095C211.049 164.359 212.514 163.991 214.212 163.991C215.677 163.991 216.959 164.257 218.06 164.789C219.16 165.321 220.031 166.068 220.672 167.03C221.314 167.992 221.667 169.121 221.733 170.418H217.338C217.215 169.58 216.887 168.906 216.355 168.396C215.83 167.879 215.141 167.62 214.289 167.62C213.567 167.62 212.937 167.817 212.397 168.21C211.865 168.597 211.45 169.161 211.151 169.905C210.852 170.648 210.703 171.548 210.703 172.605C210.703 173.676 210.849 174.587 211.14 175.338C211.439 176.088 211.858 176.66 212.397 177.054C212.937 177.447 213.567 177.644 214.289 177.644C214.821 177.644 215.298 177.535 215.721 177.316C216.151 177.098 216.504 176.781 216.781 176.365C217.065 175.942 217.251 175.436 217.338 174.846H221.733C221.66 176.128 221.31 177.258 220.683 178.234C220.064 179.204 219.208 179.962 218.115 180.508C217.021 181.055 215.728 181.328 214.234 181.328ZM232.366 181.328C230.639 181.328 229.152 180.978 227.906 180.279C226.667 179.572 225.713 178.573 225.042 177.283C224.372 175.986 224.037 174.452 224.037 172.681C224.037 170.954 224.372 169.438 225.042 168.134C225.713 166.829 226.656 165.813 227.873 165.084C229.098 164.355 230.533 163.991 232.18 163.991C233.288 163.991 234.319 164.169 235.274 164.526C236.236 164.876 237.074 165.405 237.788 166.112C238.51 166.818 239.071 167.708 239.472 168.779C239.872 169.843 240.073 171.089 240.073 172.517V173.796H225.895V170.91H235.689C235.689 170.24 235.544 169.646 235.252 169.129C234.961 168.611 234.556 168.207 234.039 167.915C233.529 167.616 232.935 167.467 232.257 167.467C231.55 167.467 230.923 167.631 230.377 167.959C229.837 168.28 229.415 168.713 229.109 169.26C228.803 169.799 228.646 170.4 228.639 171.063V173.807C228.639 174.638 228.792 175.356 229.098 175.961C229.411 176.566 229.852 177.032 230.42 177.36C230.989 177.688 231.663 177.852 232.443 177.852C232.96 177.852 233.434 177.779 233.864 177.633C234.294 177.487 234.662 177.269 234.968 176.977C235.274 176.686 235.507 176.329 235.667 175.906L239.974 176.19C239.756 177.225 239.308 178.129 238.63 178.901C237.959 179.666 237.092 180.264 236.028 180.694C234.972 181.117 233.751 181.328 232.366 181.328Z" fill="#90A8EC"/>
<g filter="url(#filter0_d_429_714)">
<path d="M387 398C387 392.477 391.477 388 397 388H513C518.523 388 523 392.477 523 398V460C523 465.523 518.523 470 513 470H397C391.477 470 387 465.523 387 460V398Z" fill="white"/>
<path d="M433.641 425.636C433.513 424.557 432.995 423.719 432.086 423.122C431.177 422.526 430.062 422.227 428.741 422.227C427.775 422.227 426.93 422.384 426.205 422.696C425.488 423.009 424.927 423.438 424.522 423.985C424.124 424.532 423.925 425.153 423.925 425.849C423.925 426.432 424.064 426.933 424.341 427.352C424.625 427.763 424.987 428.108 425.427 428.385C425.868 428.655 426.329 428.879 426.812 429.056C427.295 429.227 427.739 429.365 428.144 429.472L430.36 430.068C430.928 430.217 431.56 430.423 432.256 430.686C432.959 430.949 433.631 431.308 434.27 431.762C434.916 432.21 435.449 432.785 435.868 433.488C436.287 434.191 436.496 435.054 436.496 436.077C436.496 437.256 436.187 438.321 435.57 439.273C434.959 440.224 434.064 440.981 432.885 441.542C431.713 442.103 430.289 442.384 428.613 442.384C427.05 442.384 425.697 442.131 424.554 441.627C423.418 441.123 422.523 440.42 421.869 439.518C421.223 438.616 420.857 437.568 420.772 436.375H423.499C423.57 437.199 423.847 437.881 424.33 438.42C424.82 438.953 425.438 439.351 426.184 439.614C426.937 439.869 427.746 439.997 428.613 439.997C429.621 439.997 430.527 439.834 431.329 439.507C432.132 439.173 432.768 438.712 433.236 438.122C433.705 437.526 433.94 436.83 433.94 436.034C433.94 435.31 433.737 434.72 433.332 434.266C432.927 433.811 432.395 433.442 431.734 433.158C431.074 432.874 430.36 432.625 429.593 432.412L426.908 431.645C425.204 431.155 423.854 430.455 422.86 429.546C421.866 428.637 421.369 427.447 421.369 425.977C421.369 424.756 421.699 423.69 422.359 422.781C423.027 421.865 423.922 421.155 425.044 420.651C426.173 420.139 427.434 419.884 428.826 419.884C430.232 419.884 431.482 420.136 432.576 420.64C433.67 421.137 434.536 421.819 435.175 422.685C435.822 423.552 436.163 424.536 436.198 425.636H433.641ZM440.499 448.136V425.636H442.928V428.236H443.227C443.411 427.952 443.667 427.589 443.994 427.149C444.328 426.702 444.803 426.304 445.421 425.956C446.046 425.601 446.891 425.423 447.957 425.423C449.335 425.423 450.549 425.768 451.6 426.457C452.651 427.146 453.472 428.122 454.061 429.386C454.651 430.651 454.945 432.142 454.945 433.861C454.945 435.594 454.651 437.096 454.061 438.367C453.472 439.631 452.655 440.612 451.611 441.308C450.567 441.996 449.363 442.341 447.999 442.341C446.948 442.341 446.107 442.167 445.475 441.819C444.842 441.464 444.356 441.062 444.015 440.615C443.674 440.161 443.411 439.784 443.227 439.486H443.014V448.136H440.499ZM442.971 433.818C442.971 435.054 443.152 436.144 443.514 437.089C443.877 438.026 444.406 438.761 445.102 439.294C445.798 439.82 446.65 440.082 447.658 440.082C448.71 440.082 449.587 439.805 450.29 439.251C451 438.69 451.533 437.937 451.888 436.993C452.25 436.041 452.431 434.983 452.431 433.818C452.431 432.668 452.254 431.631 451.899 430.707C451.551 429.777 451.021 429.042 450.311 428.502C449.608 427.955 448.724 427.682 447.658 427.682C446.636 427.682 445.776 427.941 445.08 428.46C444.384 428.971 443.859 429.688 443.504 430.612C443.149 431.528 442.971 432.597 442.971 433.818ZM463.596 442.384C462.559 442.384 461.618 442.188 460.773 441.798C459.928 441.4 459.256 440.828 458.759 440.082C458.262 439.33 458.014 438.42 458.014 437.355C458.014 436.418 458.198 435.658 458.568 435.075C458.937 434.486 459.43 434.024 460.048 433.69C460.666 433.357 461.348 433.108 462.094 432.945C462.847 432.774 463.603 432.639 464.363 432.54C465.357 432.412 466.163 432.316 466.781 432.252C467.406 432.181 467.861 432.064 468.145 431.901C468.436 431.737 468.582 431.453 468.582 431.048V430.963C468.582 429.912 468.294 429.095 467.719 428.513C467.151 427.93 466.288 427.639 465.13 427.639C463.93 427.639 462.989 427.902 462.307 428.428C461.625 428.953 461.146 429.514 460.869 430.111L458.482 429.259C458.908 428.264 459.477 427.49 460.187 426.936C460.904 426.375 461.685 425.984 462.531 425.764C463.383 425.537 464.221 425.423 465.045 425.423C465.57 425.423 466.174 425.487 466.856 425.615C467.545 425.736 468.209 425.988 468.848 426.371C469.494 426.755 470.031 427.334 470.457 428.108C470.883 428.882 471.096 429.919 471.096 431.219V442H468.582V439.784H468.454C468.283 440.139 467.999 440.519 467.602 440.924C467.204 441.329 466.675 441.673 466.014 441.957C465.354 442.241 464.548 442.384 463.596 442.384ZM463.979 440.125C464.974 440.125 465.812 439.93 466.494 439.539C467.183 439.148 467.701 438.644 468.049 438.026C468.404 437.408 468.582 436.759 468.582 436.077V433.776C468.475 433.903 468.241 434.021 467.879 434.127C467.524 434.227 467.112 434.315 466.643 434.393C466.181 434.464 465.73 434.528 465.29 434.585C464.857 434.635 464.505 434.678 464.235 434.713C463.582 434.798 462.971 434.937 462.403 435.129C461.842 435.313 461.387 435.594 461.039 435.97C460.698 436.339 460.528 436.844 460.528 437.483C460.528 438.357 460.851 439.017 461.497 439.464C462.151 439.905 462.978 440.125 463.979 440.125ZM478.199 432.156V442H475.685V425.636H478.114V428.193H478.327C478.71 427.362 479.293 426.695 480.074 426.19C480.855 425.679 481.864 425.423 483.1 425.423C484.208 425.423 485.177 425.651 486.008 426.105C486.839 426.553 487.485 427.234 487.947 428.151C488.409 429.06 488.639 430.21 488.639 431.602V442H486.125V431.773C486.125 430.487 485.791 429.486 485.124 428.768C484.456 428.044 483.54 427.682 482.375 427.682C481.573 427.682 480.855 427.856 480.223 428.204C479.598 428.552 479.105 429.06 478.742 429.727C478.38 430.395 478.199 431.205 478.199 432.156Z" fill="#7D88A1"/>
</g>
<g filter="url(#filter1_d_429_714)">
<path d="M387 560C387 554.477 391.477 550 397 550H513C518.523 550 523 554.477 523 560V622C523 627.523 518.523 632 513 632H397C391.477 632 387 627.523 387 622V560Z" fill="white"/>
<path d="M433.641 587.636C433.513 586.557 432.995 585.719 432.086 585.122C431.177 584.526 430.062 584.227 428.741 584.227C427.775 584.227 426.93 584.384 426.205 584.696C425.488 585.009 424.927 585.438 424.522 585.985C424.124 586.532 423.925 587.153 423.925 587.849C423.925 588.432 424.064 588.933 424.341 589.352C424.625 589.763 424.987 590.108 425.427 590.385C425.868 590.655 426.329 590.879 426.812 591.056C427.295 591.227 427.739 591.365 428.144 591.472L430.36 592.068C430.928 592.217 431.56 592.423 432.256 592.686C432.959 592.949 433.631 593.308 434.27 593.762C434.916 594.21 435.449 594.785 435.868 595.488C436.287 596.191 436.496 597.054 436.496 598.077C436.496 599.256 436.187 600.321 435.57 601.273C434.959 602.224 434.064 602.981 432.885 603.542C431.713 604.103 430.289 604.384 428.613 604.384C427.05 604.384 425.697 604.131 424.554 603.627C423.418 603.123 422.523 602.42 421.869 601.518C421.223 600.616 420.857 599.568 420.772 598.375H423.499C423.57 599.199 423.847 599.881 424.33 600.42C424.82 600.953 425.438 601.351 426.184 601.614C426.937 601.869 427.746 601.997 428.613 601.997C429.621 601.997 430.527 601.834 431.329 601.507C432.132 601.173 432.768 600.712 433.236 600.122C433.705 599.526 433.94 598.83 433.94 598.034C433.94 597.31 433.737 596.72 433.332 596.266C432.927 595.811 432.395 595.442 431.734 595.158C431.074 594.874 430.36 594.625 429.593 594.412L426.908 593.645C425.204 593.155 423.854 592.455 422.86 591.546C421.866 590.637 421.369 589.447 421.369 587.977C421.369 586.756 421.699 585.69 422.359 584.781C423.027 583.865 423.922 583.155 425.044 582.651C426.173 582.139 427.434 581.884 428.826 581.884C430.232 581.884 431.482 582.136 432.576 582.64C433.67 583.137 434.536 583.819 435.175 584.685C435.822 585.552 436.163 586.536 436.198 587.636H433.641ZM440.499 610.136V587.636H442.928V590.236H443.227C443.411 589.952 443.667 589.589 443.994 589.149C444.328 588.702 444.803 588.304 445.421 587.956C446.046 587.601 446.891 587.423 447.957 587.423C449.335 587.423 450.549 587.768 451.6 588.457C452.651 589.146 453.472 590.122 454.061 591.386C454.651 592.651 454.945 594.142 454.945 595.861C454.945 597.594 454.651 599.096 454.061 600.367C453.472 601.631 452.655 602.612 451.611 603.308C450.567 603.996 449.363 604.341 447.999 604.341C446.948 604.341 446.107 604.167 445.475 603.819C444.842 603.464 444.356 603.062 444.015 602.615C443.674 602.161 443.411 601.784 443.227 601.486H443.014V610.136H440.499ZM442.971 595.818C442.971 597.054 443.152 598.144 443.514 599.089C443.877 600.026 444.406 600.761 445.102 601.294C445.798 601.82 446.65 602.082 447.658 602.082C448.71 602.082 449.587 601.805 450.29 601.251C451 600.69 451.533 599.937 451.888 598.993C452.25 598.041 452.431 596.983 452.431 595.818C452.431 594.668 452.254 593.631 451.899 592.707C451.551 591.777 451.021 591.042 450.311 590.502C449.608 589.955 448.724 589.682 447.658 589.682C446.636 589.682 445.776 589.941 445.08 590.46C444.384 590.971 443.859 591.688 443.504 592.612C443.149 593.528 442.971 594.597 442.971 595.818ZM463.596 604.384C462.559 604.384 461.618 604.188 460.773 603.798C459.928 603.4 459.256 602.828 458.759 602.082C458.262 601.33 458.014 600.42 458.014 599.355C458.014 598.418 458.198 597.658 458.568 597.075C458.937 596.486 459.43 596.024 460.048 595.69C460.666 595.357 461.348 595.108 462.094 594.945C462.847 594.774 463.603 594.639 464.363 594.54C465.357 594.412 466.163 594.316 466.781 594.252C467.406 594.181 467.861 594.064 468.145 593.901C468.436 593.737 468.582 593.453 468.582 593.048V592.963C468.582 591.912 468.294 591.095 467.719 590.513C467.151 589.93 466.288 589.639 465.13 589.639C463.93 589.639 462.989 589.902 462.307 590.428C461.625 590.953 461.146 591.514 460.869 592.111L458.482 591.259C458.908 590.264 459.477 589.49 460.187 588.936C460.904 588.375 461.685 587.984 462.531 587.764C463.383 587.537 464.221 587.423 465.045 587.423C465.57 587.423 466.174 587.487 466.856 587.615C467.545 587.736 468.209 587.988 468.848 588.371C469.494 588.755 470.031 589.334 470.457 590.108C470.883 590.882 471.096 591.919 471.096 593.219V604H468.582V601.784H468.454C468.283 602.139 467.999 602.519 467.602 602.924C467.204 603.329 466.675 603.673 466.014 603.957C465.354 604.241 464.548 604.384 463.596 604.384ZM463.979 602.125C464.974 602.125 465.812 601.93 466.494 601.539C467.183 601.148 467.701 600.644 468.049 600.026C468.404 599.408 468.582 598.759 468.582 598.077V595.776C468.475 595.903 468.241 596.021 467.879 596.127C467.524 596.227 467.112 596.315 466.643 596.393C466.181 596.464 465.73 596.528 465.29 596.585C464.857 596.635 464.505 596.678 464.235 596.713C463.582 596.798 462.971 596.937 462.403 597.129C461.842 597.313 461.387 597.594 461.039 597.97C460.698 598.339 460.528 598.844 460.528 599.483C460.528 600.357 460.851 601.017 461.497 601.464C462.151 601.905 462.978 602.125 463.979 602.125ZM478.199 594.156V604H475.685V587.636H478.114V590.193H478.327C478.71 589.362 479.293 588.695 480.074 588.19C480.855 587.679 481.864 587.423 483.1 587.423C484.208 587.423 485.177 587.651 486.008 588.105C486.839 588.553 487.485 589.234 487.947 590.151C488.409 591.06 488.639 592.21 488.639 593.602V604H486.125V593.773C486.125 592.487 485.791 591.486 485.124 590.768C484.456 590.044 483.54 589.682 482.375 589.682C481.573 589.682 480.855 589.856 480.223 590.204C479.598 590.552 479.105 591.06 478.742 591.727C478.38 592.395 478.199 593.205 478.199 594.156Z" fill="#7D88A1"/>
</g>
<g filter="url(#filter2_d_429_714)">
<path d="M350 236C350 230.477 354.477 226 360 226H551C556.523 226 561 230.477 561 236V298C561 303.523 556.523 308 551 308H360C354.477 308 350 303.523 350 298V236Z" fill="white"/>
<path d="M385.134 280V258.182H392.506C394.211 258.182 395.61 258.473 396.704 259.055C397.798 259.631 398.607 260.423 399.133 261.431C399.658 262.44 399.921 263.587 399.921 264.872C399.921 266.158 399.658 267.298 399.133 268.292C398.607 269.286 397.801 270.067 396.714 270.636C395.628 271.197 394.239 271.477 392.549 271.477H386.583V269.091H392.464C393.629 269.091 394.566 268.92 395.276 268.58C395.994 268.239 396.512 267.756 396.832 267.131C397.158 266.499 397.322 265.746 397.322 264.872C397.322 263.999 397.158 263.235 396.832 262.582C396.505 261.928 395.983 261.424 395.266 261.069C394.548 260.707 393.6 260.526 392.421 260.526H387.776V280H385.134ZM395.404 270.199L400.773 280H397.705L392.421 270.199H395.404ZM410.455 280.341C408.977 280.341 407.681 279.989 406.566 279.286C405.458 278.583 404.592 277.599 403.967 276.335C403.349 275.071 403.04 273.594 403.04 271.903C403.04 270.199 403.349 268.711 403.967 267.44C404.592 266.168 405.458 265.181 406.566 264.478C407.681 263.775 408.977 263.423 410.455 263.423C411.932 263.423 413.225 263.775 414.333 264.478C415.448 265.181 416.314 266.168 416.932 267.44C417.557 268.711 417.869 270.199 417.869 271.903C417.869 273.594 417.557 275.071 416.932 276.335C416.314 277.599 415.448 278.583 414.333 279.286C413.225 279.989 411.932 280.341 410.455 280.341ZM410.455 278.082C411.577 278.082 412.5 277.795 413.225 277.219C413.949 276.644 414.485 275.888 414.833 274.95C415.181 274.013 415.355 272.997 415.355 271.903C415.355 270.81 415.181 269.79 414.833 268.846C414.485 267.901 413.949 267.138 413.225 266.555C412.5 265.973 411.577 265.682 410.455 265.682C409.333 265.682 408.409 265.973 407.685 266.555C406.96 267.138 406.424 267.901 406.076 268.846C405.728 269.79 405.554 270.81 405.554 271.903C405.554 272.997 405.728 274.013 406.076 274.95C406.424 275.888 406.96 276.644 407.685 277.219C408.409 277.795 409.333 278.082 410.455 278.082ZM428.355 280.341C426.878 280.341 425.582 279.989 424.467 279.286C423.359 278.583 422.492 277.599 421.867 276.335C421.249 275.071 420.94 273.594 420.94 271.903C420.94 270.199 421.249 268.711 421.867 267.44C422.492 266.168 423.359 265.181 424.467 264.478C425.582 263.775 426.878 263.423 428.355 263.423C429.832 263.423 431.125 263.775 432.233 264.478C433.348 265.181 434.214 266.168 434.832 267.44C435.457 268.711 435.77 270.199 435.77 271.903C435.77 273.594 435.457 275.071 434.832 276.335C434.214 277.599 433.348 278.583 432.233 279.286C431.125 279.989 429.832 280.341 428.355 280.341ZM428.355 278.082C429.477 278.082 430.401 277.795 431.125 277.219C431.849 276.644 432.386 275.888 432.734 274.95C433.082 274.013 433.256 272.997 433.256 271.903C433.256 270.81 433.082 269.79 432.734 268.846C432.386 267.901 431.849 267.138 431.125 266.555C430.401 265.973 429.477 265.682 428.355 265.682C427.233 265.682 426.31 265.973 425.585 266.555C424.861 267.138 424.325 267.901 423.977 268.846C423.629 269.79 423.455 270.81 423.455 271.903C423.455 272.997 423.629 274.013 423.977 274.95C424.325 275.888 424.861 276.644 425.585 277.219C426.31 277.795 427.233 278.082 428.355 278.082ZM446.724 263.636V265.767H438.244V263.636H446.724ZM440.716 259.716H443.23V275.312C443.23 276.023 443.333 276.555 443.539 276.911C443.752 277.259 444.022 277.493 444.349 277.614C444.682 277.727 445.034 277.784 445.403 277.784C445.68 277.784 445.907 277.77 446.085 277.741C446.263 277.706 446.405 277.678 446.511 277.656L447.023 279.915C446.852 279.979 446.614 280.043 446.309 280.107C446.003 280.178 445.616 280.213 445.148 280.213C444.437 280.213 443.741 280.06 443.059 279.755C442.385 279.45 441.824 278.984 441.376 278.359C440.936 277.734 440.716 276.946 440.716 275.994V259.716ZM471.216 263.636C471.089 262.557 470.57 261.719 469.661 261.122C468.752 260.526 467.637 260.227 466.316 260.227C465.35 260.227 464.505 260.384 463.78 260.696C463.063 261.009 462.502 261.438 462.097 261.985C461.699 262.532 461.501 263.153 461.501 263.849C461.501 264.432 461.639 264.933 461.916 265.352C462.2 265.763 462.562 266.108 463.003 266.385C463.443 266.655 463.905 266.879 464.388 267.056C464.871 267.227 465.314 267.365 465.719 267.472L467.935 268.068C468.503 268.217 469.135 268.423 469.831 268.686C470.535 268.949 471.206 269.308 471.845 269.762C472.491 270.21 473.024 270.785 473.443 271.488C473.862 272.191 474.072 273.054 474.072 274.077C474.072 275.256 473.763 276.321 473.145 277.273C472.534 278.224 471.639 278.981 470.46 279.542C469.288 280.103 467.864 280.384 466.188 280.384C464.626 280.384 463.273 280.131 462.129 279.627C460.993 279.123 460.098 278.42 459.444 277.518C458.798 276.616 458.432 275.568 458.347 274.375H461.074C461.145 275.199 461.422 275.881 461.905 276.42C462.395 276.953 463.013 277.351 463.759 277.614C464.512 277.869 465.322 277.997 466.188 277.997C467.197 277.997 468.102 277.834 468.905 277.507C469.707 277.173 470.343 276.712 470.812 276.122C471.28 275.526 471.515 274.83 471.515 274.034C471.515 273.31 471.312 272.72 470.907 272.266C470.503 271.811 469.97 271.442 469.309 271.158C468.649 270.874 467.935 270.625 467.168 270.412L464.483 269.645C462.779 269.155 461.43 268.455 460.435 267.546C459.441 266.637 458.944 265.447 458.944 263.977C458.944 262.756 459.274 261.69 459.934 260.781C460.602 259.865 461.497 259.155 462.619 258.651C463.748 258.139 465.009 257.884 466.401 257.884C467.807 257.884 469.057 258.136 470.151 258.64C471.245 259.137 472.111 259.819 472.751 260.685C473.397 261.552 473.738 262.536 473.773 263.636H471.216ZM478.075 286.136V263.636H480.504V266.236H480.802C480.987 265.952 481.242 265.589 481.569 265.149C481.903 264.702 482.379 264.304 482.996 263.956C483.621 263.601 484.467 263.423 485.532 263.423C486.91 263.423 488.124 263.768 489.175 264.457C490.227 265.146 491.047 266.122 491.636 267.386C492.226 268.651 492.521 270.142 492.521 271.861C492.521 273.594 492.226 275.096 491.636 276.367C491.047 277.631 490.23 278.612 489.186 279.308C488.142 279.996 486.938 280.341 485.575 280.341C484.523 280.341 483.682 280.167 483.05 279.819C482.418 279.464 481.931 279.062 481.59 278.615C481.249 278.161 480.987 277.784 480.802 277.486H480.589V286.136H478.075ZM480.546 271.818C480.546 273.054 480.727 274.144 481.089 275.089C481.452 276.026 481.981 276.761 482.677 277.294C483.373 277.82 484.225 278.082 485.234 278.082C486.285 278.082 487.162 277.805 487.865 277.251C488.575 276.69 489.108 275.937 489.463 274.993C489.825 274.041 490.006 272.983 490.006 271.818C490.006 270.668 489.829 269.631 489.474 268.707C489.126 267.777 488.597 267.042 487.886 266.502C487.183 265.955 486.299 265.682 485.234 265.682C484.211 265.682 483.352 265.941 482.656 266.46C481.96 266.971 481.434 267.688 481.079 268.612C480.724 269.528 480.546 270.597 480.546 271.818ZM501.171 280.384C500.134 280.384 499.193 280.188 498.348 279.798C497.503 279.4 496.832 278.828 496.335 278.082C495.837 277.33 495.589 276.42 495.589 275.355C495.589 274.418 495.773 273.658 496.143 273.075C496.512 272.486 497.006 272.024 497.624 271.69C498.241 271.357 498.923 271.108 499.669 270.945C500.422 270.774 501.178 270.639 501.938 270.54C502.933 270.412 503.739 270.316 504.357 270.252C504.982 270.181 505.436 270.064 505.72 269.901C506.011 269.737 506.157 269.453 506.157 269.048V268.963C506.157 267.912 505.869 267.095 505.294 266.513C504.726 265.93 503.863 265.639 502.705 265.639C501.505 265.639 500.564 265.902 499.882 266.428C499.2 266.953 498.721 267.514 498.444 268.111L496.058 267.259C496.484 266.264 497.052 265.49 497.762 264.936C498.479 264.375 499.261 263.984 500.106 263.764C500.958 263.537 501.796 263.423 502.62 263.423C503.146 263.423 503.749 263.487 504.431 263.615C505.12 263.736 505.784 263.988 506.423 264.371C507.07 264.755 507.606 265.334 508.032 266.108C508.458 266.882 508.671 267.919 508.671 269.219V280H506.157V277.784H506.029C505.859 278.139 505.575 278.519 505.177 278.924C504.779 279.329 504.25 279.673 503.589 279.957C502.929 280.241 502.123 280.384 501.171 280.384ZM501.555 278.125C502.549 278.125 503.387 277.93 504.069 277.539C504.758 277.148 505.276 276.644 505.624 276.026C505.979 275.408 506.157 274.759 506.157 274.077V271.776C506.05 271.903 505.816 272.021 505.454 272.127C505.099 272.227 504.687 272.315 504.218 272.393C503.756 272.464 503.305 272.528 502.865 272.585C502.432 272.635 502.08 272.678 501.81 272.713C501.157 272.798 500.546 272.937 499.978 273.129C499.417 273.313 498.962 273.594 498.614 273.97C498.273 274.339 498.103 274.844 498.103 275.483C498.103 276.357 498.426 277.017 499.072 277.464C499.726 277.905 500.553 278.125 501.555 278.125ZM515.774 270.156V280H513.26V263.636H515.689V266.193H515.902C516.286 265.362 516.868 264.695 517.649 264.19C518.431 263.679 519.439 263.423 520.675 263.423C521.783 263.423 522.752 263.651 523.583 264.105C524.414 264.553 525.061 265.234 525.522 266.151C525.984 267.06 526.215 268.21 526.215 269.602V280H523.7V269.773C523.7 268.487 523.367 267.486 522.699 266.768C522.031 266.044 521.115 265.682 519.95 265.682C519.148 265.682 518.431 265.856 517.798 266.204C517.173 266.552 516.68 267.06 516.318 267.727C515.955 268.395 515.774 269.205 515.774 270.156Z" fill="#7D88A1"/>
</g>
<path d="M453.791 375.209C454.459 375.877 455.541 375.877 456.209 375.209L467.093 364.326C467.76 363.658 467.76 362.575 467.093 361.907C466.425 361.24 465.342 361.24 464.674 361.907L455 371.581L445.326 361.907C444.658 361.24 443.575 361.24 442.907 361.907C442.24 362.575 442.24 363.658 442.907 364.326L453.791 375.209ZM453.29 308L453.29 374L456.71 374L456.71 308L453.29 308Z" fill="#7D88A1"/>
<path d="M453.791 537.209C454.459 537.877 455.541 537.877 456.209 537.209L467.093 526.326C467.76 525.658 467.76 524.575 467.093 523.907C466.425 523.24 465.342 523.24 464.674 523.907L455 533.581L445.326 523.907C444.658 523.24 443.575 523.24 442.907 523.907C442.24 524.575 442.24 525.658 442.907 526.326L453.791 537.209ZM453.29 470L453.29 536L456.71 536L456.71 470L453.29 470Z" fill="#7D88A1"/>
<path d="M895.805 331H890.732L898.461 308.613H904.561L912.278 331H907.206L901.598 313.729H901.423L895.805 331ZM895.488 322.2H907.468V325.895H895.488V322.2ZM919.542 308.613V331H914.885V308.613H919.542ZM927.929 308.613V331H923.272V308.613H927.929ZM947.715 314.209V317.708H937.603V314.209H947.715ZM939.899 310.187H944.556V325.84C944.556 326.27 944.621 326.606 944.752 326.846C944.883 327.079 945.066 327.243 945.299 327.338C945.539 327.433 945.816 327.48 946.13 327.48C946.348 327.48 946.567 327.462 946.785 327.425C947.004 327.382 947.172 327.349 947.288 327.327L948.021 330.792C947.788 330.865 947.46 330.949 947.037 331.044C946.614 331.146 946.1 331.208 945.496 331.23C944.373 331.273 943.389 331.124 942.544 330.781C941.706 330.439 941.054 329.907 940.587 329.185C940.121 328.464 939.891 327.553 939.899 326.453V310.187ZM955.766 321.293V331H951.109V308.613H955.634V317.172H955.831C956.21 316.181 956.822 315.405 957.668 314.844C958.513 314.275 959.573 313.991 960.849 313.991C962.015 313.991 963.031 314.246 963.898 314.756C964.773 315.259 965.451 315.984 965.932 316.931C966.42 317.871 966.66 318.997 966.653 320.309V331H961.996V321.14C962.004 320.105 961.741 319.3 961.209 318.724C960.685 318.148 959.949 317.861 959.001 317.861C958.367 317.861 957.806 317.995 957.318 318.265C956.837 318.535 956.458 318.928 956.181 319.446C955.911 319.956 955.773 320.572 955.766 321.293ZM977.97 331.328C976.243 331.328 974.756 330.978 973.51 330.279C972.271 329.572 971.316 328.573 970.646 327.283C969.975 325.986 969.64 324.452 969.64 322.681C969.64 320.954 969.975 319.438 970.646 318.134C971.316 316.829 972.26 315.813 973.477 315.084C974.701 314.355 976.137 313.991 977.784 313.991C978.892 313.991 979.923 314.169 980.878 314.526C981.84 314.876 982.678 315.405 983.392 316.112C984.113 316.818 984.674 317.708 985.075 318.779C985.476 319.843 985.676 321.089 985.676 322.517V323.796H971.498V320.91H981.293C981.293 320.24 981.147 319.646 980.856 319.129C980.564 318.611 980.16 318.207 979.642 317.915C979.132 317.616 978.538 317.467 977.861 317.467C977.154 317.467 976.527 317.631 975.98 317.959C975.441 318.28 975.018 318.713 974.712 319.26C974.406 319.799 974.25 320.4 974.242 321.063V323.807C974.242 324.638 974.395 325.356 974.701 325.961C975.015 326.566 975.456 327.032 976.024 327.36C976.592 327.688 977.267 327.852 978.046 327.852C978.564 327.852 979.037 327.779 979.467 327.633C979.897 327.487 980.265 327.269 980.571 326.977C980.878 326.686 981.111 326.329 981.271 325.906L985.578 326.19C985.359 327.225 984.911 328.129 984.233 328.901C983.563 329.666 982.696 330.264 981.632 330.694C980.575 331.117 979.354 331.328 977.97 331.328ZM1009.81 318.997L1005.55 319.26C1005.47 318.895 1005.32 318.567 1005.08 318.276C1004.84 317.977 1004.52 317.74 1004.13 317.565C1003.74 317.383 1003.28 317.292 1002.74 317.292C1002.02 317.292 1001.41 317.445 1000.91 317.751C1000.42 318.05 1000.17 318.451 1000.17 318.954C1000.17 319.354 1000.33 319.693 1000.65 319.97C1000.97 320.247 1001.52 320.469 1002.3 320.637L1005.34 321.249C1006.97 321.584 1008.19 322.124 1008.99 322.867C1009.79 323.61 1010.19 324.587 1010.19 325.797C1010.19 326.897 1009.87 327.863 1009.22 328.693C1008.58 329.524 1007.7 330.173 1006.57 330.639C1005.46 331.098 1004.17 331.328 1002.72 331.328C1000.49 331.328 998.722 330.865 997.403 329.94C996.091 329.007 995.322 327.739 995.096 326.136L999.677 325.895C999.815 326.573 1000.15 327.09 1000.68 327.447C1001.21 327.797 1001.9 327.972 1002.73 327.972C1003.54 327.972 1004.2 327.815 1004.69 327.502C1005.2 327.181 1005.45 326.77 1005.46 326.267C1005.45 325.844 1005.27 325.498 1004.92 325.228C1004.57 324.951 1004.03 324.74 1003.31 324.594L1000.4 324.015C998.758 323.687 997.538 323.119 996.736 322.31C995.942 321.501 995.545 320.469 995.545 319.216C995.545 318.137 995.836 317.208 996.419 316.429C997.009 315.649 997.837 315.048 998.901 314.625C999.972 314.202 1001.23 313.991 1002.66 313.991C1004.78 313.991 1006.45 314.439 1007.67 315.335C1008.89 316.232 1009.61 317.452 1009.81 318.997ZM1013.12 337.296V314.209H1017.72V317.03H1017.92C1018.13 316.578 1018.42 316.119 1018.81 315.652C1019.2 315.179 1019.71 314.785 1020.34 314.472C1020.97 314.151 1021.76 313.991 1022.7 313.991C1023.93 313.991 1025.05 314.312 1026.09 314.953C1027.12 315.587 1027.95 316.545 1028.57 317.828C1029.19 319.103 1029.5 320.703 1029.5 322.627C1029.5 324.5 1029.2 326.081 1028.59 327.371C1028 328.653 1027.18 329.626 1026.14 330.289C1025.12 330.945 1023.97 331.273 1022.69 331.273C1021.79 331.273 1021.02 331.124 1020.38 330.825C1019.76 330.526 1019.24 330.151 1018.84 329.699C1018.44 329.24 1018.14 328.777 1017.92 328.311H1017.78V337.296H1013.12ZM1017.68 322.605C1017.68 323.603 1017.82 324.474 1018.1 325.217C1018.38 325.961 1018.78 326.54 1019.3 326.955C1019.83 327.364 1020.46 327.568 1021.21 327.568C1021.97 327.568 1022.61 327.36 1023.14 326.944C1023.66 326.522 1024.06 325.939 1024.33 325.195C1024.61 324.445 1024.74 323.581 1024.74 322.605C1024.74 321.635 1024.61 320.783 1024.34 320.047C1024.07 319.311 1023.67 318.735 1023.15 318.32C1022.62 317.904 1021.98 317.697 1021.21 317.697C1020.46 317.697 1019.81 317.897 1019.29 318.298C1018.77 318.699 1018.38 319.267 1018.1 320.003C1017.82 320.739 1017.68 321.606 1017.68 322.605ZM1037.39 331.317C1036.32 331.317 1035.37 331.131 1034.53 330.76C1033.69 330.381 1033.03 329.823 1032.54 329.087C1032.06 328.344 1031.82 327.418 1031.82 326.31C1031.82 325.378 1031.99 324.594 1032.33 323.96C1032.67 323.326 1033.14 322.816 1033.73 322.43C1034.32 322.044 1034.99 321.752 1035.74 321.555C1036.5 321.359 1037.29 321.22 1038.12 321.14C1039.1 321.038 1039.89 320.943 1040.49 320.856C1041.08 320.761 1041.52 320.623 1041.79 320.44C1042.06 320.258 1042.19 319.989 1042.19 319.631V319.566C1042.19 318.874 1041.97 318.338 1041.54 317.959C1041.11 317.58 1040.49 317.391 1039.7 317.391C1038.86 317.391 1038.19 317.576 1037.7 317.948C1037.2 318.312 1036.88 318.771 1036.71 319.325L1032.41 318.976C1032.63 317.955 1033.06 317.073 1033.7 316.33C1034.34 315.58 1035.17 315.004 1036.18 314.603C1037.2 314.195 1038.38 313.991 1039.72 313.991C1040.65 313.991 1041.55 314.1 1042.4 314.319C1043.26 314.537 1044.02 314.876 1044.68 315.335C1045.35 315.795 1045.88 316.385 1046.27 317.106C1046.65 317.82 1046.85 318.677 1046.85 319.675V331H1042.43V328.672H1042.3C1042.03 329.196 1041.67 329.659 1041.22 330.06C1040.77 330.453 1040.22 330.763 1039.59 330.989C1038.96 331.208 1038.22 331.317 1037.39 331.317ZM1038.73 328.103C1039.41 328.103 1040.02 327.968 1040.54 327.699C1041.07 327.422 1041.48 327.05 1041.78 326.584C1042.07 326.117 1042.22 325.589 1042.22 324.999V323.217C1042.08 323.312 1041.88 323.399 1041.62 323.479C1041.38 323.552 1041.09 323.621 1040.78 323.687C1040.47 323.745 1040.15 323.8 1039.84 323.851C1039.53 323.895 1039.24 323.935 1038.99 323.971C1038.44 324.051 1037.96 324.179 1037.56 324.354C1037.15 324.529 1036.83 324.766 1036.61 325.064C1036.38 325.356 1036.27 325.72 1036.27 326.157C1036.27 326.791 1036.5 327.276 1036.96 327.611C1037.42 327.939 1038.01 328.103 1038.73 328.103ZM1055.12 321.293V331H1050.46V314.209H1054.9V317.172H1055.1C1055.47 316.195 1056.09 315.423 1056.97 314.854C1057.84 314.279 1058.9 313.991 1060.15 313.991C1061.31 313.991 1062.33 314.246 1063.2 314.756C1064.06 315.266 1064.74 315.995 1065.22 316.942C1065.7 317.882 1065.94 319.005 1065.94 320.309V331H1061.28V321.14C1061.29 320.112 1061.03 319.311 1060.5 318.735C1059.96 318.152 1059.23 317.861 1058.3 317.861C1057.67 317.861 1057.12 317.995 1056.64 318.265C1056.16 318.535 1055.79 318.928 1055.52 319.446C1055.26 319.956 1055.12 320.572 1055.12 321.293ZM1083.58 318.997L1079.32 319.26C1079.24 318.895 1079.09 318.567 1078.85 318.276C1078.61 317.977 1078.29 317.74 1077.9 317.565C1077.51 317.383 1077.05 317.292 1076.51 317.292C1075.79 317.292 1075.18 317.445 1074.68 317.751C1074.19 318.05 1073.94 318.451 1073.94 318.954C1073.94 319.354 1074.1 319.693 1074.42 319.97C1074.74 320.247 1075.29 320.469 1076.07 320.637L1079.11 321.249C1080.74 321.584 1081.96 322.124 1082.76 322.867C1083.56 323.61 1083.96 324.587 1083.96 325.797C1083.96 326.897 1083.64 327.863 1082.99 328.693C1082.35 329.524 1081.47 330.173 1080.34 330.639C1079.23 331.098 1077.94 331.328 1076.49 331.328C1074.26 331.328 1072.49 330.865 1071.17 329.94C1069.86 329.007 1069.09 327.739 1068.87 326.136L1073.45 325.895C1073.59 326.573 1073.92 327.09 1074.45 327.447C1074.98 327.797 1075.67 327.972 1076.5 327.972C1077.31 327.972 1077.97 327.815 1078.46 327.502C1078.97 327.181 1079.22 326.77 1079.23 326.267C1079.22 325.844 1079.04 325.498 1078.69 325.228C1078.34 324.951 1077.8 324.74 1077.08 324.594L1074.17 324.015C1072.53 323.687 1071.31 323.119 1070.51 322.31C1069.71 321.501 1069.31 320.469 1069.31 319.216C1069.31 318.137 1069.61 317.208 1070.19 316.429C1070.78 315.649 1071.61 315.048 1072.67 314.625C1073.74 314.202 1075 313.991 1076.43 313.991C1078.55 313.991 1080.22 314.439 1081.44 315.335C1082.66 316.232 1083.38 317.452 1083.58 318.997ZM1098.81 331.317C1097.74 331.317 1096.78 331.131 1095.94 330.76C1095.11 330.381 1094.44 329.823 1093.95 329.087C1093.47 328.344 1093.23 327.418 1093.23 326.31C1093.23 325.378 1093.4 324.594 1093.75 323.96C1094.09 323.326 1094.56 322.816 1095.15 322.43C1095.74 322.044 1096.41 321.752 1097.16 321.555C1097.91 321.359 1098.71 321.22 1099.54 321.14C1100.52 321.038 1101.3 320.943 1101.9 320.856C1102.5 320.761 1102.93 320.623 1103.2 320.44C1103.47 320.258 1103.61 319.989 1103.61 319.631V319.566C1103.61 318.874 1103.39 318.338 1102.95 317.959C1102.52 317.58 1101.91 317.391 1101.11 317.391C1100.28 317.391 1099.61 317.576 1099.11 317.948C1098.62 318.312 1098.29 318.771 1098.13 319.325L1093.82 318.976C1094.04 317.955 1094.47 317.073 1095.11 316.33C1095.75 315.58 1096.58 315.004 1097.59 314.603C1098.61 314.195 1099.79 313.991 1101.14 313.991C1102.07 313.991 1102.96 314.1 1103.81 314.319C1104.67 314.537 1105.44 314.876 1106.1 315.335C1106.77 315.795 1107.3 316.385 1107.68 317.106C1108.07 317.82 1108.26 318.677 1108.26 319.675V331H1103.85V328.672H1103.72C1103.45 329.196 1103.09 329.659 1102.63 330.06C1102.18 330.453 1101.64 330.763 1101 330.989C1100.37 331.208 1099.64 331.317 1098.81 331.317ZM1100.14 328.103C1100.83 328.103 1101.43 327.968 1101.96 327.699C1102.48 327.422 1102.89 327.05 1103.19 326.584C1103.49 326.117 1103.64 325.589 1103.64 324.999V323.217C1103.49 323.312 1103.29 323.399 1103.04 323.479C1102.79 323.552 1102.51 323.621 1102.2 323.687C1101.88 323.745 1101.57 323.8 1101.26 323.851C1100.94 323.895 1100.66 323.935 1100.4 323.971C1099.86 324.051 1099.38 324.179 1098.97 324.354C1098.56 324.529 1098.25 324.766 1098.02 325.064C1097.79 325.356 1097.68 325.72 1097.68 326.157C1097.68 326.791 1097.91 327.276 1098.37 327.611C1098.84 327.939 1099.43 328.103 1100.14 328.103ZM1111.88 331V314.209H1116.39V317.139H1116.57C1116.87 316.097 1117.39 315.31 1118.11 314.778C1118.83 314.239 1119.66 313.969 1120.6 313.969C1120.83 313.969 1121.08 313.984 1121.35 314.013C1121.62 314.042 1121.86 314.082 1122.06 314.133V318.265C1121.85 318.199 1121.54 318.141 1121.16 318.09C1120.77 318.039 1120.42 318.014 1120.1 318.014C1119.41 318.014 1118.8 318.163 1118.26 318.462C1117.73 318.753 1117.31 319.161 1116.99 319.686C1116.69 320.211 1116.53 320.816 1116.53 321.501V331H1111.88ZM1131.34 331.328C1129.61 331.328 1128.13 330.978 1126.88 330.279C1125.64 329.572 1124.69 328.573 1124.02 327.283C1123.35 325.986 1123.01 324.452 1123.01 322.681C1123.01 320.954 1123.35 319.438 1124.02 318.134C1124.69 316.829 1125.63 315.813 1126.85 315.084C1128.07 314.355 1129.51 313.991 1131.16 313.991C1132.26 313.991 1133.29 314.169 1134.25 314.526C1135.21 314.876 1136.05 315.405 1136.76 316.112C1137.49 316.818 1138.05 317.708 1138.45 318.779C1138.85 319.843 1139.05 321.089 1139.05 322.517V323.796H1124.87V320.91H1134.66C1134.66 320.24 1134.52 319.646 1134.23 319.129C1133.94 318.611 1133.53 318.207 1133.01 317.915C1132.5 317.616 1131.91 317.467 1131.23 317.467C1130.53 317.467 1129.9 317.631 1129.35 317.959C1128.81 318.28 1128.39 318.713 1128.08 319.26C1127.78 319.799 1127.62 320.4 1127.61 321.063V323.807C1127.61 324.638 1127.77 325.356 1128.07 325.961C1128.39 326.566 1128.83 327.032 1129.4 327.36C1129.96 327.688 1130.64 327.852 1131.42 327.852C1131.94 327.852 1132.41 327.779 1132.84 327.633C1133.27 327.487 1133.64 327.269 1133.94 326.977C1134.25 326.686 1134.48 326.329 1134.64 325.906L1138.95 326.19C1138.73 327.225 1138.28 328.129 1137.61 328.901C1136.93 329.666 1136.07 330.264 1135 330.694C1133.95 331.117 1132.73 331.328 1131.34 331.328ZM898.045 385.273C896.77 385.273 895.615 384.945 894.58 384.289C893.553 383.626 892.736 382.653 892.132 381.371C891.534 380.081 891.235 378.5 891.235 376.627C891.235 374.703 891.545 373.103 892.164 371.828C892.784 370.545 893.607 369.587 894.635 368.953C895.67 368.312 896.803 367.991 898.035 367.991C898.975 367.991 899.758 368.151 900.385 368.472C901.019 368.785 901.529 369.179 901.915 369.652C902.309 370.119 902.607 370.578 902.812 371.03H902.954V362.613H907.599V385H903.008V382.311H902.812C902.593 382.777 902.283 383.24 901.882 383.699C901.489 384.151 900.975 384.526 900.341 384.825C899.714 385.124 898.949 385.273 898.045 385.273ZM899.521 381.568C900.272 381.568 900.906 381.364 901.423 380.955C901.948 380.54 902.349 379.961 902.626 379.217C902.91 378.474 903.052 377.603 903.052 376.605C903.052 375.606 902.914 374.739 902.637 374.003C902.36 373.267 901.959 372.699 901.434 372.298C900.909 371.897 900.272 371.697 899.521 371.697C898.756 371.697 898.111 371.904 897.586 372.32C897.062 372.735 896.664 373.311 896.395 374.047C896.125 374.783 895.99 375.635 895.99 376.605C895.99 377.581 896.125 378.445 896.395 379.195C896.672 379.939 897.069 380.522 897.586 380.944C898.111 381.36 898.756 381.568 899.521 381.568ZM919.014 385.328C917.316 385.328 915.848 384.967 914.609 384.246C913.378 383.517 912.427 382.504 911.756 381.207C911.086 379.902 910.75 378.39 910.75 376.67C910.75 374.936 911.086 373.42 911.756 372.123C912.427 370.818 913.378 369.805 914.609 369.084C915.848 368.355 917.316 367.991 919.014 367.991C920.712 367.991 922.177 368.355 923.409 369.084C924.648 369.805 925.602 370.818 926.273 372.123C926.943 373.42 927.279 374.936 927.279 376.67C927.279 378.39 926.943 379.902 926.273 381.207C925.602 382.504 924.648 383.517 923.409 384.246C922.177 384.967 920.712 385.328 919.014 385.328ZM919.036 381.721C919.809 381.721 920.454 381.502 920.971 381.065C921.489 380.62 921.878 380.015 922.141 379.25C922.41 378.485 922.545 377.614 922.545 376.638C922.545 375.661 922.41 374.79 922.141 374.025C921.878 373.26 921.489 372.655 920.971 372.21C920.454 371.766 919.809 371.544 919.036 371.544C918.257 371.544 917.601 371.766 917.069 372.21C916.544 372.655 916.147 373.26 915.877 374.025C915.615 374.79 915.484 375.661 915.484 376.638C915.484 377.614 915.615 378.485 915.877 379.25C916.147 380.015 916.544 380.62 917.069 381.065C917.601 381.502 918.257 381.721 919.036 381.721ZM934.963 375.293V385H930.307V368.209H934.745V371.172H934.941C935.313 370.195 935.936 369.423 936.811 368.854C937.685 368.279 938.746 367.991 939.992 367.991C941.158 367.991 942.174 368.246 943.042 368.756C943.909 369.266 944.583 369.995 945.064 370.942C945.545 371.882 945.785 373.005 945.785 374.309V385H941.129V375.14C941.136 374.112 940.873 373.311 940.341 372.735C939.809 372.152 939.077 371.861 938.144 371.861C937.518 371.861 936.964 371.995 936.483 372.265C936.009 372.535 935.637 372.928 935.368 373.446C935.105 373.956 934.971 374.572 934.963 375.293ZM957.107 385.328C955.38 385.328 953.894 384.978 952.647 384.279C951.409 383.572 950.454 382.573 949.783 381.283C949.113 379.986 948.778 378.452 948.778 376.681C948.778 374.954 949.113 373.438 949.783 372.134C950.454 370.829 951.398 369.813 952.615 369.084C953.839 368.355 955.275 367.991 956.922 367.991C958.029 367.991 959.06 368.169 960.015 368.526C960.977 368.876 961.815 369.405 962.529 370.112C963.251 370.818 963.812 371.708 964.213 372.779C964.614 373.843 964.814 375.089 964.814 376.517V377.796H950.636V374.91H960.431C960.431 374.24 960.285 373.646 959.993 373.129C959.702 372.611 959.297 372.207 958.78 371.915C958.27 371.616 957.676 371.467 956.998 371.467C956.291 371.467 955.664 371.631 955.118 371.959C954.579 372.28 954.156 372.713 953.85 373.26C953.544 373.799 953.387 374.4 953.38 375.063V377.807C953.38 378.638 953.533 379.356 953.839 379.961C954.152 380.566 954.593 381.032 955.162 381.36C955.73 381.688 956.404 381.852 957.184 381.852C957.701 381.852 958.175 381.779 958.605 381.633C959.035 381.487 959.403 381.269 959.709 380.977C960.015 380.686 960.248 380.329 960.409 379.906L964.716 380.19C964.497 381.225 964.049 382.129 963.371 382.901C962.701 383.666 961.833 384.264 960.769 384.694C959.713 385.117 958.492 385.328 957.107 385.328ZM971.854 378.288V377.917C971.861 376.641 971.974 375.625 972.193 374.867C972.419 374.109 972.746 373.497 973.176 373.03C973.606 372.564 974.124 372.141 974.729 371.762C975.181 371.471 975.585 371.168 975.942 370.855C976.299 370.542 976.583 370.195 976.795 369.816C977.006 369.43 977.112 369 977.112 368.526C977.112 368.024 976.991 367.583 976.751 367.204C976.51 366.825 976.186 366.533 975.778 366.329C975.377 366.125 974.933 366.023 974.444 366.023C973.971 366.023 973.523 366.129 973.1 366.34C972.677 366.544 972.331 366.85 972.061 367.258C971.792 367.659 971.646 368.158 971.624 368.756H967.164C967.201 367.299 967.55 366.096 968.214 365.149C968.877 364.194 969.755 363.484 970.848 363.017C971.941 362.543 973.147 362.307 974.466 362.307C975.917 362.307 977.199 362.547 978.314 363.028C979.429 363.502 980.304 364.19 980.938 365.094C981.572 365.998 981.889 367.087 981.889 368.363C981.889 369.215 981.747 369.973 981.462 370.636C981.185 371.292 980.796 371.875 980.293 372.385C979.79 372.888 979.196 373.344 978.511 373.752C977.935 374.094 977.462 374.451 977.09 374.823C976.725 375.195 976.452 375.625 976.27 376.113C976.095 376.601 976.004 377.202 975.997 377.917V378.288H971.854ZM974.018 385.284C973.289 385.284 972.666 385.029 972.149 384.519C971.639 384.002 971.387 383.382 971.395 382.661C971.387 381.947 971.639 381.334 972.149 380.824C972.666 380.314 973.289 380.059 974.018 380.059C974.71 380.059 975.319 380.314 975.844 380.824C976.368 381.334 976.634 381.947 976.642 382.661C976.634 383.142 976.507 383.583 976.259 383.983C976.019 384.377 975.702 384.694 975.308 384.934C974.915 385.168 974.485 385.284 974.018 385.284ZM1012.95 373.806C1012.95 376.248 1012.49 378.325 1011.56 380.037C1010.65 381.75 1009.39 383.058 1007.8 383.962C1006.22 384.858 1004.44 385.306 1002.47 385.306C1000.48 385.306 998.695 384.854 997.113 383.951C995.532 383.047 994.282 381.739 993.364 380.026C992.446 378.314 991.987 376.24 991.987 373.806C991.987 371.365 992.446 369.288 993.364 367.575C994.282 365.863 995.532 364.558 997.113 363.662C998.695 362.758 1000.48 362.307 1002.47 362.307C1004.44 362.307 1006.22 362.758 1007.8 363.662C1009.39 364.558 1010.65 365.863 1011.56 367.575C1012.49 369.288 1012.95 371.365 1012.95 373.806ZM1008.15 373.806C1008.15 372.225 1007.92 370.891 1007.44 369.805C1006.98 368.72 1006.32 367.896 1005.46 367.335C1004.61 366.774 1003.61 366.493 1002.47 366.493C1001.33 366.493 1000.33 366.774 999.474 367.335C998.622 367.896 997.959 368.72 997.485 369.805C997.019 370.891 996.785 372.225 996.785 373.806C996.785 375.388 997.019 376.721 997.485 377.807C997.959 378.893 998.622 379.717 999.474 380.278C1000.33 380.839 1001.33 381.119 1002.47 381.119C1003.61 381.119 1004.61 380.839 1005.46 380.278C1006.32 379.717 1006.98 378.893 1007.44 377.807C1007.92 376.721 1008.15 375.388 1008.15 373.806ZM1020.59 380.168L1020.6 374.582H1021.28L1026.66 368.209H1032L1024.78 376.648H1023.67L1020.59 380.168ZM1016.37 385V362.613H1021.03V385H1016.37ZM1026.87 385L1021.92 377.687L1025.03 374.397L1032.32 385H1026.87ZM1039.35 381.939L1039.23 383.142C1039.13 384.104 1038.95 385.062 1038.68 386.017C1038.42 386.979 1038.14 387.849 1037.85 388.629C1037.57 389.409 1037.34 390.021 1037.16 390.466H1034.15C1034.26 390.036 1034.4 389.434 1034.59 388.662C1034.78 387.897 1034.96 387.037 1035.13 386.082C1035.3 385.128 1035.4 384.155 1035.45 383.164L1035.5 381.939H1039.35ZM1068.49 362.613V385H1064.4L1054.66 370.91H1054.5V385H1049.77V362.613H1053.92L1063.58 376.692H1063.78V362.613H1068.49ZM1092.98 373.806C1092.98 376.248 1092.51 378.325 1091.59 380.037C1090.67 381.75 1089.42 383.058 1087.83 383.962C1086.25 384.858 1084.47 385.306 1082.49 385.306C1080.5 385.306 1078.72 384.854 1077.14 383.951C1075.55 383.047 1074.3 381.739 1073.39 380.026C1072.47 378.314 1072.01 376.24 1072.01 373.806C1072.01 371.365 1072.47 369.288 1073.39 367.575C1074.3 365.863 1075.55 364.558 1077.14 363.662C1078.72 362.758 1080.5 362.307 1082.49 362.307C1084.47 362.307 1086.25 362.758 1087.83 363.662C1089.42 364.558 1090.67 365.863 1091.59 367.575C1092.51 369.288 1092.98 371.365 1092.98 373.806ZM1088.18 373.806C1088.18 372.225 1087.94 370.891 1087.47 369.805C1087 368.72 1086.34 367.896 1085.49 367.335C1084.63 366.774 1083.64 366.493 1082.49 366.493C1081.35 366.493 1080.35 366.774 1079.5 367.335C1078.64 367.896 1077.98 368.72 1077.51 369.805C1077.04 370.891 1076.81 372.225 1076.81 373.806C1076.81 375.388 1077.04 376.721 1077.51 377.807C1077.98 378.893 1078.64 379.717 1079.5 380.278C1080.35 380.839 1081.35 381.119 1082.49 381.119C1083.64 381.119 1084.63 380.839 1085.49 380.278C1086.34 379.717 1087 378.893 1087.47 377.807C1087.94 376.721 1088.18 375.388 1088.18 373.806ZM1100.68 385L1094.27 362.613H1099.44L1103.15 378.168H1103.34L1107.42 362.613H1111.85L1115.93 378.201H1116.13L1119.83 362.613H1125L1118.6 385H1113.98L1109.72 370.363H1109.54L1105.29 385H1100.68ZM1139.39 362.613V385H1134.66V362.613H1139.39ZM1147.1 362.613V364.974C1147.1 365.644 1146.97 366.329 1146.71 367.029C1146.45 367.721 1146.11 368.377 1145.68 368.997C1145.25 369.609 1144.78 370.13 1144.27 370.56L1142.22 369.346C1142.58 368.771 1142.9 368.133 1143.18 367.433C1143.46 366.734 1143.6 365.921 1143.6 364.996V362.613H1147.1ZM1149.54 385V368.209H1153.98V371.172H1154.18C1154.53 370.188 1155.11 369.412 1155.93 368.844C1156.74 368.275 1157.72 367.991 1158.86 367.991C1160.01 367.991 1160.99 368.279 1161.8 368.854C1162.61 369.423 1163.14 370.195 1163.41 371.172H1163.59C1163.93 370.21 1164.55 369.441 1165.45 368.865C1166.35 368.282 1167.42 367.991 1168.65 367.991C1170.22 367.991 1171.49 368.49 1172.47 369.488C1173.45 370.48 1173.94 371.886 1173.94 373.708V385H1169.3V374.626C1169.3 373.693 1169.05 372.994 1168.55 372.527C1168.06 372.061 1167.44 371.828 1166.69 371.828C1165.85 371.828 1165.19 372.097 1164.72 372.637C1164.24 373.169 1164 373.872 1164 374.746V385H1159.49V374.528C1159.49 373.704 1159.25 373.048 1158.78 372.56C1158.31 372.072 1157.7 371.828 1156.93 371.828C1156.41 371.828 1155.95 371.959 1155.53 372.221C1155.12 372.476 1154.8 372.837 1154.56 373.303C1154.32 373.763 1154.2 374.302 1154.2 374.921V385H1149.54ZM891.858 440V423.209H896.373V426.139H896.548C896.854 425.097 897.368 424.31 898.089 423.778C898.811 423.239 899.641 422.969 900.582 422.969C900.815 422.969 901.066 422.984 901.336 423.013C901.605 423.042 901.842 423.082 902.046 423.133V427.265C901.828 427.199 901.525 427.141 901.139 427.09C900.753 427.039 900.399 427.014 900.079 427.014C899.394 427.014 898.781 427.163 898.242 427.462C897.71 427.753 897.288 428.161 896.974 428.686C896.668 429.211 896.515 429.816 896.515 430.501V440H891.858ZM911.324 440.328C909.597 440.328 908.11 439.978 906.864 439.279C905.625 438.572 904.671 437.573 904 436.283C903.33 434.986 902.995 433.452 902.995 431.681C902.995 429.954 903.33 428.438 904 427.134C904.671 425.829 905.614 424.813 906.832 424.084C908.056 423.355 909.491 422.991 911.138 422.991C912.246 422.991 913.277 423.169 914.232 423.526C915.194 423.876 916.032 424.405 916.746 425.112C917.468 425.818 918.029 426.708 918.43 427.779C918.83 428.843 919.031 430.089 919.031 431.517V432.796H904.853V429.91H914.647C914.647 429.24 914.502 428.646 914.21 428.129C913.919 427.611 913.514 427.207 912.997 426.915C912.487 426.616 911.893 426.467 911.215 426.467C910.508 426.467 909.881 426.631 909.335 426.959C908.795 427.28 908.373 427.713 908.067 428.26C907.761 428.799 907.604 429.4 907.597 430.063V432.807C907.597 433.638 907.75 434.356 908.056 434.961C908.369 435.566 908.81 436.032 909.379 436.36C909.947 436.688 910.621 436.852 911.401 436.852C911.918 436.852 912.392 436.779 912.822 436.633C913.252 436.487 913.62 436.269 913.926 435.977C914.232 435.686 914.465 435.329 914.626 434.906L918.932 435.19C918.714 436.225 918.266 437.129 917.588 437.901C916.917 438.666 916.05 439.264 914.986 439.694C913.93 440.117 912.709 440.328 911.324 440.328ZM926.858 440.317C925.786 440.317 924.832 440.131 923.994 439.76C923.156 439.381 922.492 438.823 922.004 438.087C921.523 437.344 921.283 436.418 921.283 435.31C921.283 434.378 921.454 433.594 921.796 432.96C922.139 432.326 922.605 431.816 923.196 431.43C923.786 431.044 924.456 430.752 925.207 430.555C925.965 430.359 926.759 430.22 927.59 430.14C928.567 430.038 929.354 429.943 929.951 429.856C930.549 429.761 930.982 429.623 931.252 429.44C931.522 429.258 931.657 428.989 931.657 428.631V428.566C931.657 427.874 931.438 427.338 931.001 426.959C930.571 426.58 929.959 426.391 929.164 426.391C928.326 426.391 927.659 426.576 927.164 426.948C926.668 427.312 926.34 427.771 926.18 428.325L921.873 427.976C922.092 426.955 922.522 426.073 923.163 425.33C923.804 424.58 924.631 424.004 925.644 423.603C926.665 423.195 927.845 422.991 929.186 422.991C930.119 422.991 931.012 423.1 931.864 423.319C932.724 423.537 933.486 423.876 934.149 424.335C934.819 424.795 935.348 425.385 935.734 426.106C936.12 426.82 936.313 427.677 936.313 428.675V440H931.897V437.672H931.766C931.496 438.196 931.135 438.659 930.684 439.06C930.232 439.453 929.689 439.763 929.055 439.989C928.421 440.208 927.688 440.317 926.858 440.317ZM928.191 437.103C928.876 437.103 929.481 436.968 930.006 436.699C930.531 436.422 930.942 436.05 931.241 435.584C931.54 435.117 931.689 434.589 931.689 433.999V432.217C931.544 432.312 931.343 432.399 931.088 432.479C930.84 432.552 930.56 432.621 930.246 432.687C929.933 432.745 929.62 432.8 929.306 432.851C928.993 432.895 928.709 432.935 928.454 432.971C927.907 433.051 927.43 433.179 927.022 433.354C926.614 433.529 926.297 433.766 926.071 434.064C925.845 434.356 925.732 434.72 925.732 435.157C925.732 435.791 925.961 436.276 926.42 436.611C926.887 436.939 927.477 437.103 928.191 437.103ZM946.113 440.273C944.838 440.273 943.683 439.945 942.648 439.289C941.62 438.626 940.804 437.653 940.199 436.371C939.602 435.081 939.303 433.5 939.303 431.627C939.303 429.703 939.613 428.103 940.232 426.828C940.852 425.545 941.675 424.587 942.703 423.953C943.737 423.312 944.871 422.991 946.102 422.991C947.042 422.991 947.826 423.151 948.453 423.472C949.087 423.785 949.597 424.179 949.983 424.652C950.376 425.119 950.675 425.578 950.879 426.03H951.021V417.613H955.667V440H951.076V437.311H950.879C950.661 437.777 950.351 438.24 949.95 438.699C949.557 439.151 949.043 439.526 948.409 439.825C947.782 440.124 947.017 440.273 946.113 440.273ZM947.589 436.568C948.34 436.568 948.974 436.364 949.491 435.955C950.016 435.54 950.417 434.961 950.693 434.217C950.978 433.474 951.12 432.603 951.12 431.605C951.12 430.606 950.981 429.739 950.704 429.003C950.427 428.267 950.027 427.699 949.502 427.298C948.977 426.897 948.34 426.697 947.589 426.697C946.824 426.697 946.179 426.904 945.654 427.32C945.129 427.735 944.732 428.311 944.463 429.047C944.193 429.783 944.058 430.635 944.058 431.605C944.058 432.581 944.193 433.445 944.463 434.195C944.74 434.939 945.137 435.522 945.654 435.944C946.179 436.36 946.824 436.568 947.589 436.568ZM962.371 446.264C961.781 446.264 961.227 446.216 960.709 446.122C960.199 446.034 959.776 445.925 959.441 445.794L960.491 442.307C961.314 442.562 962.006 442.627 962.568 442.503C963.136 442.387 963.584 441.949 963.912 441.192L964.185 440.481L958.162 423.209H963.059L966.536 435.54H966.711L970.22 423.209L975.15 423.231L968.624 441.815C968.31 442.711 967.884 443.491 967.345 444.154C966.813 444.824 966.138 445.342 965.322 445.706C964.506 446.078 963.522 446.264 962.371 446.264ZM993.588 423.209V426.708H983.476V423.209H993.588ZM985.772 419.187H990.429V434.84C990.429 435.27 990.494 435.606 990.626 435.846C990.757 436.079 990.939 436.243 991.172 436.338C991.413 436.433 991.69 436.48 992.003 436.48C992.222 436.48 992.44 436.462 992.659 436.425C992.877 436.382 993.045 436.349 993.162 436.327L993.894 439.792C993.661 439.865 993.333 439.949 992.91 440.044C992.488 440.146 991.974 440.208 991.369 440.23C990.247 440.273 989.263 440.124 988.417 439.781C987.579 439.439 986.927 438.907 986.461 438.185C985.994 437.464 985.765 436.553 985.772 435.453V419.187ZM1004.03 440.328C1002.33 440.328 1000.86 439.967 999.622 439.246C998.39 438.517 997.439 437.504 996.769 436.207C996.099 434.902 995.763 433.39 995.763 431.67C995.763 429.936 996.099 428.42 996.769 427.123C997.439 425.818 998.39 424.805 999.622 424.084C1000.86 423.355 1002.33 422.991 1004.03 422.991C1005.73 422.991 1007.19 423.355 1008.42 424.084C1009.66 424.805 1010.62 425.818 1011.29 427.123C1011.96 428.42 1012.29 429.936 1012.29 431.67C1012.29 433.39 1011.96 434.902 1011.29 436.207C1010.62 437.504 1009.66 438.517 1008.42 439.246C1007.19 439.967 1005.73 440.328 1004.03 440.328ZM1004.05 436.721C1004.82 436.721 1005.47 436.502 1005.98 436.065C1006.5 435.62 1006.89 435.015 1007.15 434.25C1007.42 433.485 1007.56 432.614 1007.56 431.638C1007.56 430.661 1007.42 429.79 1007.15 429.025C1006.89 428.26 1006.5 427.655 1005.98 427.21C1005.47 426.766 1004.82 426.544 1004.05 426.544C1003.27 426.544 1002.61 426.766 1002.08 427.21C1001.56 427.655 1001.16 428.26 1000.89 429.025C1000.63 429.79 1000.5 430.661 1000.5 431.638C1000.5 432.614 1000.63 433.485 1000.89 434.25C1001.16 435.015 1001.56 435.62 1002.08 436.065C1002.61 436.502 1003.27 436.721 1004.05 436.721ZM1022.44 440V423.209H1026.88V426.172H1027.08C1027.43 425.188 1028.01 424.412 1028.83 423.844C1029.64 423.275 1030.62 422.991 1031.76 422.991C1032.91 422.991 1033.89 423.279 1034.7 423.854C1035.51 424.423 1036.05 425.195 1036.32 426.172H1036.49C1036.83 425.21 1037.45 424.441 1038.35 423.865C1039.25 423.282 1040.32 422.991 1041.55 422.991C1043.12 422.991 1044.39 423.49 1045.37 424.488C1046.35 425.48 1046.84 426.886 1046.84 428.708V440H1042.2V429.626C1042.2 428.693 1041.95 427.994 1041.45 427.527C1040.96 427.061 1040.34 426.828 1039.6 426.828C1038.75 426.828 1038.09 427.097 1037.62 427.637C1037.14 428.169 1036.91 428.872 1036.91 429.746V440H1032.39V429.528C1032.39 428.704 1032.15 428.048 1031.68 427.56C1031.21 427.072 1030.6 426.828 1029.83 426.828C1029.32 426.828 1028.85 426.959 1028.43 427.221C1028.03 427.476 1027.7 427.837 1027.46 428.303C1027.22 428.763 1027.1 429.302 1027.1 429.921V440H1022.44ZM1055.31 440.317C1054.24 440.317 1053.28 440.131 1052.44 439.76C1051.61 439.381 1050.94 438.823 1050.46 438.087C1049.97 437.344 1049.73 436.418 1049.73 435.31C1049.73 434.378 1049.91 433.594 1050.25 432.96C1050.59 432.326 1051.06 431.816 1051.65 431.43C1052.24 431.044 1052.91 430.752 1053.66 430.555C1054.42 430.359 1055.21 430.22 1056.04 430.14C1057.02 430.038 1057.8 429.943 1058.4 429.856C1059 429.761 1059.43 429.623 1059.7 429.44C1059.97 429.258 1060.11 428.989 1060.11 428.631V428.566C1060.11 427.874 1059.89 427.338 1059.45 426.959C1059.02 426.58 1058.41 426.391 1057.62 426.391C1056.78 426.391 1056.11 426.576 1055.62 426.948C1055.12 427.312 1054.79 427.771 1054.63 428.325L1050.32 427.976C1050.54 426.955 1050.97 426.073 1051.61 425.33C1052.26 424.58 1053.08 424.004 1054.1 423.603C1055.12 423.195 1056.3 422.991 1057.64 422.991C1058.57 422.991 1059.46 423.1 1060.32 423.319C1061.18 423.537 1061.94 423.876 1062.6 424.335C1063.27 424.795 1063.8 425.385 1064.19 426.106C1064.57 426.82 1064.76 427.677 1064.76 428.675V440H1060.35V437.672H1060.22C1059.95 438.196 1059.59 438.659 1059.13 439.06C1058.68 439.453 1058.14 439.763 1057.51 439.989C1056.87 440.208 1056.14 440.317 1055.31 440.317ZM1056.64 437.103C1057.33 437.103 1057.93 436.968 1058.46 436.699C1058.98 436.422 1059.39 436.05 1059.69 435.584C1059.99 435.117 1060.14 434.589 1060.14 433.999V432.217C1059.99 432.312 1059.79 432.399 1059.54 432.479C1059.29 432.552 1059.01 432.621 1058.7 432.687C1058.38 432.745 1058.07 432.8 1057.76 432.851C1057.44 432.895 1057.16 432.935 1056.9 432.971C1056.36 433.051 1055.88 433.179 1055.47 433.354C1055.06 433.529 1054.75 433.766 1054.52 434.064C1054.3 434.356 1054.18 434.72 1054.18 435.157C1054.18 435.791 1054.41 436.276 1054.87 436.611C1055.34 436.939 1055.93 437.103 1056.64 437.103ZM1072.6 435.168L1072.61 429.582H1073.29L1078.66 423.209H1084.01L1076.78 431.648H1075.68L1072.6 435.168ZM1068.38 440V417.613H1073.03V440H1068.38ZM1078.87 440L1073.93 432.687L1077.03 429.397L1084.33 440H1078.87ZM1093.25 440.328C1091.53 440.328 1090.04 439.978 1088.79 439.279C1087.56 438.572 1086.6 437.573 1085.93 436.283C1085.26 434.986 1084.92 433.452 1084.92 431.681C1084.92 429.954 1085.26 428.438 1085.93 427.134C1086.6 425.829 1087.54 424.813 1088.76 424.084C1089.99 423.355 1091.42 422.991 1093.07 422.991C1094.18 422.991 1095.21 423.169 1096.16 423.526C1097.12 423.876 1097.96 424.405 1098.68 425.112C1099.4 425.818 1099.96 426.708 1100.36 427.779C1100.76 428.843 1100.96 430.089 1100.96 431.517V432.796H1086.78V429.91H1096.58C1096.58 429.24 1096.43 428.646 1096.14 428.129C1095.85 427.611 1095.44 427.207 1094.93 426.915C1094.42 426.616 1093.82 426.467 1093.14 426.467C1092.44 426.467 1091.81 426.631 1091.26 426.959C1090.73 427.28 1090.3 427.713 1090 428.26C1089.69 428.799 1089.53 429.4 1089.53 430.063V432.807C1089.53 433.638 1089.68 434.356 1089.99 434.961C1090.3 435.566 1090.74 436.032 1091.31 436.36C1091.88 436.688 1092.55 436.852 1093.33 436.852C1093.85 436.852 1094.32 436.779 1094.75 436.633C1095.18 436.487 1095.55 436.269 1095.86 435.977C1096.16 435.686 1096.4 435.329 1096.56 434.906L1100.86 435.19C1100.64 436.225 1100.2 437.129 1099.52 437.901C1098.85 438.666 1097.98 439.264 1096.92 439.694C1095.86 440.117 1094.64 440.328 1093.25 440.328ZM1111.12 440V423.209H1115.56V426.172H1115.76C1116.11 425.188 1116.69 424.412 1117.51 423.844C1118.32 423.275 1119.3 422.991 1120.44 422.991C1121.59 422.991 1122.57 423.279 1123.38 423.854C1124.19 424.423 1124.73 425.195 1125 426.172H1125.17C1125.51 425.21 1126.13 424.441 1127.03 423.865C1127.93 423.282 1129 422.991 1130.23 422.991C1131.8 422.991 1133.07 423.49 1134.05 424.488C1135.03 425.48 1135.52 426.886 1135.52 428.708V440H1130.88V429.626C1130.88 428.693 1130.63 427.994 1130.13 427.527C1129.64 427.061 1129.02 426.828 1128.28 426.828C1127.43 426.828 1126.77 427.097 1126.3 427.637C1125.82 428.169 1125.59 428.872 1125.59 429.746V440H1121.07V429.528C1121.07 428.704 1120.83 428.048 1120.36 427.56C1119.89 427.072 1119.28 426.828 1118.51 426.828C1118 426.828 1117.53 426.959 1117.11 427.221C1116.71 427.476 1116.38 427.837 1116.14 428.303C1115.9 428.763 1115.78 429.302 1115.78 429.921V440H1111.12ZM1141.48 446.264C1140.88 446.264 1140.33 446.216 1139.81 446.122C1139.3 446.034 1138.88 445.925 1138.55 445.794L1139.59 442.307C1140.42 442.562 1141.11 442.627 1141.67 442.503C1142.24 442.387 1142.69 441.949 1143.02 441.192L1143.29 440.481L1137.27 423.209H1142.16L1145.64 435.54H1145.81L1149.32 423.209L1154.25 423.231L1147.73 441.815C1147.41 442.711 1146.99 443.491 1146.45 444.154C1145.92 444.824 1145.24 445.342 1144.43 445.706C1143.61 446.078 1142.63 446.264 1141.48 446.264ZM905.829 482.997L901.565 483.26C901.492 482.895 901.336 482.567 901.095 482.276C900.855 481.977 900.538 481.74 900.144 481.565C899.758 481.383 899.295 481.292 898.756 481.292C898.035 481.292 897.426 481.445 896.93 481.751C896.435 482.05 896.187 482.451 896.187 482.954C896.187 483.354 896.347 483.693 896.668 483.97C896.989 484.247 897.539 484.469 898.319 484.637L901.358 485.249C902.99 485.584 904.207 486.124 905.009 486.867C905.81 487.61 906.211 488.587 906.211 489.797C906.211 490.897 905.887 491.863 905.238 492.693C904.597 493.524 903.715 494.173 902.593 494.639C901.478 495.098 900.192 495.328 898.734 495.328C896.511 495.328 894.741 494.865 893.422 493.94C892.11 493.007 891.341 491.739 891.115 490.136L895.695 489.895C895.834 490.573 896.169 491.09 896.701 491.447C897.233 491.797 897.914 491.972 898.745 491.972C899.561 491.972 900.217 491.815 900.713 491.502C901.216 491.181 901.471 490.77 901.478 490.267C901.471 489.844 901.292 489.498 900.942 489.228C900.592 488.951 900.053 488.74 899.324 488.594L896.417 488.015C894.777 487.687 893.556 487.119 892.755 486.31C891.96 485.501 891.563 484.469 891.563 483.216C891.563 482.137 891.855 481.208 892.438 480.429C893.028 479.649 893.855 479.048 894.919 478.625C895.99 478.202 897.244 477.991 898.679 477.991C900.8 477.991 902.469 478.439 903.686 479.335C904.91 480.232 905.625 481.452 905.829 482.997ZM913.931 495.317C912.86 495.317 911.905 495.131 911.067 494.76C910.229 494.381 909.566 493.823 909.078 493.087C908.597 492.344 908.356 491.418 908.356 490.31C908.356 489.378 908.528 488.594 908.87 487.96C909.213 487.326 909.679 486.816 910.269 486.43C910.86 486.044 911.53 485.752 912.281 485.555C913.039 485.359 913.833 485.22 914.664 485.14C915.64 485.038 916.427 484.943 917.025 484.856C917.623 484.761 918.056 484.623 918.326 484.44C918.595 484.258 918.73 483.989 918.73 483.631V483.566C918.73 482.874 918.512 482.338 918.074 481.959C917.644 481.58 917.032 481.391 916.238 481.391C915.4 481.391 914.733 481.576 914.237 481.948C913.742 482.312 913.414 482.771 913.254 483.325L908.947 482.976C909.165 481.955 909.595 481.073 910.237 480.33C910.878 479.58 911.705 479.004 912.718 478.603C913.738 478.195 914.919 477.991 916.26 477.991C917.193 477.991 918.085 478.1 918.938 478.319C919.798 478.537 920.559 478.876 921.223 479.335C921.893 479.795 922.421 480.385 922.808 481.106C923.194 481.82 923.387 482.677 923.387 483.675V495H918.971V492.672H918.84C918.57 493.196 918.209 493.659 917.757 494.06C917.306 494.453 916.763 494.763 916.129 494.989C915.495 495.208 914.762 495.317 913.931 495.317ZM915.265 492.103C915.95 492.103 916.555 491.968 917.08 491.699C917.604 491.422 918.016 491.05 918.315 490.584C918.614 490.117 918.763 489.589 918.763 488.999V487.217C918.617 487.312 918.417 487.399 918.162 487.479C917.914 487.552 917.633 487.621 917.32 487.687C917.007 487.745 916.693 487.8 916.38 487.851C916.067 487.895 915.782 487.935 915.527 487.971C914.981 488.051 914.503 488.179 914.095 488.354C913.687 488.529 913.37 488.766 913.144 489.064C912.918 489.356 912.805 489.72 912.805 490.157C912.805 490.791 913.035 491.276 913.494 491.611C913.961 491.939 914.551 492.103 915.265 492.103ZM927 495V478.209H931.438V481.172H931.635C931.984 480.188 932.567 479.412 933.384 478.844C934.2 478.275 935.176 477.991 936.313 477.991C937.465 477.991 938.445 478.279 939.254 478.854C940.063 479.423 940.602 480.195 940.872 481.172H941.047C941.389 480.21 942.009 479.441 942.905 478.865C943.809 478.282 944.876 477.991 946.108 477.991C947.675 477.991 948.946 478.49 949.923 479.488C950.907 480.48 951.399 481.886 951.399 483.708V495H946.753V484.626C946.753 483.693 946.505 482.994 946.009 482.527C945.514 482.061 944.894 481.828 944.151 481.828C943.306 481.828 942.646 482.097 942.172 482.637C941.699 483.169 941.462 483.872 941.462 484.746V495H936.947V484.528C936.947 483.704 936.71 483.048 936.237 482.56C935.77 482.072 935.155 481.828 934.389 481.828C933.872 481.828 933.406 481.959 932.99 482.221C932.582 482.476 932.258 482.837 932.017 483.303C931.777 483.763 931.657 484.302 931.657 484.921V495H927ZM955.077 501.296V478.209H959.668V481.03H959.876C960.08 480.578 960.375 480.119 960.761 479.652C961.155 479.179 961.665 478.785 962.292 478.472C962.926 478.151 963.713 477.991 964.653 477.991C965.877 477.991 967.007 478.312 968.041 478.953C969.076 479.587 969.903 480.545 970.523 481.828C971.142 483.103 971.452 484.703 971.452 486.627C971.452 488.5 971.15 490.081 970.545 491.371C969.947 492.653 969.131 493.626 968.096 494.289C967.069 494.945 965.917 495.273 964.642 495.273C963.738 495.273 962.969 495.124 962.335 494.825C961.709 494.526 961.195 494.151 960.794 493.699C960.393 493.24 960.087 492.777 959.876 492.311H959.734V501.296H955.077ZM959.635 486.605C959.635 487.603 959.774 488.474 960.051 489.217C960.328 489.961 960.728 490.54 961.253 490.955C961.778 491.364 962.415 491.568 963.166 491.568C963.924 491.568 964.565 491.36 965.09 490.944C965.615 490.522 966.012 489.939 966.282 489.195C966.558 488.445 966.697 487.581 966.697 486.605C966.697 485.635 966.562 484.783 966.292 484.047C966.023 483.311 965.626 482.735 965.101 482.32C964.576 481.904 963.931 481.697 963.166 481.697C962.408 481.697 961.767 481.897 961.242 482.298C960.725 482.699 960.328 483.267 960.051 484.003C959.774 484.739 959.635 485.606 959.635 486.605ZM979.213 472.613V495H974.557V472.613H979.213ZM982.944 495V478.209H987.6V495H982.944ZM985.294 476.045C984.601 476.045 984.008 475.816 983.512 475.356C983.016 474.89 982.769 474.333 982.769 473.684C982.769 473.043 983.016 472.492 983.512 472.033C984.008 471.567 984.598 471.334 985.283 471.334C985.982 471.334 986.576 471.567 987.065 472.033C987.56 472.492 987.808 473.043 987.808 473.684C987.808 474.333 987.56 474.89 987.065 475.356C986.576 475.816 985.986 476.045 985.294 476.045ZM995.987 485.293V495H991.331V478.209H995.769V481.172H995.966C996.337 480.195 996.96 479.423 997.835 478.854C998.709 478.279 999.77 477.991 1001.02 477.991C1002.18 477.991 1003.2 478.246 1004.07 478.756C1004.93 479.266 1005.61 479.995 1006.09 480.942C1006.57 481.882 1006.81 483.005 1006.81 484.309V495H1002.15V485.14C1002.16 484.112 1001.9 483.311 1001.37 482.735C1000.83 482.152 1000.1 481.861 999.168 481.861C998.542 481.861 997.988 481.995 997.507 482.265C997.033 482.535 996.661 482.928 996.392 483.446C996.129 483.956 995.995 484.572 995.987 485.293ZM1018.04 501.537C1016.54 501.537 1015.24 501.333 1014.16 500.925C1013.09 500.517 1012.24 499.966 1011.61 499.274C1010.97 498.582 1010.56 497.813 1010.37 496.968L1014.68 496.388C1014.81 496.694 1015.02 496.982 1015.3 497.252C1015.58 497.529 1015.96 497.755 1016.43 497.93C1016.9 498.104 1017.48 498.192 1018.15 498.192C1019.17 498.192 1020 497.951 1020.66 497.47C1021.32 496.99 1021.65 496.199 1021.65 495.098V492.027H1021.45C1021.25 492.493 1020.94 492.934 1020.54 493.349C1020.13 493.765 1019.6 494.104 1018.96 494.366C1018.32 494.628 1017.56 494.76 1016.67 494.76C1015.41 494.76 1014.26 494.468 1013.22 493.885C1012.2 493.295 1011.38 492.395 1010.76 491.185C1010.16 489.968 1009.86 488.43 1009.86 486.572C1009.86 484.67 1010.17 483.081 1010.79 481.806C1011.41 480.531 1012.23 479.576 1013.26 478.942C1014.29 478.308 1015.42 477.991 1016.66 477.991C1017.6 477.991 1018.38 478.151 1019.02 478.472C1019.65 478.785 1020.16 479.179 1020.55 479.652C1020.94 480.119 1021.24 480.578 1021.45 481.03H1021.63V478.209H1026.25V495.164C1026.25 496.563 1025.9 497.733 1025.2 498.673C1024.5 499.62 1023.54 500.334 1022.3 500.815C1021.06 501.296 1019.65 501.537 1018.04 501.537ZM1018.14 491.261C1018.89 491.261 1019.53 491.076 1020.04 490.704C1020.57 490.325 1020.97 489.786 1021.25 489.086C1021.53 488.379 1021.67 487.534 1021.67 486.55C1021.67 485.566 1021.53 484.714 1021.26 483.992C1020.98 483.263 1020.58 482.699 1020.06 482.298C1019.53 481.897 1018.89 481.697 1018.14 481.697C1017.38 481.697 1016.73 481.904 1016.21 482.32C1015.68 482.728 1015.29 483.296 1015.02 484.025C1014.75 484.754 1014.61 485.595 1014.61 486.55C1014.61 487.519 1014.75 488.357 1015.02 489.064C1015.29 489.764 1015.69 490.307 1016.21 490.693C1016.73 491.072 1017.38 491.261 1018.14 491.261ZM1043.27 495.273C1042 495.273 1040.84 494.945 1039.81 494.289C1038.78 493.626 1037.96 492.653 1037.36 491.371C1036.76 490.081 1036.46 488.5 1036.46 486.627C1036.46 484.703 1036.77 483.103 1037.39 481.828C1038.01 480.545 1038.83 479.587 1039.86 478.953C1040.9 478.312 1042.03 477.991 1043.26 477.991C1044.2 477.991 1044.98 478.151 1045.61 478.472C1046.24 478.785 1046.75 479.179 1047.14 479.652C1047.53 480.119 1047.83 480.578 1048.04 481.03H1048.18V472.613H1052.82V495H1048.23V492.311H1048.04C1047.82 492.777 1047.51 493.24 1047.11 493.699C1046.71 494.151 1046.2 494.526 1045.57 494.825C1044.94 495.124 1044.17 495.273 1043.27 495.273ZM1044.75 491.568C1045.5 491.568 1046.13 491.364 1046.65 490.955C1047.17 490.54 1047.57 489.961 1047.85 489.217C1048.14 488.474 1048.28 487.603 1048.28 486.605C1048.28 485.606 1048.14 484.739 1047.86 484.003C1047.59 483.267 1047.18 482.699 1046.66 482.298C1046.13 481.897 1045.5 481.697 1044.75 481.697C1043.98 481.697 1043.34 481.904 1042.81 482.32C1042.29 482.735 1041.89 483.311 1041.62 484.047C1041.35 484.783 1041.22 485.635 1041.22 486.605C1041.22 487.581 1041.35 488.445 1041.62 489.195C1041.9 489.939 1042.29 490.522 1042.81 490.944C1043.34 491.36 1043.98 491.568 1044.75 491.568ZM1064.31 495.328C1062.58 495.328 1061.09 494.978 1059.85 494.279C1058.61 493.572 1057.65 492.573 1056.98 491.283C1056.31 489.986 1055.98 488.452 1055.98 486.681C1055.98 484.954 1056.31 483.438 1056.98 482.134C1057.65 480.829 1058.6 479.813 1059.81 479.084C1061.04 478.355 1062.47 477.991 1064.12 477.991C1065.23 477.991 1066.26 478.169 1067.21 478.526C1068.18 478.876 1069.01 479.405 1069.73 480.112C1070.45 480.818 1071.01 481.708 1071.41 482.779C1071.81 483.843 1072.01 485.089 1072.01 486.517V487.796H1057.83V484.91H1067.63C1067.63 484.24 1067.48 483.646 1067.19 483.129C1066.9 482.611 1066.5 482.207 1065.98 481.915C1065.47 481.616 1064.87 481.467 1064.2 481.467C1063.49 481.467 1062.86 481.631 1062.32 481.959C1061.78 482.28 1061.35 482.713 1061.05 483.26C1060.74 483.799 1060.59 484.4 1060.58 485.063V487.807C1060.58 488.638 1060.73 489.356 1061.04 489.961C1061.35 490.566 1061.79 491.032 1062.36 491.36C1062.93 491.688 1063.6 491.852 1064.38 491.852C1064.9 491.852 1065.37 491.779 1065.8 491.633C1066.23 491.487 1066.6 491.269 1066.91 490.977C1067.21 490.686 1067.45 490.329 1067.61 489.906L1071.91 490.19C1071.69 491.225 1071.25 492.129 1070.57 492.901C1069.9 493.666 1069.03 494.264 1067.97 494.694C1066.91 495.117 1065.69 495.328 1064.31 495.328ZM1082.64 495.328C1080.92 495.328 1079.44 494.964 1078.2 494.235C1076.97 493.499 1076.02 492.479 1075.36 491.174C1074.7 489.87 1074.37 488.368 1074.37 486.67C1074.37 484.95 1074.7 483.442 1075.37 482.145C1076.04 480.84 1076.99 479.824 1078.22 479.095C1079.45 478.359 1080.92 477.991 1082.62 477.991C1084.08 477.991 1085.36 478.257 1086.46 478.789C1087.56 479.321 1088.43 480.068 1089.08 481.03C1089.72 481.992 1090.07 483.121 1090.14 484.418H1085.74C1085.62 483.58 1085.29 482.906 1084.76 482.396C1084.23 481.879 1083.54 481.62 1082.69 481.62C1081.97 481.62 1081.34 481.817 1080.8 482.21C1080.27 482.597 1079.85 483.161 1079.55 483.905C1079.26 484.648 1079.11 485.548 1079.11 486.605C1079.11 487.676 1079.25 488.587 1079.54 489.338C1079.84 490.088 1080.26 490.66 1080.8 491.054C1081.34 491.447 1081.97 491.644 1082.69 491.644C1083.22 491.644 1083.7 491.535 1084.12 491.316C1084.55 491.098 1084.91 490.781 1085.18 490.365C1085.47 489.942 1085.65 489.436 1085.74 488.846H1090.14C1090.06 490.128 1089.71 491.258 1089.09 492.234C1088.47 493.204 1087.61 493.962 1086.52 494.508C1085.42 495.055 1084.13 495.328 1082.64 495.328ZM1093.12 495V478.209H1097.77V495H1093.12ZM1095.47 476.045C1094.78 476.045 1094.18 475.816 1093.69 475.356C1093.19 474.89 1092.94 474.333 1092.94 473.684C1092.94 473.043 1093.19 472.492 1093.69 472.033C1094.18 471.567 1094.77 471.334 1095.46 471.334C1096.16 471.334 1096.75 471.567 1097.24 472.033C1097.73 472.492 1097.98 473.043 1097.98 473.684C1097.98 474.333 1097.73 474.89 1097.24 475.356C1096.75 475.816 1096.16 476.045 1095.47 476.045ZM1115.47 482.997L1111.21 483.26C1111.14 482.895 1110.98 482.567 1110.74 482.276C1110.5 481.977 1110.18 481.74 1109.79 481.565C1109.4 481.383 1108.94 481.292 1108.4 481.292C1107.68 481.292 1107.07 481.445 1106.58 481.751C1106.08 482.05 1105.83 482.451 1105.83 482.954C1105.83 483.354 1105.99 483.693 1106.31 483.97C1106.64 484.247 1107.19 484.469 1107.97 484.637L1111 485.249C1112.64 485.584 1113.85 486.124 1114.66 486.867C1115.46 487.61 1115.86 488.587 1115.86 489.797C1115.86 490.897 1115.53 491.863 1114.88 492.693C1114.24 493.524 1113.36 494.173 1112.24 494.639C1111.12 495.098 1109.84 495.328 1108.38 495.328C1106.16 495.328 1104.39 494.865 1103.07 493.94C1101.76 493.007 1100.99 491.739 1100.76 490.136L1105.34 489.895C1105.48 490.573 1105.82 491.09 1106.35 491.447C1106.88 491.797 1107.56 491.972 1108.39 491.972C1109.21 491.972 1109.86 491.815 1110.36 491.502C1110.86 491.181 1111.12 490.77 1111.12 490.267C1111.12 489.844 1110.94 489.498 1110.59 489.228C1110.24 488.951 1109.7 488.74 1108.97 488.594L1106.06 488.015C1104.42 487.687 1103.2 487.119 1102.4 486.31C1101.61 485.501 1101.21 484.469 1101.21 483.216C1101.21 482.137 1101.5 481.208 1102.08 480.429C1102.67 479.649 1103.5 479.048 1104.57 478.625C1105.64 478.202 1106.89 477.991 1108.33 477.991C1110.45 477.991 1112.12 478.439 1113.33 479.335C1114.56 480.232 1115.27 481.452 1115.47 482.997ZM1118.79 495V478.209H1123.45V495H1118.79ZM1121.14 476.045C1120.45 476.045 1119.85 475.816 1119.36 475.356C1118.86 474.89 1118.61 474.333 1118.61 473.684C1118.61 473.043 1118.86 472.492 1119.36 472.033C1119.85 471.567 1120.44 471.334 1121.13 471.334C1121.83 471.334 1122.42 471.567 1122.91 472.033C1123.41 472.492 1123.65 473.043 1123.65 473.684C1123.65 474.333 1123.41 474.89 1122.91 475.356C1122.42 475.816 1121.83 476.045 1121.14 476.045ZM1134.76 495.328C1133.07 495.328 1131.6 494.967 1130.36 494.246C1129.13 493.517 1128.18 492.504 1127.5 491.207C1126.83 489.902 1126.5 488.39 1126.5 486.67C1126.5 484.936 1126.83 483.42 1127.5 482.123C1128.18 480.818 1129.13 479.805 1130.36 479.084C1131.6 478.355 1133.07 477.991 1134.76 477.991C1136.46 477.991 1137.93 478.355 1139.16 479.084C1140.4 479.805 1141.35 480.818 1142.02 482.123C1142.69 483.42 1143.03 484.936 1143.03 486.67C1143.03 488.39 1142.69 489.902 1142.02 491.207C1141.35 492.504 1140.4 493.517 1139.16 494.246C1137.93 494.967 1136.46 495.328 1134.76 495.328ZM1134.79 491.721C1135.56 491.721 1136.2 491.502 1136.72 491.065C1137.24 490.62 1137.63 490.015 1137.89 489.25C1138.16 488.485 1138.29 487.614 1138.29 486.638C1138.29 485.661 1138.16 484.79 1137.89 484.025C1137.63 483.26 1137.24 482.655 1136.72 482.21C1136.2 481.766 1135.56 481.544 1134.79 481.544C1134.01 481.544 1133.35 481.766 1132.82 482.21C1132.29 482.655 1131.9 483.26 1131.63 484.025C1131.36 484.79 1131.23 485.661 1131.23 486.638C1131.23 487.614 1131.36 488.485 1131.63 489.25C1131.9 490.015 1132.29 490.62 1132.82 491.065C1133.35 491.502 1134.01 491.721 1134.79 491.721ZM1150.71 485.293V495H1146.06V478.209H1150.49V481.172H1150.69C1151.06 480.195 1151.68 479.423 1152.56 478.854C1153.43 478.279 1154.49 477.991 1155.74 477.991C1156.91 477.991 1157.92 478.246 1158.79 478.756C1159.66 479.266 1160.33 479.995 1160.81 480.942C1161.29 481.882 1161.53 483.005 1161.53 484.309V495H1156.88V485.14C1156.88 484.112 1156.62 483.311 1156.09 482.735C1155.56 482.152 1154.83 481.861 1153.89 481.861C1153.27 481.861 1152.71 481.995 1152.23 482.265C1151.76 482.535 1151.39 482.928 1151.12 483.446C1150.85 483.956 1150.72 484.572 1150.71 485.293ZM1167.93 495.284C1167.2 495.284 1166.59 495.029 1166.07 494.519C1165.56 494.002 1165.3 493.382 1165.3 492.661C1165.3 491.947 1165.56 491.334 1166.07 490.824C1166.59 490.314 1167.2 490.059 1167.93 490.059C1168.63 490.059 1169.24 490.314 1169.76 490.824C1170.29 491.334 1170.55 491.947 1170.55 492.661C1170.55 493.142 1170.43 493.583 1170.18 493.983C1169.94 494.377 1169.62 494.694 1169.23 494.934C1168.83 495.168 1168.4 495.284 1167.93 495.284Z" fill="#90A8EC"/>
<defs>
<filter id="filter0_d_429_714" x="371" y="380" width="168" height="114" filterUnits="userSpaceOnUse" color-interpolation-filters="sRGB">
<feFlood flood-opacity="0" result="BackgroundImageFix"/>
<feColorMatrix in="SourceAlpha" type="matrix" values="0 0 0 0 0 0 0 0 0 0 0 0 0 0 0 0 0 0 127 0" result="hardAlpha"/>
<feOffset dy="8"/>
<feGaussianBlur stdDeviation="8"/>
<feColorMatrix type="matrix" values="0 0 0 0 0.337255 0 0 0 0 0.388235 0 0 0 0 0.505882 0 0 0 0.24 0"/>
<feBlend mode="normal" in2="BackgroundImageFix" result="effect1_dropShadow_429_714"/>
<feBlend mode="normal" in="SourceGraphic" in2="effect1_dropShadow_429_714" result="shape"/>
</filter>
<filter id="filter1_d_429_714" x="371" y="542" width="168" height="114" filterUnits="userSpaceOnUse" color-interpolation-filters="sRGB">
<feFlood flood-opacity="0" result="BackgroundImageFix"/>
<feColorMatrix in="SourceAlpha" type="matrix" values="0 0 0 0 0 0 0 0 0 0 0 0 0 0 0 0 0 0 127 0" result="hardAlpha"/>
<feOffset dy="8"/>
<feGaussianBlur stdDeviation="8"/>
<feColorMatrix type="matrix" values="0 0 0 0 0.337255 0 0 0 0 0.388235 0 0 0 0 0.505882 0 0 0 0.24 0"/>
<feBlend mode="normal" in2="BackgroundImageFix" result="effect1_dropShadow_429_714"/>
<feBlend mode="normal" in="SourceGraphic" in2="effect1_dropShadow_429_714" result="shape"/>
</filter>
<filter id="filter2_d_429_714" x="334" y="218" width="243" height="114" filterUnits="userSpaceOnUse" color-interpolation-filters="sRGB">
<feFlood flood-opacity="0" result="BackgroundImageFix"/>
<feColorMatrix in="SourceAlpha" type="matrix" values="0 0 0 0 0 0 0 0 0 0 0 0 0 0 0 0 0 0 127 0" result="hardAlpha"/>
<feOffset dy="8"/>
<feGaussianBlur stdDeviation="8"/>
<feColorMatrix type="matrix" values="0 0 0 0 0.337255 0 0 0 0 0.388235 0 0 0 0 0.505882 0 0 0 0.24 0"/>
<feBlend mode="normal" in2="BackgroundImageFix" result="effect1_dropShadow_429_714"/>
<feBlend mode="normal" in="SourceGraphic" in2="effect1_dropShadow_429_714" result="shape"/>
</filter>
</defs>
</svg>
